<?xml version="1.0" encoding="utf-8"?>
<svg width="36px" height="35px" viewBox="0 0 36 35" version="1.1" xmlns:xlink="http://www.w3.org/1999/xlink" xmlns="http://www.w3.org/2000/svg">
  <desc>Created with Lunacy</desc>
  <defs>
    <path d="M0 0L35.175 0L35.175 34.9998L0 34.9998L0 0Z" transform="translate(0.0004 0)" id="path_1" />
    <clipPath id="mask_1">
      <use xlink:href="#path_1" />
    </clipPath>
  </defs>
  <g id="Group-46">
    <g id="Group-3">
      <path d="M0 0L35.175 0L35.175 34.9998L0 34.9998L0 0Z" transform="translate(0.0004 0)" id="Clip-2" fill="none" stroke="none" />
      <g clip-path="url(#mask_1)">
        <path d="M17.588 0C7.89 0 0 7.889 0 17.587C0 26.269 6.481 33.752 15.076 34.993C15.091 34.995 15.11 34.997 15.134 35L15.134 33.534C15.134 32.452 14.826 31.401 14.244 30.496L14.029 30.16C13.636 29.548 13.097 29.048 12.463 28.702C12.47 28.649 12.476 28.597 12.476 28.542C12.476 27.842 11.908 27.273 11.207 27.273C10.927 27.273 10.67 27.365 10.46 27.52C9.868 27.094 9.319 26.619 8.819 26.104C8.896 26.119 8.975 26.13 9.057 26.13C9.757 26.13 10.325 25.562 10.325 24.861C10.325 24.161 9.757 23.593 9.057 23.593C8.357 23.593 7.789 24.161 7.789 24.861C7.789 24.874 7.79 24.886 7.791 24.898C7.188 24.093 6.687 23.217 6.299 22.292C6.48 22.392 6.686 22.449 6.906 22.449C7.607 22.449 8.174 21.881 8.174 21.181C8.174 20.48 7.607 19.912 6.906 19.912C6.389 19.912 5.945 20.223 5.749 20.667C5.571 19.991 5.451 19.298 5.392 18.594C5.769 18.374 6.024 17.968 6.024 17.5C6.024 17.038 5.775 16.637 5.406 16.415C5.472 15.722 5.598 15.045 5.775 14.39C5.984 14.804 6.411 15.088 6.906 15.088C7.607 15.088 8.174 14.521 8.174 13.819C8.174 13.119 7.607 12.552 6.906 12.552C6.72 12.552 6.544 12.593 6.385 12.665C6.764 11.806 7.237 10.996 7.795 10.254C7.852 10.9 8.395 11.407 9.057 11.407C9.757 11.407 10.325 10.84 10.325 10.139C10.325 9.438 9.757 8.871 9.057 8.871C9.039 8.871 9.021 8.872 9.003 8.873C9.49 8.393 10.018 7.954 10.58 7.56C10.765 7.666 10.979 7.727 11.207 7.727C11.904 7.727 12.469 7.165 12.475 6.469C13.109 6.177 13.77 5.936 14.456 5.754C14.32 5.956 14.24 6.197 14.24 6.458C14.24 7.159 14.808 7.727 15.509 7.727C16.209 7.727 16.776 7.159 16.776 6.458C16.776 6.029 16.563 5.652 16.235 5.422C16.68 5.374 17.131 5.346 17.588 5.346C18.087 5.346 18.578 5.379 19.062 5.438C18.747 5.668 18.541 6.039 18.541 6.458C18.541 7.159 19.109 7.727 19.81 7.727C20.51 7.727 21.078 7.159 21.078 6.458C21.078 6.218 21.01 5.995 20.894 5.803C21.569 5.993 22.223 6.237 22.846 6.536C22.886 7.2 23.437 7.727 24.11 7.727C24.306 7.727 24.488 7.68 24.653 7.602C25.194 7.985 25.703 8.411 26.175 8.875C25.515 8.92 24.993 9.468 24.993 10.139C24.993 10.84 25.561 11.407 26.261 11.407C26.866 11.407 27.371 10.983 27.498 10.417C27.99 11.096 28.414 11.828 28.761 12.602C28.651 12.569 28.533 12.552 28.411 12.552C27.711 12.552 27.144 13.119 27.144 13.819C27.144 14.521 27.711 15.088 28.411 15.088C28.84 15.088 29.215 14.874 29.444 14.549C29.608 15.184 29.717 15.839 29.776 16.509C29.484 16.741 29.294 17.098 29.294 17.5C29.294 17.909 29.489 18.271 29.79 18.502C29.74 19.18 29.634 19.847 29.475 20.497C29.249 20.146 28.859 19.912 28.411 19.912C27.711 19.912 27.144 20.48 27.144 21.181C27.144 21.881 27.711 22.449 28.411 22.449C28.567 22.449 28.715 22.418 28.853 22.366C28.499 23.199 28.052 23.991 27.523 24.727C27.455 24.09 26.916 23.593 26.261 23.593C25.561 23.593 24.993 24.161 24.993 24.861C24.993 25.562 25.561 26.13 26.261 26.13C26.29 26.13 26.318 26.128 26.347 26.126C25.87 26.613 25.351 27.064 24.79 27.473C24.594 27.347 24.36 27.273 24.11 27.273C23.41 27.273 22.842 27.842 22.842 28.542C22.842 28.575 22.846 28.607 22.849 28.64C22.15 28.989 21.566 29.513 21.147 30.167L20.932 30.5C20.35 31.405 20.042 32.454 20.042 33.534L20.042 34.983C20.372 34.931 21.103 34.813 21.724 34.679C22.399 34.52 23.058 34.321 23.678 34.089L24.197 33.876C30.866 31.162 35.175 24.769 35.175 17.587C35.175 7.889 27.285 0 17.588 0" transform="translate(0.0004 -0.0002)" id="Fill-1" fill="#000000" stroke="none" />
      </g>
    </g>
    <path d="M1.269 2.537C1.969 2.537 2.537 1.969 2.537 1.268C2.537 0.568 1.969 0 1.269 0C0.568 0 0 0.568 0 1.268C0 1.969 0.568 2.537 1.269 2.537" transform="translate(12.0896 23.59259)" id="Fill-4" fill="#000000" stroke="none" />
    <path d="M1.268 2.537C1.969 2.537 2.537 1.969 2.537 1.268C2.537 0.568 1.969 0 1.268 0C0.568 0 0 0.568 0 1.268C0 1.969 0.568 2.537 1.268 2.537" transform="translate(9.939697 19.91199)" id="Fill-6" fill="#000000" stroke="none" />
    <path d="M1.269 0C0.568 0 0 0.567 0 1.268C0 1.968 0.568 2.536 1.269 2.536C1.969 2.536 2.537 1.968 2.537 1.268C2.537 0.567 1.969 0 1.269 0" transform="translate(12.0896 16.23221)" id="Fill-8" fill="#000000" stroke="none" />
    <path d="M0 1.268C0 1.969 0.568 2.537 1.268 2.537C1.969 2.537 2.537 1.969 2.537 1.268C2.537 0.568 1.969 0 1.268 0C0.568 0 0 0.568 0 1.268" transform="translate(9.939453 12.55109)" id="Fill-10" fill="#000000" stroke="none" />
    <path d="M1.269 0C0.568 0 0 0.567 0 1.268C0 1.969 0.568 2.536 1.269 2.536C1.969 2.536 2.537 1.969 2.537 1.268C2.537 0.567 1.969 0 1.269 0" transform="translate(12.0896 8.870789)" id="Fill-12" fill="#000000" stroke="none" />
    <path d="M1.269 0C0.569 0 0 0.567 0 1.268C0 1.969 0.569 2.536 1.269 2.536C1.969 2.536 2.538 1.969 2.538 1.268C2.538 0.567 1.969 0 1.269 0" transform="translate(20.69141 8.870789)" id="Fill-14" fill="#000000" stroke="none" />
    <path d="M1.269 2.536C1.969 2.536 2.538 1.968 2.538 1.267C2.538 0.567 1.969 0 1.269 0C0.569 0 0 0.567 0 1.267C0 1.968 0.569 2.536 1.269 2.536" transform="translate(20.69141 16.2323)" id="Fill-16" fill="#000000" stroke="none" />
    <path d="M1.269 2.537C1.969 2.537 2.537 1.969 2.537 1.268C2.537 0.568 1.969 0 1.269 0C0.568 0 0 0.568 0 1.268C0 1.969 0.568 2.537 1.269 2.537" transform="translate(14.24023 19.91199)" id="Fill-18" fill="#000000" stroke="none" />
    <path d="M2.536 1.268C2.536 0.568 1.969 0 1.268 0C0.567 0 0 0.568 0 1.268C0 1.968 0.567 2.537 1.268 2.537C1.969 2.537 2.536 1.968 2.536 1.268" transform="translate(16.39136 16.23181)" id="Fill-20" fill="#000000" stroke="none" />
    <path d="M1.269 0C0.569 0 0 0.567 0 1.268C0 1.969 0.569 2.536 1.269 2.536C1.969 2.536 2.538 1.969 2.538 1.268C2.538 0.567 1.969 0 1.269 0" transform="translate(22.8418 12.55151)" id="Fill-22" fill="#000000" stroke="none" />
    <path d="M0 1.268C0 1.969 0.567 2.537 1.269 2.537C1.969 2.537 2.536 1.969 2.536 1.268C2.536 0.568 1.969 0 1.269 0C0.567 0 0 0.568 0 1.268" transform="translate(14.24072 12.55109)" id="Fill-24" fill="#000000" stroke="none" />
    <path d="M2.537 1.269C2.537 0.569 1.969 0 1.268 0C0.568 0 0 0.569 0 1.269C0 1.969 0.568 2.538 1.268 2.538C1.308 2.538 1.349 2.535 1.389 2.531C1.471 2.515 1.553 2.5 1.634 2.483C2.156 2.326 2.537 1.842 2.537 1.269" transform="translate(18.54175 27.27271)" id="Fill-26" fill="#000000" stroke="none" />
    <path d="M0 1.268C0 1.968 0.568 2.537 1.268 2.537C1.969 2.537 2.536 1.968 2.536 1.268C2.536 0.568 1.969 0 1.268 0C0.568 0 0 0.568 0 1.268" transform="translate(7.789063 16.23181)" id="Fill-28" fill="#000000" stroke="none" />
    <path d="M1.269 0C0.568 0 0 0.567 0 1.268C0 1.969 0.568 2.536 1.269 2.536C1.969 2.536 2.537 1.969 2.537 1.268C2.537 0.567 1.969 0 1.269 0" transform="translate(16.39063 8.870789)" id="Fill-30" fill="#000000" stroke="none" />
    <path d="M2.536 1.269C2.536 0.569 1.969 0 1.268 0C0.567 0 0 0.569 0 1.269C0 1.969 0.567 2.538 1.268 2.538C1.969 2.538 2.536 1.969 2.536 1.269" transform="translate(16.39136 23.5921)" id="Fill-32" fill="#000000" stroke="none" />
    <path d="M1.269 0C0.568 0 0 0.568 0 1.269C0 1.969 0.568 2.537 1.269 2.537C1.969 2.537 2.537 1.969 2.537 1.269C2.537 0.568 1.969 0 1.269 0" transform="translate(14.24023 27.27319)" id="Fill-34" fill="#000000" stroke="none" />
    <path d="M2.536 1.268C2.536 0.568 1.969 0 1.267 0C0.567 0 0 0.568 0 1.268C0 1.968 0.567 2.537 1.267 2.537C1.969 2.537 2.536 1.968 2.536 1.268" transform="translate(24.9939 16.23181)" id="Fill-36" fill="#000000" stroke="none" />
    <path d="M2.537 1.269C2.537 0.569 1.969 0 1.268 0C0.568 0 0 0.569 0 1.269C0 1.969 0.568 2.538 1.268 2.538C1.969 2.538 2.537 1.969 2.537 1.269" transform="translate(22.84253 19.91141)" id="Fill-38" fill="#000000" stroke="none" />
    <path d="M0 1.268C0 1.969 0.568 2.537 1.269 2.537C1.969 2.537 2.537 1.969 2.537 1.268C2.537 0.568 1.969 0 1.269 0C0.568 0 0 0.568 0 1.268" transform="translate(18.5415 12.55109)" id="Fill-40" fill="#000000" stroke="none" />
    <path d="M1.269 2.537C1.969 2.537 2.538 1.969 2.538 1.268C2.538 0.568 1.969 0 1.269 0C0.569 0 0 0.568 0 1.268C0 1.969 0.569 2.537 1.269 2.537" transform="translate(20.69141 23.59259)" id="Fill-42" fill="#000000" stroke="none" />
    <path d="M1.269 2.537C1.969 2.537 2.538 1.969 2.538 1.268C2.538 0.568 1.969 0 1.269 0C0.569 0 0 0.568 0 1.268C0 1.969 0.569 2.537 1.269 2.537" transform="translate(18.54102 19.91199)" id="Fill-44" fill="#000000" stroke="none" />
  </g>
</svg>