<svg width="250" height="99" viewBox="0 0 250 99" fill="none" xmlns="http://www.w3.org/2000/svg">
<path d="M80.406 58.805C80.51 58.987 80.562 59.208 80.562 59.469C80.562 59.859 80.419 60.198 80.133 60.484C79.872 60.771 79.521 60.914 79.078 60.914C78.792 60.914 78.531 60.849 78.297 60.719C78.089 60.589 77.919 60.393 77.789 60.133C77.294 59.169 76.852 57.971 76.461 56.539C76.096 55.081 75.771 53.466 75.484 51.695C75.224 49.924 75.003 48.023 74.82 45.992C74.664 43.935 74.534 41.812 74.43 39.625C72.477 39.885 70.276 40.172 67.828 40.484C65.406 40.797 62.633 41.161 59.508 41.578C57.32 41.891 55.094 42.164 52.828 42.398C47.255 48.466 41.383 53.076 35.211 56.227C29.065 59.352 22.893 60.914 16.695 60.914C13.935 60.914 11.539 60.641 9.508 60.094C7.503 59.573 5.836 58.987 4.508 58.336C3.206 57.659 2.229 57.034 1.578 56.461C0.901003 55.888 0.535994 55.576 0.483994 55.523C0.223994 55.263 0.0939941 54.924 0.0939941 54.508C0.0939941 54.091 0.236995 53.74 0.522995 53.453C0.809995 53.167 1.148 53.023 1.539 53.023C1.982 53.023 2.346 53.18 2.633 53.492C2.685 53.544 2.99701 53.818 3.57001 54.312C4.14301 54.781 4.98999 55.289 6.10899 55.836C7.25499 56.383 8.70101 56.878 10.445 57.32C12.19 57.763 14.26 57.984 16.656 57.984C19.938 57.984 23.076 57.542 26.07 56.656C29.065 55.771 31.891 54.625 34.547 53.219C37.229 51.786 39.716 50.159 42.008 48.336C44.326 46.513 46.422 44.664 48.297 42.789C46.448 42.945 44.612 43.062 42.789 43.141C40.966 43.219 39.169 43.258 37.398 43.258C33.909 43.258 30.589 43.062 27.438 42.672C24.286 42.281 21.513 41.63 19.117 40.719C16.721 39.781 14.807 38.544 13.375 37.008C11.969 35.471 11.266 33.557 11.266 31.266C11.266 30.224 11.474 29.182 11.891 28.141C12.333 27.099 12.854 26.161 13.453 25.328C14.052 24.469 14.677 23.779 15.328 23.258C15.979 22.711 16.539 22.438 17.008 22.438C17.372 22.438 17.711 22.568 18.023 22.828C18.336 23.089 18.492 23.44 18.492 23.883C18.492 24.117 18.44 24.352 18.336 24.586C18.232 24.794 18.076 24.964 17.867 25.094C17.815 25.146 17.594 25.328 17.203 25.641C16.812 25.953 16.396 26.383 15.953 26.93C15.51 27.451 15.107 28.089 14.742 28.844C14.378 29.573 14.195 30.367 14.195 31.227C14.195 32.711 14.703 34.026 15.719 35.172C16.76 36.292 18.258 37.242 20.211 38.023C22.19 38.779 24.612 39.352 27.477 39.742C30.341 40.133 33.609 40.328 37.281 40.328C39.391 40.328 41.617 40.263 43.961 40.133C46.305 40.003 48.779 39.807 51.383 39.547C52.633 38.167 53.74 36.865 54.703 35.641C55.667 34.417 56.487 33.323 57.164 32.359C58.284 30.771 59.456 29.078 60.68 27.281C61.904 25.484 63.115 23.661 64.312 21.8125C65.536 19.9635 66.721 18.1406 67.867 16.3438C69.039 14.5208 70.133 12.8151 71.148 11.2266C72.164 9.61202 73.076 8.15362 73.883 6.85162C74.69 5.52342 75.354 4.42971 75.875 3.57031C76.031 2.86721 76.266 2.22921 76.578 1.65621C76.891 1.05731 77.398 0.757812 78.102 0.757812C78.492 0.757812 78.87 0.927117 79.234 1.26562C79.599 1.57812 79.781 1.98182 79.781 2.47662C79.781 2.84112 79.651 3.23181 79.391 3.64841C79.13 4.06511 78.883 4.41672 78.648 4.70312C78.57 5.19792 78.44 6.25262 78.258 7.86722C78.102 9.48182 77.932 11.4609 77.75 13.8047C77.594 16.1224 77.451 18.6875 77.32 21.5C77.216 24.286 77.164 27.112 77.164 29.977C77.164 31.044 77.164 32.099 77.164 33.141C77.164 34.182 77.19 35.237 77.242 36.305C81.148 35.81 84 35.471 85.797 35.289C87.594 35.081 88.544 34.977 88.648 34.977C88.987 34.977 89.312 35.12 89.625 35.406C89.964 35.667 90.133 36.018 90.133 36.461C90.133 36.826 90.003 37.151 89.742 37.438C89.508 37.698 89.195 37.854 88.805 37.906C88.336 37.958 87.789 38.023 87.164 38.102C86.539 38.18 85.771 38.271 84.859 38.375C83.948 38.479 82.88 38.609 81.656 38.766C80.432 38.896 79 39.065 77.359 39.273C77.438 41.409 77.555 43.466 77.711 45.445C77.893 47.398 78.102 49.221 78.336 50.914C78.596 52.607 78.896 54.13 79.234 55.484C79.573 56.839 79.964 57.945 80.406 58.805ZM59.117 38.648C62.19 38.232 64.977 37.867 67.477 37.555C70.003 37.216 72.281 36.917 74.312 36.656C74.286 35.536 74.26 34.417 74.234 33.297C74.234 32.177 74.234 31.044 74.234 29.898C74.234 26.227 74.299 22.724 74.43 19.3906C74.56 16.0312 74.742 13.1146 74.977 10.6406C73.935 12.2812 72.776 14.1042 71.5 16.1094C70.25 18.0885 68.948 20.1198 67.594 22.203C66.24 24.26 64.872 26.305 63.492 28.336C62.112 30.367 60.797 32.268 59.547 34.039C58.922 34.924 58.284 35.784 57.633 36.617C56.982 37.451 56.331 38.271 55.68 39.078C56.253 39.026 56.812 38.961 57.359 38.883C57.932 38.805 58.518 38.727 59.117 38.648ZM101.5 54.195C101.943 55.185 102.672 55.979 103.688 56.578C104.703 57.151 105.849 57.438 107.125 57.438C107.516 57.438 108.154 57.385 109.039 57.281C109.924 57.151 110.94 56.76 112.086 56.109C113.258 55.432 114.495 54.378 115.797 52.945C117.099 51.513 118.362 49.495 119.586 46.891C119.716 46.604 119.898 46.396 120.133 46.266C120.367 46.109 120.628 46.031 120.914 46.031C121.357 46.031 121.708 46.188 121.969 46.5C122.255 46.812 122.398 47.151 122.398 47.516C122.398 47.672 122.346 47.88 122.242 48.141C121.331 50.042 120.315 51.747 119.195 53.258C118.076 54.742 116.865 56.018 115.562 57.086C114.26 58.128 112.893 58.922 111.461 59.469C110.055 60.042 108.609 60.328 107.125 60.328C105.953 60.328 104.846 60.146 103.805 59.781C102.789 59.417 101.904 58.935 101.148 58.336C100.419 57.711 99.833 57.021 99.391 56.266C98.974 55.484 98.766 54.69 98.766 53.883C98.766 53.779 98.779 53.635 98.805 53.453C98.831 53.271 98.896 53.076 99 52.867C99.13 52.633 99.299 52.424 99.508 52.242C99.742 52.034 100.055 51.865 100.445 51.734C101.513 51.422 102.49 51.044 103.375 50.602C104.286 50.133 105.068 49.612 105.719 49.039C106.37 48.466 106.878 47.841 107.242 47.164C107.607 46.461 107.789 45.706 107.789 44.898C107.789 44.195 107.555 43.622 107.086 43.18C106.617 42.737 106.044 42.516 105.367 42.516C104.664 42.516 103.974 42.763 103.297 43.258C102.62 43.727 101.956 44.365 101.305 45.172C100.68 45.953 100.081 46.865 99.508 47.906C98.935 48.922 98.401 49.99 97.906 51.109C97.438 52.229 97.021 53.349 96.656 54.469C96.292 55.562 95.992 56.578 95.758 57.516C95.68 57.802 95.589 58.115 95.484 58.453C95.406 58.792 95.276 59.104 95.094 59.391C94.911 59.703 94.69 59.951 94.43 60.133C94.169 60.341 93.831 60.445 93.414 60.445C93.023 60.445 92.646 60.276 92.281 59.938C91.917 59.625 91.734 59.078 91.734 58.297C91.734 58.141 91.734 57.542 91.734 56.5C91.76 55.458 91.786 54.104 91.812 52.438C91.839 50.745 91.865 48.818 91.891 46.656C91.943 44.469 91.982 42.164 92.008 39.742C92.034 37.294 92.073 34.781 92.125 32.203C92.177 29.625 92.216 27.112 92.242 24.664C92.268 22.216 92.294 19.8984 92.32 17.7109C92.372 15.4974 92.411 13.5443 92.438 11.8516C92.464 10.1328 92.477 8.73961 92.477 7.67191C92.503 6.57811 92.516 5.92712 92.516 5.71882C92.516 5.30212 92.672 4.96352 92.984 4.70312C93.297 4.41672 93.635 4.27341 94 4.27341C94.417 4.27341 94.768 4.41672 95.055 4.70312C95.341 4.96352 95.484 5.31511 95.484 5.75781C95.484 5.80991 95.471 6.33071 95.445 7.32031C95.445 8.28391 95.432 9.58592 95.406 11.2266C95.38 12.8672 95.341 14.7812 95.289 16.9688C95.263 19.1562 95.224 21.487 95.172 23.961C95.146 26.409 95.107 28.935 95.055 31.539C95.029 34.143 94.99 36.682 94.938 39.156C94.911 41.63 94.885 43.987 94.859 46.227C94.833 48.466 94.807 50.445 94.781 52.164C95.198 50.836 95.732 49.443 96.383 47.984C97.034 46.5 97.802 45.133 98.688 43.883C99.573 42.633 100.562 41.604 101.656 40.797C102.776 39.99 104.013 39.586 105.367 39.586C106.122 39.586 106.826 39.729 107.477 40.016C108.128 40.276 108.688 40.654 109.156 41.148C109.651 41.617 110.029 42.177 110.289 42.828C110.576 43.479 110.719 44.182 110.719 44.938C110.719 46.109 110.458 47.19 109.938 48.18C109.417 49.143 108.727 50.016 107.867 50.797C107.008 51.552 106.018 52.216 104.898 52.789C103.805 53.362 102.672 53.831 101.5 54.195ZM149.82 48.102C149.716 48.31 149.495 48.753 149.156 49.43C148.844 50.081 148.427 50.836 147.906 51.695C147.411 52.555 146.826 53.453 146.148 54.391C145.471 55.328 144.716 56.188 143.883 56.969C143.049 57.75 142.151 58.401 141.188 58.922C140.224 59.417 139.208 59.664 138.141 59.664C136.63 59.664 135.354 59.182 134.312 58.219C133.297 57.255 132.555 56.044 132.086 54.586C131.201 56.07 130.146 57.255 128.922 58.141C127.698 59 126.474 59.43 125.25 59.43C124.286 59.43 123.414 59.26 122.633 58.922C121.852 58.557 121.188 58.062 120.641 57.438C120.094 56.786 119.664 56.031 119.352 55.172C119.065 54.312 118.922 53.375 118.922 52.359C118.922 50.328 119.26 48.544 119.938 47.008C120.641 45.445 121.526 44.143 122.594 43.102C123.661 42.06 124.833 41.279 126.109 40.758C127.411 40.237 128.661 39.977 129.859 39.977C130.667 39.977 131.409 40.094 132.086 40.328C132.763 40.536 133.336 40.771 133.805 41.031C134.299 41.292 134.677 41.539 134.938 41.773C135.198 41.982 135.341 42.099 135.367 42.125C135.654 42.464 135.797 42.815 135.797 43.18C135.797 43.57 135.654 43.922 135.367 44.234C135.081 44.521 134.742 44.664 134.352 44.664C133.935 44.664 133.583 44.521 133.297 44.234C133.245 44.182 133.128 44.091 132.945 43.961C132.763 43.805 132.516 43.648 132.203 43.492C131.891 43.336 131.513 43.206 131.07 43.102C130.654 42.971 130.172 42.906 129.625 42.906C128.818 42.906 127.958 43.089 127.047 43.453C126.135 43.818 125.302 44.391 124.547 45.172C123.792 45.927 123.154 46.891 122.633 48.062C122.138 49.208 121.891 50.576 121.891 52.164C121.891 52.659 121.943 53.167 122.047 53.688C122.151 54.182 122.333 54.638 122.594 55.055C122.854 55.471 123.206 55.81 123.648 56.07C124.091 56.331 124.638 56.461 125.289 56.461C125.758 56.461 126.292 56.305 126.891 55.992C127.516 55.68 128.102 55.198 128.648 54.547C129.221 53.896 129.729 53.076 130.172 52.086C130.641 51.096 130.966 49.924 131.148 48.57C131.201 48.206 131.37 47.906 131.656 47.672C131.943 47.411 132.281 47.281 132.672 47.281C133.036 47.281 133.349 47.424 133.609 47.711C133.896 47.997 134.052 48.323 134.078 48.688C134.104 49.182 134.156 49.885 134.234 50.797C134.312 51.682 134.482 52.568 134.742 53.453C135.029 54.339 135.445 55.107 135.992 55.758C136.539 56.409 137.294 56.734 138.258 56.734C138.883 56.734 139.495 56.565 140.094 56.227C140.719 55.888 141.318 55.445 141.891 54.898C142.49 54.326 143.049 53.688 143.57 52.984C144.117 52.255 144.612 51.526 145.055 50.797C145.497 50.068 145.888 49.365 146.227 48.688C146.565 48.01 146.852 47.424 147.086 46.93C147.216 46.643 147.398 46.422 147.633 46.266C147.893 46.109 148.167 46.031 148.453 46.031C148.896 46.031 149.247 46.201 149.508 46.539C149.794 46.852 149.938 47.19 149.938 47.555C149.938 47.737 149.898 47.919 149.82 48.102ZM169.352 48.18C169.065 48.779 168.701 49.495 168.258 50.328C167.841 51.135 167.359 51.982 166.812 52.867C166.266 53.753 165.654 54.638 164.977 55.523C164.299 56.383 163.557 57.164 162.75 57.867C161.969 58.544 161.122 59.091 160.211 59.508C159.326 59.951 158.375 60.172 157.359 60.172C155.797 60.172 154.456 59.69 153.336 58.727C152.216 57.763 151.266 56.5 150.484 54.938C149.703 53.375 149.065 51.604 148.57 49.625C148.102 47.62 147.737 45.589 147.477 43.531C147.216 41.448 147.034 39.43 146.93 37.477C146.852 35.523 146.812 33.792 146.812 32.281C146.812 30.094 146.878 27.828 147.008 25.484C147.164 23.141 147.398 20.849 147.711 18.6094C148.023 16.3698 148.414 14.2474 148.883 12.2422C149.378 10.237 149.951 8.47922 150.602 6.96882C151.279 5.45832 152.047 4.26042 152.906 3.37502C153.766 2.48962 154.742 2.04691 155.836 2.04691C156.695 2.04691 157.464 2.25521 158.141 2.67191C158.844 3.06251 159.43 3.71352 159.898 4.62502C160.367 5.53652 160.732 6.72142 160.992 8.17972C161.253 9.63802 161.383 11.4219 161.383 13.5312C161.383 16.1354 161.109 18.8307 160.562 21.6172C160.016 24.378 159.273 27.164 158.336 29.977C157.398 32.789 156.292 35.602 155.016 38.414C153.74 41.201 152.372 43.922 150.914 46.578C151.565 49.885 152.438 52.49 153.531 54.391C154.625 56.266 155.94 57.203 157.477 57.203C158.518 57.203 159.521 56.799 160.484 55.992C161.448 55.159 162.333 54.182 163.141 53.062C163.948 51.943 164.651 50.81 165.25 49.664C165.875 48.492 166.357 47.555 166.695 46.852C166.826 46.591 167.008 46.396 167.242 46.266C167.477 46.109 167.737 46.031 168.023 46.031C168.466 46.031 168.818 46.188 169.078 46.5C169.365 46.812 169.508 47.164 169.508 47.555C169.508 47.711 169.456 47.919 169.352 48.18ZM149.781 32.477C149.781 34.143 149.82 35.745 149.898 37.281C149.977 38.818 150.081 40.289 150.211 41.695C151.305 39.586 152.346 37.346 153.336 34.977C154.326 32.581 155.198 30.172 155.953 27.75C156.708 25.302 157.307 22.88 157.75 20.4844C158.219 18.0625 158.453 15.7578 158.453 13.5703C158.453 10.4974 158.206 8.29692 157.711 6.96882C157.216 5.64062 156.552 4.97662 155.719 4.97662C155.172 4.97662 154.638 5.35421 154.117 6.10941C153.622 6.86461 153.154 7.89321 152.711 9.19531C152.268 10.4974 151.865 12.0339 151.5 13.8047C151.135 15.5755 150.823 17.4766 150.562 19.5078C150.328 21.5391 150.133 23.661 149.977 25.875C149.846 28.089 149.781 30.289 149.781 32.477ZM186.773 48.102C186.773 50.497 186.344 52.542 185.484 54.234C184.625 55.927 183.57 57.216 182.32 58.102H182.477C184.013 58.102 185.406 57.763 186.656 57.086C187.932 56.383 189.078 55.497 190.094 54.43C191.109 53.336 192.021 52.125 192.828 50.797C193.635 49.469 194.352 48.18 194.977 46.93C195.107 46.643 195.289 46.422 195.523 46.266C195.784 46.109 196.057 46.031 196.344 46.031C196.786 46.031 197.138 46.188 197.398 46.5C197.659 46.812 197.789 47.151 197.789 47.516C197.789 47.724 197.75 47.919 197.672 48.102C196.995 49.612 196.188 51.135 195.25 52.672C194.312 54.182 193.219 55.549 191.969 56.773C190.719 57.997 189.312 58.987 187.75 59.742C186.188 60.523 184.456 60.914 182.555 60.914C181.174 60.914 179.833 60.693 178.531 60.25C177.229 59.833 176.083 59.169 175.094 58.258C174.729 57.971 174.417 57.672 174.156 57.359C173.896 57.021 173.688 56.708 173.531 56.422C173.479 56.37 173.453 56.318 173.453 56.266C173.297 56.031 173.219 55.784 173.219 55.523C173.219 55.185 173.336 54.872 173.57 54.586C173.596 54.534 173.622 54.508 173.648 54.508C173.674 54.482 173.701 54.456 173.727 54.43C173.987 54.195 174.273 54.065 174.586 54.039H174.703C174.833 54.039 174.924 54.052 174.977 54.078C175.003 54.078 175.016 54.091 175.016 54.117C175.042 54.117 175.068 54.117 175.094 54.117C175.172 54.117 175.263 54.143 175.367 54.195C175.393 54.221 175.419 54.234 175.445 54.234C175.68 54.391 175.875 54.586 176.031 54.82C176.214 55.133 176.422 55.419 176.656 55.68C176.865 55.888 177.112 56.083 177.398 56.266C177.685 56.422 178.01 56.5 178.375 56.5C179.026 56.5 179.677 56.305 180.328 55.914C180.979 55.523 181.565 54.964 182.086 54.234C182.607 53.505 183.023 52.62 183.336 51.578C183.674 50.536 183.844 49.378 183.844 48.102C183.844 47.164 183.74 46.37 183.531 45.719C183.349 45.042 183.102 44.495 182.789 44.078C182.503 43.661 182.19 43.362 181.852 43.18C181.513 42.971 181.188 42.867 180.875 42.867C180.172 42.867 179.456 43.232 178.727 43.961C178.023 44.69 177.32 45.615 176.617 46.734C175.914 47.854 175.211 49.091 174.508 50.445C173.831 51.799 173.141 53.115 172.438 54.391C172.385 58.609 172.307 62.633 172.203 66.461C172.125 70.289 171.969 73.844 171.734 77.125C171.526 80.406 171.227 83.375 170.836 86.031C170.445 88.688 169.911 90.953 169.234 92.828C168.557 94.729 167.724 96.188 166.734 97.203C165.745 98.219 164.534 98.727 163.102 98.727C162.659 98.727 162.151 98.635 161.578 98.453C161.005 98.271 160.471 97.893 159.977 97.32C159.482 96.773 159.065 95.979 158.727 94.938C158.388 93.896 158.219 92.503 158.219 90.758C158.219 88.544 158.492 85.979 159.039 83.062C159.586 80.146 160.367 77.047 161.383 73.766C162.372 70.51 163.557 67.164 164.938 63.727C166.318 60.289 167.841 56.943 169.508 53.688C169.508 52.776 169.508 51.878 169.508 50.992C169.534 50.107 169.547 49.247 169.547 48.414C169.208 48.805 168.805 49 168.336 49C167.893 49 167.542 48.844 167.281 48.531C167.021 48.219 166.891 47.88 166.891 47.516C166.891 47.333 166.93 47.138 167.008 46.93C167.633 45.497 168.115 44.143 168.453 42.867C168.792 41.565 169.039 40.432 169.195 39.469C169.378 38.479 169.482 37.698 169.508 37.125C169.534 36.552 169.547 36.253 169.547 36.227C169.547 35.836 169.69 35.497 169.977 35.211C170.263 34.924 170.615 34.781 171.031 34.781C171.422 34.781 171.76 34.924 172.047 35.211C172.333 35.471 172.477 35.81 172.477 36.227V48.219C173.076 47.203 173.674 46.201 174.273 45.211C174.872 44.221 175.497 43.336 176.148 42.555C176.826 41.773 177.542 41.148 178.297 40.68C179.078 40.185 179.938 39.938 180.875 39.938C181.76 39.938 182.568 40.146 183.297 40.562C184.026 40.979 184.651 41.552 185.172 42.281C185.693 43.01 186.083 43.883 186.344 44.898C186.63 45.888 186.773 46.956 186.773 48.102ZM169.43 60.641C168.154 63.505 166.995 66.383 165.953 69.273C164.938 72.164 164.078 74.951 163.375 77.633C162.646 80.315 162.086 82.828 161.695 85.172C161.305 87.516 161.109 89.573 161.109 91.344C161.109 91.786 161.135 92.268 161.188 92.789C161.24 93.31 161.344 93.792 161.5 94.234C161.656 94.677 161.878 95.042 162.164 95.328C162.451 95.641 162.828 95.797 163.297 95.797C164.156 95.797 164.898 95.25 165.523 94.156C166.148 93.089 166.669 91.63 167.086 89.781C167.529 87.958 167.893 85.849 168.18 83.453C168.466 81.083 168.688 78.596 168.844 75.992C169.026 73.388 169.156 70.758 169.234 68.102C169.312 65.471 169.378 62.984 169.43 60.641ZM209.547 59.547C210.458 58.635 211.383 57.711 212.32 56.773C213.258 55.81 214.169 54.807 215.055 53.766C215.94 52.724 216.76 51.643 217.516 50.523C218.297 49.378 218.987 48.167 219.586 46.891C219.716 46.604 219.898 46.396 220.133 46.266C220.367 46.109 220.628 46.031 220.914 46.031C221.357 46.031 221.708 46.188 221.969 46.5C222.255 46.812 222.398 47.164 222.398 47.555C222.398 47.763 222.359 47.958 222.281 48.141C221.474 49.833 220.549 51.383 219.508 52.789C218.466 54.195 217.372 55.536 216.227 56.812C215.081 58.062 213.922 59.273 212.75 60.445C211.578 61.643 210.458 62.841 209.391 64.039C209.286 65.836 209.286 67.633 209.391 69.43C209.495 71.253 209.547 73.18 209.547 75.211C209.547 76.878 209.495 78.544 209.391 80.211C209.286 81.878 209.117 83.466 208.883 84.977C208.648 86.513 208.323 87.945 207.906 89.273C207.516 90.602 207.008 91.747 206.383 92.711C205.758 93.701 205.029 94.469 204.195 95.016C203.362 95.589 202.385 95.875 201.266 95.875C199.417 95.875 197.997 95.237 197.008 93.961C196.018 92.685 195.523 90.901 195.523 88.609C195.523 87.359 195.654 86.018 195.914 84.586C196.201 83.154 196.591 81.669 197.086 80.133C197.581 78.622 198.167 77.086 198.844 75.523C199.547 73.961 200.302 72.438 201.109 70.953C201.917 69.469 202.776 68.049 203.688 66.695C204.599 65.367 205.523 64.156 206.461 63.062C206.513 61.812 206.565 60.51 206.617 59.156C206.695 57.828 206.773 56.591 206.852 55.445C206.174 56.643 205.328 57.607 204.312 58.336C203.323 59.065 202.229 59.43 201.031 59.43C199.052 59.43 197.503 58.766 196.383 57.438C195.263 56.109 194.703 54.286 194.703 51.969C194.703 50.276 194.859 48.74 195.172 47.359C195.51 45.953 195.862 44.755 196.227 43.766C196.617 42.75 196.969 41.982 197.281 41.461C197.594 40.914 197.75 40.654 197.75 40.68C198.036 40.237 198.44 40.016 198.961 40.016C199.404 40.016 199.755 40.172 200.016 40.484C200.302 40.771 200.445 41.109 200.445 41.5C200.445 41.786 200.367 42.047 200.211 42.281C200.237 42.255 200.107 42.477 199.82 42.945C199.56 43.388 199.26 44.039 198.922 44.898C198.609 45.758 198.31 46.786 198.023 47.984C197.763 49.182 197.633 50.497 197.633 51.93C197.633 53.362 197.893 54.482 198.414 55.289C198.935 56.096 199.781 56.5 200.953 56.5C202.438 56.5 203.779 55.406 204.977 53.219C206.174 51.005 207.19 47.802 208.023 43.609C208.076 43.271 208.232 42.997 208.492 42.789C208.753 42.555 209.065 42.438 209.43 42.438C209.846 42.438 210.198 42.581 210.484 42.867C210.771 43.154 210.914 43.505 210.914 43.922C210.914 44 210.862 44.469 210.758 45.328C210.654 46.161 210.523 47.281 210.367 48.688C210.237 50.094 210.094 51.734 209.938 53.609C209.781 55.458 209.651 57.438 209.547 59.547ZM206.422 67.828C205.25 69.521 204.169 71.305 203.18 73.18C202.216 75.055 201.383 76.917 200.68 78.766C199.977 80.615 199.43 82.385 199.039 84.078C198.648 85.771 198.453 87.281 198.453 88.609C198.453 89.964 198.674 91.018 199.117 91.773C199.56 92.555 200.263 92.945 201.227 92.945C202.086 92.945 202.841 92.516 203.492 91.656C204.169 90.823 204.729 89.625 205.172 88.062C205.641 86.5 205.992 84.599 206.227 82.359C206.461 80.146 206.578 77.659 206.578 74.898C206.578 73.779 206.552 72.646 206.5 71.5C206.474 70.354 206.448 69.13 206.422 67.828ZM249.82 48.102C249.716 48.31 249.495 48.753 249.156 49.43C248.844 50.081 248.427 50.836 247.906 51.695C247.411 52.555 246.826 53.453 246.148 54.391C245.471 55.328 244.716 56.188 243.883 56.969C243.049 57.75 242.151 58.401 241.188 58.922C240.224 59.417 239.208 59.664 238.141 59.664C236.63 59.664 235.354 59.182 234.312 58.219C233.297 57.255 232.555 56.044 232.086 54.586C231.201 56.07 230.146 57.255 228.922 58.141C227.698 59 226.474 59.43 225.25 59.43C224.286 59.43 223.414 59.26 222.633 58.922C221.852 58.557 221.188 58.062 220.641 57.438C220.094 56.786 219.664 56.031 219.352 55.172C219.065 54.312 218.922 53.375 218.922 52.359C218.922 50.328 219.26 48.544 219.938 47.008C220.641 45.445 221.526 44.143 222.594 43.102C223.661 42.06 224.833 41.279 226.109 40.758C227.411 40.237 228.661 39.977 229.859 39.977C230.667 39.977 231.409 40.094 232.086 40.328C232.763 40.536 233.336 40.771 233.805 41.031C234.299 41.292 234.677 41.539 234.938 41.773C235.198 41.982 235.341 42.099 235.367 42.125C235.654 42.464 235.797 42.815 235.797 43.18C235.797 43.57 235.654 43.922 235.367 44.234C235.081 44.521 234.742 44.664 234.352 44.664C233.935 44.664 233.583 44.521 233.297 44.234C233.245 44.182 233.128 44.091 232.945 43.961C232.763 43.805 232.516 43.648 232.203 43.492C231.891 43.336 231.513 43.206 231.07 43.102C230.654 42.971 230.172 42.906 229.625 42.906C228.818 42.906 227.958 43.089 227.047 43.453C226.135 43.818 225.302 44.391 224.547 45.172C223.792 45.927 223.154 46.891 222.633 48.062C222.138 49.208 221.891 50.576 221.891 52.164C221.891 52.659 221.943 53.167 222.047 53.688C222.151 54.182 222.333 54.638 222.594 55.055C222.854 55.471 223.206 55.81 223.648 56.07C224.091 56.331 224.638 56.461 225.289 56.461C225.758 56.461 226.292 56.305 226.891 55.992C227.516 55.68 228.102 55.198 228.648 54.547C229.221 53.896 229.729 53.076 230.172 52.086C230.641 51.096 230.966 49.924 231.148 48.57C231.201 48.206 231.37 47.906 231.656 47.672C231.943 47.411 232.281 47.281 232.672 47.281C233.036 47.281 233.349 47.424 233.609 47.711C233.896 47.997 234.052 48.323 234.078 48.688C234.104 49.182 234.156 49.885 234.234 50.797C234.312 51.682 234.482 52.568 234.742 53.453C235.029 54.339 235.445 55.107 235.992 55.758C236.539 56.409 237.294 56.734 238.258 56.734C238.883 56.734 239.495 56.565 240.094 56.227C240.719 55.888 241.318 55.445 241.891 54.898C242.49 54.326 243.049 53.688 243.57 52.984C244.117 52.255 244.612 51.526 245.055 50.797C245.497 50.068 245.888 49.365 246.227 48.688C246.565 48.01 246.852 47.424 247.086 46.93C247.216 46.643 247.398 46.422 247.633 46.266C247.893 46.109 248.167 46.031 248.453 46.031C248.896 46.031 249.247 46.201 249.508 46.539C249.794 46.852 249.938 47.19 249.938 47.555C249.938 47.737 249.898 47.919 249.82 48.102Z" fill="url(#paint0_linear_18:79)"/>
<defs>
<linearGradient id="paint0_linear_18:79" x1="130.369" y1="9.54231" x2="125.437" y2="119.952" gradientUnits="userSpaceOnUse">
<stop stop-color="#DCB248"/>
<stop offset="1" stop-color="#DCB248" stop-opacity="0.2"/>
</linearGradient>
</defs>
</svg>
