<svg width="258" height="99" viewBox="0 0 258 99" fill="none" xmlns="http://www.w3.org/2000/svg">
<path d="M88.406 58.805C88.51 58.987 88.562 59.208 88.562 59.469C88.562 59.859 88.419 60.198 88.133 60.484C87.872 60.771 87.521 60.914 87.078 60.914C86.792 60.914 86.531 60.849 86.297 60.719C86.089 60.589 85.919 60.393 85.789 60.133C85.294 59.169 84.852 57.971 84.461 56.539C84.096 55.081 83.771 53.466 83.484 51.695C83.224 49.924 83.003 48.023 82.82 45.992C82.664 43.935 82.534 41.812 82.43 39.625C80.477 39.885 78.276 40.172 75.828 40.484C73.406 40.797 70.633 41.161 67.508 41.578C65.32 41.891 63.094 42.164 60.828 42.398C55.255 48.466 49.383 53.076 43.211 56.227C37.065 59.352 30.893 60.914 24.695 60.914C21.935 60.914 19.539 60.641 17.508 60.094C15.503 59.573 13.836 58.987 12.508 58.336C11.206 57.659 10.229 57.034 9.578 56.461C8.901 55.888 8.53599 55.576 8.48399 55.523C8.22399 55.263 8.09399 54.924 8.09399 54.508C8.09399 54.091 8.23699 53.74 8.52299 53.453C8.80999 53.167 9.148 53.023 9.539 53.023C9.982 53.023 10.346 53.18 10.633 53.492C10.685 53.544 10.997 53.818 11.57 54.312C12.143 54.781 12.99 55.289 14.109 55.836C15.255 56.383 16.701 56.878 18.445 57.32C20.19 57.763 22.26 57.984 24.656 57.984C27.938 57.984 31.076 57.542 34.07 56.656C37.065 55.771 39.891 54.625 42.547 53.219C45.229 51.786 47.716 50.159 50.008 48.336C52.326 46.513 54.422 44.664 56.297 42.789C54.448 42.945 52.612 43.062 50.789 43.141C48.966 43.219 47.169 43.258 45.398 43.258C41.909 43.258 38.589 43.062 35.438 42.672C32.286 42.281 29.513 41.63 27.117 40.719C24.721 39.781 22.807 38.544 21.375 37.008C19.969 35.471 19.266 33.557 19.266 31.266C19.266 30.224 19.474 29.182 19.891 28.141C20.333 27.099 20.854 26.161 21.453 25.328C22.052 24.469 22.677 23.779 23.328 23.258C23.979 22.711 24.539 22.438 25.008 22.438C25.372 22.438 25.711 22.568 26.023 22.828C26.336 23.089 26.492 23.44 26.492 23.883C26.492 24.117 26.44 24.352 26.336 24.586C26.232 24.794 26.076 24.964 25.867 25.094C25.815 25.146 25.594 25.328 25.203 25.641C24.812 25.953 24.396 26.383 23.953 26.93C23.51 27.451 23.107 28.089 22.742 28.844C22.378 29.573 22.195 30.367 22.195 31.227C22.195 32.711 22.703 34.026 23.719 35.172C24.76 36.292 26.258 37.242 28.211 38.023C30.19 38.779 32.612 39.352 35.477 39.742C38.341 40.133 41.609 40.328 45.281 40.328C47.391 40.328 49.617 40.263 51.961 40.133C54.305 40.003 56.779 39.807 59.383 39.547C60.633 38.167 61.74 36.865 62.703 35.641C63.667 34.417 64.487 33.323 65.164 32.359C66.284 30.771 67.456 29.078 68.68 27.281C69.904 25.484 71.115 23.661 72.312 21.8125C73.536 19.9635 74.721 18.1406 75.867 16.3438C77.039 14.5208 78.133 12.8151 79.148 11.2266C80.164 9.61202 81.076 8.15362 81.883 6.85162C82.69 5.52342 83.354 4.42971 83.875 3.57031C84.031 2.86721 84.266 2.22921 84.578 1.65621C84.891 1.05731 85.398 0.757812 86.102 0.757812C86.492 0.757812 86.87 0.927117 87.234 1.26562C87.599 1.57812 87.781 1.98182 87.781 2.47662C87.781 2.84112 87.651 3.23181 87.391 3.64841C87.13 4.06511 86.883 4.41672 86.648 4.70312C86.57 5.19792 86.44 6.25262 86.258 7.86722C86.102 9.48182 85.932 11.4609 85.75 13.8047C85.594 16.1224 85.451 18.6875 85.32 21.5C85.216 24.286 85.164 27.112 85.164 29.977C85.164 31.044 85.164 32.099 85.164 33.141C85.164 34.182 85.19 35.237 85.242 36.305C89.148 35.81 92 35.471 93.797 35.289C95.594 35.081 96.544 34.977 96.648 34.977C96.987 34.977 97.312 35.12 97.625 35.406C97.964 35.667 98.133 36.018 98.133 36.461C98.133 36.826 98.003 37.151 97.742 37.438C97.508 37.698 97.195 37.854 96.805 37.906C96.336 37.958 95.789 38.023 95.164 38.102C94.539 38.18 93.771 38.271 92.859 38.375C91.948 38.479 90.88 38.609 89.656 38.766C88.432 38.896 87 39.065 85.359 39.273C85.438 41.409 85.555 43.466 85.711 45.445C85.893 47.398 86.102 49.221 86.336 50.914C86.596 52.607 86.896 54.13 87.234 55.484C87.573 56.839 87.964 57.945 88.406 58.805ZM67.117 38.648C70.19 38.232 72.977 37.867 75.477 37.555C78.003 37.216 80.281 36.917 82.312 36.656C82.286 35.536 82.26 34.417 82.234 33.297C82.234 32.177 82.234 31.044 82.234 29.898C82.234 26.227 82.299 22.724 82.43 19.3906C82.56 16.0312 82.742 13.1146 82.977 10.6406C81.935 12.2812 80.776 14.1042 79.5 16.1094C78.25 18.0885 76.948 20.1198 75.594 22.203C74.24 24.26 72.872 26.305 71.492 28.336C70.112 30.367 68.797 32.268 67.547 34.039C66.922 34.924 66.284 35.784 65.633 36.617C64.982 37.451 64.331 38.271 63.68 39.078C64.253 39.026 64.812 38.961 65.359 38.883C65.932 38.805 66.518 38.727 67.117 38.648ZM109.5 54.195C109.943 55.185 110.672 55.979 111.688 56.578C112.703 57.151 113.849 57.438 115.125 57.438C115.516 57.438 116.154 57.385 117.039 57.281C117.924 57.151 118.94 56.76 120.086 56.109C121.258 55.432 122.495 54.378 123.797 52.945C125.099 51.513 126.362 49.495 127.586 46.891C127.716 46.604 127.898 46.396 128.133 46.266C128.367 46.109 128.628 46.031 128.914 46.031C129.357 46.031 129.708 46.188 129.969 46.5C130.255 46.812 130.398 47.151 130.398 47.516C130.398 47.672 130.346 47.88 130.242 48.141C129.331 50.042 128.315 51.747 127.195 53.258C126.076 54.742 124.865 56.018 123.562 57.086C122.26 58.128 120.893 58.922 119.461 59.469C118.055 60.042 116.609 60.328 115.125 60.328C113.953 60.328 112.846 60.146 111.805 59.781C110.789 59.417 109.904 58.935 109.148 58.336C108.419 57.711 107.833 57.021 107.391 56.266C106.974 55.484 106.766 54.69 106.766 53.883C106.766 53.779 106.779 53.635 106.805 53.453C106.831 53.271 106.896 53.076 107 52.867C107.13 52.633 107.299 52.424 107.508 52.242C107.742 52.034 108.055 51.865 108.445 51.734C109.513 51.422 110.49 51.044 111.375 50.602C112.286 50.133 113.068 49.612 113.719 49.039C114.37 48.466 114.878 47.841 115.242 47.164C115.607 46.461 115.789 45.706 115.789 44.898C115.789 44.195 115.555 43.622 115.086 43.18C114.617 42.737 114.044 42.516 113.367 42.516C112.664 42.516 111.974 42.763 111.297 43.258C110.62 43.727 109.956 44.365 109.305 45.172C108.68 45.953 108.081 46.865 107.508 47.906C106.935 48.922 106.401 49.99 105.906 51.109C105.438 52.229 105.021 53.349 104.656 54.469C104.292 55.562 103.992 56.578 103.758 57.516C103.68 57.802 103.589 58.115 103.484 58.453C103.406 58.792 103.276 59.104 103.094 59.391C102.911 59.703 102.69 59.951 102.43 60.133C102.169 60.341 101.831 60.445 101.414 60.445C101.023 60.445 100.646 60.276 100.281 59.938C99.917 59.625 99.734 59.078 99.734 58.297C99.734 58.141 99.734 57.542 99.734 56.5C99.76 55.458 99.786 54.104 99.812 52.438C99.839 50.745 99.865 48.818 99.891 46.656C99.943 44.469 99.982 42.164 100.008 39.742C100.034 37.294 100.073 34.781 100.125 32.203C100.177 29.625 100.216 27.112 100.242 24.664C100.268 22.216 100.294 19.8984 100.32 17.7109C100.372 15.4974 100.411 13.5443 100.438 11.8516C100.464 10.1328 100.477 8.73961 100.477 7.67191C100.503 6.57811 100.516 5.92712 100.516 5.71882C100.516 5.30212 100.672 4.96352 100.984 4.70312C101.297 4.41672 101.635 4.27341 102 4.27341C102.417 4.27341 102.768 4.41672 103.055 4.70312C103.341 4.96352 103.484 5.31511 103.484 5.75781C103.484 5.80991 103.471 6.33071 103.445 7.32031C103.445 8.28391 103.432 9.58592 103.406 11.2266C103.38 12.8672 103.341 14.7812 103.289 16.9688C103.263 19.1562 103.224 21.487 103.172 23.961C103.146 26.409 103.107 28.935 103.055 31.539C103.029 34.143 102.99 36.682 102.938 39.156C102.911 41.63 102.885 43.987 102.859 46.227C102.833 48.466 102.807 50.445 102.781 52.164C103.198 50.836 103.732 49.443 104.383 47.984C105.034 46.5 105.802 45.133 106.688 43.883C107.573 42.633 108.562 41.604 109.656 40.797C110.776 39.99 112.013 39.586 113.367 39.586C114.122 39.586 114.826 39.729 115.477 40.016C116.128 40.276 116.688 40.654 117.156 41.148C117.651 41.617 118.029 42.177 118.289 42.828C118.576 43.479 118.719 44.182 118.719 44.938C118.719 46.109 118.458 47.19 117.938 48.18C117.417 49.143 116.727 50.016 115.867 50.797C115.008 51.552 114.018 52.216 112.898 52.789C111.805 53.362 110.672 53.831 109.5 54.195ZM157.82 48.102C157.716 48.31 157.495 48.753 157.156 49.43C156.844 50.081 156.427 50.836 155.906 51.695C155.411 52.555 154.826 53.453 154.148 54.391C153.471 55.328 152.716 56.188 151.883 56.969C151.049 57.75 150.151 58.401 149.188 58.922C148.224 59.417 147.208 59.664 146.141 59.664C144.63 59.664 143.354 59.182 142.312 58.219C141.297 57.255 140.555 56.044 140.086 54.586C139.201 56.07 138.146 57.255 136.922 58.141C135.698 59 134.474 59.43 133.25 59.43C132.286 59.43 131.414 59.26 130.633 58.922C129.852 58.557 129.188 58.062 128.641 57.438C128.094 56.786 127.664 56.031 127.352 55.172C127.065 54.312 126.922 53.375 126.922 52.359C126.922 50.328 127.26 48.544 127.938 47.008C128.641 45.445 129.526 44.143 130.594 43.102C131.661 42.06 132.833 41.279 134.109 40.758C135.411 40.237 136.661 39.977 137.859 39.977C138.667 39.977 139.409 40.094 140.086 40.328C140.763 40.536 141.336 40.771 141.805 41.031C142.299 41.292 142.677 41.539 142.938 41.773C143.198 41.982 143.341 42.099 143.367 42.125C143.654 42.464 143.797 42.815 143.797 43.18C143.797 43.57 143.654 43.922 143.367 44.234C143.081 44.521 142.742 44.664 142.352 44.664C141.935 44.664 141.583 44.521 141.297 44.234C141.245 44.182 141.128 44.091 140.945 43.961C140.763 43.805 140.516 43.648 140.203 43.492C139.891 43.336 139.513 43.206 139.07 43.102C138.654 42.971 138.172 42.906 137.625 42.906C136.818 42.906 135.958 43.089 135.047 43.453C134.135 43.818 133.302 44.391 132.547 45.172C131.792 45.927 131.154 46.891 130.633 48.062C130.138 49.208 129.891 50.576 129.891 52.164C129.891 52.659 129.943 53.167 130.047 53.688C130.151 54.182 130.333 54.638 130.594 55.055C130.854 55.471 131.206 55.81 131.648 56.07C132.091 56.331 132.638 56.461 133.289 56.461C133.758 56.461 134.292 56.305 134.891 55.992C135.516 55.68 136.102 55.198 136.648 54.547C137.221 53.896 137.729 53.076 138.172 52.086C138.641 51.096 138.966 49.924 139.148 48.57C139.201 48.206 139.37 47.906 139.656 47.672C139.943 47.411 140.281 47.281 140.672 47.281C141.036 47.281 141.349 47.424 141.609 47.711C141.896 47.997 142.052 48.323 142.078 48.688C142.104 49.182 142.156 49.885 142.234 50.797C142.312 51.682 142.482 52.568 142.742 53.453C143.029 54.339 143.445 55.107 143.992 55.758C144.539 56.409 145.294 56.734 146.258 56.734C146.883 56.734 147.495 56.565 148.094 56.227C148.719 55.888 149.318 55.445 149.891 54.898C150.49 54.326 151.049 53.688 151.57 52.984C152.117 52.255 152.612 51.526 153.055 50.797C153.497 50.068 153.888 49.365 154.227 48.688C154.565 48.01 154.852 47.424 155.086 46.93C155.216 46.643 155.398 46.422 155.633 46.266C155.893 46.109 156.167 46.031 156.453 46.031C156.896 46.031 157.247 46.201 157.508 46.539C157.794 46.852 157.938 47.19 157.938 47.555C157.938 47.737 157.898 47.919 157.82 48.102ZM177.352 48.18C177.065 48.779 176.701 49.495 176.258 50.328C175.841 51.135 175.359 51.982 174.812 52.867C174.266 53.753 173.654 54.638 172.977 55.523C172.299 56.383 171.557 57.164 170.75 57.867C169.969 58.544 169.122 59.091 168.211 59.508C167.326 59.951 166.375 60.172 165.359 60.172C163.797 60.172 162.456 59.69 161.336 58.727C160.216 57.763 159.266 56.5 158.484 54.938C157.703 53.375 157.065 51.604 156.57 49.625C156.102 47.62 155.737 45.589 155.477 43.531C155.216 41.448 155.034 39.43 154.93 37.477C154.852 35.523 154.812 33.792 154.812 32.281C154.812 30.094 154.878 27.828 155.008 25.484C155.164 23.141 155.398 20.849 155.711 18.6094C156.023 16.3698 156.414 14.2474 156.883 12.2422C157.378 10.237 157.951 8.47922 158.602 6.96882C159.279 5.45832 160.047 4.26042 160.906 3.37502C161.766 2.48962 162.742 2.04691 163.836 2.04691C164.695 2.04691 165.464 2.25521 166.141 2.67191C166.844 3.06251 167.43 3.71352 167.898 4.62502C168.367 5.53652 168.732 6.72142 168.992 8.17972C169.253 9.63802 169.383 11.4219 169.383 13.5312C169.383 16.1354 169.109 18.8307 168.562 21.6172C168.016 24.378 167.273 27.164 166.336 29.977C165.398 32.789 164.292 35.602 163.016 38.414C161.74 41.201 160.372 43.922 158.914 46.578C159.565 49.885 160.438 52.49 161.531 54.391C162.625 56.266 163.94 57.203 165.477 57.203C166.518 57.203 167.521 56.799 168.484 55.992C169.448 55.159 170.333 54.182 171.141 53.062C171.948 51.943 172.651 50.81 173.25 49.664C173.875 48.492 174.357 47.555 174.695 46.852C174.826 46.591 175.008 46.396 175.242 46.266C175.477 46.109 175.737 46.031 176.023 46.031C176.466 46.031 176.818 46.188 177.078 46.5C177.365 46.812 177.508 47.164 177.508 47.555C177.508 47.711 177.456 47.919 177.352 48.18ZM157.781 32.477C157.781 34.143 157.82 35.745 157.898 37.281C157.977 38.818 158.081 40.289 158.211 41.695C159.305 39.586 160.346 37.346 161.336 34.977C162.326 32.581 163.198 30.172 163.953 27.75C164.708 25.302 165.307 22.88 165.75 20.4844C166.219 18.0625 166.453 15.7578 166.453 13.5703C166.453 10.4974 166.206 8.29692 165.711 6.96882C165.216 5.64062 164.552 4.97662 163.719 4.97662C163.172 4.97662 162.638 5.35421 162.117 6.10941C161.622 6.86461 161.154 7.89321 160.711 9.19531C160.268 10.4974 159.865 12.0339 159.5 13.8047C159.135 15.5755 158.823 17.4766 158.562 19.5078C158.328 21.5391 158.133 23.661 157.977 25.875C157.846 28.089 157.781 30.289 157.781 32.477ZM194.773 48.102C194.773 50.497 194.344 52.542 193.484 54.234C192.625 55.927 191.57 57.216 190.32 58.102H190.477C192.013 58.102 193.406 57.763 194.656 57.086C195.932 56.383 197.078 55.497 198.094 54.43C199.109 53.336 200.021 52.125 200.828 50.797C201.635 49.469 202.352 48.18 202.977 46.93C203.107 46.643 203.289 46.422 203.523 46.266C203.784 46.109 204.057 46.031 204.344 46.031C204.786 46.031 205.138 46.188 205.398 46.5C205.659 46.812 205.789 47.151 205.789 47.516C205.789 47.724 205.75 47.919 205.672 48.102C204.995 49.612 204.188 51.135 203.25 52.672C202.312 54.182 201.219 55.549 199.969 56.773C198.719 57.997 197.312 58.987 195.75 59.742C194.188 60.523 192.456 60.914 190.555 60.914C189.174 60.914 187.833 60.693 186.531 60.25C185.229 59.833 184.083 59.169 183.094 58.258C182.729 57.971 182.417 57.672 182.156 57.359C181.896 57.021 181.688 56.708 181.531 56.422C181.479 56.37 181.453 56.318 181.453 56.266C181.297 56.031 181.219 55.784 181.219 55.523C181.219 55.185 181.336 54.872 181.57 54.586C181.596 54.534 181.622 54.508 181.648 54.508C181.674 54.482 181.701 54.456 181.727 54.43C181.987 54.195 182.273 54.065 182.586 54.039H182.703C182.833 54.039 182.924 54.052 182.977 54.078C183.003 54.078 183.016 54.091 183.016 54.117C183.042 54.117 183.068 54.117 183.094 54.117C183.172 54.117 183.263 54.143 183.367 54.195C183.393 54.221 183.419 54.234 183.445 54.234C183.68 54.391 183.875 54.586 184.031 54.82C184.214 55.133 184.422 55.419 184.656 55.68C184.865 55.888 185.112 56.083 185.398 56.266C185.685 56.422 186.01 56.5 186.375 56.5C187.026 56.5 187.677 56.305 188.328 55.914C188.979 55.523 189.565 54.964 190.086 54.234C190.607 53.505 191.023 52.62 191.336 51.578C191.674 50.536 191.844 49.378 191.844 48.102C191.844 47.164 191.74 46.37 191.531 45.719C191.349 45.042 191.102 44.495 190.789 44.078C190.503 43.661 190.19 43.362 189.852 43.18C189.513 42.971 189.188 42.867 188.875 42.867C188.172 42.867 187.456 43.232 186.727 43.961C186.023 44.69 185.32 45.615 184.617 46.734C183.914 47.854 183.211 49.091 182.508 50.445C181.831 51.799 181.141 53.115 180.438 54.391C180.385 58.609 180.307 62.633 180.203 66.461C180.125 70.289 179.969 73.844 179.734 77.125C179.526 80.406 179.227 83.375 178.836 86.031C178.445 88.688 177.911 90.953 177.234 92.828C176.557 94.729 175.724 96.188 174.734 97.203C173.745 98.219 172.534 98.727 171.102 98.727C170.659 98.727 170.151 98.635 169.578 98.453C169.005 98.271 168.471 97.893 167.977 97.32C167.482 96.773 167.065 95.979 166.727 94.938C166.388 93.896 166.219 92.503 166.219 90.758C166.219 88.544 166.492 85.979 167.039 83.062C167.586 80.146 168.367 77.047 169.383 73.766C170.372 70.51 171.557 67.164 172.938 63.727C174.318 60.289 175.841 56.943 177.508 53.688C177.508 52.776 177.508 51.878 177.508 50.992C177.534 50.107 177.547 49.247 177.547 48.414C177.208 48.805 176.805 49 176.336 49C175.893 49 175.542 48.844 175.281 48.531C175.021 48.219 174.891 47.88 174.891 47.516C174.891 47.333 174.93 47.138 175.008 46.93C175.633 45.497 176.115 44.143 176.453 42.867C176.792 41.565 177.039 40.432 177.195 39.469C177.378 38.479 177.482 37.698 177.508 37.125C177.534 36.552 177.547 36.253 177.547 36.227C177.547 35.836 177.69 35.497 177.977 35.211C178.263 34.924 178.615 34.781 179.031 34.781C179.422 34.781 179.76 34.924 180.047 35.211C180.333 35.471 180.477 35.81 180.477 36.227V48.219C181.076 47.203 181.674 46.201 182.273 45.211C182.872 44.221 183.497 43.336 184.148 42.555C184.826 41.773 185.542 41.148 186.297 40.68C187.078 40.185 187.938 39.938 188.875 39.938C189.76 39.938 190.568 40.146 191.297 40.562C192.026 40.979 192.651 41.552 193.172 42.281C193.693 43.01 194.083 43.883 194.344 44.898C194.63 45.888 194.773 46.956 194.773 48.102ZM177.43 60.641C176.154 63.505 174.995 66.383 173.953 69.273C172.938 72.164 172.078 74.951 171.375 77.633C170.646 80.315 170.086 82.828 169.695 85.172C169.305 87.516 169.109 89.573 169.109 91.344C169.109 91.786 169.135 92.268 169.188 92.789C169.24 93.31 169.344 93.792 169.5 94.234C169.656 94.677 169.878 95.042 170.164 95.328C170.451 95.641 170.828 95.797 171.297 95.797C172.156 95.797 172.898 95.25 173.523 94.156C174.148 93.089 174.669 91.63 175.086 89.781C175.529 87.958 175.893 85.849 176.18 83.453C176.466 81.083 176.688 78.596 176.844 75.992C177.026 73.388 177.156 70.758 177.234 68.102C177.312 65.471 177.378 62.984 177.43 60.641ZM217.547 59.547C218.458 58.635 219.383 57.711 220.32 56.773C221.258 55.81 222.169 54.807 223.055 53.766C223.94 52.724 224.76 51.643 225.516 50.523C226.297 49.378 226.987 48.167 227.586 46.891C227.716 46.604 227.898 46.396 228.133 46.266C228.367 46.109 228.628 46.031 228.914 46.031C229.357 46.031 229.708 46.188 229.969 46.5C230.255 46.812 230.398 47.164 230.398 47.555C230.398 47.763 230.359 47.958 230.281 48.141C229.474 49.833 228.549 51.383 227.508 52.789C226.466 54.195 225.372 55.536 224.227 56.812C223.081 58.062 221.922 59.273 220.75 60.445C219.578 61.643 218.458 62.841 217.391 64.039C217.286 65.836 217.286 67.633 217.391 69.43C217.495 71.253 217.547 73.18 217.547 75.211C217.547 76.878 217.495 78.544 217.391 80.211C217.286 81.878 217.117 83.466 216.883 84.977C216.648 86.513 216.323 87.945 215.906 89.273C215.516 90.602 215.008 91.747 214.383 92.711C213.758 93.701 213.029 94.469 212.195 95.016C211.362 95.589 210.385 95.875 209.266 95.875C207.417 95.875 205.997 95.237 205.008 93.961C204.018 92.685 203.523 90.901 203.523 88.609C203.523 87.359 203.654 86.018 203.914 84.586C204.201 83.154 204.591 81.669 205.086 80.133C205.581 78.622 206.167 77.086 206.844 75.523C207.547 73.961 208.302 72.438 209.109 70.953C209.917 69.469 210.776 68.049 211.688 66.695C212.599 65.367 213.523 64.156 214.461 63.062C214.513 61.812 214.565 60.51 214.617 59.156C214.695 57.828 214.773 56.591 214.852 55.445C214.174 56.643 213.328 57.607 212.312 58.336C211.323 59.065 210.229 59.43 209.031 59.43C207.052 59.43 205.503 58.766 204.383 57.438C203.263 56.109 202.703 54.286 202.703 51.969C202.703 50.276 202.859 48.74 203.172 47.359C203.51 45.953 203.862 44.755 204.227 43.766C204.617 42.75 204.969 41.982 205.281 41.461C205.594 40.914 205.75 40.654 205.75 40.68C206.036 40.237 206.44 40.016 206.961 40.016C207.404 40.016 207.755 40.172 208.016 40.484C208.302 40.771 208.445 41.109 208.445 41.5C208.445 41.786 208.367 42.047 208.211 42.281C208.237 42.255 208.107 42.477 207.82 42.945C207.56 43.388 207.26 44.039 206.922 44.898C206.609 45.758 206.31 46.786 206.023 47.984C205.763 49.182 205.633 50.497 205.633 51.93C205.633 53.362 205.893 54.482 206.414 55.289C206.935 56.096 207.781 56.5 208.953 56.5C210.438 56.5 211.779 55.406 212.977 53.219C214.174 51.005 215.19 47.802 216.023 43.609C216.076 43.271 216.232 42.997 216.492 42.789C216.753 42.555 217.065 42.438 217.43 42.438C217.846 42.438 218.198 42.581 218.484 42.867C218.771 43.154 218.914 43.505 218.914 43.922C218.914 44 218.862 44.469 218.758 45.328C218.654 46.161 218.523 47.281 218.367 48.688C218.237 50.094 218.094 51.734 217.938 53.609C217.781 55.458 217.651 57.438 217.547 59.547ZM214.422 67.828C213.25 69.521 212.169 71.305 211.18 73.18C210.216 75.055 209.383 76.917 208.68 78.766C207.977 80.615 207.43 82.385 207.039 84.078C206.648 85.771 206.453 87.281 206.453 88.609C206.453 89.964 206.674 91.018 207.117 91.773C207.56 92.555 208.263 92.945 209.227 92.945C210.086 92.945 210.841 92.516 211.492 91.656C212.169 90.823 212.729 89.625 213.172 88.062C213.641 86.5 213.992 84.599 214.227 82.359C214.461 80.146 214.578 77.659 214.578 74.898C214.578 73.779 214.552 72.646 214.5 71.5C214.474 70.354 214.448 69.13 214.422 67.828ZM257.82 48.102C257.716 48.31 257.495 48.753 257.156 49.43C256.844 50.081 256.427 50.836 255.906 51.695C255.411 52.555 254.826 53.453 254.148 54.391C253.471 55.328 252.716 56.188 251.883 56.969C251.049 57.75 250.151 58.401 249.188 58.922C248.224 59.417 247.208 59.664 246.141 59.664C244.63 59.664 243.354 59.182 242.312 58.219C241.297 57.255 240.555 56.044 240.086 54.586C239.201 56.07 238.146 57.255 236.922 58.141C235.698 59 234.474 59.43 233.25 59.43C232.286 59.43 231.414 59.26 230.633 58.922C229.852 58.557 229.188 58.062 228.641 57.438C228.094 56.786 227.664 56.031 227.352 55.172C227.065 54.312 226.922 53.375 226.922 52.359C226.922 50.328 227.26 48.544 227.938 47.008C228.641 45.445 229.526 44.143 230.594 43.102C231.661 42.06 232.833 41.279 234.109 40.758C235.411 40.237 236.661 39.977 237.859 39.977C238.667 39.977 239.409 40.094 240.086 40.328C240.763 40.536 241.336 40.771 241.805 41.031C242.299 41.292 242.677 41.539 242.938 41.773C243.198 41.982 243.341 42.099 243.367 42.125C243.654 42.464 243.797 42.815 243.797 43.18C243.797 43.57 243.654 43.922 243.367 44.234C243.081 44.521 242.742 44.664 242.352 44.664C241.935 44.664 241.583 44.521 241.297 44.234C241.245 44.182 241.128 44.091 240.945 43.961C240.763 43.805 240.516 43.648 240.203 43.492C239.891 43.336 239.513 43.206 239.07 43.102C238.654 42.971 238.172 42.906 237.625 42.906C236.818 42.906 235.958 43.089 235.047 43.453C234.135 43.818 233.302 44.391 232.547 45.172C231.792 45.927 231.154 46.891 230.633 48.062C230.138 49.208 229.891 50.576 229.891 52.164C229.891 52.659 229.943 53.167 230.047 53.688C230.151 54.182 230.333 54.638 230.594 55.055C230.854 55.471 231.206 55.81 231.648 56.07C232.091 56.331 232.638 56.461 233.289 56.461C233.758 56.461 234.292 56.305 234.891 55.992C235.516 55.68 236.102 55.198 236.648 54.547C237.221 53.896 237.729 53.076 238.172 52.086C238.641 51.096 238.966 49.924 239.148 48.57C239.201 48.206 239.37 47.906 239.656 47.672C239.943 47.411 240.281 47.281 240.672 47.281C241.036 47.281 241.349 47.424 241.609 47.711C241.896 47.997 242.052 48.323 242.078 48.688C242.104 49.182 242.156 49.885 242.234 50.797C242.312 51.682 242.482 52.568 242.742 53.453C243.029 54.339 243.445 55.107 243.992 55.758C244.539 56.409 245.294 56.734 246.258 56.734C246.883 56.734 247.495 56.565 248.094 56.227C248.719 55.888 249.318 55.445 249.891 54.898C250.49 54.326 251.049 53.688 251.57 52.984C252.117 52.255 252.612 51.526 253.055 50.797C253.497 50.068 253.888 49.365 254.227 48.688C254.565 48.01 254.852 47.424 255.086 46.93C255.216 46.643 255.398 46.422 255.633 46.266C255.893 46.109 256.167 46.031 256.453 46.031C256.896 46.031 257.247 46.201 257.508 46.539C257.794 46.852 257.938 47.19 257.938 47.555C257.938 47.737 257.898 47.919 257.82 48.102Z" fill="url(#paint0_linear_18:79)"/>
<path d="M0.393005 76V75.86L0.645004 75.762C0.832004 75.687 0.957995 75.594 1.02299 75.482C1.09799 75.37 1.13499 75.221 1.13499 75.034V67.726C1.13499 67.53 1.09799 67.376 1.02299 67.264C0.957995 67.152 0.832004 67.063 0.645004 66.998L0.393005 66.9V66.76H4.411C5.55 66.76 6.371 66.97 6.875 67.39C7.379 67.801 7.631 68.323 7.631 68.958C7.631 69.434 7.444 69.868 7.071 70.26C6.707 70.643 6.077 70.913 5.181 71.072C6.208 71.184 6.959 71.455 7.435 71.884C7.911 72.304 8.149 72.817 8.149 73.424C8.149 73.723 8.084 74.026 7.953 74.334C7.822 74.633 7.59801 74.908 7.28101 75.16C6.97301 75.412 6.548 75.617 6.007 75.776C5.466 75.925 4.78001 76 3.94901 76H0.393005ZM3.207 71.058H3.80901C4.43401 71.058 4.882 70.913 5.153 70.624C5.433 70.335 5.573 69.831 5.573 69.112C5.573 68.365 5.44701 67.833 5.19501 67.516C4.94301 67.199 4.532 67.04 3.963 67.04H3.207V71.058ZM3.207 75.72H3.907C4.607 75.72 5.125 75.533 5.461 75.16C5.806 74.787 5.979 74.203 5.979 73.41C5.979 72.663 5.816 72.131 5.489 71.814C5.162 71.497 4.626 71.338 3.879 71.338H3.207V75.72ZM12.328 69.056C12.935 69.056 13.453 69.182 13.882 69.434C14.312 69.677 14.638 70.013 14.862 70.442C15.096 70.862 15.212 71.343 15.212 71.884C15.212 71.987 15.208 72.094 15.198 72.206C15.189 72.309 15.17 72.402 15.142 72.486H10.97C10.98 73.494 11.157 74.222 11.502 74.67C11.857 75.109 12.38 75.328 13.07 75.328C13.537 75.328 13.915 75.253 14.204 75.104C14.494 74.955 14.764 74.735 15.016 74.446L15.156 74.572C14.867 75.085 14.48 75.487 13.994 75.776C13.518 76.065 12.944 76.21 12.272 76.21C11.61 76.21 11.022 76.07 10.508 75.79C9.995 75.501 9.594 75.09 9.304 74.558C9.015 74.026 8.87 73.391 8.87 72.654C8.87 71.889 9.03799 71.24 9.37399 70.708C9.70999 70.167 10.14 69.756 10.662 69.476C11.194 69.196 11.75 69.056 12.328 69.056ZM12.286 69.336C12.016 69.336 11.782 69.42 11.586 69.588C11.4 69.747 11.25 70.036 11.138 70.456C11.036 70.867 10.98 71.45 10.97 72.206H13.364C13.458 71.189 13.42 70.456 13.252 70.008C13.084 69.56 12.762 69.336 12.286 69.336ZM17.143 79.36C16.77 79.36 16.471 79.267 16.247 79.08C16.033 78.893 15.925 78.655 15.925 78.366C15.925 78.105 16.019 77.895 16.205 77.736C16.392 77.577 16.602 77.498 16.835 77.498C17.069 77.498 17.265 77.545 17.423 77.638C17.582 77.741 17.722 77.885 17.843 78.072L17.941 78.184C18.147 78.464 18.352 78.459 18.557 78.17C18.641 78.03 18.735 77.843 18.837 77.61C18.949 77.386 19.075 77.083 19.215 76.7L16.499 70.204C16.434 70.027 16.364 69.887 16.289 69.784C16.215 69.672 16.093 69.579 15.925 69.504L15.673 69.406V69.266H19.159V69.392L18.879 69.504C18.674 69.569 18.567 69.677 18.557 69.826C18.557 69.966 18.595 70.143 18.669 70.358L20.125 74.138L21.511 70.316C21.586 70.101 21.614 69.924 21.595 69.784C21.577 69.635 21.46 69.532 21.245 69.476L20.951 69.406V69.266H22.897V69.406L22.589 69.504C22.375 69.569 22.225 69.663 22.141 69.784C22.057 69.905 21.978 70.073 21.903 70.288L19.649 76.434C19.285 77.414 18.921 78.147 18.557 78.632C18.193 79.117 17.722 79.36 17.143 79.36ZM26.534 76.21C25.825 76.21 25.209 76.065 24.686 75.776C24.163 75.477 23.757 75.057 23.468 74.516C23.188 73.975 23.048 73.34 23.048 72.612C23.048 71.884 23.197 71.254 23.496 70.722C23.804 70.19 24.219 69.779 24.742 69.49C25.274 69.201 25.871 69.056 26.534 69.056C27.197 69.056 27.789 69.201 28.312 69.49C28.835 69.77 29.245 70.176 29.544 70.708C29.852 71.24 30.006 71.875 30.006 72.612C30.006 73.349 29.861 73.989 29.572 74.53C29.292 75.062 28.891 75.477 28.368 75.776C27.855 76.065 27.243 76.21 26.534 76.21ZM26.534 75.93C26.861 75.93 27.122 75.837 27.318 75.65C27.514 75.463 27.654 75.132 27.738 74.656C27.831 74.18 27.878 73.508 27.878 72.64C27.878 71.763 27.831 71.086 27.738 70.61C27.654 70.134 27.514 69.803 27.318 69.616C27.122 69.429 26.861 69.336 26.534 69.336C26.207 69.336 25.941 69.429 25.736 69.616C25.54 69.803 25.395 70.134 25.302 70.61C25.218 71.086 25.176 71.763 25.176 72.64C25.176 73.508 25.218 74.18 25.302 74.656C25.395 75.132 25.54 75.463 25.736 75.65C25.941 75.837 26.207 75.93 26.534 75.93ZM30.621 76V75.86L30.817 75.804C31.143 75.711 31.307 75.482 31.307 75.118V70.736C31.307 70.531 31.274 70.381 31.209 70.288C31.143 70.185 31.017 70.115 30.831 70.078L30.621 70.022V69.882L33.015 69.07L33.155 69.21L33.267 70.05C33.593 69.761 33.962 69.523 34.373 69.336C34.783 69.149 35.189 69.056 35.591 69.056C36.207 69.056 36.678 69.224 37.005 69.56C37.341 69.896 37.509 70.409 37.509 71.1V75.132C37.509 75.496 37.686 75.725 38.041 75.818L38.167 75.86V76H34.863V75.86L35.045 75.804C35.371 75.701 35.535 75.473 35.535 75.118V70.652C35.535 70.055 35.236 69.756 34.639 69.756C34.228 69.756 33.78 69.961 33.295 70.372V75.132C33.295 75.496 33.458 75.725 33.785 75.818L33.911 75.86V76H30.621ZM41.683 76.21C41.132 76.21 40.637 76.089 40.199 75.846C39.76 75.594 39.41 75.211 39.149 74.698C38.897 74.175 38.771 73.508 38.771 72.696C38.771 71.875 38.915 71.198 39.205 70.666C39.494 70.125 39.877 69.723 40.353 69.462C40.829 69.191 41.347 69.056 41.907 69.056C42.233 69.056 42.546 69.089 42.845 69.154C43.143 69.219 43.409 69.317 43.643 69.448V67.628C43.643 67.432 43.61 67.287 43.545 67.194C43.489 67.101 43.363 67.035 43.167 66.998L42.901 66.942V66.802L45.449 66.186L45.603 66.312L45.547 68.272V75.118C45.547 75.305 45.579 75.459 45.645 75.58C45.71 75.692 45.831 75.771 46.009 75.818L46.135 75.86V76L43.741 76.154L43.615 75.65C43.363 75.818 43.073 75.953 42.747 76.056C42.429 76.159 42.075 76.21 41.683 76.21ZM42.495 75.692C42.887 75.692 43.246 75.575 43.573 75.342V69.784C43.227 69.56 42.873 69.448 42.509 69.448C42.061 69.448 41.678 69.709 41.361 70.232C41.043 70.745 40.885 71.557 40.885 72.668C40.885 73.779 41.034 74.563 41.333 75.02C41.631 75.468 42.019 75.692 42.495 75.692ZM51.09 79.36C50.717 79.36 50.418 79.267 50.194 79.08C49.98 78.893 49.872 78.655 49.872 78.366C49.872 78.105 49.966 77.895 50.152 77.736C50.339 77.577 50.549 77.498 50.782 77.498C51.016 77.498 51.212 77.545 51.37 77.638C51.529 77.741 51.669 77.885 51.79 78.072L51.888 78.184C52.094 78.464 52.299 78.459 52.504 78.17C52.588 78.03 52.682 77.843 52.784 77.61C52.896 77.386 53.022 77.083 53.162 76.7L50.446 70.204C50.381 70.027 50.311 69.887 50.236 69.784C50.162 69.672 50.04 69.579 49.872 69.504L49.62 69.406V69.266H53.106V69.392L52.826 69.504C52.621 69.569 52.514 69.677 52.504 69.826C52.504 69.966 52.542 70.143 52.616 70.358L54.072 74.138L55.458 70.316C55.533 70.101 55.561 69.924 55.542 69.784C55.524 69.635 55.407 69.532 55.192 69.476L54.898 69.406V69.266H56.844V69.406L56.536 69.504C56.322 69.569 56.172 69.663 56.088 69.784C56.004 69.905 55.925 70.073 55.85 70.288L53.596 76.434C53.232 77.414 52.868 78.147 52.504 78.632C52.14 79.117 51.669 79.36 51.09 79.36ZM60.481 76.21C59.772 76.21 59.156 76.065 58.633 75.776C58.111 75.477 57.705 75.057 57.415 74.516C57.135 73.975 56.995 73.34 56.995 72.612C56.995 71.884 57.145 71.254 57.443 70.722C57.751 70.19 58.167 69.779 58.689 69.49C59.221 69.201 59.819 69.056 60.481 69.056C61.144 69.056 61.737 69.201 62.259 69.49C62.782 69.77 63.193 70.176 63.491 70.708C63.799 71.24 63.953 71.875 63.953 72.612C63.953 73.349 63.809 73.989 63.519 74.53C63.239 75.062 62.838 75.477 62.315 75.776C61.802 76.065 61.191 76.21 60.481 76.21ZM60.481 75.93C60.808 75.93 61.069 75.837 61.265 75.65C61.461 75.463 61.601 75.132 61.685 74.656C61.779 74.18 61.825 73.508 61.825 72.64C61.825 71.763 61.779 71.086 61.685 70.61C61.601 70.134 61.461 69.803 61.265 69.616C61.069 69.429 60.808 69.336 60.481 69.336C60.155 69.336 59.889 69.429 59.683 69.616C59.487 69.803 59.343 70.134 59.249 70.61C59.165 71.086 59.123 71.763 59.123 72.64C59.123 73.508 59.165 74.18 59.249 74.656C59.343 75.132 59.487 75.463 59.683 75.65C59.889 75.837 60.155 75.93 60.481 75.93ZM67.047 76.21C66.683 76.21 66.347 76.14 66.039 76C65.741 75.86 65.503 75.636 65.325 75.328C65.157 75.011 65.078 74.595 65.087 74.082L65.129 70.484C65.129 70.269 65.092 70.115 65.017 70.022C64.943 69.929 64.826 69.863 64.667 69.826L64.499 69.77V69.63L67.005 69.14L67.145 69.28L67.075 71.268V74.642C67.075 74.941 67.159 75.16 67.327 75.3C67.505 75.44 67.724 75.51 67.985 75.51C68.247 75.51 68.48 75.473 68.685 75.398C68.891 75.323 69.096 75.211 69.301 75.062L69.357 70.498C69.357 70.283 69.325 70.134 69.259 70.05C69.194 69.957 69.073 69.891 68.895 69.854L68.755 69.812V69.672L71.205 69.14L71.345 69.28L71.303 71.268V75.062C71.303 75.267 71.331 75.426 71.387 75.538C71.443 75.65 71.565 75.743 71.751 75.818L71.891 75.86V76L69.441 76.14L69.315 75.314C69.007 75.566 68.671 75.781 68.307 75.958C67.953 76.126 67.533 76.21 67.047 76.21ZM72.457 76V75.86L72.667 75.804C72.853 75.748 72.979 75.664 73.045 75.552C73.119 75.44 73.157 75.295 73.157 75.118V70.736C73.157 70.531 73.119 70.381 73.045 70.288C72.979 70.185 72.853 70.115 72.667 70.078L72.457 70.022V69.882L74.865 69.07L75.005 69.21L75.131 70.414V70.526C75.261 70.265 75.429 70.027 75.635 69.812C75.849 69.588 76.083 69.406 76.335 69.266C76.596 69.126 76.853 69.056 77.105 69.056C77.459 69.056 77.73 69.154 77.917 69.35C78.103 69.546 78.197 69.793 78.197 70.092C78.197 70.409 78.103 70.657 77.917 70.834C77.739 71.002 77.525 71.086 77.273 71.086C76.881 71.086 76.535 70.89 76.237 70.498L76.209 70.47C76.115 70.339 76.008 70.269 75.887 70.26C75.765 70.241 75.653 70.297 75.551 70.428C75.457 70.512 75.378 70.615 75.313 70.736C75.257 70.848 75.201 70.979 75.145 71.128V75.034C75.145 75.407 75.308 75.641 75.635 75.734L76.083 75.86V76H72.457ZM81.713 76V75.86L81.993 75.748C82.18 75.683 82.301 75.594 82.357 75.482C82.423 75.37 82.455 75.221 82.455 75.034V67.726C82.455 67.539 82.427 67.39 82.371 67.278C82.315 67.166 82.189 67.077 81.993 67.012L81.713 66.9V66.76H85.311V66.9L85.031 67.012C84.845 67.077 84.719 67.166 84.653 67.278C84.597 67.39 84.569 67.539 84.569 67.726V75.034C84.569 75.221 84.597 75.37 84.653 75.482C84.719 75.585 84.845 75.673 85.031 75.748L85.311 75.86V76H81.713ZM85.896 76V75.86L86.092 75.804C86.27 75.757 86.391 75.678 86.456 75.566C86.531 75.454 86.573 75.305 86.582 75.118V70.736C86.582 70.531 86.55 70.381 86.484 70.288C86.419 70.185 86.293 70.115 86.106 70.078L85.896 70.022V69.882L88.29 69.07L88.43 69.21L88.542 70.162C88.85 69.854 89.2 69.593 89.592 69.378C89.994 69.163 90.409 69.056 90.838 69.056C91.286 69.056 91.646 69.149 91.916 69.336C92.187 69.513 92.392 69.793 92.532 70.176C92.896 69.831 93.288 69.56 93.708 69.364C94.138 69.159 94.553 69.056 94.954 69.056C95.617 69.056 96.102 69.215 96.41 69.532C96.728 69.849 96.886 70.349 96.886 71.03V75.132C96.886 75.496 97.054 75.725 97.39 75.818L97.544 75.86V76H94.31V75.86L94.45 75.818C94.628 75.762 94.749 75.678 94.814 75.566C94.889 75.454 94.926 75.305 94.926 75.118V70.834C94.926 70.442 94.856 70.176 94.716 70.036C94.576 69.887 94.352 69.812 94.044 69.812C93.802 69.812 93.564 69.868 93.33 69.98C93.106 70.083 92.868 70.241 92.616 70.456C92.663 70.605 92.691 70.769 92.7 70.946C92.719 71.123 92.728 71.31 92.728 71.506V75.132C92.738 75.496 92.906 75.725 93.232 75.818L93.358 75.86V76H90.11V75.86L90.306 75.804C90.484 75.748 90.605 75.669 90.67 75.566C90.745 75.454 90.782 75.305 90.782 75.118V70.848C90.782 70.475 90.712 70.209 90.572 70.05C90.442 69.891 90.213 69.812 89.886 69.812C89.672 69.812 89.457 69.868 89.242 69.98C89.028 70.083 88.804 70.237 88.57 70.442V75.132C88.57 75.496 88.734 75.725 89.06 75.818L89.186 75.86V76H85.896ZM100.053 76.21C99.512 76.21 99.055 76.056 98.681 75.748C98.317 75.44 98.135 74.997 98.135 74.418C98.135 73.979 98.359 73.578 98.807 73.214C99.255 72.841 99.96 72.561 100.921 72.374C101.071 72.346 101.239 72.318 101.425 72.29C101.612 72.253 101.808 72.215 102.013 72.178V71.072C102.013 70.437 101.934 69.994 101.775 69.742C101.626 69.481 101.388 69.35 101.061 69.35C100.837 69.35 100.66 69.425 100.529 69.574C100.399 69.714 100.315 69.961 100.277 70.316L100.249 70.47C100.231 70.871 100.133 71.165 99.955 71.352C99.778 71.539 99.559 71.632 99.297 71.632C99.055 71.632 98.854 71.557 98.695 71.408C98.537 71.259 98.457 71.058 98.457 70.806C98.457 70.423 98.588 70.101 98.849 69.84C99.12 69.579 99.475 69.383 99.913 69.252C100.352 69.121 100.828 69.056 101.341 69.056C102.172 69.056 102.811 69.261 103.259 69.672C103.717 70.073 103.945 70.731 103.945 71.646V74.74C103.945 75.16 104.141 75.37 104.533 75.37H104.841L104.967 75.482C104.79 75.706 104.594 75.879 104.379 76C104.174 76.121 103.88 76.182 103.497 76.182C103.087 76.182 102.76 76.089 102.517 75.902C102.284 75.706 102.13 75.449 102.055 75.132C101.775 75.431 101.486 75.687 101.187 75.902C100.898 76.107 100.52 76.21 100.053 76.21ZM100.907 75.356C101.094 75.356 101.267 75.314 101.425 75.23C101.593 75.137 101.789 74.997 102.013 74.81V72.458C101.92 72.477 101.827 72.495 101.733 72.514C101.64 72.533 101.533 72.551 101.411 72.57C100.982 72.682 100.637 72.873 100.375 73.144C100.123 73.405 99.997 73.76 99.997 74.208C99.997 74.591 100.086 74.88 100.263 75.076C100.441 75.263 100.655 75.356 100.907 75.356ZM108.212 73.578C107.568 73.578 107.022 73.471 106.574 73.256V73.732C106.574 74.021 106.719 74.194 107.008 74.25L109.64 74.74C110.079 74.824 110.475 74.936 110.83 75.076C111.185 75.207 111.469 75.398 111.684 75.65C111.899 75.893 112.006 76.229 112.006 76.658C112.006 77.115 111.857 77.535 111.558 77.918C111.259 78.31 110.816 78.623 110.228 78.856C109.649 79.099 108.926 79.22 108.058 79.22C107.311 79.22 106.719 79.141 106.28 78.982C105.841 78.833 105.529 78.637 105.342 78.394C105.165 78.151 105.076 77.895 105.076 77.624C105.076 77.288 105.188 76.947 105.412 76.602C105.645 76.266 105.93 75.995 106.266 75.79C105.977 75.678 105.767 75.533 105.636 75.356C105.505 75.179 105.44 74.987 105.44 74.782C105.44 74.595 105.487 74.423 105.58 74.264C105.683 74.096 105.804 73.928 105.944 73.76L106.406 73.172C105.725 72.78 105.384 72.164 105.384 71.324C105.384 70.652 105.622 70.106 106.098 69.686C106.583 69.266 107.293 69.056 108.226 69.056C108.702 69.056 109.117 69.112 109.472 69.224C109.836 69.336 110.135 69.495 110.368 69.7C110.667 69.653 110.947 69.579 111.208 69.476C111.479 69.364 111.721 69.215 111.936 69.028L112.132 69.168V69.882H110.55C110.886 70.255 111.054 70.736 111.054 71.324C111.054 71.977 110.811 72.519 110.326 72.948C109.85 73.368 109.145 73.578 108.212 73.578ZM108.198 73.298C108.571 73.298 108.842 73.144 109.01 72.836C109.187 72.528 109.276 72.015 109.276 71.296C109.276 70.577 109.187 70.073 109.01 69.784C108.842 69.485 108.581 69.336 108.226 69.336C107.881 69.336 107.619 69.49 107.442 69.798C107.265 70.097 107.176 70.605 107.176 71.324C107.176 72.043 107.255 72.551 107.414 72.85C107.582 73.149 107.843 73.298 108.198 73.298ZM106.112 77.176C106.112 77.727 106.28 78.142 106.616 78.422C106.961 78.702 107.503 78.842 108.24 78.842C109.015 78.842 109.598 78.716 109.99 78.464C110.382 78.212 110.578 77.857 110.578 77.4C110.578 77.139 110.48 76.929 110.284 76.77C110.097 76.611 109.775 76.49 109.318 76.406L106.784 75.93C106.709 75.911 106.635 75.893 106.56 75.874C106.429 76.061 106.322 76.271 106.238 76.504C106.154 76.747 106.112 76.971 106.112 77.176ZM114.277 68.328C113.96 68.328 113.689 68.23 113.465 68.034C113.251 67.829 113.143 67.572 113.143 67.264C113.143 66.947 113.251 66.69 113.465 66.494C113.689 66.298 113.96 66.2 114.277 66.2C114.595 66.2 114.861 66.298 115.075 66.494C115.29 66.69 115.397 66.947 115.397 67.264C115.397 67.572 115.29 67.829 115.075 68.034C114.861 68.23 114.595 68.328 114.277 68.328ZM112.625 76V75.86L112.821 75.804C113.008 75.748 113.134 75.664 113.199 75.552C113.274 75.44 113.311 75.291 113.311 75.104V70.722C113.311 70.526 113.274 70.381 113.199 70.288C113.134 70.185 113.008 70.115 112.821 70.078L112.625 70.036V69.896L115.187 69.07L115.327 69.21L115.285 71.198V75.118C115.285 75.305 115.318 75.454 115.383 75.566C115.458 75.678 115.584 75.762 115.761 75.818L115.901 75.86V76H112.625ZM116.521 76V75.86L116.717 75.804C117.044 75.711 117.207 75.482 117.207 75.118V70.736C117.207 70.531 117.175 70.381 117.109 70.288C117.044 70.185 116.918 70.115 116.731 70.078L116.521 70.022V69.882L118.915 69.07L119.055 69.21L119.167 70.05C119.494 69.761 119.863 69.523 120.273 69.336C120.684 69.149 121.09 69.056 121.491 69.056C122.107 69.056 122.579 69.224 122.905 69.56C123.241 69.896 123.409 70.409 123.409 71.1V75.132C123.409 75.496 123.587 75.725 123.941 75.818L124.067 75.86V76H120.763V75.86L120.945 75.804C121.272 75.701 121.435 75.473 121.435 75.118V70.652C121.435 70.055 121.137 69.756 120.539 69.756C120.129 69.756 119.681 69.961 119.195 70.372V75.132C119.195 75.496 119.359 75.725 119.685 75.818L119.811 75.86V76H116.521ZM126.577 76.21C126.036 76.21 125.578 76.056 125.205 75.748C124.841 75.44 124.659 74.997 124.659 74.418C124.659 73.979 124.883 73.578 125.331 73.214C125.779 72.841 126.484 72.561 127.445 72.374C127.594 72.346 127.762 72.318 127.949 72.29C128.136 72.253 128.332 72.215 128.537 72.178V71.072C128.537 70.437 128.458 69.994 128.299 69.742C128.15 69.481 127.912 69.35 127.585 69.35C127.361 69.35 127.184 69.425 127.053 69.574C126.922 69.714 126.838 69.961 126.801 70.316L126.773 70.47C126.754 70.871 126.656 71.165 126.479 71.352C126.302 71.539 126.082 71.632 125.821 71.632C125.578 71.632 125.378 71.557 125.219 71.408C125.06 71.259 124.981 71.058 124.981 70.806C124.981 70.423 125.112 70.101 125.373 69.84C125.644 69.579 125.998 69.383 126.437 69.252C126.876 69.121 127.352 69.056 127.865 69.056C128.696 69.056 129.335 69.261 129.783 69.672C130.24 70.073 130.469 70.731 130.469 71.646V74.74C130.469 75.16 130.665 75.37 131.057 75.37H131.365L131.491 75.482C131.314 75.706 131.118 75.879 130.903 76C130.698 76.121 130.404 76.182 130.021 76.182C129.61 76.182 129.284 76.089 129.041 75.902C128.808 75.706 128.654 75.449 128.579 75.132C128.299 75.431 128.01 75.687 127.711 75.902C127.422 76.107 127.044 76.21 126.577 76.21ZM127.431 75.356C127.618 75.356 127.79 75.314 127.949 75.23C128.117 75.137 128.313 74.997 128.537 74.81V72.458C128.444 72.477 128.35 72.495 128.257 72.514C128.164 72.533 128.056 72.551 127.935 72.57C127.506 72.682 127.16 72.873 126.899 73.144C126.647 73.405 126.521 73.76 126.521 74.208C126.521 74.591 126.61 74.88 126.787 75.076C126.964 75.263 127.179 75.356 127.431 75.356ZM134.439 76.21C133.842 76.21 133.375 76.061 133.039 75.762C132.712 75.463 132.549 74.987 132.549 74.334V69.546H131.583V69.406L131.919 69.35C132.208 69.285 132.456 69.191 132.661 69.07C132.876 68.949 133.086 68.785 133.291 68.58L134.439 67.306H134.579L134.537 69.266H136.105V69.546H134.523V74.586C134.523 74.913 134.593 75.16 134.733 75.328C134.882 75.496 135.069 75.58 135.293 75.58C135.489 75.58 135.662 75.533 135.811 75.44C135.96 75.337 136.11 75.202 136.259 75.034L136.399 75.174C136.212 75.491 135.956 75.743 135.629 75.93C135.302 76.117 134.906 76.21 134.439 76.21ZM138.518 68.328C138.2 68.328 137.93 68.23 137.706 68.034C137.491 67.829 137.384 67.572 137.384 67.264C137.384 66.947 137.491 66.69 137.706 66.494C137.93 66.298 138.2 66.2 138.518 66.2C138.835 66.2 139.101 66.298 139.316 66.494C139.53 66.69 139.638 66.947 139.638 67.264C139.638 67.572 139.53 67.829 139.316 68.034C139.101 68.23 138.835 68.328 138.518 68.328ZM136.866 76V75.86L137.062 75.804C137.248 75.748 137.374 75.664 137.44 75.552C137.514 75.44 137.552 75.291 137.552 75.104V70.722C137.552 70.526 137.514 70.381 137.44 70.288C137.374 70.185 137.248 70.115 137.062 70.078L136.866 70.036V69.896L139.428 69.07L139.568 69.21L139.526 71.198V75.118C139.526 75.305 139.558 75.454 139.624 75.566C139.698 75.678 139.824 75.762 140.002 75.818L140.142 75.86V76H136.866ZM144.303 76.21C143.594 76.21 142.978 76.065 142.455 75.776C141.933 75.477 141.527 75.057 141.237 74.516C140.957 73.975 140.817 73.34 140.817 72.612C140.817 71.884 140.967 71.254 141.265 70.722C141.573 70.19 141.989 69.779 142.511 69.49C143.043 69.201 143.641 69.056 144.303 69.056C144.966 69.056 145.559 69.201 146.081 69.49C146.604 69.77 147.015 70.176 147.313 70.708C147.621 71.24 147.775 71.875 147.775 72.612C147.775 73.349 147.631 73.989 147.341 74.53C147.061 75.062 146.66 75.477 146.137 75.776C145.624 76.065 145.013 76.21 144.303 76.21ZM144.303 75.93C144.63 75.93 144.891 75.837 145.087 75.65C145.283 75.463 145.423 75.132 145.507 74.656C145.601 74.18 145.647 73.508 145.647 72.64C145.647 71.763 145.601 71.086 145.507 70.61C145.423 70.134 145.283 69.803 145.087 69.616C144.891 69.429 144.63 69.336 144.303 69.336C143.977 69.336 143.711 69.429 143.505 69.616C143.309 69.803 143.165 70.134 143.071 70.61C142.987 71.086 142.945 71.763 142.945 72.64C142.945 73.508 142.987 74.18 143.071 74.656C143.165 75.132 143.309 75.463 143.505 75.65C143.711 75.837 143.977 75.93 144.303 75.93ZM148.39 76V75.86L148.586 75.804C148.913 75.711 149.076 75.482 149.076 75.118V70.736C149.076 70.531 149.044 70.381 148.978 70.288C148.913 70.185 148.787 70.115 148.6 70.078L148.39 70.022V69.882L150.784 69.07L150.924 69.21L151.036 70.05C151.363 69.761 151.732 69.523 152.142 69.336C152.553 69.149 152.959 69.056 153.36 69.056C153.976 69.056 154.448 69.224 154.774 69.56C155.11 69.896 155.278 70.409 155.278 71.1V75.132C155.278 75.496 155.456 75.725 155.81 75.818L155.936 75.86V76H152.632V75.86L152.814 75.804C153.141 75.701 153.304 75.473 153.304 75.118V70.652C153.304 70.055 153.006 69.756 152.408 69.756C151.998 69.756 151.55 69.961 151.064 70.372V75.132C151.064 75.496 151.228 75.725 151.554 75.818L151.68 75.86V76H148.39ZM161.591 66.592C161.936 66.592 162.207 66.704 162.403 66.928C162.599 67.143 162.697 67.427 162.697 67.782C162.697 68.071 162.622 68.524 162.473 69.14C162.324 69.747 162.17 70.419 162.011 71.156L161.717 72.626H161.451L161.157 71.156C161.008 70.437 160.858 69.775 160.709 69.168C160.56 68.552 160.485 68.09 160.485 67.782C160.485 67.427 160.583 67.143 160.779 66.928C160.975 66.704 161.246 66.592 161.591 66.592ZM161.591 76.21C161.246 76.21 160.956 76.093 160.723 75.86C160.49 75.627 160.373 75.342 160.373 75.006C160.373 74.679 160.49 74.399 160.723 74.166C160.956 73.923 161.246 73.802 161.591 73.802C161.927 73.802 162.212 73.923 162.445 74.166C162.678 74.399 162.795 74.679 162.795 75.006C162.795 75.342 162.678 75.627 162.445 75.86C162.212 76.093 161.927 76.21 161.591 76.21Z" fill="url(#paint1_linear_18:79)"/>
<defs>
<linearGradient id="paint0_linear_18:79" x1="138.369" y1="9.54231" x2="133.437" y2="119.952" gradientUnits="userSpaceOnUse">
<stop stop-color="#DCB248"/>
<stop offset="1" stop-color="#DCB248" stop-opacity="0.2"/>
</linearGradient>
<linearGradient id="paint1_linear_18:79" x1="-37.232" y1="62" x2="329.416" y2="55.448" gradientUnits="userSpaceOnUse">
<stop stop-color="#DCB248"/>
<stop offset="0.21875" stop-color="#DCB248"/>
<stop offset="1" stop-color="#DCB248" stop-opacity="0.2"/>
</linearGradient>
</defs>
</svg>
