<svg xmlns="http://www.w3.org/2000/svg" width="28.162" height="28.162" viewBox="0 0 28.162 28.162">
  <g id="correct" transform="translate(0 0)">
    <path id="Path_9143" data-name="Path 9143" d="M33.44,14.817l-3.452-1.536L28.451,9.828l-3.757.392L21.638,8,18.58,10.22l-3.755-.392L13.289,13.28,9.836,14.817l.393,3.757L8.012,21.63l2.217,3.058-.393,3.755,3.452,1.536,1.537,3.453,3.757-.392,3.056,2.217L24.7,33.04l3.755.392,1.536-3.452,3.453-1.537-.393-3.757,2.217-3.056-2.217-3.058ZM18.913,27.081l-3.856-3.856,1.285-1.281,2.571,2.566L26.621,16.8l1.285,1.285Zm0,0" transform="translate(-7.558 -7.55)" fill="none"/>
    <g id="Group_3231" data-name="Group 3231" transform="translate(0 0)">
      <path id="Path_9144" data-name="Path 9144" d="M28.083,13.815,25.968,10.9l.375-3.583a.454.454,0,0,0-.267-.462L22.783,5.387,21.318,2.094a.457.457,0,0,0-.462-.267L17.272,2.2,14.355.087a.454.454,0,0,0-.533,0L10.9,2.2,7.321,1.827a.46.46,0,0,0-.462.267L5.393,5.386,2.1,6.852a.454.454,0,0,0-.267.462L2.209,10.9.094,13.815a.454.454,0,0,0,0,.533l2.115,2.917-.375,3.584a.454.454,0,0,0,.267.462l3.292,1.465,1.465,3.292a.459.459,0,0,0,.462.267l3.584-.375,2.918,2.115a.454.454,0,0,0,.533,0l2.917-2.115,3.584.375a.457.457,0,0,0,.462-.267l1.465-3.292,3.292-1.465a.455.455,0,0,0,.267-.462l-.375-3.584,2.115-2.917a.454.454,0,0,0,0-.534ZM25.13,16.873a.453.453,0,0,0-.084.314l.358,3.428-3.15,1.4a.451.451,0,0,0-.231.23l-1.4,3.15-3.429-.358a.453.453,0,0,0-.313.085l-2.791,2.023L11.3,25.124a.449.449,0,0,0-.266-.087.3.3,0,0,0-.045,0L7.556,25.4l-1.4-3.15a.454.454,0,0,0-.231-.231l-3.152-1.4.358-3.428a.455.455,0,0,0-.084-.314L1.023,14.081,3.046,11.29a.455.455,0,0,0,.084-.314L2.772,7.547l3.15-1.4a.45.45,0,0,0,.231-.23l1.4-3.15,3.429.358a.458.458,0,0,0,.313-.085l2.792-2.023L16.88,3.039a.457.457,0,0,0,.313.085l3.429-.358,1.4,3.15a.454.454,0,0,0,.231.231l3.15,1.4-.358,3.429a.453.453,0,0,0,.084.314l2.023,2.792Zm0,0" transform="translate(-0.008 0)" fill="#2b3046"/>
      <path id="Path_9145" data-name="Path 9145" d="M136.4,155.1a.454.454,0,0,0-.642,0l-7.387,7.387-2.25-2.246a.454.454,0,0,0-.641,0l-1.288,1.28a.454.454,0,0,0,0,.643l3.856,3.856a.454.454,0,0,0,.642,0l8.993-8.994a.454.454,0,0,0,0-.642Zm-8.029,9.958-3.214-3.214.642-.641,2.685,2.691c.177.177.213-.589.391-.766l7.2-7.065.643.643-6.753,6.735Zm0,0" transform="translate(-116.857 -146.478)" fill="#2b3046" stroke="#2b3046" stroke-width="1"/>
    </g>
  </g>
</svg>
