<svg xmlns="http://www.w3.org/2000/svg" width="25.186" height="25.186" viewBox="0 0 25.186 25.186">
  <path id="return" d="M17.906,24.2a.984.984,0,0,1-.984.984h-12A3.94,3.94,0,0,1,.984,21.251V10.33a.984.984,0,1,1,1.968,0V21.251a1.97,1.97,0,0,0,1.968,1.968h12A.984.984,0,0,1,17.906,24.2Zm7.28-21.251V5.9a.984.984,0,0,1-.984.984v7.182a.984.984,0,1,1-1.968,0V6.887H.984A.984.984,0,0,1,0,5.9V2.951A2.955,2.955,0,0,1,2.951,0H22.234A2.955,2.955,0,0,1,25.186,2.951ZM1.968,4.919H23.218V2.951a.985.985,0,0,0-.984-.984H2.951a.985.985,0,0,0-.984.984Zm12.79,5.9a.984.984,0,0,0,0-1.968H10.33a.984.984,0,0,0,0,1.968Zm6.075,5.657H15.643l1.232-1.219a.984.984,0,0,0-1.384-1.4l-1.827,1.807a2.446,2.446,0,0,0,0,3.477l1.83,1.82a.984.984,0,1,0,1.388-1.4l-1.129-1.123h5.084a2.386,2.386,0,0,1,.027,4.772.984.984,0,0,0,0,1.968,4.284,4.284,0,0,0,3.068-1.279,4.363,4.363,0,0,0-3.1-7.428Zm0,0" fill="#2b3046"/>
</svg>
