<svg width="255" height="609" viewBox="0 0 255 609" fill="none" xmlns="http://www.w3.org/2000/svg">
<g opacity="0.4" clip-path="url(#clip0_1025_2876)">
<path d="M190.147 -352L190.147 -173.599L164.236 -173.599L164.236 179.597L216.031 179.597L216.031 353.619L214.147 353.619L214.147 181.451L162.378 181.451L162.378 -175.479L188.263 -175.479L188.263 -352L190.147 -352Z" fill="#80AECF"/>
<path d="M98.3253 -352L98.3253 -128.786L88.7508 -128.786L88.7508 150.726L121.5 150.726L121.5 477.884L119.642 477.884L119.642 152.58L86.8669 152.58L86.8669 -130.641L96.4672 -130.641L96.4672 -352L98.3253 -352Z" fill="#80AECF"/>
<path d="M139.643 -352L139.643 -128.787L122.429 -128.787L122.455 67.3589L163.308 67.359L163.308 69.239L120.571 69.239L120.571 -130.641L137.784 -130.641L137.784 -352L139.643 -352Z" fill="#80AECF"/>
<path d="M27.8203 -352L27.8203 -78.9517L62.5308 -78.9517L62.5308 76.2443L4.51644 76.2443L4.5164 605.42L2.65828 605.42L2.65833 74.3643L60.6727 74.3643L60.6727 -77.0974L25.9622 -77.0974L25.9622 -352L27.8203 -352Z" fill="#80AECF"/>
<path d="M120.622 474.304C118.641 474.304 117.035 475.907 117.035 477.884C117.035 479.861 118.641 481.464 120.622 481.464C122.603 481.464 124.209 479.861 124.209 477.884C124.209 475.907 122.603 474.304 120.622 474.304Z" fill="#80AECF"/>
<path d="M55.7432 367.887C55.7432 369.87 54.1431 371.467 52.156 371.467C50.1688 371.467 48.5688 369.87 48.5688 367.887C48.5688 365.904 50.1688 364.307 52.156 364.307C54.1431 364.307 55.7432 365.904 55.7432 367.887Z" fill="#80AECF"/>
<path d="M3.58713 601.84C1.60598 601.84 -5.5781e-05 603.443 -5.59538e-05 605.42C-5.61267e-05 607.397 1.60598 609 3.58713 609C5.56828 609 7.17432 607.397 7.17432 605.42C7.17432 603.443 5.56828 601.84 3.58713 601.84Z" fill="#80AECF"/>
<path d="M51.2269 367.887L53.1108 367.887L53.1109 75.2914L51.227 75.2914L51.2269 367.887Z" fill="#80AECF"/>
<path d="M215.205 350.039C213.224 350.039 211.618 351.642 211.618 353.619C211.618 355.596 213.224 357.199 215.205 357.199C217.186 357.199 218.792 355.596 218.792 353.619C218.792 351.642 217.186 350.039 215.205 350.039Z" fill="#80AECF"/>
<g opacity="0.38">
<path d="M217.941 -352L217.941 -128.787L203.67 -128.787L203.67 55.6923L252.342 55.6923L252.342 426.479L250.484 426.479L250.484 57.5466L201.812 57.5466L201.812 -130.641L216.083 -130.641L216.083 -352L217.941 -352Z" fill="#80AECF"/>
</g>
<path d="M255 426.478C255 428.462 253.4 430.058 251.413 430.058C249.426 430.058 247.826 428.462 247.826 426.478C247.826 424.495 249.426 422.899 251.413 422.899C253.4 422.899 255 424.495 255 426.478Z" fill="#80AECF"/>
<g opacity="0.38">
<path d="M73.1115 470.544C71.434 470.544 70.0405 469.179 70.0405 467.48C70.0405 466.063 70.9953 464.878 72.3115 464.544L72.3115 -161.958L65.0081 -161.958L65.0081 -352.026L66.6082 -352.026L66.6082 -163.555L73.9116 -163.555L73.9116 -106.818L73.1115 -106.818L73.1115 -105.221L73.9116 -105.221L73.9115 464.569C75.2019 464.93 76.1567 466.089 76.1567 467.505C76.1567 469.179 74.8148 470.57 73.1115 470.57L73.1115 470.544Z" fill="#80AECF"/>
</g>
<g opacity="0.26">
<path d="M137.01 276.974C135.332 276.974 133.939 275.609 133.939 273.909C133.939 272.519 134.894 271.334 136.21 270.973L136.21 -105.247L73.8858 -105.247L73.8858 -106.844L137.784 -106.844L137.784 270.973C139.1 271.334 140.055 272.493 140.055 273.909C140.055 275.583 138.687 276.974 136.984 276.974L137.01 276.974Z" fill="#80AECF"/>
</g>
</g>
<defs>
<clipPath id="clip0_1025_2876">
<rect width="255" height="961" fill="white" transform="translate(255 609) rotate(-180)"/>
</clipPath>
</defs>
</svg>
