<svg width="248" height="952" viewBox="0 0 248 952" fill="none" xmlns="http://www.w3.org/2000/svg">
<g opacity="0.4" clip-path="url(#clip0_1025_2895)">
<path d="M183.147 -9.00006L183.147 169.401L157.236 169.401L157.236 522.597L209.031 522.597L209.031 696.619L207.147 696.619L207.147 524.451L155.378 524.451L155.378 167.521L181.263 167.521L181.263 -9.00006L183.147 -9.00006Z" fill="#80AECF"/>
<path d="M91.3253 -8.99994L91.3253 214.214L81.7508 214.214L81.7508 493.726L114.5 493.726L114.5 820.884L112.642 820.884L112.642 495.58L79.8669 495.58L79.8669 212.359L89.4672 212.359L89.4672 -8.99994L91.3253 -8.99994Z" fill="#80AECF"/>
<path d="M132.643 -9.00019L132.643 214.213L115.429 214.213L115.455 410.359L156.308 410.359L156.308 412.239L113.571 412.239L113.571 212.359L130.784 212.359L130.784 -9.00019L132.643 -9.00019Z" fill="#80AECF"/>
<path d="M20.8203 -9L20.8203 264.048L55.5308 264.048L55.5308 419.244L-2.48356 419.244L-2.4836 948.42L-4.34172 948.42L-4.34167 417.364L53.6727 417.364L53.6727 265.903L18.9622 265.903L18.9622 -9L20.8203 -9Z" fill="#80AECF"/>
<path d="M113.622 817.304C111.641 817.304 110.035 818.907 110.035 820.884C110.035 822.861 111.641 824.464 113.622 824.464C115.603 824.464 117.209 822.861 117.209 820.884C117.209 818.907 115.603 817.304 113.622 817.304Z" fill="#80AECF"/>
<path d="M48.7432 710.887C48.7432 712.87 47.1431 714.467 45.156 714.467C43.1688 714.467 41.5688 712.87 41.5688 710.887C41.5688 708.904 43.1688 707.307 45.156 707.307C47.1431 707.307 48.7432 708.904 48.7432 710.887Z" fill="#80AECF"/>
<path d="M-3.41287 944.84C-5.39402 944.84 -7.00006 946.443 -7.00006 948.42C-7.00006 950.397 -5.39402 952 -3.41287 952C-1.43172 952 0.174317 950.397 0.174317 948.42C0.174317 946.443 -1.43172 944.84 -3.41287 944.84Z" fill="#80AECF"/>
<path d="M44.2269 710.887L46.1108 710.887L46.1109 418.291L44.227 418.291L44.2269 710.887Z" fill="#80AECF"/>
<path d="M208.205 693.039C206.224 693.039 204.618 694.642 204.618 696.619C204.618 698.596 206.224 700.199 208.205 700.199C210.186 700.199 211.792 698.596 211.792 696.619C211.792 694.642 210.186 693.039 208.205 693.039Z" fill="#80AECF"/>
<g opacity="0.38">
<path d="M210.941 -9.00006L210.941 214.213L196.67 214.213L196.67 398.692L245.342 398.692L245.342 769.479L243.484 769.479L243.484 400.547L194.812 400.547L194.812 212.359L209.083 212.359L209.083 -9.00006L210.941 -9.00006Z" fill="#80AECF"/>
</g>
<path d="M248 769.478C248 771.462 246.4 773.058 244.413 773.058C242.426 773.058 240.826 771.462 240.826 769.478C240.826 767.495 242.426 765.899 244.413 765.899C246.4 765.899 248 767.495 248 769.478Z" fill="#80AECF"/>
<g opacity="0.38">
<path d="M66.1115 813.544C64.434 813.544 63.0405 812.179 63.0405 810.48C63.0405 809.063 63.9953 807.878 65.3115 807.544L65.3115 181.042L58.0081 181.042L58.0081 -9.02582L59.6082 -9.02582L59.6082 179.445L66.9116 179.445L66.9116 236.182L66.1115 236.182L66.1115 237.779L66.9116 237.779L66.9115 807.569C68.2019 807.93 69.1567 809.089 69.1567 810.505C69.1567 812.179 67.8148 813.57 66.1115 813.57L66.1115 813.544Z" fill="#80AECF"/>
<path d="M66.0857 237.779L66.8857 237.779L66.8857 236.182L66.0857 236.182L66.0857 237.779Z" fill="#80AECF"/>
</g>
<g opacity="0.26">
<path d="M130.01 619.974C128.332 619.974 126.939 618.609 126.939 616.909C126.939 615.519 127.894 614.334 129.21 613.973L129.21 237.753L66.8858 237.753L66.8858 236.156L130.784 236.156L130.784 613.973C132.1 614.334 133.055 615.493 133.055 616.909C133.055 618.583 131.687 619.974 129.984 619.974L130.01 619.974Z" fill="#80AECF"/>
<path d="M66.0857 237.779L66.8857 237.779L66.8857 236.182L66.0857 236.182L66.0857 237.779Z" fill="#80AECF"/>
</g>
</g>
<defs>
<clipPath id="clip0_1025_2895">
<rect width="255" height="961" fill="white" transform="translate(248 952) rotate(-180)"/>
</clipPath>
</defs>
</svg>
