<svg width="30" height="30" viewBox="0 0 30 30" fill="none" xmlns="http://www.w3.org/2000/svg">
<path d="M26.4715 7.53892C25.8412 6.0854 24.9323 4.76935 23.7963 3.66504C22.6565 2.55075 21.3129 1.66635 19.8387 1.06013C18.3052 0.423968 16.678 0.102539 15.0005 0.102539C13.3231 0.102539 11.6958 0.423968 10.1624 1.05678C8.6791 1.6695 7.34985 2.54674 6.20476 3.66169C5.06946 4.76662 4.16073 6.08252 3.52954 7.53557C2.87664 9.04227 2.54517 10.6427 2.54517 12.29C2.54517 14.6539 3.11101 17.0077 4.22262 19.2778C5.1166 21.1025 6.36548 22.8804 7.93914 24.5713C10.6278 27.4574 13.447 29.222 14.2472 29.6941C14.4743 29.8282 14.7334 29.8988 14.9972 29.8983C15.2583 29.8983 15.5161 29.8313 15.7472 29.6941C16.5474 29.222 19.3666 27.4574 22.0552 24.5713C23.6289 22.8838 24.8778 21.1025 25.7717 19.2778C26.89 17.011 27.4559 14.6606 27.4559 12.2934C27.4559 10.6461 27.1244 9.04562 26.4715 7.53892ZM15.0005 27.3302C12.7941 25.9273 4.95588 20.3726 4.95588 12.2934C4.95588 9.68513 5.99718 7.23424 7.88892 5.38602C9.78735 3.53446 12.3119 2.51325 15.0005 2.51325C17.6891 2.51325 20.2137 3.53446 22.1121 5.38937C24.0039 7.23423 25.0452 9.68513 25.0452 12.2934C25.0452 20.3726 17.207 25.9273 15.0005 27.3302ZM15.0005 6.66504C11.7461 6.66504 9.10767 9.30343 9.10767 12.5579C9.10767 15.8124 11.7461 18.4508 15.0005 18.4508C18.255 18.4508 20.8934 15.8124 20.8934 12.5579C20.8934 9.30343 18.255 6.66504 15.0005 6.66504ZM17.6523 15.2097C17.3045 15.5585 16.8912 15.8351 16.4361 16.0236C15.981 16.212 15.4931 16.3087 15.0005 16.3079C13.9994 16.3079 13.0586 15.9162 12.3487 15.2097C11.9999 14.8619 11.7233 14.4485 11.5349 13.9934C11.3464 13.5383 11.2498 13.0505 11.2505 12.5579C11.2505 11.5568 11.6423 10.6159 12.3487 9.90611C13.0586 9.19629 13.9994 8.8079 15.0005 8.8079C16.0016 8.8079 16.9425 9.19629 17.6523 9.90611C18.3621 10.6159 18.7505 11.5568 18.7505 12.5579C18.7505 13.559 18.3621 14.4999 17.6523 15.2097Z" fill="#80AECF"/>
</svg>
