<svg width="105" height="122" viewBox="0 0 105 122" fill="none" xmlns="http://www.w3.org/2000/svg">
<g clip-path="url(#clip0_1812_28007)">
<path d="M29.8458 121.321C24.2048 121.321 18.5639 121.321 12.9229 121.311C6.58059 121.3 1.77366 117.63 0.38469 111.733C0.142982 110.704 0.0238304 109.507 0.020426 108.07C0 95.4465 0 82.6174 0 70.2068V60.5849V46.8914C0 35.5407 0 24.1935 0.010213 12.8428C0.0170217 6.46258 4.09201 1.38582 10.1483 0.209245C10.8326 0.0754653 11.5986 0.013721 12.5586 0.013721H23.7453C34.9149 0.00343024 46.0845 0 57.2542 0C70.1634 0 81.4386 0.00686048 91.7231 0.0205815C97.7998 0.0274419 102.61 3.80414 103.972 9.63555C104.2 10.6063 104.316 11.6697 104.316 12.7914C104.34 31.9115 104.333 51.2856 104.329 68.3819C104.329 70.4812 103.22 71.8224 101.439 71.8842C101.402 71.8842 101.364 71.8842 101.327 71.8842C99.7573 71.8842 98.5011 70.7144 98.3411 69.1022C98.3105 68.7798 98.3139 68.4471 98.3173 68.0903V67.7541V13.3196C98.3173 8.53444 95.7981 6.00635 91.0388 6.00635H52.1579H13.2769C8.52787 6.00635 6.01887 8.5413 6.01887 13.3402C6.01887 44.9122 6.01887 76.4807 6.01887 108.053C6.01887 112.797 8.51085 115.304 13.2293 115.304C20.8448 115.304 28.4603 115.304 36.0758 115.304H53.7205C54.1732 115.304 54.6192 115.308 55.0379 115.352C56.5495 115.51 57.6252 116.687 57.6593 118.22C57.6933 119.791 56.6141 121.074 55.0958 121.266C54.7554 121.311 54.3877 121.311 54.0337 121.311H43.6198C39.0273 121.317 34.4349 121.317 29.8424 121.317L29.8458 121.321Z" fill="white"/>
<path d="M101.378 121.314C100.551 121.314 99.7199 120.94 99.039 120.264C96.21 117.448 93.381 114.58 90.7426 111.898C90.5962 111.747 90.4669 111.531 90.3409 111.318C90.2728 111.205 90.2081 111.095 90.1434 110.996L89.7826 110.454L89.2277 110.79C85.5953 112.992 81.7824 114.107 77.9014 114.107C70.9226 114.107 64.0935 110.33 60.5019 104.482C55.3205 96.0399 56.832 84.7579 64.0186 78.2335C67.8893 74.721 72.8188 72.7897 77.9014 72.7897C82.5722 72.7897 87.0183 74.3676 90.7562 77.3554C98.1334 83.2485 101.834 95.3127 94.1674 106.07L93.8303 106.543L101.545 114.272L101.994 114.721C102.409 115.136 102.838 115.561 103.247 115.99C104.612 117.427 104.687 119.167 103.437 120.422C102.859 121.005 102.144 121.311 101.378 121.311V121.314ZM77.7585 78.8132C69.7617 78.9127 63.307 85.5194 63.3717 93.5324C63.4364 101.58 69.9489 108.128 77.8912 108.125C81.7518 108.125 85.4012 106.584 88.1621 103.792C90.9264 100.993 92.4414 97.3023 92.4243 93.4021C92.3903 85.3581 85.8914 78.8132 77.9389 78.8132H77.7585Z" fill="white"/>
<path d="M77.7133 28.5739H38.1515C34.0765 28.5739 30.0015 28.5739 25.9231 28.5705C24.1188 28.5705 22.8387 27.5414 22.6583 25.9532C22.4711 24.3033 23.4141 22.9655 25.0005 22.6293C25.4737 22.5298 26.0048 22.5195 26.5052 22.5195C36.1395 22.5161 45.7738 22.5161 55.408 22.5161C62.867 22.5161 78.1014 22.5161 78.1014 22.5161C78.4248 22.5161 78.7652 22.5195 79.0852 22.5676C80.6921 22.8111 81.8053 24.1249 81.7304 25.6891C81.6521 27.3253 80.4095 28.5087 78.7073 28.5705C78.5814 28.5739 78.4554 28.5774 78.3295 28.5774H77.7099L77.7133 28.5739Z" fill="#80AECF"/>
<path d="M76.8349 49.4641C76.3719 49.4641 75.9056 49.4641 75.4426 49.4572C74.9762 49.4572 74.5064 49.4504 74.04 49.4504H37.6987C33.7633 49.4504 29.8312 49.4504 25.8958 49.447C24.8201 49.447 23.9111 49.0833 23.329 48.4316C22.7877 47.8245 22.5562 47.0081 22.6583 46.0682C22.7945 44.8024 23.7 43.7939 24.9086 43.5538C25.5248 43.4337 26.1784 43.4166 26.6822 43.4166C35.6356 43.4132 44.589 43.4097 53.5425 43.4097C61.5699 43.4097 69.5973 43.4097 77.6247 43.4132C78.2137 43.4132 78.7039 43.4269 79.1737 43.5023C80.7908 43.7528 81.8359 45.0562 81.7202 46.6685C81.6078 48.2464 80.4299 49.3852 78.8605 49.4332C78.2682 49.4504 77.6247 49.4607 76.8383 49.4607L76.8349 49.4641Z" fill="#80AECF"/>
<path d="M31.1323 70.3611C29.3416 70.3611 27.5509 70.3577 25.7602 70.3405C24.7321 70.3337 23.8572 69.9632 23.2921 69.3046C22.7542 68.6734 22.5295 67.8056 22.6623 66.8623C22.8427 65.5931 23.847 64.5846 25.11 64.4131C25.4062 64.3719 25.7398 64.3547 26.1653 64.3547H29.808C33.3996 64.3547 36.9945 64.3513 40.5861 64.3513C44.1777 64.3513 48.0689 64.3513 51.8102 64.3582C53.8018 64.3582 55.0818 65.2843 55.3133 66.8931C55.4426 67.7816 55.2146 68.6254 54.6733 69.26C54.0843 69.9529 53.1924 70.3371 52.1609 70.344C50.3464 70.3577 48.5284 70.3611 46.7139 70.3611C45.4101 70.3611 44.1096 70.3611 42.8057 70.3577C41.5019 70.3577 40.198 70.3542 38.8942 70.3542C37.5903 70.3542 36.3035 70.3542 35.0098 70.3577C33.7162 70.3577 32.4225 70.3611 31.1289 70.3611H31.1323Z" fill="#80AECF"/>
</g>
<defs>
<clipPath id="clip0_1812_28007">
<rect width="105" height="122" fill="white"/>
</clipPath>
</defs>
</svg>
