<svg width="92" height="119" viewBox="0 0 92 119" fill="none" xmlns="http://www.w3.org/2000/svg">
<g clip-path="url(#clip0_1811_27000)">
<path d="M88.922 0H71.8971C70.1073 0.021755 68.6449 1.47934 68.623 3.26325V115.737C68.6449 117.521 70.1073 118.978 71.8971 119H88.922C89.7296 119 90.5153 118.695 91.1047 118.13C91.694 117.564 92.0214 116.781 91.9996 115.954V3.26325C91.9996 1.54461 90.6463 0.13053 88.922 0ZM75.1711 17.23V6.52651H85.648V112.473H75.1711V17.23Z" fill="white"/>
<path d="M54.6114 37.6362H37.5865C35.7967 37.6579 34.3343 39.1155 34.3125 40.8994V115.737C34.3343 117.521 35.7967 118.978 37.5865 119H54.6114C55.419 119 56.2266 118.717 56.7941 118.13H56.9251C57.5144 117.564 57.8418 116.781 57.82 115.954V40.9864C57.8418 39.1808 56.4231 37.7014 54.6114 37.6362ZM40.8605 44.1627H51.3374V112.473H40.8605V44.1627Z" fill="#80AECF"/>
<path d="M20.2989 59.3912H3.27402C1.48422 59.413 0.0218268 60.8706 0 62.6545V115.737C0.0218268 117.521 1.48422 118.978 3.27402 119H20.2989C21.1065 119 21.8923 118.695 22.4816 118.13C23.0709 117.564 23.3983 116.781 23.3765 115.954V62.5457C23.311 60.8706 21.9796 59.5218 20.2989 59.3912ZM6.54804 65.9177H17.0249V112.473H6.54804V65.9177Z" fill="white"/>
</g>
<defs>
<clipPath id="clip0_1811_27000">
<rect width="92" height="119" fill="white"/>
</clipPath>
</defs>
</svg>
