<svg width="159" height="130" viewBox="0 0 159 130" fill="none" xmlns="http://www.w3.org/2000/svg">
<g clip-path="url(#clip0_1812_28022)">
<path d="M65.2285 129.363C47.5999 129.363 31.1169 122.374 18.813 109.688C-5.94194 84.1651 -5.32115 43.4225 20.1922 18.8719C32.4097 7.11279 48.4287 0.637329 65.2989 0.637329C80.3612 0.637329 95.161 5.93051 105.993 15.1784L103.039 19.9426C96.9658 14.9458 90.2331 11.2811 83.0108 9.04396C82.0476 8.7444 81.0652 8.4799 80.1148 8.21859C79.67 8.09749 79.2252 7.9764 78.7804 7.85212L76.4412 7.19565L78.1532 8.9133C85.5003 16.2874 91.0779 23.9643 95.2026 32.39L95.4554 32.9095L102.617 30.2613C102.617 30.5577 102.617 30.8477 102.617 31.1376C102.623 32.8776 102.63 34.522 102.575 36.1536C102.515 36.2556 102.287 36.4627 102.092 36.5487C101.244 36.9184 100.374 37.2403 99.4554 37.5781C99.0938 37.7119 98.729 37.8457 98.3578 37.986L97.7914 38.1995L97.9738 38.7731C98.1114 39.2001 98.249 39.6176 98.3866 40.0287C98.7322 41.0675 99.0586 42.0491 99.305 43.0529C99.369 43.3174 99.2762 43.7731 99.1866 43.8814C97.961 44.7769 96.6778 45.6118 95.3178 46.4946C95.0842 46.6475 94.8474 46.8005 94.6106 46.9566C94.5146 46.6507 94.4186 46.3448 94.3226 46.0389C93.8107 44.4072 93.3275 42.8649 92.7547 41.3225C92.5243 40.7011 91.6059 40.0701 90.9371 40.0701C90.8571 40.0701 90.7771 40.0796 90.7035 40.0956C84.3131 41.5679 77.4236 42.4251 69.6413 42.7151C69.3885 42.7246 69.1549 42.7724 68.8829 42.8266C68.7517 42.8521 68.6045 42.884 68.4349 42.9127L67.9037 43.0051V45.4238C67.9037 46.8674 67.9037 48.3142 67.9069 49.7578C67.9133 54.3308 67.9197 59.0599 67.8621 63.7093C67.8557 64.3594 67.5549 65.1689 67.1293 65.6788C63.8782 69.5953 63.827 75.1784 67.0045 78.9483C67.6957 79.7705 67.9613 80.5577 67.9165 81.6635C67.8749 82.7374 67.8845 83.7922 67.8941 84.9076C67.8973 85.3856 67.9037 85.87 67.9037 86.3607V86.9471L68.4893 86.9981C69.3853 87.0745 70.2653 87.1383 71.1357 87.1988C73.0493 87.3359 74.8572 87.4665 76.6652 87.7151C80.5532 88.2536 84.7451 88.926 89.8555 89.8375C90.1531 89.8916 90.3899 89.9139 90.5979 89.9139C91.7659 89.9139 92.1467 89.0854 92.3355 88.464C92.5723 87.6737 92.8475 86.8738 93.1163 86.0994C93.5515 84.8438 94.0027 83.5468 94.3035 82.2179C94.6426 80.7361 95.0586 80.3537 96.3258 80.3537H96.4218C97.5578 80.3537 98.6906 80.1721 99.8906 79.984C100.169 79.9394 100.451 79.8948 100.739 79.8502C100.643 80.2454 100.55 80.631 100.457 81.0102C100.102 82.4825 99.769 83.8687 99.3754 85.2326C98.985 86.5838 98.5402 87.8999 98.0698 89.2893C97.8618 89.9012 97.6538 90.513 97.449 91.1376L97.257 91.7176L97.8298 91.9311C98.425 92.1542 99.0042 92.3837 99.5802 92.6099C100.911 93.1357 102.169 93.6329 103.494 94.0185C104.959 94.4455 105.513 95.188 105.465 96.673C105.459 96.8993 105.465 97.1192 105.471 97.3359C105.497 98.1294 105.513 98.652 104.851 99.1746C104.127 99.745 103.622 99.9745 103.103 99.9745C102.745 99.9745 102.342 99.8629 101.871 99.6303C100.457 98.9324 98.985 98.4257 97.4266 97.8904C96.7642 97.6641 96.0794 97.4283 95.3946 97.1733L94.857 96.9758L94.601 97.4888C90.2459 106.195 84.6587 113.815 77.5196 120.787L76.5852 121.702L77.8844 121.874C78.0636 121.896 78.2588 121.909 78.47 121.909C81.7308 121.909 89.2891 118.856 96.9946 114.442C98.0442 116.208 99.5034 117.473 101.356 118.215C91.2667 125.401 78.4956 129.344 65.2381 129.347H65.2349L65.2285 129.363ZM35.7184 96.7336C29.9969 98.4831 25.4241 100.465 21.3314 102.98L20.6754 103.381L21.1938 103.948C30.1505 113.767 40.6848 119.774 53.4015 122.307L55.4622 122.718L53.9807 121.233C46.6495 113.888 40.7616 105.752 36.48 97.0586L36.24 96.571L35.7184 96.7304V96.7336ZM70.2237 92.9382C69.4717 92.9382 68.9149 92.9764 68.5181 93.0497L67.9997 93.1485V121.59L69.0557 120.691C77.5356 113.47 83.9676 105.542 88.7195 96.4563L89.0363 95.8508L88.4091 95.5768C85.7243 94.4104 74.8252 92.935 70.2269 92.935L70.2237 92.9382ZM42.5056 94.6271L42.1216 95.9146L42.2464 96.144C47.0879 105.188 53.2159 112.919 60.9726 119.777L62.0382 120.717V92.4219L42.5056 94.6239V94.6271ZM16.8578 31.775C9.9779 41.0325 6.24353 53.0051 6.33633 65.4875C6.42913 77.696 10.1187 89.2288 16.7266 97.9605L17.0338 98.3652L33.7985 90.9209L33.5969 90.3633C27.4049 73.2186 27.2897 55.9369 33.2577 38.993L33.4561 38.4353L17.1618 31.3671L16.8578 31.775ZM38.6176 40.5417C33.0081 56.6029 33.1457 72.8808 39.0304 88.926L39.2032 89.4009L62.0606 86.6635V43.1166L38.7904 40.051L38.6176 40.5417ZM68.0381 37.0236L68.6909 37.0108C75.8524 36.8802 82.5148 36.0771 89.0587 34.5506L89.8587 34.3658L89.4811 33.6392C84.5051 24.0567 77.83 16.0612 69.0749 9.19692L68.0381 8.3843V37.0236ZM61.0974 10.188C55.4014 13.413 43.088 28.5946 42.0032 33.7285L41.8816 34.2989L42.4384 34.471C46.4095 35.6883 55.5262 36.8324 59.6926 36.8324C60.4702 36.8324 61.0846 36.7941 61.5198 36.7176L62.0478 36.6252V9.64625L61.091 10.188H61.0974ZM52.8703 7.76607C40.3808 10.4143 30.0161 16.399 21.1906 26.058L20.5826 26.724L35.7664 33.0943L36.032 32.5494C40.2592 23.8623 45.9551 16.109 53.4527 8.84319L55.043 7.304L52.8735 7.76289L52.8703 7.76607Z" fill="white"/>
<path d="M104.971 110.427C104.805 110.427 104.61 110.382 104.398 110.328C104.462 110.08 104.549 109.78 104.645 109.7C107.022 107.706 109.534 105.685 112.325 103.521C113.502 102.61 113.995 101.526 113.877 100.112C113.33 93.5532 112.792 86.8802 112.274 80.4302C112.046 77.5908 111.816 74.7483 111.586 71.9089C111.57 71.7177 111.525 71.5456 111.477 71.3639C111.454 71.2811 111.429 71.1887 111.406 71.0835L111.291 70.5928H110.782C110.638 70.5928 110.494 70.5864 110.354 70.5832C110.2 70.5768 110.046 70.5736 109.893 70.5736C109.675 70.5736 109.49 70.5832 109.317 70.6055C99.2881 71.8643 89.2594 73.1326 79.2307 74.4041L75.7683 74.8407C75.6084 74.8598 75.4484 74.8725 75.2948 74.8725C74.1716 74.8725 73.3332 74.3244 72.994 73.3684C72.5556 72.132 72.9972 71.0612 74.3124 70.188C79.3875 66.8101 84.4659 63.4353 89.5442 60.0638L97.2753 54.9267C98.4433 54.1492 99.6113 53.3716 100.779 52.5908C103.627 50.6884 106.571 48.7221 109.493 46.8324C110.587 46.1249 111.013 45.2868 110.965 43.9388C110.744 37.6609 110.562 31.3512 110.427 25.188C110.366 22.4219 111.768 20.2581 114.002 19.6686C114.469 19.5443 114.939 19.4838 115.4 19.4838C118.174 19.4838 120.203 21.6826 120.225 24.7132C120.27 30.8286 120.254 37.1925 120.171 43.6265C120.152 45.0446 120.645 45.9337 121.864 46.7017C131.061 52.4761 140.388 58.378 149.409 64.0886L156.657 68.6743C157.086 68.942 157.528 69.2225 157.94 69.5124C158.936 70.2072 159.23 71.1759 158.833 72.4634C158.555 73.3716 157.665 73.958 156.564 73.958C156.449 73.958 156.331 73.9516 156.212 73.9388C150.424 73.2919 144.638 72.6418 138.849 71.9917C133.857 71.4309 128.862 70.87 123.87 70.3123C123.333 70.2518 122.808 70.2167 122.2 70.1753C121.899 70.153 121.579 70.1339 121.233 70.1052L120.59 70.0542L120.545 70.6947C120.449 72.0746 120.354 73.4353 120.257 74.7833C120.043 77.8012 119.842 80.6501 119.65 83.5532C119.512 85.6374 119.384 87.7215 119.256 89.8056C119.051 93.1135 118.84 96.5328 118.6 99.8917C118.494 101.383 119.01 102.463 120.28 103.394C122.885 105.303 125.422 107.259 127.825 109.216C128.005 109.363 128.142 109.7 128.273 110.045C128.014 110.105 127.768 110.156 127.553 110.156C127.493 110.156 127.435 110.153 127.384 110.143C124.901 109.739 122.475 109.331 120.072 108.754C119.07 108.512 118.046 108.397 116.939 108.397C114.795 108.397 112.696 108.85 110.667 109.286C109.896 109.452 109.099 109.624 108.318 109.767C107.861 109.85 107.403 109.955 106.965 110.057C106.315 110.207 105.701 110.347 105.074 110.427C105.042 110.43 105.01 110.433 104.978 110.433L104.971 110.427Z" fill="#80AECF"/>
</g>
<defs>
<clipPath id="clip0_1812_28022">
<rect width="159" height="130" fill="white"/>
</clipPath>
</defs>
</svg>
