<svg width="24" height="27" viewBox="0 0 24 27" fill="none" xmlns="http://www.w3.org/2000/svg">
<path d="M6.15067 24.8569C6.15067 24.4109 6.15686 23.9663 6.14819 23.5203C6.14199 23.2035 6.26469 22.9696 6.51878 22.7997C7.38141 22.2221 8.22299 21.6127 9.09802 21.0543C9.20461 20.9866 9.24427 20.9112 9.24055 20.786C9.20709 19.6155 9.1823 18.4439 9.16495 17.2722C9.15875 16.8595 9.14388 16.4455 9.1414 16.0328C9.1414 15.8488 9.13396 15.8411 8.97036 15.9037C8.03955 16.2576 7.11122 16.618 6.18041 16.9706C4.62246 17.5609 3.06202 18.1474 1.50282 18.7365C1.30947 18.8093 1.12108 18.8962 0.926493 18.9639C0.427004 19.1351 0.00931849 18.8387 0.0105579 18.2944C0.0105579 17.5482 -0.0439768 16.7994 0.0948388 16.0583C0.319175 14.8611 0.920295 13.9168 1.91555 13.2613C3.55779 12.1791 5.21242 11.1173 6.85962 10.0452C7.53386 9.60698 8.20191 9.15977 8.87492 8.71895C8.9592 8.66401 8.99143 8.59501 8.98771 8.49407C8.95053 7.54598 8.94929 6.59662 8.91954 5.64981C8.90095 5.05055 8.9121 4.45129 8.89103 3.8533C8.8774 3.46104 8.86501 3.06877 8.86625 2.67778C8.8712 1.35276 9.82308 0.22579 11.096 0.031573C12.6762 -0.208643 14.0396 0.937493 14.1313 2.58578C14.1635 3.15821 14.1288 3.72936 14.1065 4.30051C14.1041 4.37462 14.1016 4.44873 14.1028 4.52284C14.1202 5.45048 14.0706 6.37813 14.057 7.30577C14.0508 7.67631 14.0532 8.04814 14.0334 8.4174C14.0235 8.59245 14.0805 8.69084 14.228 8.78539C15.548 9.63765 16.863 10.5001 18.1793 11.36C19.1646 12.004 20.1549 12.6416 21.1353 13.2946C22.2471 14.0369 22.8172 15.1204 22.9622 16.4595C23.0316 17.1048 22.992 17.7526 22.9882 18.3979C22.9858 18.8476 22.5619 19.1351 22.133 18.9907C21.7625 18.8655 21.3993 18.7135 21.0324 18.5742C18.8808 17.7577 16.7292 16.9412 14.5775 16.1248C14.399 16.057 14.2218 15.9868 14.0421 15.9229C13.8822 15.8666 13.8599 15.8845 13.8586 16.0532C13.8574 16.1963 13.8562 16.3394 13.8586 16.4825C13.876 17.3782 13.8339 18.2739 13.8115 19.1696C13.7979 19.7305 13.8227 20.294 13.7731 20.8537C13.7645 20.9585 13.8351 20.9917 13.8971 21.0338C14.4759 21.4299 15.0572 21.8209 15.6335 22.2196C15.9458 22.4355 16.2495 22.6617 16.5581 22.8815C16.7564 23.0233 16.8469 23.2226 16.8481 23.4654C16.8506 24.425 16.8556 25.3846 16.8506 26.3441C16.8481 26.8578 16.3598 27.153 15.8938 26.9179C15.2741 26.6061 14.6643 26.2777 14.0483 25.9583C13.2588 25.5481 12.4655 25.1431 11.6785 24.7278C11.5471 24.6588 11.448 24.6652 11.3228 24.7342C10.242 25.3258 9.14016 25.8765 8.04575 26.44C7.74705 26.5933 7.43967 26.73 7.14345 26.891C6.59686 27.1875 6.12836 26.7569 6.15067 26.2432C6.16182 26.0107 6.15562 25.7768 6.15686 25.543C6.15686 25.3156 6.15686 25.0868 6.15686 24.8594H6.15439L6.15067 24.8569ZM10.5184 20.5023C10.5184 20.5023 10.5196 20.5023 10.5209 20.5023C10.5209 20.6927 10.5048 20.8856 10.5246 21.0747C10.5667 21.4862 10.387 21.7545 10.0635 21.9692C9.22568 22.5262 8.3965 23.1 7.56237 23.6622C7.46941 23.7248 7.43099 23.7938 7.43347 23.9075C7.43967 24.278 7.43595 24.6499 7.43595 25.0204C7.43595 25.2683 7.43595 25.2696 7.65037 25.1597C8.80427 24.5655 9.96066 23.9727 11.1108 23.3708C11.3724 23.2341 11.6116 23.2328 11.8743 23.3632C13.0642 23.956 14.2503 24.5566 15.4216 25.1878C15.5418 25.2517 15.5666 25.2312 15.5641 25.0983C15.5579 24.7482 15.5443 24.3969 15.5691 24.0493C15.5852 23.8117 15.4959 23.6864 15.3075 23.5714C14.4622 23.054 13.6839 22.4317 12.851 21.8963C12.5895 21.7277 12.4668 21.4823 12.4742 21.1616C12.4841 20.717 12.4903 20.271 12.5015 19.8264C12.5325 18.5384 12.5684 17.2517 12.5932 15.9638C12.6155 14.8036 12.6329 13.6434 12.6589 12.4819C12.68 11.544 12.7035 10.6062 12.7184 9.66832C12.7308 8.87867 12.7407 8.08902 12.7568 7.29938C12.7717 6.56851 12.7692 5.83636 12.8014 5.10549C12.8225 4.63912 12.8175 4.17274 12.8398 3.70764C12.8597 3.27576 12.8931 2.83622 12.8138 2.4069C12.7035 1.79869 12.2548 1.38598 11.6351 1.29398C11.1344 1.21987 10.5779 1.5227 10.3238 2.0108C10.1937 2.25996 10.1515 2.53339 10.1552 2.81067C10.1639 3.47765 10.1875 4.14591 10.2023 4.81289C10.2247 5.8402 10.2494 6.86878 10.2693 7.89608C10.2891 8.91317 10.2928 9.93025 10.3263 10.9473C10.3659 12.1395 10.3833 13.3316 10.3982 14.5237C10.4093 15.3236 10.4267 16.1235 10.4502 16.9233C10.4849 18.1155 10.4986 19.3076 10.5221 20.4997L10.5184 20.5023ZM9.02489 10.8579C9.02489 10.8579 9.01993 10.8579 9.01746 10.8579C9.01746 10.6995 9.01869 10.5397 9.01746 10.3813C9.01746 10.3302 9.04224 10.2625 8.99638 10.2318C8.94681 10.1986 8.90467 10.2612 8.86377 10.288C7.47809 11.1824 6.09365 12.0781 4.70922 12.9738C4.02505 13.4159 3.34337 13.8593 2.65673 14.2989C2.02958 14.7001 1.62305 15.2699 1.40243 15.9906C1.28221 16.3829 1.32683 16.7892 1.29584 17.1891C1.27725 17.4268 1.29832 17.4319 1.5115 17.3501C2.52411 16.9642 3.53548 16.5784 4.54809 16.1938C5.95112 15.6622 7.35663 15.1332 8.75965 14.5991C9.10422 14.4675 9.09554 14.4599 9.0881 14.0842C9.06455 13.0083 9.04596 11.9338 9.02613 10.8579H9.02489ZM13.9776 11.1109C13.9739 11.3818 13.9615 11.6986 13.9504 12.0168C13.9256 12.7681 13.9256 13.5207 13.9082 14.2733C13.9045 14.4139 13.9491 14.4867 14.0768 14.5314C14.6705 14.7384 15.2542 14.9748 15.8417 15.2009C16.7316 15.5434 17.629 15.8679 18.5214 16.2065C19.5154 16.5835 20.5057 16.9668 21.4985 17.345C21.7042 17.4229 21.7079 17.4217 21.7042 17.2044C21.7005 17.0358 21.6831 16.8658 21.6782 16.6972C21.6534 15.698 21.227 14.925 20.4214 14.3857C19.3357 13.6587 18.2363 12.9521 17.1431 12.2366C16.6312 11.9018 16.1181 11.5683 15.605 11.2348C15.1142 10.9154 14.6221 10.596 14.1288 10.2791C13.9888 10.1896 13.9789 10.1986 13.9789 10.3634C13.9789 10.5972 13.9789 10.8298 13.9789 11.1096L13.9776 11.1109Z" fill="#80AECF"/>
</svg>
