<svg width="35" height="41" viewBox="0 0 35 41" fill="none" xmlns="http://www.w3.org/2000/svg">
<g clip-path="url(#clip0_204_1088)">
<path d="M9.36063 37.7481C9.36063 37.0709 9.37006 36.3957 9.35685 35.7186C9.34742 35.2374 9.53415 34.8823 9.92079 34.6243C11.2335 33.7472 12.5142 32.8217 13.8457 31.9738C14.0079 31.871 14.0683 31.7565 14.0626 31.5664C14.0117 29.7891 13.974 28.0098 13.9476 26.2306C13.9381 25.6039 13.9155 24.9753 13.9117 24.3485C13.9117 24.0691 13.9004 24.0575 13.6515 24.1526C12.235 24.69 10.8223 25.2372 9.40589 25.7727C7.03509 26.6691 4.66051 27.5597 2.28782 28.4542C1.99359 28.5648 1.70691 28.6967 1.4108 28.7995C0.650705 29.0595 0.0150958 28.6094 0.0169819 27.7828C0.0169819 26.6497 -0.0660056 25.5127 0.145235 24.3874C0.486616 22.5693 1.40137 21.1354 2.91589 20.1401C5.41494 18.4967 7.93286 16.8843 10.4395 15.2564C11.4655 14.5909 12.4821 13.9118 13.5062 13.2424C13.6345 13.159 13.6835 13.0542 13.6779 12.9009C13.6213 11.4612 13.6194 10.0196 13.5741 8.58185C13.5458 7.67186 13.5628 6.76187 13.5307 5.85382C13.51 5.25816 13.4911 4.66249 13.493 4.06877C13.5006 2.0567 14.9491 0.345373 16.8861 0.0504512C19.2908 -0.314321 21.3655 1.42611 21.5051 3.92907C21.5541 4.79831 21.5013 5.66561 21.4674 6.53292C21.4636 6.64545 21.4598 6.75799 21.4617 6.87053C21.4881 8.27917 21.4127 9.68781 21.3919 11.0964C21.3825 11.6591 21.3863 12.2238 21.3561 12.7845C21.341 13.0503 21.4278 13.1997 21.6522 13.3433C23.6609 14.6375 25.662 15.9471 27.665 17.253C29.1645 18.2309 30.6714 19.199 32.1633 20.1905C33.8552 21.3178 34.7228 22.9632 34.9434 24.9966C35.049 25.9764 34.9887 26.9602 34.983 27.94C34.9793 28.623 34.3342 29.0595 33.6816 28.8403C33.1177 28.6501 32.5651 28.4192 32.0068 28.2078C28.7326 26.9679 25.4583 25.7281 22.1841 24.4882C21.9125 24.3854 21.6428 24.2787 21.3693 24.1817C21.126 24.0963 21.092 24.1235 21.0902 24.3796C21.0883 24.5969 21.0864 24.8142 21.0902 25.0315C21.1166 26.3917 21.0524 27.7518 21.0185 29.1119C20.9977 29.9637 21.0355 30.8194 20.96 31.6692C20.9468 31.8283 21.0543 31.8788 21.1486 31.9428C22.0294 32.5443 22.914 33.138 23.791 33.7434C24.2663 34.0713 24.7284 34.4147 25.198 34.7484C25.4998 34.9638 25.6375 35.2665 25.6394 35.6351C25.6432 37.0923 25.6507 38.5494 25.6432 40.0066C25.6394 40.7866 24.8963 41.2348 24.1871 40.8778C23.2441 40.4043 22.3161 39.9057 21.3787 39.4206C20.1773 38.7978 18.9702 38.1827 17.7725 37.5521C17.5726 37.4474 17.4217 37.4571 17.2312 37.5618C15.5866 38.4602 13.9099 39.2964 12.2444 40.1521C11.7899 40.3849 11.3221 40.5925 10.8714 40.837C10.0396 41.2872 9.32668 40.6333 9.36063 39.8533C9.3776 39.5002 9.36817 39.1451 9.37006 38.79C9.37006 38.4447 9.37006 38.0974 9.37006 37.752H9.36628L9.36063 37.7481ZM16.0072 31.1356C16.0072 31.1356 16.0091 31.1356 16.0109 31.1356C16.0109 31.4247 15.9864 31.7177 16.0166 32.0049C16.0807 32.6297 15.8072 33.0371 15.315 33.3631C14.04 34.209 12.7782 35.0802 11.5089 35.9339C11.3674 36.029 11.3089 36.1338 11.3127 36.3065C11.3221 36.8692 11.3165 37.4338 11.3165 37.9965C11.3165 38.3729 11.3165 38.3748 11.6428 38.2079C13.3987 37.3057 15.1584 36.4054 16.9087 35.4916C17.3067 35.2839 17.6707 35.282 18.0705 35.4799C19.8812 36.3802 21.6862 37.2921 23.4685 38.2506C23.6515 38.3476 23.6892 38.3166 23.6854 38.1148C23.676 37.5832 23.6552 37.0496 23.693 36.5218C23.7175 36.161 23.5817 35.9708 23.295 35.7962C22.0087 35.0104 20.8242 34.0655 19.5568 33.2525C19.1588 32.9964 18.9721 32.6238 18.9834 32.1368C18.9985 31.4616 19.0079 30.7844 19.0249 30.1092C19.0721 28.1534 19.1268 26.1996 19.1645 24.2438C19.1984 22.482 19.2248 20.7202 19.2644 18.9565C19.2965 17.5324 19.3323 16.1082 19.355 14.684C19.3738 13.4849 19.3889 12.2858 19.4134 11.0867C19.4361 9.97691 19.4323 8.86513 19.4813 7.75529C19.5134 7.04709 19.5059 6.33889 19.5398 5.63263C19.57 4.97682 19.6209 4.30936 19.5002 3.65743C19.3323 2.73385 18.6496 2.10715 17.7065 1.96745C16.9446 1.85491 16.0977 2.31475 15.7111 3.05594C15.513 3.43429 15.4489 3.84951 15.4546 4.27055C15.4678 5.28338 15.5036 6.29814 15.5262 7.31097C15.5602 8.87095 15.5979 10.4329 15.6281 11.9929C15.6582 13.5373 15.6639 15.0818 15.7148 16.6262C15.7752 18.4365 15.8016 20.2468 15.8242 22.0571C15.8412 23.2717 15.8676 24.4863 15.9034 25.7009C15.9563 27.5112 15.977 29.3215 16.0128 31.1318L16.0072 31.1356ZM13.7344 16.4904C13.7344 16.4904 13.7269 16.4904 13.7231 16.4904C13.7231 16.2498 13.725 16.0073 13.7231 15.7667C13.7231 15.6891 13.7609 15.5863 13.6911 15.5397C13.6156 15.4892 13.5515 15.5843 13.4893 15.6251C11.3806 16.9833 9.27387 18.3434 7.16711 19.7035C6.126 20.3749 5.08865 21.0481 4.04376 21.7156C3.08941 22.3248 2.47077 23.1902 2.13505 24.2845C1.9521 24.8802 2.02 25.4972 1.97285 26.1045C1.94456 26.4654 1.97662 26.4732 2.30103 26.349C3.84195 25.763 5.381 25.177 6.92192 24.593C9.05697 23.7859 11.1958 22.9826 13.3308 22.1716C13.8552 21.9717 13.842 21.9601 13.8306 21.3896C13.7948 19.7559 13.7665 18.1241 13.7363 16.4904H13.7344ZM21.2712 16.8746C21.2656 17.2859 21.2467 17.7671 21.2297 18.2503C21.192 19.3911 21.192 20.534 21.1656 21.6768C21.1599 21.8902 21.2278 22.0008 21.4221 22.0687C22.3255 22.383 23.2139 22.742 24.1079 23.0854C25.4621 23.6054 26.8276 24.0982 28.1856 24.6124C29.6982 25.1848 31.2052 25.7669 32.716 26.3412C33.0291 26.4596 33.0347 26.4576 33.029 26.1278C33.0234 25.8717 32.997 25.6136 32.9894 25.3575C32.9517 23.8402 32.3029 22.6663 31.077 21.8475C29.4248 20.7435 27.7518 19.6705 26.0883 18.584C25.3093 18.0756 24.5285 17.5692 23.7477 17.0628C23.0008 16.5777 22.252 16.0927 21.5013 15.6115C21.2882 15.4757 21.2731 15.4892 21.2731 15.7395C21.2731 16.0946 21.2731 16.4477 21.2731 16.8727L21.2712 16.8746Z" fill="#095396"/>
</g>
<defs>
<clipPath id="clip0_204_1088">
<rect width="35" height="41" fill="white"/>
</clipPath>
</defs>
</svg>
