<svg width="35" height="18" viewBox="0 0 35 18" fill="none" xmlns="http://www.w3.org/2000/svg">
<g clip-path="url(#clip0_1405_6546)">
<path d="M9.94188 13.1463C9.77024 13.1463 9.5986 13.1288 9.42031 13.0925C8.31596 12.8707 7.19031 12.6624 6.10193 12.4608C5.70809 12.3882 5.31558 12.3156 4.92173 12.2417C4.43342 12.1503 4.14203 12.0266 4.09014 11.6637C3.83601 9.85862 2.7729 8.51722 1.74439 7.21883C1.55146 6.97555 1.35853 6.73093 1.17093 6.48496L1.12968 6.4312C1.10307 6.39625 1.07646 6.36265 1.05118 6.3277C0.823654 6.01453 0.743822 5.72555 0.822324 5.49034C0.899496 5.25647 1.13367 5.07367 1.49957 4.96211C1.92002 4.83442 2.34979 4.71346 2.76625 4.59518C3.21331 4.46883 3.67634 4.33846 4.13006 4.19867C4.26045 4.15835 4.3802 4.13953 4.49729 4.13953C4.73147 4.13953 4.94835 4.21883 5.17853 4.38684C5.78659 4.83174 6.40928 5.27797 7.01202 5.70942C7.49634 6.0562 7.97933 6.40297 8.46098 6.75243C8.61134 6.86131 8.78032 6.96211 8.99719 6.96211C9.06771 6.96211 9.14089 6.95136 9.2154 6.92851C10.0736 6.67582 10.9318 6.42851 11.7913 6.1812C12.2557 6.04813 12.7201 5.91372 13.1844 5.77932C13.2376 5.76453 13.2802 5.73899 13.3388 5.70539C13.3694 5.68792 13.4066 5.66507 13.4559 5.63953L13.6701 5.52528C13.6701 5.52528 10.1894 3.51991 9.14622 2.9191C9.08501 2.88281 9.02114 2.84921 8.95861 2.81426C8.78564 2.71883 8.62331 2.62743 8.47163 2.51856C8.22947 2.34249 8.1044 2.06157 8.14565 1.78738C8.18157 1.55217 8.33458 1.37206 8.5661 1.2941C9.60259 0.945983 10.675 0.64894 11.7128 0.361306C11.967 0.291413 12.2211 0.220177 12.4752 0.14894C12.5112 0.138188 12.5484 0.134155 12.587 0.134155C12.7241 0.134155 12.8651 0.195983 13.0128 0.261843C13.0607 0.283349 13.1073 0.30351 13.1538 0.322327L13.8377 0.596521C16.0238 1.47286 18.2844 2.38012 20.5024 3.282C20.7353 3.37743 20.9561 3.42313 21.1743 3.42313C21.3393 3.42313 21.507 3.3976 21.6879 3.34383L22.0365 3.24168C23.8474 2.70942 25.7195 2.15835 27.5769 1.68657C28.2795 1.50781 29.0033 1.41776 29.7298 1.41776C30.87 1.41776 32.0609 1.64088 33.269 2.08308C34.2949 2.45808 34.8763 3.29007 34.863 4.36668C34.8497 5.40969 34.215 6.24303 33.2051 6.54007C30.7197 7.2726 28.1863 8.00109 25.7368 8.70405C24.9904 8.9191 20.533 10.2 19.0508 10.6274C16.2593 11.4299 13.4678 12.2323 10.6763 13.0387C10.4235 13.1113 10.1827 13.1476 9.93922 13.1476L9.94188 13.1463ZM15.441 6.6812C15.3293 6.6812 15.2135 6.70002 15.0844 6.73899C14.0479 7.04948 12.9902 7.3519 11.9683 7.64625C11.9683 7.64625 10.1428 8.17044 9.55868 8.33711C8.26007 8.70942 6.96146 9.08039 5.66418 9.45808C5.63092 9.46749 5.59632 9.47421 5.55907 9.48093C5.39807 9.5105 5.15458 9.5562 5.10003 9.85862C5.01487 10.3277 5.40206 10.8586 5.89436 10.95C6.18708 11.0051 6.48113 11.0562 6.77518 11.1086C7.44844 11.2269 8.14432 11.3506 8.82023 11.5065C9.15287 11.5831 9.47087 11.6207 9.79419 11.6207C10.216 11.6207 10.6378 11.5562 11.0822 11.4231C13.0141 10.8438 14.9873 10.282 16.8953 9.73765C17.699 9.50781 18.5039 9.27932 19.3076 9.04813C22.4384 8.1476 25.5691 7.24571 28.6999 6.34518L32.464 5.26184L32.5439 5.23899C32.7967 5.1691 33.0827 5.08846 33.2677 4.81829C33.3741 4.66238 33.5298 4.43523 33.3861 4.20942C33.3289 4.11937 33.2424 4.07098 33.1386 4.07098C33.0561 4.07098 32.9763 4.1019 32.9071 4.12878C32.8792 4.13953 32.8525 4.15028 32.8286 4.157C32.488 4.25243 32.1487 4.35055 31.8094 4.44867C31.3131 4.59249 30.7995 4.74034 30.2926 4.87609C30.2154 4.89625 30.1396 4.907 30.0651 4.907C29.7404 4.907 29.4796 4.71211 29.3851 4.39894C29.2707 4.01991 29.4663 3.67448 29.8947 3.49706C29.9466 3.47555 30.0052 3.46077 30.069 3.44464C30.226 3.40432 30.423 3.35459 30.5999 3.17313L30.7942 2.97421L30.5201 2.94464C30.266 2.91776 30.0038 2.90432 29.7431 2.90432C28.3021 2.90432 26.9582 3.31426 25.6583 3.71077C25.0795 3.88684 24.4821 4.06964 23.8887 4.21077L23.7929 4.23362L23.7716 4.57636C23.7716 4.57636 24.0443 4.69195 24.1375 4.73093C24.345 4.81964 24.5593 4.91104 24.7748 4.99437C25.2192 5.16641 25.4108 5.40969 25.3935 5.782C25.3775 6.14894 25.1673 6.36399 24.695 6.49975C24.1441 6.657 23.5933 6.81561 23.0424 6.97286C21.6866 7.35996 20.2842 7.7605 18.9058 8.16238C18.794 8.19464 18.6902 8.21077 18.5891 8.21077C18.4108 8.21077 18.2378 8.15969 18.0595 8.05351C17.7695 7.88147 17.4754 7.7148 17.1827 7.54679C16.7889 7.32233 16.3831 7.0898 15.9905 6.85055C15.8096 6.73899 15.63 6.68523 15.4437 6.68523L15.441 6.6812ZM4.17131 5.7484C3.89455 5.7484 3.58986 5.8183 3.21065 5.96749C3.07893 6.01991 2.95253 6.08577 2.91793 6.2148C2.88334 6.34249 2.96184 6.4648 3.03502 6.5562C3.28916 6.87743 3.54196 7.20942 3.78678 7.52932C3.90121 7.67985 4.01563 7.82905 4.13139 7.97958C4.18062 8.0441 4.33097 8.23899 4.56781 8.23899C4.61039 8.23899 4.65296 8.23227 4.69554 8.22018C5.17454 8.08577 5.6522 7.94733 6.17511 7.79544L7.07057 7.53604L6.8457 7.37475C6.64878 7.23227 6.46117 7.10593 6.28022 6.98496C5.90368 6.73227 5.57902 6.51319 5.30227 6.24303C4.96165 5.90969 4.59176 5.7484 4.17264 5.7484H4.17131ZM12.454 1.75781C11.9483 1.75781 11.4481 1.92985 10.9824 2.11534L10.6657 2.24168L10.9837 2.36534C11.0449 2.38953 11.0928 2.40566 11.1314 2.42045C11.1886 2.44061 11.2232 2.45405 11.2485 2.46883C13.6275 3.83308 16.0052 5.19867 18.3829 6.56561C18.46 6.60996 18.5798 6.67045 18.7208 6.67045C18.7687 6.67045 18.8166 6.66372 18.8632 6.65028L22.0206 5.75109L21.978 5.43926L21.7664 5.34921C21.6627 5.30485 21.5589 5.25915 21.4538 5.21749C20.6993 4.91507 19.9436 4.61399 19.1878 4.31292C17.2772 3.55351 15.3026 2.76722 13.3774 1.9527C13.0687 1.82233 12.7666 1.75781 12.4553 1.75781H12.454Z" fill="#80AECF"/>
<path d="M21.4134 13.7565C21.0808 13.7565 20.8546 13.5831 20.7601 13.2552C20.6537 12.8882 20.7628 12.6087 21.0874 12.4232C21.1939 12.3627 21.3203 12.3197 21.4307 12.2861C24.4231 11.3466 27.4168 10.4097 30.4106 9.47424C30.541 9.43392 30.6767 9.40166 30.7871 9.37478C30.8257 9.36537 30.8616 9.35731 30.8936 9.34924C31.314 9.35328 31.5522 9.51053 31.6493 9.84521C31.7491 10.1893 31.6466 10.4675 31.3513 10.6517C31.2009 10.7457 31.0146 10.8035 30.8363 10.86C27.9025 11.782 24.9726 12.7001 22.0428 13.6154L21.9643 13.6396C21.8086 13.6893 21.6476 13.7404 21.4946 13.7525C21.468 13.7552 21.4414 13.7552 21.4161 13.7552L21.4134 13.7565Z" fill="#80AECF"/>
<path d="M7.9132 17.9998C7.53532 17.9971 7.30514 17.8345 7.20934 17.4998C7.11221 17.1597 7.21466 16.8869 7.5127 16.6893C7.57524 16.6476 7.65507 16.6113 7.74954 16.5818L8.1048 16.4689C9.60565 15.9944 11.1571 15.5038 12.6859 15.0293C12.8016 14.9931 12.9107 14.9756 13.0105 14.9756C13.2274 14.9756 13.403 15.0589 13.5481 15.2283C13.7436 15.4595 13.7796 15.7027 13.6572 15.9756C13.5707 16.1678 13.4243 16.3009 13.2354 16.3613C11.5482 16.8963 9.84781 17.4285 8.10879 17.9729C8.06887 17.985 8.02097 17.989 7.97307 17.9931C7.95178 17.9944 7.93049 17.9957 7.91187 17.9984L7.9132 17.9998Z" fill="#80AECF"/>
<path d="M0.793432 17.196C0.359674 17.1906 0.122837 17.024 0.0257073 16.6597C-0.0714226 16.2928 0.112193 15.9541 0.483415 15.8143C0.854637 15.6758 1.24183 15.5562 1.61704 15.442C1.75808 15.399 1.89912 15.3559 2.04015 15.3116C3.13253 14.9675 4.22358 14.6248 5.31596 14.2834L5.3439 14.2753C5.44502 14.243 5.53949 14.2135 5.63529 14.1973C5.69649 14.1866 5.75637 14.1826 5.81358 14.1826C6.17549 14.1826 6.44426 14.3828 6.53341 14.7162C6.63187 15.0885 6.42829 15.4326 6.02514 15.571C5.41442 15.7807 4.78507 15.9769 4.17834 16.1664C3.9894 16.2256 3.80046 16.2847 3.61153 16.3438C2.80522 16.5979 1.99758 16.8492 1.1886 17.0979C1.08083 17.1315 0.967734 17.157 0.877256 17.1785C0.846654 17.1852 0.820043 17.192 0.796093 17.1973L0.793432 17.196Z" fill="#80AECF"/>
<path d="M15.7674 15.5078C15.492 15.5078 15.2857 15.3452 15.1873 15.0495C15.142 14.9111 15.0223 14.4447 15.4214 14.2444C16.0162 13.946 16.6469 13.7672 17.2589 13.5952C17.5264 13.5199 17.7792 13.4487 18.0227 13.368C18.491 13.3909 18.7265 13.5481 18.8117 13.8909C18.8556 14.0723 18.9115 14.5145 18.4644 14.7C17.6501 15.0374 16.7986 15.3035 15.935 15.4904C15.8778 15.5025 15.8233 15.5092 15.7701 15.5092L15.7674 15.5078Z" fill="#80AECF"/>
<path d="M13.96 9.51991C13.6792 9.51991 13.4929 9.41641 13.3586 9.18523C13.2574 9.0105 13.2295 8.81426 13.2814 8.63012C13.3306 8.45136 13.453 8.30217 13.6233 8.20942C13.9373 8.04007 14.3032 7.9312 14.7077 7.88819C14.729 7.8855 14.7516 7.88416 14.7729 7.88416C15.1242 7.88416 15.4276 8.2027 15.4369 8.57905C15.4462 8.95942 15.3012 9.19598 14.4789 9.43254C14.2766 9.49034 14.1063 9.51856 13.9586 9.51856L13.96 9.51991Z" fill="#80AECF"/>
<path d="M10.8882 10.4177C10.6514 10.4177 10.4771 10.321 10.3201 10.1032C10.2017 9.93791 10.1604 9.74436 10.2003 9.55619C10.2429 9.3613 10.3693 9.19597 10.5569 9.09114C10.8683 8.91506 11.2328 8.80753 11.6413 8.77124C11.6613 8.7699 11.6799 8.76855 11.6999 8.76855C12.0658 8.76855 12.3532 9.07904 12.3558 9.47554C12.3558 9.94463 12.0618 10.1261 11.6187 10.2551L11.5003 10.2901C11.2834 10.3546 11.0798 10.4164 10.8882 10.4164V10.4177Z" fill="#80AECF"/>
</g>
<defs>
<clipPath id="clip0_1405_6546">
<rect width="35" height="18" fill="white" transform="translate(0 -0.000244141)"/>
</clipPath>
</defs>
</svg>
