<svg width="47" height="24" viewBox="0 0 47 24" fill="none" xmlns="http://www.w3.org/2000/svg">
<g clip-path="url(#clip0_204_1105)">
<path d="M13.3523 17.5287C13.1218 17.5287 12.8913 17.5054 12.6519 17.457C11.1689 17.1613 9.6573 16.8835 8.19575 16.6147C7.66688 16.5179 7.13979 16.4211 6.61092 16.3226C5.95519 16.2007 5.56389 16.0358 5.49421 15.552C5.15294 13.1451 3.72534 11.3566 2.3442 9.62544C2.08512 9.30106 1.82605 8.9749 1.57412 8.64694L1.51873 8.57526C1.48299 8.52866 1.44726 8.48386 1.41331 8.43726C1.10778 8.0197 1.00058 7.6344 1.10599 7.32078C1.20962 7.00895 1.52409 6.76522 2.01544 6.61647C2.58005 6.44622 3.15716 6.28493 3.71641 6.12723C4.31675 5.95877 4.93853 5.78493 5.54781 5.59855C5.72291 5.54479 5.88372 5.5197 6.04095 5.5197C6.35541 5.5197 6.64665 5.62544 6.95576 5.84945C7.77229 6.44264 8.60848 7.03762 9.41787 7.61289C10.0682 8.07526 10.7168 8.53762 11.3636 9.00357C11.5655 9.14873 11.7924 9.28314 12.0837 9.28314C12.1784 9.28314 12.2766 9.2688 12.3767 9.23834C13.5291 8.90142 14.6816 8.57167 15.8358 8.24192C16.4594 8.0645 17.083 7.88529 17.7065 7.70608C17.778 7.68637 17.8352 7.65232 17.9138 7.60751C17.9549 7.58422 18.0049 7.55375 18.071 7.5197L18.3587 7.36737C18.3587 7.36737 13.6846 4.69354 12.2838 3.89246C12.2016 3.84407 12.1158 3.79927 12.0319 3.75268C11.7996 3.62544 11.5816 3.50357 11.3779 3.35841C11.0527 3.12364 10.8848 2.74909 10.9402 2.3835C10.9884 2.06988 11.1939 1.82974 11.5048 1.72579C12.8966 1.26164 14.3367 0.865579 15.7304 0.482067C16.0717 0.388877 16.4129 0.293895 16.7542 0.198912C16.8024 0.184576 16.8525 0.179199 16.9043 0.179199C17.0883 0.179199 17.2777 0.261637 17.476 0.34945C17.5404 0.378124 17.6029 0.405006 17.6654 0.430095L18.5838 0.795687C21.5194 1.96415 24.5551 3.17382 27.5336 4.37633C27.8462 4.50357 28.1428 4.5645 28.4359 4.5645C28.6574 4.5645 28.8825 4.53045 29.1255 4.45877L29.5937 4.32257C32.0254 3.61289 34.5393 2.87812 37.0336 2.24909C37.977 2.01074 38.949 1.89067 39.9245 1.89067C41.4558 1.89067 43.0549 2.18816 44.6773 2.77777C46.0548 3.27777 46.8356 4.38708 46.8178 5.82257C46.7999 7.21325 45.9476 8.32436 44.5915 8.72042C41.2539 9.69712 37.8519 10.6684 34.5626 11.6057C33.5602 11.8925 27.5746 13.6003 25.5842 14.1702C21.8357 15.2401 18.0871 16.31 14.3385 17.3853C13.9991 17.4821 13.6757 17.5305 13.3487 17.5305L13.3523 17.5287ZM20.7368 8.90859C20.5867 8.90859 20.4313 8.93368 20.258 8.98565C18.8661 9.39963 17.4457 9.80285 16.0735 10.1953C16.0735 10.1953 13.6221 10.8943 12.8377 11.1165C11.0938 11.6129 9.34998 12.1075 7.60791 12.6111C7.56325 12.6236 7.51679 12.6326 7.46676 12.6416C7.25057 12.681 6.92359 12.7419 6.85034 13.1451C6.73599 13.7706 7.25593 14.4785 7.91702 14.6003C8.3101 14.6738 8.70497 14.7419 9.09984 14.8118C10.0039 14.9695 10.9384 15.1344 11.846 15.3423C12.2927 15.4444 12.7198 15.4946 13.1539 15.4946C13.7203 15.4946 14.2867 15.4086 14.8835 15.2312C17.4778 14.4588 20.1275 13.7097 22.6897 12.9839C23.7689 12.6774 24.8499 12.3727 25.9291 12.0645C30.1332 10.8638 34.3374 9.66128 38.5416 8.46056L43.5963 7.01612L43.7035 6.98565C44.043 6.89246 44.4271 6.78493 44.6755 6.42472C44.8184 6.21683 45.0275 5.91397 44.8345 5.61289C44.7577 5.49282 44.6415 5.4283 44.5022 5.4283C44.3914 5.4283 44.2842 5.46952 44.1913 5.50536C44.1537 5.5197 44.118 5.53404 44.0858 5.543C43.6284 5.67024 43.1728 5.80106 42.7172 5.93189C42.0508 6.12364 41.3611 6.32078 40.6803 6.50178C40.5767 6.52866 40.4749 6.543 40.3748 6.543C39.9388 6.543 39.5886 6.28314 39.4618 5.86558C39.3081 5.3602 39.5708 4.89963 40.1461 4.66307C40.2158 4.6344 40.2944 4.61468 40.3802 4.59318C40.591 4.53941 40.8554 4.47311 41.0931 4.23117L41.3539 3.96594L40.9859 3.92651C40.6446 3.89067 40.2926 3.87275 39.9424 3.87275C38.0074 3.87275 36.2028 4.41934 34.4571 4.94802C33.6799 5.18278 32.8777 5.42651 32.0808 5.61468L31.9521 5.64515L31.9236 6.10214C31.9236 6.10214 32.2898 6.25626 32.4149 6.30823C32.6936 6.42651 32.9813 6.54837 33.2708 6.65949C33.8675 6.88888 34.1248 7.21325 34.1016 7.70967C34.0801 8.19891 33.7978 8.48565 33.1635 8.66665C32.4238 8.87633 31.6841 9.0878 30.9444 9.29748C29.1237 9.81361 27.2405 10.3477 25.3895 10.8835C25.2394 10.9265 25.1 10.948 24.9642 10.948C24.7248 10.948 24.4925 10.8799 24.2531 10.7383C23.8636 10.5089 23.4687 10.2867 23.0757 10.0627C22.5468 9.76343 22.0018 9.45339 21.4747 9.1344C21.2317 8.98565 20.9905 8.91397 20.7404 8.91397L20.7368 8.90859ZM5.6032 7.66486C5.23156 7.66486 4.8224 7.75805 4.31318 7.95698C4.13629 8.02687 3.96655 8.11468 3.9201 8.28673C3.87364 8.45698 3.97906 8.62006 4.07733 8.74192C4.4186 9.17024 4.75807 9.61289 5.08683 10.0394C5.24049 10.2401 5.39415 10.4391 5.5496 10.6398C5.61571 10.7258 5.81761 10.9857 6.13565 10.9857C6.19282 10.9857 6.25 10.9767 6.30717 10.9606C6.9504 10.7813 7.59183 10.5968 8.29402 10.3943L9.49649 10.0484L9.19453 9.83332C8.9301 9.64336 8.67817 9.4749 8.43517 9.31361C7.92952 8.97669 7.49356 8.68458 7.12192 8.32436C6.66452 7.87992 6.16781 7.66486 5.60499 7.66486H5.6032ZM16.7256 2.34407C16.0467 2.34407 15.3748 2.57346 14.7495 2.82078L14.3242 2.98924L14.7513 3.15411C14.8335 3.18637 14.8978 3.20787 14.9496 3.22759C15.0264 3.25447 15.0729 3.27239 15.1068 3.2921C18.3015 5.1111 21.4944 6.93189 24.6873 8.75447C24.7909 8.81361 24.9517 8.89425 25.1411 8.89425C25.2054 8.89425 25.2698 8.88529 25.3323 8.86737L29.5722 7.66845L29.515 7.25268L29.231 7.1326C29.0916 7.07346 28.9522 7.01253 28.8111 6.95698C27.798 6.55375 26.7831 6.15232 25.7683 5.75088C23.2025 4.73834 20.551 3.68995 17.9656 2.60393C17.5511 2.4301 17.1455 2.34407 16.7274 2.34407H16.7256Z" fill="#095396"/>
<path d="M28.7557 18.3423C28.309 18.3423 28.0053 18.1111 27.8784 17.6738C27.7355 17.1846 27.882 16.8118 28.3179 16.5645C28.4609 16.4839 28.6306 16.4265 28.7789 16.3817C32.7973 15.129 36.8174 13.8799 40.8376 12.6326C41.0127 12.5788 41.1949 12.5358 41.3432 12.5C41.395 12.4874 41.4433 12.4767 41.4862 12.4659C42.0508 12.4713 42.3706 12.681 42.501 13.1272C42.635 13.586 42.4974 13.957 42.1008 14.2025C41.8989 14.328 41.6487 14.405 41.4093 14.4803C37.4696 15.7097 33.5352 16.9337 29.6008 18.1541L29.4954 18.1864C29.2863 18.2527 29.0701 18.3208 28.8647 18.3369C28.8289 18.3405 28.7932 18.3405 28.7593 18.3405L28.7557 18.3423Z" fill="#095396"/>
<path d="M10.6275 24C10.12 23.9964 9.81094 23.7795 9.6823 23.3333C9.55187 22.8799 9.68945 22.5161 10.0897 22.2527C10.1736 22.1971 10.2809 22.1487 10.4077 22.1093L10.8848 21.9588C12.9002 21.3261 14.9835 20.672 17.0365 20.0394C17.1919 19.991 17.3384 19.9677 17.4725 19.9677C17.7637 19.9677 17.9995 20.0788 18.1943 20.3046C18.4569 20.6129 18.5052 20.9372 18.3408 21.301C18.2247 21.5573 18.0281 21.7347 17.7744 21.8154C15.5088 22.5286 13.2254 23.2383 10.8901 23.9641C10.8365 23.9803 10.7722 23.9856 10.7079 23.991C10.6793 23.9928 10.6507 23.9946 10.6257 23.9982L10.6275 24Z" fill="#095396"/>
<path d="M1.06489 22.9283C0.482411 22.9212 0.164373 22.6989 0.0339414 22.2133C-0.0964901 21.724 0.150079 21.2724 0.648577 21.086C1.14708 20.9014 1.66701 20.7419 2.17087 20.5896C2.36027 20.5323 2.54966 20.4749 2.73905 20.4158C4.20596 19.957 5.67108 19.5 7.13799 19.0448L7.17551 19.0341C7.3113 18.991 7.43816 18.9516 7.56681 18.9301C7.64899 18.9158 7.7294 18.9104 7.80623 18.9104C8.29222 18.9104 8.65314 19.1774 8.77285 19.6219C8.90507 20.1183 8.6317 20.5771 8.09032 20.7617C7.27021 21.0412 6.42508 21.3029 5.61033 21.5556C5.35662 21.6344 5.1029 21.7133 4.84919 21.7921C3.76643 22.1308 2.68188 22.466 1.59555 22.7975C1.45082 22.8423 1.29895 22.8764 1.17745 22.905C1.13636 22.914 1.10062 22.9229 1.06846 22.9301L1.06489 22.9283Z" fill="#095396"/>
<path d="M21.1746 20.6774C20.8047 20.6774 20.5278 20.4606 20.3956 20.0663C20.3348 19.8817 20.174 19.2599 20.71 18.9929C21.5087 18.595 22.3556 18.3567 23.1775 18.1273C23.5366 18.0269 23.8761 17.9319 24.2031 17.8244C24.832 17.8549 25.1483 18.0645 25.2626 18.5215C25.3216 18.7635 25.3966 19.3531 24.7963 19.6004C23.7028 20.0502 22.5593 20.405 21.3997 20.6542C21.3229 20.6703 21.2496 20.6792 21.1781 20.6792L21.1746 20.6774Z" fill="#095396"/>
<path d="M18.7464 12.6936C18.3694 12.6936 18.1192 12.5556 17.9388 12.2473C17.803 12.0144 17.7655 11.7527 17.8352 11.5072C17.9013 11.2688 18.0656 11.0699 18.2943 10.9463C18.716 10.7205 19.2074 10.5753 19.7505 10.5179C19.7791 10.5144 19.8095 10.5126 19.8381 10.5126C20.3098 10.5126 20.7172 10.9373 20.7297 11.4391C20.7422 11.9463 20.5474 12.2617 19.4432 12.5771C19.1716 12.6542 18.9429 12.6918 18.7446 12.6918L18.7464 12.6936Z" fill="#095396"/>
<path d="M14.6226 13.8907C14.3046 13.8907 14.0705 13.7617 13.8597 13.4713C13.7007 13.2509 13.6453 12.9928 13.6989 12.742C13.7561 12.4821 13.9258 12.2617 14.1777 12.1219C14.5958 11.8871 15.0854 11.7437 15.6339 11.6954C15.6607 11.6936 15.6857 11.6918 15.7125 11.6918C16.2039 11.6918 16.5898 12.1058 16.5934 12.6344C16.5934 13.2599 16.1985 13.5018 15.6035 13.6739L15.4445 13.7204C15.1533 13.8065 14.8799 13.8889 14.6226 13.8889V13.8907Z" fill="#095396"/>
</g>
<defs>
<clipPath id="clip0_204_1105">
<rect width="47" height="24" fill="white"/>
</clipPath>
</defs>
</svg>
