<svg width="177" height="412" viewBox="0 0 177 412" fill="none" xmlns="http://www.w3.org/2000/svg">
<g opacity="0.7" clip-path="url(#clip0_325_11182)">
<path d="M131.984 -257L131.984 -132.806L113.999 -132.806L113.999 113.071L149.951 113.071L149.951 234.217L148.644 234.217L148.644 114.362L112.71 114.362L112.71 -134.115L130.677 -134.115L130.677 -257L131.984 -257Z" fill="#80AECF"/>
<path d="M68.2492 -257L68.2492 -101.61L61.6034 -101.61L61.6034 92.9727L84.3352 92.9727L84.3352 320.724L83.0455 320.724L83.0455 94.2636L60.2957 94.2636L60.2958 -102.901L66.9595 -102.901L66.9595 -257L68.2492 -257Z" fill="#80AECF"/>
<path d="M96.9281 -257L96.9281 -101.61L84.98 -101.61L84.9979 34.9368L113.354 34.9368L113.354 36.2456L83.6903 36.2456L83.6903 -102.901L95.6384 -102.901L95.6384 -257L96.9281 -257Z" fill="#80AECF"/>
<path d="M19.3104 -257L19.3104 -66.9175L43.4036 -66.9175L43.4036 41.1222L3.13479 41.1222L3.13475 409.508L1.84501 409.508L1.84504 39.8134L42.1138 39.8134L42.1139 -65.6266L18.0206 -65.6267L18.0207 -257L19.3104 -257Z" fill="#80AECF"/>
<path d="M83.7261 318.232C82.351 318.232 81.2362 319.348 81.2362 320.724C81.2362 322.1 82.351 323.216 83.7261 323.216C85.1013 323.216 86.2161 322.1 86.2161 320.724C86.2161 319.348 85.1013 318.232 83.7261 318.232Z" fill="#80AECF"/>
<path d="M38.6924 244.149C38.6924 245.53 37.5818 246.642 36.2025 246.642C34.8231 246.642 33.7125 245.53 33.7125 244.149C33.7125 242.769 34.8231 241.657 36.2025 241.657C37.5818 241.657 38.6924 242.769 38.6924 244.149Z" fill="#80AECF"/>
<path d="M2.48981 407.016C1.11466 407.016 -0.000123163 408.132 -0.000123283 409.508C-0.000123403 410.884 1.11466 412 2.48981 412C3.86496 412 4.97974 410.884 4.97974 409.508C4.97974 408.132 3.86496 407.016 2.48981 407.016Z" fill="#80AECF"/>
<path d="M35.5576 244.149L36.8652 244.149L36.8653 40.4589L35.5576 40.4589L35.5576 244.149Z" fill="#80AECF"/>
<path d="M149.378 231.725C148.003 231.725 146.888 232.84 146.888 234.217C146.888 235.593 148.003 236.709 149.378 236.709C150.753 236.709 151.868 235.593 151.868 234.217C151.868 232.84 150.753 231.725 149.378 231.725Z" fill="#80AECF"/>
<g opacity="0.38">
<path d="M151.277 -257L151.277 -101.61L141.371 -101.61L141.371 26.815L175.155 26.815L175.155 284.938L173.865 284.938L173.865 28.1058L140.081 28.1058L140.081 -102.901L149.987 -102.901L149.987 -257L151.277 -257Z" fill="#80AECF"/>
</g>
<path d="M177 284.938C177 286.318 175.889 287.43 174.51 287.43C173.131 287.43 172.02 286.318 172.02 284.938C172.02 283.557 173.131 282.446 174.51 282.446C175.889 282.446 177 283.557 177 284.938Z" fill="#80AECF"/>
<g opacity="0.38">
<path d="M50.7479 315.614C49.5836 315.614 48.6163 314.664 48.6163 313.481C48.6163 312.495 49.2791 311.67 50.1926 311.437L50.1927 -124.702L45.1232 -124.702L45.1233 -257.018L46.2339 -257.018L46.2339 -125.814L51.3033 -125.814L51.3033 -86.3166L50.748 -86.3166L50.748 -85.205L51.3033 -85.205L51.3033 311.455C52.1989 311.706 52.8617 312.512 52.8617 313.499C52.8617 314.664 51.9302 315.632 50.7479 315.632L50.7479 315.614Z" fill="#80AECF"/>
</g>
<g opacity="0.26">
<path d="M95.101 180.86C93.9366 180.86 92.9693 179.91 92.9693 178.727C92.9693 177.759 93.6321 176.934 94.5457 176.683L94.5457 -85.2229L51.2854 -85.2229L51.2854 -86.3345L95.6384 -86.3345L95.6384 176.683C96.5519 176.934 97.2147 177.741 97.2147 178.727C97.2147 179.892 96.2653 180.86 95.0831 180.86L95.101 180.86Z" fill="#80AECF"/>
</g>
</g>
<defs>
<clipPath id="clip0_325_11182">
<rect width="177" height="669" fill="white" transform="translate(177 412) rotate(-180)"/>
</clipPath>
</defs>
</svg>
