<svg width="255" height="961" viewBox="0 0 255 961" fill="none" xmlns="http://www.w3.org/2000/svg">
<g opacity="0.7" clip-path="url(#clip0_299_43090)">
<path d="M64.8533 961V782.599H90.7636V429.403H38.9688V255.381H40.8527V427.549H92.6217V784.479H66.7372V961H64.8533Z" fill="#80AECF"/>
<path d="M156.675 961V737.786H166.249V458.274H133.5V131.116H135.358V456.42H168.133V739.641H158.533V961H156.675Z" fill="#80AECF"/>
<path d="M115.358 961V737.787H132.571L132.545 541.641H91.6926V539.761H134.429V739.641H117.216V961H115.358Z" fill="#80AECF"/>
<path d="M227.18 961V687.952H192.469V532.756H250.484V3.57983H252.342V534.636H194.328V686.097H229.038V961H227.18Z" fill="#80AECF"/>
<path d="M134.378 134.696C136.359 134.696 137.965 133.093 137.965 131.116C137.965 129.139 136.359 127.536 134.378 127.536C132.396 127.536 130.79 129.139 130.79 131.116C130.79 133.093 132.396 134.696 134.378 134.696Z" fill="#80AECF"/>
<path d="M199.257 241.113C199.257 239.13 200.857 237.533 202.844 237.533C204.831 237.533 206.431 239.13 206.431 241.113C206.431 243.096 204.831 244.693 202.844 244.693C200.857 244.693 199.257 243.096 199.257 241.113Z" fill="#80AECF"/>
<path d="M251.413 7.15973C253.394 7.15973 255 5.55697 255 3.57986C255 1.60276 253.394 0 251.413 0C249.432 0 247.826 1.60276 247.826 3.57986C247.826 5.55697 249.432 7.15973 251.413 7.15973Z" fill="#80AECF"/>
<path d="M203.773 241.113H201.889V533.709H203.773V241.113Z" fill="#80AECF"/>
<path d="M39.7946 258.961C41.7757 258.961 43.3818 257.358 43.3818 255.381C43.3818 253.404 41.7757 251.801 39.7946 251.801C37.8134 251.801 36.2074 253.404 36.2074 255.381C36.2074 257.358 37.8134 258.961 39.7946 258.961Z" fill="#80AECF"/>
<g opacity="0.38">
<path d="M37.059 961V737.787H51.3303V553.308H2.65814V182.521H4.51625V551.453H53.1884V739.641H38.9171V961H37.059Z" fill="#80AECF"/>
</g>
<path d="M0 182.522C0 180.538 1.60004 178.942 3.58719 178.942C5.57433 178.942 7.17438 180.538 7.17438 182.522C7.17438 184.505 5.57433 186.101 3.58719 186.101C1.60004 186.101 0 184.505 0 182.522Z" fill="#80AECF"/>
<g opacity="0.38">
<path d="M181.889 138.456C183.566 138.456 184.96 139.821 184.96 141.52C184.96 142.937 184.005 144.122 182.689 144.456V770.958H189.992V961.026H188.392V772.555H181.088V715.818H181.889V714.221H181.088V144.431C179.798 144.07 178.843 142.911 178.843 141.495C178.843 139.821 180.185 138.43 181.889 138.43V138.456Z" fill="#80AECF"/>
<path d="M181.914 714.221H181.114V715.818H181.914V714.221Z" fill="#80AECF"/>
</g>
<g opacity="0.26">
<path d="M117.99 332.026C119.668 332.026 121.061 333.391 121.061 335.091C121.061 336.481 120.106 337.666 118.79 338.027V714.247H181.114V715.844H117.216V338.027C115.9 337.666 114.945 336.507 114.945 335.091C114.945 333.417 116.313 332.026 118.016 332.026H117.99Z" fill="#80AECF"/>
<path d="M181.914 714.221H181.114V715.818H181.914V714.221Z" fill="#80AECF"/>
</g>
</g>
<defs>
<clipPath id="clip0_299_43090">
<rect width="255" height="961" fill="white"/>
</clipPath>
</defs>
</svg>
