<svg width="255" height="961" viewBox="0 0 255 961" fill="none" xmlns="http://www.w3.org/2000/svg">
<g opacity="0.7" clip-path="url(#clip0_299_43128)">
<path d="M190.147 -6.32981e-05L190.147 178.401L164.237 178.401L164.236 531.597L216.031 531.597L216.031 705.619L214.147 705.619L214.147 533.451L162.378 533.451L162.378 176.521L188.263 176.521L188.263 -6.34628e-05L190.147 -6.32981e-05Z" fill="#80AECF"/>
<path d="M98.3252 5.90092e-05L98.3252 223.214L88.7507 223.214L88.7507 502.726L121.5 502.726L121.5 829.884L119.642 829.884L119.642 504.58L86.8668 504.58L86.8668 221.359L96.467 221.359L96.4671 5.88467e-05L98.3252 5.90092e-05Z" fill="#80AECF"/>
<path d="M139.642 -0.000185174L139.642 223.213L122.429 223.213L122.455 419.359L163.307 419.359L163.307 421.239L120.571 421.239L120.571 221.359L137.784 221.359L137.784 -0.000185337L139.642 -0.000185174Z" fill="#80AECF"/>
<path d="M27.8202 -3.03449e-06L27.8201 273.048L62.5307 273.048L62.5307 428.244L4.51632 428.244L4.51627 957.42L2.65816 957.42L2.65821 426.364L60.6726 426.364L60.6726 274.903L25.962 274.903L25.9621 -3.19693e-06L27.8202 -3.03449e-06Z" fill="#80AECF"/>
<path d="M120.622 826.304C118.641 826.304 117.035 827.907 117.035 829.884C117.035 831.861 118.641 833.464 120.622 833.464C122.604 833.464 124.21 831.861 124.21 829.884C124.21 827.907 122.604 826.304 120.622 826.304Z" fill="#80AECF"/>
<path d="M55.7433 719.887C55.7433 721.87 54.1433 723.467 52.1562 723.467C50.169 723.467 48.569 721.87 48.569 719.887C48.569 717.904 50.169 716.307 52.1562 716.307C54.1433 716.307 55.7433 717.904 55.7433 719.887Z" fill="#80AECF"/>
<path d="M3.58719 953.84C1.60604 953.84 5.25418e-06 955.443 5.08133e-06 957.42C4.90849e-06 959.397 1.60604 961 3.58719 961C5.56834 961 7.17438 959.397 7.17438 957.42C7.17438 955.443 5.56834 953.84 3.58719 953.84Z" fill="#80AECF"/>
<path d="M51.2271 719.887L53.111 719.887L53.111 427.291L51.2271 427.291L51.2271 719.887Z" fill="#80AECF"/>
<path d="M215.205 702.039C213.224 702.039 211.618 703.642 211.618 705.619C211.618 707.596 213.224 709.199 215.205 709.199C217.187 709.199 218.793 707.596 218.793 705.619C218.793 703.642 217.187 702.039 215.205 702.039Z" fill="#80AECF"/>
<g opacity="0.38">
<path d="M217.941 -6.40426e-05L217.941 223.213L203.67 223.213L203.67 407.692L252.342 407.692L252.342 778.479L250.484 778.479L250.484 409.547L201.812 409.547L201.812 221.359L216.083 221.359L216.083 -6.4205e-05L217.941 -6.40426e-05Z" fill="#80AECF"/>
</g>
<path d="M255 778.478C255 780.462 253.4 782.058 251.413 782.058C249.426 782.058 247.826 780.462 247.826 778.478C247.826 776.495 249.426 774.899 251.413 774.899C253.4 774.899 255 776.495 255 778.478Z" fill="#80AECF"/>
<g opacity="0.38">
<path d="M73.1115 822.544C71.434 822.544 70.0405 821.179 70.0405 819.48C70.0405 818.063 70.9953 816.878 72.3115 816.544L72.3115 190.042L65.0081 190.042L65.0081 -0.0258188L66.6082 -0.0258187L66.6082 188.445L73.9116 188.445L73.9116 245.182L73.1115 245.182L73.1115 246.779L73.9116 246.779L73.9115 816.569C75.2019 816.93 76.1567 818.089 76.1567 819.505C76.1567 821.179 74.8148 822.57 73.1115 822.57L73.1115 822.544Z" fill="#80AECF"/>
<path d="M73.0857 246.779L73.8857 246.779L73.8857 245.182L73.0857 245.182L73.0857 246.779Z" fill="#80AECF"/>
</g>
<g opacity="0.26">
<path d="M137.01 628.974C135.332 628.974 133.939 627.609 133.939 625.909C133.939 624.519 134.894 623.334 136.21 622.973L136.21 246.753L73.8858 246.753L73.8858 245.156L137.784 245.156L137.784 622.973C139.1 623.334 140.055 624.493 140.055 625.909C140.055 627.583 138.687 628.974 136.984 628.974L137.01 628.974Z" fill="#80AECF"/>
<path d="M73.0858 246.779L73.8858 246.779L73.8858 245.182L73.0858 245.182L73.0858 246.779Z" fill="#80AECF"/>
</g>
</g>
<defs>
<clipPath id="clip0_299_43128">
<rect width="255" height="961" fill="white" transform="translate(255 961) rotate(-180)"/>
</clipPath>
</defs>
</svg>
