<svg width="622" height="351" viewBox="0 0 622 351" fill="none" xmlns="http://www.w3.org/2000/svg">
<path d="M542.587 105.921V254.496H418.783C410.63 244.874 406.057 239.473 397.904 229.851L397.604 111.958" stroke="url(#paint0_linear_1367_7587)" stroke-width="0.27" stroke-miterlimit="10"/>
<path opacity="0.04" d="M549.724 317.987H486.349V161.155H577.115V290.555C566.422 301.264 560.417 307.278 549.724 317.987Z" stroke="url(#paint1_linear_1367_7587)" stroke-width="0.36" stroke-miterlimit="10"/>
<path opacity="0.1" d="M596.931 90.2733H521.651V256.785H596.931V90.2733Z" stroke="url(#paint2_linear_1367_7587)" stroke-width="0.73" stroke-miterlimit="10"/>
<path opacity="0.8" d="M456.209 175.461V272.063C461.96 278.84 465.182 282.645 470.921 289.422H531.27" stroke="url(#paint3_linear_1367_7587)" stroke-width="0.41" stroke-miterlimit="10"/>
<path d="M546.144 280.424C546.144 280.424 546.306 280.309 546.444 280.205C546.271 280.32 546.179 280.39 546.144 280.424Z" fill="#B0FFFF"/>
<path d="M547.045 279.765C547.045 279.765 546.883 279.881 546.745 279.985C546.918 279.858 547.01 279.8 547.045 279.765Z" fill="#B0FFFF"/>
<path d="M546.594 280.1C544.943 281.303 544.562 283.628 545.763 285.282L545.405 284.784L529.861 296.037V343.488C528.118 343.789 526.778 345.304 526.778 347.143C526.778 349.19 528.441 350.855 530.485 350.855C532.529 350.855 534.192 349.19 534.192 347.143C534.192 345.304 532.852 343.789 531.108 343.488V296.673L546.132 285.79L545.774 285.293C546.975 286.947 549.296 287.329 550.948 286.126C552.599 284.923 552.98 282.599 551.779 280.945C550.578 279.291 548.257 278.909 546.606 280.112L546.594 280.1ZM533.314 347.143C533.314 348.715 532.044 349.987 530.473 349.987C528.903 349.987 527.633 348.715 527.633 347.143C527.633 345.57 528.903 344.298 530.473 344.298C532.044 344.298 533.314 345.57 533.314 347.143ZM550.428 285.409C549.158 286.322 547.379 286.045 546.467 284.773C545.555 283.501 545.832 281.72 547.102 280.806C548.372 279.892 550.151 280.17 551.063 281.442C551.975 282.714 551.698 284.495 550.428 285.409ZM550.74 285.177C550.74 285.177 550.717 285.189 550.705 285.201C550.705 285.201 550.728 285.189 550.74 285.177ZM550.139 285.605C550.139 285.605 550.197 285.559 550.243 285.536C550.197 285.571 550.174 285.594 550.139 285.605Z" fill="#B0FFFF"/>
<path d="M499.825 254.553C497.781 254.553 496.119 256.219 496.119 258.266C496.119 260.105 497.458 261.62 499.202 261.92V288.092C497.458 288.393 496.119 289.908 496.119 291.746C496.119 293.793 497.781 295.459 499.825 295.459C501.869 295.459 503.532 293.793 503.532 291.746C503.532 289.908 502.193 288.393 500.449 288.092V261.92C502.193 261.62 503.532 260.105 503.532 258.266C503.532 256.219 501.869 254.553 499.825 254.553ZM502.666 291.746C502.666 293.319 501.396 294.591 499.825 294.591C498.255 294.591 496.985 293.319 496.985 291.746C496.985 290.174 498.255 288.901 499.825 288.901C501.396 288.901 502.666 290.174 502.666 291.746ZM499.825 261.111C498.255 261.111 496.985 259.839 496.985 258.266C496.985 256.693 498.255 255.421 499.825 255.421C501.396 255.421 502.666 256.693 502.666 258.266C502.666 259.839 501.396 261.111 499.825 261.111Z" fill="#B0FFFF"/>
<path d="M555.116 236.316C555.209 236.246 555.232 236.235 555.116 236.316V236.316Z" fill="#B0FFFF"/>
<path d="M554.31 236.928C554.227 236.988 554.238 236.976 554.31 236.928V236.928Z" fill="#B0FFFF"/>
<path d="M554.932 236.454C555.013 236.396 555.07 236.35 555.116 236.316C555.07 236.35 555.001 236.396 554.932 236.454Z" fill="#B0FFFF"/>
<path d="M554.724 236.616C554.793 236.558 554.863 236.512 554.932 236.454C554.874 236.501 554.805 236.547 554.724 236.616C554.632 236.686 554.562 236.743 554.505 236.79C554.574 236.732 554.643 236.674 554.724 236.616C553.269 237.726 552.876 239.716 553.696 241.289L519.734 267.206L519.491 267.391V314.923H520.739V268.004L554.458 242.272C555.752 243.486 557.773 243.625 559.228 242.514C560.856 241.277 561.168 238.941 559.932 237.31C558.696 235.679 556.364 235.367 554.736 236.605L554.724 236.616ZM558.696 241.832C558.8 241.763 558.893 241.682 558.962 241.635C558.904 241.682 558.823 241.74 558.696 241.832C558.627 241.89 558.569 241.925 558.523 241.959C558.581 241.925 558.627 241.878 558.696 241.832C557.449 242.78 555.671 242.538 554.724 241.289C553.777 240.039 554.02 238.258 555.255 237.31C556.502 236.362 558.281 236.605 559.228 237.842C560.175 239.091 559.932 240.872 558.696 241.82V241.832ZM558.362 242.098C558.362 242.098 558.419 242.052 558.477 242.006C558.419 242.052 558.385 242.075 558.362 242.098Z" fill="#B0FFFF"/>
<path d="M554.504 236.79C554.424 236.848 554.366 236.894 554.32 236.928C554.354 236.894 554.424 236.848 554.504 236.79Z" fill="#B0FFFF"/>
<path d="M520.115 314.934C518.071 314.934 516.408 316.599 516.408 318.646C516.408 320.693 518.071 322.359 520.115 322.359C522.159 322.359 523.822 320.693 523.822 318.646C523.822 316.599 522.159 314.934 520.115 314.934ZM520.115 321.491C518.544 321.491 517.274 320.219 517.274 318.646C517.274 317.074 518.544 315.801 520.115 315.801C521.685 315.801 522.956 317.074 522.956 318.646C522.956 320.219 521.685 321.491 520.115 321.491Z" fill="#B0FFFF"/>
<path d="M513.51 281.419C513.51 279.372 511.847 277.707 509.803 277.707C507.759 277.707 506.096 279.372 506.096 281.419C506.096 283.258 507.435 284.773 509.179 285.073V328.708C507.435 329.009 506.096 330.524 506.096 332.363C506.096 334.41 507.759 336.075 509.803 336.075C511.847 336.075 513.51 334.41 513.51 332.363C513.51 330.524 512.17 329.009 510.426 328.708V285.073C512.17 284.773 513.51 283.258 513.51 281.419ZM506.962 281.419C506.962 279.846 508.232 278.574 509.803 278.574C511.373 278.574 512.643 279.846 512.643 281.419C512.643 282.992 511.373 284.264 509.803 284.264C508.232 284.264 506.962 282.992 506.962 281.419ZM512.643 332.363C512.643 333.935 511.373 335.207 509.803 335.207C508.232 335.207 506.962 333.935 506.962 332.363C506.962 330.79 508.232 329.518 509.803 329.518C511.373 329.518 512.643 330.79 512.643 332.363Z" fill="#B0FFFF"/>
<path d="M343.098 170.488C342.405 169.736 342.752 170.106 343.098 170.488V170.488Z" fill="#B0FFFF"/>
<path d="M343.41 170.835C343.352 170.765 343.248 170.661 343.098 170.488C343.225 170.615 343.34 170.754 343.41 170.835Z" fill="#B0FFFF"/>
<path d="M343.41 170.835C343.504 170.94 343.527 170.963 343.41 170.835V170.835Z" fill="#B0FFFF"/>
<path d="M348.329 170.719C349.842 169.331 349.934 166.984 348.56 165.469C347.174 163.954 344.83 163.861 343.317 165.237C341.805 166.625 341.712 168.973 343.086 170.488C344.472 172.003 346.816 172.095 348.329 170.719ZM343.906 165.885C345.061 164.821 346.863 164.902 347.913 166.058C347.821 165.954 347.729 165.85 347.671 165.792C347.717 165.839 347.798 165.931 347.913 166.058C348.976 167.215 348.895 169.019 347.74 170.072C346.585 171.135 344.784 171.055 343.733 169.898C342.671 168.742 342.752 166.937 343.906 165.885ZM348.156 166.324C348.225 166.394 348.237 166.417 348.156 166.324V166.324Z" fill="#B0FFFF"/>
<path d="M429.661 186.991C427.836 186.898 426.254 188.159 425.862 189.894L417.305 189.466L405.353 196.046H372.36L348.791 170.291L347.879 171.135L371.818 197.295H405.676L417.593 190.727L425.792 191.131C426 192.889 427.455 194.312 429.28 194.404C429.072 194.404 428.864 194.381 428.76 194.381C428.841 194.381 429.003 194.393 429.28 194.404C429.28 194.404 429.291 194.404 429.303 194.404C429.303 194.404 429.291 194.404 429.28 194.404C431.324 194.508 433.067 192.924 433.171 190.877C433.275 188.83 431.693 187.084 429.649 186.979L429.661 186.991ZM429.337 193.537C427.778 193.456 426.566 192.126 426.647 190.565C426.728 188.992 428.056 187.789 429.626 187.87C428.841 187.835 429.234 187.847 429.626 187.87C429.799 187.87 429.915 187.882 429.984 187.893C429.903 187.893 429.765 187.893 429.626 187.87C431.185 187.951 432.398 189.281 432.317 190.854C432.236 192.415 430.908 193.629 429.337 193.548V193.537Z" fill="#B0FFFF"/>
<path d="M429.314 194.404C429.522 194.404 429.707 194.427 429.811 194.427C429.73 194.427 429.58 194.416 429.314 194.404Z" fill="#B0FFFF"/>
<path d="M552.172 264.083C552.172 264.083 552.253 264.037 552.264 264.014C552.241 264.025 552.207 264.048 552.172 264.083Z" fill="#B0FFFF"/>
<path d="M547.726 258.115C546.19 259.122 545.671 261.076 546.375 262.707L528.845 274.249V278.4C527.102 278.701 525.762 280.216 525.762 282.055C525.762 284.102 527.425 285.767 529.469 285.767C531.513 285.767 533.176 284.102 533.176 282.055C533.176 280.216 531.836 278.701 530.093 278.4V274.919L547.056 263.748C548.269 265.043 550.267 265.332 551.802 264.326C553.512 263.204 553.985 260.891 552.865 259.179C551.745 257.468 549.435 256.994 547.726 258.115ZM532.31 282.055C532.31 283.628 531.039 284.9 529.469 284.9C527.898 284.9 526.628 283.628 526.628 282.055C526.628 280.482 527.898 279.21 529.469 279.21C531.039 279.21 532.31 280.482 532.31 282.055ZM551.329 263.586C550.024 264.442 548.257 264.083 547.403 262.776C546.548 261.469 546.906 259.7 548.211 258.844C549.516 257.988 551.283 258.347 552.137 259.654C552.992 260.96 552.634 262.73 551.329 263.586Z" fill="#B0FFFF"/>
<path d="M551.444 264.569C551.444 264.569 551.364 264.615 551.352 264.638C551.375 264.627 551.41 264.603 551.444 264.569Z" fill="#B0FFFF"/>
<path d="M551.802 264.326C551.664 264.418 551.537 264.499 551.433 264.569C551.514 264.522 551.618 264.442 551.802 264.326Z" fill="#B0FFFF"/>
<path d="M551.802 264.326C551.941 264.233 552.068 264.152 552.172 264.083C552.091 264.129 551.987 264.21 551.802 264.326Z" fill="#B0FFFF"/>
<path d="M605.604 200.753C605.604 200.499 605.592 200.256 605.592 200.187C605.592 200.233 605.592 200.395 605.604 200.753Z" fill="#B0FFFF"/>
<path d="M601.804 197.133C599.76 197.18 598.143 198.891 598.19 200.938C598.236 202.754 599.575 204.223 601.296 204.5L601.85 223.906L576.56 248.644H568.523C568.223 246.897 566.71 245.556 564.874 245.556C562.83 245.556 561.167 247.221 561.167 249.268C561.167 251.315 562.83 252.981 564.874 252.981C566.71 252.981 568.223 251.639 568.523 249.893H577.069L602.913 224.612L603.109 224.427L602.543 204.489C604.321 204.177 605.649 202.615 605.603 200.753C605.557 198.706 603.848 197.087 601.804 197.133ZM564.886 252.113C563.315 252.113 562.045 250.841 562.045 249.268C562.045 247.695 563.315 246.423 564.886 246.423C566.456 246.423 567.726 247.695 567.726 249.268C567.726 250.841 566.456 252.113 564.886 252.113ZM602 203.679H601.954C600.395 203.714 599.102 202.476 599.067 200.915C599.067 200.996 599.067 201.066 599.067 201.135C599.067 201.077 599.067 201.008 599.067 200.915C599.033 199.342 600.268 198.047 601.827 198.001C603.398 197.966 604.691 199.204 604.737 200.776C604.772 202.338 603.548 203.633 601.989 203.691L602 203.679ZM599.067 200.695C599.067 200.325 599.067 200.453 599.067 200.695V200.695Z" fill="#B0FFFF"/>
<path d="M605.604 200.753C605.615 201.262 605.627 201.771 605.604 200.753V200.753Z" fill="#B0FFFF"/>
<path d="M538.776 203.783C538.638 203.668 538.672 203.691 538.776 203.783V203.783Z" fill="#B0FFFF"/>
<path d="M534.192 209.647C535.716 211.011 538.072 210.873 539.423 209.335C540.786 207.808 540.647 205.449 539.111 204.096C539.492 204.431 539.873 204.778 539.111 204.096C538.938 203.945 538.834 203.853 538.765 203.783C538.845 203.864 538.973 203.968 539.111 204.096C537.587 202.731 535.231 202.87 533.88 204.408L534.296 203.945L514.595 186.401V163.19L525.542 154.17H569.424C569.724 155.916 571.237 157.258 573.073 157.258C575.117 157.258 576.78 155.592 576.78 153.545C576.78 151.498 575.117 149.833 573.073 149.833C571.237 149.833 569.724 151.174 569.424 152.921H525.092L513.348 162.589V186.945L533.464 204.859L533.88 204.396C532.517 205.923 532.656 208.282 534.192 209.635V209.647ZM573.062 150.7C574.632 150.7 575.903 151.972 575.903 153.545C575.903 155.118 574.632 156.39 573.062 156.39C571.491 156.39 570.233 155.118 570.221 153.557C570.221 151.984 571.491 150.712 573.062 150.712V150.7ZM534.988 209.196C535.116 209.3 535.15 209.346 534.988 209.196V209.196ZM534.434 208.698C534.434 208.698 534.492 208.745 534.527 208.779C534.48 208.733 534.446 208.698 534.434 208.698ZM538.534 204.743C539.7 205.784 539.804 207.588 538.765 208.756C537.725 209.924 535.924 210.028 534.758 208.988C533.591 207.947 533.487 206.143 534.527 204.975C535.566 203.806 537.367 203.702 538.534 204.743Z" fill="#B0FFFF"/>
<path d="M600.211 161.398C600.153 161.34 600.038 161.224 599.864 161.051C599.691 160.877 599.576 160.762 599.518 160.704C599.668 160.854 600.061 161.247 600.222 161.409L600.211 161.398Z" fill="#B0FFFF"/>
<path d="M599.507 160.693C599.414 160.599 599.425 160.611 599.507 160.693V160.693Z" fill="#B0FFFF"/>
<path d="M600.211 161.398C600.293 161.48 600.316 161.503 600.211 161.398V161.398Z" fill="#B0FFFF"/>
<path d="M618.318 200.8V173.414L605.488 160.565C606.516 159.119 606.389 157.096 605.096 155.8C603.652 154.355 601.296 154.355 599.853 155.8C598.41 157.246 598.41 159.605 599.853 161.051C601.146 162.346 603.167 162.473 604.611 161.444L617.071 173.923V200.8C615.327 201.1 613.988 202.615 613.988 204.454C613.988 206.501 615.65 208.166 617.694 208.166C619.738 208.166 621.401 206.501 621.401 204.454C621.401 202.615 620.062 201.1 618.318 200.8ZM600.465 160.438C599.356 159.328 599.356 157.524 600.465 156.413C601.574 155.303 603.375 155.303 604.484 156.413C604.449 156.379 604.414 156.344 604.38 156.309C604.414 156.344 604.438 156.367 604.484 156.413C604.565 156.494 604.634 156.564 604.68 156.61L604.484 156.413C605.592 157.524 605.592 159.328 604.484 160.426C603.375 161.537 601.574 161.537 600.477 160.426L600.465 160.438ZM617.694 207.299C616.124 207.299 614.854 206.027 614.854 204.454C614.854 202.881 616.124 201.609 617.683 201.609C619.242 201.609 620.512 202.881 620.512 204.454C620.512 206.027 619.242 207.299 617.671 207.299H617.694Z" fill="#B0FFFF"/>
<path d="M454.073 47.5639H510.334C510.634 49.3102 512.147 50.6517 513.983 50.6517C516.027 50.6517 517.69 48.9864 517.69 46.9394C517.69 44.8924 516.027 43.2271 513.983 43.2271C512.147 43.2271 510.634 44.5686 510.334 46.3149H453.646L439.072 57.8914L439.846 58.8629L454.084 47.5523L454.073 47.5639ZM513.972 44.0944C515.542 44.0944 516.812 45.3666 516.812 46.9394C516.812 48.5122 515.542 49.7844 513.972 49.7844C512.401 49.7844 511.131 48.5122 511.131 46.9394C511.131 45.3666 512.401 44.0944 513.972 44.0944Z" fill="#B0FFFF"/>
<path d="M438.853 63.593C438.934 63.5236 439.014 63.4658 439.084 63.4079C439.026 63.4542 438.945 63.512 438.853 63.593Z" fill="#B0FFFF"/>
<path d="M439.084 63.4079C439.326 63.2229 439.453 63.1188 439.084 63.4079V63.4079Z" fill="#B0FFFF"/>
<path d="M438.853 63.593C438.726 63.697 438.587 63.8011 438.506 63.8705C438.576 63.8127 438.691 63.7317 438.853 63.593Z" fill="#B0FFFF"/>
<path d="M438.507 63.8705C438.344 63.9989 438.379 63.9639 438.507 63.8705V63.8705Z" fill="#B0FFFF"/>
<path d="M438.853 63.593C440.458 62.3208 440.724 59.9847 439.453 58.3772C438.183 56.7696 435.85 56.5037 434.245 57.7758C432.64 59.0479 432.374 61.3841 433.645 62.9916C434.915 64.5991 437.248 64.8651 438.853 63.593ZM434.788 58.4581C434.788 58.4581 434.719 58.516 434.684 58.5391C434.719 58.516 434.742 58.4928 434.788 58.4581C434.903 58.3656 434.973 58.3193 435.031 58.2731C434.961 58.3309 434.88 58.3887 434.788 58.4581C436.012 57.4867 437.802 57.6948 438.772 58.9207C439.742 60.1466 439.534 61.9392 438.31 62.9106C437.086 63.8821 435.296 63.6739 434.326 62.448C433.356 61.2222 433.564 59.4296 434.788 58.4581ZM434.592 58.6085C434.349 58.8051 434.43 58.7357 434.592 58.6085V58.6085ZM435.088 58.2153C435.146 58.169 435.169 58.1574 435.088 58.2153V58.2153Z" fill="#B0FFFF"/>
<path d="M362.533 168.302C363.977 166.856 363.977 164.497 362.533 163.052C361.09 161.606 358.734 161.606 357.29 163.052C355.847 164.497 355.847 166.856 357.29 168.302C358.734 169.748 361.09 169.748 362.533 168.302ZM357.902 163.665C359.011 162.554 360.812 162.554 361.921 163.665C363.03 164.775 363.03 166.579 361.921 167.689C360.812 168.799 359.011 168.799 357.902 167.689C356.794 166.579 356.794 164.775 357.902 163.665Z" fill="#B0FFFF"/>
<path d="M377.176 188.217C377.258 188.299 377.27 188.311 377.176 188.217V188.217Z" fill="#B0FFFF"/>
<path d="M382.06 187.858C383.504 186.413 383.504 184.054 382.06 182.608C380.767 181.313 378.746 181.185 377.303 182.215L362.972 167.863L362.094 168.742L376.425 183.094C375.397 184.539 375.524 186.563 376.818 187.858C376.679 187.72 376.552 187.592 376.471 187.511C376.529 187.569 376.644 187.685 376.818 187.858L377.164 188.205C377.083 188.124 376.945 187.986 376.818 187.858C378.261 189.304 380.617 189.304 382.06 187.858ZM377.43 183.221C378.538 182.111 380.34 182.111 381.437 183.221C382.545 184.331 382.545 186.135 381.437 187.245C380.328 188.356 378.527 188.356 377.418 187.245C376.31 186.135 376.31 184.331 377.418 183.232L377.43 183.221Z" fill="#B0FFFF"/>
<path d="M370.237 163.145C370.131 163.04 370.155 163.063 370.237 163.145V163.145Z" fill="#B0FFFF"/>
<path d="M370.94 163.85C371.022 163.932 371.045 163.955 370.94 163.85V163.85Z" fill="#B0FFFF"/>
<path d="M400.225 187.939C401.669 186.494 401.669 184.134 400.225 182.689C398.932 181.394 396.911 181.266 395.468 182.296L376.217 163.017C377.245 161.571 377.118 159.547 375.825 158.252C374.381 156.807 372.025 156.807 370.582 158.252C369.139 159.698 369.139 162.057 370.582 163.503C371.875 164.798 373.896 164.925 375.34 163.896L394.59 183.175C393.562 184.62 393.689 186.644 394.983 187.939C396.426 189.385 398.782 189.385 400.225 187.939ZM375.109 158.761C374.762 158.414 374.901 158.553 375.109 158.761V158.761ZM371.194 162.878C370.085 161.768 370.085 159.964 371.194 158.854C372.303 157.743 374.104 157.743 375.213 158.854C376.321 159.964 376.321 161.768 375.213 162.878C374.104 163.988 372.303 163.988 371.194 162.878ZM395.595 183.302C396.703 182.192 398.505 182.192 399.602 183.302C400.71 184.412 400.71 186.216 399.602 187.326C398.493 188.437 396.692 188.437 395.583 187.326C394.474 186.216 394.474 184.412 395.583 183.313L395.595 183.302Z" fill="#B0FFFF"/>
<path d="M475.702 197.122L475.887 196.937V180.815H448.553C448.253 179.069 446.74 177.727 444.904 177.727C442.86 177.727 441.197 179.393 441.197 181.44C441.197 183.487 442.86 185.152 444.904 185.152C446.74 185.152 448.253 183.811 448.553 182.064H474.64V196.428L452.676 218.425C451.232 217.395 449.211 217.522 447.918 218.818C446.474 220.263 446.474 222.623 447.918 224.068C449.361 225.514 451.717 225.514 453.161 224.068C454.454 222.773 454.581 220.749 453.553 219.304L475.702 197.122ZM444.904 184.285C443.333 184.285 442.063 183.013 442.063 181.44C442.063 179.867 443.333 178.595 444.904 178.595C446.474 178.595 447.745 179.867 447.745 181.428C447.745 183.001 446.474 184.273 444.904 184.273V184.285ZM452.537 223.455C451.428 224.566 449.627 224.566 448.518 223.455C447.41 222.345 447.41 220.541 448.518 219.431C449.627 218.32 451.428 218.32 452.525 219.431C453.634 220.541 453.634 222.345 452.525 223.455H452.537Z" fill="#B0FFFF"/>
<path d="M610.096 179.069C608.052 179.069 606.389 180.734 606.389 182.781C606.389 184.62 607.729 186.135 609.472 186.436V212.156C607.729 212.457 606.389 213.972 606.389 215.811C606.389 217.858 608.052 219.523 610.096 219.523C612.14 219.523 613.803 217.858 613.803 215.811C613.803 213.972 612.463 212.457 610.72 212.156V186.436C612.463 186.135 613.803 184.62 613.803 182.781C613.803 180.734 612.14 179.069 610.096 179.069ZM612.937 215.799C612.937 217.372 611.667 218.644 610.096 218.644C608.526 218.644 607.255 217.372 607.255 215.799C607.255 214.226 608.526 212.954 610.096 212.954C611.667 212.954 612.937 214.226 612.937 215.799ZM610.108 185.626C608.549 185.626 607.278 184.354 607.278 182.781C607.278 181.209 608.549 179.936 610.119 179.936C611.69 179.936 612.96 181.209 612.96 182.781C612.96 184.354 611.69 185.615 610.131 185.626H610.108Z" fill="#B0FFFF"/>
<path d="M578.016 95.1884C580.06 95.1884 581.723 93.523 581.723 91.4761V92.1006H600.985L608.953 104.614V141.957H587.277L576.55 127.455C577.774 126.171 577.947 124.159 576.861 122.678C575.649 121.036 573.316 120.689 571.676 121.903C570.037 123.118 569.69 125.454 570.903 127.096C571.988 128.565 573.974 128.993 575.556 128.195L586.654 143.206H610.2V104.255L601.666 90.8631H581.723V91.4876C581.723 89.4406 580.06 87.7753 578.016 87.7753C575.972 87.7753 574.309 89.4406 574.309 91.4876C574.309 93.5346 575.972 95.2 578.016 95.2V95.1884ZM571.607 126.576C570.672 125.315 570.937 123.534 572.196 122.597C573.455 121.661 575.233 121.927 576.168 123.187C577.104 124.448 576.838 126.229 575.58 127.165C574.321 128.102 572.542 127.836 571.607 126.576ZM578.016 88.6311C579.587 88.6311 580.857 89.9032 580.857 91.4761C580.857 93.0489 579.587 94.321 578.016 94.321C576.446 94.321 575.175 93.0489 575.175 91.4761C575.175 89.9032 576.446 88.6311 578.016 88.6311Z" fill="#B0FFFF"/>
<path d="M576.861 122.667C576.757 122.528 576.653 122.389 576.584 122.297C576.642 122.366 576.723 122.482 576.861 122.667Z" fill="#B0FFFF"/>
<path d="M577.046 122.91C577.115 123.002 577.161 123.06 577.185 123.095C577.15 123.048 577.104 122.991 577.046 122.91Z" fill="#B0FFFF"/>
<path d="M576.861 122.667C576.919 122.748 576.976 122.829 577.034 122.898C576.988 122.829 576.93 122.759 576.861 122.667Z" fill="#B0FFFF"/>
<path d="M576.596 122.298C576.491 122.146 576.514 122.181 576.596 122.298V122.298Z" fill="#B0FFFF"/>
<path d="M617.706 120.03C615.662 120.03 613.999 121.695 613.999 123.742C613.999 125.581 615.338 127.096 617.082 127.397V146.398C615.338 146.699 613.999 148.214 613.999 150.053C613.999 152.1 615.662 153.765 617.706 153.765C619.75 153.765 621.413 152.1 621.413 150.053C621.413 148.214 620.073 146.699 618.329 146.398V127.397C620.073 127.096 621.413 125.581 621.413 123.742C621.413 121.695 619.75 120.03 617.706 120.03ZM620.546 150.041C620.546 151.614 619.276 152.886 617.706 152.886C616.135 152.886 614.865 151.614 614.865 150.041C614.865 148.468 616.135 147.196 617.706 147.196C619.265 147.196 620.546 148.468 620.546 150.041ZM617.706 126.587C616.135 126.587 614.865 125.315 614.865 123.742C614.865 122.169 616.135 120.897 617.706 120.897C619.276 120.897 620.546 122.169 620.546 123.742C620.546 125.315 619.276 126.587 617.706 126.587Z" fill="#B0FFFF"/>
<path d="M496.834 164.59C498.878 164.59 500.541 162.924 500.541 160.877C500.541 158.83 498.878 157.165 496.834 157.165C494.998 157.165 493.486 158.507 493.185 160.253H436.82L410.318 131.872V117.312L427.085 103.261C428.436 104.406 430.457 104.463 431.866 103.284C433.437 101.965 433.645 99.6178 432.328 98.0565C431.012 96.4837 428.667 96.2755 427.108 97.5939C425.7 98.7735 425.399 100.774 426.3 102.312L409.313 116.549L409.094 116.734V132.37L436.116 161.305L436.301 161.502H493.208C493.509 163.248 495.021 164.59 496.857 164.59H496.834ZM427.651 98.2647C427.547 98.3572 427.443 98.4382 427.374 98.496C427.432 98.4497 427.513 98.3803 427.651 98.2647C428.252 97.7674 427.951 98.0103 427.651 98.2647C428.852 97.2585 430.642 97.4204 431.647 98.6232C432.651 99.8259 432.49 101.619 431.289 102.625C430.088 103.631 428.298 103.469 427.293 102.278C426.289 101.075 426.45 99.2824 427.651 98.2762V98.2647ZM496.834 158.032C498.405 158.032 499.675 159.305 499.675 160.877C499.675 162.45 498.405 163.722 496.834 163.722C495.264 163.722 493.994 162.45 493.994 160.877C493.994 159.305 495.264 158.032 496.834 158.032Z" fill="#B0FFFF"/>
<path d="M431.855 103.284C431.786 103.342 431.739 103.388 431.682 103.423C431.739 103.376 431.797 103.33 431.855 103.284Z" fill="#B0FFFF"/>
<path d="M432.19 103.007C432.318 102.902 432.365 102.867 432.19 103.007V103.007Z" fill="#B0FFFF"/>
<path d="M431.855 103.284C431.982 103.18 432.097 103.076 432.19 103.006C432.12 103.064 432.016 103.145 431.855 103.284Z" fill="#B0FFFF"/>
<path d="M431.486 103.596C431.37 103.7 431.393 103.677 431.486 103.596V103.596Z" fill="#B0FFFF"/>
<path d="M448.553 123.129C448.253 121.383 446.74 120.042 444.904 120.042C442.86 120.042 441.197 121.707 441.197 123.754C441.197 125.801 442.86 127.466 444.904 127.466C446.74 127.466 448.253 126.125 448.553 124.378H493.232V142.824C491.488 143.125 490.148 144.64 490.148 146.479C490.148 148.526 491.811 150.191 493.855 150.191C495.899 150.191 497.562 148.526 497.562 146.479C497.562 144.64 496.223 143.125 494.479 142.824V123.141H448.565L448.553 123.129ZM444.904 126.599C443.333 126.599 442.063 125.327 442.063 123.754C442.063 122.181 443.333 120.909 444.904 120.909C446.474 120.909 447.745 122.181 447.745 123.742C447.745 125.315 446.474 126.587 444.904 126.587V126.599ZM496.684 146.467C496.684 148.04 495.414 149.312 493.844 149.312C492.273 149.312 491.003 148.04 491.003 146.467C491.003 144.895 492.273 143.622 493.844 143.622C495.414 143.622 496.684 144.895 496.684 146.467Z" fill="#B0FFFF"/>
<path d="M475.887 149.393V139.274H445.574C445.273 137.528 443.761 136.186 441.925 136.186C439.881 136.186 438.218 137.852 438.218 139.899C438.218 141.946 439.881 143.611 441.925 143.611C443.761 143.611 445.273 142.269 445.574 140.523H474.651V149.405C472.907 149.706 471.568 151.221 471.568 153.059C471.568 155.106 473.231 156.772 475.275 156.772C477.319 156.772 478.982 155.106 478.982 153.059C478.982 151.221 477.642 149.706 475.898 149.405L475.887 149.393ZM441.925 142.732C440.354 142.732 439.084 141.46 439.084 139.887C439.084 138.314 440.354 137.042 441.925 137.042C443.495 137.042 444.765 138.314 444.765 139.887C444.765 141.46 443.495 142.732 441.925 142.732ZM475.263 155.881C473.693 155.881 472.422 154.609 472.422 153.036C472.422 151.463 473.693 150.191 475.263 150.191C476.834 150.191 478.104 151.463 478.104 153.036C478.104 154.609 476.834 155.881 475.263 155.881Z" fill="#B0FFFF"/>
<path d="M356.263 154.158C356.563 155.904 358.076 157.246 359.912 157.246C361.956 157.246 363.619 155.581 363.619 153.534C363.619 151.487 361.956 149.821 359.912 149.821C358.076 149.821 356.563 151.163 356.263 152.909H333.952C333.652 151.163 332.139 149.821 330.303 149.821C328.259 149.821 326.596 151.487 326.596 153.534C326.596 155.581 328.259 157.246 330.303 157.246C332.139 157.246 333.652 155.904 333.952 154.158H356.263ZM359.912 150.689C361.482 150.689 362.753 151.961 362.753 153.534C362.753 155.106 361.482 156.379 359.912 156.379C358.341 156.379 357.071 155.106 357.071 153.534C357.071 151.961 358.341 150.689 359.912 150.689ZM330.303 156.367C328.733 156.367 327.462 155.095 327.462 153.522C327.462 151.949 328.733 150.677 330.303 150.677C331.874 150.677 333.144 151.949 333.144 153.522C333.144 155.095 331.874 156.367 330.303 156.367Z" fill="#B0FFFF"/>
<path d="M361.852 130.034V131.283H384.104C384.405 133.029 385.917 134.37 387.754 134.37C389.798 134.37 391.46 132.705 391.46 130.658C391.46 128.611 389.798 126.946 387.754 126.946C385.917 126.946 384.405 128.287 384.104 130.034H361.852ZM387.754 127.813C389.324 127.813 390.594 129.085 390.594 130.658C390.594 132.231 389.324 133.503 387.754 133.503C386.183 133.503 384.913 132.231 384.913 130.658C384.913 129.085 386.183 127.813 387.754 127.813Z" fill="#B0FFFF"/>
<path d="M361.852 130.658C361.852 128.611 360.189 126.946 358.145 126.946C356.101 126.946 354.438 128.611 354.438 130.658C354.438 132.705 356.101 134.37 358.145 134.37C360.189 134.37 361.852 132.705 361.852 130.658ZM358.145 133.503C356.574 133.503 355.304 132.231 355.304 130.658C355.304 129.085 356.574 127.813 358.145 127.813C359.715 127.813 360.986 129.085 360.986 130.658C360.986 132.231 359.715 133.503 358.145 133.503Z" fill="#B0FFFF"/>
<path d="M491.904 173.09C491.904 171.043 490.241 169.378 488.197 169.378C486.361 169.378 484.848 170.719 484.548 172.465H462.237C461.937 170.719 460.424 169.378 458.588 169.378C456.544 169.378 454.881 171.043 454.881 173.09C454.881 175.137 456.544 176.802 458.588 176.802C460.424 176.802 461.937 175.461 462.237 173.714H484.548C484.848 175.461 486.361 176.802 488.197 176.802C490.241 176.802 491.904 175.137 491.904 173.09ZM458.588 175.935C457.018 175.935 455.747 174.663 455.747 173.09C455.747 171.517 457.018 170.245 458.588 170.245C460.159 170.245 461.429 171.517 461.429 173.09C461.429 174.663 460.159 175.935 458.588 175.935ZM488.197 175.935C486.626 175.935 485.356 174.663 485.356 173.09C485.356 171.517 486.626 170.245 488.197 170.245C489.767 170.245 491.038 171.517 491.038 173.09C491.038 174.663 489.767 175.935 488.197 175.935Z" fill="#B0FFFF"/>
<path d="M478.302 85.6011C478.302 85.6011 478.232 85.6712 478.15 85.7529C478.22 85.6828 478.278 85.6245 478.302 85.6011Z" fill="#B0FFFF"/>
<path d="M472.642 80.7553C471.198 82.201 471.198 84.5602 472.642 86.0058C474.085 87.4515 476.441 87.4515 477.885 86.0058C479.178 84.7106 479.305 82.6867 478.277 81.2411L488.382 71.1217L487.504 70.2428L477.4 80.3621C475.956 79.3328 473.935 79.4601 472.642 80.7553ZM477.273 85.3929C476.164 86.5031 474.363 86.5031 473.254 85.3929C472.145 84.2827 472.145 82.4785 473.254 81.3683C474.363 80.258 476.164 80.258 477.261 81.3683C478.37 82.4785 478.37 84.2827 477.261 85.3929H477.273Z" fill="#B0FFFF"/>
<path d="M493.185 65.4317C491.742 63.9861 489.386 63.9861 487.943 65.4317C486.499 66.8774 486.499 69.2366 487.943 70.6822C489.386 72.1279 491.742 72.1279 493.185 70.6822C494.629 69.2366 494.629 66.8774 493.185 65.4317ZM492.573 70.0693C491.465 71.1795 489.663 71.1795 488.555 70.0693C487.446 68.9591 487.446 67.1549 488.555 66.0447C488.451 66.1488 488.347 66.2529 488.278 66.3223C488.324 66.276 488.416 66.1835 488.555 66.0447C488.832 65.7671 489.109 65.4896 488.555 66.0447C489.663 64.9345 491.465 64.9345 492.573 66.0447C493.682 67.1549 493.682 68.9591 492.573 70.0693Z" fill="#B0FFFF"/>
<path d="M492.84 71.0408C492.734 71.1463 492.758 71.1229 492.84 71.0408V71.0408Z" fill="#B0FFFF"/>
<path d="M379.439 143.599C381.483 143.599 383.146 141.934 383.146 139.887C383.146 137.84 381.483 136.175 379.439 136.175C377.603 136.175 376.09 137.516 375.79 139.262H345.731V120.978L358.064 106.036C359.6 106.927 361.598 106.603 362.764 105.192C364.069 103.619 363.85 101.272 362.268 99.9647C360.697 98.6579 358.353 98.8776 357.048 100.462C355.882 101.873 355.951 103.897 357.106 105.25L344.484 120.539V140.511H375.79C376.09 142.258 377.603 143.599 379.439 143.599ZM357.937 100.751C357.937 100.751 357.856 100.855 357.799 100.925C357.856 100.855 357.902 100.797 357.937 100.751ZM357.66 101.087C357.66 101.087 357.591 101.168 357.568 101.202C357.591 101.168 357.625 101.133 357.66 101.087ZM357.718 101.017C358.711 99.8144 360.512 99.6409 361.713 100.636C362.914 101.63 363.087 103.434 362.094 104.637C361.101 105.84 359.311 106.013 358.099 105.019C356.898 104.012 356.725 102.22 357.718 101.017ZM379.439 137.042C381.01 137.042 382.28 138.314 382.28 139.887C382.28 141.46 381.01 142.732 379.439 142.732C377.869 142.732 376.598 141.46 376.598 139.887C376.598 138.314 377.869 137.042 379.439 137.042Z" fill="#B0FFFF"/>
<path d="M362.949 104.984C363.157 104.741 363.261 104.602 362.949 104.984V104.984Z" fill="#B0FFFF"/>
<path d="M362.776 105.192C362.129 105.978 362.452 105.585 362.776 105.192V105.192Z" fill="#B0FFFF"/>
<path d="M362.776 105.192C362.845 105.1 362.903 105.042 362.949 104.972C362.891 105.042 362.833 105.111 362.776 105.192Z" fill="#B0FFFF"/>
<path d="M584.044 99.1205C583.859 99.1205 583.663 99.1089 583.501 99.0974C583.594 99.0974 583.698 99.0974 583.848 99.1089C583.929 99.1089 583.986 99.1089 584.044 99.1089V99.1205Z" fill="#B0FFFF"/>
<path d="M584.182 99.132C584.448 99.1436 584.575 99.1436 584.182 99.132V99.132Z" fill="#B0FFFF"/>
<path d="M583.501 99.0974C583.132 99.0858 583.236 99.0974 583.501 99.0974V99.0974Z" fill="#B0FFFF"/>
<path d="M580.071 102.046L556.352 101.006V125.223L546.294 131.479C545.116 130.149 543.13 129.814 541.571 130.785C539.839 131.861 539.296 134.162 540.381 135.897C541.467 137.632 543.753 138.175 545.486 137.088C547.045 136.117 547.622 134.185 546.952 132.532L557.599 125.905V102.301L580.014 103.284C580.233 105.042 581.688 106.453 583.524 106.534C585.568 106.626 587.3 105.03 587.393 102.983C587.485 100.936 585.891 99.2015 583.848 99.1089C582.023 99.028 580.441 100.3 580.071 102.035V102.046ZM544.862 136.452C544.862 136.452 544.897 136.429 544.908 136.417C544.897 136.417 544.874 136.441 544.862 136.452ZM545.024 136.348C543.696 137.181 541.94 136.764 541.12 135.434C540.289 134.104 540.705 132.347 542.033 131.526C543.361 130.693 545.116 131.109 545.936 132.439C546.767 133.769 546.352 135.527 545.024 136.348ZM583.801 99.9879C585.36 100.057 586.584 101.387 586.515 102.949C586.446 104.51 585.118 105.736 583.559 105.666C582 105.597 580.776 104.267 580.845 102.706C580.914 101.133 582.242 99.9185 583.801 99.9879ZM583.871 105.678C583.871 105.678 583.767 105.678 583.697 105.678C583.767 105.678 583.824 105.678 583.871 105.678ZM583.224 105.655C583.039 105.655 583.085 105.655 583.224 105.655V105.655Z" fill="#B0FFFF"/>
<path d="M541.894 130.578C541.952 130.543 541.999 130.508 542.022 130.496C541.987 130.52 541.952 130.543 541.894 130.578Z" fill="#B0FFFF"/>
<path d="M541.167 131.028C541.248 130.982 541.375 130.901 541.571 130.774C541.687 130.704 541.779 130.647 541.848 130.6C541.629 130.739 541.317 130.924 541.167 131.028Z" fill="#B0FFFF"/>
<path d="M541.836 130.612C541.836 130.612 541.871 130.589 541.883 130.577C541.86 130.577 541.848 130.601 541.836 130.612Z" fill="#B0FFFF"/>
<path d="M541.145 131.04C541.039 131.11 541.062 131.098 541.145 131.04V131.04Z" fill="#B0FFFF"/>
<path d="M541.168 131.028C541.168 131.028 541.156 131.028 541.144 131.04C541.144 131.04 541.156 131.04 541.168 131.028Z" fill="#B0FFFF"/>
<path d="M526.767 142.57C526.767 144.617 528.429 146.282 530.473 146.282C532.31 146.282 533.822 144.941 534.123 143.195H561.237C561.537 144.941 563.05 146.282 564.886 146.282C566.93 146.282 568.593 144.617 568.593 142.57C568.593 140.523 566.93 138.858 564.886 138.858C563.05 138.858 561.537 140.199 561.237 141.946H534.123C533.822 140.199 532.31 138.858 530.473 138.858C528.429 138.858 526.767 140.523 526.767 142.57ZM564.874 139.725C566.445 139.725 567.715 140.997 567.715 142.57C567.715 144.143 566.445 145.415 564.874 145.415C563.304 145.415 562.034 144.143 562.034 142.57C562.034 140.997 563.304 139.725 564.874 139.725ZM530.473 139.725C532.044 139.725 533.314 140.997 533.314 142.57C533.314 144.143 532.044 145.415 530.473 145.415C528.903 145.415 527.633 144.143 527.633 142.57C527.633 140.997 528.903 139.725 530.473 139.725Z" fill="#B0FFFF"/>
<path d="M499.825 56.9778C497.781 56.9778 496.119 58.6431 496.119 60.6901C496.119 62.7371 497.781 64.4025 499.825 64.4025C501.661 64.4025 503.174 63.0609 503.475 61.3146H522.794L550.266 84.7799L550.44 84.9303H564.228C564.528 86.6766 566.041 88.0181 567.877 88.0181C569.921 88.0181 571.584 86.3528 571.584 84.3058C571.584 82.2588 569.921 80.5934 567.877 80.5934C566.041 80.5934 564.528 81.935 564.228 83.6813H550.902L523.418 60.216L523.244 60.0656H503.475C503.174 58.3193 501.661 56.9778 499.825 56.9778ZM567.865 81.4608C569.436 81.4608 570.706 82.7329 570.706 84.3058C570.706 85.8786 569.436 87.1507 567.865 87.1507C566.295 87.1507 565.036 85.8786 565.025 84.3173C565.025 82.7445 566.295 81.4724 567.865 81.4724V81.4608ZM499.825 63.5351C498.255 63.5351 496.985 62.263 496.985 60.6901C496.985 59.1173 498.255 57.8452 499.825 57.8452C501.396 57.8452 502.655 59.1173 502.666 60.6786C502.666 62.2514 501.396 63.5235 499.825 63.5235V63.5351Z" fill="#B0FFFF"/>
<path d="M580.661 116.377C580.661 116.377 580.58 116.283 580.557 116.26C580.58 116.283 580.615 116.33 580.661 116.377Z" fill="#B0FFFF"/>
<path d="M581.099 116.861C581.18 116.954 581.238 117.023 581.272 117.058C581.238 117.023 581.191 116.965 581.099 116.861Z" fill="#B0FFFF"/>
<path d="M595.788 133.411C595.94 133.586 595.998 133.644 595.788 133.411V133.411Z" fill="#B0FFFF"/>
<path d="M595.35 132.914C595.35 132.914 595.292 132.844 595.269 132.821C595.292 132.844 595.315 132.879 595.35 132.914Z" fill="#B0FFFF"/>
<path d="M595.269 132.822C595.269 132.822 595.199 132.74 595.187 132.728C595.211 132.752 595.234 132.787 595.269 132.822Z" fill="#B0FFFF"/>
<path d="M600.765 133.434C602.289 132.069 602.428 129.721 601.077 128.195C599.864 126.819 597.855 126.576 596.342 127.524L586.608 116.56L586.146 116.977C587.67 115.612 587.808 113.264 586.446 111.738C585.083 110.211 582.739 110.073 581.215 111.426C579.69 112.79 579.552 115.138 580.903 116.665C580.81 116.56 580.718 116.456 580.649 116.375C580.707 116.445 580.787 116.526 580.903 116.665C580.984 116.745 581.041 116.815 581.088 116.873C581.03 116.803 580.972 116.734 580.903 116.665C582.266 118.191 584.61 118.33 586.134 116.977L585.672 117.382L595.407 128.345C594.298 129.733 594.31 131.757 595.522 133.133C596.885 134.66 599.229 134.798 600.754 133.445L600.765 133.434ZM586.065 112.594C586.065 112.594 586.053 112.571 586.042 112.559C586.042 112.559 586.065 112.582 586.065 112.594ZM581.561 116.075C580.522 114.907 580.626 113.103 581.792 112.062C582.958 111.021 584.76 111.125 585.799 112.293C586.838 113.461 586.735 115.265 585.568 116.306C584.402 117.347 582.6 117.243 581.561 116.075ZM596.423 128.53C597.589 127.489 599.391 127.593 600.43 128.761C601.47 129.93 601.366 131.734 600.199 132.775C599.033 133.815 597.232 133.711 596.192 132.543C595.153 131.375 595.257 129.571 596.423 128.53ZM600.546 128.889C600.731 129.097 600.834 129.224 600.546 128.889V128.889Z" fill="#B0FFFF"/>
<path d="M595.534 133.121C595.453 133.04 595.395 132.971 595.349 132.913C595.407 132.983 595.465 133.052 595.534 133.121Z" fill="#B0FFFF"/>
<path d="M595.788 133.411C595.73 133.341 595.65 133.26 595.534 133.121C595.626 133.226 595.719 133.33 595.788 133.411Z" fill="#B0FFFF"/>
<path d="M529.249 118.411H539.873C540.174 120.157 541.686 121.499 543.522 121.499C545.566 121.499 547.229 119.833 547.229 117.786C547.229 115.739 545.566 114.074 543.522 114.074C541.686 114.074 540.174 115.416 539.873 117.162H529.688L510.022 101.029L469.12 99.8028L460.724 108.176C459.281 107.147 457.26 107.262 455.967 108.557C454.523 110.003 454.512 112.362 455.967 113.808C457.41 115.254 459.766 115.265 461.209 113.808C462.503 112.513 462.641 110.489 461.614 109.043L469.628 101.052L509.572 102.255L529.249 118.399V118.411ZM543.522 114.941C545.093 114.941 546.363 116.213 546.363 117.786C546.363 119.359 545.093 120.631 543.522 120.631C541.952 120.631 540.682 119.359 540.682 117.786C540.682 116.213 541.952 114.941 543.522 114.941ZM460.597 113.195C459.489 114.305 457.687 114.294 456.579 113.195C455.47 112.085 455.482 110.281 456.579 109.17C456.024 109.726 456.302 109.448 456.579 109.17C456.625 109.124 456.648 109.101 456.683 109.066C456.891 108.858 457.029 108.719 456.683 109.066C456.648 109.101 456.613 109.136 456.579 109.17C457.687 108.06 459.489 108.072 460.586 109.17C461.683 110.292 461.683 112.085 460.586 113.195H460.597Z" fill="#B0FFFF"/>
<path d="M461.394 113.646C461.394 113.646 461.463 113.577 461.498 113.542C461.463 113.577 461.44 113.6 461.394 113.646Z" fill="#B0FFFF"/>
<path d="M461.498 113.543C461.638 113.403 461.685 113.356 461.498 113.543V113.543Z" fill="#B0FFFF"/>
<path d="M461.209 113.831C460.482 114.548 460.851 114.19 461.209 113.831V113.831Z" fill="#B0FFFF"/>
<path d="M534.411 83.2997C534.481 83.3459 534.561 83.4037 534.665 83.4847C535.682 84.2017 534.85 83.6119 534.411 83.2997Z" fill="#B0FFFF"/>
<path d="M534.412 83.3001C534.412 83.3001 534.354 83.2535 534.331 83.2418C534.354 83.2651 534.389 83.2768 534.412 83.3001Z" fill="#B0FFFF"/>
<path d="M534.332 83.2427C534.133 83.1026 534.18 83.1376 534.332 83.2427V83.2427Z" fill="#B0FFFF"/>
<path d="M510.935 71.4109C509.768 73.0878 510.172 75.4124 511.847 76.5804C513.336 77.6213 515.346 77.4015 516.593 76.1525L529.03 85.416C528.557 86.9195 529.065 88.6195 530.427 89.5679C532.102 90.7359 534.423 90.3312 535.589 88.6542C536.756 86.9773 536.351 84.6528 534.677 83.4847C533.037 82.3398 530.797 82.7098 529.607 84.2942L517.321 75.1348C518.094 73.5273 517.621 71.5381 516.108 70.4857C514.434 69.3176 512.112 69.7224 510.946 71.3993L510.935 71.4109ZM512.494 75.9675C512.724 76.1294 512.863 76.2219 512.494 75.9675V75.9675ZM512.205 75.7709C512.205 75.7709 512.239 75.794 512.251 75.8056C512.239 75.8056 512.216 75.7824 512.205 75.7709ZM534.18 84.2017C535.462 85.1038 535.774 86.8732 534.885 88.1569C533.984 89.4407 532.217 89.7529 530.935 88.8624C529.792 88.0644 529.423 86.561 530 85.3235L530.358 84.8494L530.312 84.8147C531.224 83.6119 532.933 83.3228 534.192 84.2017H534.18ZM516.316 75.1695C515.415 76.4532 513.648 76.777 512.366 75.875C511.085 74.9729 510.773 73.2035 511.662 71.9197C512.563 70.636 514.33 70.3238 515.611 71.2143C516.893 72.1163 517.205 73.8858 516.316 75.1695Z" fill="#B0FFFF"/>
<path d="M516.443 70.7285C516.594 70.8336 516.641 70.8687 516.443 70.7285V70.7285Z" fill="#B0FFFF"/>
<path d="M516.108 70.4972C515.265 69.9074 515.692 70.2081 516.108 70.4972V70.4972Z" fill="#B0FFFF"/>
<path d="M516.108 70.4972C516.269 70.6129 516.373 70.6823 516.454 70.7401C516.362 70.6707 516.235 70.5897 516.108 70.4972Z" fill="#B0FFFF"/>
<path d="M503.856 85.3697C503.498 85.1153 503.625 85.2078 503.856 85.3697V85.3697Z" fill="#B0FFFF"/>
<path d="M508.359 79.4601C506.685 78.292 504.364 78.6968 503.197 80.3737C502.031 82.0506 502.435 84.3752 504.11 85.5433C504.017 85.4739 503.925 85.416 503.856 85.3582C503.925 85.4045 504.006 85.4623 504.11 85.5433C504.294 85.6705 504.41 85.7514 504.491 85.8092C504.398 85.7399 504.26 85.6473 504.11 85.5433C505.599 86.5841 507.586 86.3644 508.833 85.1269L529.076 100.913L529.249 101.04H542.934C543.234 102.787 544.747 104.128 546.583 104.128C548.627 104.128 550.29 102.463 550.29 100.416C550.29 98.3688 548.627 96.7034 546.583 96.7034C544.747 96.7034 543.234 98.045 542.934 99.7913H529.677L509.56 84.0976C510.346 82.4901 509.872 80.4894 508.359 79.437V79.4601ZM546.583 97.5939C548.153 97.5939 549.423 98.8661 549.423 100.439C549.423 102.012 548.153 103.284 546.583 103.284C545.012 103.284 543.742 102.012 543.742 100.439C543.742 98.8661 545.012 97.5939 546.583 97.5939ZM504.618 84.8378C503.336 83.9357 503.024 82.1663 503.913 80.8826C504.814 79.5989 506.581 79.2866 507.863 80.1771C509.145 81.0792 509.456 82.8486 508.567 84.1323C507.666 85.416 505.9 85.7283 504.618 84.8378Z" fill="#B0FFFF"/>
<path d="M504.491 85.8208C504.606 85.9018 504.629 85.9249 504.491 85.8208V85.8208Z" fill="#B0FFFF"/>
<path d="M585.765 164.266C583.929 164.266 582.416 165.607 582.116 167.354H529.85V181.706L540.382 191.12C539.435 192.623 539.677 194.635 541.052 195.861C542.576 197.226 544.932 197.087 546.283 195.561C547.645 194.034 547.507 191.675 545.982 190.322C544.62 189.096 542.587 189.096 541.202 190.194L531.086 181.151V168.603H582.116C582.416 170.349 583.929 171.691 585.765 171.691C587.809 171.691 589.472 170.025 589.472 167.978C589.472 165.931 587.809 164.266 585.765 164.266ZM545.405 190.969C544.816 190.449 545.116 190.703 545.405 190.969C545.694 191.235 545.994 191.49 545.405 190.969C546.571 192.01 546.675 193.814 545.636 194.982C544.597 196.15 542.795 196.255 541.629 195.214C540.463 194.173 540.359 192.369 541.398 191.201C542.437 190.033 544.239 189.928 545.405 190.969ZM585.765 170.823C584.206 170.823 582.924 169.551 582.924 167.978C582.924 166.405 584.194 165.133 585.765 165.133C587.335 165.133 588.606 166.405 588.606 167.978C588.606 169.551 587.335 170.823 585.765 170.823Z" fill="#B0FFFF"/>
<path d="M541.051 195.861C540.913 195.746 540.786 195.618 540.705 195.549C540.774 195.607 540.878 195.711 541.051 195.861Z" fill="#B0FFFF"/>
<path d="M541.374 196.15C541.374 196.15 541.27 196.058 541.201 195.989C541.27 196.046 541.328 196.104 541.374 196.15Z" fill="#B0FFFF"/>
<path d="M541.375 196.15C541.503 196.267 541.55 196.302 541.375 196.15V196.15Z" fill="#B0FFFF"/>
<path d="M540.672 195.516C540.589 195.444 540.6 195.456 540.672 195.516V195.516Z" fill="#B0FFFF"/>
<path d="M540.705 195.55C540.705 195.55 540.682 195.526 540.67 195.526C540.67 195.526 540.694 195.538 540.705 195.55Z" fill="#B0FFFF"/>
<path d="M375.859 103.793C376.391 105.77 378.435 106.95 380.409 106.418C382.384 105.886 383.562 103.839 383.031 101.861C382.557 100.092 380.871 98.9701 379.104 99.1436L373.654 78.8471L394.44 58.0302H416.208C416.508 59.7765 418.021 61.118 419.857 61.118C421.901 61.118 423.564 59.4527 423.564 57.4057C423.564 55.3587 421.901 53.6933 419.857 53.6933C418.021 53.6933 416.508 55.0349 416.208 56.7812H393.932L372.268 78.477L377.903 99.4674C376.298 100.208 375.397 102.023 375.871 103.793H375.859ZM419.834 54.5607C421.404 54.5607 422.674 55.8328 422.674 57.4057C422.674 58.9785 421.404 60.2507 419.834 60.2507C418.263 60.2507 416.993 58.9785 416.993 57.4057C416.993 55.8328 418.263 54.5607 419.834 54.5607ZM382.176 102.093C382.165 102.035 382.141 101.965 382.13 101.908C382.141 101.965 382.165 102.012 382.176 102.093C382.222 102.266 382.245 102.37 382.268 102.44C382.245 102.359 382.211 102.231 382.176 102.093C382.58 103.608 381.68 105.169 380.178 105.574C378.666 105.978 377.107 105.076 376.702 103.573C376.298 102.058 377.187 100.497 378.7 100.092C380.213 99.6872 381.772 100.589 382.176 102.093ZM382.095 101.769C382.049 101.607 382.061 101.642 382.095 101.769V101.769Z" fill="#B0FFFF"/>
<path d="M375.986 104.267C375.963 104.174 375.929 104.036 375.859 103.793C375.501 102.44 375.882 103.862 375.986 104.267Z" fill="#B0FFFF"/>
<path d="M375.986 104.267C376.021 104.384 376.021 104.407 375.986 104.267V104.267Z" fill="#B0FFFF"/>
<path d="M426.196 87.2664L400.167 106.453C398.886 105.215 396.876 105.042 395.398 106.129C393.747 107.343 393.4 109.668 394.613 111.321C395.825 112.975 398.147 113.322 399.798 112.108C399.763 112.131 399.74 112.154 399.717 112.166C399.752 112.143 399.763 112.131 399.809 112.108C400.225 111.807 400.629 111.507 399.809 112.108C401.288 111.021 401.715 109.043 400.918 107.459L426.612 88.5154H458.854L476.753 70.636L475.875 69.757L458.345 87.278H426.208L426.196 87.2664ZM399.29 111.414C398.031 112.339 396.253 112.073 395.317 110.813C394.393 109.552 394.659 107.771 395.918 106.834C395.283 107.297 395.606 107.066 395.918 106.834C395.987 106.776 396.045 106.742 396.091 106.707C396.033 106.742 395.976 106.788 395.918 106.834C397.176 105.909 398.955 106.175 399.879 107.436C400.803 108.708 400.537 110.489 399.278 111.414H399.29Z" fill="#B0FFFF"/>
<path d="M399.488 112.351C399.266 112.514 399.324 112.468 399.488 112.351V112.351Z" fill="#B0FFFF"/>
<path d="M399.717 112.166C399.613 112.235 399.532 112.293 399.475 112.339C399.544 112.293 399.625 112.224 399.717 112.166Z" fill="#B0FFFF"/>
<path d="M481.557 64.9345C480.113 63.4889 477.757 63.4773 476.314 64.9345C474.871 66.3801 474.859 68.7393 476.314 70.185C477.757 71.6306 480.113 71.6421 481.557 70.185C480.829 70.902 481.199 70.5435 481.557 70.185C481.811 69.9305 481.926 69.8149 481.961 69.7802C481.915 69.8264 481.741 69.9999 481.557 70.185C483 68.7393 483 66.3801 481.557 64.9345ZM476.926 69.5605C475.817 68.4502 475.817 66.6461 476.926 65.5359C478.035 64.4256 479.836 64.4256 480.945 65.5359C482.053 66.6461 482.053 68.4502 480.945 69.5605C479.836 70.6707 478.035 70.6707 476.926 69.5605Z" fill="#B0FFFF"/>
<path d="M419.614 71.8735L403.147 85.5317C401.807 84.3752 399.786 84.3058 398.366 85.4854C398.516 85.3582 398.655 85.2425 398.747 85.1732C398.678 85.231 398.562 85.3351 398.366 85.4854C397.581 86.133 397.973 85.8092 398.366 85.4854C396.796 86.7922 396.576 89.1399 397.881 90.7128C399.186 92.2856 401.53 92.5053 403.101 91.1985C404.509 90.0304 404.821 88.0297 403.944 86.4916L420.064 73.1225H453.53L462.48 63.8011L461.579 62.9337L452.987 71.8735H419.602H419.614ZM402.823 90.308C402.904 90.2386 402.927 90.227 402.823 90.308V90.308ZM402.408 90.6549C402.408 90.6549 402.442 90.6318 402.465 90.6087C402.442 90.6202 402.431 90.6434 402.408 90.6549ZM402.546 90.5393C401.345 91.5339 399.544 91.372 398.551 90.1692C397.558 88.9665 397.719 87.1623 398.92 86.1677C400.121 85.1732 401.923 85.3351 402.916 86.5378C403.909 87.7406 403.747 89.5447 402.546 90.5393Z" fill="#B0FFFF"/>
<path d="M462.087 57.9492C462.202 57.8336 462.272 57.7642 462.306 57.7295C462.26 57.7758 462.191 57.8567 462.087 57.9492Z" fill="#B0FFFF"/>
<path d="M461.775 58.273C461.775 58.273 461.868 58.1805 461.937 58.1111C461.879 58.169 461.833 58.2268 461.775 58.273Z" fill="#B0FFFF"/>
<path d="M461.556 58.5044C461.556 58.5044 461.671 58.3772 461.775 58.2846C461.66 58.4003 461.591 58.4697 461.556 58.5044Z" fill="#B0FFFF"/>
<path d="M461.937 58.1112C461.937 58.1112 462.041 57.9955 462.099 57.9492C462.052 57.9955 462.006 58.0418 461.937 58.1112Z" fill="#B0FFFF"/>
<path d="M462.029 63.3617C463.508 64.7842 465.852 64.7379 467.272 63.2576C468.693 61.7773 468.646 59.4296 467.168 58.0071C465.69 56.5846 463.346 56.6309 461.925 58.1112C460.505 59.5915 460.551 61.9392 462.029 63.3617ZM466.487 62.8181C466.233 63.0725 466.325 62.9916 466.487 62.8181V62.8181ZM462.549 58.7126C463.635 57.5792 465.436 57.5445 466.556 58.6316C467.688 59.7187 467.722 61.5228 466.637 62.6446C465.551 63.778 463.75 63.8127 462.63 62.7256C461.498 61.6385 461.464 59.8344 462.549 58.7126Z" fill="#B0FFFF"/>
<path d="M398.759 85.1624C398.852 85.0921 398.864 85.0686 398.759 85.1624V85.1624Z" fill="#B0FFFF"/>
<path d="M382.823 79.8417C381.356 81.2758 381.321 83.6235 382.753 85.0922C384.174 86.5609 386.53 86.5956 387.996 85.1616C387.834 85.3235 387.673 85.4738 387.615 85.5432C387.661 85.497 387.777 85.3813 387.996 85.1616C388.216 84.9419 388.331 84.8378 388.377 84.7799C388.308 84.8493 388.158 84.9997 387.996 85.1616C389.313 83.8779 389.463 81.8656 388.458 80.3968L398.562 70.5435C399.994 71.5843 402.015 71.4918 403.332 70.2081C404.798 68.7856 404.833 66.4264 403.401 64.9576C401.969 63.4889 399.625 63.4542 398.158 64.8882C396.842 66.1719 396.692 68.1842 397.696 69.653L387.592 79.5063C386.16 78.4655 384.139 78.558 382.823 79.8417ZM383.285 80.6166C383.007 80.8826 383.111 80.79 383.285 80.6166V80.6166ZM387.396 84.5486C386.276 85.6473 384.474 85.6126 383.377 84.4908C382.28 83.369 382.315 81.5649 383.435 80.4662C384.555 79.3675 386.356 79.4022 387.442 80.524C388.527 81.6458 388.504 83.45 387.384 84.5486H387.396ZM398.77 65.5359C399.89 64.4372 401.692 64.4719 402.789 65.5937C403.886 66.7155 403.851 68.5196 402.731 69.6183C401.611 70.717 399.81 70.6823 398.713 69.5605C397.615 68.4387 397.65 66.6345 398.77 65.5359ZM398.62 65.6862C398.343 65.9522 398.447 65.8597 398.62 65.6862V65.6862Z" fill="#B0FFFF"/>
<path d="M403.332 70.2197C403.112 70.4394 402.997 70.5435 402.951 70.6013C403.02 70.5319 403.17 70.3816 403.332 70.2197Z" fill="#B0FFFF"/>
<path d="M403.332 70.2197C403.493 70.0577 403.655 69.9074 403.713 69.838C403.666 69.8843 403.551 69.9999 403.332 70.2197Z" fill="#B0FFFF"/>
<path d="M447.976 99.9185C448.16 99.7682 448.276 99.6872 448.345 99.6294C447.999 99.8954 446.902 100.786 447.976 99.9185Z" fill="#B0FFFF"/>
<path d="M447.976 99.9185C446.544 101.063 446.186 103.053 447.04 104.614L426.485 120.99C425.169 119.81 423.148 119.706 421.716 120.839C421.762 120.793 421.82 120.759 421.866 120.712C421.82 120.747 421.774 120.782 421.716 120.839C421.67 120.874 421.646 120.897 421.612 120.92C421.646 120.897 421.681 120.863 421.716 120.839C420.111 122.112 419.845 124.459 421.127 126.055C422.397 127.663 424.741 127.929 426.335 126.645C427.767 125.5 428.125 123.511 427.27 121.95L447.825 105.574C449.142 106.753 451.163 106.857 452.595 105.724C454.2 104.452 454.465 102.104 453.184 100.508C451.913 98.9008 449.569 98.6348 447.976 99.9185ZM425.457 126.229C425.457 126.229 425.515 126.182 425.561 126.148C425.515 126.194 425.48 126.217 425.457 126.229ZM425.792 125.963C424.568 126.934 422.778 126.738 421.808 125.512C420.838 124.286 421.034 122.493 422.259 121.522C423.483 120.55 425.272 120.747 426.243 121.973C427.213 123.199 427.016 124.991 425.792 125.963ZM452.052 105.042C452.133 104.972 452.214 104.915 452.283 104.857C452.225 104.903 452.156 104.961 452.052 105.042C450.828 106.013 449.038 105.817 448.068 104.591C447.098 103.353 447.306 101.572 448.53 100.589C449.754 99.6178 451.544 99.8144 452.514 101.04C453.484 102.266 453.288 104.059 452.064 105.03L452.052 105.042Z" fill="#B0FFFF"/>
<path d="M448.333 99.6294C448.437 99.5484 448.472 99.5253 448.333 99.6294V99.6294Z" fill="#B0FFFF"/>
<path d="M422.062 120.563C422.062 120.563 422.109 120.516 422.133 120.504C422.121 120.516 422.097 120.539 422.062 120.563Z" fill="#B0FFFF"/>
<path d="M421.612 120.92C421.023 121.383 421.277 121.186 421.612 120.92V120.92Z" fill="#B0FFFF"/>
<path d="M421.866 120.724C421.947 120.654 422.016 120.608 422.062 120.573C422.004 120.62 421.947 120.666 421.866 120.724Z" fill="#B0FFFF"/>
<path d="M568.593 192.484C568.593 190.437 566.93 188.772 564.886 188.772C562.842 188.772 561.179 190.437 561.179 192.484C561.179 194.323 562.519 195.838 564.263 196.139V222.31C562.519 222.611 561.179 224.126 561.179 225.965C561.179 228.012 562.842 229.677 564.886 229.677C566.93 229.677 568.593 228.012 568.593 225.965C568.593 224.126 567.253 222.611 565.51 222.31V196.139C567.253 195.838 568.593 194.323 568.593 192.484ZM562.045 192.484C562.045 190.912 563.316 189.639 564.886 189.639C566.457 189.639 567.727 190.912 567.727 192.484C567.727 193.837 566.78 194.971 565.51 195.248V195.214H564.263V195.248C562.992 194.959 562.045 193.837 562.045 192.484ZM567.715 225.953C567.715 227.526 566.445 228.798 564.875 228.798C563.304 228.798 562.034 227.526 562.034 225.953C562.034 224.381 563.304 223.108 564.875 223.108C566.445 223.108 567.715 224.381 567.715 225.953Z" fill="#B0FFFF"/>
<path d="M579.032 192.484C579.032 190.437 577.369 188.772 575.325 188.772C573.281 188.772 571.618 190.437 571.618 192.484C571.618 194.323 572.958 195.838 574.702 196.139V222.31C572.958 222.611 571.618 224.126 571.618 225.965C571.618 228.012 573.281 229.677 575.325 229.677C577.369 229.677 579.032 228.012 579.032 225.965C579.032 224.126 577.693 222.611 575.949 222.31V196.139C577.693 195.838 579.032 194.323 579.032 192.484ZM572.484 192.484C572.484 190.912 573.755 189.639 575.325 189.639C576.896 189.639 578.166 190.912 578.166 192.484C578.166 193.837 577.219 194.971 575.949 195.248V195.214H574.702V195.248C573.431 194.959 572.484 193.837 572.484 192.484ZM578.166 225.953C578.166 227.526 576.896 228.798 575.325 228.798C573.755 228.798 572.484 227.526 572.484 225.953C572.484 224.381 573.755 223.108 575.325 223.108C576.896 223.108 578.166 224.381 578.166 225.953Z" fill="#B0FFFF"/>
<path d="M589.483 192.484C589.483 190.437 587.82 188.772 585.776 188.772C583.732 188.772 582.069 190.437 582.069 192.484C582.069 194.323 583.409 195.838 585.152 196.139V222.31C583.409 222.611 582.069 224.126 582.069 225.965C582.069 228.012 583.732 229.677 585.776 229.677C587.82 229.677 589.483 228.012 589.483 225.965C589.483 224.126 588.143 222.611 586.399 222.31V196.139C588.143 195.838 589.483 194.323 589.483 192.484ZM582.935 192.484C582.935 190.912 584.205 189.639 585.776 189.639C587.346 189.639 588.617 190.912 588.617 192.484C588.617 193.837 587.67 194.971 586.399 195.248V195.214H585.152V195.248C583.882 194.959 582.935 193.837 582.935 192.484ZM588.605 225.953C588.605 227.526 587.335 228.798 585.764 228.798C584.194 228.798 582.924 227.526 582.924 225.953C582.924 224.381 584.194 223.108 585.764 223.108C587.335 223.108 588.605 224.381 588.605 225.953Z" fill="#B0FFFF"/>
<path d="M428.968 170.997V169.748H407.604L395.918 155.916C397.061 154.551 397.107 152.527 395.918 151.128C394.601 149.567 392.257 149.37 390.687 150.689C389.128 152.007 388.931 154.355 390.248 155.928C391.426 157.327 393.435 157.616 394.959 156.714L407.027 170.985H428.968V170.997ZM390.918 155.372C391.172 155.673 391.426 155.974 390.918 155.372C390.41 154.771 390.664 155.072 390.918 155.372C389.901 154.181 390.052 152.377 391.253 151.371C392.442 150.353 394.243 150.504 395.248 151.706C396.264 152.898 396.114 154.702 394.913 155.708C393.724 156.726 391.922 156.575 390.918 155.372Z" fill="#B0FFFF"/>
<path d="M432.675 166.66C430.631 166.66 428.968 168.325 428.968 170.372C428.968 172.419 430.631 174.085 432.675 174.085C434.719 174.085 436.382 172.419 436.382 170.372C436.382 168.325 434.719 166.66 432.675 166.66ZM432.675 173.217C431.104 173.217 429.834 171.945 429.834 170.372C429.834 168.799 431.104 167.527 432.675 167.527C434.245 167.527 435.515 168.799 435.515 170.372C435.515 171.945 434.245 173.217 432.675 173.217Z" fill="#B0FFFF"/>
<path d="M395.906 151.14C395.248 150.353 395.571 150.746 395.906 151.14V151.14Z" fill="#B0FFFF"/>
<path d="M395.906 151.14C396.022 151.278 396.137 151.406 396.207 151.498C396.149 151.429 396.057 151.313 395.906 151.14Z" fill="#B0FFFF"/>
<path d="M396.23 151.521C396.289 151.592 396.312 151.615 396.23 151.521V151.521Z" fill="#B0FFFF"/>
<path d="M396.207 151.487C396.207 151.487 396.23 151.51 396.23 151.522C396.23 151.522 396.207 151.498 396.207 151.487Z" fill="#B0FFFF"/>
<path d="M508.175 195.919C508.246 195.943 508.258 195.943 508.175 195.919V195.919Z" fill="#B0FFFF"/>
<path d="M508.071 195.884C508.071 195.884 508.151 195.908 508.174 195.919C508.151 195.919 508.105 195.896 508.071 195.884Z" fill="#B0FFFF"/>
<path d="M507.587 195.735C507.587 195.735 507.482 195.7 507.435 195.688C507.482 195.7 507.529 195.723 507.587 195.735Z" fill="#B0FFFF"/>
<path d="M507.436 195.688C507.309 195.642 507.205 195.618 507.158 195.595C507.193 195.607 507.285 195.642 507.436 195.688Z" fill="#B0FFFF"/>
<path d="M507.586 195.734C507.586 195.734 507.643 195.757 507.678 195.769C507.863 195.827 507.978 195.861 508.071 195.896C507.944 195.85 507.759 195.792 507.586 195.734Z" fill="#B0FFFF"/>
<path d="M475.887 235.922V211.925L491.084 199.921C492.458 199.921 500.022 199.874 502.897 199.921C503.128 201.239 504.04 202.396 505.392 202.835C507.332 203.471 509.433 202.396 510.068 200.453C510.704 198.51 509.63 196.405 507.69 195.769C505.75 195.133 503.648 196.208 503.013 198.151C502.955 198.325 502.932 198.498 502.897 198.672C499.71 198.625 490.957 198.672 490.864 198.672H490.645L474.871 211.127L474.64 211.312V235.911C472.896 236.211 471.556 237.726 471.556 239.565C471.556 241.612 473.219 243.278 475.263 243.278C477.307 243.278 478.97 241.612 478.97 239.565C478.97 237.726 477.631 236.211 475.887 235.911V235.922ZM503.833 198.417C504.318 196.925 505.923 196.104 507.412 196.59C508.902 197.076 509.722 198.683 509.237 200.175C508.752 201.667 507.147 202.488 505.657 202.002C504.918 201.759 505.288 201.887 505.657 202.002C504.167 201.517 503.348 199.909 503.833 198.417ZM475.263 242.41C473.693 242.41 472.422 241.138 472.422 239.565C472.422 237.992 473.693 236.732 475.252 236.72C476.811 236.72 478.081 237.992 478.081 239.565C478.081 241.138 476.811 242.41 475.24 242.41H475.263Z" fill="#B0FFFF"/>
<path d="M490.76 224.369C490.703 224.415 490.633 224.461 490.576 224.508C490.633 224.461 490.68 224.427 490.76 224.369Z" fill="#B0FFFF"/>
<path d="M490.575 224.508C490.495 224.566 490.437 224.623 490.391 224.647C490.437 224.612 490.506 224.554 490.575 224.508Z" fill="#B0FFFF"/>
<path d="M490.391 224.658C490.391 224.658 490.356 224.682 490.345 224.693C490.356 224.693 490.368 224.67 490.391 224.658Z" fill="#B0FFFF"/>
<path d="M491.141 224.068C491.234 223.999 491.257 223.976 491.141 224.068V224.068Z" fill="#B0FFFF"/>
<path d="M490.76 224.369C490.957 224.219 491.072 224.126 491.141 224.068C491.049 224.138 490.91 224.253 490.76 224.369Z" fill="#B0FFFF"/>
<path d="M490.345 224.693C490.275 224.751 490.287 224.74 490.345 224.693V224.693Z" fill="#B0FFFF"/>
<path d="M519.307 247.615L544.573 228.96L520.323 211H500.853L491.026 218.667L491.407 219.153C490.148 217.546 487.816 217.256 486.21 218.506C484.594 219.766 484.305 222.102 485.564 223.721C486.823 225.34 489.155 225.63 490.772 224.369C492.389 223.108 492.677 220.772 491.419 219.165L491.8 219.65L501.292 212.249H519.93L542.495 228.96L518.579 246.62C517.297 245.382 515.288 245.209 513.81 246.296C512.158 247.51 511.812 249.847 513.025 251.489C514.237 253.143 516.57 253.49 518.21 252.275C519.688 251.188 520.115 249.21 519.307 247.615ZM487.019 218.98C487.019 218.98 486.961 219.026 486.926 219.049C486.973 219.014 486.996 218.991 487.019 218.98ZM490.229 223.687C488.993 224.647 487.204 224.427 486.245 223.189C485.287 221.952 485.506 220.159 486.742 219.199C486.672 219.257 486.615 219.304 486.557 219.35C486.603 219.315 486.672 219.257 486.742 219.199C487.977 218.24 489.767 218.459 490.726 219.697C491.684 220.934 491.465 222.727 490.229 223.687ZM486.441 219.442C486.441 219.442 486.453 219.442 486.465 219.431C486.465 219.431 486.453 219.431 486.441 219.442ZM517.805 251.489C517.805 251.489 517.863 251.442 517.886 251.431C517.863 251.442 517.828 251.477 517.805 251.489ZM517.701 251.57C516.443 252.495 514.664 252.229 513.729 250.968C512.805 249.708 513.071 247.927 514.329 246.99C515.588 246.065 517.367 246.331 518.302 247.591C519.226 248.852 518.96 250.633 517.701 251.57Z" fill="#B0FFFF"/>
<path d="M514.052 246.111C514.295 245.938 514.41 245.845 514.052 246.111V246.111Z" fill="#B0FFFF"/>
<path d="M513.798 246.285C513.902 246.215 513.983 246.146 514.041 246.1C513.96 246.157 513.879 246.215 513.798 246.285Z" fill="#B0FFFF"/>
<path d="M513.798 246.285C512.978 246.897 513.383 246.585 513.798 246.285V246.285Z" fill="#B0FFFF"/>
<path d="M522.298 222.809C522.379 222.75 522.426 222.715 522.449 222.692C522.414 222.715 522.356 222.762 522.298 222.809Z" fill="#B0FFFF"/>
<path d="M521.814 223.189C521.814 223.189 521.709 223.271 521.662 223.306C521.697 223.283 521.744 223.248 521.814 223.189Z" fill="#B0FFFF"/>
<path d="M521.662 223.293C521.524 223.397 521.558 223.374 521.662 223.293V223.293Z" fill="#B0FFFF"/>
<path d="M504.514 236.444C504.514 236.444 504.619 236.362 504.665 236.327C504.63 236.35 504.584 236.386 504.514 236.444Z" fill="#B0FFFF"/>
<path d="M504.017 236.824C504.087 236.767 504.167 236.709 504.283 236.628C504.375 236.558 504.445 236.501 504.514 236.454C504.364 236.57 504.167 236.72 504.029 236.824H504.017Z" fill="#B0FFFF"/>
<path d="M504.652 236.339C504.756 236.258 504.791 236.235 504.652 236.339V236.339Z" fill="#B0FFFF"/>
<path d="M508.787 242.514C510.242 241.404 510.634 239.415 509.803 237.842L521.72 228.706L521.339 228.209C522.586 229.839 524.919 230.14 526.536 228.902C528.164 227.653 528.464 225.317 527.229 223.698C525.981 222.068 523.649 221.767 522.032 223.004C522.124 222.935 522.217 222.865 522.298 222.808C522.228 222.865 522.148 222.923 522.032 223.004C521.94 223.074 521.87 223.131 521.801 223.178C521.87 223.12 521.951 223.062 522.032 223.004C520.404 224.253 520.104 226.578 521.339 228.209L520.958 227.711L509.041 236.848C507.747 235.633 505.727 235.494 504.272 236.616C502.643 237.865 502.343 240.201 503.579 241.82C504.814 243.44 507.158 243.752 508.775 242.514H508.787ZM522.563 223.698C523.81 222.75 525.589 222.981 526.547 224.23C527.494 225.479 527.263 227.26 526.016 228.22C524.769 229.168 522.991 228.937 522.032 227.688C521.074 226.439 521.316 224.658 522.563 223.698ZM526.236 228.047C526.236 228.047 526.236 228.047 526.224 228.047C526.224 228.047 526.224 228.047 526.236 228.047ZM525.693 228.463C525.693 228.463 525.716 228.44 525.727 228.428C525.716 228.44 525.693 228.451 525.693 228.463ZM504.272 241.3C503.325 240.051 503.556 238.27 504.803 237.31C506.05 236.362 507.828 236.593 508.775 237.842C509.722 239.091 509.491 240.872 508.244 241.832C508.383 241.728 508.51 241.635 508.567 241.589C508.521 241.624 508.429 241.693 508.244 241.832C508.117 241.925 508.036 241.994 507.978 242.029C508.048 241.971 508.14 241.901 508.244 241.832C506.997 242.78 505.218 242.549 504.26 241.3H504.272Z" fill="#B0FFFF"/>
<path d="M504.019 236.824C503.937 236.883 503.891 236.918 503.867 236.941C503.902 236.918 503.96 236.871 504.019 236.824Z" fill="#B0FFFF"/>
<path d="M507.424 228.671C508.729 229.885 510.738 230.024 512.193 228.902C513.821 227.653 514.122 225.317 512.886 223.698C511.639 222.068 509.306 221.767 507.689 223.004C506.234 224.115 505.842 226.104 506.673 227.677L494.71 236.848C493.405 235.633 491.395 235.494 489.94 236.616C488.312 237.865 488.012 240.201 489.248 241.82C490.483 243.44 492.827 243.752 494.444 242.514C495.899 241.404 496.292 239.415 495.46 237.842L507.424 228.671ZM508.221 223.698C509.468 222.75 511.246 222.981 512.193 224.23C513.14 225.479 512.909 227.26 511.662 228.22C511.743 228.162 511.824 228.093 511.893 228.047C511.835 228.093 511.766 228.139 511.662 228.22C510.415 229.168 508.636 228.937 507.689 227.688C506.743 226.439 506.973 224.658 508.221 223.698ZM511.442 228.382C511.246 228.532 511.304 228.486 511.442 228.382V228.382ZM493.913 241.82C494.063 241.705 494.202 241.601 494.248 241.566C494.213 241.589 494.121 241.67 493.913 241.82C493.601 242.063 493.289 242.295 493.913 241.82C492.666 242.769 490.887 242.537 489.929 241.288C488.982 240.039 489.213 238.258 490.46 237.299C491.707 236.35 493.486 236.582 494.444 237.831C495.391 239.08 495.16 240.861 493.913 241.82Z" fill="#B0FFFF"/>
<path d="M507.678 223.016C507.909 222.842 508.036 222.738 508.094 222.692C508.013 222.75 507.851 222.877 507.678 223.016Z" fill="#B0FFFF"/>
<path d="M507.678 223.016C507.493 223.166 507.308 223.305 507.239 223.351C507.285 223.317 507.412 223.212 507.678 223.016Z" fill="#B0FFFF"/>
<path d="M490.148 236.444C490.148 236.444 490.253 236.362 490.3 236.327C490.265 236.35 490.218 236.386 490.148 236.444Z" fill="#B0FFFF"/>
<path d="M489.663 236.824C489.732 236.767 489.813 236.709 489.929 236.628C490.021 236.558 490.09 236.501 490.16 236.454C490.01 236.57 489.813 236.72 489.675 236.824H489.663Z" fill="#B0FFFF"/>
<path d="M489.665 236.824C489.583 236.883 489.537 236.918 489.513 236.941C489.548 236.918 489.607 236.871 489.665 236.824Z" fill="#B0FFFF"/>
<path d="M490.299 236.339C490.403 236.258 490.437 236.235 490.299 236.339V236.339Z" fill="#B0FFFF"/>
<defs>
<linearGradient id="paint0_linear_1367_7587" x1="397.454" y1="180.283" x2="542.749" y2="180.283" gradientUnits="userSpaceOnUse">
<stop stop-color="#3DDEED"/>
<stop offset="1" stop-color="#3DDEED" stop-opacity="0"/>
</linearGradient>
<linearGradient id="paint1_linear_1367_7587" x1="486.141" y1="239.565" x2="577.334" y2="239.565" gradientUnits="userSpaceOnUse">
<stop stop-color="#3DDEED"/>
<stop offset="1" stop-color="#3DDEED" stop-opacity="0"/>
</linearGradient>
<linearGradient id="paint2_linear_1367_7587" x1="521.235" y1="173.529" x2="597.358" y2="173.529" gradientUnits="userSpaceOnUse">
<stop stop-color="#3DDEED"/>
<stop offset="1" stop-color="#3DDEED" stop-opacity="0"/>
</linearGradient>
<linearGradient id="paint3_linear_1367_7587" x1="455.967" y1="232.557" x2="531.27" y2="232.557" gradientUnits="userSpaceOnUse">
<stop stop-color="#3DDEED"/>
<stop offset="1" stop-color="#3DDEED" stop-opacity="0"/>
</linearGradient>
</defs>
</svg>
