<svg width="622" height="351" viewBox="0 0 622 351" fill="none" xmlns="http://www.w3.org/2000/svg">
<path d="M78.8381 105.921V254.496H202.643C210.795 244.874 215.368 239.473 223.521 229.851L223.821 111.958" stroke="url(#paint0_linear_325_7304)" stroke-width="0.27" stroke-miterlimit="10"/>
<path opacity="0.04" d="M71.7015 317.987H135.076V161.155H44.31V290.555C55.0033 301.264 61.0082 307.278 71.7015 317.987Z" stroke="url(#paint1_linear_325_7304)" stroke-width="0.36" stroke-miterlimit="10"/>
<path opacity="0.1" d="M24.4939 90.2733H99.7742V256.785H24.4939V90.2733Z" stroke="url(#paint2_linear_325_7304)" stroke-width="0.73" stroke-miterlimit="10"/>
<path opacity="0.8" d="M165.216 175.461V272.063C159.465 278.84 156.243 282.645 150.504 289.422H90.1547" stroke="url(#paint3_linear_325_7304)" stroke-width="0.41" stroke-miterlimit="10"/>
<path d="M75.2812 280.424C75.2812 280.424 75.1195 280.309 74.9809 280.205C75.1542 280.32 75.2465 280.39 75.2812 280.424Z" fill="#B0FFFF"/>
<path d="M74.3802 279.765C74.3802 279.765 74.5419 279.881 74.6805 279.985C74.5073 279.858 74.4149 279.8 74.3802 279.765Z" fill="#B0FFFF"/>
<path d="M74.831 280.1C76.4823 281.303 76.8634 283.628 75.6624 285.282L76.0204 284.784L91.5638 296.037V343.488C93.3075 343.789 94.647 345.304 94.647 347.143C94.647 349.19 92.9842 350.855 90.9402 350.855C88.8962 350.855 87.2333 349.19 87.2333 347.143C87.2333 345.304 88.5729 343.789 90.3166 343.488V296.673L75.2929 285.79L75.6508 285.293C74.4499 286.947 72.1287 287.329 70.4774 286.126C68.8261 284.923 68.445 282.599 69.646 280.945C70.8469 279.291 73.1681 278.909 74.8194 280.112L74.831 280.1ZM88.111 347.143C88.111 348.715 89.3812 349.987 90.9517 349.987C92.5223 349.987 93.7925 348.715 93.7925 347.143C93.7925 345.57 92.5223 344.298 90.9517 344.298C89.3812 344.298 88.111 345.57 88.111 347.143ZM70.9971 285.409C72.2673 286.322 74.0457 286.045 74.958 284.773C75.8703 283.501 75.5931 281.72 74.3229 280.806C73.0526 279.892 71.2742 280.17 70.3619 281.442C69.4496 282.714 69.7268 284.495 70.9971 285.409ZM70.6853 285.177C70.6853 285.177 70.7083 285.189 70.7199 285.201C70.7199 285.201 70.6968 285.189 70.6853 285.177ZM71.2858 285.605C71.2858 285.605 71.228 285.559 71.1818 285.536C71.228 285.571 71.2511 285.594 71.2858 285.605Z" fill="#B0FFFF"/>
<path d="M121.6 254.553C123.644 254.553 125.307 256.219 125.307 258.266C125.307 260.105 123.967 261.62 122.223 261.92V288.092C123.967 288.393 125.307 289.908 125.307 291.746C125.307 293.793 123.644 295.459 121.6 295.459C119.556 295.459 117.893 293.793 117.893 291.746C117.893 289.908 119.232 288.393 120.976 288.092V261.92C119.232 261.62 117.893 260.105 117.893 258.266C117.893 256.219 119.556 254.553 121.6 254.553ZM118.759 291.746C118.759 293.319 120.029 294.591 121.6 294.591C123.17 294.591 124.44 293.319 124.44 291.746C124.44 290.174 123.17 288.901 121.6 288.901C120.029 288.901 118.759 290.174 118.759 291.746ZM121.6 261.111C123.17 261.111 124.44 259.839 124.44 258.266C124.44 256.693 123.17 255.421 121.6 255.421C120.029 255.421 118.759 256.693 118.759 258.266C118.759 259.839 120.029 261.111 121.6 261.111Z" fill="#B0FFFF"/>
<path d="M66.3087 236.316C66.216 236.246 66.1928 236.235 66.3087 236.316V236.316Z" fill="#B0FFFF"/>
<path d="M67.1152 236.928C67.1985 236.988 67.1866 236.976 67.1152 236.928V236.928Z" fill="#B0FFFF"/>
<path d="M66.4933 236.454C66.4125 236.396 66.3548 236.35 66.3086 236.316C66.3548 236.35 66.4241 236.396 66.4933 236.454Z" fill="#B0FFFF"/>
<path d="M66.7011 236.616C66.6318 236.558 66.5625 236.512 66.4932 236.454C66.551 236.501 66.6203 236.547 66.7011 236.616C66.7935 236.686 66.8628 236.743 66.9205 236.79C66.8512 236.732 66.7819 236.674 66.7011 236.616C68.1561 237.726 68.5487 239.716 67.7288 241.289L101.691 267.206L101.934 267.391V314.923H100.686V268.004L66.9667 242.272C65.6733 243.486 63.6525 243.625 62.1974 242.514C60.5692 241.277 60.2574 238.941 61.493 237.31C62.7286 235.679 65.0613 235.367 66.6895 236.605L66.7011 236.616ZM62.7286 241.832C62.6247 241.763 62.5323 241.682 62.463 241.635C62.5208 241.682 62.6016 241.74 62.7286 241.832C62.7979 241.89 62.8557 241.925 62.9019 241.959C62.8441 241.925 62.7979 241.878 62.7286 241.832C63.9758 242.78 65.7542 242.538 66.7011 241.289C67.648 240.039 67.4055 238.258 66.1699 237.31C64.9227 236.362 63.1444 236.605 62.1974 237.842C61.2505 239.091 61.493 240.872 62.7286 241.82V241.832ZM63.0635 242.098C63.0635 242.098 63.0058 242.052 62.9481 242.006C63.0058 242.052 63.0404 242.075 63.0635 242.098Z" fill="#B0FFFF"/>
<path d="M66.9207 236.79C67.0015 236.848 67.0593 236.894 67.1055 236.928C67.0708 236.894 67.0015 236.848 66.9207 236.79Z" fill="#B0FFFF"/>
<path d="M101.31 314.934C103.354 314.934 105.017 316.599 105.017 318.646C105.017 320.693 103.354 322.359 101.31 322.359C99.2662 322.359 97.6033 320.693 97.6033 318.646C97.6033 316.599 99.2662 314.934 101.31 314.934ZM101.31 321.491C102.881 321.491 104.151 320.219 104.151 318.646C104.151 317.074 102.881 315.801 101.31 315.801C99.7397 315.801 98.4694 317.074 98.4694 318.646C98.4694 320.219 99.7397 321.491 101.31 321.491Z" fill="#B0FFFF"/>
<path d="M107.916 281.419C107.916 279.372 109.578 277.707 111.622 277.707C113.666 277.707 115.329 279.372 115.329 281.419C115.329 283.258 113.99 284.773 112.246 285.073V328.708C113.99 329.009 115.329 330.524 115.329 332.363C115.329 334.41 113.666 336.075 111.622 336.075C109.578 336.075 107.916 334.41 107.916 332.363C107.916 330.524 109.255 329.009 110.999 328.708V285.073C109.255 284.773 107.916 283.258 107.916 281.419ZM114.463 281.419C114.463 279.846 113.193 278.574 111.622 278.574C110.052 278.574 108.782 279.846 108.782 281.419C108.782 282.992 110.052 284.264 111.622 284.264C113.193 284.264 114.463 282.992 114.463 281.419ZM108.782 332.363C108.782 333.935 110.052 335.207 111.622 335.207C113.193 335.207 114.463 333.935 114.463 332.363C114.463 330.79 113.193 329.518 111.622 329.518C110.052 329.518 108.782 330.79 108.782 332.363Z" fill="#B0FFFF"/>
<path d="M278.327 170.488C279.02 169.736 278.673 170.106 278.327 170.488V170.488Z" fill="#B0FFFF"/>
<path d="M278.015 170.835C278.073 170.765 278.177 170.661 278.327 170.488C278.2 170.615 278.085 170.754 278.015 170.835Z" fill="#B0FFFF"/>
<path d="M278.015 170.835C277.922 170.94 277.898 170.963 278.015 170.835V170.835Z" fill="#B0FFFF"/>
<path d="M273.096 170.719C271.583 169.331 271.491 166.984 272.865 165.469C274.251 163.954 276.595 163.861 278.108 165.237C279.62 166.625 279.713 168.973 278.339 170.488C276.953 172.003 274.609 172.095 273.096 170.719ZM277.519 165.885C276.364 164.821 274.562 164.902 273.512 166.058C273.604 165.954 273.696 165.85 273.754 165.792C273.708 165.839 273.627 165.931 273.512 166.058C272.449 167.215 272.53 169.019 273.685 170.072C274.84 171.135 276.641 171.055 277.692 169.898C278.754 168.742 278.674 166.937 277.519 165.885ZM273.269 166.324C273.2 166.394 273.188 166.417 273.269 166.324V166.324Z" fill="#B0FFFF"/>
<path d="M191.764 186.991C193.589 186.898 195.171 188.159 195.564 189.894L204.12 189.466L216.072 196.046H249.065L272.634 170.291L273.546 171.135L249.607 197.295H215.749L203.832 190.727L195.633 191.131C195.425 192.889 193.97 194.312 192.145 194.404C192.353 194.404 192.561 194.381 192.665 194.381C192.584 194.381 192.423 194.393 192.145 194.404C192.145 194.404 192.134 194.404 192.122 194.404C192.122 194.404 192.134 194.404 192.145 194.404C190.101 194.508 188.358 192.924 188.254 190.877C188.15 188.83 189.732 187.084 191.776 186.979L191.764 186.991ZM192.088 193.537C193.647 193.456 194.859 192.126 194.778 190.565C194.697 188.992 193.369 187.789 191.799 187.87C192.584 187.835 192.192 187.847 191.799 187.87C191.626 187.87 191.51 187.882 191.441 187.893C191.522 187.893 191.66 187.893 191.799 187.87C190.24 187.951 189.027 189.281 189.108 190.854C189.189 192.415 190.517 193.629 192.088 193.548V193.537Z" fill="#B0FFFF"/>
<path d="M192.111 194.404C191.903 194.404 191.718 194.427 191.614 194.427C191.695 194.427 191.845 194.416 192.111 194.404Z" fill="#B0FFFF"/>
<path d="M69.2532 264.083C69.2532 264.083 69.1724 264.037 69.1608 264.014C69.1839 264.025 69.2185 264.048 69.2532 264.083Z" fill="#B0FFFF"/>
<path d="M73.699 258.115C75.2348 259.122 75.7545 261.076 75.0501 262.707L92.5797 274.249V278.4C94.3234 278.701 95.663 280.216 95.663 282.055C95.663 284.102 94.0001 285.767 91.9561 285.767C89.9121 285.767 88.2493 284.102 88.2493 282.055C88.2493 280.216 89.5888 278.701 91.3325 278.4V274.919L74.3687 263.748C73.1562 265.043 71.1584 265.332 69.6226 264.326C67.9135 263.204 67.44 260.891 68.5602 259.179C69.6803 257.468 71.9899 256.994 73.699 258.115ZM89.1154 282.055C89.1154 283.628 90.3856 284.9 91.9561 284.9C93.5266 284.9 94.7969 283.628 94.7969 282.055C94.7969 280.482 93.5266 279.21 91.9561 279.21C90.3856 279.21 89.1154 280.482 89.1154 282.055ZM70.0961 263.586C71.401 264.442 73.1678 264.083 74.0223 262.776C74.8769 261.469 74.5189 259.7 73.2139 258.844C71.909 257.988 70.1422 258.347 69.2877 259.654C68.4331 260.96 68.7911 262.73 70.0961 263.586Z" fill="#B0FFFF"/>
<path d="M69.9806 264.569C69.9806 264.569 70.0614 264.615 70.073 264.638C70.0499 264.627 70.0153 264.603 69.9806 264.569Z" fill="#B0FFFF"/>
<path d="M69.6228 264.326C69.7613 264.418 69.8884 264.499 69.9923 264.569C69.9115 264.522 69.8075 264.442 69.6228 264.326Z" fill="#B0FFFF"/>
<path d="M69.6229 264.326C69.4843 264.233 69.3573 264.152 69.2533 264.083C69.3342 264.129 69.4381 264.21 69.6229 264.326Z" fill="#B0FFFF"/>
<path d="M15.8211 200.753C15.8211 200.499 15.8327 200.256 15.8327 200.187C15.8327 200.233 15.8327 200.395 15.8211 200.753Z" fill="#B0FFFF"/>
<path d="M19.621 197.133C21.665 197.18 23.2817 198.891 23.2355 200.938C23.1893 202.754 21.8497 204.223 20.1291 204.5L19.5748 223.906L44.8646 248.644H52.9019C53.2021 246.897 54.7149 245.556 56.551 245.556C58.595 245.556 60.2579 247.221 60.2579 249.268C60.2579 251.315 58.595 252.981 56.551 252.981C54.7149 252.981 53.2021 251.639 52.9019 249.893H44.3565L18.5125 224.612L18.3161 224.427L18.8819 204.489C17.1035 204.177 15.7756 202.615 15.8218 200.753C15.868 198.706 17.577 197.087 19.621 197.133ZM56.5395 252.113C58.11 252.113 59.3803 250.841 59.3803 249.268C59.3803 247.695 58.11 246.423 56.5395 246.423C54.969 246.423 53.6987 247.695 53.6987 249.268C53.6987 250.841 54.969 252.113 56.5395 252.113ZM19.4247 203.679H19.4709C21.0298 203.714 22.3232 202.476 22.3578 200.915C22.3578 200.996 22.3578 201.066 22.3578 201.135C22.3578 201.077 22.3578 201.008 22.3578 200.915C22.3925 199.342 21.1569 198.047 19.5979 198.001C18.0274 197.966 16.7341 199.204 16.6879 200.776C16.6532 202.338 17.8773 203.633 19.4363 203.691L19.4247 203.679ZM22.3578 200.695C22.3578 200.325 22.3578 200.453 22.3578 200.695V200.695Z" fill="#B0FFFF"/>
<path d="M15.8213 200.753C15.8097 201.262 15.7982 201.771 15.8213 200.753V200.753Z" fill="#B0FFFF"/>
<path d="M82.6487 203.783C82.7873 203.668 82.7526 203.691 82.6487 203.783V203.783Z" fill="#B0FFFF"/>
<path d="M87.2334 209.647C85.709 211.011 83.3533 210.873 82.0022 209.335C80.6395 207.808 80.7781 205.449 82.314 204.096C81.9329 204.431 81.5518 204.778 82.314 204.096C82.4872 203.945 82.5911 203.853 82.6604 203.783C82.5796 203.864 82.4525 203.968 82.314 204.096C83.8383 202.731 86.194 202.87 87.5451 204.408L87.1294 203.945L106.83 186.401V163.19L95.8827 154.17H52.0009C51.7006 155.916 50.1879 157.258 48.3517 157.258C46.3078 157.258 44.6449 155.592 44.6449 153.545C44.6449 151.498 46.3078 149.833 48.3517 149.833C50.1879 149.833 51.7006 151.174 52.0009 152.921H96.3331L108.077 162.589V186.945L87.9609 204.859L87.5451 204.396C88.9078 205.923 88.7692 208.282 87.2334 209.635V209.647ZM48.3633 150.7C46.7928 150.7 45.5225 151.972 45.5225 153.545C45.5225 155.118 46.7928 156.39 48.3633 156.39C49.9338 156.39 51.1925 155.118 51.2041 153.557C51.2041 151.984 49.9338 150.712 48.3633 150.712V150.7ZM86.4366 209.196C86.3095 209.3 86.2749 209.346 86.4366 209.196V209.196ZM86.9909 208.698C86.9909 208.698 86.9331 208.745 86.8985 208.779C86.9447 208.733 86.9793 208.698 86.9909 208.698ZM82.8914 204.743C81.725 205.784 81.6211 207.588 82.6604 208.756C83.6997 209.924 85.5012 210.028 86.6675 208.988C87.8339 207.947 87.9378 206.143 86.8985 204.975C85.8592 203.806 84.0577 203.702 82.8914 204.743Z" fill="#B0FFFF"/>
<path d="M21.2143 161.398C21.2721 161.34 21.3875 161.224 21.5607 161.051C21.734 160.877 21.8495 160.762 21.9072 160.704C21.7571 160.854 21.3644 161.247 21.2028 161.409L21.2143 161.398Z" fill="#B0FFFF"/>
<path d="M21.9177 160.693C22.0115 160.599 21.9998 160.611 21.9177 160.693V160.693Z" fill="#B0FFFF"/>
<path d="M21.2142 161.398C21.1321 161.48 21.1086 161.503 21.2142 161.398V161.398Z" fill="#B0FFFF"/>
<path d="M3.10706 200.8V173.414L15.9367 160.565C14.9089 159.119 15.036 157.096 16.3294 155.8C17.7728 154.355 20.1286 154.355 21.5721 155.8C23.0155 157.246 23.0155 159.605 21.5721 161.051C20.2787 162.346 18.2578 162.473 16.8143 161.444L4.35424 173.923V200.8C6.09797 201.1 7.4375 202.615 7.4375 204.454C7.4375 206.501 5.77458 208.166 3.73062 208.166C1.68665 208.166 0.0238018 206.501 0.0238018 204.454C0.0238018 202.615 1.36333 201.1 3.10706 200.8ZM20.9601 160.438C22.0686 159.328 22.0686 157.524 20.9601 156.413C19.8515 155.303 18.0499 155.303 16.9414 156.413C16.976 156.379 17.0107 156.344 17.0453 156.309C17.0107 156.344 16.9875 156.367 16.9414 156.413C16.8605 156.494 16.7913 156.564 16.7451 156.61L16.9414 156.413C15.8328 157.524 15.8328 159.328 16.9414 160.426C18.0499 161.537 19.8514 161.537 20.9485 160.426L20.9601 160.438ZM3.73062 207.299C5.30112 207.299 6.57141 206.027 6.57141 204.454C6.57141 202.881 5.30113 201.609 3.74217 201.609C2.18321 201.609 0.912937 202.881 0.912937 204.454C0.912937 206.027 2.18323 207.299 3.75373 207.299H3.73062Z" fill="#B0FFFF"/>
<path d="M167.352 47.5639H111.091C110.791 49.3102 109.278 50.6517 107.442 50.6517C105.398 50.6517 103.735 48.9864 103.735 46.9394C103.735 44.8924 105.398 43.2271 107.442 43.2271C109.278 43.2271 110.791 44.5686 111.091 46.3149H167.779L182.353 57.8914L181.579 58.8629L167.341 47.5523L167.352 47.5639ZM107.453 44.0944C105.883 44.0944 104.613 45.3666 104.613 46.9394C104.613 48.5122 105.883 49.7844 107.453 49.7844C109.024 49.7844 110.294 48.5122 110.294 46.9394C110.294 45.3666 109.024 44.0944 107.453 44.0944Z" fill="#B0FFFF"/>
<path d="M182.572 63.593C182.491 63.5236 182.411 63.4658 182.341 63.4079C182.399 63.4542 182.48 63.512 182.572 63.593Z" fill="#B0FFFF"/>
<path d="M182.341 63.4079C182.099 63.2229 181.972 63.1188 182.341 63.4079V63.4079Z" fill="#B0FFFF"/>
<path d="M182.572 63.593C182.699 63.697 182.838 63.8011 182.919 63.8705C182.849 63.8127 182.734 63.7317 182.572 63.593Z" fill="#B0FFFF"/>
<path d="M182.918 63.8705C183.081 63.9989 183.046 63.9639 182.918 63.8705V63.8705Z" fill="#B0FFFF"/>
<path d="M182.572 63.593C180.967 62.3208 180.701 59.9847 181.972 58.3772C183.242 56.7696 185.575 56.5037 187.18 57.7758C188.785 59.0479 189.051 61.3841 187.78 62.9916C186.51 64.5991 184.177 64.8651 182.572 63.593ZM186.637 58.4581C186.637 58.4581 186.706 58.516 186.741 58.5391C186.706 58.516 186.683 58.4928 186.637 58.4581C186.522 58.3656 186.452 58.3193 186.395 58.2731C186.464 58.3309 186.545 58.3887 186.637 58.4581C185.413 57.4867 183.623 57.6948 182.653 58.9207C181.683 60.1466 181.891 61.9392 183.115 62.9106C184.339 63.8821 186.129 63.6739 187.099 62.448C188.069 61.2222 187.861 59.4296 186.637 58.4581ZM186.833 58.6085C187.076 58.8051 186.995 58.7357 186.833 58.6085V58.6085ZM186.337 58.2153C186.279 58.169 186.256 58.1574 186.337 58.2153V58.2153Z" fill="#B0FFFF"/>
<path d="M258.892 168.302C257.449 166.856 257.449 164.497 258.892 163.052C260.335 161.606 262.691 161.606 264.135 163.052C265.578 164.497 265.578 166.856 264.135 168.302C262.691 169.748 260.335 169.748 258.892 168.302ZM263.523 163.665C262.414 162.554 260.613 162.554 259.504 163.665C258.395 164.775 258.395 166.579 259.504 167.689C260.613 168.799 262.414 168.799 263.523 167.689C264.631 166.579 264.631 164.775 263.523 163.665Z" fill="#B0FFFF"/>
<path d="M244.249 188.217C244.167 188.299 244.155 188.311 244.249 188.217V188.217Z" fill="#B0FFFF"/>
<path d="M239.365 187.858C237.921 186.413 237.921 184.054 239.365 182.608C240.658 181.313 242.679 181.185 244.122 182.215L258.453 167.863L259.331 168.742L245 183.094C246.028 184.539 245.901 186.563 244.607 187.858C244.746 187.72 244.873 187.592 244.954 187.511C244.896 187.569 244.781 187.685 244.607 187.858L244.261 188.205C244.342 188.124 244.48 187.986 244.607 187.858C243.164 189.304 240.808 189.304 239.365 187.858ZM243.995 183.221C242.887 182.111 241.085 182.111 239.988 183.221C238.88 184.331 238.88 186.135 239.988 187.245C241.097 188.356 242.898 188.356 244.007 187.245C245.115 186.135 245.115 184.331 244.007 183.232L243.995 183.221Z" fill="#B0FFFF"/>
<path d="M251.188 163.145C251.294 163.04 251.27 163.063 251.188 163.145V163.145Z" fill="#B0FFFF"/>
<path d="M250.485 163.85C250.403 163.932 250.38 163.955 250.485 163.85V163.85Z" fill="#B0FFFF"/>
<path d="M221.2 187.939C219.756 186.494 219.756 184.134 221.2 182.689C222.493 181.394 224.514 181.266 225.957 182.296L245.208 163.017C244.18 161.571 244.307 159.547 245.6 158.252C247.044 156.807 249.4 156.807 250.843 158.252C252.287 159.698 252.287 162.057 250.843 163.503C249.55 164.798 247.529 164.925 246.085 163.896L226.835 183.175C227.863 184.62 227.736 186.644 226.442 187.939C224.999 189.385 222.643 189.385 221.2 187.939ZM246.316 158.761C246.663 158.414 246.524 158.553 246.316 158.761V158.761ZM250.231 162.878C251.34 161.768 251.34 159.964 250.231 158.854C249.122 157.743 247.321 157.743 246.212 158.854C245.104 159.964 245.104 161.768 246.212 162.878C247.321 163.988 249.122 163.988 250.231 162.878ZM225.83 183.302C224.722 182.192 222.92 182.192 221.823 183.302C220.715 184.412 220.715 186.216 221.823 187.326C222.932 188.437 224.733 188.437 225.842 187.326C226.951 186.216 226.951 184.412 225.842 183.313L225.83 183.302Z" fill="#B0FFFF"/>
<path d="M145.723 197.122L145.538 196.937V180.815H172.872C173.172 179.069 174.685 177.727 176.521 177.727C178.565 177.727 180.228 179.393 180.228 181.44C180.228 183.487 178.565 185.152 176.521 185.152C174.685 185.152 173.172 183.811 172.872 182.064H146.786V196.428L168.749 218.425C170.193 217.395 172.214 217.522 173.507 218.818C174.951 220.263 174.951 222.623 173.507 224.068C172.064 225.514 169.708 225.514 168.264 224.068C166.971 222.773 166.844 220.749 167.872 219.304L145.723 197.122ZM176.521 184.285C178.092 184.285 179.362 183.013 179.362 181.44C179.362 179.867 178.092 178.595 176.521 178.595C174.951 178.595 173.68 179.867 173.68 181.428C173.68 183.001 174.951 184.273 176.521 184.273V184.285ZM168.888 223.455C169.997 224.566 171.798 224.566 172.907 223.455C174.015 222.345 174.015 220.541 172.907 219.431C171.798 218.32 169.997 218.32 168.9 219.431C167.791 220.541 167.791 222.345 168.9 223.455H168.888Z" fill="#B0FFFF"/>
<path d="M11.329 179.069C13.373 179.069 15.0359 180.734 15.0359 182.781C15.0359 184.62 13.6963 186.135 11.9526 186.436V212.156C13.6963 212.457 15.0359 213.972 15.0359 215.811C15.0359 217.858 13.373 219.523 11.329 219.523C9.28504 219.523 7.62212 217.858 7.62212 215.811C7.62212 213.972 8.96172 212.457 10.7054 212.156V186.436C8.96172 186.135 7.62212 184.62 7.62212 182.781C7.62212 180.734 9.28504 179.069 11.329 179.069ZM8.48821 215.799C8.48821 217.372 9.7585 218.644 11.329 218.644C12.8995 218.644 14.1698 217.372 14.1698 215.799C14.1698 214.226 12.8995 212.954 11.329 212.954C9.7585 212.954 8.48821 214.226 8.48821 215.799ZM11.3174 185.626C12.8764 185.626 14.1467 184.354 14.1467 182.781C14.1467 181.209 12.8764 179.936 11.3059 179.936C9.73538 179.936 8.46516 181.209 8.46516 182.781C8.46516 184.354 9.73544 185.615 11.2944 185.626H11.3174Z" fill="#B0FFFF"/>
<path d="M43.4089 95.1884C41.3649 95.1884 39.7021 93.523 39.7021 91.4761V92.1006H20.4403L12.4722 104.614V141.957H34.1476L44.8755 127.455C43.6514 126.171 43.4782 124.159 44.5637 122.678C45.7762 121.036 48.1089 120.689 49.7487 121.903C51.3885 123.118 51.7349 125.454 50.5224 127.096C49.4369 128.565 47.4507 128.993 45.8686 128.195L34.7711 143.206H11.2251V104.255L19.7589 90.8631H39.7021V91.4876C39.7021 89.4406 41.3649 87.7753 43.4089 87.7753C45.4529 87.7753 47.1158 89.4406 47.1158 91.4876C47.1158 93.5346 45.4529 95.2 43.4089 95.2V95.1884ZM49.818 126.576C50.7534 125.315 50.4878 123.534 49.229 122.597C47.9703 121.661 46.1919 121.927 45.2566 123.187C44.3212 124.448 44.5868 126.229 45.8455 127.165C47.1042 128.102 48.8826 127.836 49.818 126.576ZM43.4089 88.6311C41.8384 88.6311 40.5682 89.9032 40.5682 91.4761C40.5682 93.0489 41.8384 94.321 43.4089 94.321C44.9794 94.321 46.2497 93.0489 46.2497 91.4761C46.2497 89.9032 44.9794 88.6311 43.4089 88.6311Z" fill="#B0FFFF"/>
<path d="M44.5637 122.667C44.6676 122.528 44.7716 122.389 44.8409 122.297C44.7831 122.366 44.7023 122.482 44.5637 122.667Z" fill="#B0FFFF"/>
<path d="M44.3791 122.91C44.3098 123.002 44.2636 123.06 44.2405 123.095C44.2752 123.048 44.3214 122.991 44.3791 122.91Z" fill="#B0FFFF"/>
<path d="M44.564 122.667C44.5063 122.748 44.4486 122.829 44.3908 122.898C44.437 122.829 44.4947 122.759 44.564 122.667Z" fill="#B0FFFF"/>
<path d="M44.8289 122.298C44.9341 122.146 44.9107 122.181 44.8289 122.298V122.298Z" fill="#B0FFFF"/>
<path d="M3.7194 120.03C5.76336 120.03 7.42621 121.695 7.42621 123.742C7.42621 125.581 6.08668 127.096 4.34295 127.397V146.398C6.08668 146.699 7.42621 148.214 7.42621 150.053C7.42621 152.1 5.76336 153.765 3.7194 153.765C1.67543 153.765 0.0125113 152.1 0.0125113 150.053C0.0125113 148.214 1.35204 146.699 3.09577 146.398V127.397C1.35204 127.096 0.0125113 125.581 0.0125113 123.742C0.0125113 121.695 1.67543 120.03 3.7194 120.03ZM0.8786 150.041C0.8786 151.614 2.14889 152.886 3.7194 152.886C5.2899 152.886 6.56012 151.614 6.56012 150.041C6.56012 148.468 5.2899 147.196 3.7194 147.196C2.16044 147.196 0.8786 148.468 0.8786 150.041ZM3.7194 126.587C5.2899 126.587 6.56012 125.315 6.56012 123.742C6.56012 122.169 5.2899 120.897 3.7194 120.897C2.14889 120.897 0.8786 122.169 0.8786 123.742C0.8786 125.315 2.14889 126.587 3.7194 126.587Z" fill="#B0FFFF"/>
<path d="M124.591 164.59C122.547 164.59 120.884 162.924 120.884 160.877C120.884 158.83 122.547 157.165 124.591 157.165C126.427 157.165 127.94 158.507 128.24 160.253H184.605L211.107 131.872V117.312L194.34 103.261C192.989 104.406 190.968 104.463 189.559 103.284C187.988 101.965 187.78 99.6178 189.097 98.0565C190.413 96.4837 192.758 96.2755 194.317 97.5939C195.725 98.7735 196.026 100.774 195.125 102.312L212.112 116.549L212.331 116.734V132.37L185.309 161.305L185.124 161.502H128.217C127.916 163.248 126.404 164.59 124.568 164.59H124.591ZM193.774 98.2647C193.878 98.3572 193.982 98.4382 194.051 98.496C193.993 98.4497 193.912 98.3803 193.774 98.2647C193.173 97.7674 193.474 98.0103 193.774 98.2647C192.573 97.2585 190.783 97.4204 189.778 98.6232C188.774 99.8259 188.935 101.619 190.136 102.625C191.337 103.631 193.127 103.469 194.132 102.278C195.136 101.075 194.975 99.2824 193.774 98.2762V98.2647ZM124.591 158.032C123.02 158.032 121.75 159.305 121.75 160.877C121.75 162.45 123.02 163.722 124.591 163.722C126.161 163.722 127.431 162.45 127.431 160.877C127.431 159.305 126.161 158.032 124.591 158.032Z" fill="#B0FFFF"/>
<path d="M189.57 103.284C189.639 103.342 189.686 103.388 189.743 103.423C189.686 103.376 189.628 103.33 189.57 103.284Z" fill="#B0FFFF"/>
<path d="M189.235 103.007C189.107 102.902 189.061 102.867 189.235 103.007V103.007Z" fill="#B0FFFF"/>
<path d="M189.57 103.284C189.443 103.18 189.328 103.076 189.235 103.006C189.305 103.064 189.409 103.145 189.57 103.284Z" fill="#B0FFFF"/>
<path d="M189.94 103.596C190.055 103.7 190.032 103.677 189.94 103.596V103.596Z" fill="#B0FFFF"/>
<path d="M172.872 123.129C173.172 121.383 174.685 120.042 176.521 120.042C178.565 120.042 180.228 121.707 180.228 123.754C180.228 125.801 178.565 127.466 176.521 127.466C174.685 127.466 173.172 126.125 172.872 124.378H128.193V142.824C129.937 143.125 131.277 144.64 131.277 146.479C131.277 148.526 129.614 150.191 127.57 150.191C125.526 150.191 123.863 148.526 123.863 146.479C123.863 144.64 125.203 143.125 126.946 142.824V123.141H172.861L172.872 123.129ZM176.521 126.599C178.092 126.599 179.362 125.327 179.362 123.754C179.362 122.181 178.092 120.909 176.521 120.909C174.951 120.909 173.68 122.181 173.68 123.742C173.68 125.315 174.951 126.587 176.521 126.587V126.599ZM124.741 146.467C124.741 148.04 126.011 149.312 127.581 149.312C129.152 149.312 130.422 148.04 130.422 146.467C130.422 144.895 129.152 143.622 127.581 143.622C126.011 143.622 124.741 144.895 124.741 146.467Z" fill="#B0FFFF"/>
<path d="M145.538 149.393V139.274H175.851C176.152 137.528 177.664 136.186 179.501 136.186C181.545 136.186 183.207 137.852 183.207 139.899C183.207 141.946 181.545 143.611 179.501 143.611C177.664 143.611 176.152 142.269 175.851 140.523H146.774V149.405C148.518 149.706 149.857 151.221 149.857 153.059C149.857 155.106 148.194 156.772 146.15 156.772C144.106 156.772 142.444 155.106 142.444 153.059C142.444 151.221 143.783 149.706 145.527 149.405L145.538 149.393ZM179.501 142.732C181.071 142.732 182.341 141.46 182.341 139.887C182.341 138.314 181.071 137.042 179.501 137.042C177.93 137.042 176.66 138.314 176.66 139.887C176.66 141.46 177.93 142.732 179.501 142.732ZM146.162 155.881C147.732 155.881 149.003 154.609 149.003 153.036C149.003 151.463 147.732 150.191 146.162 150.191C144.591 150.191 143.321 151.463 143.321 153.036C143.321 154.609 144.591 155.881 146.162 155.881Z" fill="#B0FFFF"/>
<path d="M265.162 154.158C264.862 155.904 263.349 157.246 261.513 157.246C259.469 157.246 257.806 155.581 257.806 153.534C257.806 151.487 259.469 149.821 261.513 149.821C263.349 149.821 264.862 151.163 265.162 152.909H287.473C287.773 151.163 289.286 149.821 291.122 149.821C293.166 149.821 294.829 151.487 294.829 153.534C294.829 155.581 293.166 157.246 291.122 157.246C289.286 157.246 287.773 155.904 287.473 154.158H265.162ZM261.513 150.689C259.943 150.689 258.672 151.961 258.672 153.534C258.672 155.106 259.943 156.379 261.513 156.379C263.084 156.379 264.354 155.106 264.354 153.534C264.354 151.961 263.084 150.689 261.513 150.689ZM291.122 156.367C292.692 156.367 293.963 155.095 293.963 153.522C293.963 151.949 292.692 150.677 291.122 150.677C289.551 150.677 288.281 151.949 288.281 153.522C288.281 155.095 289.551 156.367 291.122 156.367Z" fill="#B0FFFF"/>
<path d="M259.573 130.034V131.283H237.321C237.02 133.029 235.508 134.37 233.671 134.37C231.627 134.37 229.965 132.705 229.965 130.658C229.965 128.611 231.627 126.946 233.671 126.946C235.508 126.946 237.02 128.287 237.321 130.034H259.573ZM233.671 127.813C232.101 127.813 230.831 129.085 230.831 130.658C230.831 132.231 232.101 133.503 233.671 133.503C235.242 133.503 236.512 132.231 236.512 130.658C236.512 129.085 235.242 127.813 233.671 127.813Z" fill="#B0FFFF"/>
<path d="M259.573 130.658C259.573 128.611 261.236 126.946 263.28 126.946C265.324 126.946 266.987 128.611 266.987 130.658C266.987 132.705 265.324 134.37 263.28 134.37C261.236 134.37 259.573 132.705 259.573 130.658ZM263.28 133.503C264.851 133.503 266.121 132.231 266.121 130.658C266.121 129.085 264.851 127.813 263.28 127.813C261.71 127.813 260.439 129.085 260.439 130.658C260.439 132.231 261.71 133.503 263.28 133.503Z" fill="#B0FFFF"/>
<path d="M129.521 173.09C129.521 171.043 131.184 169.378 133.228 169.378C135.064 169.378 136.577 170.719 136.877 172.465H159.188C159.488 170.719 161.001 169.378 162.837 169.378C164.881 169.378 166.544 171.043 166.544 173.09C166.544 175.137 164.881 176.802 162.837 176.802C161.001 176.802 159.488 175.461 159.188 173.714H136.877C136.577 175.461 135.064 176.802 133.228 176.802C131.184 176.802 129.521 175.137 129.521 173.09ZM162.837 175.935C164.407 175.935 165.678 174.663 165.678 173.09C165.678 171.517 164.407 170.245 162.837 170.245C161.266 170.245 159.996 171.517 159.996 173.09C159.996 174.663 161.266 175.935 162.837 175.935ZM133.228 175.935C134.799 175.935 136.069 174.663 136.069 173.09C136.069 171.517 134.799 170.245 133.228 170.245C131.658 170.245 130.388 171.517 130.388 173.09C130.388 174.663 131.658 175.935 133.228 175.935Z" fill="#B0FFFF"/>
<path d="M143.123 85.6011C143.123 85.6011 143.193 85.6712 143.275 85.7529C143.205 85.6828 143.147 85.6245 143.123 85.6011Z" fill="#B0FFFF"/>
<path d="M148.783 80.7553C150.227 82.201 150.227 84.5602 148.783 86.0058C147.34 87.4515 144.984 87.4515 143.54 86.0058C142.247 84.7106 142.12 82.6867 143.148 81.2411L133.043 71.1217L133.921 70.2428L144.025 80.3621C145.469 79.3328 147.49 79.4601 148.783 80.7553ZM144.152 85.3929C145.261 86.5031 147.062 86.5031 148.171 85.3929C149.28 84.2827 149.28 82.4785 148.171 81.3683C147.062 80.258 145.261 80.258 144.164 81.3683C143.055 82.4785 143.055 84.2827 144.164 85.3929H144.152Z" fill="#B0FFFF"/>
<path d="M128.24 65.4317C129.683 63.9861 132.039 63.9861 133.482 65.4317C134.926 66.8774 134.926 69.2366 133.482 70.6822C132.039 72.1279 129.683 72.1279 128.24 70.6822C126.796 69.2366 126.796 66.8774 128.24 65.4317ZM128.852 70.0693C129.96 71.1795 131.762 71.1795 132.87 70.0693C133.979 68.9591 133.979 67.1549 132.87 66.0447C132.974 66.1488 133.078 66.2529 133.147 66.3223C133.101 66.276 133.009 66.1835 132.87 66.0447C132.593 65.7671 132.316 65.4896 132.87 66.0447C131.762 64.9345 129.96 64.9345 128.852 66.0447C127.743 67.1549 127.743 68.9591 128.852 70.0693Z" fill="#B0FFFF"/>
<path d="M128.585 71.0408C128.691 71.1463 128.667 71.1229 128.585 71.0408V71.0408Z" fill="#B0FFFF"/>
<path d="M241.986 143.599C239.942 143.599 238.279 141.934 238.279 139.887C238.279 137.84 239.942 136.175 241.986 136.175C243.822 136.175 245.335 137.516 245.635 139.262H275.694V120.978L263.361 106.036C261.825 106.927 259.827 106.603 258.661 105.192C257.356 103.619 257.575 101.272 259.157 99.9647C260.728 98.6579 263.072 98.8776 264.377 100.462C265.543 101.873 265.474 103.897 264.319 105.25L276.941 120.539V140.511H245.635C245.335 142.258 243.822 143.599 241.986 143.599ZM263.488 100.751C263.488 100.751 263.569 100.855 263.626 100.925C263.569 100.855 263.523 100.797 263.488 100.751ZM263.765 101.087C263.765 101.087 263.834 101.168 263.857 101.202C263.834 101.168 263.8 101.133 263.765 101.087ZM263.707 101.017C262.714 99.8144 260.913 99.6409 259.712 100.636C258.511 101.63 258.338 103.434 259.331 104.637C260.324 105.84 262.114 106.013 263.326 105.019C264.527 104.012 264.7 102.22 263.707 101.017ZM241.986 137.042C240.415 137.042 239.145 138.314 239.145 139.887C239.145 141.46 240.415 142.732 241.986 142.732C243.556 142.732 244.827 141.46 244.827 139.887C244.827 138.314 243.556 137.042 241.986 137.042Z" fill="#B0FFFF"/>
<path d="M258.476 104.984C258.268 104.741 258.164 104.602 258.476 104.984V104.984Z" fill="#B0FFFF"/>
<path d="M258.649 105.192C259.296 105.978 258.973 105.585 258.649 105.192V105.192Z" fill="#B0FFFF"/>
<path d="M258.649 105.192C258.58 105.1 258.522 105.042 258.476 104.972C258.534 105.042 258.592 105.111 258.649 105.192Z" fill="#B0FFFF"/>
<path d="M37.381 99.1205C37.5657 99.1205 37.762 99.1089 37.9237 99.0974C37.8313 99.0974 37.7274 99.0974 37.5773 99.1089C37.4964 99.1089 37.4387 99.1089 37.381 99.1089V99.1205Z" fill="#B0FFFF"/>
<path d="M37.2428 99.132C36.9772 99.1436 36.8502 99.1436 37.2428 99.132V99.132Z" fill="#B0FFFF"/>
<path d="M37.9238 99.0974C38.2933 99.0858 38.1894 99.0974 37.9238 99.0974V99.0974Z" fill="#B0FFFF"/>
<path d="M41.3537 102.046L65.073 101.006V125.223L75.1311 131.479C76.309 130.149 78.2952 129.814 79.8542 130.785C81.5864 131.861 82.1291 134.162 81.0436 135.897C79.9581 137.632 77.6717 138.175 75.9395 137.088C74.3805 136.117 73.8031 134.185 74.4729 132.532L63.8258 125.905V102.301L41.4114 103.284C41.192 105.042 39.737 106.453 37.9009 106.534C35.8569 106.626 34.1247 105.03 34.0323 102.983C33.94 100.936 35.5336 99.2015 37.5775 99.1089C39.4021 99.028 40.9841 100.3 41.3537 102.035V102.046ZM76.5631 136.452C76.5631 136.452 76.5284 136.429 76.5169 136.417C76.5284 136.417 76.5515 136.441 76.5631 136.452ZM76.4014 136.348C77.7294 137.181 79.4847 136.764 80.3046 135.434C81.136 134.104 80.7203 132.347 79.3923 131.526C78.0643 130.693 76.309 131.109 75.4891 132.439C74.6577 133.769 75.0734 135.527 76.4014 136.348ZM37.6237 99.9879C36.0648 100.057 34.8407 101.387 34.91 102.949C34.9793 104.51 36.3073 105.736 37.8662 105.666C39.4252 105.597 40.6493 104.267 40.58 102.706C40.5107 101.133 39.1827 99.9185 37.6237 99.9879ZM37.5545 105.678C37.5545 105.678 37.6584 105.678 37.7277 105.678C37.6584 105.678 37.6007 105.678 37.5545 105.678ZM38.2011 105.655C38.3859 105.655 38.3397 105.655 38.2011 105.655V105.655Z" fill="#B0FFFF"/>
<path d="M79.5309 130.578C79.4726 130.543 79.426 130.508 79.4027 130.496C79.4376 130.52 79.4726 130.543 79.5309 130.578Z" fill="#B0FFFF"/>
<path d="M80.2581 131.028C80.1773 130.982 80.0502 130.901 79.8539 130.774C79.7385 130.704 79.6461 130.647 79.5768 130.6C79.7962 130.739 80.108 130.924 80.2581 131.028Z" fill="#B0FFFF"/>
<path d="M79.5888 130.612C79.5888 130.612 79.5537 130.589 79.5419 130.577C79.5654 130.577 79.5771 130.601 79.5888 130.612Z" fill="#B0FFFF"/>
<path d="M80.2805 131.04C80.386 131.11 80.3626 131.098 80.2805 131.04V131.04Z" fill="#B0FFFF"/>
<path d="M80.2571 131.028C80.2571 131.028 80.2693 131.028 80.2814 131.04C80.2814 131.04 80.2692 131.04 80.2571 131.028Z" fill="#B0FFFF"/>
<path d="M94.6584 142.57C94.6584 144.617 92.9956 146.282 90.9516 146.282C89.1155 146.282 87.6027 144.941 87.3025 143.195H60.1881C59.8879 144.941 58.3751 146.282 56.539 146.282C54.495 146.282 52.8321 144.617 52.8321 142.57C52.8321 140.523 54.495 138.858 56.539 138.858C58.3751 138.858 59.8879 140.199 60.1881 141.946H87.3025C87.6027 140.199 89.1155 138.858 90.9516 138.858C92.9956 138.858 94.6584 140.523 94.6584 142.57ZM56.5506 139.725C54.98 139.725 53.7098 140.997 53.7098 142.57C53.7098 144.143 54.98 145.415 56.5506 145.415C58.1211 145.415 59.3913 144.143 59.3913 142.57C59.3913 140.997 58.1211 139.725 56.5506 139.725ZM90.9516 139.725C89.3811 139.725 88.1108 140.997 88.1108 142.57C88.1108 144.143 89.3811 145.415 90.9516 145.415C92.5221 145.415 93.7924 144.143 93.7924 142.57C93.7924 140.997 92.5221 139.725 90.9516 139.725Z" fill="#B0FFFF"/>
<path d="M121.6 56.9778C123.644 56.9778 125.307 58.6431 125.307 60.6901C125.307 62.7371 123.644 64.4025 121.6 64.4025C119.764 64.4025 118.251 63.0609 117.951 61.3146H98.631L71.1586 84.7799L70.9854 84.9303H57.1973C56.8971 86.6766 55.3843 88.0181 53.5482 88.0181C51.5042 88.0181 49.8413 86.3528 49.8413 84.3058C49.8413 82.2588 51.5042 80.5934 53.5482 80.5934C55.3843 80.5934 56.8971 81.935 57.1973 83.6813H70.5235L98.0074 60.216L98.1806 60.0656H117.951C118.251 58.3193 119.764 56.9778 121.6 56.9778ZM53.5597 81.4608C51.9892 81.4608 50.719 82.7329 50.719 84.3058C50.719 85.8786 51.9892 87.1507 53.5597 87.1507C55.1302 87.1507 56.389 85.8786 56.4005 84.3173C56.4005 82.7445 55.1302 81.4724 53.5597 81.4724V81.4608ZM121.6 63.5351C123.17 63.5351 124.44 62.263 124.44 60.6901C124.44 59.1173 123.17 57.8452 121.6 57.8452C120.029 57.8452 118.77 59.1173 118.759 60.6786C118.759 62.2514 120.029 63.5235 121.6 63.5235V63.5351Z" fill="#B0FFFF"/>
<path d="M40.7636 116.377C40.7636 116.377 40.8452 116.283 40.8685 116.26C40.8452 116.283 40.8102 116.33 40.7636 116.377Z" fill="#B0FFFF"/>
<path d="M40.326 116.861C40.2452 116.954 40.1874 117.023 40.1528 117.058C40.1874 117.023 40.2336 116.965 40.326 116.861Z" fill="#B0FFFF"/>
<path d="M25.637 133.411C25.4854 133.586 25.4271 133.644 25.637 133.411V133.411Z" fill="#B0FFFF"/>
<path d="M26.0746 132.914C26.0746 132.914 26.133 132.844 26.1564 132.821C26.133 132.844 26.1097 132.879 26.0746 132.914Z" fill="#B0FFFF"/>
<path d="M26.1558 132.822C26.1558 132.822 26.226 132.74 26.2377 132.728C26.2143 132.752 26.1909 132.787 26.1558 132.822Z" fill="#B0FFFF"/>
<path d="M20.6599 133.434C19.1356 132.069 18.997 129.721 20.3481 128.195C21.5606 126.819 23.57 126.576 25.0827 127.524L34.8175 116.56L35.2795 116.977C33.7552 115.612 33.6166 113.264 34.9792 111.738C36.3419 110.211 38.6861 110.073 40.2104 111.426C41.7347 112.79 41.8733 115.138 40.5222 116.665C40.6146 116.56 40.7069 116.456 40.7762 116.375C40.7185 116.445 40.6377 116.526 40.5222 116.665C40.4413 116.745 40.3836 116.815 40.3374 116.873C40.3951 116.803 40.4529 116.734 40.5222 116.665C39.1595 118.191 36.8153 118.33 35.291 116.977L35.7529 117.382L26.0181 128.345C27.1267 129.733 27.1151 131.757 25.9026 133.133C24.5399 134.66 22.1958 134.798 20.6715 133.445L20.6599 133.434ZM35.3603 112.594C35.3603 112.594 35.3719 112.571 35.3834 112.559C35.3834 112.559 35.3603 112.582 35.3603 112.594ZM39.864 116.075C40.9033 114.907 40.7993 113.103 39.633 112.062C38.4667 111.021 36.6652 111.125 35.6259 112.293C34.5866 113.461 34.6905 115.265 35.8569 116.306C37.0232 117.347 38.8247 117.243 39.864 116.075ZM25.0019 128.53C23.8356 127.489 22.0341 127.593 20.9948 128.761C19.9555 129.93 20.0594 131.734 21.2257 132.775C22.3921 133.815 24.1935 133.711 25.2328 132.543C26.2721 131.375 26.1682 129.571 25.0019 128.53ZM20.8793 128.889C20.6945 129.097 20.5906 129.224 20.8793 128.889V128.889Z" fill="#B0FFFF"/>
<path d="M25.8909 133.121C25.9718 133.04 26.0296 132.971 26.0757 132.913C26.018 132.983 25.9602 133.052 25.8909 133.121Z" fill="#B0FFFF"/>
<path d="M25.637 133.411C25.6947 133.341 25.7755 133.26 25.891 133.121C25.7986 133.226 25.7063 133.33 25.637 133.411Z" fill="#B0FFFF"/>
<path d="M92.1757 118.411H81.5517C81.2514 120.157 79.7387 121.499 77.9026 121.499C75.8586 121.499 74.1957 119.833 74.1957 117.786C74.1957 115.739 75.8586 114.074 77.9026 114.074C79.7387 114.074 81.2514 115.416 81.5517 117.162H91.7369L111.403 101.029L152.305 99.8028L160.701 108.176C162.144 107.147 164.165 107.262 165.458 108.557C166.902 110.003 166.913 112.362 165.458 113.808C164.015 115.254 161.659 115.265 160.216 113.808C158.922 112.513 158.784 110.489 159.811 109.043L151.797 101.052L111.853 102.255L92.1757 118.399V118.411ZM77.9026 114.941C76.3321 114.941 75.0618 116.213 75.0618 117.786C75.0618 119.359 76.3321 120.631 77.9026 120.631C79.4731 120.631 80.7434 119.359 80.7434 117.786C80.7434 116.213 79.4731 114.941 77.9026 114.941ZM160.828 113.195C161.936 114.305 163.738 114.294 164.846 113.195C165.955 112.085 165.943 110.281 164.846 109.17C165.401 109.726 165.123 109.448 164.846 109.17C164.8 109.124 164.777 109.101 164.742 109.066C164.535 108.858 164.396 108.719 164.742 109.066C164.777 109.101 164.812 109.136 164.846 109.17C163.738 108.06 161.936 108.072 160.839 109.17C159.742 110.292 159.742 112.085 160.839 113.195H160.828Z" fill="#B0FFFF"/>
<path d="M160.031 113.646C160.031 113.646 159.962 113.577 159.927 113.542C159.962 113.577 159.985 113.6 160.031 113.646Z" fill="#B0FFFF"/>
<path d="M159.927 113.543C159.787 113.403 159.74 113.356 159.927 113.543V113.543Z" fill="#B0FFFF"/>
<path d="M160.216 113.831C160.943 114.548 160.574 114.19 160.216 113.831V113.831Z" fill="#B0FFFF"/>
<path d="M87.0138 83.2997C86.9445 83.3459 86.8637 83.4037 86.7597 83.4847C85.7435 84.2017 86.575 83.6119 87.0138 83.2997Z" fill="#B0FFFF"/>
<path d="M87.0129 83.3001C87.0129 83.3001 87.0712 83.2535 87.0945 83.2418C87.0712 83.2651 87.0363 83.2768 87.0129 83.3001Z" fill="#B0FFFF"/>
<path d="M87.0934 83.2427C87.2916 83.1026 87.2449 83.1376 87.0934 83.2427V83.2427Z" fill="#B0FFFF"/>
<path d="M110.49 71.4109C111.657 73.0878 111.253 75.4124 109.578 76.5804C108.089 77.6213 106.079 77.4015 104.832 76.1525L92.395 85.416C92.8685 86.9195 92.3604 88.6195 90.9977 89.5679C89.3233 90.7359 87.0022 90.3312 85.8359 88.6542C84.6695 86.9773 85.0737 84.6528 86.7481 83.4847C88.3879 82.3398 90.6282 82.7098 91.8176 84.2942L104.105 75.1348C103.331 73.5273 103.804 71.5381 105.317 70.4857C106.992 69.3176 109.313 69.7224 110.479 71.3993L110.49 71.4109ZM108.932 75.9675C108.701 76.1294 108.562 76.2219 108.932 75.9675V75.9675ZM109.22 75.7709C109.22 75.7709 109.186 75.794 109.174 75.8056C109.186 75.8056 109.209 75.7824 109.22 75.7709ZM87.2447 84.2017C85.9629 85.1038 85.6511 86.8732 86.5403 88.1569C87.441 89.4407 89.2078 89.7529 90.4896 88.8624C91.6329 88.0644 92.0024 86.561 91.425 85.3235L91.067 84.8494L91.1132 84.8147C90.2009 83.6119 88.4918 83.3228 87.2331 84.2017H87.2447ZM105.109 75.1695C106.01 76.4532 107.777 76.777 109.059 75.875C110.34 74.9729 110.652 73.2035 109.763 71.9197C108.862 70.636 107.095 70.3238 105.814 71.2143C104.532 72.1163 104.22 73.8858 105.109 75.1695Z" fill="#B0FFFF"/>
<path d="M104.982 70.7285C104.831 70.8336 104.784 70.8687 104.982 70.7285V70.7285Z" fill="#B0FFFF"/>
<path d="M105.317 70.4972C106.16 69.9074 105.733 70.2081 105.317 70.4972V70.4972Z" fill="#B0FFFF"/>
<path d="M105.317 70.4972C105.156 70.6129 105.052 70.6823 104.971 70.7401C105.063 70.6707 105.19 70.5897 105.317 70.4972Z" fill="#B0FFFF"/>
<path d="M117.57 85.3697C117.928 85.1153 117.801 85.2078 117.57 85.3697V85.3697Z" fill="#B0FFFF"/>
<path d="M113.066 79.4601C114.74 78.292 117.061 78.6968 118.228 80.3737C119.394 82.0506 118.99 84.3752 117.315 85.5433C117.408 85.4739 117.5 85.416 117.569 85.3582C117.5 85.4045 117.419 85.4623 117.315 85.5433C117.131 85.6705 117.015 85.7514 116.934 85.8092C117.027 85.7399 117.165 85.6473 117.315 85.5433C115.826 86.5841 113.839 86.3644 112.592 85.1269L92.3489 100.913L92.1757 101.04H78.4915C78.1912 102.787 76.6784 104.128 74.8423 104.128C72.7984 104.128 71.1355 102.463 71.1355 100.416C71.1355 98.3688 72.7984 96.7034 74.8423 96.7034C76.6784 96.7034 78.1912 98.045 78.4915 99.7913H91.7484L111.865 84.0976C111.079 82.4901 111.553 80.4894 113.066 79.437V79.4601ZM74.8423 97.5939C73.2718 97.5939 72.0016 98.8661 72.0016 100.439C72.0016 102.012 73.2718 103.284 74.8423 103.284C76.4128 103.284 77.6831 102.012 77.6831 100.439C77.6831 98.8661 76.4128 97.5939 74.8423 97.5939ZM116.807 84.8378C118.089 83.9357 118.401 82.1663 117.512 80.8826C116.611 79.5989 114.844 79.2866 113.562 80.1771C112.28 81.0792 111.969 82.8486 112.858 84.1323C113.759 85.416 115.525 85.7283 116.807 84.8378Z" fill="#B0FFFF"/>
<path d="M116.934 85.8208C116.819 85.9018 116.796 85.9249 116.934 85.8208V85.8208Z" fill="#B0FFFF"/>
<path d="M35.6603 164.266C37.4964 164.266 39.0091 165.607 39.3094 167.354H91.575V181.706L81.0433 191.12C81.9902 192.623 81.7477 194.635 80.3735 195.861C78.8492 197.226 76.4935 197.087 75.1424 195.561C73.7797 194.034 73.9183 191.675 75.4426 190.322C76.8053 189.096 78.8377 189.096 80.2234 190.194L90.3393 181.151V168.603H39.3094C39.0091 170.349 37.4964 171.691 35.6603 171.691C33.6163 171.691 31.9534 170.025 31.9534 167.978C31.9534 165.931 33.6163 164.266 35.6603 164.266ZM76.02 190.969C76.6089 190.449 76.3087 190.703 76.02 190.969C75.7313 191.235 75.4311 191.49 76.02 190.969C74.8537 192.01 74.7497 193.814 75.789 194.982C76.8283 196.15 78.6298 196.255 79.7961 195.214C80.9625 194.173 81.0664 192.369 80.0271 191.201C78.9878 190.033 77.1863 189.928 76.02 190.969ZM35.6603 170.823C37.2192 170.823 38.501 169.551 38.501 167.978C38.501 166.405 37.2308 165.133 35.6603 165.133C34.0898 165.133 32.8195 166.405 32.8195 167.978C32.8195 169.551 34.0898 170.823 35.6603 170.823Z" fill="#B0FFFF"/>
<path d="M80.3739 195.861C80.5125 195.746 80.6395 195.618 80.7203 195.549C80.651 195.607 80.5471 195.711 80.3739 195.861Z" fill="#B0FFFF"/>
<path d="M80.0507 196.15C80.0507 196.15 80.1546 196.058 80.2239 195.989C80.1546 196.046 80.0969 196.104 80.0507 196.15Z" fill="#B0FFFF"/>
<path d="M80.0504 196.15C79.9221 196.267 79.8755 196.302 80.0504 196.15V196.15Z" fill="#B0FFFF"/>
<path d="M80.7532 195.516C80.8365 195.444 80.8246 195.456 80.7532 195.516V195.516Z" fill="#B0FFFF"/>
<path d="M80.7196 195.55C80.7196 195.55 80.7432 195.526 80.755 195.526C80.755 195.526 80.7314 195.538 80.7196 195.55Z" fill="#B0FFFF"/>
<path d="M245.566 103.793C245.034 105.77 242.99 106.95 241.016 106.418C239.041 105.886 237.863 103.839 238.394 101.861C238.868 100.092 240.554 98.9701 242.321 99.1436L247.771 78.8471L226.985 58.0302H205.217C204.917 59.7765 203.404 61.118 201.568 61.118C199.524 61.118 197.861 59.4527 197.861 57.4057C197.861 55.3587 199.524 53.6933 201.568 53.6933C203.404 53.6933 204.917 55.0349 205.217 56.7812H227.493L249.157 78.477L243.522 99.4674C245.127 100.208 246.028 102.023 245.554 103.793H245.566ZM201.591 54.5607C200.021 54.5607 198.751 55.8328 198.751 57.4057C198.751 58.9785 200.021 60.2507 201.591 60.2507C203.162 60.2507 204.432 58.9785 204.432 57.4057C204.432 55.8328 203.162 54.5607 201.591 54.5607ZM239.249 102.093C239.261 102.035 239.284 101.965 239.295 101.908C239.284 101.965 239.261 102.012 239.249 102.093C239.203 102.266 239.18 102.37 239.157 102.44C239.18 102.359 239.214 102.231 239.249 102.093C238.845 103.608 239.746 105.169 241.247 105.574C242.76 105.978 244.319 105.076 244.723 103.573C245.127 102.058 244.238 100.497 242.725 100.092C241.212 99.6872 239.653 100.589 239.249 102.093ZM239.33 101.769C239.376 101.607 239.364 101.642 239.33 101.769V101.769Z" fill="#B0FFFF"/>
<path d="M245.439 104.267C245.462 104.174 245.497 104.036 245.566 103.793C245.924 102.44 245.543 103.862 245.439 104.267Z" fill="#B0FFFF"/>
<path d="M245.439 104.267C245.404 104.384 245.404 104.407 245.439 104.267V104.267Z" fill="#B0FFFF"/>
<path d="M195.229 87.2664L221.258 106.453C222.539 105.215 224.549 105.042 226.027 106.129C227.678 107.343 228.025 109.668 226.812 111.321C225.6 112.975 223.279 113.322 221.627 112.108C221.662 112.131 221.685 112.154 221.708 112.166C221.673 112.143 221.662 112.131 221.616 112.108C221.2 111.807 220.796 111.507 221.616 112.108C220.138 111.021 219.71 109.043 220.507 107.459L194.813 88.5154H162.572L144.672 70.636L145.55 69.757L163.08 87.278H195.217L195.229 87.2664ZM222.135 111.414C223.394 112.339 225.172 112.073 226.108 110.813C227.032 109.552 226.766 107.771 225.507 106.834C226.142 107.297 225.819 107.066 225.507 106.834C225.438 106.776 225.38 106.742 225.334 106.707C225.392 106.742 225.45 106.788 225.507 106.834C224.249 105.909 222.47 106.175 221.546 107.436C220.623 108.708 220.888 110.489 222.147 111.414H222.135Z" fill="#B0FFFF"/>
<path d="M221.937 112.351C222.159 112.514 222.101 112.468 221.937 112.351V112.351Z" fill="#B0FFFF"/>
<path d="M221.708 112.166C221.812 112.235 221.893 112.293 221.95 112.339C221.881 112.293 221.8 112.224 221.708 112.166Z" fill="#B0FFFF"/>
<path d="M139.868 64.9345C141.312 63.4889 143.668 63.4773 145.111 64.9345C146.555 66.3801 146.566 68.7393 145.111 70.185C143.668 71.6306 141.312 71.6421 139.868 70.185C140.596 70.902 140.226 70.5435 139.868 70.185C139.614 69.9305 139.499 69.8149 139.464 69.7802C139.51 69.8264 139.684 69.9999 139.868 70.185C138.425 68.7393 138.425 66.3801 139.868 64.9345ZM144.499 69.5605C145.608 68.4502 145.608 66.6461 144.499 65.5359C143.39 64.4256 141.589 64.4256 140.48 65.5359C139.372 66.6461 139.372 68.4502 140.48 69.5605C141.589 70.6707 143.39 70.6707 144.499 69.5605Z" fill="#B0FFFF"/>
<path d="M201.811 71.8735L218.278 85.5317C219.618 84.3752 221.639 84.3058 223.059 85.4854C222.909 85.3582 222.77 85.2425 222.678 85.1732C222.747 85.231 222.863 85.3351 223.059 85.4854C223.844 86.133 223.452 85.8092 223.059 85.4854C224.63 86.7922 224.849 89.1399 223.544 90.7128C222.239 92.2856 219.895 92.5053 218.324 91.1985C216.916 90.0304 216.604 88.0297 217.481 86.4916L201.361 73.1225H167.895L158.945 63.8011L159.846 62.9337L168.438 71.8735H201.823H201.811ZM218.602 90.308C218.521 90.2386 218.498 90.227 218.602 90.308V90.308ZM219.017 90.6549C219.017 90.6549 218.983 90.6318 218.96 90.6087C218.983 90.6202 218.994 90.6434 219.017 90.6549ZM218.879 90.5393C220.08 91.5339 221.881 91.372 222.874 90.1692C223.867 88.9665 223.706 87.1623 222.505 86.1677C221.304 85.1732 219.502 85.3351 218.509 86.5378C217.516 87.7406 217.678 89.5447 218.879 90.5393Z" fill="#B0FFFF"/>
<path d="M159.338 57.9492C159.223 57.8336 159.153 57.7642 159.119 57.7295C159.165 57.7758 159.234 57.8567 159.338 57.9492Z" fill="#B0FFFF"/>
<path d="M159.65 58.273C159.65 58.273 159.557 58.1805 159.488 58.1111C159.546 58.169 159.592 58.2268 159.65 58.273Z" fill="#B0FFFF"/>
<path d="M159.869 58.5044C159.869 58.5044 159.754 58.3772 159.65 58.2846C159.765 58.4003 159.834 58.4697 159.869 58.5044Z" fill="#B0FFFF"/>
<path d="M159.488 58.1112C159.488 58.1112 159.384 57.9955 159.326 57.9492C159.373 57.9955 159.419 58.0418 159.488 58.1112Z" fill="#B0FFFF"/>
<path d="M159.396 63.3617C157.918 64.7842 155.573 64.7379 154.153 63.2576C152.733 61.7773 152.779 59.4296 154.257 58.0071C155.735 56.5846 158.079 56.6309 159.5 58.1112C160.92 59.5915 160.874 61.9392 159.396 63.3617ZM154.938 62.8181C155.192 63.0725 155.1 62.9916 154.938 62.8181V62.8181ZM158.876 58.7126C157.791 57.5792 155.989 57.5445 154.869 58.6316C153.737 59.7187 153.703 61.5228 154.788 62.6446C155.874 63.778 157.675 63.8127 158.795 62.7256C159.927 61.6385 159.962 59.8344 158.876 58.7126Z" fill="#B0FFFF"/>
<path d="M222.666 85.1624C222.573 85.0921 222.561 85.0686 222.666 85.1624V85.1624Z" fill="#B0FFFF"/>
<path d="M238.602 79.8417C240.069 81.2758 240.104 83.6235 238.672 85.0922C237.251 86.5609 234.896 86.5956 233.429 85.1616C233.591 85.3235 233.752 85.4738 233.81 85.5432C233.764 85.497 233.648 85.3813 233.429 85.1616C233.21 84.9419 233.094 84.8378 233.048 84.7799C233.117 84.8493 233.267 84.9997 233.429 85.1616C232.112 83.8779 231.962 81.8656 232.967 80.3968L222.863 70.5435C221.431 71.5843 219.41 71.4918 218.093 70.2081C216.627 68.7856 216.592 66.4264 218.024 64.9576C219.456 63.4889 221.8 63.4542 223.267 64.8882C224.583 66.1719 224.733 68.1842 223.729 69.653L233.833 79.5063C235.265 78.4655 237.286 78.558 238.602 79.8417ZM238.14 80.6166C238.418 80.8826 238.314 80.79 238.14 80.6166V80.6166ZM234.029 84.5486C235.15 85.6473 236.951 85.6126 238.048 84.4908C239.145 83.369 239.11 81.5649 237.99 80.4662C236.87 79.3675 235.069 79.4022 233.983 80.524C232.898 81.6458 232.921 83.45 234.041 84.5486H234.029ZM222.655 65.5359C221.535 64.4372 219.733 64.4719 218.636 65.5937C217.539 66.7155 217.574 68.5196 218.694 69.6183C219.814 70.717 221.615 70.6823 222.713 69.5605C223.81 68.4387 223.775 66.6345 222.655 65.5359ZM222.805 65.6862C223.082 65.9522 222.978 65.8597 222.805 65.6862V65.6862Z" fill="#B0FFFF"/>
<path d="M218.093 70.2197C218.313 70.4394 218.428 70.5435 218.474 70.6013C218.405 70.5319 218.255 70.3816 218.093 70.2197Z" fill="#B0FFFF"/>
<path d="M218.094 70.2197C217.932 70.0577 217.77 69.9074 217.712 69.838C217.759 69.8843 217.874 69.9999 218.094 70.2197Z" fill="#B0FFFF"/>
<path d="M173.45 99.9185C173.265 99.7682 173.149 99.6872 173.08 99.6294C173.426 99.8954 174.523 100.786 173.45 99.9185Z" fill="#B0FFFF"/>
<path d="M173.449 99.9185C174.881 101.063 175.239 103.053 174.385 104.614L194.94 120.99C196.256 119.81 198.277 119.706 199.709 120.839C199.663 120.793 199.605 120.759 199.559 120.712C199.605 120.747 199.652 120.782 199.709 120.839C199.755 120.874 199.779 120.897 199.813 120.92C199.779 120.897 199.744 120.863 199.709 120.839C201.314 122.112 201.58 124.459 200.298 126.055C199.028 127.663 196.684 127.929 195.09 126.645C193.658 125.5 193.3 123.511 194.155 121.95L173.6 105.574C172.283 106.753 170.262 106.857 168.83 105.724C167.225 104.452 166.96 102.104 168.241 100.508C169.512 98.9008 171.856 98.6348 173.449 99.9185ZM195.968 126.229C195.968 126.229 195.91 126.182 195.864 126.148C195.91 126.194 195.945 126.217 195.968 126.229ZM195.633 125.963C196.857 126.934 198.647 126.738 199.617 125.512C200.587 124.286 200.391 122.493 199.167 121.522C197.942 120.55 196.153 120.747 195.183 121.973C194.213 123.199 194.409 124.991 195.633 125.963ZM169.373 105.042C169.292 104.972 169.211 104.915 169.142 104.857C169.2 104.903 169.269 104.961 169.373 105.042C170.597 106.013 172.387 105.817 173.357 104.591C174.327 103.353 174.119 101.572 172.895 100.589C171.671 99.6178 169.881 99.8144 168.911 101.04C167.941 102.266 168.137 104.059 169.362 105.03L169.373 105.042Z" fill="#B0FFFF"/>
<path d="M173.092 99.6294C172.988 99.5484 172.953 99.5253 173.092 99.6294V99.6294Z" fill="#B0FFFF"/>
<path d="M199.363 120.563C199.363 120.563 199.316 120.516 199.292 120.504C199.304 120.516 199.328 120.539 199.363 120.563Z" fill="#B0FFFF"/>
<path d="M199.813 120.92C200.402 121.383 200.148 121.186 199.813 120.92V120.92Z" fill="#B0FFFF"/>
<path d="M199.559 120.724C199.478 120.654 199.409 120.608 199.363 120.573C199.421 120.62 199.478 120.666 199.559 120.724Z" fill="#B0FFFF"/>
<path d="M52.832 192.484C52.832 190.437 54.4949 188.772 56.5388 188.772C58.5828 188.772 60.2457 190.437 60.2457 192.484C60.2457 194.323 58.9062 195.838 57.1624 196.139V222.31C58.9062 222.611 60.2457 224.126 60.2457 225.965C60.2457 228.012 58.5828 229.677 56.5388 229.677C54.4949 229.677 52.832 228.012 52.832 225.965C52.832 224.126 54.1716 222.611 55.9153 222.31V196.139C54.1716 195.838 52.832 194.323 52.832 192.484ZM59.3796 192.484C59.3796 190.912 58.1094 189.639 56.5388 189.639C54.9683 189.639 53.6981 190.912 53.6981 192.484C53.6981 193.837 54.645 194.971 55.9153 195.248V195.214H57.1624V195.248C58.4327 194.959 59.3796 193.837 59.3796 192.484ZM53.7096 225.953C53.7096 227.526 54.9799 228.798 56.5504 228.798C58.1209 228.798 59.3912 227.526 59.3912 225.953C59.3912 224.381 58.1209 223.108 56.5504 223.108C54.9799 223.108 53.7096 224.381 53.7096 225.953Z" fill="#B0FFFF"/>
<path d="M42.3929 192.484C42.3929 190.437 44.0558 188.772 46.0998 188.772C48.1438 188.772 49.8066 190.437 49.8066 192.484C49.8066 194.323 48.4671 195.838 46.7234 196.139V222.31C48.4671 222.611 49.8066 224.126 49.8066 225.965C49.8066 228.012 48.1438 229.677 46.0998 229.677C44.0558 229.677 42.3929 228.012 42.3929 225.965C42.3929 224.126 43.7325 222.611 45.4762 222.31V196.139C43.7325 195.838 42.3929 194.323 42.3929 192.484ZM48.9406 192.484C48.9406 190.912 47.6703 189.639 46.0998 189.639C44.5293 189.639 43.259 190.912 43.259 192.484C43.259 193.837 44.2059 194.971 45.4762 195.248V195.214H46.7234V195.248C47.9936 194.959 48.9406 193.837 48.9406 192.484ZM43.259 225.953C43.259 227.526 44.5293 228.798 46.0998 228.798C47.6703 228.798 48.9406 227.526 48.9406 225.953C48.9406 224.381 47.6703 223.108 46.0998 223.108C44.5293 223.108 43.259 224.381 43.259 225.953Z" fill="#B0FFFF"/>
<path d="M31.9423 192.484C31.9423 190.437 33.6052 188.772 35.6492 188.772C37.6932 188.772 39.3561 190.437 39.3561 192.484C39.3561 194.323 38.0165 195.838 36.2728 196.139V222.31C38.0165 222.611 39.3561 224.126 39.3561 225.965C39.3561 228.012 37.6932 229.677 35.6492 229.677C33.6052 229.677 31.9423 228.012 31.9423 225.965C31.9423 224.126 33.2819 222.611 35.0256 222.31V196.139C33.2819 195.838 31.9423 194.323 31.9423 192.484ZM38.49 192.484C38.49 190.912 37.2197 189.639 35.6492 189.639C34.0787 189.639 32.8084 190.912 32.8084 192.484C32.8084 193.837 33.7554 194.971 35.0256 195.248V195.214H36.2728V195.248C37.5431 194.959 38.49 193.837 38.49 192.484ZM32.82 225.953C32.82 227.526 34.0902 228.798 35.6608 228.798C37.2313 228.798 38.5015 227.526 38.5015 225.953C38.5015 224.381 37.2313 223.108 35.6608 223.108C34.0902 223.108 32.82 224.381 32.82 225.953Z" fill="#B0FFFF"/>
<path d="M192.457 170.997V169.748H213.821L225.507 155.916C224.364 154.551 224.318 152.527 225.507 151.128C226.824 149.567 229.168 149.37 230.738 150.689C232.297 152.007 232.494 154.355 231.177 155.928C229.999 157.327 227.99 157.616 226.466 156.714L214.398 170.985H192.457V170.997ZM230.507 155.372C230.253 155.673 229.999 155.974 230.507 155.372C231.015 154.771 230.761 155.072 230.507 155.372C231.524 154.181 231.373 152.377 230.172 151.371C228.983 150.353 227.182 150.504 226.177 151.706C225.161 152.898 225.311 154.702 226.512 155.708C227.701 156.726 229.503 156.575 230.507 155.372Z" fill="#B0FFFF"/>
<path d="M188.75 166.66C190.794 166.66 192.457 168.325 192.457 170.372C192.457 172.419 190.794 174.085 188.75 174.085C186.706 174.085 185.044 172.419 185.044 170.372C185.044 168.325 186.706 166.66 188.75 166.66ZM188.75 173.217C190.321 173.217 191.591 171.945 191.591 170.372C191.591 168.799 190.321 167.527 188.75 167.527C187.18 167.527 185.91 168.799 185.91 170.372C185.91 171.945 187.18 173.217 188.75 173.217Z" fill="#B0FFFF"/>
<path d="M225.519 151.14C226.177 150.353 225.854 150.746 225.519 151.14V151.14Z" fill="#B0FFFF"/>
<path d="M225.519 151.14C225.403 151.278 225.288 151.406 225.218 151.498C225.276 151.429 225.368 151.313 225.519 151.14Z" fill="#B0FFFF"/>
<path d="M225.195 151.521C225.136 151.592 225.113 151.615 225.195 151.521V151.521Z" fill="#B0FFFF"/>
<path d="M225.218 151.487C225.218 151.487 225.195 151.51 225.195 151.522C225.195 151.522 225.218 151.498 225.218 151.487Z" fill="#B0FFFF"/>
<path d="M113.25 195.919C113.179 195.943 113.167 195.943 113.25 195.919V195.919Z" fill="#B0FFFF"/>
<path d="M113.354 195.884C113.354 195.884 113.274 195.908 113.251 195.919C113.274 195.919 113.32 195.896 113.354 195.884Z" fill="#B0FFFF"/>
<path d="M113.838 195.735C113.838 195.735 113.943 195.7 113.99 195.688C113.943 195.7 113.896 195.723 113.838 195.735Z" fill="#B0FFFF"/>
<path d="M113.989 195.688C114.117 195.642 114.22 195.618 114.267 195.595C114.232 195.607 114.14 195.642 113.989 195.688Z" fill="#B0FFFF"/>
<path d="M113.84 195.734C113.84 195.734 113.782 195.757 113.747 195.769C113.562 195.827 113.447 195.861 113.355 195.896C113.482 195.85 113.666 195.792 113.84 195.734Z" fill="#B0FFFF"/>
<path d="M145.538 235.922V211.925L130.341 199.921C128.967 199.921 121.403 199.874 118.528 199.921C118.297 201.239 117.385 202.396 116.034 202.835C114.093 203.471 111.992 202.396 111.357 200.453C110.722 198.51 111.795 196.405 113.735 195.769C115.676 195.133 117.777 196.208 118.412 198.151C118.47 198.325 118.493 198.498 118.528 198.672C121.715 198.625 130.468 198.672 130.561 198.672H130.78L146.554 211.127L146.785 211.312V235.911C148.529 236.211 149.869 237.726 149.869 239.565C149.869 241.612 148.206 243.278 146.162 243.278C144.118 243.278 142.455 241.612 142.455 239.565C142.455 237.726 143.795 236.211 145.538 235.911V235.922ZM117.593 198.417C117.107 196.925 115.502 196.104 114.013 196.59C112.523 197.076 111.703 198.683 112.188 200.175C112.673 201.667 114.278 202.488 115.768 202.002C116.507 201.759 116.137 201.887 115.768 202.002C117.258 201.517 118.078 199.909 117.593 198.417ZM146.162 242.41C147.732 242.41 149.003 241.138 149.003 239.565C149.003 237.992 147.732 236.732 146.173 236.72C144.614 236.72 143.344 237.992 143.344 239.565C143.344 241.138 144.614 242.41 146.185 242.41H146.162Z" fill="#B0FFFF"/>
<path d="M130.665 224.369C130.722 224.415 130.792 224.461 130.849 224.508C130.792 224.461 130.745 224.427 130.665 224.369Z" fill="#B0FFFF"/>
<path d="M130.85 224.508C130.93 224.566 130.988 224.623 131.034 224.647C130.988 224.612 130.919 224.554 130.85 224.508Z" fill="#B0FFFF"/>
<path d="M131.034 224.658C131.034 224.658 131.069 224.682 131.08 224.693C131.069 224.693 131.057 224.67 131.034 224.658Z" fill="#B0FFFF"/>
<path d="M130.284 224.068C130.191 223.999 130.168 223.976 130.284 224.068V224.068Z" fill="#B0FFFF"/>
<path d="M130.665 224.369C130.468 224.219 130.353 224.126 130.284 224.068C130.376 224.138 130.515 224.253 130.665 224.369Z" fill="#B0FFFF"/>
<path d="M131.08 224.693C131.15 224.751 131.138 224.74 131.08 224.693V224.693Z" fill="#B0FFFF"/>
<path d="M102.118 247.615L76.8518 228.96L101.102 211H120.572L130.399 218.667L130.018 219.153C131.277 217.546 133.609 217.256 135.215 218.506C136.831 219.766 137.12 222.102 135.861 223.721C134.603 225.34 132.27 225.63 130.653 224.369C129.036 223.108 128.748 220.772 130.007 219.165L129.625 219.65L120.133 212.249H101.495L78.9304 228.96L102.846 246.62C104.128 245.382 106.137 245.209 107.615 246.296C109.267 247.51 109.613 249.847 108.4 251.489C107.188 253.143 104.855 253.49 103.215 252.275C101.737 251.188 101.31 249.21 102.118 247.615ZM134.406 218.98C134.406 218.98 134.464 219.026 134.499 219.049C134.452 219.014 134.429 218.991 134.406 218.98ZM131.196 223.687C132.432 224.647 134.221 224.427 135.18 223.189C136.138 221.952 135.919 220.159 134.683 219.199C134.753 219.257 134.81 219.304 134.868 219.35C134.822 219.315 134.753 219.257 134.683 219.199C133.448 218.24 131.658 218.459 130.699 219.697C129.741 220.934 129.96 222.727 131.196 223.687ZM134.984 219.442C134.984 219.442 134.972 219.442 134.961 219.431C134.961 219.431 134.972 219.431 134.984 219.442ZM103.62 251.489C103.62 251.489 103.562 251.442 103.539 251.431C103.562 251.442 103.597 251.477 103.62 251.489ZM103.724 251.57C104.982 252.495 106.761 252.229 107.696 250.968C108.62 249.708 108.354 247.927 107.096 246.99C105.837 246.065 104.059 246.331 103.123 247.591C102.199 248.852 102.465 250.633 103.724 251.57Z" fill="#B0FFFF"/>
<path d="M107.373 246.111C107.13 245.938 107.015 245.845 107.373 246.111V246.111Z" fill="#B0FFFF"/>
<path d="M107.627 246.285C107.523 246.215 107.442 246.146 107.384 246.1C107.465 246.157 107.546 246.215 107.627 246.285Z" fill="#B0FFFF"/>
<path d="M107.627 246.285C108.447 246.897 108.042 246.585 107.627 246.285V246.285Z" fill="#B0FFFF"/>
<path d="M99.1275 222.809C99.0459 222.75 98.9993 222.715 98.9759 222.692C99.0109 222.715 99.0692 222.762 99.1275 222.809Z" fill="#B0FFFF"/>
<path d="M99.611 223.189C99.611 223.189 99.7159 223.271 99.7626 223.306C99.7276 223.283 99.681 223.248 99.611 223.189Z" fill="#B0FFFF"/>
<path d="M99.7628 223.293C99.9014 223.397 99.8668 223.374 99.7628 223.293V223.293Z" fill="#B0FFFF"/>
<path d="M116.911 236.444C116.911 236.444 116.806 236.362 116.76 236.327C116.795 236.35 116.841 236.386 116.911 236.444Z" fill="#B0FFFF"/>
<path d="M117.408 236.824C117.338 236.767 117.258 236.709 117.142 236.628C117.05 236.558 116.98 236.501 116.911 236.454C117.061 236.57 117.258 236.72 117.396 236.824H117.408Z" fill="#B0FFFF"/>
<path d="M116.773 236.339C116.669 236.258 116.634 236.235 116.773 236.339V236.339Z" fill="#B0FFFF"/>
<path d="M112.638 242.514C111.183 241.404 110.791 239.415 111.622 237.842L99.7047 228.706L100.086 228.209C98.8387 229.839 96.506 230.14 94.8893 228.902C93.261 227.653 92.9608 225.317 94.1964 223.698C95.4436 222.068 97.7762 221.767 99.3929 223.004C99.3006 222.935 99.2082 222.865 99.1273 222.808C99.1966 222.865 99.2775 222.923 99.3929 223.004C99.4853 223.074 99.5546 223.131 99.6239 223.178C99.5546 223.12 99.4738 223.062 99.3929 223.004C101.021 224.253 101.321 226.578 100.086 228.209L100.467 227.711L112.384 236.848C113.678 235.633 115.699 235.494 117.154 236.616C118.782 237.865 119.082 240.201 117.846 241.82C116.611 243.44 114.267 243.752 112.65 242.514H112.638ZM98.8618 223.698C97.6146 222.75 95.8362 222.981 94.8777 224.23C93.9308 225.479 94.1618 227.26 95.4089 228.22C96.6561 229.168 98.4345 228.937 99.3929 227.688C100.351 226.439 100.109 224.658 98.8618 223.698ZM95.1895 228.047C95.1895 228.047 95.1895 228.047 95.2011 228.047C95.2011 228.047 95.2011 228.047 95.1895 228.047ZM95.7323 228.463C95.7323 228.463 95.7092 228.44 95.6976 228.428C95.7092 228.44 95.7323 228.451 95.7323 228.463ZM117.154 241.3C118.1 240.051 117.869 238.27 116.622 237.31C115.375 236.362 113.597 236.593 112.65 237.842C111.703 239.091 111.934 240.872 113.181 241.832C113.043 241.728 112.915 241.635 112.858 241.589C112.904 241.624 112.996 241.693 113.181 241.832C113.308 241.925 113.389 241.994 113.447 242.029C113.377 241.971 113.285 241.901 113.181 241.832C114.428 242.78 116.207 242.549 117.165 241.3H117.154Z" fill="#B0FFFF"/>
<path d="M117.406 236.824C117.488 236.883 117.535 236.918 117.558 236.941C117.523 236.918 117.465 236.871 117.406 236.824Z" fill="#B0FFFF"/>
<path d="M114.001 228.671C112.696 229.885 110.687 230.024 109.232 228.902C107.604 227.653 107.303 225.317 108.539 223.698C109.786 222.068 112.119 221.767 113.736 223.004C115.191 224.115 115.583 226.104 114.752 227.677L126.715 236.848C128.02 235.633 130.03 235.494 131.485 236.616C133.113 237.865 133.413 240.201 132.178 241.82C130.942 243.44 128.598 243.752 126.981 242.514C125.526 241.404 125.133 239.415 125.965 237.842L114.001 228.671ZM113.204 223.698C111.957 222.75 110.179 222.981 109.232 224.23C108.285 225.479 108.516 227.26 109.763 228.22C109.682 228.162 109.601 228.093 109.532 228.047C109.59 228.093 109.659 228.139 109.763 228.22C111.01 229.168 112.789 228.937 113.736 227.688C114.683 226.439 114.452 224.658 113.204 223.698ZM109.983 228.382C110.179 228.532 110.121 228.486 109.983 228.382V228.382ZM127.512 241.82C127.362 241.705 127.224 241.601 127.177 241.566C127.212 241.589 127.304 241.67 127.512 241.82C127.824 242.063 128.136 242.295 127.512 241.82C128.759 242.769 130.538 242.537 131.496 241.288C132.443 240.039 132.212 238.258 130.965 237.299C129.718 236.35 127.939 236.582 126.981 237.831C126.034 239.08 126.265 240.861 127.512 241.82Z" fill="#B0FFFF"/>
<path d="M113.747 223.016C113.516 222.842 113.389 222.738 113.331 222.692C113.412 222.75 113.574 222.877 113.747 223.016Z" fill="#B0FFFF"/>
<path d="M113.747 223.016C113.932 223.166 114.117 223.305 114.186 223.351C114.14 223.317 114.013 223.212 113.747 223.016Z" fill="#B0FFFF"/>
<path d="M131.277 236.444C131.277 236.444 131.172 236.362 131.125 236.327C131.16 236.35 131.207 236.386 131.277 236.444Z" fill="#B0FFFF"/>
<path d="M131.762 236.824C131.693 236.767 131.612 236.709 131.496 236.628C131.404 236.558 131.335 236.501 131.265 236.454C131.415 236.57 131.612 236.72 131.75 236.824H131.762Z" fill="#B0FFFF"/>
<path d="M131.76 236.824C131.842 236.883 131.888 236.918 131.912 236.941C131.877 236.918 131.818 236.871 131.76 236.824Z" fill="#B0FFFF"/>
<path d="M131.126 236.339C131.023 236.258 130.988 236.235 131.126 236.339V236.339Z" fill="#B0FFFF"/>
<defs>
<linearGradient id="paint0_linear_325_7304" x1="223.971" y1="180.283" x2="78.6764" y2="180.283" gradientUnits="userSpaceOnUse">
<stop stop-color="#3DDEED"/>
<stop offset="1" stop-color="#3DDEED" stop-opacity="0"/>
</linearGradient>
<linearGradient id="paint1_linear_325_7304" x1="135.284" y1="239.565" x2="44.0906" y2="239.565" gradientUnits="userSpaceOnUse">
<stop stop-color="#3DDEED"/>
<stop offset="1" stop-color="#3DDEED" stop-opacity="0"/>
</linearGradient>
<linearGradient id="paint2_linear_325_7304" x1="100.19" y1="173.529" x2="24.0666" y2="173.529" gradientUnits="userSpaceOnUse">
<stop stop-color="#3DDEED"/>
<stop offset="1" stop-color="#3DDEED" stop-opacity="0"/>
</linearGradient>
<linearGradient id="paint3_linear_325_7304" x1="165.458" y1="232.557" x2="90.1547" y2="232.557" gradientUnits="userSpaceOnUse">
<stop stop-color="#3DDEED"/>
<stop offset="1" stop-color="#3DDEED" stop-opacity="0"/>
</linearGradient>
</defs>
</svg>
