<svg width="675" height="381" viewBox="0 0 675 381" fill="none" xmlns="http://www.w3.org/2000/svg">
<g opacity="0.4">
<path style="mix-blend-mode:color-dodge" d="M632.164 104.333C639.761 96.7249 639.761 84.3894 632.164 76.7811C624.567 69.1729 612.25 69.1729 604.653 76.7812C597.056 84.3894 597.056 96.7249 604.653 104.333C612.25 111.941 624.567 111.941 632.164 104.333Z" fill="url(#paint0_radial_453_196)"/>
<path style="mix-blend-mode:color-dodge" d="M410.58 114.517C413.048 104.045 406.572 93.5518 396.116 91.0802C385.659 88.6085 375.182 95.0941 372.714 105.566C370.246 116.038 376.722 126.531 387.178 129.003C397.635 131.474 408.112 124.989 410.58 114.517Z" fill="url(#paint1_radial_453_196)"/>
<path style="mix-blend-mode:color-dodge" d="M484.242 197.688C491.839 190.08 491.839 177.744 484.242 170.136C476.645 162.528 464.328 162.528 456.731 170.136C449.134 177.744 449.134 190.08 456.731 197.688C464.328 205.296 476.645 205.296 484.242 197.688Z" fill="url(#paint2_radial_453_196)"/>
<path style="mix-blend-mode:color-dodge" d="M579.357 274.213C581.825 263.741 575.349 253.248 564.892 250.777C554.436 248.305 543.959 254.791 541.491 265.263C539.023 275.735 545.499 286.228 555.955 288.699C566.412 291.171 576.889 284.685 579.357 274.213Z" fill="url(#paint3_radial_453_196)"/>
<path style="mix-blend-mode:color-dodge" d="M596.245 156.994C597.966 146.373 590.765 136.366 580.16 134.642C569.555 132.918 559.562 140.13 557.841 150.751C556.119 161.371 563.321 171.379 573.926 173.103C584.531 174.827 594.524 167.615 596.245 156.994Z" fill="url(#paint4_radial_453_196)"/>
<path d="M589.321 114.054V275.426H454.853C445.998 264.975 441.031 259.109 432.176 248.658L431.85 120.611" stroke="url(#paint5_linear_453_196)" stroke-width="0.27" stroke-miterlimit="10"/>
<path opacity="0.04" d="M597.072 344.386H528.239V174.046H626.823V314.591C615.208 326.223 608.686 332.755 597.072 344.386Z" stroke="url(#paint6_linear_453_196)" stroke-width="0.36" stroke-miterlimit="10"/>
<path opacity="0.1" d="M648.346 97.0591H566.581V277.913H648.346V97.0591Z" stroke="url(#paint7_linear_453_196)" stroke-width="0.73" stroke-miterlimit="10"/>
<path opacity="0.8" d="M495.503 189.584V294.506C501.749 301.867 505.249 306 511.482 313.36H577.029" stroke="url(#paint8_linear_453_196)" stroke-width="0.41" stroke-miterlimit="10"/>
<path d="M593.184 303.588C593.184 303.588 593.36 303.463 593.51 303.35C593.322 303.475 593.222 303.551 593.184 303.588Z" fill="#B0FFFF"/>
<path d="M594.163 302.873C594.163 302.873 593.987 302.998 593.836 303.111C594.025 302.973 594.125 302.91 594.163 302.873Z" fill="#B0FFFF"/>
<path d="M593.673 303.236C591.879 304.543 591.465 307.068 592.77 308.864L592.381 308.324L575.499 320.546V372.084C573.605 372.41 572.15 374.056 572.15 376.053C572.15 378.276 573.956 380.085 576.176 380.085C578.396 380.085 580.202 378.276 580.202 376.053C580.202 374.056 578.747 372.41 576.854 372.084V321.236L593.171 309.417L592.782 308.876C594.087 310.673 596.608 311.087 598.401 309.781C600.195 308.474 600.609 305.95 599.305 304.153C598 302.357 595.479 301.943 593.685 303.249L593.673 303.236ZM579.249 376.053C579.249 377.761 577.869 379.143 576.164 379.143C574.458 379.143 573.078 377.761 573.078 376.053C573.078 374.345 574.458 372.963 576.164 372.963C577.869 372.963 579.249 374.345 579.249 376.053ZM597.837 309.002C596.457 309.994 594.526 309.693 593.535 308.311C592.544 306.929 592.845 304.995 594.225 304.003C595.604 303.01 597.536 303.312 598.527 304.694C599.518 306.075 599.217 308.01 597.837 309.002ZM598.176 308.751C598.176 308.751 598.151 308.763 598.138 308.776C598.138 308.776 598.163 308.763 598.176 308.751ZM597.523 309.216C597.523 309.216 597.586 309.165 597.636 309.14C597.586 309.178 597.561 309.203 597.523 309.216Z" fill="#B0FFFF"/>
<path d="M542.876 275.489C540.656 275.489 538.85 277.298 538.85 279.521C538.85 281.519 540.305 283.164 542.199 283.491V311.916C540.305 312.243 538.85 313.888 538.85 315.886C538.85 318.109 540.656 319.918 542.876 319.918C545.096 319.918 546.902 318.109 546.902 315.886C546.902 313.888 545.447 312.243 543.553 311.916V283.491C545.447 283.164 546.902 281.519 546.902 279.521C546.902 277.298 545.096 275.489 542.876 275.489ZM545.961 315.886C545.961 317.594 544.582 318.976 542.876 318.976C541.17 318.976 539.791 317.594 539.791 315.886C539.791 314.177 541.17 312.796 542.876 312.796C544.582 312.796 545.961 314.177 545.961 315.886ZM542.876 282.611C541.17 282.611 539.791 281.23 539.791 279.521C539.791 277.813 541.17 276.431 542.876 276.431C544.582 276.431 545.961 277.813 545.961 279.521C545.961 281.23 544.582 282.611 542.876 282.611Z" fill="#B0FFFF"/>
<path d="M602.929 255.68C603.029 255.605 603.054 255.593 602.929 255.68V255.68Z" fill="#B0FFFF"/>
<path d="M602.053 256.346C601.963 256.41 601.976 256.397 602.053 256.346V256.346Z" fill="#B0FFFF"/>
<path d="M602.729 255.831C602.816 255.768 602.879 255.718 602.929 255.68C602.879 255.718 602.804 255.768 602.729 255.831Z" fill="#B0FFFF"/>
<path d="M602.503 256.007C602.578 255.944 602.654 255.894 602.729 255.831C602.666 255.881 602.591 255.931 602.503 256.007C602.403 256.082 602.327 256.145 602.265 256.195C602.34 256.132 602.415 256.069 602.503 256.007C600.923 257.212 600.496 259.373 601.387 261.081L564.499 289.231L564.236 289.432V341.058H565.591V290.097L602.215 262.149C603.619 263.468 605.814 263.619 607.395 262.413C609.163 261.069 609.502 258.531 608.16 256.76C606.818 254.989 604.284 254.65 602.516 255.994L602.503 256.007ZM606.818 261.672C606.931 261.596 607.031 261.508 607.106 261.458C607.043 261.508 606.956 261.571 606.818 261.672C606.742 261.734 606.68 261.772 606.63 261.81C606.692 261.772 606.742 261.722 606.818 261.672C605.463 262.702 603.532 262.438 602.503 261.081C601.475 259.725 601.738 257.79 603.08 256.76C604.435 255.73 606.366 255.994 607.395 257.338C608.423 258.695 608.16 260.629 606.818 261.659V261.672ZM606.454 261.961C606.454 261.961 606.517 261.91 606.579 261.86C606.517 261.91 606.479 261.935 606.454 261.961Z" fill="#B0FFFF"/>
<path d="M602.265 256.196C602.177 256.258 602.114 256.309 602.064 256.346C602.101 256.309 602.177 256.258 602.265 256.196Z" fill="#B0FFFF"/>
<path d="M564.913 341.071C562.693 341.071 560.887 342.879 560.887 345.103C560.887 347.326 562.693 349.135 564.913 349.135C567.133 349.135 568.939 347.326 568.939 345.103C568.939 342.879 567.133 341.071 564.913 341.071ZM564.913 348.193C563.207 348.193 561.828 346.811 561.828 345.103C561.828 343.394 563.207 342.013 564.913 342.013C566.619 342.013 567.998 343.394 567.998 345.103C567.998 346.811 566.619 348.193 564.913 348.193Z" fill="#B0FFFF"/>
<path d="M557.739 304.669C557.739 302.445 555.933 300.636 553.713 300.636C551.493 300.636 549.686 302.445 549.686 304.669C549.686 306.666 551.141 308.311 553.035 308.638V356.031C551.141 356.357 549.686 358.003 549.686 360C549.686 362.223 551.493 364.032 553.713 364.032C555.933 364.032 557.739 362.223 557.739 360C557.739 358.003 556.284 356.357 554.39 356.031V308.638C556.284 308.311 557.739 306.666 557.739 304.669ZM550.627 304.669C550.627 302.96 552.007 301.579 553.713 301.579C555.418 301.579 556.798 302.96 556.798 304.669C556.798 306.377 555.418 307.759 553.713 307.759C552.007 307.759 550.627 306.377 550.627 304.669ZM556.798 360C556.798 361.708 555.418 363.09 553.713 363.09C552.007 363.09 550.627 361.708 550.627 360C550.627 358.292 552.007 356.91 553.713 356.91C555.418 356.91 556.798 358.292 556.798 360Z" fill="#B0FFFF"/>
<path d="M372.65 184.183C371.897 183.367 372.273 183.769 372.65 184.183V184.183Z" fill="#B0FFFF"/>
<path d="M372.988 184.56C372.925 184.484 372.812 184.371 372.649 184.183C372.787 184.321 372.913 184.472 372.988 184.56Z" fill="#B0FFFF"/>
<path d="M372.988 184.559C373.089 184.673 373.114 184.698 372.988 184.559V184.559Z" fill="#B0FFFF"/>
<path d="M378.331 184.434C379.974 182.927 380.075 180.377 378.582 178.732C377.077 177.086 374.531 176.986 372.888 178.48C371.245 179.988 371.144 182.538 372.637 184.183C374.142 185.829 376.688 185.929 378.331 184.434ZM373.527 179.184C374.782 178.028 376.738 178.116 377.88 179.372C377.779 179.259 377.679 179.146 377.616 179.083C377.666 179.134 377.754 179.234 377.88 179.372C379.034 180.628 378.946 182.588 377.692 183.731C376.437 184.887 374.481 184.799 373.339 183.543C372.185 182.286 372.273 180.327 373.527 179.184ZM378.143 179.661C378.218 179.737 378.231 179.762 378.143 179.661V179.661Z" fill="#B0FFFF"/>
<path d="M466.668 202.108C464.686 202.007 462.968 203.376 462.542 205.26L453.248 204.796L440.266 211.943H404.432L378.833 183.969L377.842 184.886L403.843 213.3H440.617L453.561 206.165L462.466 206.605C462.692 208.514 464.272 210.059 466.254 210.159C466.028 210.159 465.803 210.134 465.69 210.134C465.778 210.134 465.953 210.147 466.254 210.159C466.254 210.159 466.267 210.159 466.279 210.159C466.279 210.159 466.267 210.159 466.254 210.159C468.474 210.272 470.368 208.551 470.481 206.328C470.594 204.105 468.875 202.208 466.655 202.095L466.668 202.108ZM466.317 209.217C464.624 209.129 463.307 207.685 463.394 205.989C463.482 204.281 464.925 202.974 466.63 203.062C465.778 203.025 466.204 203.037 466.63 203.062C466.819 203.062 466.944 203.075 467.019 203.087C466.931 203.087 466.781 203.087 466.63 203.062C468.324 203.15 469.641 204.595 469.553 206.303C469.465 207.999 468.023 209.318 466.317 209.23V209.217Z" fill="#B0FFFF"/>
<path d="M466.292 210.159C466.517 210.159 466.718 210.184 466.831 210.184C466.743 210.184 466.58 210.171 466.292 210.159Z" fill="#B0FFFF"/>
<path d="M599.731 285.839C599.731 285.839 599.818 285.789 599.831 285.764C599.806 285.777 599.768 285.802 599.731 285.839Z" fill="#B0FFFF"/>
<path d="M594.902 279.358C593.234 280.451 592.67 282.574 593.435 284.345L574.396 296.881V301.39C572.502 301.717 571.047 303.363 571.047 305.36C571.047 307.583 572.853 309.392 575.073 309.392C577.293 309.392 579.099 307.583 579.099 305.36C579.099 303.363 577.644 301.717 575.75 301.39V297.61L594.175 285.476C595.492 286.882 597.662 287.196 599.33 286.104C601.186 284.885 601.701 282.373 600.484 280.514C599.267 278.655 596.759 278.14 594.902 279.358ZM578.158 305.36C578.158 307.068 576.779 308.45 575.073 308.45C573.367 308.45 571.987 307.068 571.987 305.36C571.987 303.651 573.367 302.27 575.073 302.27C576.779 302.27 578.158 303.651 578.158 305.36ZM598.816 285.3C597.398 286.229 595.479 285.84 594.551 284.42C593.623 283.001 594.012 281.079 595.429 280.15C596.847 279.22 598.766 279.61 599.694 281.029C600.622 282.448 600.233 284.37 598.816 285.3Z" fill="#B0FFFF"/>
<path d="M598.94 286.367C598.94 286.367 598.853 286.417 598.841 286.442C598.866 286.429 598.903 286.405 598.94 286.367Z" fill="#B0FFFF"/>
<path d="M599.33 286.104C599.179 286.204 599.041 286.292 598.928 286.368C599.016 286.317 599.129 286.229 599.33 286.104Z" fill="#B0FFFF"/>
<path d="M599.33 286.103C599.48 286.003 599.618 285.915 599.731 285.84C599.643 285.89 599.53 285.978 599.33 286.103Z" fill="#B0FFFF"/>
<path d="M657.765 217.055C657.765 216.779 657.753 216.515 657.753 216.44C657.753 216.49 657.753 216.666 657.765 217.055Z" fill="#B0FFFF"/>
<path d="M653.638 213.124C651.418 213.174 649.662 215.033 649.712 217.256C649.763 219.229 651.218 220.824 653.086 221.125L653.688 242.203L626.22 269.071H617.491C617.165 267.174 615.522 265.717 613.527 265.717C611.307 265.717 609.501 267.526 609.501 269.749C609.501 271.972 611.307 273.781 613.527 273.781C615.522 273.781 617.165 272.324 617.491 270.427H626.772L654.842 242.969L655.056 242.768L654.441 221.113C656.373 220.774 657.815 219.078 657.765 217.055C657.715 214.832 655.858 213.074 653.638 213.124ZM613.54 272.839C611.834 272.839 610.454 271.457 610.454 269.749C610.454 268.041 611.834 266.659 613.54 266.659C615.246 266.659 616.625 268.041 616.625 269.749C616.625 271.457 615.246 272.839 613.54 272.839ZM653.851 220.233H653.801C652.108 220.271 650.703 218.927 650.666 217.231C650.666 217.319 650.666 217.395 650.666 217.47C650.666 217.407 650.666 217.332 650.666 217.231C650.628 215.523 651.97 214.116 653.663 214.066C655.369 214.028 656.774 215.372 656.824 217.081C656.862 218.776 655.532 220.183 653.839 220.246L653.851 220.233ZM650.666 216.993C650.666 216.591 650.666 216.729 650.666 216.993V216.993Z" fill="#B0FFFF"/>
<path d="M657.765 217.055C657.778 217.608 657.79 218.161 657.765 217.055V217.055Z" fill="#B0FFFF"/>
<path d="M585.181 220.345C585.032 220.221 585.069 220.246 585.181 220.345V220.345Z" fill="#B0FFFF"/>
<path d="M580.202 226.715C581.858 228.197 584.417 228.046 585.884 226.375C587.364 224.717 587.214 222.155 585.545 220.685C585.959 221.05 586.373 221.426 585.545 220.685C585.357 220.522 585.244 220.421 585.169 220.346C585.257 220.434 585.395 220.547 585.545 220.685C583.89 219.203 581.331 219.354 579.864 221.024L580.315 220.522L558.918 201.467V176.257L570.808 166.459H618.47C618.796 168.356 620.439 169.813 622.433 169.813C624.653 169.813 626.459 168.004 626.459 165.781C626.459 163.558 624.653 161.749 622.433 161.749C620.439 161.749 618.796 163.206 618.47 165.103H570.319L557.563 175.604V202.057L579.412 221.514L579.864 221.012C578.384 222.67 578.534 225.232 580.202 226.702V226.715ZM622.42 162.691C624.126 162.691 625.506 164.073 625.506 165.781C625.506 167.489 624.126 168.871 622.42 168.871C620.715 168.871 619.347 167.489 619.335 165.793C619.335 164.085 620.715 162.703 622.42 162.703V162.691ZM581.068 226.225C581.206 226.338 581.243 226.388 581.068 226.225V226.225ZM580.466 225.685C580.466 225.685 580.529 225.735 580.566 225.773C580.516 225.722 580.478 225.685 580.466 225.685ZM584.918 221.389C586.185 222.519 586.298 224.479 585.169 225.747C584.04 227.016 582.084 227.129 580.817 225.999C579.55 224.868 579.437 222.909 580.566 221.64C581.695 220.371 583.652 220.258 584.918 221.389Z" fill="#B0FFFF"/>
<path d="M651.908 174.31C651.845 174.247 651.72 174.121 651.531 173.933C651.343 173.745 651.218 173.619 651.155 173.556C651.318 173.719 651.745 174.147 651.92 174.322L651.908 174.31Z" fill="#B0FFFF"/>
<path d="M651.143 173.544C651.042 173.443 651.055 173.455 651.143 173.544V173.544Z" fill="#B0FFFF"/>
<path d="M651.908 174.31C651.996 174.398 652.021 174.423 651.908 174.31V174.31Z" fill="#B0FFFF"/>
<path d="M671.575 217.105V187.361L657.64 173.406C658.756 171.835 658.618 169.637 657.213 168.23C655.646 166.66 653.087 166.66 651.519 168.23C649.951 169.8 649.951 172.363 651.519 173.933C652.924 175.34 655.119 175.478 656.687 174.36L670.22 187.914V217.105C668.326 217.432 666.871 219.078 666.871 221.075C666.871 223.298 668.677 225.107 670.897 225.107C673.117 225.107 674.923 223.298 674.923 221.075C674.923 219.078 673.468 217.432 671.575 217.105ZM652.184 173.267C650.98 172.061 650.98 170.102 652.184 168.896C653.388 167.69 655.345 167.69 656.549 168.896C656.511 168.858 656.473 168.821 656.436 168.783C656.473 168.821 656.498 168.846 656.549 168.896C656.636 168.984 656.712 169.059 656.762 169.11L656.549 168.896C657.753 170.102 657.753 172.061 656.549 173.255C655.345 174.461 653.388 174.461 652.196 173.255L652.184 173.267ZM670.897 224.165C669.191 224.165 667.812 222.783 667.812 221.075C667.812 219.366 669.191 217.985 670.885 217.985C672.578 217.985 673.958 219.366 673.958 221.075C673.958 222.783 672.578 224.165 670.872 224.165H670.897Z" fill="#B0FFFF"/>
<path d="M493.183 50.6713H554.29C554.616 52.5681 556.259 54.0251 558.253 54.0251C560.473 54.0251 562.279 52.2163 562.279 49.993C562.279 47.7697 560.473 45.9609 558.253 45.9609C556.259 45.9609 554.616 47.418 554.29 49.3147H492.719L476.89 61.8884L477.73 62.9435L493.195 50.6588L493.183 50.6713ZM558.241 46.903C559.946 46.903 561.326 48.2847 561.326 49.993C561.326 51.7013 559.946 53.0831 558.241 53.0831C556.535 53.0831 555.155 51.7013 555.155 49.993C555.155 48.2847 556.535 46.903 558.241 46.903Z" fill="#B0FFFF"/>
<path d="M476.652 68.0813C476.74 68.006 476.827 67.9432 476.903 67.8804C476.84 67.9306 476.752 67.9934 476.652 68.0813Z" fill="#B0FFFF"/>
<path d="M476.903 67.88C477.166 67.679 477.304 67.5659 476.903 67.88V67.88Z" fill="#B0FFFF"/>
<path d="M476.652 68.0808C476.514 68.1939 476.363 68.3069 476.276 68.3823C476.351 68.3195 476.476 68.2315 476.652 68.0808Z" fill="#B0FFFF"/>
<path d="M476.277 68.3826C476.099 68.5221 476.137 68.484 476.277 68.3826V68.3826Z" fill="#B0FFFF"/>
<path d="M476.652 68.0812C478.395 66.6994 478.684 64.1621 477.304 62.4161C475.924 60.6701 473.391 60.3812 471.647 61.7629C469.904 63.1447 469.615 65.682 470.995 67.428C472.375 69.174 474.908 69.4629 476.652 68.0812ZM472.237 62.5041C472.237 62.5041 472.162 62.5669 472.124 62.592C472.162 62.5669 472.187 62.5417 472.237 62.5041C472.362 62.4036 472.438 62.3533 472.5 62.3031C472.425 62.3659 472.337 62.4287 472.237 62.5041C473.566 61.4489 475.51 61.675 476.564 63.0065C477.618 64.338 477.392 66.2849 476.062 67.3401C474.733 68.3952 472.789 68.1691 471.735 66.8376C470.682 65.5061 470.907 63.5592 472.237 62.5041ZM472.024 62.6673C471.76 62.8809 471.848 62.8055 472.024 62.6673V62.6673ZM472.563 62.2403C472.626 62.19 472.651 62.1775 472.563 62.2403V62.2403Z" fill="#B0FFFF"/>
<path d="M393.759 181.809C395.326 180.238 395.326 177.676 393.759 176.106C392.191 174.536 389.632 174.536 388.064 176.106C386.496 177.676 386.496 180.238 388.064 181.809C389.632 183.379 392.191 183.379 393.759 181.809ZM388.729 176.772C389.933 175.566 391.89 175.566 393.094 176.772C394.298 177.977 394.298 179.937 393.094 181.143C391.89 182.349 389.933 182.349 388.729 181.143C387.525 179.937 387.525 177.977 388.729 176.772Z" fill="#B0FFFF"/>
<path d="M409.662 203.438C409.751 203.527 409.763 203.539 409.662 203.438V203.438Z" fill="#B0FFFF"/>
<path d="M414.968 203.049C416.536 201.479 416.536 198.917 414.968 197.346C413.563 195.94 411.368 195.801 409.8 196.919L394.235 181.331L393.282 182.286L408.847 197.874C407.731 199.444 407.869 201.642 409.274 203.049C409.123 202.898 408.985 202.76 408.897 202.672C408.96 202.735 409.085 202.861 409.274 203.049L409.65 203.426C409.562 203.338 409.411 203.187 409.274 203.049C410.841 204.619 413.4 204.619 414.968 203.049ZM409.938 198.012C411.142 196.806 413.099 196.806 414.291 198.012C415.495 199.218 415.495 201.178 414.291 202.383C413.086 203.589 411.13 203.589 409.926 202.383C408.722 201.178 408.722 199.218 409.926 198.025L409.938 198.012Z" fill="#B0FFFF"/>
<path d="M402.125 176.207C402.011 176.094 402.037 176.119 402.125 176.207V176.207Z" fill="#B0FFFF"/>
<path d="M402.889 176.973C402.978 177.061 403.003 177.086 402.889 176.973V176.973Z" fill="#B0FFFF"/>
<path d="M434.697 203.138C436.265 201.568 436.265 199.005 434.697 197.435C433.292 196.028 431.098 195.89 429.53 197.008L408.621 176.069C409.738 174.498 409.6 172.3 408.195 170.893C406.627 169.323 404.068 169.323 402.501 170.893C400.933 172.464 400.933 175.026 402.501 176.596C403.905 178.003 406.1 178.141 407.668 177.023L428.577 197.963C427.46 199.533 427.598 201.731 429.003 203.138C430.571 204.708 433.129 204.708 434.697 203.138ZM407.417 171.446C407.041 171.069 407.192 171.22 407.417 171.446V171.446ZM403.165 175.918C401.961 174.712 401.961 172.752 403.165 171.547C404.37 170.341 406.326 170.341 407.53 171.547C408.734 172.752 408.734 174.712 407.53 175.918C406.326 177.124 404.37 177.124 403.165 175.918ZM429.668 198.101C430.872 196.895 432.828 196.895 434.02 198.101C435.224 199.307 435.224 201.266 434.02 202.472C432.816 203.678 430.859 203.678 429.655 202.472C428.451 201.266 428.451 199.307 429.655 198.113L429.668 198.101Z" fill="#B0FFFF"/>
<path d="M516.675 213.111L516.875 212.91V195.4H487.187C486.861 193.503 485.218 192.046 483.224 192.046C481.004 192.046 479.198 193.855 479.198 196.078C479.198 198.302 481.004 200.11 483.224 200.11C485.218 200.11 486.861 198.653 487.187 196.757H515.521V212.357L491.665 236.249C490.097 235.131 487.902 235.269 486.498 236.676C484.93 238.246 484.93 240.808 486.498 242.378C488.065 243.948 490.624 243.948 492.192 242.378C493.597 240.971 493.735 238.773 492.618 237.203L516.675 213.111ZM483.224 199.168C481.518 199.168 480.139 197.787 480.139 196.078C480.139 194.37 481.518 192.988 483.224 192.988C484.93 192.988 486.309 194.37 486.309 196.066C486.309 197.774 484.93 199.156 483.224 199.156V199.168ZM491.515 241.713C490.311 242.918 488.354 242.918 487.15 241.713C485.946 240.507 485.946 238.547 487.15 237.341C488.354 236.135 490.311 236.135 491.502 237.341C492.706 238.547 492.706 240.507 491.502 241.713H491.515Z" fill="#B0FFFF"/>
<path d="M662.645 193.503C660.424 193.503 658.618 195.312 658.618 197.535C658.618 199.532 660.073 201.178 661.967 201.505V229.44C660.073 229.767 658.618 231.412 658.618 233.41C658.618 235.633 660.424 237.442 662.645 237.442C664.865 237.442 666.671 235.633 666.671 233.41C666.671 231.412 665.216 229.767 663.322 229.44V201.505C665.216 201.178 666.671 199.532 666.671 197.535C666.671 195.312 664.865 193.503 662.645 193.503ZM665.73 233.397C665.73 235.105 664.35 236.487 662.645 236.487C660.939 236.487 659.559 235.105 659.559 233.397C659.559 231.689 660.939 230.307 662.645 230.307C664.35 230.307 665.73 231.689 665.73 233.397ZM662.657 200.625C660.964 200.625 659.584 199.244 659.584 197.535C659.584 195.827 660.964 194.445 662.67 194.445C664.375 194.445 665.755 195.827 665.755 197.535C665.755 199.244 664.375 200.613 662.682 200.625H662.657Z" fill="#B0FFFF"/>
<path d="M627.801 102.398C630.021 102.398 631.828 100.589 631.828 98.3657V99.044H652.748L661.403 112.635V153.195H637.86L626.208 137.443C627.538 136.049 627.726 133.863 626.547 132.255C625.23 130.472 622.697 130.095 620.916 131.414C619.135 132.733 618.758 135.27 620.075 137.054C621.254 138.649 623.412 139.114 625.13 138.247L637.183 154.551H662.757V112.246L653.488 97.7H631.828V98.3783C631.828 96.155 630.021 94.3462 627.801 94.3462C625.581 94.3462 623.775 96.155 623.775 98.3783C623.775 100.602 625.581 102.41 627.801 102.41V102.398ZM620.84 136.489C619.824 135.119 620.113 133.185 621.48 132.168C622.847 131.15 624.779 131.439 625.795 132.808C626.811 134.177 626.522 136.112 625.155 137.129C623.788 138.147 621.856 137.858 620.84 136.489ZM627.801 95.2757C629.507 95.2757 630.887 96.6574 630.887 98.3657C630.887 100.074 629.507 101.456 627.801 101.456C626.096 101.456 624.716 100.074 624.716 98.3657C624.716 96.6574 626.096 95.2757 627.801 95.2757Z" fill="#B0FFFF"/>
<path d="M626.547 132.243C626.434 132.092 626.321 131.942 626.246 131.841C626.309 131.916 626.397 132.042 626.547 132.243Z" fill="#B0FFFF"/>
<path d="M626.748 132.507C626.823 132.607 626.873 132.67 626.898 132.708C626.861 132.658 626.81 132.595 626.748 132.507Z" fill="#B0FFFF"/>
<path d="M626.547 132.243C626.61 132.331 626.672 132.419 626.735 132.494C626.685 132.419 626.622 132.343 626.547 132.243Z" fill="#B0FFFF"/>
<path d="M626.258 131.841C626.145 131.678 626.17 131.716 626.258 131.841V131.841Z" fill="#B0FFFF"/>
<path d="M670.909 129.379C668.689 129.379 666.883 131.188 666.883 133.411C666.883 135.409 668.338 137.054 670.232 137.381V158.019C668.338 158.345 666.883 159.991 666.883 161.988C666.883 164.211 668.689 166.02 670.909 166.02C673.129 166.02 674.936 164.211 674.936 161.988C674.936 159.991 673.481 158.345 671.587 158.019V137.381C673.481 137.054 674.936 135.409 674.936 133.411C674.936 131.188 673.129 129.379 670.909 129.379ZM673.995 161.975C673.995 163.684 672.615 165.065 670.909 165.065C669.204 165.065 667.824 163.684 667.824 161.975C667.824 160.267 669.204 158.885 670.909 158.885C672.603 158.885 673.995 160.267 673.995 161.975ZM670.909 136.502C669.204 136.502 667.824 135.12 667.824 133.411C667.824 131.703 669.204 130.321 670.909 130.321C672.615 130.321 673.995 131.703 673.995 133.411C673.995 135.12 672.615 136.502 670.909 136.502Z" fill="#B0FFFF"/>
<path d="M539.627 177.777C541.847 177.777 543.654 175.968 543.654 173.745C543.654 171.522 541.847 169.713 539.627 169.713C537.633 169.713 535.99 171.17 535.664 173.067H474.444L445.659 142.242V126.428L463.871 111.166C465.338 112.41 467.533 112.472 469.063 111.191C470.769 109.759 470.995 107.209 469.565 105.513C468.135 103.805 465.589 103.579 463.896 105.011C462.366 106.292 462.04 108.465 463.018 110.136L444.568 125.599L444.33 125.8V142.782L473.679 174.21L473.88 174.423H535.689C536.015 176.32 537.658 177.777 539.653 177.777H539.627ZM464.485 105.74C464.373 105.84 464.26 105.928 464.184 105.991C464.247 105.941 464.335 105.865 464.485 105.74C465.138 105.199 464.812 105.463 464.485 105.74C465.79 104.647 467.734 104.823 468.825 106.129C469.916 107.435 469.741 109.382 468.436 110.475C467.132 111.568 465.188 111.392 464.097 110.098C463.005 108.792 463.181 106.845 464.485 105.752V105.74ZM539.627 170.655C541.333 170.655 542.713 172.037 542.713 173.745C542.713 175.453 541.333 176.835 539.627 176.835C537.922 176.835 536.542 175.453 536.542 173.745C536.542 172.037 537.922 170.655 539.627 170.655Z" fill="#B0FFFF"/>
<path d="M469.051 111.191C468.976 111.254 468.926 111.304 468.863 111.342C468.926 111.291 468.988 111.241 469.051 111.191Z" fill="#B0FFFF"/>
<path d="M469.415 110.89C469.554 110.776 469.605 110.738 469.415 110.89V110.89Z" fill="#B0FFFF"/>
<path d="M469.051 111.19C469.189 111.077 469.314 110.964 469.415 110.889C469.339 110.952 469.227 111.04 469.051 111.19Z" fill="#B0FFFF"/>
<path d="M468.649 111.53C468.525 111.642 468.55 111.617 468.649 111.53V111.53Z" fill="#B0FFFF"/>
<path d="M487.187 132.746C486.861 130.849 485.218 129.392 483.224 129.392C481.004 129.392 479.198 131.201 479.198 133.424C479.198 135.647 481.004 137.456 483.224 137.456C485.218 137.456 486.861 135.999 487.187 134.102H535.714V154.137C533.82 154.464 532.365 156.109 532.365 158.106C532.365 160.33 534.172 162.139 536.392 162.139C538.612 162.139 540.418 160.33 540.418 158.106C540.418 156.109 538.963 154.464 537.069 154.137V132.758H487.2L487.187 132.746ZM483.224 136.514C481.518 136.514 480.139 135.132 480.139 133.424C480.139 131.716 481.518 130.334 483.224 130.334C484.93 130.334 486.309 131.716 486.309 133.411C486.309 135.12 484.93 136.501 483.224 136.501V136.514ZM539.464 158.094C539.464 159.802 538.085 161.184 536.379 161.184C534.673 161.184 533.294 159.802 533.294 158.094C533.294 156.386 534.673 155.004 536.379 155.004C538.085 155.004 539.464 156.386 539.464 158.094Z" fill="#B0FFFF"/>
<path d="M516.875 161.271V150.281H483.951C483.625 148.384 481.982 146.927 479.988 146.927C477.768 146.927 475.962 148.736 475.962 150.959C475.962 153.182 477.768 154.991 479.988 154.991C481.982 154.991 483.625 153.534 483.951 151.637H515.533V161.284C513.64 161.611 512.185 163.256 512.185 165.253C512.185 167.477 513.991 169.285 516.211 169.285C518.431 169.285 520.237 167.477 520.237 165.253C520.237 163.256 518.782 161.611 516.888 161.284L516.875 161.271ZM479.988 154.036C478.282 154.036 476.903 152.655 476.903 150.946C476.903 149.238 478.282 147.856 479.988 147.856C481.694 147.856 483.073 149.238 483.073 150.946C483.073 152.655 481.694 154.036 479.988 154.036ZM516.198 168.318C514.492 168.318 513.113 166.937 513.113 165.228C513.113 163.52 514.492 162.138 516.198 162.138C517.904 162.138 519.284 163.52 519.284 165.228C519.284 166.937 517.904 168.318 516.198 168.318Z" fill="#B0FFFF"/>
<path d="M386.948 166.446C387.274 168.343 388.917 169.8 390.911 169.8C393.131 169.8 394.938 167.992 394.938 165.768C394.938 163.545 393.131 161.736 390.911 161.736C388.917 161.736 387.274 163.193 386.948 165.09H362.716C362.39 163.193 360.747 161.736 358.753 161.736C356.533 161.736 354.726 163.545 354.726 165.768C354.726 167.992 356.533 169.8 358.753 169.8C360.747 169.8 362.39 168.343 362.716 166.446H386.948ZM390.911 162.678C392.617 162.678 393.997 164.06 393.997 165.768C393.997 167.476 392.617 168.858 390.911 168.858C389.206 168.858 387.826 167.476 387.826 165.768C387.826 164.06 389.206 162.678 390.911 162.678ZM358.753 168.846C357.047 168.846 355.667 167.464 355.667 165.756C355.667 164.047 357.047 162.666 358.753 162.666C360.458 162.666 361.838 164.047 361.838 165.756C361.838 167.464 360.458 168.846 358.753 168.846Z" fill="#B0FFFF"/>
<path d="M393.019 140.244V141.601H417.188C417.514 143.497 419.157 144.955 421.151 144.955C423.371 144.955 425.177 143.146 425.177 140.922C425.177 138.699 423.371 136.89 421.151 136.89C419.157 136.89 417.514 138.347 417.188 140.244H393.019ZM421.151 137.832C422.857 137.832 424.237 139.214 424.237 140.922C424.237 142.631 422.857 144.013 421.151 144.013C419.446 144.013 418.066 142.631 418.066 140.922C418.066 139.214 419.446 137.832 421.151 137.832Z" fill="#B0FFFF"/>
<path d="M393.019 140.922C393.019 138.699 391.212 136.89 388.992 136.89C386.772 136.89 384.966 138.699 384.966 140.922C384.966 143.146 386.772 144.955 388.992 144.955C391.212 144.955 393.019 143.146 393.019 140.922ZM388.992 144.013C387.287 144.013 385.907 142.631 385.907 140.922C385.907 139.214 387.287 137.832 388.992 137.832C390.698 137.832 392.078 139.214 392.078 140.922C392.078 142.631 390.698 144.013 388.992 144.013Z" fill="#B0FFFF"/>
<path d="M534.272 187.009C534.272 184.786 532.466 182.977 530.246 182.977C528.252 182.977 526.608 184.434 526.282 186.331H502.05C501.724 184.434 500.081 182.977 498.087 182.977C495.867 182.977 494.061 184.786 494.061 187.009C494.061 189.232 495.867 191.041 498.087 191.041C500.081 191.041 501.724 189.584 502.05 187.687H526.282C526.608 189.584 528.252 191.041 530.246 191.041C532.466 191.041 534.272 189.232 534.272 187.009ZM498.087 190.099C496.381 190.099 495.001 188.717 495.001 187.009C495.001 185.301 496.381 183.919 498.087 183.919C499.793 183.919 501.172 185.301 501.172 187.009C501.172 188.717 499.793 190.099 498.087 190.099ZM530.246 190.099C528.54 190.099 527.16 188.717 527.16 187.009C527.16 185.301 528.54 183.919 530.246 183.919C531.952 183.919 533.331 185.301 533.331 187.009C533.331 188.717 531.952 190.099 530.246 190.099Z" fill="#B0FFFF"/>
<path d="M519.498 91.9846C519.498 91.9846 519.422 92.0607 519.334 92.1495C519.41 92.0734 519.473 92.01 519.498 91.9846Z" fill="#B0FFFF"/>
<path d="M513.351 86.722C511.783 88.2921 511.783 90.8545 513.351 92.4247C514.919 93.9948 517.478 93.9948 519.045 92.4247C520.45 91.0178 520.588 88.8197 519.472 87.2495L530.447 76.2586L529.493 75.304L518.519 86.2949C516.951 85.1769 514.756 85.3151 513.351 86.722ZM518.381 91.7589C517.177 92.9648 515.22 92.9648 514.016 91.7589C512.812 90.5531 512.812 88.5936 514.016 87.3877C515.22 86.1818 517.177 86.1818 518.368 87.3877C519.572 88.5936 519.572 90.5531 518.368 91.7589H518.381Z" fill="#B0FFFF"/>
<path d="M535.664 70.078C534.096 68.5079 531.538 68.5079 529.97 70.078C528.402 71.6481 528.402 74.2106 529.97 75.7807C531.538 77.3508 534.096 77.3508 535.664 75.7807C537.232 74.2106 537.232 71.6481 535.664 70.078ZM534.999 75.115C533.795 76.3208 531.839 76.3208 530.635 75.115C529.431 73.9091 529.431 71.9496 530.635 70.7437C530.522 70.8568 530.409 70.9698 530.334 71.0452C530.384 70.9949 530.484 70.8945 530.635 70.7437C530.936 70.4423 531.237 70.1408 530.635 70.7437C531.839 69.5379 533.795 69.5379 534.999 70.7437C536.204 71.9496 536.204 73.9091 534.999 75.115Z" fill="#B0FFFF"/>
<path d="M535.288 76.1707C535.175 76.2842 535.2 76.2589 535.288 76.1707V76.1707Z" fill="#B0FFFF"/>
<path d="M412.121 154.978C414.341 154.978 416.147 153.17 416.147 150.946C416.147 148.723 414.341 146.914 412.121 146.914C410.127 146.914 408.484 148.371 408.157 150.268H375.509V130.409L388.905 114.18C390.573 115.147 392.743 114.796 394.009 113.263C395.427 111.555 395.188 109.005 393.47 107.586C391.764 106.166 389.218 106.405 387.801 108.126C386.534 109.658 386.609 111.856 387.864 113.326L374.155 129.932V151.625H408.157C408.484 153.521 410.127 154.978 412.121 154.978ZM388.767 108.44C388.767 108.44 388.679 108.553 388.616 108.628C388.679 108.553 388.729 108.49 388.767 108.44ZM388.466 108.804C388.466 108.804 388.39 108.892 388.365 108.93C388.39 108.892 388.428 108.854 388.466 108.804ZM388.528 108.729C389.607 107.422 391.564 107.234 392.868 108.314C394.173 109.394 394.361 111.354 393.282 112.66C392.203 113.967 390.259 114.155 388.942 113.075C387.638 111.982 387.45 110.035 388.528 108.729ZM412.121 147.856C413.827 147.856 415.206 149.238 415.206 150.946C415.206 152.655 413.827 154.036 412.121 154.036C410.415 154.036 409.035 152.655 409.035 150.946C409.035 149.238 410.415 147.856 412.121 147.856Z" fill="#B0FFFF"/>
<path d="M394.21 113.037C394.436 112.773 394.549 112.622 394.21 113.037V113.037Z" fill="#B0FFFF"/>
<path d="M394.022 113.263C393.32 114.117 393.671 113.69 394.022 113.263V113.263Z" fill="#B0FFFF"/>
<path d="M394.022 113.263C394.097 113.163 394.16 113.1 394.21 113.024C394.148 113.1 394.085 113.175 394.022 113.263Z" fill="#B0FFFF"/>
<path d="M634.349 106.668C634.148 106.668 633.935 106.656 633.759 106.643C633.859 106.643 633.972 106.643 634.135 106.656C634.223 106.656 634.286 106.656 634.349 106.656V106.668Z" fill="#B0FFFF"/>
<path d="M634.499 106.681C634.787 106.694 634.925 106.694 634.499 106.681V106.681Z" fill="#B0FFFF"/>
<path d="M633.759 106.644C633.358 106.631 633.471 106.644 633.759 106.644V106.644Z" fill="#B0FFFF"/>
<path d="M630.034 109.847L604.272 108.716V135.019L593.347 141.814C592.068 140.37 589.91 140.006 588.217 141.061C586.336 142.229 585.746 144.729 586.925 146.613C588.104 148.497 590.588 149.087 592.469 147.907C594.162 146.851 594.789 144.754 594.062 142.958L605.626 135.76V110.123L629.971 111.191C630.209 113.1 631.79 114.632 633.784 114.72C636.004 114.821 637.885 113.087 637.986 110.864C638.086 108.641 636.355 106.757 634.135 106.656C632.153 106.568 630.435 107.95 630.034 109.834V109.847ZM591.792 147.216C591.792 147.216 591.829 147.191 591.842 147.178C591.829 147.178 591.804 147.203 591.792 147.216ZM591.967 147.103C590.525 148.007 588.619 147.555 587.728 146.11C586.825 144.666 587.276 142.757 588.719 141.865C590.161 140.96 592.068 141.413 592.958 142.857C593.861 144.302 593.41 146.211 591.967 147.103ZM634.085 107.611C635.778 107.686 637.108 109.131 637.032 110.826C636.957 112.522 635.515 113.854 633.822 113.778C632.128 113.703 630.799 112.258 630.874 110.563C630.949 108.854 632.392 107.535 634.085 107.611ZM634.16 113.791C634.16 113.791 634.047 113.791 633.972 113.791C634.047 113.791 634.11 113.791 634.16 113.791ZM633.458 113.766C633.257 113.766 633.307 113.766 633.458 113.766V113.766Z" fill="#B0FFFF"/>
<path d="M588.568 140.835C588.631 140.797 588.682 140.759 588.707 140.747C588.669 140.772 588.631 140.797 588.568 140.835Z" fill="#B0FFFF"/>
<path d="M587.778 141.324C587.866 141.274 588.004 141.186 588.217 141.048C588.343 140.973 588.443 140.91 588.518 140.86C588.28 141.01 587.941 141.211 587.778 141.324Z" fill="#B0FFFF"/>
<path d="M588.505 140.873C588.505 140.873 588.544 140.848 588.557 140.835C588.531 140.835 588.518 140.861 588.505 140.873Z" fill="#B0FFFF"/>
<path d="M587.753 141.337C587.64 141.413 587.665 141.4 587.753 141.337V141.337Z" fill="#B0FFFF"/>
<path d="M587.782 141.325C587.782 141.325 587.767 141.325 587.753 141.339C587.753 141.339 587.767 141.339 587.782 141.325Z" fill="#B0FFFF"/>
<path d="M572.138 153.861C572.138 156.084 573.944 157.893 576.164 157.893C578.158 157.893 579.801 156.436 580.127 154.539H609.577C609.903 156.436 611.546 157.893 613.54 157.893C615.76 157.893 617.567 156.084 617.567 153.861C617.567 151.637 615.76 149.829 613.54 149.829C611.546 149.829 609.903 151.286 609.577 153.182H580.127C579.801 151.286 578.158 149.829 576.164 149.829C573.944 149.829 572.138 151.637 572.138 153.861ZM613.528 150.771C615.234 150.771 616.613 152.152 616.613 153.861C616.613 155.569 615.234 156.951 613.528 156.951C611.822 156.951 610.442 155.569 610.442 153.861C610.442 152.152 611.822 150.771 613.528 150.771ZM576.164 150.771C577.87 150.771 579.249 152.152 579.249 153.861C579.249 155.569 577.87 156.951 576.164 156.951C574.458 156.951 573.078 155.569 573.078 153.861C573.078 152.152 574.458 150.771 576.164 150.771Z" fill="#B0FFFF"/>
<path d="M542.876 60.896C540.656 60.896 538.85 62.7048 538.85 64.9281C538.85 67.1514 540.656 68.9602 542.876 68.9602C544.87 68.9602 546.513 67.5031 546.839 65.6064H567.823L597.662 91.0928L597.85 91.2561H612.825C613.152 93.1528 614.795 94.6099 616.789 94.6099C619.009 94.6099 620.815 92.8011 620.815 90.5778C620.815 88.3545 619.009 86.5457 616.789 86.5457C614.795 86.5457 613.152 88.0028 612.825 89.8995H598.351L568.5 64.4131L568.312 64.2498H546.839C546.513 62.3531 544.87 60.896 542.876 60.896ZM616.776 87.4878C618.482 87.4878 619.862 88.8695 619.862 90.5778C619.862 92.2861 618.482 93.6678 616.776 93.6678C615.07 93.6678 613.703 92.2861 613.691 90.5903C613.691 88.882 615.07 87.5003 616.776 87.5003V87.4878ZM542.876 68.0181C541.17 68.0181 539.791 66.6364 539.791 64.9281C539.791 63.2198 541.17 61.8381 542.876 61.8381C544.582 61.8381 545.949 63.2198 545.961 64.9155C545.961 66.6238 544.582 68.0056 542.876 68.0056V68.0181Z" fill="#B0FFFF"/>
<path d="M630.675 125.411C630.675 125.411 630.586 125.31 630.561 125.284C630.586 125.31 630.624 125.36 630.675 125.411Z" fill="#B0FFFF"/>
<path d="M631.15 125.937C631.238 126.037 631.3 126.113 631.338 126.151C631.3 126.113 631.25 126.05 631.15 125.937Z" fill="#B0FFFF"/>
<path d="M647.104 143.912C647.269 144.102 647.332 144.166 647.104 143.912V143.912Z" fill="#B0FFFF"/>
<path d="M646.628 143.372C646.628 143.372 646.565 143.297 646.54 143.271C646.565 143.297 646.59 143.334 646.628 143.372Z" fill="#B0FFFF"/>
<path d="M646.54 143.272C646.54 143.272 646.464 143.184 646.452 143.171C646.477 143.197 646.502 143.234 646.54 143.272Z" fill="#B0FFFF"/>
<path d="M652.51 143.937C654.165 142.455 654.316 139.905 652.849 138.247C651.532 136.752 649.349 136.488 647.706 137.518L637.133 125.611L636.631 126.063C638.287 124.581 638.437 122.031 636.957 120.373C635.477 118.715 632.931 118.564 631.275 120.033C629.62 121.516 629.469 124.066 630.937 125.724C630.836 125.611 630.736 125.498 630.661 125.41C630.724 125.485 630.811 125.573 630.937 125.724C631.025 125.812 631.087 125.887 631.137 125.95C631.075 125.874 631.012 125.799 630.937 125.724C632.417 127.382 634.963 127.532 636.619 126.063L636.117 126.502L646.69 138.41C645.486 139.918 645.499 142.116 646.816 143.611C648.296 145.269 650.842 145.419 652.497 143.95L652.51 143.937ZM636.543 121.302C636.543 121.302 636.531 121.277 636.518 121.264C636.518 121.264 636.543 121.29 636.543 121.302ZM631.652 125.083C630.523 123.814 630.636 121.855 631.903 120.724C633.169 119.594 635.126 119.707 636.255 120.976C637.384 122.244 637.271 124.204 636.004 125.334C634.737 126.465 632.781 126.352 631.652 125.083ZM647.794 138.611C649.061 137.481 651.017 137.594 652.146 138.862C653.275 140.131 653.162 142.091 651.895 143.221C650.628 144.352 648.672 144.239 647.543 142.97C646.414 141.701 646.527 139.742 647.794 138.611ZM652.272 139.001C652.472 139.227 652.585 139.365 652.272 139.001V139.001Z" fill="#B0FFFF"/>
<path d="M646.828 143.598C646.74 143.51 646.678 143.435 646.628 143.372C646.69 143.447 646.753 143.523 646.828 143.598Z" fill="#B0FFFF"/>
<path d="M647.104 143.912C647.041 143.837 646.954 143.749 646.828 143.598C646.929 143.711 647.029 143.824 647.104 143.912Z" fill="#B0FFFF"/>
<path d="M574.834 127.62H586.373C586.699 129.517 588.342 130.974 590.337 130.974C592.557 130.974 594.363 129.165 594.363 126.942C594.363 124.719 592.557 122.91 590.337 122.91C588.342 122.91 586.699 124.367 586.373 126.264H575.311L553.951 108.741L509.526 107.409L500.407 116.504C498.839 115.386 496.644 115.511 495.24 116.918C493.672 118.488 493.659 121.051 495.24 122.621C496.807 124.191 499.366 124.204 500.934 122.621C502.339 121.214 502.489 119.016 501.373 117.446L510.077 108.766L553.462 110.072L574.834 127.608V127.62ZM590.337 123.852C592.043 123.852 593.422 125.234 593.422 126.942C593.422 128.65 592.043 130.032 590.337 130.032C588.631 130.032 587.251 128.65 587.251 126.942C587.251 125.234 588.631 123.852 590.337 123.852ZM500.269 121.955C499.065 123.161 497.108 123.148 495.904 121.955C494.7 120.749 494.713 118.79 495.904 117.584C495.302 118.187 495.603 117.885 495.904 117.584C495.955 117.534 495.98 117.509 496.017 117.471C496.243 117.245 496.394 117.094 496.017 117.471C495.98 117.509 495.942 117.546 495.904 117.584C497.108 116.378 499.065 116.391 500.257 117.584C501.448 118.802 501.448 120.749 500.257 121.955H500.269Z" fill="#B0FFFF"/>
<path d="M501.135 122.445C501.135 122.445 501.21 122.37 501.248 122.332C501.21 122.37 501.185 122.395 501.135 122.445Z" fill="#B0FFFF"/>
<path d="M501.248 122.333C501.4 122.181 501.45 122.13 501.248 122.333V122.333Z" fill="#B0FFFF"/>
<path d="M500.934 122.646C500.144 123.425 500.545 123.036 500.934 122.646V122.646Z" fill="#B0FFFF"/>
<path d="M580.441 89.4851C580.516 89.5354 580.604 89.5982 580.717 89.6861C581.82 90.4649 580.917 89.8243 580.441 89.4851Z" fill="#B0FFFF"/>
<path d="M580.441 89.4848C580.441 89.4848 580.378 89.4347 580.353 89.4221C580.378 89.4472 580.416 89.4597 580.441 89.4848Z" fill="#B0FFFF"/>
<path d="M580.354 89.4231C580.139 89.2709 580.19 89.309 580.354 89.4231V89.4231Z" fill="#B0FFFF"/>
<path d="M554.942 76.5725C553.675 78.3938 554.114 80.9186 555.933 82.1872C557.551 83.3177 559.733 83.0791 561.088 81.7225L574.596 91.7839C574.082 93.4168 574.634 95.2633 576.114 96.2933C577.932 97.562 580.453 97.1224 581.72 95.301C582.987 93.4796 582.548 90.9549 580.729 89.6862C578.948 88.4427 576.515 88.8446 575.223 90.5655L561.878 80.6171C562.718 78.8711 562.204 76.7106 560.561 75.5676C558.742 74.2989 556.221 74.7385 554.955 76.5599L554.942 76.5725ZM556.635 81.5215C556.886 81.6974 557.037 81.7979 556.635 81.5215V81.5215ZM556.322 81.308C556.322 81.308 556.359 81.3331 556.372 81.3457C556.359 81.3457 556.334 81.3205 556.322 81.308ZM580.19 90.465C581.582 91.4447 581.921 93.3666 580.955 94.7609C579.977 96.1551 578.058 96.4943 576.666 95.5271C575.424 94.6604 575.022 93.0274 575.65 91.6834L576.038 91.1684L575.988 91.1307C576.979 89.8244 578.835 89.5103 580.203 90.465H580.19ZM560.787 80.6548C559.808 82.0491 557.889 82.4008 556.497 81.421C555.105 80.4413 554.766 78.5194 555.732 77.1251C556.71 75.7309 558.629 75.3917 560.022 76.3589C561.414 77.3387 561.753 79.2605 560.787 80.6548Z" fill="#B0FFFF"/>
<path d="M560.925 75.8311C561.089 75.9452 561.14 75.9832 560.925 75.8311V75.8311Z" fill="#B0FFFF"/>
<path d="M560.561 75.5798C559.645 74.9392 560.11 75.2658 560.561 75.5798V75.5798Z" fill="#B0FFFF"/>
<path d="M560.561 75.5801C560.736 75.7057 560.849 75.7811 560.937 75.8439C560.837 75.7685 560.699 75.6806 560.561 75.5801Z" fill="#B0FFFF"/>
<path d="M547.253 91.7334C546.864 91.457 547.002 91.5575 547.253 91.7334V91.7334Z" fill="#B0FFFF"/>
<path d="M552.145 85.3149C550.326 84.0462 547.805 84.4859 546.538 86.3072C545.272 88.1286 545.711 90.6533 547.529 91.922C547.429 91.8466 547.329 91.7838 547.253 91.721C547.329 91.7713 547.416 91.8341 547.529 91.922C547.73 92.0602 547.855 92.1481 547.943 92.2109C547.843 92.1355 547.692 92.0351 547.529 91.922C549.147 93.0525 551.305 92.8138 552.659 91.4698L574.646 108.616L574.834 108.754H589.697C590.023 110.651 591.666 112.108 593.661 112.108C595.881 112.108 597.687 110.299 597.687 108.076C597.687 105.852 595.881 104.043 593.661 104.043C591.666 104.043 590.023 105.501 589.697 107.397H575.298L553.449 90.3519C554.302 88.6059 553.788 86.4328 552.145 85.2898V85.3149ZM593.661 105.011C595.366 105.011 596.746 106.392 596.746 108.101C596.746 109.809 595.366 111.191 593.661 111.191C591.955 111.191 590.575 109.809 590.575 108.101C590.575 106.392 591.955 105.011 593.661 105.011ZM548.081 91.1558C546.689 90.176 546.35 88.2542 547.316 86.8599C548.294 85.4656 550.213 85.1265 551.606 86.0937C552.998 87.0734 553.336 88.9953 552.371 90.3896C551.392 91.7838 549.473 92.123 548.081 91.1558Z" fill="#B0FFFF"/>
<path d="M547.943 92.2231C548.067 92.3102 548.092 92.3351 547.943 92.2231V92.2231Z" fill="#B0FFFF"/>
<path d="M636.218 177.425C634.223 177.425 632.58 178.882 632.254 180.779H575.487V196.367L586.926 206.592C585.897 208.225 586.16 210.41 587.653 211.742C589.309 213.224 591.867 213.073 593.335 211.415C594.815 209.757 594.664 207.195 593.009 205.725C591.529 204.394 589.321 204.394 587.816 205.587L576.829 195.764V182.135H632.254C632.58 184.032 634.223 185.489 636.218 185.489C638.438 185.489 640.244 183.68 640.244 181.457C640.244 179.234 638.438 177.425 636.218 177.425ZM592.382 206.429C591.742 205.863 592.068 206.14 592.382 206.429C592.695 206.717 593.021 206.994 592.382 206.429C593.648 207.559 593.761 209.519 592.632 210.787C591.504 212.056 589.547 212.169 588.28 211.038C587.013 209.908 586.9 207.948 588.029 206.68C589.158 205.411 591.115 205.298 592.382 206.429ZM636.218 184.547C634.524 184.547 633.132 183.165 633.132 181.457C633.132 179.749 634.512 178.367 636.218 178.367C637.923 178.367 639.303 179.749 639.303 181.457C639.303 183.165 637.923 184.547 636.218 184.547Z" fill="#B0FFFF"/>
<path d="M587.653 211.742C587.502 211.616 587.364 211.478 587.276 211.403C587.352 211.466 587.464 211.579 587.653 211.742Z" fill="#B0FFFF"/>
<path d="M588.004 212.056C588.004 212.056 587.891 211.955 587.816 211.88C587.891 211.943 587.954 212.006 588.004 212.056Z" fill="#B0FFFF"/>
<path d="M588.004 212.056C588.143 212.183 588.194 212.221 588.004 212.056V212.056Z" fill="#B0FFFF"/>
<path d="M587.24 211.366C587.15 211.289 587.163 211.302 587.24 211.366V211.366Z" fill="#B0FFFF"/>
<path d="M587.279 211.404C587.279 211.404 587.252 211.377 587.239 211.377C587.239 211.377 587.265 211.391 587.279 211.404Z" fill="#B0FFFF"/>
<path d="M408.233 111.743C408.81 113.891 411.03 115.173 413.174 114.595C415.319 114.017 416.598 111.794 416.022 109.646C415.507 107.724 413.676 106.505 411.757 106.694L405.837 84.6492L428.413 62.0393H452.056C452.382 63.936 454.025 65.3931 456.019 65.3931C458.239 65.3931 460.046 63.5843 460.046 61.361C460.046 59.1376 458.239 57.3289 456.019 57.3289C454.025 57.3289 452.382 58.7859 452.056 60.6827H427.862L404.332 84.2472L410.453 107.046C408.709 107.849 407.731 109.822 408.245 111.743H408.233ZM455.994 58.2709C457.7 58.2709 459.08 59.6527 459.08 61.361C459.08 63.0693 457.7 64.451 455.994 64.451C454.289 64.451 452.909 63.0693 452.909 61.361C452.909 59.6527 454.289 58.2709 455.994 58.2709ZM415.093 109.897C415.081 109.834 415.056 109.759 415.043 109.696C415.056 109.759 415.081 109.809 415.093 109.897C415.144 110.085 415.169 110.198 415.194 110.274C415.169 110.186 415.131 110.048 415.093 109.897C415.532 111.542 414.554 113.238 412.924 113.678C411.28 114.117 409.587 113.138 409.148 111.505C408.709 109.859 409.675 108.163 411.318 107.724C412.961 107.284 414.654 108.264 415.093 109.897ZM415.006 109.545C414.955 109.369 414.968 109.407 415.006 109.545V109.545Z" fill="#B0FFFF"/>
<path d="M408.37 112.258C408.345 112.158 408.308 112.007 408.233 111.743C407.844 110.274 408.258 111.819 408.37 112.258Z" fill="#B0FFFF"/>
<path d="M408.371 112.259C408.408 112.384 408.408 112.409 408.371 112.259V112.259Z" fill="#B0FFFF"/>
<path d="M462.905 93.7933L434.634 114.632C433.242 113.288 431.06 113.1 429.454 114.28C427.661 115.599 427.284 118.124 428.601 119.92C429.918 121.717 432.439 122.093 434.233 120.774C434.195 120.8 434.17 120.825 434.145 120.837C434.183 120.812 434.195 120.8 434.246 120.774C434.697 120.448 435.136 120.121 434.246 120.774C435.851 119.594 436.315 117.446 435.45 115.725L463.357 95.1499H498.375L517.816 75.7305L516.863 74.7759L497.823 93.8059H462.918L462.905 93.7933ZM433.681 120.021C432.314 121.026 430.382 120.737 429.366 119.368C428.363 117.998 428.652 116.064 430.019 115.047C429.329 115.549 429.68 115.298 430.019 115.047C430.094 114.984 430.157 114.946 430.207 114.908C430.144 114.946 430.081 114.996 430.019 115.047C431.386 114.042 433.317 114.331 434.321 115.7C435.324 117.082 435.036 119.016 433.669 120.021H433.681Z" fill="#B0FFFF"/>
<path d="M433.896 121.039C433.655 121.216 433.719 121.165 433.896 121.039V121.039Z" fill="#B0FFFF"/>
<path d="M434.145 120.838C434.033 120.913 433.945 120.976 433.882 121.026C433.957 120.976 434.045 120.9 434.145 120.838Z" fill="#B0FFFF"/>
<path d="M523.034 69.5378C521.466 67.9677 518.907 67.9551 517.34 69.5378C515.772 71.1079 515.759 73.6704 517.34 75.2405C518.907 76.8106 521.466 76.8232 523.034 75.2405C522.244 76.0193 522.645 75.6299 523.034 75.2405C523.31 74.9642 523.435 74.8385 523.473 74.8009C523.423 74.8511 523.235 75.0395 523.034 75.2405C524.602 73.6704 524.602 71.1079 523.034 69.5378ZM518.004 74.5622C516.8 73.3563 516.8 71.3968 518.004 70.191C519.208 68.9851 521.165 68.9851 522.369 70.191C523.573 71.3968 523.573 73.3563 522.369 74.5622C521.165 75.7681 519.208 75.7681 518.004 74.5622Z" fill="#B0FFFF"/>
<path d="M455.756 77.0747L437.87 91.9093C436.415 90.6532 434.221 90.5778 432.678 91.8591C432.841 91.7209 432.991 91.5953 433.092 91.5199C433.016 91.5827 432.891 91.6958 432.678 91.8591C431.825 92.5625 432.251 92.2108 432.678 91.8591C430.972 93.2785 430.734 95.8284 432.151 97.5367C433.568 99.245 436.114 99.4836 437.82 98.0642C439.35 96.7956 439.689 94.6225 438.736 92.9519L456.245 78.4313H492.593L502.314 68.3071L501.335 67.365L492.004 77.0747H455.743H455.756ZM437.519 97.097C437.607 97.0217 437.632 97.0091 437.519 97.097V97.097ZM437.068 97.4738C437.068 97.4738 437.105 97.4487 437.13 97.4236C437.105 97.4362 437.093 97.4613 437.068 97.4738ZM437.218 97.3482C435.914 98.4285 433.957 98.2526 432.878 96.9463C431.8 95.6399 431.975 93.6804 433.28 92.6002C434.584 91.5199 436.541 91.6958 437.62 93.0021C438.698 94.3085 438.523 96.268 437.218 97.3482Z" fill="#B0FFFF"/>
<path d="M501.887 61.9511C502.013 61.8254 502.088 61.7501 502.126 61.7124C502.075 61.7626 502 61.8506 501.887 61.9511Z" fill="#B0FFFF"/>
<path d="M501.549 62.3026C501.549 62.3026 501.649 62.2021 501.724 62.1267C501.661 62.1895 501.611 62.2523 501.549 62.3026Z" fill="#B0FFFF"/>
<path d="M501.31 62.5541C501.31 62.5541 501.436 62.4159 501.549 62.3154C501.423 62.441 501.348 62.5164 501.31 62.5541Z" fill="#B0FFFF"/>
<path d="M501.724 62.127C501.724 62.127 501.837 62.0014 501.9 61.9512C501.85 62.0014 501.799 62.0517 501.724 62.127Z" fill="#B0FFFF"/>
<path d="M501.825 67.8298C503.43 69.3748 505.976 69.3246 507.519 67.7168C509.062 66.1089 509.011 63.559 507.406 62.014C505.801 60.469 503.254 60.5193 501.712 62.1271C500.169 63.7349 500.219 66.2848 501.825 67.8298ZM506.666 67.2394C506.39 67.5158 506.49 67.4278 506.666 67.2394V67.2394ZM502.389 62.7803C503.568 61.5493 505.525 61.5116 506.741 62.6923C507.97 63.8731 508.008 65.8326 506.829 67.051C505.65 68.282 503.693 68.3197 502.477 67.1389C501.248 65.9582 501.21 63.9987 502.389 62.7803Z" fill="#B0FFFF"/>
<path d="M433.104 91.5075C433.205 91.4318 433.218 91.4066 433.104 91.5075V91.5075Z" fill="#B0FFFF"/>
<path d="M415.796 85.7295C414.203 87.287 414.165 89.8369 415.72 91.4322C417.263 93.0275 419.822 93.0651 421.415 91.5076C421.239 91.6834 421.064 91.8467 421.001 91.9221C421.051 91.8718 421.176 91.7462 421.415 91.5076C421.653 91.2689 421.779 91.1559 421.829 91.093C421.753 91.1684 421.59 91.3317 421.415 91.5076C422.845 90.1133 423.008 87.9277 421.916 86.3324L432.891 75.6304C434.446 76.7609 436.641 76.6604 438.071 75.2661C439.664 73.7211 439.702 71.1586 438.146 69.5634C436.591 67.9681 434.045 67.9305 432.452 69.488C431.022 70.8823 430.859 73.0679 431.95 74.6632L420.976 85.3652C419.421 84.2347 417.226 84.3352 415.796 85.7295ZM416.297 86.5711C415.996 86.86 416.109 86.7595 416.297 86.5711V86.5711ZM420.763 90.8418C419.546 92.0351 417.589 91.9974 416.398 90.779C415.206 89.5606 415.244 87.6011 416.46 86.4078C417.677 85.2145 419.634 85.2522 420.813 86.4706C421.992 87.689 421.967 89.6485 420.75 90.8418H420.763ZM433.117 70.1914C434.334 68.9981 436.29 69.0358 437.482 70.2542C438.673 71.4727 438.636 73.4322 437.419 74.6255C436.202 75.8188 434.246 75.7811 433.054 74.5627C431.863 73.3443 431.9 71.3847 433.117 70.1914ZM432.954 70.3547C432.653 70.6436 432.766 70.5432 432.954 70.3547V70.3547Z" fill="#B0FFFF"/>
<path d="M438.071 75.2786C437.833 75.5172 437.708 75.6303 437.657 75.6931C437.733 75.6177 437.896 75.4544 438.071 75.2786Z" fill="#B0FFFF"/>
<path d="M438.071 75.2788C438.247 75.1029 438.422 74.9396 438.485 74.8643C438.435 74.9145 438.309 75.0401 438.071 75.2788Z" fill="#B0FFFF"/>
<path d="M486.56 107.535C486.761 107.372 486.886 107.284 486.962 107.221C486.585 107.51 485.394 108.477 486.56 107.535Z" fill="#B0FFFF"/>
<path d="M486.56 107.535C485.005 108.779 484.616 110.939 485.544 112.635L463.219 130.422C461.789 129.14 459.594 129.027 458.039 130.258C458.089 130.208 458.152 130.17 458.202 130.12C458.152 130.158 458.101 130.195 458.039 130.258C457.989 130.296 457.964 130.321 457.926 130.346C457.964 130.321 458.001 130.283 458.039 130.258C456.295 131.64 456.007 134.19 457.399 135.923C458.779 137.669 461.325 137.958 463.056 136.564C464.611 135.32 465 133.16 464.072 131.464L486.397 113.678C487.827 114.959 490.022 115.072 491.577 113.841C493.321 112.459 493.609 109.909 492.217 108.176C490.837 106.43 488.291 106.141 486.56 107.535ZM462.103 136.112C462.103 136.112 462.165 136.062 462.215 136.024C462.165 136.074 462.128 136.099 462.103 136.112ZM462.466 135.823C461.137 136.878 459.193 136.664 458.139 135.333C457.086 134.001 457.299 132.055 458.628 130.999C459.958 129.944 461.902 130.158 462.955 131.489C464.009 132.821 463.796 134.768 462.466 135.823ZM490.988 113.1C491.076 113.025 491.163 112.962 491.239 112.899C491.176 112.949 491.101 113.012 490.988 113.1C489.658 114.155 487.714 113.941 486.661 112.61C485.607 111.266 485.833 109.332 487.162 108.264C488.492 107.209 490.436 107.422 491.49 108.754C492.543 110.085 492.33 112.032 491 113.087L490.988 113.1Z" fill="#B0FFFF"/>
<path d="M486.949 107.22C487.061 107.133 487.098 107.108 486.949 107.22V107.22Z" fill="#B0FFFF"/>
<path d="M458.415 129.957C458.415 129.957 458.465 129.907 458.491 129.894C458.478 129.907 458.453 129.932 458.415 129.957Z" fill="#B0FFFF"/>
<path d="M457.926 130.346C457.286 130.849 457.562 130.635 457.926 130.346V130.346Z" fill="#B0FFFF"/>
<path d="M458.202 130.133C458.289 130.057 458.365 130.007 458.415 129.969C458.352 130.02 458.289 130.07 458.202 130.133Z" fill="#B0FFFF"/>
<path d="M617.567 208.074C617.567 205.851 615.761 204.042 613.541 204.042C611.321 204.042 609.514 205.851 609.514 208.074C609.514 210.071 610.969 211.717 612.863 212.043V240.469C610.969 240.795 609.514 242.441 609.514 244.438C609.514 246.661 611.321 248.47 613.541 248.47C615.761 248.47 617.567 246.661 617.567 244.438C617.567 242.441 616.112 240.795 614.218 240.469V212.043C616.112 211.717 617.567 210.071 617.567 208.074ZM610.455 208.074C610.455 206.366 611.835 204.984 613.541 204.984C615.246 204.984 616.626 206.366 616.626 208.074C616.626 209.543 615.598 210.774 614.218 211.076V211.038H612.863V211.076C611.484 210.762 610.455 209.543 610.455 208.074ZM616.614 244.426C616.614 246.134 615.234 247.516 613.528 247.516C611.822 247.516 610.443 246.134 610.443 244.426C610.443 242.717 611.822 241.336 613.528 241.336C615.234 241.336 616.614 242.717 616.614 244.426Z" fill="#B0FFFF"/>
<path d="M628.905 208.074C628.905 205.851 627.099 204.042 624.879 204.042C622.659 204.042 620.853 205.851 620.853 208.074C620.853 210.071 622.308 211.717 624.201 212.043V240.469C622.308 240.795 620.853 242.441 620.853 244.438C620.853 246.661 622.659 248.47 624.879 248.47C627.099 248.47 628.905 246.661 628.905 244.438C628.905 242.441 627.45 240.795 625.556 240.469V212.043C627.45 211.717 628.905 210.071 628.905 208.074ZM621.793 208.074C621.793 206.366 623.173 204.984 624.879 204.984C626.585 204.984 627.964 206.366 627.964 208.074C627.964 209.543 626.936 210.774 625.556 211.076V211.038H624.201V211.076C622.822 210.762 621.793 209.543 621.793 208.074ZM627.964 244.426C627.964 246.134 626.585 247.516 624.879 247.516C623.173 247.516 621.793 246.134 621.793 244.426C621.793 242.717 623.173 241.336 624.879 241.336C626.585 241.336 627.964 242.717 627.964 244.426Z" fill="#B0FFFF"/>
<path d="M640.256 208.074C640.256 205.851 638.45 204.042 636.23 204.042C634.01 204.042 632.203 205.851 632.203 208.074C632.203 210.071 633.658 211.717 635.552 212.043V240.469C633.658 240.795 632.203 242.441 632.203 244.438C632.203 246.661 634.01 248.47 636.23 248.47C638.45 248.47 640.256 246.661 640.256 244.438C640.256 242.441 638.801 240.795 636.907 240.469V212.043C638.801 211.717 640.256 210.071 640.256 208.074ZM633.144 208.074C633.144 206.366 634.524 204.984 636.23 204.984C637.935 204.984 639.315 206.366 639.315 208.074C639.315 209.543 638.286 210.774 636.907 211.076V211.038H635.552V211.076C634.173 210.762 633.144 209.543 633.144 208.074ZM639.302 244.426C639.302 246.134 637.923 247.516 636.217 247.516C634.511 247.516 633.132 246.134 633.132 244.426C633.132 242.717 634.511 241.336 636.217 241.336C637.923 241.336 639.302 242.717 639.302 244.426Z" fill="#B0FFFF"/>
<path d="M465.915 184.735V183.379H442.712L430.019 168.356C431.261 166.874 431.311 164.675 430.019 163.156C428.589 161.46 426.043 161.246 424.337 162.678C422.644 164.11 422.431 166.66 423.86 168.368C425.14 169.888 427.322 170.202 428.978 169.223L442.085 184.723H465.915V184.735ZM424.588 167.765C424.864 168.092 425.14 168.419 424.588 167.765C424.036 167.112 424.312 167.439 424.588 167.765C423.484 166.472 423.647 164.512 424.952 163.419C426.244 162.314 428.2 162.477 429.291 163.784C430.395 165.077 430.232 167.037 428.928 168.13C427.636 169.235 425.679 169.072 424.588 167.765Z" fill="#B0FFFF"/>
<path d="M469.941 180.025C467.721 180.025 465.915 181.834 465.915 184.057C465.915 186.281 467.721 188.089 469.941 188.089C472.161 188.089 473.968 186.281 473.968 184.057C473.968 181.834 472.161 180.025 469.941 180.025ZM469.941 187.147C468.236 187.147 466.856 185.766 466.856 184.057C466.856 182.349 468.236 180.967 469.941 180.967C471.647 180.967 473.027 182.349 473.027 184.057C473.027 185.766 471.647 187.147 469.941 187.147Z" fill="#B0FFFF"/>
<path d="M430.006 163.168C429.291 162.314 429.643 162.741 430.006 163.168V163.168Z" fill="#B0FFFF"/>
<path d="M430.006 163.168C430.132 163.319 430.257 163.457 430.332 163.558C430.27 163.482 430.169 163.357 430.006 163.168Z" fill="#B0FFFF"/>
<path d="M430.358 163.583C430.421 163.658 430.446 163.684 430.358 163.583V163.583Z" fill="#B0FFFF"/>
<path d="M430.333 163.545C430.333 163.545 430.359 163.572 430.359 163.585C430.359 163.585 430.333 163.558 430.333 163.545Z" fill="#B0FFFF"/>
<path d="M551.944 211.805C552.021 211.83 552.034 211.83 551.944 211.805V211.805Z" fill="#B0FFFF"/>
<path d="M551.831 211.767C551.831 211.767 551.919 211.792 551.944 211.805C551.919 211.805 551.869 211.78 551.831 211.767Z" fill="#B0FFFF"/>
<path d="M551.306 211.604C551.306 211.604 551.192 211.566 551.142 211.553C551.192 211.566 551.243 211.591 551.306 211.604Z" fill="#B0FFFF"/>
<path d="M551.142 211.553C551.004 211.503 550.891 211.478 550.841 211.453C550.878 211.465 550.979 211.503 551.142 211.553Z" fill="#B0FFFF"/>
<path d="M551.305 211.604C551.305 211.604 551.367 211.629 551.405 211.641C551.606 211.704 551.731 211.742 551.831 211.779C551.693 211.729 551.493 211.666 551.305 211.604Z" fill="#B0FFFF"/>
<path d="M516.876 255.254V229.189L533.381 216.151C534.874 216.151 543.089 216.101 546.212 216.151C546.463 217.583 547.454 218.839 548.922 219.316C551.029 220.007 553.311 218.839 554.001 216.729C554.691 214.618 553.525 212.332 551.418 211.642C549.31 210.951 547.028 212.119 546.338 214.229C546.275 214.418 546.25 214.606 546.212 214.794C542.751 214.744 533.243 214.794 533.143 214.794H532.905L515.772 228.323L515.521 228.524V255.241C513.627 255.568 512.172 257.213 512.172 259.21C512.172 261.434 513.978 263.242 516.198 263.242C518.418 263.242 520.224 261.434 520.224 259.21C520.224 257.213 518.769 255.568 516.876 255.241V255.254ZM547.228 214.518C547.755 212.898 549.499 212.006 551.117 212.533C552.734 213.061 553.625 214.807 553.098 216.427C552.571 218.048 550.828 218.939 549.21 218.412C548.407 218.148 548.809 218.286 549.21 218.412C547.592 217.884 546.702 216.138 547.228 214.518ZM516.198 262.3C514.492 262.3 513.113 260.919 513.113 259.21C513.113 257.502 514.492 256.133 516.186 256.12C517.879 256.12 519.259 257.502 519.259 259.21C519.259 260.919 517.879 262.3 516.173 262.3H516.198Z" fill="#B0FFFF"/>
<path d="M533.03 242.705C532.968 242.755 532.892 242.805 532.83 242.856C532.892 242.805 532.942 242.768 533.03 242.705Z" fill="#B0FFFF"/>
<path d="M532.829 242.856C532.742 242.919 532.679 242.982 532.629 243.007C532.679 242.969 532.754 242.906 532.829 242.856Z" fill="#B0FFFF"/>
<path d="M532.63 243.019C532.63 243.019 532.592 243.044 532.579 243.057C532.592 243.057 532.605 243.031 532.63 243.019Z" fill="#B0FFFF"/>
<path d="M533.444 242.378C533.544 242.303 533.569 242.278 533.444 242.378V242.378Z" fill="#B0FFFF"/>
<path d="M533.03 242.705C533.243 242.542 533.369 242.441 533.444 242.378C533.344 242.454 533.193 242.579 533.03 242.705Z" fill="#B0FFFF"/>
<path d="M532.58 243.057C532.503 243.121 532.516 243.108 532.58 243.057V243.057Z" fill="#B0FFFF"/>
<path d="M564.035 267.953L591.478 247.692L565.139 228.185H543.992L533.319 236.513L533.733 237.04C532.365 235.294 529.832 234.98 528.088 236.337C526.333 237.706 526.019 240.243 527.386 242.002C528.753 243.76 531.287 244.074 533.043 242.705C534.799 241.336 535.112 238.799 533.745 237.053L534.159 237.58L544.469 229.541H564.712L589.22 247.692L563.245 266.873C561.853 265.529 559.67 265.34 558.065 266.521C556.271 267.84 555.895 270.377 557.212 272.161C558.529 273.957 561.063 274.334 562.844 273.015C564.449 271.834 564.913 269.686 564.035 267.953ZM528.966 236.852C528.966 236.852 528.904 236.902 528.866 236.927C528.916 236.889 528.941 236.864 528.966 236.852ZM532.453 241.964C531.111 243.007 529.167 242.768 528.126 241.424C527.085 240.08 527.323 238.133 528.665 237.09C528.59 237.153 528.527 237.203 528.465 237.254C528.515 237.216 528.59 237.153 528.665 237.09C530.007 236.048 531.952 236.286 532.993 237.63C534.034 238.975 533.795 240.921 532.453 241.964ZM528.339 237.354C528.339 237.354 528.352 237.354 528.364 237.342C528.364 237.342 528.352 237.342 528.339 237.354ZM562.405 272.161C562.405 272.161 562.467 272.111 562.492 272.098C562.467 272.111 562.43 272.148 562.405 272.161ZM562.292 272.249C560.925 273.254 558.993 272.965 557.977 271.596C556.974 270.226 557.262 268.292 558.629 267.275C559.997 266.27 561.928 266.559 562.944 267.928C563.947 269.297 563.659 271.231 562.292 272.249Z" fill="#B0FFFF"/>
<path d="M558.328 266.32C558.592 266.131 558.717 266.031 558.328 266.32V266.32Z" fill="#B0FFFF"/>
<path d="M558.052 266.508C558.165 266.432 558.253 266.357 558.316 266.307C558.228 266.37 558.14 266.432 558.052 266.508Z" fill="#B0FFFF"/>
<path d="M558.052 266.508C557.162 267.174 557.601 266.834 558.052 266.508V266.508Z" fill="#B0FFFF"/>
<path d="M567.284 241.011C567.372 240.947 567.423 240.909 567.448 240.884C567.41 240.909 567.347 240.96 567.284 241.011Z" fill="#B0FFFF"/>
<path d="M566.759 241.423C566.759 241.423 566.645 241.512 566.594 241.55C566.632 241.525 566.683 241.487 566.759 241.423Z" fill="#B0FFFF"/>
<path d="M566.593 241.537C566.444 241.649 566.481 241.624 566.593 241.537V241.537Z" fill="#B0FFFF"/>
<path d="M547.968 255.82C547.968 255.82 548.082 255.731 548.133 255.693C548.095 255.718 548.044 255.756 547.968 255.82Z" fill="#B0FFFF"/>
<path d="M547.429 256.234C547.504 256.171 547.592 256.108 547.718 256.02C547.818 255.945 547.893 255.882 547.968 255.832C547.805 255.957 547.592 256.12 547.442 256.234H547.429Z" fill="#B0FFFF"/>
<path d="M548.119 255.705C548.231 255.618 548.268 255.593 548.119 255.705V255.705Z" fill="#B0FFFF"/>
<path d="M552.609 262.413C554.19 261.207 554.616 259.047 553.713 257.338L566.657 247.415L566.243 246.875C567.597 248.646 570.131 248.973 571.887 247.629C573.655 246.272 573.982 243.735 572.64 241.976C571.285 240.205 568.751 239.879 566.995 241.223C567.096 241.147 567.196 241.072 567.284 241.009C567.209 241.072 567.121 241.135 566.995 241.223C566.895 241.298 566.82 241.361 566.745 241.411C566.82 241.348 566.908 241.285 566.995 241.223C565.227 242.579 564.901 245.104 566.243 246.875L565.829 246.335L552.885 256.258C551.48 254.939 549.285 254.789 547.705 256.007C545.937 257.364 545.61 259.901 546.953 261.659C548.295 263.418 550.841 263.757 552.597 262.413H552.609ZM567.572 241.976C568.927 240.946 570.859 241.197 571.9 242.554C572.928 243.911 572.677 245.845 571.323 246.888C569.968 247.918 568.036 247.666 566.995 246.31C565.954 244.953 566.218 243.019 567.572 241.976ZM571.561 246.699C571.561 246.699 571.561 246.699 571.548 246.699C571.548 246.699 571.548 246.699 571.561 246.699ZM570.971 247.151C570.971 247.151 570.996 247.126 571.009 247.114C570.996 247.126 570.971 247.139 570.971 247.151ZM547.705 261.094C546.677 259.738 546.927 257.803 548.282 256.761C549.637 255.731 551.568 255.982 552.597 257.338C553.625 258.695 553.374 260.629 552.02 261.672C552.17 261.559 552.308 261.458 552.371 261.408C552.321 261.446 552.22 261.521 552.02 261.672C551.882 261.772 551.794 261.848 551.731 261.886C551.807 261.823 551.907 261.747 552.02 261.672C550.665 262.702 548.734 262.451 547.693 261.094H547.705Z" fill="#B0FFFF"/>
<path d="M547.431 256.233C547.342 256.297 547.291 256.335 547.266 256.36C547.304 256.335 547.367 256.284 547.431 256.233Z" fill="#B0FFFF"/>
<path d="M551.129 247.377C552.546 248.696 554.729 248.847 556.309 247.629C558.078 246.272 558.404 243.735 557.062 241.976C555.707 240.205 553.173 239.879 551.417 241.223C549.837 242.428 549.411 244.589 550.314 246.297L537.32 256.258C535.902 254.939 533.72 254.789 532.14 256.007C530.371 257.364 530.045 259.901 531.387 261.659C532.729 263.418 535.275 263.757 537.031 262.413C538.612 261.207 539.038 259.047 538.135 257.338L551.129 247.377ZM551.994 241.976C553.349 240.946 555.281 241.197 556.309 242.554C557.338 243.911 557.087 245.845 555.732 246.888C555.82 246.825 555.908 246.749 555.983 246.699C555.92 246.749 555.845 246.8 555.732 246.888C554.377 247.918 552.446 247.666 551.417 246.31C550.389 244.953 550.64 243.019 551.994 241.976ZM555.494 247.063C555.281 247.227 555.343 247.177 555.494 247.063V247.063ZM536.454 261.659C536.617 261.534 536.768 261.421 536.818 261.383C536.78 261.408 536.68 261.496 536.454 261.659C536.116 261.923 535.777 262.174 536.454 261.659C535.1 262.689 533.168 262.438 532.127 261.082C531.099 259.725 531.349 257.791 532.704 256.748C534.059 255.718 535.99 255.969 537.031 257.326C538.06 258.682 537.809 260.617 536.454 261.659Z" fill="#B0FFFF"/>
<path d="M551.405 241.235C551.656 241.047 551.794 240.934 551.856 240.884C551.769 240.947 551.593 241.085 551.405 241.235Z" fill="#B0FFFF"/>
<path d="M551.405 241.235C551.204 241.398 551.003 241.549 550.928 241.599C550.978 241.562 551.116 241.449 551.405 241.235Z" fill="#B0FFFF"/>
<path d="M532.366 255.82C532.366 255.82 532.479 255.731 532.53 255.693C532.492 255.718 532.442 255.756 532.366 255.82Z" fill="#B0FFFF"/>
<path d="M531.839 256.234C531.914 256.171 532.002 256.108 532.127 256.02C532.227 255.945 532.303 255.882 532.378 255.832C532.215 255.957 532.002 256.12 531.851 256.234H531.839Z" fill="#B0FFFF"/>
<path d="M531.84 256.233C531.752 256.297 531.701 256.335 531.676 256.36C531.714 256.335 531.777 256.284 531.84 256.233Z" fill="#B0FFFF"/>
<path d="M532.529 255.705C532.64 255.618 532.678 255.593 532.529 255.705V255.705Z" fill="#B0FFFF"/>
</g>
<defs>
<radialGradient id="paint0_radial_453_196" cx="0" cy="0" r="1" gradientUnits="userSpaceOnUse" gradientTransform="translate(618.407 90.5614) scale(19.4534 19.4822)">
<stop stop-color="#CCCCCC"/>
<stop offset="0.04" stop-color="#C0C0C0"/>
<stop offset="0.3" stop-color="#7C7C7C"/>
<stop offset="0.54" stop-color="#464646"/>
<stop offset="0.74" stop-color="#202020"/>
<stop offset="0.9" stop-color="#080808"/>
<stop offset="1"/>
</radialGradient>
<radialGradient id="paint1_radial_453_196" cx="0" cy="0" r="1" gradientUnits="userSpaceOnUse" gradientTransform="translate(391.638 110.05) scale(0.627124 0.628053)">
<stop stop-color="#CCCCCC"/>
<stop offset="0.04" stop-color="#C0C0C0"/>
<stop offset="0.3" stop-color="#7C7C7C"/>
<stop offset="0.54" stop-color="#464646"/>
<stop offset="0.74" stop-color="#202020"/>
<stop offset="0.9" stop-color="#080808"/>
<stop offset="1"/>
</radialGradient>
<radialGradient id="paint2_radial_453_196" cx="0" cy="0" r="1" gradientUnits="userSpaceOnUse" gradientTransform="translate(470.495 183.911) scale(0.627124 0.628053)">
<stop stop-color="#CCCCCC"/>
<stop offset="0.04" stop-color="#C0C0C0"/>
<stop offset="0.3" stop-color="#7C7C7C"/>
<stop offset="0.54" stop-color="#464646"/>
<stop offset="0.74" stop-color="#202020"/>
<stop offset="0.9" stop-color="#080808"/>
<stop offset="1"/>
</radialGradient>
<radialGradient id="paint3_radial_453_196" cx="0" cy="0" r="1" gradientUnits="userSpaceOnUse" gradientTransform="translate(560.409 269.765) scale(0.627124 0.628053)">
<stop stop-color="#CCCCCC"/>
<stop offset="0.04" stop-color="#C0C0C0"/>
<stop offset="0.3" stop-color="#7C7C7C"/>
<stop offset="0.54" stop-color="#464646"/>
<stop offset="0.74" stop-color="#202020"/>
<stop offset="0.9" stop-color="#080808"/>
<stop offset="1"/>
</radialGradient>
<radialGradient id="paint4_radial_453_196" cx="0" cy="0" r="1" gradientUnits="userSpaceOnUse" gradientTransform="translate(577.061 153.855) scale(19.4534 19.4822)">
<stop stop-color="#CCCCCC"/>
<stop offset="0.04" stop-color="#C0C0C0"/>
<stop offset="0.3" stop-color="#7C7C7C"/>
<stop offset="0.54" stop-color="#464646"/>
<stop offset="0.74" stop-color="#202020"/>
<stop offset="0.9" stop-color="#080808"/>
<stop offset="1"/>
</radialGradient>
<linearGradient id="paint5_linear_453_196" x1="431.687" y1="194.822" x2="589.496" y2="194.822" gradientUnits="userSpaceOnUse">
<stop stop-color="#3DDEED"/>
<stop offset="1" stop-color="#3DDEED" stop-opacity="0"/>
</linearGradient>
<linearGradient id="paint6_linear_453_196" x1="528.013" y1="259.21" x2="627.061" y2="259.21" gradientUnits="userSpaceOnUse">
<stop stop-color="#3DDEED"/>
<stop offset="1" stop-color="#3DDEED" stop-opacity="0"/>
</linearGradient>
<linearGradient id="paint7_linear_453_196" x1="566.13" y1="187.486" x2="648.81" y2="187.486" gradientUnits="userSpaceOnUse">
<stop stop-color="#3DDEED"/>
<stop offset="1" stop-color="#3DDEED" stop-opacity="0"/>
</linearGradient>
<linearGradient id="paint8_linear_453_196" x1="495.24" y1="251.598" x2="577.029" y2="251.598" gradientUnits="userSpaceOnUse">
<stop stop-color="#3DDEED"/>
<stop offset="1" stop-color="#3DDEED" stop-opacity="0"/>
</linearGradient>
</defs>
</svg>
