<svg width="675" height="381" viewBox="0 0 675 381" fill="none" xmlns="http://www.w3.org/2000/svg">
<g opacity="0.4">
<path style="mix-blend-mode:color-dodge" d="M42.7714 104.333C35.1744 96.7249 35.1743 84.3894 42.7714 76.7811C50.3684 69.1729 62.6856 69.1729 70.2826 76.7812C77.8796 84.3894 77.8796 96.7249 70.2826 104.333C62.6856 111.941 50.3684 111.941 42.7714 104.333Z" fill="url(#paint0_radial_329_16850)"/>
<path style="mix-blend-mode:color-dodge" d="M264.355 114.517C261.888 104.045 268.364 93.5518 278.82 91.0802C289.277 88.6085 299.754 95.0941 302.222 105.566C304.69 116.038 298.214 126.531 287.757 129.003C277.301 131.474 266.823 124.989 264.355 114.517Z" fill="url(#paint1_radial_329_16850)"/>
<path style="mix-blend-mode:color-dodge" d="M190.694 197.688C183.097 190.08 183.097 177.744 190.694 170.136C198.291 162.528 210.608 162.528 218.205 170.136C225.802 177.744 225.802 190.08 218.205 197.688C210.608 205.296 198.291 205.296 190.694 197.688Z" fill="url(#paint2_radial_329_16850)"/>
<path style="mix-blend-mode:color-dodge" d="M95.5787 274.213C93.1107 263.741 99.5867 253.248 110.043 250.777C120.5 248.305 130.977 254.791 133.445 265.263C135.913 275.735 129.437 286.228 118.981 288.699C108.524 291.171 98.0466 284.685 95.5787 274.213Z" fill="url(#paint3_radial_329_16850)"/>
<path style="mix-blend-mode:color-dodge" d="M78.6906 156.994C76.9692 146.373 84.1708 136.366 94.7758 134.642C105.381 132.918 115.373 140.13 117.095 150.751C118.816 161.371 111.615 171.379 101.01 173.103C90.4046 174.827 80.4121 167.615 78.6906 156.994Z" fill="url(#paint4_radial_329_16850)"/>
<path d="M85.6149 114.054V275.426H220.083C228.938 264.975 233.905 259.109 242.76 248.658L243.086 120.611" stroke="url(#paint5_linear_329_16850)" stroke-width="0.27" stroke-miterlimit="10"/>
<path opacity="0.04" d="M77.8636 344.386H146.697V174.046H48.1129V314.591C59.7272 326.223 66.2493 332.755 77.8636 344.386Z" stroke="url(#paint6_linear_329_16850)" stroke-width="0.36" stroke-miterlimit="10"/>
<path opacity="0.1" d="M26.5899 97.0591H108.354V277.913H26.5899V97.0591Z" stroke="url(#paint7_linear_329_16850)" stroke-width="0.73" stroke-miterlimit="10"/>
<path opacity="0.8" d="M179.432 189.584V294.506C173.186 301.867 169.687 306 163.453 313.36H97.9062" stroke="url(#paint8_linear_329_16850)" stroke-width="0.41" stroke-miterlimit="10"/>
<path d="M81.7516 303.588C81.7516 303.588 81.576 303.463 81.4255 303.35C81.6137 303.475 81.714 303.551 81.7516 303.588Z" fill="#B0FFFF"/>
<path d="M80.7731 302.873C80.7731 302.873 80.9487 302.998 81.0992 303.111C80.911 302.973 80.8107 302.91 80.7731 302.873Z" fill="#B0FFFF"/>
<path d="M81.2627 303.236C83.0562 304.543 83.4701 307.068 82.1657 308.864L82.5545 308.324L99.4367 320.546V372.084C101.331 372.41 102.786 374.056 102.786 376.053C102.786 378.276 100.979 380.085 98.7594 380.085C96.5394 380.085 94.7333 378.276 94.7333 376.053C94.7333 374.056 96.1882 372.41 98.0821 372.084V321.236L81.7644 309.417L82.1532 308.876C80.8488 310.673 78.3277 311.087 76.5341 309.781C74.7406 308.474 74.3267 305.95 75.6311 304.153C76.9355 302.357 79.4565 301.943 81.2501 303.249L81.2627 303.236ZM95.6865 376.053C95.6865 377.761 97.0662 379.143 98.772 379.143C100.478 379.143 101.857 377.761 101.857 376.053C101.857 374.345 100.478 372.963 98.772 372.963C97.0662 372.963 95.6865 374.345 95.6865 376.053ZM77.0986 309.002C78.4782 309.994 80.4098 309.693 81.4006 308.311C82.3915 306.929 82.0905 304.995 80.7108 304.003C79.3311 303.01 77.3996 303.312 76.4087 304.694C75.4178 306.075 75.7189 308.01 77.0986 309.002ZM76.7599 308.751C76.7599 308.751 76.785 308.763 76.7975 308.776C76.7975 308.776 76.7724 308.763 76.7599 308.751ZM77.4121 309.216C77.4121 309.216 77.3494 309.165 77.2992 309.14C77.3494 309.178 77.3745 309.203 77.4121 309.216Z" fill="#B0FFFF"/>
<path d="M132.06 275.489C134.28 275.489 136.086 277.298 136.086 279.521C136.086 281.519 134.631 283.164 132.737 283.491V311.916C134.631 312.243 136.086 313.888 136.086 315.886C136.086 318.109 134.28 319.918 132.06 319.918C129.84 319.918 128.033 318.109 128.033 315.886C128.033 313.888 129.488 312.243 131.382 311.916V283.491C129.488 283.164 128.033 281.519 128.033 279.521C128.033 277.298 129.84 275.489 132.06 275.489ZM128.974 315.886C128.974 317.594 130.354 318.976 132.06 318.976C133.765 318.976 135.145 317.594 135.145 315.886C135.145 314.177 133.765 312.796 132.06 312.796C130.354 312.796 128.974 314.177 128.974 315.886ZM132.06 282.611C133.765 282.611 135.145 281.23 135.145 279.521C135.145 277.813 133.765 276.431 132.06 276.431C130.354 276.431 128.974 277.813 128.974 279.521C128.974 281.23 130.354 282.611 132.06 282.611Z" fill="#B0FFFF"/>
<path d="M72.0063 255.68C71.9067 255.605 71.8818 255.593 72.0063 255.68V255.68Z" fill="#B0FFFF"/>
<path d="M72.8829 256.346C72.9725 256.41 72.9597 256.397 72.8829 256.346V256.346Z" fill="#B0FFFF"/>
<path d="M72.2069 255.831C72.1191 255.768 72.0564 255.718 72.0062 255.68C72.0564 255.718 72.1317 255.768 72.2069 255.831Z" fill="#B0FFFF"/>
<path d="M72.4325 256.007C72.3573 255.944 72.282 255.894 72.2068 255.831C72.2695 255.881 72.3447 255.931 72.4325 256.007C72.5329 256.082 72.6081 256.145 72.6708 256.195C72.5956 256.132 72.5203 256.069 72.4325 256.007C74.0129 257.212 74.4393 259.373 73.5488 261.081L110.436 289.231L110.7 289.432V341.058H109.345V290.097L72.721 262.149C71.3162 263.468 69.1213 263.619 67.541 262.413C65.7725 261.069 65.4338 258.531 66.7759 256.76C68.1179 254.989 70.6515 254.65 72.42 255.994L72.4325 256.007ZM68.1179 261.672C68.005 261.596 67.9047 261.508 67.8294 261.458C67.8921 261.508 67.9799 261.571 68.1179 261.672C68.1932 261.734 68.2559 261.772 68.306 261.81C68.2433 261.772 68.1932 261.722 68.1179 261.672C69.4725 262.702 71.404 262.438 72.4325 261.081C73.461 259.725 73.1976 257.79 71.8556 256.76C70.501 255.73 68.5695 255.994 67.541 257.338C66.5125 258.695 66.7759 260.629 68.1179 261.659V261.672ZM68.4817 261.961C68.4817 261.961 68.4189 261.91 68.3562 261.86C68.4189 261.91 68.4566 261.935 68.4817 261.961Z" fill="#B0FFFF"/>
<path d="M72.6711 256.196C72.7589 256.258 72.8216 256.309 72.8718 256.346C72.8341 256.309 72.7589 256.258 72.6711 256.196Z" fill="#B0FFFF"/>
<path d="M110.023 341.071C112.243 341.071 114.049 342.879 114.049 345.103C114.049 347.326 112.243 349.135 110.023 349.135C107.803 349.135 105.996 347.326 105.996 345.103C105.996 342.879 107.803 341.071 110.023 341.071ZM110.023 348.193C111.728 348.193 113.108 346.811 113.108 345.103C113.108 343.394 111.728 342.013 110.023 342.013C108.317 342.013 106.937 343.394 106.937 345.103C106.937 346.811 108.317 348.193 110.023 348.193Z" fill="#B0FFFF"/>
<path d="M117.197 304.669C117.197 302.445 119.003 300.636 121.223 300.636C123.443 300.636 125.249 302.445 125.249 304.669C125.249 306.666 123.794 308.311 121.9 308.638V356.031C123.794 356.357 125.249 358.003 125.249 360C125.249 362.223 123.443 364.032 121.223 364.032C119.003 364.032 117.197 362.223 117.197 360C117.197 358.003 118.652 356.357 120.546 356.031V308.638C118.652 308.311 117.197 306.666 117.197 304.669ZM124.308 304.669C124.308 302.96 122.929 301.579 121.223 301.579C119.517 301.579 118.138 302.96 118.138 304.669C118.138 306.377 119.517 307.759 121.223 307.759C122.929 307.759 124.308 306.377 124.308 304.669ZM118.138 360C118.138 361.708 119.517 363.09 121.223 363.09C122.929 363.09 124.308 361.708 124.308 360C124.308 358.292 122.929 356.91 121.223 356.91C119.517 356.91 118.138 358.292 118.138 360Z" fill="#B0FFFF"/>
<path d="M302.286 184.183C303.039 183.367 302.662 183.769 302.286 184.183V184.183Z" fill="#B0FFFF"/>
<path d="M301.948 184.56C302.01 184.484 302.123 184.371 302.286 184.183C302.148 184.321 302.023 184.472 301.948 184.56Z" fill="#B0FFFF"/>
<path d="M301.947 184.559C301.847 184.673 301.821 184.698 301.947 184.559V184.559Z" fill="#B0FFFF"/>
<path d="M296.604 184.434C294.961 182.927 294.861 180.377 296.354 178.732C297.859 177.086 300.405 176.986 302.048 178.48C303.691 179.988 303.791 182.538 302.299 184.183C300.794 185.829 298.247 185.929 296.604 184.434ZM301.408 179.184C300.154 178.028 298.197 178.116 297.056 179.372C297.156 179.259 297.257 179.146 297.319 179.083C297.269 179.134 297.181 179.234 297.056 179.372C295.902 180.628 295.99 182.588 297.244 183.731C298.498 184.887 300.455 184.799 301.596 183.543C302.75 182.286 302.662 180.327 301.408 179.184ZM296.793 179.661C296.717 179.737 296.705 179.762 296.793 179.661V179.661Z" fill="#B0FFFF"/>
<path d="M208.268 202.108C210.249 202.007 211.968 203.376 212.394 205.26L221.688 204.796L234.67 211.943H270.503L296.103 183.969L297.093 184.886L271.093 213.3H234.318L221.374 206.165L212.469 206.605C212.244 208.514 210.663 210.059 208.682 210.159C208.907 210.159 209.133 210.134 209.246 210.134C209.158 210.134 208.983 210.147 208.682 210.159C208.682 210.159 208.669 210.159 208.656 210.159C208.656 210.159 208.669 210.159 208.682 210.159C206.461 210.272 204.568 208.551 204.455 206.328C204.342 204.105 206.06 202.208 208.28 202.095L208.268 202.108ZM208.619 209.217C210.312 209.129 211.629 207.685 211.541 205.989C211.453 204.281 210.011 202.974 208.305 203.062C209.158 203.025 208.732 203.037 208.305 203.062C208.117 203.062 207.992 203.075 207.916 203.087C208.004 203.087 208.155 203.087 208.305 203.062C206.612 203.15 205.295 204.595 205.383 206.303C205.471 207.999 206.913 209.318 208.619 209.23V209.217Z" fill="#B0FFFF"/>
<path d="M208.644 210.159C208.418 210.159 208.217 210.184 208.105 210.184C208.192 210.184 208.355 210.171 208.644 210.159Z" fill="#B0FFFF"/>
<path d="M75.2045 285.839C75.2045 285.839 75.1175 285.789 75.1051 285.764C75.13 285.777 75.1672 285.802 75.2045 285.839Z" fill="#B0FFFF"/>
<path d="M80.0331 279.358C81.7013 280.451 82.2657 282.574 81.5006 284.345L100.54 296.881V301.39C102.434 301.717 103.889 303.363 103.889 305.36C103.889 307.583 102.083 309.392 99.8628 309.392C97.6428 309.392 95.8367 307.583 95.8367 305.36C95.8367 303.363 97.2916 301.717 99.1855 301.39V297.61L80.7606 285.476C79.4436 286.882 77.2738 287.196 75.6056 286.104C73.7494 284.885 73.2351 282.373 74.4517 280.514C75.6683 278.655 78.1768 278.14 80.0331 279.358ZM96.7774 305.36C96.7774 307.068 98.157 308.45 99.8628 308.45C101.569 308.45 102.948 307.068 102.948 305.36C102.948 303.651 101.569 302.27 99.8628 302.27C98.157 302.27 96.7774 303.651 96.7774 305.36ZM76.1199 285.3C77.5372 286.229 79.4562 285.84 80.3843 284.42C81.3125 283.001 80.9236 281.079 79.5063 280.15C78.089 279.22 76.17 279.61 75.2419 281.029C74.3138 282.448 74.7026 284.37 76.1199 285.3Z" fill="#B0FFFF"/>
<path d="M75.9955 286.367C75.9955 286.367 76.0825 286.417 76.0949 286.442C76.0701 286.429 76.0328 286.405 75.9955 286.367Z" fill="#B0FFFF"/>
<path d="M75.6058 286.104C75.7563 286.204 75.8943 286.292 76.0072 286.368C75.9194 286.317 75.8065 286.229 75.6058 286.104Z" fill="#B0FFFF"/>
<path d="M75.606 286.103C75.4555 286.003 75.3175 285.915 75.2046 285.84C75.2924 285.89 75.4053 285.978 75.606 286.103Z" fill="#B0FFFF"/>
<path d="M17.1702 217.055C17.1702 216.779 17.1828 216.515 17.1828 216.44C17.1828 216.49 17.1828 216.666 17.1702 217.055Z" fill="#B0FFFF"/>
<path d="M21.2973 213.124C23.5174 213.174 25.2733 215.033 25.2231 217.256C25.173 219.229 23.718 220.824 21.8492 221.125L21.2472 242.203L48.7152 269.071H57.4448C57.7709 267.174 59.4139 265.717 61.4082 265.717C63.6282 265.717 65.4343 267.526 65.4343 269.749C65.4343 271.972 63.6282 273.781 61.4082 273.781C59.4139 273.781 57.7709 272.324 57.4448 270.427H48.1633L20.0933 242.969L19.88 242.768L20.4946 221.113C18.5631 220.774 17.1207 219.078 17.1709 217.055C17.2211 214.832 19.0773 213.074 21.2973 213.124ZM61.3956 272.839C63.1014 272.839 64.4811 271.457 64.4811 269.749C64.4811 268.041 63.1014 266.659 61.3956 266.659C59.6899 266.659 58.3102 268.041 58.3102 269.749C58.3102 271.457 59.6899 272.839 61.3956 272.839ZM21.0841 220.233H21.1343C22.8275 220.271 24.2323 218.927 24.2699 217.231C24.2699 217.319 24.2699 217.395 24.2699 217.47C24.2699 217.407 24.2699 217.332 24.2699 217.231C24.3075 215.523 22.9655 214.116 21.2723 214.066C19.5665 214.028 18.1618 215.372 18.1116 217.081C18.074 218.776 19.4035 220.183 21.0967 220.246L21.0841 220.233ZM24.2699 216.993C24.2699 216.591 24.2699 216.729 24.2699 216.993V216.993Z" fill="#B0FFFF"/>
<path d="M17.1704 217.055C17.1579 217.608 17.1453 218.161 17.1704 217.055V217.055Z" fill="#B0FFFF"/>
<path d="M89.7546 220.345C89.9037 220.221 89.8664 220.246 89.7546 220.345V220.345Z" fill="#B0FFFF"/>
<path d="M94.7332 226.715C93.0776 228.197 90.5189 228.046 89.0515 226.375C87.5715 224.717 87.722 222.155 89.3901 220.685C88.9762 221.05 88.5623 221.426 89.3901 220.685C89.5782 220.522 89.6912 220.421 89.7664 220.346C89.6786 220.434 89.5406 220.547 89.3901 220.685C91.0457 219.203 93.6044 219.354 95.0719 221.024L94.6203 220.522L116.018 201.467V176.257L104.128 166.459H56.4661C56.14 168.356 54.4969 169.813 52.5027 169.813C50.2827 169.813 48.4766 168.004 48.4766 165.781C48.4766 163.558 50.2827 161.749 52.5027 161.749C54.4969 161.749 56.14 163.206 56.4661 165.103H104.617L117.372 175.604V202.057L95.5234 221.514L95.0719 221.012C96.5519 222.67 96.4014 225.232 94.7332 226.702V226.715ZM52.5152 162.691C50.8095 162.691 49.4298 164.073 49.4298 165.781C49.4298 167.489 50.8095 168.871 52.5152 168.871C54.221 168.871 55.5881 167.489 55.6007 165.793C55.6007 164.085 54.221 162.703 52.5152 162.703V162.691ZM93.8678 226.225C93.7298 226.338 93.6922 226.388 93.8678 226.225V226.225ZM94.4698 225.685C94.4698 225.685 94.4071 225.735 94.3695 225.773C94.4196 225.722 94.4573 225.685 94.4698 225.685ZM90.0172 221.389C88.7504 222.519 88.6376 224.479 89.7664 225.747C90.8952 227.016 92.8519 227.129 94.1186 225.999C95.3854 224.868 95.4983 222.909 94.3695 221.64C93.2407 220.371 91.284 220.258 90.0172 221.389Z" fill="#B0FFFF"/>
<path d="M23.028 174.31C23.0907 174.247 23.2161 174.121 23.4042 173.933C23.5924 173.745 23.7179 173.619 23.7806 173.556C23.6175 173.719 23.191 174.147 23.0154 174.322L23.028 174.31Z" fill="#B0FFFF"/>
<path d="M23.7926 173.544C23.8935 173.443 23.8809 173.455 23.7926 173.544V173.544Z" fill="#B0FFFF"/>
<path d="M23.0277 174.31C22.9394 174.398 22.9142 174.423 23.0277 174.31V174.31Z" fill="#B0FFFF"/>
<path d="M3.36108 217.105V187.361L17.2958 173.406C16.1795 171.835 16.3175 169.637 17.7222 168.23C19.29 166.66 21.8487 166.66 23.4165 168.23C24.9843 169.8 24.9843 172.363 23.4165 173.933C22.0117 175.34 19.8168 175.478 18.249 174.36L4.71569 187.914V217.105C6.6096 217.432 8.06451 219.078 8.06451 221.075C8.06451 223.298 6.25836 225.107 4.03834 225.107C1.81833 225.107 0.0122566 223.298 0.0122566 221.075C0.0122566 219.078 1.46716 217.432 3.36108 217.105ZM22.7518 173.267C23.9559 172.061 23.9559 170.102 22.7518 168.896C21.5477 167.69 19.591 167.69 18.3869 168.896C18.4246 168.858 18.4622 168.821 18.4999 168.783C18.4622 168.821 18.4371 168.846 18.3869 168.896C18.2991 168.984 18.2239 169.059 18.1737 169.11L18.3869 168.896C17.1829 170.102 17.1829 172.061 18.3869 173.255C19.591 174.461 21.5477 174.461 22.7392 173.255L22.7518 173.267ZM4.03834 224.165C5.74412 224.165 7.12382 222.783 7.12382 221.075C7.12382 219.366 5.74413 217.985 4.0509 217.985C2.35766 217.985 0.977976 219.366 0.977976 221.075C0.977976 222.783 2.35768 224.165 4.06345 224.165H4.03834Z" fill="#B0FFFF"/>
<path d="M181.753 50.6713H120.646C120.32 52.5681 118.677 54.0251 116.682 54.0251C114.462 54.0251 112.656 52.2163 112.656 49.993C112.656 47.7697 114.462 45.9609 116.682 45.9609C118.677 45.9609 120.32 47.418 120.646 49.3147H182.217L198.045 61.8884L197.205 62.9435L181.74 50.6588L181.753 50.6713ZM116.695 46.903C114.989 46.903 113.609 48.2847 113.609 49.993C113.609 51.7013 114.989 53.0831 116.695 53.0831C118.401 53.0831 119.78 51.7013 119.78 49.993C119.78 48.2847 118.401 46.903 116.695 46.903Z" fill="#B0FFFF"/>
<path d="M198.284 68.0813C198.196 68.006 198.108 67.9432 198.033 67.8804C198.096 67.9306 198.184 67.9934 198.284 68.0813Z" fill="#B0FFFF"/>
<path d="M198.033 67.88C197.769 67.679 197.632 67.5659 198.033 67.88V67.88Z" fill="#B0FFFF"/>
<path d="M198.284 68.0808C198.422 68.1939 198.572 68.3069 198.66 68.3823C198.585 68.3195 198.459 68.2315 198.284 68.0808Z" fill="#B0FFFF"/>
<path d="M198.659 68.3826C198.836 68.5221 198.798 68.484 198.659 68.3826V68.3826Z" fill="#B0FFFF"/>
<path d="M198.284 68.0812C196.54 66.6994 196.252 64.1621 197.632 62.4161C199.011 60.6701 201.545 60.3812 203.288 61.7629C205.032 63.1447 205.32 65.682 203.94 67.428C202.561 69.174 200.027 69.4629 198.284 68.0812ZM202.699 62.5041C202.699 62.5041 202.774 62.5669 202.812 62.592C202.774 62.5669 202.749 62.5417 202.699 62.5041C202.573 62.4036 202.498 62.3533 202.435 62.3031C202.511 62.3659 202.598 62.4287 202.699 62.5041C201.369 61.4489 199.425 61.675 198.372 63.0065C197.318 64.338 197.544 66.2849 198.873 67.3401C200.203 68.3952 202.147 68.1691 203.2 66.8376C204.254 65.5061 204.028 63.5592 202.699 62.5041ZM202.912 62.6673C203.175 62.8809 203.088 62.8055 202.912 62.6673V62.6673ZM202.373 62.2403C202.31 62.19 202.285 62.1775 202.373 62.2403V62.2403Z" fill="#B0FFFF"/>
<path d="M281.177 181.809C279.609 180.238 279.609 177.676 281.177 176.106C282.745 174.536 285.304 174.536 286.871 176.106C288.439 177.676 288.439 180.238 286.871 181.809C285.304 183.379 282.745 183.379 281.177 181.809ZM286.207 176.772C285.003 175.566 283.046 175.566 281.842 176.772C280.638 177.977 280.638 179.937 281.842 181.143C283.046 182.349 285.003 182.349 286.207 181.143C287.411 179.937 287.411 177.977 286.207 176.772Z" fill="#B0FFFF"/>
<path d="M265.273 203.438C265.185 203.527 265.172 203.539 265.273 203.438V203.438Z" fill="#B0FFFF"/>
<path d="M259.968 203.049C258.4 201.479 258.4 198.917 259.968 197.346C261.373 195.94 263.567 195.801 265.135 196.919L280.701 181.331L281.654 182.286L266.089 197.874C267.205 199.444 267.067 201.642 265.662 203.049C265.813 202.898 265.951 202.76 266.038 202.672C265.976 202.735 265.85 202.861 265.662 203.049L265.286 203.426C265.374 203.338 265.524 203.187 265.662 203.049C264.094 204.619 261.536 204.619 259.968 203.049ZM264.997 198.012C263.793 196.806 261.837 196.806 260.645 198.012C259.441 199.218 259.441 201.178 260.645 202.383C261.849 203.589 263.806 203.589 265.01 202.383C266.214 201.178 266.214 199.218 265.01 198.025L264.997 198.012Z" fill="#B0FFFF"/>
<path d="M272.811 176.207C272.924 176.094 272.899 176.119 272.811 176.207V176.207Z" fill="#B0FFFF"/>
<path d="M272.046 176.973C271.958 177.061 271.933 177.086 272.046 176.973V176.973Z" fill="#B0FFFF"/>
<path d="M240.238 203.138C238.671 201.568 238.671 199.005 240.238 197.435C241.643 196.028 243.838 195.89 245.406 197.008L266.314 176.069C265.198 174.498 265.336 172.3 266.741 170.893C268.308 169.323 270.867 169.323 272.435 170.893C274.003 172.464 274.003 175.026 272.435 176.596C271.03 178.003 268.835 178.141 267.267 177.023L246.359 197.963C247.475 199.533 247.337 201.731 245.933 203.138C244.365 204.708 241.806 204.708 240.238 203.138ZM267.518 171.446C267.895 171.069 267.744 171.22 267.518 171.446V171.446ZM271.77 175.918C272.974 174.712 272.974 172.752 271.77 171.547C270.566 170.341 268.609 170.341 267.405 171.547C266.201 172.752 266.201 174.712 267.405 175.918C268.609 177.124 270.566 177.124 271.77 175.918ZM245.268 198.101C244.064 196.895 242.107 196.895 240.916 198.101C239.712 199.307 239.712 201.266 240.916 202.472C242.12 203.678 244.076 203.678 245.28 202.472C246.485 201.266 246.485 199.307 245.28 198.113L245.268 198.101Z" fill="#B0FFFF"/>
<path d="M158.261 213.111L158.06 212.91V195.4H187.748C188.074 193.503 189.717 192.046 191.712 192.046C193.932 192.046 195.738 193.855 195.738 196.078C195.738 198.302 193.932 200.11 191.712 200.11C189.717 200.11 188.074 198.653 187.748 196.757H159.415V212.357L183.271 236.249C184.838 235.131 187.033 235.269 188.438 236.676C190.006 238.246 190.006 240.808 188.438 242.378C186.87 243.948 184.312 243.948 182.744 242.378C181.339 240.971 181.201 238.773 182.317 237.203L158.261 213.111ZM191.712 199.168C193.417 199.168 194.797 197.787 194.797 196.078C194.797 194.37 193.417 192.988 191.712 192.988C190.006 192.988 188.626 194.37 188.626 196.066C188.626 197.774 190.006 199.156 191.712 199.156V199.168ZM183.421 241.713C184.625 242.918 186.582 242.918 187.786 241.713C188.99 240.507 188.99 238.547 187.786 237.341C186.582 236.135 184.625 236.135 183.434 237.341C182.229 238.547 182.229 240.507 183.434 241.713H183.421Z" fill="#B0FFFF"/>
<path d="M12.2911 193.503C14.5111 193.503 16.3173 195.312 16.3173 197.535C16.3173 199.532 14.8623 201.178 12.9684 201.505V229.44C14.8623 229.767 16.3173 231.412 16.3173 233.41C16.3173 235.633 14.5111 237.442 12.2911 237.442C10.0711 237.442 8.26493 235.633 8.26493 233.41C8.26493 231.412 9.71992 229.767 11.6138 229.44V201.505C9.71992 201.178 8.26493 199.532 8.26493 197.535C8.26493 195.312 10.0711 193.503 12.2911 193.503ZM9.20562 233.397C9.20562 235.105 10.5853 236.487 12.2911 236.487C13.9969 236.487 15.3766 235.105 15.3766 233.397C15.3766 231.689 13.9969 230.307 12.2911 230.307C10.5853 230.307 9.20562 231.689 9.20562 233.397ZM12.2785 200.625C13.9718 200.625 15.3515 199.244 15.3515 197.535C15.3515 195.827 13.9718 194.445 12.266 194.445C10.5602 194.445 9.18059 195.827 9.18059 197.535C9.18059 199.244 10.5603 200.613 12.2535 200.625H12.2785Z" fill="#B0FFFF"/>
<path d="M47.1342 102.398C44.9142 102.398 43.1081 100.589 43.1081 98.3657V99.044H22.1872L13.5329 112.635V153.195H37.0752L48.7271 137.443C47.3976 136.049 47.2095 133.863 48.3885 132.255C49.7054 130.472 52.239 130.095 54.0201 131.414C55.8011 132.733 56.1773 135.27 54.8604 137.054C53.6814 138.649 51.5241 139.114 49.8058 138.247L37.7525 154.551H12.1784V112.246L21.4472 97.7H43.1081V98.3783C43.1081 96.155 44.9142 94.3462 47.1342 94.3462C49.3542 94.3462 51.1604 96.155 51.1604 98.3783C51.1604 100.602 49.3542 102.41 47.1342 102.41V102.398ZM54.0953 136.489C55.1112 135.119 54.8228 133.185 53.4556 132.168C52.0885 131.15 50.157 131.439 49.141 132.808C48.1251 134.177 48.4136 136.112 49.7807 137.129C51.1478 138.147 53.0794 137.858 54.0953 136.489ZM47.1342 95.2757C45.4284 95.2757 44.0488 96.6574 44.0488 98.3657C44.0488 100.074 45.4284 101.456 47.1342 101.456C48.84 101.456 50.2197 100.074 50.2197 98.3657C50.2197 96.6574 48.84 95.2757 47.1342 95.2757Z" fill="#B0FFFF"/>
<path d="M48.3885 132.243C48.5014 132.092 48.6143 131.942 48.6895 131.841C48.6268 131.916 48.539 132.042 48.3885 132.243Z" fill="#B0FFFF"/>
<path d="M48.1879 132.507C48.1127 132.607 48.0625 132.67 48.0374 132.708C48.0751 132.658 48.1252 132.595 48.1879 132.507Z" fill="#B0FFFF"/>
<path d="M48.3888 132.243C48.3261 132.331 48.2634 132.419 48.2007 132.494C48.2508 132.419 48.3135 132.343 48.3888 132.243Z" fill="#B0FFFF"/>
<path d="M48.6772 131.841C48.7904 131.678 48.7652 131.716 48.6772 131.841V131.841Z" fill="#B0FFFF"/>
<path d="M4.02616 129.379C6.24618 129.379 8.05225 131.188 8.05225 133.411C8.05225 135.409 6.59734 137.054 4.70343 137.381V158.019C6.59734 158.345 8.05225 159.991 8.05225 161.988C8.05225 164.211 6.24618 166.02 4.02616 166.02C1.80614 166.02 -2.86102e-06 164.211 -2.86102e-06 161.988C-2.86102e-06 159.991 1.4549 158.345 3.34882 158.019V137.381C1.4549 137.054 -2.86102e-06 135.409 -2.86102e-06 133.411C-2.86102e-06 131.188 1.80614 129.379 4.02616 129.379ZM0.940683 161.975C0.940683 163.684 2.32038 165.065 4.02616 165.065C5.73194 165.065 7.11156 163.684 7.11156 161.975C7.11156 160.267 5.73194 158.885 4.02616 158.885C2.33293 158.885 0.940683 160.267 0.940683 161.975ZM4.02616 136.502C5.73194 136.502 7.11156 135.12 7.11156 133.411C7.11156 131.703 5.73194 130.321 4.02616 130.321C2.32038 130.321 0.940683 131.703 0.940683 133.411C0.940683 135.12 2.32038 136.502 4.02616 136.502Z" fill="#B0FFFF"/>
<path d="M135.308 177.777C133.088 177.777 131.282 175.968 131.282 173.745C131.282 171.522 133.088 169.713 135.308 169.713C137.302 169.713 138.946 171.17 139.272 173.067H200.491L229.276 142.242V126.428L211.065 111.166C209.597 112.41 207.402 112.472 205.872 111.191C204.166 109.759 203.941 107.209 205.37 105.513C206.8 103.805 209.346 103.579 211.04 105.011C212.57 106.292 212.896 108.465 211.918 110.136L230.368 125.599L230.606 125.8V142.782L201.257 174.21L201.056 174.423H139.247C138.92 176.32 137.277 177.777 135.283 177.777H135.308ZM210.45 105.74C210.563 105.84 210.676 105.928 210.751 105.991C210.688 105.941 210.601 105.865 210.45 105.74C209.798 105.199 210.124 105.463 210.45 105.74C209.146 104.647 207.202 104.823 206.11 106.129C205.019 107.435 205.195 109.382 206.499 110.475C207.804 111.568 209.748 111.392 210.839 110.098C211.93 108.792 211.755 106.845 210.45 105.752V105.74ZM135.308 170.655C133.602 170.655 132.223 172.037 132.223 173.745C132.223 175.453 133.602 176.835 135.308 176.835C137.014 176.835 138.394 175.453 138.394 173.745C138.394 172.037 137.014 170.655 135.308 170.655Z" fill="#B0FFFF"/>
<path d="M205.884 111.191C205.96 111.254 206.01 111.304 206.073 111.342C206.01 111.291 205.947 111.241 205.884 111.191Z" fill="#B0FFFF"/>
<path d="M205.521 110.89C205.382 110.776 205.331 110.738 205.521 110.89V110.89Z" fill="#B0FFFF"/>
<path d="M205.885 111.19C205.747 111.077 205.621 110.964 205.521 110.889C205.596 110.952 205.709 111.04 205.885 111.19Z" fill="#B0FFFF"/>
<path d="M206.286 111.53C206.411 111.642 206.386 111.617 206.286 111.53V111.53Z" fill="#B0FFFF"/>
<path d="M187.748 132.746C188.074 130.849 189.717 129.392 191.712 129.392C193.932 129.392 195.738 131.201 195.738 133.424C195.738 135.647 193.932 137.456 191.712 137.456C189.717 137.456 188.074 135.999 187.748 134.102H139.221V154.137C141.115 154.464 142.57 156.109 142.57 158.106C142.57 160.33 140.764 162.139 138.544 162.139C136.324 162.139 134.518 160.33 134.518 158.106C134.518 156.109 135.973 154.464 137.867 154.137V132.758H187.736L187.748 132.746ZM191.712 136.514C193.417 136.514 194.797 135.132 194.797 133.424C194.797 131.716 193.417 130.334 191.712 130.334C190.006 130.334 188.626 131.716 188.626 133.411C188.626 135.12 190.006 136.501 191.712 136.501V136.514ZM135.471 158.094C135.471 159.802 136.851 161.184 138.557 161.184C140.262 161.184 141.642 159.802 141.642 158.094C141.642 156.386 140.262 155.004 138.557 155.004C136.851 155.004 135.471 156.386 135.471 158.094Z" fill="#B0FFFF"/>
<path d="M158.06 161.271V150.281H190.984C191.31 148.384 192.953 146.927 194.948 146.927C197.168 146.927 198.974 148.736 198.974 150.959C198.974 153.182 197.168 154.991 194.948 154.991C192.953 154.991 191.31 153.534 190.984 151.637H159.402V161.284C161.296 161.611 162.751 163.256 162.751 165.253C162.751 167.477 160.945 169.285 158.725 169.285C156.505 169.285 154.699 167.477 154.699 165.253C154.699 163.256 156.154 161.611 158.048 161.284L158.06 161.271ZM194.948 154.036C196.653 154.036 198.033 152.655 198.033 150.946C198.033 149.238 196.653 147.856 194.948 147.856C193.242 147.856 191.862 149.238 191.862 150.946C191.862 152.655 193.242 154.036 194.948 154.036ZM158.737 168.318C160.443 168.318 161.823 166.937 161.823 165.228C161.823 163.52 160.443 162.138 158.737 162.138C157.032 162.138 155.652 163.52 155.652 165.228C155.652 166.937 157.032 168.318 158.737 168.318Z" fill="#B0FFFF"/>
<path d="M287.988 166.446C287.661 168.343 286.018 169.8 284.024 169.8C281.804 169.8 279.998 167.992 279.998 165.768C279.998 163.545 281.804 161.736 284.024 161.736C286.018 161.736 287.661 163.193 287.988 165.09H312.22C312.546 163.193 314.189 161.736 316.183 161.736C318.403 161.736 320.209 163.545 320.209 165.768C320.209 167.992 318.403 169.8 316.183 169.8C314.189 169.8 312.546 168.343 312.22 166.446H287.988ZM284.024 162.678C282.318 162.678 280.939 164.06 280.939 165.768C280.939 167.476 282.318 168.858 284.024 168.858C285.73 168.858 287.11 167.476 287.11 165.768C287.11 164.06 285.73 162.678 284.024 162.678ZM316.183 168.846C317.889 168.846 319.269 167.464 319.269 165.756C319.269 164.047 317.889 162.666 316.183 162.666C314.477 162.666 313.098 164.047 313.098 165.756C313.098 167.464 314.477 168.846 316.183 168.846Z" fill="#B0FFFF"/>
<path d="M281.917 140.244V141.601H257.748C257.422 143.497 255.779 144.955 253.784 144.955C251.564 144.955 249.758 143.146 249.758 140.922C249.758 138.699 251.564 136.89 253.784 136.89C255.779 136.89 257.422 138.347 257.748 140.244H281.917ZM253.784 137.832C252.079 137.832 250.699 139.214 250.699 140.922C250.699 142.631 252.079 144.013 253.784 144.013C255.49 144.013 256.87 142.631 256.87 140.922C256.87 139.214 255.49 137.832 253.784 137.832Z" fill="#B0FFFF"/>
<path d="M281.917 140.922C281.917 138.699 283.723 136.89 285.943 136.89C288.163 136.89 289.969 138.699 289.969 140.922C289.969 143.146 288.163 144.955 285.943 144.955C283.723 144.955 281.917 143.146 281.917 140.922ZM285.943 144.013C287.649 144.013 289.029 142.631 289.029 140.922C289.029 139.214 287.649 137.832 285.943 137.832C284.237 137.832 282.858 139.214 282.858 140.922C282.858 142.631 284.237 144.013 285.943 144.013Z" fill="#B0FFFF"/>
<path d="M140.664 187.009C140.664 184.786 142.47 182.977 144.69 182.977C146.684 182.977 148.327 184.434 148.653 186.331H172.885C173.211 184.434 174.854 182.977 176.849 182.977C179.069 182.977 180.875 184.786 180.875 187.009C180.875 189.232 179.069 191.041 176.849 191.041C174.854 191.041 173.211 189.584 172.885 187.687H148.653C148.327 189.584 146.684 191.041 144.69 191.041C142.47 191.041 140.664 189.232 140.664 187.009ZM176.849 190.099C178.555 190.099 179.934 188.717 179.934 187.009C179.934 185.301 178.555 183.919 176.849 183.919C175.143 183.919 173.763 185.301 173.763 187.009C173.763 188.717 175.143 190.099 176.849 190.099ZM144.69 190.099C146.396 190.099 147.775 188.717 147.775 187.009C147.775 185.301 146.396 183.919 144.69 183.919C142.984 183.919 141.604 185.301 141.604 187.009C141.604 188.717 142.984 190.099 144.69 190.099Z" fill="#B0FFFF"/>
<path d="M155.437 91.9846C155.437 91.9846 155.513 92.0607 155.602 92.1495C155.526 92.0734 155.463 92.01 155.437 91.9846Z" fill="#B0FFFF"/>
<path d="M161.584 86.722C163.152 88.2921 163.152 90.8545 161.584 92.4247C160.017 93.9948 157.458 93.9948 155.89 92.4247C154.485 91.0178 154.347 88.8197 155.464 87.2495L144.489 76.2586L145.442 75.304L156.417 86.2949C157.985 85.1769 160.18 85.3151 161.584 86.722ZM156.555 91.7589C157.759 92.9648 159.716 92.9648 160.92 91.7589C162.124 90.5531 162.124 88.5936 160.92 87.3877C159.716 86.1818 157.759 86.1818 156.567 87.3877C155.363 88.5936 155.363 90.5531 156.567 91.7589H156.555Z" fill="#B0FFFF"/>
<path d="M139.271 70.078C140.839 68.5079 143.398 68.5079 144.966 70.078C146.533 71.6481 146.533 74.2106 144.966 75.7807C143.398 77.3508 140.839 77.3508 139.271 75.7807C137.704 74.2106 137.704 71.6481 139.271 70.078ZM139.936 75.115C141.14 76.3208 143.097 76.3208 144.301 75.115C145.505 73.9091 145.505 71.9496 144.301 70.7437C144.414 70.8568 144.527 70.9698 144.602 71.0452C144.552 70.9949 144.451 70.8945 144.301 70.7437C144 70.4423 143.699 70.1408 144.301 70.7437C143.097 69.5379 141.14 69.5379 139.936 70.7437C138.732 71.9496 138.732 73.9091 139.936 75.115Z" fill="#B0FFFF"/>
<path d="M139.647 76.1707C139.761 76.2842 139.736 76.2589 139.647 76.1707V76.1707Z" fill="#B0FFFF"/>
<path d="M262.815 154.978C260.595 154.978 258.789 153.17 258.789 150.946C258.789 148.723 260.595 146.914 262.815 146.914C264.809 146.914 266.452 148.371 266.778 150.268H299.426V130.409L286.031 114.18C284.363 115.147 282.193 114.796 280.926 113.263C279.509 111.555 279.747 109.005 281.465 107.586C283.171 106.166 285.717 106.405 287.135 108.126C288.401 109.658 288.326 111.856 287.072 113.326L300.781 129.932V151.625H266.778C266.452 153.521 264.809 154.978 262.815 154.978ZM286.169 108.44C286.169 108.44 286.257 108.553 286.319 108.628C286.257 108.553 286.207 108.49 286.169 108.44ZM286.47 108.804C286.47 108.804 286.545 108.892 286.57 108.93C286.545 108.892 286.508 108.854 286.47 108.804ZM286.407 108.729C285.329 107.422 283.372 107.234 282.067 108.314C280.763 109.394 280.575 111.354 281.654 112.66C282.732 113.967 284.676 114.155 285.993 113.075C287.298 111.982 287.486 110.035 286.407 108.729ZM262.815 147.856C261.109 147.856 259.729 149.238 259.729 150.946C259.729 152.655 261.109 154.036 262.815 154.036C264.521 154.036 265.9 152.655 265.9 150.946C265.9 149.238 264.521 147.856 262.815 147.856Z" fill="#B0FFFF"/>
<path d="M280.725 113.037C280.5 112.773 280.387 112.622 280.725 113.037V113.037Z" fill="#B0FFFF"/>
<path d="M280.914 113.263C281.616 114.117 281.265 113.69 280.914 113.263V113.263Z" fill="#B0FFFF"/>
<path d="M280.914 113.263C280.838 113.163 280.776 113.1 280.725 113.024C280.788 113.1 280.851 113.175 280.914 113.263Z" fill="#B0FFFF"/>
<path d="M40.587 106.668C40.7877 106.668 41.0009 106.656 41.1765 106.643C41.0762 106.643 40.9633 106.643 40.8003 106.656C40.7125 106.656 40.6497 106.656 40.587 106.656V106.668Z" fill="#B0FFFF"/>
<path d="M40.437 106.681C40.1485 106.694 40.0105 106.694 40.437 106.681V106.681Z" fill="#B0FFFF"/>
<path d="M41.1766 106.644C41.578 106.631 41.4651 106.644 41.1766 106.644V106.644Z" fill="#B0FFFF"/>
<path d="M44.9018 109.847L70.6641 108.716V135.019L81.5886 141.814C82.8679 140.37 85.0252 140.006 86.7184 141.061C88.5998 142.229 89.1893 144.729 88.0103 146.613C86.8313 148.497 84.3479 149.087 82.4666 147.907C80.7733 146.851 80.1462 144.754 80.8736 142.958L69.3095 135.76V110.123L44.9646 111.191C44.7263 113.1 43.1459 114.632 41.1516 114.72C38.9316 114.821 37.0502 113.087 36.9499 110.864C36.8496 108.641 38.5804 106.757 40.8005 106.656C42.7822 106.568 44.5005 107.95 44.9018 109.834V109.847ZM83.1439 147.216C83.1439 147.216 83.1062 147.191 83.0937 147.178C83.1062 147.178 83.1313 147.203 83.1439 147.216ZM82.9683 147.103C84.4106 148.007 86.3171 147.555 87.2076 146.11C88.1107 144.666 87.6591 142.757 86.2168 141.865C84.7744 140.96 82.8679 141.413 81.9774 142.857C81.0743 144.302 81.5259 146.211 82.9683 147.103ZM40.8506 107.611C39.1574 107.686 37.8279 109.131 37.9031 110.826C37.9784 112.522 39.4208 113.854 41.114 113.778C42.8073 113.703 44.1368 112.258 44.0615 110.563C43.9862 108.854 42.5439 107.535 40.8506 107.611ZM40.7754 113.791C40.7754 113.791 40.8883 113.791 40.9635 113.791C40.8883 113.791 40.8256 113.791 40.7754 113.791ZM41.4778 113.766C41.6784 113.766 41.6283 113.766 41.4778 113.766V113.766Z" fill="#B0FFFF"/>
<path d="M86.3674 140.835C86.3041 140.797 86.2535 140.759 86.2282 140.747C86.2661 140.772 86.3041 140.797 86.3674 140.835Z" fill="#B0FFFF"/>
<path d="M87.1572 141.324C87.0694 141.274 86.9315 141.186 86.7182 141.048C86.5928 140.973 86.4925 140.91 86.4172 140.86C86.6555 141.01 86.9942 141.211 87.1572 141.324Z" fill="#B0FFFF"/>
<path d="M86.4303 140.873C86.4303 140.873 86.3916 140.848 86.3787 140.835C86.4045 140.835 86.4174 140.861 86.4303 140.873Z" fill="#B0FFFF"/>
<path d="M87.1823 141.337C87.2958 141.413 87.2706 141.4 87.1823 141.337V141.337Z" fill="#B0FFFF"/>
<path d="M87.1538 141.325C87.1538 141.325 87.1682 141.325 87.1825 141.339C87.1825 141.339 87.1682 141.339 87.1538 141.325Z" fill="#B0FFFF"/>
<path d="M102.798 153.861C102.798 156.084 100.992 157.893 98.7718 157.893C96.7775 157.893 95.1345 156.436 94.8084 154.539H65.3586C65.0325 156.436 63.3894 157.893 61.3952 157.893C59.1752 157.893 57.3691 156.084 57.3691 153.861C57.3691 151.637 59.1752 149.829 61.3952 149.829C63.3894 149.829 65.0325 151.286 65.3586 153.182H94.8084C95.1345 151.286 96.7775 149.829 98.7718 149.829C100.992 149.829 102.798 151.637 102.798 153.861ZM61.4077 150.771C59.702 150.771 58.3223 152.152 58.3223 153.861C58.3223 155.569 59.702 156.951 61.4077 156.951C63.1135 156.951 64.4932 155.569 64.4932 153.861C64.4932 152.152 63.1135 150.771 61.4077 150.771ZM98.7718 150.771C97.066 150.771 95.6863 152.152 95.6863 153.861C95.6863 155.569 97.066 156.951 98.7718 156.951C100.478 156.951 101.857 155.569 101.857 153.861C101.857 152.152 100.478 150.771 98.7718 150.771Z" fill="#B0FFFF"/>
<path d="M132.06 60.896C134.28 60.896 136.086 62.7048 136.086 64.9281C136.086 67.1514 134.28 68.9602 132.06 68.9602C130.065 68.9602 128.422 67.5031 128.096 65.6064H107.113L77.2741 91.0928L77.0859 91.2561H62.1102C61.7841 93.1528 60.141 94.6099 58.1468 94.6099C55.9268 94.6099 54.1207 92.8011 54.1207 90.5778C54.1207 88.3545 55.9268 86.5457 58.1468 86.5457C60.141 86.5457 61.7841 88.0028 62.1102 89.8995H76.5842L106.435 64.4131L106.623 64.2498H128.096C128.422 62.3531 130.065 60.896 132.06 60.896ZM58.1593 87.4878C56.4536 87.4878 55.0739 88.8695 55.0739 90.5778C55.0739 92.2861 56.4536 93.6678 58.1593 93.6678C59.8651 93.6678 61.2322 92.2861 61.2448 90.5903C61.2448 88.882 59.8651 87.5003 58.1593 87.5003V87.4878ZM132.06 68.0181C133.765 68.0181 135.145 66.6364 135.145 64.9281C135.145 63.2198 133.765 61.8381 132.06 61.8381C130.354 61.8381 128.987 63.2198 128.974 64.9155C128.974 66.6238 130.354 68.0056 132.06 68.0056V68.0181Z" fill="#B0FFFF"/>
<path d="M44.261 125.411C44.261 125.411 44.3497 125.31 44.375 125.284C44.3497 125.31 44.3117 125.36 44.261 125.411Z" fill="#B0FFFF"/>
<path d="M43.7857 125.937C43.6979 126.037 43.6352 126.113 43.5976 126.151C43.6352 126.113 43.6854 126.05 43.7857 125.937Z" fill="#B0FFFF"/>
<path d="M27.8315 143.912C27.6669 144.102 27.6036 144.166 27.8315 143.912V143.912Z" fill="#B0FFFF"/>
<path d="M28.3076 143.372C28.3076 143.372 28.3705 143.297 28.3957 143.271C28.3705 143.297 28.3454 143.334 28.3076 143.372Z" fill="#B0FFFF"/>
<path d="M28.3959 143.272C28.3959 143.272 28.4714 143.184 28.4839 143.171C28.4588 143.197 28.4336 143.234 28.3959 143.272Z" fill="#B0FFFF"/>
<path d="M22.4258 143.937C20.7702 142.455 20.6196 139.905 22.0871 138.247C23.404 136.752 25.5865 136.488 27.2295 137.518L37.8028 125.611L38.3045 126.063C36.6489 124.581 36.4984 122.031 37.9784 120.373C39.4584 118.715 42.0046 118.564 43.6602 120.033C45.3158 121.516 45.4663 124.066 43.9988 125.724C44.0991 125.611 44.1995 125.498 44.2747 125.41C44.212 125.485 44.1242 125.573 43.9988 125.724C43.911 125.812 43.8483 125.887 43.7981 125.95C43.8608 125.874 43.9235 125.799 43.9988 125.724C42.5188 127.382 39.9727 127.532 38.3171 126.063L38.8187 126.502L28.2455 138.41C29.4496 139.918 29.437 142.116 28.12 143.611C26.64 145.269 24.0939 145.419 22.4383 143.95L22.4258 143.937ZM38.3923 121.302C38.3923 121.302 38.4049 121.277 38.4174 121.264C38.4174 121.264 38.3923 121.29 38.3923 121.302ZM43.2839 125.083C44.4127 123.814 44.2998 121.855 43.033 120.724C41.7663 119.594 39.8096 119.707 38.6808 120.976C37.552 122.244 37.6649 124.204 38.9317 125.334C40.1985 126.465 42.1551 126.352 43.2839 125.083ZM27.1417 138.611C25.875 137.481 23.9183 137.594 22.7895 138.862C21.6606 140.131 21.7735 142.091 23.0403 143.221C24.3071 144.352 26.2637 144.239 27.3925 142.97C28.5214 141.701 28.4085 139.742 27.1417 138.611ZM22.6641 139.001C22.4634 139.227 22.3505 139.365 22.6641 139.001V139.001Z" fill="#B0FFFF"/>
<path d="M28.1073 143.598C28.1951 143.51 28.2579 143.435 28.308 143.372C28.2453 143.447 28.1826 143.523 28.1073 143.598Z" fill="#B0FFFF"/>
<path d="M27.8315 143.912C27.8942 143.837 27.982 143.749 28.1074 143.598C28.0071 143.711 27.9068 143.824 27.8315 143.912Z" fill="#B0FFFF"/>
<path d="M100.101 127.62H88.5623C88.2362 129.517 86.5931 130.974 84.5988 130.974C82.3788 130.974 80.5727 129.165 80.5727 126.942C80.5727 124.719 82.3788 122.91 84.5988 122.91C86.5931 122.91 88.2362 124.367 88.5623 126.264H99.6247L120.985 108.741L165.41 107.409L174.528 116.504C176.096 115.386 178.291 115.511 179.696 116.918C181.264 118.488 181.276 121.051 179.696 122.621C178.128 124.191 175.569 124.204 174.002 122.621C172.597 121.214 172.446 119.016 173.563 117.446L164.858 108.766L121.474 110.072L100.101 127.608V127.62ZM84.5988 123.852C82.8931 123.852 81.5134 125.234 81.5134 126.942C81.5134 128.65 82.8931 130.032 84.5988 130.032C86.3046 130.032 87.6843 128.65 87.6843 126.942C87.6843 125.234 86.3046 123.852 84.5988 123.852ZM174.666 121.955C175.87 123.161 177.827 123.148 179.031 121.955C180.235 120.749 180.223 118.79 179.031 117.584C179.633 118.187 179.332 117.885 179.031 117.584C178.981 117.534 178.956 117.509 178.918 117.471C178.693 117.245 178.542 117.094 178.918 117.471C178.956 117.509 178.994 117.546 179.031 117.584C177.827 116.378 175.87 116.391 174.679 117.584C173.487 118.802 173.487 120.749 174.679 121.955H174.666Z" fill="#B0FFFF"/>
<path d="M173.801 122.445C173.801 122.445 173.726 122.37 173.688 122.332C173.726 122.37 173.751 122.395 173.801 122.445Z" fill="#B0FFFF"/>
<path d="M173.688 122.333C173.536 122.181 173.485 122.13 173.688 122.333V122.333Z" fill="#B0FFFF"/>
<path d="M174.002 122.646C174.792 123.425 174.391 123.036 174.002 122.646V122.646Z" fill="#B0FFFF"/>
<path d="M94.4948 89.4851C94.4196 89.5354 94.3318 89.5982 94.2189 89.6861C93.1151 90.4649 94.0182 89.8243 94.4948 89.4851Z" fill="#B0FFFF"/>
<path d="M94.4947 89.4848C94.4947 89.4848 94.5574 89.4347 94.5825 89.4221C94.5574 89.4472 94.5198 89.4597 94.4947 89.4848Z" fill="#B0FFFF"/>
<path d="M94.5812 89.4231C94.7965 89.2709 94.7458 89.309 94.5812 89.4231V89.4231Z" fill="#B0FFFF"/>
<path d="M119.994 76.5725C121.26 78.3938 120.821 80.9186 119.003 82.1872C117.385 83.3177 115.202 83.0791 113.848 81.7225L100.34 91.7839C100.854 93.4168 100.302 95.2633 98.8219 96.2933C97.0033 97.562 94.4822 97.1224 93.2155 95.301C91.9487 93.4796 92.3876 90.9549 94.2063 89.6862C95.9873 88.4427 98.4206 88.8446 99.7124 90.5655L113.058 80.6171C112.217 78.8711 112.732 76.7106 114.375 75.5676C116.193 74.2989 118.714 74.7385 119.981 76.5599L119.994 76.5725ZM118.3 81.5215C118.05 81.6974 117.899 81.7979 118.3 81.5215V81.5215ZM118.614 81.308C118.614 81.308 118.576 81.3331 118.564 81.3457C118.576 81.3457 118.601 81.3205 118.614 81.308ZM94.7456 90.465C93.3534 91.4447 93.0148 93.3666 93.9805 94.7609C94.9588 96.1551 96.8779 96.4943 98.2701 95.5271C99.5118 94.6604 99.9131 93.0274 99.286 91.6834L98.8972 91.1684L98.9473 91.1307C97.9565 89.8244 96.1002 89.5103 94.7331 90.465H94.7456ZM114.149 80.6548C115.127 82.0491 117.046 82.4008 118.438 81.421C119.831 80.4413 120.169 78.5194 119.203 77.1251C118.225 75.7309 116.306 75.3917 114.914 76.3589C113.522 77.3387 113.183 79.2605 114.149 80.6548Z" fill="#B0FFFF"/>
<path d="M114.011 75.8311C113.846 75.9452 113.796 75.9832 114.011 75.8311V75.8311Z" fill="#B0FFFF"/>
<path d="M114.375 75.5798C115.29 74.9392 114.826 75.2658 114.375 75.5798V75.5798Z" fill="#B0FFFF"/>
<path d="M114.375 75.5801C114.199 75.7057 114.086 75.7811 113.998 75.8439C114.099 75.7685 114.237 75.6806 114.375 75.5801Z" fill="#B0FFFF"/>
<path d="M127.682 91.7334C128.071 91.457 127.933 91.5575 127.682 91.7334V91.7334Z" fill="#B0FFFF"/>
<path d="M122.791 85.3149C124.609 84.0462 127.13 84.4859 128.397 86.3072C129.664 88.1286 129.225 90.6533 127.406 91.922C127.507 91.8466 127.607 91.7838 127.682 91.721C127.607 91.7713 127.519 91.8341 127.406 91.922C127.206 92.0602 127.08 92.1481 126.992 92.2109C127.093 92.1355 127.243 92.0351 127.406 91.922C125.788 93.0525 123.631 92.8138 122.276 91.4698L100.289 108.616L100.101 108.754H85.2385C84.9123 110.651 83.2693 112.108 81.275 112.108C79.055 112.108 77.2489 110.299 77.2489 108.076C77.2489 105.852 79.055 104.043 81.275 104.043C83.2693 104.043 84.9123 105.501 85.2385 107.397H99.6372L121.486 90.3519C120.633 88.6059 121.148 86.4328 122.791 85.2898V85.3149ZM81.275 105.011C79.5692 105.011 78.1896 106.392 78.1896 108.101C78.1896 109.809 79.5692 111.191 81.275 111.191C82.9808 111.191 84.3605 109.809 84.3605 108.101C84.3605 106.392 82.9808 105.011 81.275 105.011ZM126.854 91.1558C128.247 90.176 128.585 88.2542 127.619 86.8599C126.641 85.4656 124.722 85.1265 123.33 86.0937C121.938 87.0734 121.599 88.9953 122.565 90.3896C123.543 91.7838 125.462 92.123 126.854 91.1558Z" fill="#B0FFFF"/>
<path d="M126.992 92.2231C126.868 92.3102 126.843 92.3351 126.992 92.2231V92.2231Z" fill="#B0FFFF"/>
<path d="M38.7181 177.425C40.7124 177.425 42.3554 178.882 42.6815 180.779H99.4488V196.367L88.01 206.592C89.0385 208.225 88.7751 210.41 87.2826 211.742C85.627 213.224 83.0683 213.073 81.6008 211.415C80.1208 209.757 80.2713 207.195 81.9269 205.725C83.407 204.394 85.6144 204.394 87.1195 205.587L98.1067 195.764V182.135H42.6815C42.3554 184.032 40.7124 185.489 38.7181 185.489C36.4981 185.489 34.692 183.68 34.692 181.457C34.692 179.234 36.4981 177.425 38.7181 177.425ZM82.5541 206.429C83.1937 205.863 82.8676 206.14 82.5541 206.429C82.2405 206.717 81.9144 206.994 82.5541 206.429C81.2873 207.559 81.1744 209.519 82.3032 210.787C83.432 212.056 85.3887 212.169 86.6554 211.038C87.9222 209.908 88.0351 207.948 86.9063 206.68C85.7775 205.411 83.8209 205.298 82.5541 206.429ZM38.7181 184.547C40.4113 184.547 41.8035 183.165 41.8035 181.457C41.8035 179.749 40.4239 178.367 38.7181 178.367C37.0123 178.367 35.6327 179.749 35.6327 181.457C35.6327 183.165 37.0123 184.547 38.7181 184.547Z" fill="#B0FFFF"/>
<path d="M87.283 211.742C87.4335 211.616 87.5714 211.478 87.6592 211.403C87.584 211.466 87.4711 211.579 87.283 211.742Z" fill="#B0FFFF"/>
<path d="M86.9319 212.056C86.9319 212.056 87.0448 211.955 87.1201 211.88C87.0448 211.943 86.9821 212.006 86.9319 212.056Z" fill="#B0FFFF"/>
<path d="M86.9316 212.056C86.7924 212.183 86.7417 212.221 86.9316 212.056V212.056Z" fill="#B0FFFF"/>
<path d="M87.6956 211.366C87.7852 211.289 87.7724 211.302 87.6956 211.366V211.366Z" fill="#B0FFFF"/>
<path d="M87.6567 211.404C87.6567 211.404 87.6835 211.377 87.6969 211.377C87.6969 211.377 87.6701 211.391 87.6567 211.404Z" fill="#B0FFFF"/>
<path d="M266.703 111.743C266.126 113.891 263.906 115.173 261.761 114.595C259.616 114.017 258.337 111.794 258.914 109.646C259.428 107.724 261.26 106.505 263.179 106.694L269.099 84.6492L246.522 62.0393H222.88C222.553 63.936 220.91 65.3931 218.916 65.3931C216.696 65.3931 214.89 63.5843 214.89 61.361C214.89 59.1376 216.696 57.3289 218.916 57.3289C220.91 57.3289 222.553 58.7859 222.88 60.6827H247.074L270.604 84.2472L264.483 107.046C266.226 107.849 267.205 109.822 266.69 111.743H266.703ZM218.941 58.2709C217.235 58.2709 215.856 59.6527 215.856 61.361C215.856 63.0693 217.235 64.451 218.941 64.451C220.647 64.451 222.027 63.0693 222.027 61.361C222.027 59.6527 220.647 58.2709 218.941 58.2709ZM259.842 109.897C259.855 109.834 259.88 109.759 259.892 109.696C259.88 109.759 259.855 109.809 259.842 109.897C259.792 110.085 259.767 110.198 259.742 110.274C259.767 110.186 259.805 110.048 259.842 109.897C259.403 111.542 260.382 113.238 262.012 113.678C263.655 114.117 265.348 113.138 265.787 111.505C266.226 109.859 265.261 108.163 263.618 107.724C261.974 107.284 260.281 108.264 259.842 109.897ZM259.93 109.545C259.98 109.369 259.968 109.407 259.93 109.545V109.545Z" fill="#B0FFFF"/>
<path d="M266.565 112.258C266.59 112.158 266.628 112.007 266.703 111.743C267.092 110.274 266.678 111.819 266.565 112.258Z" fill="#B0FFFF"/>
<path d="M266.565 112.259C266.527 112.384 266.527 112.409 266.565 112.259V112.259Z" fill="#B0FFFF"/>
<path d="M212.031 93.7933L240.301 114.632C241.693 113.288 243.876 113.1 245.481 114.28C247.275 115.599 247.651 118.124 246.334 119.92C245.017 121.717 242.496 122.093 240.703 120.774C240.74 120.8 240.765 120.825 240.79 120.837C240.753 120.812 240.74 120.8 240.69 120.774C240.239 120.448 239.8 120.121 240.69 120.774C239.085 119.594 238.621 117.446 239.486 115.725L211.579 95.1499H176.56L157.12 75.7305L158.073 74.7759L177.112 93.8059H212.018L212.031 93.7933ZM241.255 120.021C242.622 121.026 244.553 120.737 245.569 119.368C246.573 117.998 246.284 116.064 244.917 115.047C245.607 115.549 245.256 115.298 244.917 115.047C244.842 114.984 244.779 114.946 244.729 114.908C244.791 114.946 244.854 114.996 244.917 115.047C243.55 114.042 241.618 114.331 240.615 115.7C239.611 117.082 239.9 119.016 241.267 120.021H241.255Z" fill="#B0FFFF"/>
<path d="M241.04 121.039C241.28 121.216 241.217 121.165 241.04 121.039V121.039Z" fill="#B0FFFF"/>
<path d="M240.79 120.838C240.903 120.913 240.991 120.976 241.054 121.026C240.978 120.976 240.891 120.9 240.79 120.838Z" fill="#B0FFFF"/>
<path d="M151.902 69.5378C153.47 67.9677 156.028 67.9551 157.596 69.5378C159.164 71.1079 159.176 73.6704 157.596 75.2405C156.028 76.8106 153.47 76.8232 151.902 75.2405C152.692 76.0193 152.291 75.6299 151.902 75.2405C151.626 74.9642 151.5 74.8385 151.463 74.8009C151.513 74.8511 151.701 75.0395 151.902 75.2405C150.334 73.6704 150.334 71.1079 151.902 69.5378ZM156.931 74.5622C158.135 73.3563 158.135 71.3968 156.931 70.191C155.727 68.9851 153.771 68.9851 152.567 70.191C151.362 71.3968 151.362 73.3563 152.567 74.5622C153.771 75.7681 155.727 75.7681 156.931 74.5622Z" fill="#B0FFFF"/>
<path d="M219.18 77.0747L237.065 91.9093C238.52 90.6532 240.715 90.5778 242.258 91.8591C242.095 91.7209 241.944 91.5953 241.844 91.5199C241.919 91.5827 242.045 91.6958 242.258 91.8591C243.111 92.5625 242.684 92.2108 242.258 91.8591C243.964 93.2785 244.202 95.8284 242.785 97.5367C241.367 99.245 238.821 99.4836 237.115 98.0642C235.585 96.7956 235.247 94.6225 236.2 92.9519L218.69 78.4313H182.342L172.622 68.3071L173.6 67.365L182.932 77.0747H219.192H219.18ZM237.416 97.097C237.329 97.0217 237.304 97.0091 237.416 97.097V97.097ZM237.868 97.4738C237.868 97.4738 237.83 97.4487 237.805 97.4236C237.83 97.4362 237.843 97.4613 237.868 97.4738ZM237.717 97.3482C239.022 98.4285 240.978 98.2526 242.057 96.9463C243.136 95.6399 242.96 93.6804 241.656 92.6002C240.351 91.5199 238.395 91.6958 237.316 93.0021C236.237 94.3085 236.413 96.268 237.717 97.3482Z" fill="#B0FFFF"/>
<path d="M173.048 61.9511C172.923 61.8254 172.848 61.7501 172.81 61.7124C172.86 61.7626 172.936 61.8506 173.048 61.9511Z" fill="#B0FFFF"/>
<path d="M173.387 62.3026C173.387 62.3026 173.287 62.2021 173.211 62.1267C173.274 62.1895 173.324 62.2523 173.387 62.3026Z" fill="#B0FFFF"/>
<path d="M173.625 62.5541C173.625 62.5541 173.5 62.4159 173.387 62.3154C173.512 62.441 173.588 62.5164 173.625 62.5541Z" fill="#B0FFFF"/>
<path d="M173.211 62.127C173.211 62.127 173.099 62.0014 173.036 61.9512C173.086 62.0014 173.136 62.0517 173.211 62.127Z" fill="#B0FFFF"/>
<path d="M173.111 67.8298C171.506 69.3748 168.959 69.3246 167.417 67.7168C165.874 66.1089 165.924 63.559 167.53 62.014C169.135 60.469 171.681 60.5193 173.224 62.1271C174.767 63.7349 174.716 66.2848 173.111 67.8298ZM168.27 67.2394C168.546 67.5158 168.445 67.4278 168.27 67.2394V67.2394ZM172.547 62.7803C171.368 61.5493 169.411 61.5116 168.194 62.6923C166.965 63.8731 166.928 65.8326 168.107 67.051C169.286 68.282 171.242 68.3197 172.459 67.1389C173.688 65.9582 173.726 63.9987 172.547 62.7803Z" fill="#B0FFFF"/>
<path d="M241.831 91.5075C241.731 91.4318 241.718 91.4066 241.831 91.5075V91.5075Z" fill="#B0FFFF"/>
<path d="M259.14 85.7295C260.733 87.287 260.77 89.8369 259.215 91.4322C257.672 93.0275 255.114 93.0651 253.521 91.5076C253.696 91.6834 253.872 91.8467 253.935 91.9221C253.885 91.8718 253.759 91.7462 253.521 91.5076C253.283 91.2689 253.157 91.1559 253.107 91.093C253.182 91.1684 253.345 91.3317 253.521 91.5076C252.091 90.1133 251.928 87.9277 253.019 86.3324L242.044 75.6304C240.489 76.7609 238.294 76.6604 236.864 75.2661C235.272 73.7211 235.234 71.1586 236.789 69.5634C238.344 67.9681 240.891 67.9305 242.483 69.488C243.913 70.8823 244.076 73.0679 242.985 74.6632L253.96 85.3652C255.515 84.2347 257.71 84.3352 259.14 85.7295ZM258.638 86.5711C258.939 86.86 258.826 86.7595 258.638 86.5711V86.5711ZM254.173 90.8418C255.39 92.0351 257.346 91.9974 258.538 90.779C259.729 89.5606 259.692 87.6011 258.475 86.4078C257.258 85.2145 255.302 85.2522 254.123 86.4706C252.944 87.689 252.969 89.6485 254.186 90.8418H254.173ZM241.819 70.1914C240.602 68.9981 238.645 69.0358 237.454 70.2542C236.262 71.4727 236.3 73.4322 237.517 74.6255C238.733 75.8188 240.69 75.7811 241.881 74.5627C243.073 73.3443 243.035 71.3847 241.819 70.1914ZM241.982 70.3547C242.283 70.6436 242.17 70.5432 241.982 70.3547V70.3547Z" fill="#B0FFFF"/>
<path d="M236.864 75.2786C237.103 75.5172 237.228 75.6303 237.278 75.6931C237.203 75.6177 237.04 75.4544 236.864 75.2786Z" fill="#B0FFFF"/>
<path d="M236.865 75.2788C236.689 75.1029 236.513 74.9396 236.451 74.8643C236.501 74.9145 236.626 75.0401 236.865 75.2788Z" fill="#B0FFFF"/>
<path d="M188.375 107.535C188.175 107.372 188.049 107.284 187.974 107.221C188.35 107.51 189.542 108.477 188.375 107.535Z" fill="#B0FFFF"/>
<path d="M188.375 107.535C189.931 108.779 190.319 110.939 189.391 112.635L211.717 130.422C213.147 129.14 215.342 129.027 216.897 130.258C216.847 130.208 216.784 130.17 216.734 130.12C216.784 130.158 216.834 130.195 216.897 130.258C216.947 130.296 216.972 130.321 217.01 130.346C216.972 130.321 216.934 130.283 216.897 130.258C218.64 131.64 218.929 134.19 217.537 135.923C216.157 137.669 213.611 137.958 211.88 136.564C210.325 135.32 209.936 133.16 210.864 131.464L188.538 113.678C187.108 114.959 184.914 115.072 183.358 113.841C181.615 112.459 181.326 109.909 182.719 108.176C184.098 106.43 186.644 106.141 188.375 107.535ZM212.833 136.112C212.833 136.112 212.77 136.062 212.72 136.024C212.77 136.074 212.808 136.099 212.833 136.112ZM212.469 135.823C213.799 136.878 215.743 136.664 216.797 135.333C217.85 134.001 217.637 132.055 216.307 130.999C214.978 129.944 213.034 130.158 211.98 131.489C210.927 132.821 211.14 134.768 212.469 135.823ZM183.948 113.1C183.86 113.025 183.772 112.962 183.697 112.899C183.76 112.949 183.835 113.012 183.948 113.1C185.277 114.155 187.221 113.941 188.275 112.61C189.328 111.266 189.103 109.332 187.773 108.264C186.444 107.209 184.5 107.422 183.446 108.754C182.393 110.085 182.606 112.032 183.935 113.087L183.948 113.1Z" fill="#B0FFFF"/>
<path d="M187.987 107.22C187.875 107.133 187.838 107.108 187.987 107.22V107.22Z" fill="#B0FFFF"/>
<path d="M216.521 129.957C216.521 129.957 216.47 129.907 216.445 129.894C216.458 129.907 216.483 129.932 216.521 129.957Z" fill="#B0FFFF"/>
<path d="M217.01 130.346C217.649 130.849 217.373 130.635 217.01 130.346V130.346Z" fill="#B0FFFF"/>
<path d="M216.734 130.133C216.646 130.057 216.571 130.007 216.521 129.969C216.583 130.02 216.646 130.07 216.734 130.133Z" fill="#B0FFFF"/>
<path d="M57.3689 208.074C57.3689 205.851 59.175 204.042 61.395 204.042C63.615 204.042 65.4211 205.851 65.4211 208.074C65.4211 210.071 63.9662 211.717 62.0723 212.043V240.469C63.9662 240.795 65.4211 242.441 65.4211 244.438C65.4211 246.661 63.615 248.47 61.395 248.47C59.175 248.47 57.3689 246.661 57.3689 244.438C57.3689 242.441 58.8238 240.795 60.7177 240.469V212.043C58.8238 211.717 57.3689 210.071 57.3689 208.074ZM64.4805 208.074C64.4805 206.366 63.1008 204.984 61.395 204.984C59.6892 204.984 58.3095 206.366 58.3095 208.074C58.3095 209.543 59.338 210.774 60.7177 211.076V211.038H62.0723V211.076C63.452 210.762 64.4805 209.543 64.4805 208.074ZM58.3221 244.426C58.3221 246.134 59.7018 247.516 61.4075 247.516C63.1133 247.516 64.493 246.134 64.493 244.426C64.493 242.717 63.1133 241.336 61.4075 241.336C59.7018 241.336 58.3221 242.717 58.3221 244.426Z" fill="#B0FFFF"/>
<path d="M46.0307 208.074C46.0307 205.851 47.8369 204.042 50.0569 204.042C52.2769 204.042 54.083 205.851 54.083 208.074C54.083 210.071 52.6281 211.717 50.7341 212.043V240.469C52.6281 240.795 54.083 242.441 54.083 244.438C54.083 246.661 52.2769 248.47 50.0569 248.47C47.8369 248.47 46.0307 246.661 46.0307 244.438C46.0307 242.441 47.4857 240.795 49.3796 240.469V212.043C47.4857 211.717 46.0307 210.071 46.0307 208.074ZM53.1423 208.074C53.1423 206.366 51.7627 204.984 50.0569 204.984C48.3511 204.984 46.9714 206.366 46.9714 208.074C46.9714 209.543 47.9999 210.774 49.3796 211.076V211.038H50.7341V211.076C52.1138 210.762 53.1423 209.543 53.1423 208.074ZM46.9714 244.426C46.9714 246.134 48.3511 247.516 50.0569 247.516C51.7627 247.516 53.1423 246.134 53.1423 244.426C53.1423 242.717 51.7627 241.336 50.0569 241.336C48.3511 241.336 46.9714 242.717 46.9714 244.426Z" fill="#B0FFFF"/>
<path d="M34.68 208.074C34.68 205.851 36.4861 204.042 38.7061 204.042C40.9261 204.042 42.7322 205.851 42.7322 208.074C42.7322 210.071 41.2773 211.717 39.3834 212.043V240.469C41.2773 240.795 42.7322 242.441 42.7322 244.438C42.7322 246.661 40.9261 248.47 38.7061 248.47C36.4861 248.47 34.68 246.661 34.68 244.438C34.68 242.441 36.1349 240.795 38.0288 240.469V212.043C36.1349 211.717 34.68 210.071 34.68 208.074ZM41.7916 208.074C41.7916 206.366 40.4119 204.984 38.7061 204.984C37.0003 204.984 35.6206 206.366 35.6206 208.074C35.6206 209.543 36.6491 210.774 38.0288 211.076V211.038H39.3834V211.076C40.7631 210.762 41.7916 209.543 41.7916 208.074ZM35.6332 244.426C35.6332 246.134 37.0129 247.516 38.7186 247.516C40.4244 247.516 41.8041 246.134 41.8041 244.426C41.8041 242.717 40.4244 241.336 38.7186 241.336C37.0129 241.336 35.6332 242.717 35.6332 244.426Z" fill="#B0FFFF"/>
<path d="M209.02 184.735V183.379H232.224L244.917 168.356C243.675 166.874 243.625 164.675 244.917 163.156C246.347 161.46 248.893 161.246 250.599 162.678C252.292 164.11 252.505 166.66 251.075 168.368C249.796 169.888 247.613 170.202 245.958 169.223L232.851 184.723H209.02V184.735ZM250.348 167.765C250.072 168.092 249.796 168.419 250.348 167.765C250.9 167.112 250.624 167.439 250.348 167.765C251.451 166.472 251.288 164.512 249.984 163.419C248.692 162.314 246.735 162.477 245.644 163.784C244.541 165.077 244.704 167.037 246.008 168.13C247.3 169.235 249.257 169.072 250.348 167.765Z" fill="#B0FFFF"/>
<path d="M204.994 180.025C207.214 180.025 209.02 181.834 209.02 184.057C209.02 186.281 207.214 188.089 204.994 188.089C202.774 188.089 200.968 186.281 200.968 184.057C200.968 181.834 202.774 180.025 204.994 180.025ZM204.994 187.147C206.7 187.147 208.08 185.766 208.08 184.057C208.08 182.349 206.7 180.967 204.994 180.967C203.288 180.967 201.909 182.349 201.909 184.057C201.909 185.766 203.288 187.147 204.994 187.147Z" fill="#B0FFFF"/>
<path d="M244.929 163.168C245.644 162.314 245.293 162.741 244.929 163.168V163.168Z" fill="#B0FFFF"/>
<path d="M244.929 163.168C244.804 163.319 244.678 163.457 244.603 163.558C244.666 163.482 244.766 163.357 244.929 163.168Z" fill="#B0FFFF"/>
<path d="M244.578 163.583C244.515 163.658 244.489 163.684 244.578 163.583V163.583Z" fill="#B0FFFF"/>
<path d="M244.603 163.545C244.603 163.545 244.576 163.572 244.576 163.585C244.576 163.585 244.603 163.558 244.603 163.545Z" fill="#B0FFFF"/>
<path d="M122.991 211.805C122.914 211.83 122.902 211.83 122.991 211.805V211.805Z" fill="#B0FFFF"/>
<path d="M123.104 211.767C123.104 211.767 123.017 211.792 122.991 211.805C123.017 211.805 123.067 211.78 123.104 211.767Z" fill="#B0FFFF"/>
<path d="M123.629 211.604C123.629 211.604 123.743 211.566 123.794 211.553C123.743 211.566 123.693 211.591 123.629 211.604Z" fill="#B0FFFF"/>
<path d="M123.794 211.553C123.932 211.503 124.045 211.478 124.095 211.453C124.057 211.465 123.957 211.503 123.794 211.553Z" fill="#B0FFFF"/>
<path d="M123.631 211.604C123.631 211.604 123.568 211.629 123.531 211.641C123.33 211.704 123.205 211.742 123.104 211.779C123.242 211.729 123.443 211.666 123.631 211.604Z" fill="#B0FFFF"/>
<path d="M158.06 255.254V229.189L141.554 216.151C140.062 216.151 131.846 216.101 128.723 216.151C128.472 217.583 127.482 218.839 126.014 219.316C123.907 220.007 121.624 218.839 120.934 216.729C120.244 214.618 121.411 212.332 123.518 211.642C125.625 210.951 127.908 212.119 128.598 214.229C128.66 214.418 128.686 214.606 128.723 214.794C132.185 214.744 141.692 214.794 141.792 214.794H142.031L159.164 228.323L159.415 228.524V255.241C161.309 255.568 162.763 257.213 162.763 259.21C162.763 261.434 160.957 263.242 158.737 263.242C156.517 263.242 154.711 261.434 154.711 259.21C154.711 257.213 156.166 255.568 158.06 255.241V255.254ZM127.707 214.518C127.181 212.898 125.437 212.006 123.819 212.533C122.201 213.061 121.311 214.807 121.837 216.427C122.364 218.048 124.108 218.939 125.726 218.412C126.528 218.148 126.127 218.286 125.726 218.412C127.344 217.884 128.234 216.138 127.707 214.518ZM158.737 262.3C160.443 262.3 161.823 260.919 161.823 259.21C161.823 257.502 160.443 256.133 158.75 256.12C157.057 256.12 155.677 257.502 155.677 259.21C155.677 260.919 157.057 262.3 158.762 262.3H158.737Z" fill="#B0FFFF"/>
<path d="M141.905 242.705C141.968 242.755 142.043 242.805 142.106 242.856C142.043 242.805 141.993 242.768 141.905 242.705Z" fill="#B0FFFF"/>
<path d="M142.106 242.856C142.194 242.919 142.257 242.982 142.307 243.007C142.257 242.969 142.182 242.906 142.106 242.856Z" fill="#B0FFFF"/>
<path d="M142.305 243.019C142.305 243.019 142.344 243.044 142.357 243.057C142.344 243.057 142.331 243.031 142.305 243.019Z" fill="#B0FFFF"/>
<path d="M141.492 242.378C141.392 242.303 141.367 242.278 141.492 242.378V242.378Z" fill="#B0FFFF"/>
<path d="M141.905 242.705C141.692 242.542 141.567 242.441 141.492 242.378C141.592 242.454 141.742 242.579 141.905 242.705Z" fill="#B0FFFF"/>
<path d="M142.356 243.057C142.433 243.121 142.42 243.108 142.356 243.057V243.057Z" fill="#B0FFFF"/>
<path d="M110.9 267.953L83.4575 247.692L109.797 228.185H130.943L141.617 236.513L141.203 237.04C142.57 235.294 145.104 234.98 146.847 236.337C148.603 237.706 148.917 240.243 147.55 242.002C146.182 243.76 143.649 244.074 141.893 242.705C140.137 241.336 139.823 238.799 141.191 237.053L140.777 237.58L130.467 229.541H110.223L85.7151 247.692L111.691 266.873C113.083 265.529 115.265 265.34 116.871 266.521C118.664 267.84 119.04 270.377 117.723 272.161C116.407 273.957 113.873 274.334 112.092 273.015C110.487 271.834 110.022 269.686 110.9 267.953ZM145.969 236.852C145.969 236.852 146.032 236.902 146.07 236.927C146.019 236.889 145.994 236.864 145.969 236.852ZM142.482 241.964C143.824 243.007 145.768 242.768 146.81 241.424C147.851 240.08 147.612 238.133 146.27 237.09C146.345 237.153 146.408 237.203 146.471 237.254C146.421 237.216 146.345 237.153 146.27 237.09C144.928 236.048 142.984 236.286 141.943 237.63C140.902 238.975 141.14 240.921 142.482 241.964ZM146.596 237.354C146.596 237.354 146.584 237.354 146.571 237.342C146.571 237.342 146.584 237.342 146.596 237.354ZM112.531 272.161C112.531 272.161 112.468 272.111 112.443 272.098C112.468 272.111 112.506 272.148 112.531 272.161ZM112.644 272.249C114.011 273.254 115.942 272.965 116.958 271.596C117.962 270.226 117.673 268.292 116.306 267.275C114.939 266.27 113.008 266.559 111.992 267.928C110.988 269.297 111.277 271.231 112.644 272.249Z" fill="#B0FFFF"/>
<path d="M116.607 266.32C116.344 266.131 116.219 266.031 116.607 266.32V266.32Z" fill="#B0FFFF"/>
<path d="M116.883 266.508C116.77 266.432 116.683 266.357 116.62 266.307C116.708 266.37 116.796 266.432 116.883 266.508Z" fill="#B0FFFF"/>
<path d="M116.883 266.508C117.774 267.174 117.335 266.834 116.883 266.508V266.508Z" fill="#B0FFFF"/>
<path d="M107.652 241.011C107.563 240.947 107.513 240.909 107.487 240.884C107.525 240.909 107.589 240.96 107.652 241.011Z" fill="#B0FFFF"/>
<path d="M108.177 241.423C108.177 241.423 108.291 241.512 108.342 241.55C108.304 241.525 108.253 241.487 108.177 241.423Z" fill="#B0FFFF"/>
<path d="M108.343 241.537C108.492 241.649 108.455 241.624 108.343 241.537V241.537Z" fill="#B0FFFF"/>
<path d="M126.967 255.82C126.967 255.82 126.853 255.731 126.803 255.693C126.841 255.718 126.891 255.756 126.967 255.82Z" fill="#B0FFFF"/>
<path d="M127.507 256.234C127.431 256.171 127.344 256.108 127.218 256.02C127.118 255.945 127.042 255.882 126.967 255.832C127.13 255.957 127.344 256.12 127.494 256.234H127.507Z" fill="#B0FFFF"/>
<path d="M126.817 255.705C126.705 255.618 126.668 255.593 126.817 255.705V255.705Z" fill="#B0FFFF"/>
<path d="M122.326 262.413C120.746 261.207 120.32 259.047 121.223 257.338L108.279 247.415L108.693 246.875C107.338 248.646 104.805 248.973 103.049 247.629C101.28 246.272 100.954 243.735 102.296 241.976C103.651 240.205 106.184 239.879 107.94 241.223C107.84 241.147 107.739 241.072 107.652 241.009C107.727 241.072 107.815 241.135 107.94 241.223C108.041 241.298 108.116 241.361 108.191 241.411C108.116 241.348 108.028 241.285 107.94 241.223C109.709 242.579 110.035 245.104 108.693 246.875L109.107 246.335L122.05 256.258C123.455 254.939 125.65 254.789 127.231 256.007C128.999 257.364 129.325 259.901 127.983 261.659C126.641 263.418 124.095 263.757 122.339 262.413H122.326ZM107.363 241.976C106.009 240.946 104.077 241.197 103.036 242.554C102.008 243.911 102.258 245.845 103.613 246.888C104.968 247.918 106.899 247.666 107.94 246.31C108.981 244.953 108.718 243.019 107.363 241.976ZM103.375 246.699C103.375 246.699 103.375 246.699 103.387 246.699C103.387 246.699 103.387 246.699 103.375 246.699ZM103.964 247.151C103.964 247.151 103.939 247.126 103.927 247.114C103.939 247.126 103.964 247.139 103.964 247.151ZM127.231 261.094C128.259 259.738 128.008 257.803 126.654 256.761C125.299 255.731 123.367 255.982 122.339 257.338C121.31 258.695 121.561 260.629 122.916 261.672C122.765 261.559 122.627 261.458 122.565 261.408C122.615 261.446 122.715 261.521 122.916 261.672C123.054 261.772 123.142 261.848 123.204 261.886C123.129 261.823 123.029 261.747 122.916 261.672C124.27 262.702 126.202 262.451 127.243 261.094H127.231Z" fill="#B0FFFF"/>
<path d="M127.505 256.233C127.594 256.297 127.644 256.335 127.67 256.36C127.632 256.335 127.568 256.284 127.505 256.233Z" fill="#B0FFFF"/>
<path d="M123.807 247.377C122.389 248.696 120.207 248.847 118.627 247.629C116.858 246.272 116.532 243.735 117.874 241.976C119.229 240.205 121.762 239.879 123.518 241.223C125.098 242.428 125.525 244.589 124.622 246.297L137.616 256.258C139.033 254.939 141.216 254.789 142.796 256.007C144.564 257.364 144.891 259.901 143.548 261.659C142.206 263.418 139.66 263.757 137.904 262.413C136.324 261.207 135.898 259.047 136.801 257.338L123.807 247.377ZM122.941 241.976C121.587 240.946 119.655 241.197 118.627 242.554C117.598 243.911 117.849 245.845 119.204 246.888C119.116 246.825 119.028 246.749 118.953 246.699C119.015 246.749 119.091 246.8 119.204 246.888C120.558 247.918 122.49 247.666 123.518 246.31C124.547 244.953 124.296 243.019 122.941 241.976ZM119.442 247.063C119.655 247.227 119.592 247.177 119.442 247.063V247.063ZM138.481 261.659C138.318 261.534 138.168 261.421 138.118 261.383C138.155 261.408 138.256 261.496 138.481 261.659C138.82 261.923 139.159 262.174 138.481 261.659C139.836 262.689 141.767 262.438 142.808 261.082C143.837 259.725 143.586 257.791 142.232 256.748C140.877 255.718 138.945 255.969 137.904 257.326C136.876 258.682 137.127 260.617 138.481 261.659Z" fill="#B0FFFF"/>
<path d="M123.531 241.235C123.28 241.047 123.142 240.934 123.079 240.884C123.167 240.947 123.343 241.085 123.531 241.235Z" fill="#B0FFFF"/>
<path d="M123.531 241.235C123.731 241.398 123.932 241.549 124.007 241.599C123.957 241.562 123.819 241.449 123.531 241.235Z" fill="#B0FFFF"/>
<path d="M142.57 255.82C142.57 255.82 142.456 255.731 142.405 255.693C142.443 255.718 142.494 255.756 142.57 255.82Z" fill="#B0FFFF"/>
<path d="M143.097 256.234C143.022 256.171 142.934 256.108 142.809 256.02C142.708 255.945 142.633 255.882 142.558 255.832C142.721 255.957 142.934 256.12 143.085 256.234H143.097Z" fill="#B0FFFF"/>
<path d="M143.095 256.233C143.184 256.297 143.235 256.335 143.26 256.36C143.222 256.335 143.159 256.284 143.095 256.233Z" fill="#B0FFFF"/>
<path d="M142.407 255.705C142.295 255.618 142.258 255.593 142.407 255.705V255.705Z" fill="#B0FFFF"/>
</g>
<defs>
<radialGradient id="paint0_radial_329_16850" cx="0" cy="0" r="1" gradientUnits="userSpaceOnUse" gradientTransform="translate(56.5288 90.5614) rotate(180) scale(19.4534 19.4822)">
<stop stop-color="#CCCCCC"/>
<stop offset="0.04" stop-color="#C0C0C0"/>
<stop offset="0.3" stop-color="#7C7C7C"/>
<stop offset="0.54" stop-color="#464646"/>
<stop offset="0.74" stop-color="#202020"/>
<stop offset="0.9" stop-color="#080808"/>
<stop offset="1"/>
</radialGradient>
<radialGradient id="paint1_radial_329_16850" cx="0" cy="0" r="1" gradientUnits="userSpaceOnUse" gradientTransform="translate(283.297 110.05) rotate(180) scale(0.627124 0.628053)">
<stop stop-color="#CCCCCC"/>
<stop offset="0.04" stop-color="#C0C0C0"/>
<stop offset="0.3" stop-color="#7C7C7C"/>
<stop offset="0.54" stop-color="#464646"/>
<stop offset="0.74" stop-color="#202020"/>
<stop offset="0.9" stop-color="#080808"/>
<stop offset="1"/>
</radialGradient>
<radialGradient id="paint2_radial_329_16850" cx="0" cy="0" r="1" gradientUnits="userSpaceOnUse" gradientTransform="translate(204.441 183.911) rotate(-180) scale(0.627124 0.628053)">
<stop stop-color="#CCCCCC"/>
<stop offset="0.04" stop-color="#C0C0C0"/>
<stop offset="0.3" stop-color="#7C7C7C"/>
<stop offset="0.54" stop-color="#464646"/>
<stop offset="0.74" stop-color="#202020"/>
<stop offset="0.9" stop-color="#080808"/>
<stop offset="1"/>
</radialGradient>
<radialGradient id="paint3_radial_329_16850" cx="0" cy="0" r="1" gradientUnits="userSpaceOnUse" gradientTransform="translate(114.526 269.765) rotate(-180) scale(0.627124 0.628053)">
<stop stop-color="#CCCCCC"/>
<stop offset="0.04" stop-color="#C0C0C0"/>
<stop offset="0.3" stop-color="#7C7C7C"/>
<stop offset="0.54" stop-color="#464646"/>
<stop offset="0.74" stop-color="#202020"/>
<stop offset="0.9" stop-color="#080808"/>
<stop offset="1"/>
</radialGradient>
<radialGradient id="paint4_radial_329_16850" cx="0" cy="0" r="1" gradientUnits="userSpaceOnUse" gradientTransform="translate(97.8743 153.855) rotate(-180) scale(19.4534 19.4822)">
<stop stop-color="#CCCCCC"/>
<stop offset="0.04" stop-color="#C0C0C0"/>
<stop offset="0.3" stop-color="#7C7C7C"/>
<stop offset="0.54" stop-color="#464646"/>
<stop offset="0.74" stop-color="#202020"/>
<stop offset="0.9" stop-color="#080808"/>
<stop offset="1"/>
</radialGradient>
<linearGradient id="paint5_linear_329_16850" x1="243.249" y1="194.822" x2="85.4393" y2="194.822" gradientUnits="userSpaceOnUse">
<stop stop-color="#3DDEED"/>
<stop offset="1" stop-color="#3DDEED" stop-opacity="0"/>
</linearGradient>
<linearGradient id="paint6_linear_329_16850" x1="146.923" y1="259.21" x2="47.8746" y2="259.21" gradientUnits="userSpaceOnUse">
<stop stop-color="#3DDEED"/>
<stop offset="1" stop-color="#3DDEED" stop-opacity="0"/>
</linearGradient>
<linearGradient id="paint7_linear_329_16850" x1="108.806" y1="187.486" x2="26.1259" y2="187.486" gradientUnits="userSpaceOnUse">
<stop stop-color="#3DDEED"/>
<stop offset="1" stop-color="#3DDEED" stop-opacity="0"/>
</linearGradient>
<linearGradient id="paint8_linear_329_16850" x1="179.696" y1="251.598" x2="97.9062" y2="251.598" gradientUnits="userSpaceOnUse">
<stop stop-color="#3DDEED"/>
<stop offset="1" stop-color="#3DDEED" stop-opacity="0"/>
</linearGradient>
</defs>
</svg>
