<svg width="30" height="30" viewBox="0 0 30 30" fill="none" xmlns="http://www.w3.org/2000/svg">
<path d="M2.77514 5.85352L6.34099 2.29102C6.77626 1.85575 7.35885 1.61133 7.97492 1.61133C8.59099 1.61133 9.17358 1.8524 9.60885 2.29102L13.4493 6.12472C13.8845 6.55999 14.1289 7.14593 14.1289 7.762C14.1289 8.38142 13.8879 8.96066 13.4493 9.39928L10.4493 12.4026C11.1327 13.995 12.1146 15.4418 13.3421 16.6649C14.5709 17.9004 16.0073 18.8747 17.601 19.5645L20.601 16.5611C21.0363 16.1258 21.6189 15.8814 22.235 15.8814C22.5388 15.8803 22.8399 15.9398 23.1205 16.0565C23.401 16.1733 23.6555 16.3448 23.8689 16.5611L27.7126 20.3948C28.1479 20.8301 28.3923 21.416 28.3923 22.0321C28.3923 22.6515 28.1513 23.2307 27.7126 23.6694L24.1501 27.2319C23.4068 27.9752 22.3823 28.4004 21.3309 28.4004C21.1133 28.4004 20.9024 28.3837 20.6881 28.3468C16.2551 27.6169 11.8555 25.2564 8.30305 21.7073C4.75394 18.1515 2.3968 13.752 1.66019 9.31557C1.44925 8.05664 1.87113 6.76088 2.77514 5.85352ZM4.03407 8.91713C4.68698 12.8647 6.80974 16.8022 10.0073 19.9997C13.2048 23.1973 17.139 25.32 21.0865 25.9729C21.5821 26.0566 22.091 25.8892 22.4526 25.531L25.9515 22.0321L22.2417 18.3189L18.2305 22.3368L18.2004 22.3669L17.4772 22.0991C15.2843 21.2928 13.293 20.0194 11.6412 18.3671C9.98948 16.7147 8.71677 14.723 7.9113 12.5299L7.64345 11.8066L11.6881 7.76535L7.97827 4.05218L4.47939 7.55106C4.11778 7.91267 3.95037 8.4216 4.03407 8.91713Z" fill="#80AECF"/>
</svg>
