<svg width="328" height="400" viewBox="0 0 328 400" fill="none" xmlns="http://www.w3.org/2000/svg">
<path fill-rule="evenodd" clip-rule="evenodd" d="M102 13.5C102 65.1386 60.1386 107 8.5 107C5.63474 107 2.79958 106.871 0 106.619V74.4174C2.77836 74.8015 5.61599 75 8.5 75C42.4655 75 70 47.4655 70 13.5C70 8.86219 69.4866 4.34428 68.5136 0H101.033C101.67 4.40797 102 8.91545 102 13.5ZM0 107.623V390C0 395.523 4.47714 400 9.99999 400H318C323.523 400 328 395.523 328 390V10C328 4.47715 323.523 0 318 0H102.043C102.674 4.40914 103 8.91646 103 13.5C103 65.6909 60.6909 108 8.5 108C5.6351 108 2.79998 107.873 0 107.623ZM8.5 74C41.9132 74 69 46.9132 69 13.5C69 8.85943 68.4775 4.34089 67.4882 0H10C4.47715 0 0 4.47714 0 9.99999V73.4076C2.77726 73.7981 5.61505 74 8.5 74Z" fill="black"/>
</svg>
