<svg width="1440" height="799" viewBox="0 0 1440 799" fill="none" xmlns="http://www.w3.org/2000/svg">
<g opacity="0.7">
<g opacity="0.7" filter="url(#filter0_f_2044_633)">
<path fill-rule="evenodd" clip-rule="evenodd" d="M183.121 598.24C90.3612 599.066 -5.73636 562.274 -34.4617 479.581C-63.2344 396.752 -7.83552 315.088 66.688 263.059C144.682 208.608 248.244 174.182 327.702 226.738C409.763 281.016 422.771 387.368 388.348 475.817C357.622 554.768 272.76 597.442 183.121 598.24Z" fill="url(#paint0_linear_2044_633)"/>
</g>
<g opacity="0.7" filter="url(#filter1_f_2044_633)">
<path fill-rule="evenodd" clip-rule="evenodd" d="M1252.21 598.24C1159.45 599.066 1063.35 562.274 1034.63 479.581C1005.86 396.752 1061.25 315.088 1135.78 263.059C1213.77 208.608 1317.33 174.182 1396.79 226.738C1478.85 281.016 1491.86 387.368 1457.44 475.817C1426.71 554.768 1341.85 597.442 1252.21 598.24Z" fill="url(#paint1_linear_2044_633)"/>
</g>
<g opacity="0.7" filter="url(#filter2_f_2044_633)">
<path fill-rule="evenodd" clip-rule="evenodd" d="M750.977 598.24C658.217 599.066 562.119 562.274 533.394 479.581C504.621 396.752 560.02 315.088 634.543 263.059C712.537 208.608 816.099 174.182 895.558 226.739C977.618 281.016 990.627 387.368 956.204 475.817C925.478 554.768 840.616 597.442 750.977 598.24Z" fill="url(#paint2_linear_2044_633)"/>
</g>
</g>
<defs>
<filter id="filter0_f_2044_633" x="-242.201" y="0.649231" width="848.363" height="797.604" filterUnits="userSpaceOnUse" color-interpolation-filters="sRGB">
<feFlood flood-opacity="0" result="BackgroundImageFix"/>
<feBlend mode="normal" in="SourceGraphic" in2="BackgroundImageFix" result="shape"/>
<feGaussianBlur stdDeviation="100" result="effect1_foregroundBlur_2044_633"/>
</filter>
<filter id="filter1_f_2044_633" x="826.889" y="0.649231" width="848.363" height="797.604" filterUnits="userSpaceOnUse" color-interpolation-filters="sRGB">
<feFlood flood-opacity="0" result="BackgroundImageFix"/>
<feBlend mode="normal" in="SourceGraphic" in2="BackgroundImageFix" result="shape"/>
<feGaussianBlur stdDeviation="100" result="effect1_foregroundBlur_2044_633"/>
</filter>
<filter id="filter2_f_2044_633" x="325.654" y="0.649292" width="848.363" height="797.604" filterUnits="userSpaceOnUse" color-interpolation-filters="sRGB">
<feFlood flood-opacity="0" result="BackgroundImageFix"/>
<feBlend mode="normal" in="SourceGraphic" in2="BackgroundImageFix" result="shape"/>
<feGaussianBlur stdDeviation="100" result="effect1_foregroundBlur_2044_633"/>
</filter>
<linearGradient id="paint0_linear_2044_633" x1="180.24" y1="755.874" x2="539.013" y2="349.282" gradientUnits="userSpaceOnUse">
<stop stop-color="#80AECF"/>
<stop offset="1" stop-color="#095396"/>
</linearGradient>
<linearGradient id="paint1_linear_2044_633" x1="1249.33" y1="755.874" x2="1608.1" y2="349.282" gradientUnits="userSpaceOnUse">
<stop stop-color="#80AECF"/>
<stop offset="1" stop-color="#095396"/>
</linearGradient>
<linearGradient id="paint2_linear_2044_633" x1="748.095" y1="755.874" x2="1106.87" y2="349.282" gradientUnits="userSpaceOnUse">
<stop stop-color="#095396"/>
<stop offset="1" stop-color="#095396"/>
</linearGradient>
</defs>
</svg>
