<svg width="36" height="51" viewBox="0 0 36 51" fill="none" xmlns="http://www.w3.org/2000/svg">
<g clip-path="url(#clip0_1584_10242)">
<path d="M1.64384 51C0.353555 51 0.0375358 50.676 0.0375358 49.3512V37.0201C0.0375358 28.4839 0.0375358 19.946 0.0375358 11.4098C0.0375358 11.3049 0.0282864 11.1985 0.0205787 11.0857C0.00362152 10.8697 -0.0148772 10.6473 0.029828 10.4297C0.109989 10.0453 0.216356 9.61323 0.479963 9.36067C2.21113 7.69757 3.96697 6.03448 5.66422 4.42539L5.69814 4.39362C7.02696 3.13399 8.35732 1.87277 9.68152 0.608372C10.1224 0.187436 10.5802 0 11.1691 0C16.0713 0.00794219 20.8224 0.00953063 25.2281 0.00953063H34.5438C35.6475 0.00953063 36.0005 0.374872 36.0021 1.51061C36.0021 7.26711 36.0021 13.022 36.0021 18.7785V49.3242C36.0021 50.6855 35.6953 50.9984 34.3634 50.9984H1.64384V51ZM11.8998 2.4589C11.8998 2.57645 11.8998 2.68923 11.9014 2.80201C11.9183 3.58511 11.9368 4.36979 11.9553 5.15289V5.21643C11.9908 6.70956 12.0247 8.20429 12.054 9.69901C12.0756 10.7664 11.721 11.154 10.7036 11.1794C9.0911 11.2207 7.48018 11.2604 5.86771 11.3002L2.74451 11.378C2.6366 11.3812 2.53023 11.3859 2.42233 11.3923L2.27742 11.4002V48.7111H33.7591V2.30006H11.8998V2.4589ZM4.15504 8.95244H9.72006V3.6677L4.15504 8.95244Z" fill="white"/>
<path d="M24.7632 19.4774C24.7293 19.4774 24.6939 19.4774 24.6584 19.4743C24.0433 19.4282 23.7258 19.0279 23.6271 18.1733L23.6148 18.0717L23.5207 18.0399C23.4221 18.0081 23.3234 17.9764 23.2248 17.9446C22.8625 17.8286 22.4879 17.7095 22.138 17.5364C20.7367 16.8391 20.0106 15.859 19.9181 14.5406C19.8657 13.8083 20.2434 13.2889 20.88 13.2206C20.9201 13.2158 20.9587 13.2142 20.9972 13.2142C21.492 13.2142 21.8759 13.5796 22.1071 14.269C22.269 14.7503 22.5465 15.1553 22.8332 15.3284C23.4498 15.6986 24.0911 15.886 24.737 15.886C25.3829 15.886 26.0119 15.7049 26.6362 15.3475C27.1126 15.0743 27.3823 14.701 27.3762 14.3246C27.37 13.9544 27.0956 13.6002 26.6223 13.3524C26.1136 13.0856 25.4677 12.9156 24.7016 12.8505C23.7365 12.7663 22.713 12.6122 21.768 12.0563C20.5856 11.3589 19.9027 10.2709 19.8965 9.07C19.8904 7.88185 20.5501 6.80012 21.7079 6.10121C22.1179 5.85341 22.5603 5.68504 23.029 5.50872C23.1939 5.44677 23.3604 5.38323 23.5254 5.31652L23.6024 5.28475L23.6194 5.20215C23.7905 4.39522 24.0248 3.92822 24.7154 3.92822C24.7339 3.92822 24.7524 3.92822 24.7709 3.92822C25.3922 3.94887 25.6727 4.28403 25.8408 5.2085L25.8562 5.29746L25.9379 5.32923C26.0751 5.38164 26.2138 5.43089 26.351 5.48172C26.7811 5.63738 27.2205 5.79623 27.6213 6.01384C28.8083 6.65875 29.4634 7.62452 29.5698 8.88733C29.6253 9.55606 29.2152 10.1072 28.614 10.1708C28.5616 10.1756 28.5108 10.1787 28.4599 10.1787C27.9003 10.1787 27.5118 9.85945 27.4455 9.34797C27.3207 8.38538 26.7672 7.87549 25.5941 7.64199C25.2534 7.57369 24.9266 7.54033 24.6229 7.54033C23.9154 7.54033 23.3065 7.71824 22.7607 8.08675C22.3214 8.3822 22.0778 8.7539 22.0917 9.10653C22.104 9.44169 22.3476 9.75938 22.7746 9.99924C23.2849 10.2867 23.94 10.4774 24.6199 10.5377C25.7421 10.6378 26.832 10.7807 27.8248 11.4225C28.9501 12.15 29.5883 13.2317 29.5775 14.3897C29.5652 15.5349 28.9146 16.5881 27.7908 17.2806C27.37 17.5396 26.8952 17.7206 26.4358 17.8954C26.2693 17.9589 26.1013 18.0224 25.9348 18.0907L25.8577 18.1225L25.8408 18.2051C25.6496 19.1105 25.3367 19.4806 24.7632 19.4806V19.4774Z" fill="#80AECF"/>
<path d="M13.1592 43.3723C10.9779 43.3723 8.79815 43.3723 6.61685 43.3707H6.44419C6.27616 43.3707 6.07884 43.3675 5.89232 43.3167C5.35123 43.169 5.04908 42.7655 5.06296 42.208C5.07683 41.6361 5.38668 41.2565 5.93548 41.1374C6.15746 41.0897 6.39024 41.0897 6.59681 41.0897C11.5868 41.0897 16.5769 41.0881 21.5653 41.0881H28.7829C28.8292 41.0881 28.8739 41.0881 28.9201 41.0897C29.6786 41.1278 30.1549 41.5599 30.1626 42.2175C30.1657 42.5177 30.0639 42.7862 29.8666 42.9911C29.6339 43.2341 29.2808 43.3691 28.8754 43.3691C27.0178 43.3723 25.1602 43.3723 23.3042 43.3723H13.1592Z" fill="white"/>
<path d="M6.54951 29.8929C6.33369 29.8929 6.13946 29.8898 5.94676 29.85C5.39797 29.7389 5.08349 29.3624 5.06345 28.7906C5.04341 28.233 5.34093 27.8248 5.88048 27.6723C6.06392 27.6199 6.25507 27.6167 6.42002 27.6167H6.60193C8.92968 27.6167 11.2528 27.6167 13.5744 27.6167H21.8849C24.1341 27.6167 26.3847 27.6167 28.6339 27.6199C28.8944 27.6199 29.1688 27.6278 29.417 27.7088C29.9195 27.8724 30.1878 28.2807 30.1508 28.8255C30.1138 29.3687 29.8024 29.7404 29.2952 29.8437C29.0717 29.8898 28.8374 29.8929 28.6354 29.8929C24.8848 29.8929 21.1342 29.8945 17.3851 29.8945C13.6361 29.8945 10.1629 29.8945 6.55105 29.8945L6.54951 29.8929Z" fill="#80AECF"/>
<path d="M28.9404 36.6198C28.8896 36.6198 28.8387 36.6198 28.7878 36.6167C28.74 36.6167 28.6922 36.6135 28.6445 36.6135H18.2174H6.5601C6.51231 36.6135 6.46607 36.6135 6.41828 36.6167C6.36741 36.6167 6.31654 36.6198 6.26567 36.6198C6.13926 36.6198 6.04368 36.6119 5.95427 36.5928C5.37773 36.4673 5.05246 36.0591 5.06479 35.4714C5.07712 34.8789 5.41627 34.4834 5.99589 34.3881C6.08222 34.3738 6.17471 34.3674 6.29495 34.3674C6.34583 34.3674 6.39824 34.3674 6.44911 34.369C6.49844 34.369 6.54777 34.3706 6.59556 34.3706H28.6229C28.6737 34.3706 28.72 34.3706 28.7678 34.369C28.8248 34.369 28.8711 34.3674 28.9173 34.3674C29.0406 34.3674 29.1347 34.3738 29.2225 34.3881C29.8037 34.485 30.1429 34.8821 30.1506 35.4778C30.1583 36.0671 29.8315 36.4753 29.2503 36.5944C29.1609 36.6119 29.0653 36.6214 28.9404 36.6214V36.6198Z" fill="white"/>
<path d="M28.3717 23.1627C28.2129 23.1627 28.0541 23.1611 27.8953 23.1595C27.7381 23.1579 27.5793 23.1563 27.4221 23.1563H13.6513C11.2819 23.1563 8.91411 23.1563 6.54474 23.1563C6.5062 23.1563 6.46766 23.1563 6.42912 23.1579H6.41062C6.369 23.1579 6.32892 23.1595 6.2873 23.1595C6.18864 23.1595 6.05915 23.1548 5.93274 23.1214C5.34695 22.9673 5.03864 22.5623 5.06176 21.9809C5.08642 21.3805 5.42403 21.0024 6.01136 20.9151C6.13777 20.896 6.26109 20.8928 6.40908 20.8928H28.8187C28.905 20.8928 29.0083 20.8928 29.1116 20.9039C29.7313 20.9675 30.1629 21.4281 30.1599 22.0238C30.1568 22.629 29.7005 23.1119 29.0977 23.1452C28.885 23.1563 28.6553 23.1627 28.3717 23.1627Z" fill="#80AECF"/>
</g>
<defs>
<clipPath id="clip0_1584_10242">
<rect width="36" height="51" fill="white"/>
</clipPath>
</defs>
</svg>
