<svg width="64" height="51" viewBox="0 0 64 51" fill="none" xmlns="http://www.w3.org/2000/svg">
<g clip-path="url(#clip0_1584_12431)">
<path d="M-0.00113296 25.8928C0.0740118 25.635 0.150827 25.3755 0.225971 25.1176C0.857188 22.9612 2.7141 21.3555 4.94006 21.245C7.05914 21.1396 9.18657 21.1948 11.3107 21.1881C13.1225 21.1814 14.9343 21.1965 16.7461 21.1747C16.9515 21.1731 17.2521 21.0542 17.344 20.8935C19.5766 17.0326 21.7859 13.155 24.0035 9.28572C25.2893 7.0422 26.5784 4.80202 27.8742 2.56519C29.8547 -0.850321 34.143 -0.851995 36.1151 2.56519C39.4916 8.4151 42.8815 14.2583 46.2029 20.14C46.6688 20.9654 47.1347 21.23 48.0565 21.2132C51.4096 21.1496 54.7627 21.1864 58.1159 21.1898C61.7312 21.1931 63.9939 23.4702 63.9939 27.1017C63.9939 33.1993 64.0005 39.2971 63.9922 45.3964C63.9888 48.159 62.2522 50.3405 59.6271 50.8964C59.223 50.9818 58.8005 51.0002 58.3847 51.0002C51.595 51.0069 44.8035 51.0052 38.0138 51.0036C37.1037 51.0036 36.581 50.6352 36.4909 49.9504C36.399 49.2506 36.8115 48.6696 37.5162 48.5457C37.78 48.4989 38.0555 48.5005 38.3244 48.5005C44.9271 48.4989 51.5298 48.5005 58.1326 48.4989C60.3418 48.4989 61.4924 47.352 61.4924 45.157C61.4924 39.1213 61.4924 33.0855 61.4924 27.0514C61.4924 24.8615 60.3285 23.7012 58.1309 23.6995C54.5273 23.6979 50.9237 23.6995 47.3201 23.6995C47.1965 23.6995 47.0729 23.7179 47.0662 23.8218C46.5586 24.5702 46.1228 25.3805 45.5266 26.0485C44.8119 26.8505 43.83 27.2339 42.7462 27.3009C42.3939 27.3227 42.0382 27.3294 41.6842 27.331C35.2902 27.331 28.8946 27.2875 22.5006 27.3528C19.7987 27.3813 17.9151 26.3934 17.045 23.6979C16.6927 23.6979 16.3404 23.6979 15.988 23.6979C12.6132 23.6979 9.24001 23.6979 5.86517 23.6979C3.63087 23.6979 2.492 24.8481 2.492 27.1C2.492 33.1357 2.492 39.1715 2.492 45.2056C2.492 47.3269 3.65758 48.4972 5.77667 48.4972C12.5464 48.4989 19.3161 48.4972 26.0841 48.5005C26.3947 48.5005 26.7137 48.5072 27.0143 48.5759C27.597 48.7098 27.9594 49.2389 27.9243 49.8316C27.8893 50.4276 27.4701 50.8981 26.8773 50.9768C26.6302 51.0086 26.378 51.0019 26.1292 51.0019C19.4013 51.0019 12.6733 51.0019 5.94533 51.0019C2.74249 51.0019 0.880566 49.552 0.0589829 46.4261C0.0489636 46.3893 0.013896 46.3575 -0.0078125 46.324C-0.00113296 39.5114 -0.00113296 32.7021 -0.00113296 25.8928ZM31.9939 24.8062C35.3654 24.8062 38.7385 24.8179 42.11 24.7928C42.5692 24.7895 43.0819 24.694 43.476 24.473C44.538 23.8753 44.7701 22.5995 44.0922 21.4208C40.7274 15.5693 37.3575 9.71936 33.9877 3.86945C32.944 2.05789 31.0571 2.05622 30.015 3.8661C26.6552 9.69759 23.3338 15.5508 19.9173 21.3489C18.9187 23.0432 20.0609 24.8933 21.9428 24.8364C25.2909 24.7342 28.6441 24.8079 31.9955 24.8079L31.9939 24.8062Z" fill="white"/>
<path d="M45.3813 40.0554C45.7804 38.8197 45.3262 37.7984 44.4311 36.8876C44.0387 36.4892 43.7164 36.017 43.3874 35.5616C42.7996 34.7446 43.0969 33.8371 44.057 33.529C45.0072 33.226 45.9724 32.9665 46.9192 32.6484C47.1714 32.563 47.4319 32.3738 47.5888 32.1578C48.1566 31.386 48.6726 30.5756 49.227 29.7921C49.8816 28.8645 50.8268 28.8645 51.478 29.7904C52.0174 30.5572 52.5183 31.3542 53.0811 32.1042C53.2631 32.347 53.5604 32.5596 53.8476 32.6584C54.7109 32.9581 55.5993 33.1875 56.4726 33.4587C57.6666 33.8287 57.9555 34.7194 57.2074 35.7089C57.0187 35.9584 56.8534 36.2347 56.6279 36.4456C55.3989 37.5858 54.9898 38.9788 55.2703 40.6146C55.3338 40.9829 55.3271 41.3646 55.3221 41.7397C55.3087 42.7442 54.5306 43.3068 53.5771 42.9837C52.672 42.6756 51.7886 42.2989 50.8752 42.0159C50.5529 41.9155 50.1471 41.9205 49.8231 42.0193C48.9498 42.2888 48.1032 42.6421 47.2398 42.9468C46.1511 43.3319 45.3779 42.771 45.3829 41.6091C45.3846 41.1085 45.3829 40.6079 45.3829 40.0554H45.3813ZM50.3542 32.5831C49.5777 34.3176 48.2702 35.1799 46.4333 35.4243C47.8493 36.6649 48.3169 38.1601 47.9612 40.0085C49.5944 39.0843 51.1524 39.0508 52.7688 40.0235C52.4015 38.1751 52.8473 36.6733 54.2717 35.426C52.4465 35.1698 51.1223 34.3327 50.3558 32.5831H50.3542Z" fill="#80AECF"/>
<path d="M37.1199 40.2227C37.1199 40.6614 37.1165 41.1001 37.1199 41.537C37.1316 42.8145 36.3651 43.3536 35.1544 42.9116C34.2944 42.5985 33.4445 42.2553 32.5778 41.969C32.3273 41.887 32.005 41.8803 31.7545 41.9623C30.8461 42.2603 29.9577 42.6186 29.0577 42.9401C27.9288 43.3419 27.1624 42.766 27.1958 41.5571C27.2208 40.6179 27.2709 39.6786 27.2542 38.7393C27.2492 38.4346 27.1273 38.0897 26.9503 37.8402C26.4059 37.0768 25.7964 36.3602 25.2336 35.6101C24.5757 34.7328 24.8663 33.8421 25.9116 33.5139C26.8234 33.2276 27.7502 32.9798 28.6519 32.6651C28.9408 32.5646 29.238 32.3553 29.42 32.1126C29.9828 31.3625 30.4854 30.5689 31.0231 29.8004C31.6744 28.8695 32.6229 28.8611 33.2741 29.7853C33.8035 30.5354 34.2878 31.3173 34.8438 32.0439C35.0526 32.3168 35.3782 32.5562 35.6988 32.6718C36.5788 32.9865 37.4889 33.2142 38.379 33.5005C39.441 33.8438 39.7249 34.7646 39.0486 35.657C38.5693 36.2882 38.1018 36.9311 37.5774 37.5238C37.1349 38.0244 36.9162 38.5518 37.028 39.2215C37.0815 39.5497 37.0664 39.8879 37.0831 40.2211C37.0948 40.2211 37.1065 40.2211 37.1182 40.2211L37.1199 40.2227ZM34.6601 39.985C34.1458 38.1249 34.7136 36.6699 36.0495 35.4025C34.1659 35.2133 32.9352 34.254 32.142 32.5713C31.3838 34.3126 30.0813 35.1848 28.2411 35.4243C29.6572 36.68 30.1114 38.1784 29.6538 40.0151C30.5689 39.7171 31.3321 39.2768 32.0985 39.2717C32.8867 39.2684 33.6766 39.6903 34.6601 39.985Z" fill="#80AECF"/>
<path d="M8.99827 40.0286C9.46584 38.7679 8.83963 37.7198 7.92287 36.747C7.58221 36.3837 7.29165 35.9702 6.99942 35.565C6.41162 34.7513 6.70719 33.8338 7.66236 33.5308C8.6142 33.2277 9.57939 32.9699 10.5245 32.6518C10.7767 32.5664 11.0372 32.3772 11.1942 32.1629C11.7619 31.391 12.2796 30.5807 12.8307 29.7971C13.4836 28.8679 14.4287 28.8646 15.0817 29.7888C15.6227 30.5556 16.122 31.3525 16.6848 32.1026C16.8668 32.3454 17.1607 32.5613 17.4479 32.6601C18.3513 32.9732 19.2798 33.211 20.1898 33.504C21.2686 33.8505 21.5358 34.7413 20.8561 35.6554C20.7693 35.7726 20.6925 35.9032 20.5856 35.9986C19.0276 37.3966 18.555 39.1479 18.8957 41.1705C18.9257 41.3546 18.9191 41.5455 18.9157 41.733C18.9007 42.7493 18.1459 43.3102 17.1857 42.9837C16.2606 42.6689 15.3572 42.2905 14.4271 41.9908C14.1398 41.8988 13.7741 41.8988 13.4886 41.9908C12.5985 42.2755 11.7319 42.6321 10.8502 42.9452C9.74972 43.3353 8.99326 42.7861 8.9966 41.6125C8.9966 41.1319 8.9966 40.6514 8.9966 40.0286H8.99827ZM11.5549 40.0186C13.1964 39.0307 14.7694 39.1128 16.3975 40.0102C15.9667 38.1417 16.5011 36.675 17.8587 35.4059C15.9667 35.2134 14.7327 34.249 13.9461 32.563C13.1964 34.3126 11.8888 35.1799 10.0453 35.426C11.4497 36.6734 11.9356 38.1584 11.5532 40.0186H11.5549Z" fill="#80AECF"/>
<path d="M33.2594 12.2105C33.2594 13.3155 33.2661 14.4205 33.2578 15.5239C33.2511 16.361 32.7818 16.8817 32.0488 16.8968C31.289 16.9119 30.7696 16.3794 30.7646 15.5256C30.7529 13.2954 30.7529 11.0653 30.7646 8.83516C30.7696 8.03989 31.3123 7.479 32.0154 7.479C32.7301 7.479 33.2477 8.02817 33.2561 8.83349C33.2678 9.9586 33.2594 11.0837 33.2594 12.2105Z" fill="#80AECF"/>
<path d="M33.2515 20.4362C33.2615 21.1159 32.7238 21.6919 32.0609 21.7103C31.3879 21.7287 30.7634 21.126 30.7617 20.4563C30.7617 19.7782 31.3044 19.2458 32.0024 19.2408C32.7071 19.2357 33.2398 19.7464 33.2515 20.4362Z" fill="white"/>
<path d="M25 48.5H40V51H25V48.5Z" fill="white"/>
</g>
<defs>
<clipPath id="clip0_1584_12431">
<rect width="64" height="51" fill="white"/>
</clipPath>
</defs>
</svg>
