<svg width="52" height="46" viewBox="0 0 52 46" fill="none" xmlns="http://www.w3.org/2000/svg">
<g clip-path="url(#clip0_1584_10233)">
<path d="M7.92805 45.7C6.62805 45.7 5.5657 45.698 4.58359 45.693C2.72602 45.683 1.09289 44.5265 0.519062 42.8152C0.461172 42.6412 0.411406 42.4573 0.362656 42.2784L0.359609 42.2674C0.340312 42.1974 0.322031 42.1274 0.302734 42.0575V19.9631C0.304766 19.9581 0.306797 19.9521 0.308828 19.9471C0.333203 19.8881 0.360625 19.8222 0.379922 19.7452C0.908047 17.5651 2.51375 16.3115 4.78469 16.3075C5.28844 16.3075 5.7932 16.3065 6.29695 16.3065H9.5175V8.71051H8.64C8.00625 8.71051 7.3725 8.70751 6.73875 8.70552C6.10398 8.70252 5.46922 8.70052 4.83547 8.70052C3.7457 8.70052 2.85703 8.70852 2.03742 8.72551C2.00898 8.72551 1.97953 8.72551 1.95211 8.72551C1.11219 8.72551 0.615547 8.46061 0.30375 7.84285V1.18046C0.618594 0.555705 1.12437 0.299805 2.03742 0.299805C9.9725 0.308801 18.0457 0.313799 26.0336 0.313799C34.0215 0.313799 41.9962 0.308801 49.9546 0.299805C50.8737 0.299805 51.3816 0.555705 51.6944 1.18046V7.84285C51.3846 8.46061 50.889 8.72551 50.045 8.72551C50.0176 8.72551 49.9891 8.72551 49.9607 8.72551C49.132 8.70951 48.2352 8.70152 47.1393 8.70152C46.5005 8.70152 45.8606 8.70352 45.2218 8.70652C44.5799 8.70852 43.9431 8.71151 43.3073 8.71151H42.4796V16.3085H43.3937C43.8091 16.3085 44.2255 16.3055 44.6419 16.3015C45.0563 16.2985 45.4706 16.2945 45.885 16.2945C46.5116 16.2945 47.0266 16.3025 47.507 16.3195C49.3016 16.3825 50.5965 17.2502 51.3582 18.8965C51.4618 19.1204 51.5329 19.3763 51.602 19.6232C51.6324 19.7332 51.6629 19.8432 51.6964 19.9521V42.0225C51.6761 42.0585 51.6548 42.1035 51.6405 42.1574C51.0017 44.5725 49.5311 45.697 47.0103 45.697H12.7025C11.9062 45.697 11.111 45.697 10.3148 45.699H10.071C9.35703 45.699 8.64203 45.701 7.92805 45.701V45.7ZM31.4022 43.268L31.6916 43.282C31.7363 43.284 31.7739 43.286 31.8084 43.288C31.8938 43.293 31.9537 43.296 32.0136 43.296C32.0136 43.296 38.6507 43.297 40.5083 43.297C42.7701 43.297 45.0309 43.297 47.2916 43.295C48.5205 43.295 49.2548 42.5423 49.2548 41.2828C49.2559 34.4384 49.2559 27.5941 49.2548 20.7488C49.2548 19.4123 48.5338 18.7056 47.1698 18.7056C44.8247 18.7056 32.2462 18.7056 32.2462 18.7056H31.4002V43.267L31.4022 43.268ZM4.82836 18.7066C3.46336 18.7066 2.74227 19.4123 2.74125 20.7478C2.74125 27.5761 2.74125 34.4045 2.74125 41.2328C2.74125 42.6023 3.4532 43.296 4.8568 43.297H14.0431C18.7312 43.297 23.4173 43.297 28.1055 43.297C28.2233 43.297 28.337 43.291 28.4569 43.284C28.5158 43.281 28.5727 43.278 28.6305 43.275L28.921 43.262V18.7066H17.3073C13.1463 18.7066 8.98633 18.7066 4.82633 18.7066H4.82836ZM12.023 16.2826H39.9903V8.7445H12.023V16.2826ZM2.78086 6.28746H49.2315V2.74485H2.78086V6.28646V6.28746Z" fill="white"/>
<path d="M11.5329 39.2747C10.8261 39.2747 10.3406 38.7479 10.3233 37.9632C10.3172 37.7113 10.3193 37.4614 10.3203 37.1735C10.3203 37.0345 10.3213 36.8886 10.3213 36.7327V36.4328H9.2691C9.12692 36.4338 8.98574 36.4328 8.84457 36.4328C7.99449 36.4258 7.4552 35.9779 7.43793 35.2632C7.42981 34.9523 7.53645 34.6745 7.74465 34.4595C7.99957 34.1966 8.38856 34.0457 8.84153 34.0357C8.88418 34.0357 8.92785 34.0327 8.97153 34.0307H8.98168C9.02739 34.0277 9.07309 34.0257 9.11879 34.0257C9.16653 34.0257 9.2041 34.0287 9.2366 34.0337C9.44582 34.0707 9.65098 34.0897 9.84598 34.0897C10.7834 34.0897 11.5705 33.6788 12.3241 32.7972C12.837 32.1974 13.4301 31.6366 14.0039 31.0939C14.27 30.842 14.5402 30.5871 14.8012 30.3292C14.8794 30.2522 14.9515 30.1722 15.0439 30.0723C15.0978 30.0133 15.1516 29.9543 15.2166 29.8843L15.6828 29.3825H14.9911C14.7525 29.3825 14.526 29.3845 14.3066 29.3865H14.2873C14.0903 29.3885 13.9004 29.3905 13.7135 29.3905C13.4332 29.3905 13.2026 29.3865 12.9883 29.3775C12.3434 29.3515 11.8437 28.9267 11.7726 28.3439C11.6995 27.7452 12.0428 27.2104 12.6064 27.0444C12.773 26.9955 12.9772 26.9905 13.1711 26.9895C13.4149 26.9895 13.6576 26.9885 13.9014 26.9885H15.4025C16.0647 26.9895 16.8477 26.9885 17.6409 26.9725C17.97 26.9665 18.3508 26.8105 18.5875 26.5846C19.3959 25.8139 20.2023 25.0182 20.9823 24.2485C21.3601 23.8757 21.7379 23.5028 22.1178 23.132C22.3879 22.8681 22.6835 22.7341 22.9963 22.7341C23.1354 22.7341 23.2817 22.7601 23.431 22.8121C23.9104 22.978 24.1724 23.3099 24.2313 23.8277C24.276 24.2186 24.1307 24.5534 23.7611 24.9153C23.3325 25.3341 22.9069 25.754 22.4804 26.1748C21.7948 26.8515 21.0869 27.5492 20.3831 28.227C20.055 28.5429 19.9118 28.8787 19.9179 29.3156C19.9372 30.5821 19.9322 31.8696 19.9271 33.1161L19.925 33.6559C19.922 34.4875 19.467 35.0093 18.7368 35.0193H18.7144C17.9801 35.0193 17.4997 34.4835 17.4906 33.6539C17.4865 33.268 17.4875 32.8752 17.4886 32.4953C17.4886 32.3164 17.4896 31.7796 17.4896 31.7796L17.0072 31.5437L16.0393 32.4993C15.0419 33.4839 14.01 34.5015 13.0015 35.5181C12.8553 35.6661 12.7761 35.901 12.7659 36.2169C12.7568 36.5207 12.7578 36.8266 12.7598 37.1225C12.7608 37.4024 12.7629 37.6873 12.7557 37.9662C12.7354 38.7379 12.2327 39.2767 11.535 39.2777L11.5329 39.2747Z" fill="#80AECF"/>
<path d="M40.3965 26.2058C39.0945 26.2058 37.7925 26.2048 36.4904 26.2028C36.0791 26.2028 35.7165 26.0668 35.4707 25.8219C35.2524 25.604 35.1386 25.3171 35.1427 24.9912C35.1498 24.3085 35.7094 23.8097 36.4732 23.8067C37.0084 23.8047 37.5436 23.8037 38.0789 23.8037L40.4767 23.8057H42.8025C43.3114 23.8047 43.8192 23.8057 44.328 23.8057C45.1456 23.8087 45.6971 24.2865 45.7011 24.9962C45.7032 25.3221 45.5894 25.608 45.3721 25.8229C45.1263 26.0668 44.7617 26.2008 44.3463 26.2018C43.03 26.2038 41.7128 26.2048 40.3965 26.2048V26.2058Z" fill="#80AECF"/>
<path d="M38.0778 32.2033C37.5599 32.2033 37.0409 32.2033 36.5229 32.2013C35.7053 32.1983 35.1508 31.7215 35.1427 31.0148C35.1386 30.6899 35.2503 30.406 35.4636 30.1931C35.7145 29.9432 36.0974 29.8042 36.5412 29.8042C37.8341 29.8032 39.126 29.8022 40.4189 29.8022C41.7117 29.8022 43.0036 29.8022 44.2965 29.8042C44.7444 29.8042 45.1293 29.9422 45.3802 30.1921C45.5925 30.403 45.7042 30.6859 45.7011 31.0098C45.696 31.7325 45.1375 32.2003 44.2772 32.2023C43.7603 32.2033 43.2423 32.2033 42.7253 32.2033H40.365H38.0778Z" fill="#80AECF"/>
<path d="M38.1215 38.2011C37.5954 38.2011 37.0683 38.2011 36.5422 38.1991C36.0964 38.1981 35.7135 38.0602 35.4616 37.8093C35.2483 37.5974 35.1376 37.3135 35.1407 36.9886C35.1468 36.2799 35.7003 35.8021 36.5179 35.8011C37.8189 35.7991 39.1199 35.7991 40.4209 35.7991C41.7219 35.7991 43.023 35.7991 44.324 35.8011C45.1415 35.8021 45.694 36.2799 45.6991 36.9896C45.7022 37.3145 45.5905 37.5974 45.3782 37.8093C45.1273 38.0592 44.7424 38.1971 44.2955 38.1981C43.7755 38.1991 43.2565 38.2001 42.7365 38.2001H40.4433H38.1195L38.1215 38.2011Z" fill="#80AECF"/>
</g>
<defs>
<clipPath id="clip0_1584_10233">
<rect width="52" height="46" fill="white"/>
</clipPath>
</defs>
</svg>
