<svg width="192" height="192" viewBox="0 0 192 192" fill="none" xmlns="http://www.w3.org/2000/svg">
<rect width="192" height="192" fill="white"/>
<path d="M70.1879 57.7841C69.3048 57.7841 68.6036 58.4931 68.6036 59.386C68.6036 60.2788 69.3048 60.9879 70.1879 60.9879C71.0709 60.9879 71.7721 60.2788 71.7721 59.386C71.7721 58.4931 71.0709 57.7841 70.1879 57.7841Z" fill="#095396"/>
<path d="M88.159 61.9333C89.034 61.9333 89.7433 61.2161 89.7433 60.3314C89.7433 59.4466 89.034 58.7294 88.159 58.7294C87.2841 58.7294 86.5748 59.4466 86.5748 60.3314C86.5748 61.2161 87.2841 61.9333 88.159 61.9333Z" fill="#095396"/>
<path d="M95.4613 55C94.5783 55 93.8771 55.709 93.8771 56.6019C93.8771 57.4948 94.5783 58.2038 95.4613 58.2038C96.3443 58.2038 97.0456 57.4948 97.0456 56.6019C97.0456 55.709 96.3184 55 95.4613 55Z" fill="#095396"/>
<path d="M102.655 58.7549C101.772 58.7549 101.07 59.4639 101.07 60.3568C101.07 61.2496 101.772 61.9587 102.655 61.9587C103.538 61.9587 104.239 61.2496 104.239 60.3568C104.239 59.4639 103.538 58.7549 102.655 58.7549Z" fill="#095396"/>
<path d="M110.885 61.2768C110.002 61.2768 109.301 61.9858 109.301 62.8787C109.301 63.7716 110.002 64.4806 110.885 64.4806C111.768 64.4806 112.47 63.7716 112.47 62.8787C112.47 62.0121 111.768 61.2768 110.885 61.2768Z" fill="#095396"/>
<path d="M119.578 65.5302C120.453 65.5302 121.163 64.813 121.163 63.9283C121.163 63.0436 120.453 62.3264 119.578 62.3264C118.703 62.3264 117.994 63.0436 117.994 63.9283C117.994 64.813 118.703 65.5302 119.578 65.5302Z" fill="#095396"/>
<path d="M126.129 69.6274C125.246 69.6274 124.545 70.3364 124.545 71.2293C124.545 72.1222 125.246 72.8312 126.129 72.8312C127.012 72.8312 127.713 72.1222 127.713 71.2293C127.713 70.3364 127.012 69.6274 126.129 69.6274Z" fill="#095396"/>
<path d="M131.478 79.4757C132.361 79.4757 133.062 78.7666 133.062 77.8738C133.062 76.9809 132.361 76.2718 131.478 76.2718C130.595 76.2718 129.893 76.9809 129.893 77.8738C129.893 78.7666 130.595 79.4757 131.478 79.4757Z" fill="#095396"/>
<path d="M131.788 104.737C130.905 104.737 130.204 105.446 130.204 106.339C130.204 107.232 130.905 107.941 131.788 107.941C132.671 107.941 133.372 107.232 133.372 106.339C133.372 105.446 132.671 104.737 131.788 104.737Z" fill="#095396"/>
<path d="M105.506 115.716C106.381 115.716 107.09 114.998 107.09 114.114C107.09 113.229 106.381 112.512 105.506 112.512C104.631 112.512 103.922 113.229 103.922 114.114C103.922 114.998 104.631 115.716 105.506 115.716Z" fill="#095396"/>
<path d="M125.034 110.436C124.151 110.436 123.45 111.145 123.45 112.038C123.45 112.931 124.151 113.64 125.034 113.64C125.917 113.64 126.618 112.931 126.618 112.038C126.618 111.145 125.891 110.436 125.034 110.436Z" fill="#095396"/>
<path d="M120.598 118.367C120.598 117.474 119.896 116.765 119.013 116.765C118.13 116.765 117.429 117.474 117.429 118.367C117.429 119.26 118.13 119.969 119.013 119.969C119.896 119.969 120.598 119.234 120.598 118.367Z" fill="#095396"/>
<path d="M120.597 125.064C119.714 125.064 119.013 125.773 119.013 126.665C119.013 127.558 119.714 128.267 120.597 128.267C121.48 128.267 122.181 127.558 122.181 126.665C122.181 125.799 121.454 125.064 120.597 125.064Z" fill="#095396"/>
<path d="M110.647 126.981C109.764 126.981 109.063 127.69 109.063 128.583C109.063 129.476 109.764 130.185 110.647 130.185C111.53 130.185 112.231 129.476 112.231 128.583C112.231 127.69 111.53 126.981 110.647 126.981Z" fill="#095396"/>
<path d="M98.5691 136.383C99.4441 136.383 100.153 135.666 100.153 134.781C100.153 133.896 99.4441 133.179 98.5691 133.179C97.6942 133.179 96.9849 133.896 96.9849 134.781C96.9849 135.666 97.6942 136.383 98.5691 136.383Z" fill="#095396"/>
<path d="M91.3038 132.259C92.1788 132.259 92.8881 131.542 92.8881 130.657C92.8881 129.772 92.1788 129.055 91.3038 129.055C90.4289 129.055 89.7196 129.772 89.7196 130.657C89.7196 131.542 90.4289 132.259 91.3038 132.259Z" fill="#095396"/>
<path d="M83.9564 123.567C83.0734 123.567 82.3721 124.276 82.3721 125.169C82.3721 126.062 83.0734 126.771 83.9564 126.771C84.8394 126.771 85.5406 126.062 85.5406 125.169C85.5406 124.276 84.8394 123.567 83.9564 123.567Z" fill="#095396"/>
<path d="M74.3905 122.358C75.2655 122.358 75.9748 121.641 75.9748 120.756C75.9748 119.872 75.2655 119.154 74.3905 119.154C73.5156 119.154 72.8063 119.872 72.8063 120.756C72.8063 121.641 73.5156 122.358 74.3905 122.358Z" fill="#095396"/>
<path d="M65.6381 116.32C64.755 116.32 64.0538 117.029 64.0538 117.922C64.0538 118.815 64.755 119.524 65.6381 119.524C66.5211 119.524 67.2223 118.815 67.2223 117.922C67.2223 117.029 66.4951 116.32 65.6381 116.32Z" fill="#095396"/>
<path d="M66.9116 110.937C67.7866 110.937 68.4958 110.219 68.4958 109.335C68.4958 108.45 67.7866 107.733 66.9116 107.733C66.0366 107.733 65.3274 108.45 65.3274 109.335C65.3274 110.219 66.0366 110.937 66.9116 110.937Z" fill="#095396"/>
<path d="M65.3285 63.9283C65.3285 63.0354 64.6272 62.3264 63.7442 62.3264C62.8612 62.3264 62.16 63.0354 62.16 63.9283C62.16 64.8212 62.8612 65.5302 63.7442 65.5302C64.6272 65.5302 65.3285 64.8212 65.3285 63.9283Z" fill="#095396"/>
<path d="M56.9431 69.6274C56.0601 69.6274 55.3589 70.3364 55.3589 71.2293C55.3589 72.1222 56.0601 72.8312 56.9431 72.8312C57.8262 72.8312 58.5274 72.1222 58.5274 71.2293C58.5274 70.3364 57.8262 69.6274 56.9431 69.6274Z" fill="#095396"/>
<path d="M52.2146 76.2718C51.3316 76.2718 50.6304 76.9809 50.6304 77.8738C50.6304 78.7666 51.3316 79.4757 52.2146 79.4757C53.0976 79.4757 53.7989 78.7666 53.7989 77.8738C53.7989 77.0071 53.0976 76.2718 52.2146 76.2718Z" fill="#095396"/>
<path d="M87.8454 70.9134H82.0278L72.1847 60.9342C71.7432 61.3807 72.1847 60.9342 71.7432 61.3807L81.1448 70.9134H71.0939L65.7438 65.5036C65.3023 65.9501 65.7438 65.5036 65.3023 65.9501L70.2369 70.9396H59.4588V71.5699H87.8714V77.5837H54.706V78.2139H87.8454V81.2339C87.8454 81.4177 87.9752 81.549 88.157 81.549C88.3388 81.549 88.4687 81.4177 88.4687 81.2339V62.8513H87.8454V70.9134Z" fill="#80AECF"/>
<path d="M95.1469 81.2088C95.1469 81.3926 95.2767 81.5239 95.4585 81.5239C95.6403 81.5239 95.7702 81.3926 95.7702 81.2088V59.0971H95.1469V81.2088Z" fill="#80AECF"/>
<path d="M102.964 62.8517H102.34V77.873C102.34 78.0568 102.47 78.1881 102.652 78.1881H128.987V77.5578H102.964V71.5441H123.637V70.9138H113.118L118.027 65.9243L117.585 65.4778L112.235 70.9138H103.405L109.353 64.9001L108.911 64.4537L102.964 70.4411V62.8517Z" fill="#80AECF"/>
<path d="M77.487 105.946C77.3571 105.815 77.1753 105.815 77.0455 105.946L74.0068 109.019H69.4099V109.649H73.3835L67.1764 115.925L67.6179 116.372L77.487 106.392C77.6168 106.261 77.6168 106.051 77.487 105.946Z" fill="#80AECF"/>
<path d="M84.269 122.648V106.182C84.269 105.998 84.1391 105.867 83.9573 105.867C83.7755 105.867 83.6457 105.998 83.6457 106.182V114.743H80.0357C79.9578 114.743 79.8798 114.77 79.8019 114.848L75.9062 118.787L76.3478 119.234L80.1396 115.4H83.6197V122.648H84.269Z" fill="#80AECF"/>
<path d="M91.6147 105C91.6147 104.816 91.4849 104.685 91.3031 104.685C91.1213 104.685 90.9914 104.816 90.9914 105V128.136H91.6147V105Z" fill="#80AECF"/>
<path d="M98.8862 104.16C98.8862 103.977 98.7564 103.845 98.5746 103.845C98.3928 103.845 98.2629 103.977 98.2629 104.16V132.26H98.8862V117.133L108.651 127.007L109.093 126.561L98.8602 116.214V106.629H105.171V111.566C105.275 111.54 105.379 111.54 105.483 111.54C105.587 111.54 105.691 111.566 105.795 111.566V106.629H112.054V118.368C112.054 118.446 112.08 118.525 112.158 118.604L118.572 125.09L119.014 124.644L112.677 118.236V112.328H118.65V115.82H119.274V112.328H122.494V111.697H112.677V106.629H129.247V105.999H98.8862V104.16Z" fill="#80AECF"/>
<path d="M179.395 98.882H178.304V98.4618H180.953V98.882H179.837V101.666H179.369V98.882H179.395Z" fill="black"/>
<path d="M181.443 98.4618H181.936L183.001 100.353L184.066 98.4618H184.559V101.666H184.092V99.2759L183.157 100.983H182.845L181.91 99.2759V101.666H181.443V98.4618Z" fill="black"/>
<path d="M18.4274 87.17C18.4274 87.17 14.7914 86.7499 13.311 86.7499C11.4151 86.7499 10.5061 87.4589 10.5061 88.6144C10.5061 89.7436 11.2073 90.1375 14.1421 91.0567C17.9339 92.2909 19.1026 93.3414 19.1026 96.2826C19.1026 100.143 16.5055 101.929 13.0513 101.929C10.6619 101.929 7.20777 101.115 7.20777 101.115L7.57137 98.3309C7.57137 98.3309 11.0255 98.8036 12.8435 98.8036C14.7394 98.8036 15.5705 97.8845 15.5705 96.5189C15.5705 95.416 14.9472 94.917 12.428 94.208C8.48036 93.0525 7 91.7132 7 88.877C7 85.2005 9.41533 83.6248 12.9734 83.6248C15.3108 83.6248 18.739 84.3339 18.739 84.3339L18.4274 87.17Z" fill="black"/>
<path d="M22.3516 88.6152L24.689 98.6731H25.3123L27.6497 88.6152H31.052L26.507 107.129H23.1307L24.5591 101.667H22.1438L18.9753 88.6415H22.3516V88.6152Z" fill="black"/>
<path d="M31.7497 101.665V88.64H35.1779V89.3753C35.1779 89.3753 36.9179 88.3248 38.3983 88.3248C42.0083 88.3248 42.9433 90.6095 42.9433 94.6012V101.665H39.4891V94.7062C39.4891 92.7367 39.2294 91.4499 37.5672 91.4499C36.3466 91.4499 35.2298 91.9226 35.2298 91.9226V101.665H31.7497Z" fill="black"/>
<path d="M54.5764 98.1212C54.6283 98.9091 54.7322 99.2242 55.4335 99.3555L55.3296 101.982C53.6155 101.982 52.7324 101.798 51.6417 101.062C51.6417 101.062 49.7977 101.982 47.8498 101.982C45.1488 101.982 43.8503 100.458 43.8503 97.7011C43.8503 94.7598 45.5384 93.9195 48.3693 93.7094L51.1222 93.4993V92.6852C51.1222 91.556 50.6288 91.2671 49.5899 91.2671C47.9018 91.2671 44.7333 91.4772 44.7333 91.4772L44.6294 89.0612C44.6294 89.0612 47.3824 88.2997 49.8496 88.2997C53.1999 88.2997 54.5504 89.639 54.5504 92.6852V98.1212H54.5764ZM48.7848 96.1254C47.8758 96.2042 47.3304 96.6506 47.3304 97.596C47.3304 98.5152 47.668 99.1454 48.603 99.1454C49.7198 99.1454 51.1222 98.7252 51.1222 98.7252V95.9416L48.7848 96.1254Z" fill="black"/>
<path d="M56.5753 88.6148H60.0035V89.3238C60.0035 89.3238 61.6917 88.2997 62.9383 88.2997C66.3405 88.2997 68.0027 90.1642 68.0027 95.0225C68.0027 100.564 66.1068 101.955 62.1591 101.955C61.1982 101.955 60.0295 101.745 60.0295 101.745V107.102H56.5753V88.6148ZM60.0295 91.9499V98.7778C60.0295 98.7778 61.1982 98.9353 61.8994 98.9353C63.9512 98.9353 64.4966 97.7798 64.4966 95.0225C64.4966 92.3964 63.6135 91.4247 62.263 91.4247C61.2242 91.451 60.0295 91.9499 60.0295 91.9499Z" fill="black"/>
<path d="M73.2763 96.9133C73.2763 98.2264 73.2762 98.8041 74.367 98.8041C75.0942 98.8041 76.3149 98.7516 76.3149 98.7516L76.4707 101.535C76.4707 101.535 74.7566 101.929 73.8476 101.929C70.7311 101.929 69.8221 100.721 69.8221 96.9658V91.5561H68.2898V88.5886H69.8221V84.9646H73.2763V88.5886H76.4447V91.5561H73.2763V96.9133Z" fill="black"/>
<path d="M77.4078 83.4148H80.862V86.96H77.4078V83.4148ZM77.4078 88.6144H80.862V101.64H77.4078V88.6144Z" fill="black"/>
<path d="M91.7184 88.8774L91.6145 91.6348C91.6145 91.6348 89.5888 91.4247 88.6019 91.4247C86.1346 91.4247 85.6671 92.3964 85.6671 94.9962C85.6671 97.9111 86.1606 98.8303 88.6278 98.8303C89.6147 98.8303 91.6145 98.6202 91.6145 98.6202L91.7184 101.404C91.7184 101.404 88.9655 101.955 87.5111 101.955C83.6673 101.955 82.161 99.907 82.161 94.9962C82.161 90.3743 83.7712 88.2997 87.589 88.2997C89.0953 88.2997 91.7184 88.8774 91.7184 88.8774Z" fill="black"/>
<path d="M100.135 83.9404H106.887L110.835 101.666H107.277L106.576 98.4627H100.446L99.7451 101.666H96.213L100.135 83.9404ZM101.122 95.3113H105.926L104.16 86.8816H102.914L101.122 95.3113Z" fill="#80AECF"/>
<path d="M113.61 88.6137L115.662 98.6716H116.389L118.545 88.6137H122.051L118.96 101.639H113.091L110 88.6137H113.61Z" fill="#80AECF"/>
<path d="M122.778 83.4148H126.233V86.96H122.778V83.4148ZM122.778 88.6144H126.233V101.64H122.778V88.6144Z" fill="#80AECF"/>
<path d="M138.001 98.1212C138.053 98.9091 138.157 99.2242 138.858 99.3555L138.754 101.982C137.04 101.982 136.157 101.798 135.066 101.062C135.066 101.062 133.222 101.982 131.274 101.982C128.573 101.982 127.275 100.458 127.275 97.7011C127.275 94.7598 128.963 93.9195 131.794 93.7094L134.547 93.4993V92.6852C134.547 91.556 134.053 91.2671 133.014 91.2671C131.326 91.2671 128.158 91.4772 128.158 91.4772L128.054 89.0612C128.054 89.0612 130.807 88.2997 133.274 88.2997C136.625 88.2997 137.975 89.639 137.975 92.6852V98.1212H138.001ZM132.209 96.1254C131.3 96.2042 130.755 96.6506 130.755 97.596C130.755 98.5152 131.093 99.1454 132.028 99.1454C133.144 99.1454 134.547 98.7252 134.547 98.7252V95.9416L132.209 96.1254Z" fill="#80AECF"/>
<path d="M143.97 96.9133C143.97 98.2264 143.97 98.8041 145.06 98.8041C145.788 98.8041 147.008 98.7516 147.008 98.7516L147.164 101.535C147.164 101.535 145.45 101.929 144.541 101.929C141.424 101.929 140.515 100.721 140.515 96.9658V91.5561H138.983V88.5886H140.515V84.9646H143.97V88.5886H147.138V91.5561H143.97V96.9133Z" fill="#80AECF"/>
<path d="M148.101 83.4148H151.555V86.96H148.101V83.4148ZM148.101 88.6144H151.555V101.64H148.101V88.6144Z" fill="#80AECF"/>
<path d="M164.648 95.1012C164.648 99.1192 163.194 101.955 158.727 101.955C154.233 101.955 152.805 99.1192 152.805 95.1012C152.805 91.0833 154.259 88.2997 158.727 88.2997C163.22 88.2997 164.648 91.1096 164.648 95.1012ZM161.142 95.1012C161.142 92.5802 160.622 91.2671 158.727 91.2671C156.831 91.2671 156.311 92.5802 156.311 95.1012C156.311 97.6223 156.831 98.9878 158.727 98.9878C160.622 98.9878 161.142 97.6485 161.142 95.1012Z" fill="#80AECF"/>
<path d="M165.89 101.665V88.64H169.318V89.3753C169.318 89.3753 171.058 88.3248 172.538 88.3248C176.148 88.3248 177.083 90.6095 177.083 94.6012V101.665H173.629V94.7062C173.629 92.7367 173.369 91.4499 171.707 91.4499C170.486 91.4499 169.37 91.9226 169.37 91.9226V101.665H165.89Z" fill="#80AECF"/>
</svg>
