<svg width="51" height="50" viewBox="0 0 51 50" fill="none" xmlns="http://www.w3.org/2000/svg">
<g clip-path="url(#clip0_1801_4984)">
<path d="M25.0616 50C13.4319 50 3.14737 41.7963 0.604123 30.4935C-2.24455 17.8225 5.23835 4.9234 17.6315 1.12268C20.0691 0.374225 22.5653 0 25.0498 0C26.6885 0 28.3625 0.163724 30.0247 0.485323C30.9527 0.666589 31.499 1.32733 31.358 2.09332C31.2229 2.82423 30.6943 3.23939 29.919 3.23939C29.778 3.23939 29.6371 3.22769 29.4902 3.19846C27.8985 2.91194 26.3244 2.76576 24.8149 2.76576C19.4053 2.76576 14.5655 4.61934 10.4364 8.27389C3.92855 14.0393 1.47928 21.4887 3.35294 29.8211C5.23835 38.2002 10.6538 43.913 19.0177 46.3338C21.0499 46.9243 23.1409 47.2225 25.226 47.2225C35.6986 47.2225 44.8437 39.7088 46.964 29.3533C47.6688 25.9151 47.5396 22.4301 46.5705 18.9861L46.5118 18.7756C46.4706 18.6411 46.4354 18.5125 46.406 18.3721C46.2475 17.5769 46.6645 16.8752 47.4104 16.694C47.5279 16.6647 47.6512 16.653 47.7687 16.653C48.3854 16.653 48.8964 17.0565 49.0961 17.7114C49.7716 19.9158 50.171 22.3073 50.1827 24.272C50.2003 36.908 41.7366 47.3161 29.5959 49.579C28.1041 49.8597 26.5769 50 25.0616 50Z" fill="white"/>
<path d="M25.0633 42.112C24.3173 42.1003 23.7241 41.5039 23.7065 40.7613C23.6889 40.0011 23.6947 39.241 23.6947 38.4633V36.8553L23.125 36.8378C21.6096 36.7968 20.3762 36.446 19.3601 35.7794C17.4042 34.4872 16.3763 32.657 16.2941 30.3356C16.2823 29.9263 16.4057 29.5521 16.6524 29.2831C16.8932 29.02 17.2338 28.8738 17.6156 28.8621C18.4732 28.8621 19.0194 29.4234 19.0664 30.2947C19.1839 32.4932 20.7991 34.0311 22.984 34.0311L23.6477 34.0194V26.4472L23.0721 26.4355C20.6522 26.3828 18.7551 25.3947 17.4394 23.506C16.5642 22.2547 16.1825 20.8396 16.3058 19.2901C16.529 16.3723 18.7316 13.3317 23.1367 13.1271L23.6947 13.1037V11.5542C23.6947 10.7882 23.6889 10.0222 23.6947 9.26204C23.7065 8.63638 24.0648 8.15105 24.6521 7.95809C24.8048 7.90547 24.9634 7.88208 25.1161 7.88208C25.5449 7.88208 25.9032 8.06335 26.1088 8.3791C26.2967 8.67146 26.4201 9.07492 26.4436 9.46669C26.4847 10.1801 26.4788 10.8876 26.467 11.6419C26.467 11.9518 26.4612 12.2617 26.4612 12.5774V13.1388L27.025 13.1622C28.9574 13.2382 30.4963 13.8404 31.7356 15.0157C33.1042 16.3138 33.8207 17.9218 33.8618 19.793C33.8736 20.2198 33.7326 20.6057 33.4624 20.8806C33.2099 21.1378 32.8692 21.284 32.4874 21.284C31.7004 21.284 31.1306 20.6876 31.0895 19.8397C30.9779 17.6821 29.304 15.9922 27.2835 15.9922C27.2012 15.9922 27.119 15.9922 27.0427 15.9981L26.4964 16.0332V23.5645L27.0603 23.5878C29.1278 23.6697 30.8781 24.4299 32.1291 25.7864C33.3039 27.067 33.9558 28.8387 33.8736 30.5227C33.7209 33.575 31.3245 36.7325 27.0368 36.8495L26.467 36.867V40.235C26.467 40.4104 26.467 40.5859 26.467 40.7554C26.4318 41.5331 25.8327 42.1178 25.0809 42.1178H25.0574L25.0633 42.112ZM26.5082 26.4296V33.9317L27.0309 33.9901C27.1543 34.0018 27.2835 34.0135 27.4068 34.0135C29.3275 34.0135 30.9838 32.4289 31.1013 30.4759C31.1659 29.4117 30.8076 28.406 30.0969 27.6575C29.351 26.8682 28.2878 26.4296 27.1131 26.4296H26.5082ZM23.0663 15.9338C21.4452 15.9747 20.2587 16.653 19.5539 17.9569C18.8079 19.3193 18.9019 20.7695 19.8123 22.0383C20.57 23.0908 21.6096 23.6229 22.9136 23.6229C22.9782 23.6229 23.0428 23.6229 23.1074 23.6229L23.6712 23.5995V15.9221L23.0721 15.9396L23.0663 15.9338Z" fill="#80AECF"/>
<path d="M39.0879 14.6416C38.7179 14.6416 38.3361 14.4545 37.9837 14.1036C36.3039 12.443 34.6358 10.7765 32.9677 9.11007C32.3099 8.44933 32.2511 7.61317 32.8267 7.03429C33.091 6.77116 33.4082 6.63083 33.7547 6.63083C34.1659 6.63083 34.5888 6.82964 34.9471 7.18047C35.787 8.01078 36.621 8.84694 37.4727 9.70064L39.0762 11.3028L45.0907 5.30935C46.2654 4.13989 47.4401 2.96459 48.6266 1.80098C48.9144 1.51447 49.2609 1.36829 49.6192 1.36829C49.8541 1.36829 50.0832 1.43261 50.3064 1.5554C50.8644 1.87115 51.1287 2.49681 50.9466 3.08738C50.8644 3.35051 50.6999 3.62533 50.5002 3.82414C47.4636 6.86472 44.1803 10.1392 40.1628 14.127C39.8162 14.4662 39.458 14.6416 39.0938 14.6416H39.0879Z" fill="white"/>
</g>
<defs>
<clipPath id="clip0_1801_4984">
<rect width="51" height="50" fill="white"/>
</clipPath>
</defs>
</svg>
