<svg width="28" height="28" viewBox="0 0 28 28" fill="none" xmlns="http://www.w3.org/2000/svg">
<path d="M13.5167 27.9998C12.9442 27.841 12.4282 27.5867 12.0407 27.1192C11.3833 26.3278 11.2266 25.4341 11.5901 24.484C11.9602 23.5165 12.696 22.9729 13.7257 22.8403C14.9121 22.6881 15.9375 23.3947 16.3446 24.284C16.4382 24.4883 16.5579 24.5623 16.7821 24.5644C17.7226 24.5731 18.65 24.5449 19.5447 24.1753C21.4539 23.386 22.7884 21.4966 22.7993 19.4267C22.8188 16.3284 22.8406 13.2301 22.7884 10.1318C22.747 7.68573 21.7304 5.63759 19.9453 3.98081C18.5477 2.68278 16.8779 1.92179 14.984 1.72611C12.4827 1.46955 10.2404 2.14357 8.31379 3.77643C6.6506 5.18534 5.66226 6.98997 5.30524 9.14031C5.22034 9.64473 5.21816 10.1557 5.21816 10.6666C5.21816 13.4192 5.21816 16.1697 5.21816 18.9223C5.21816 19.0505 5.22034 19.1788 5.20292 19.3049C5.13544 19.8159 4.82196 20.1203 4.31037 20.1268C3.17182 20.1398 2.03328 20.1398 0.896906 20.1268C0.339605 20.1203 0.00653087 19.7615 0.00653087 19.2006C0 16.3414 0 13.4801 0 10.6188C0 9.96217 0.324366 9.62951 0.990515 9.62516C1.73721 9.61864 2.48391 9.61647 3.2306 9.62516C3.45265 9.62734 3.5332 9.56863 3.56803 9.32729C4.16016 5.16795 6.40025 2.2762 10.2752 0.662902C11.0938 0.321545 11.958 0.138908 12.8397 0.0367181C12.8832 0.0323696 12.9268 0.0128014 12.9703 -0.000244141C13.6626 -0.000244141 14.3548 -0.000244141 15.0471 -0.000244141C15.3519 0.0497636 15.6567 0.0975971 15.9593 0.151953C20.4264 0.956426 23.9944 4.80485 24.4494 9.32294C24.4733 9.56429 24.5539 9.62951 24.7825 9.62516C25.5204 9.61429 26.2563 9.62516 26.9942 9.61864C27.4579 9.61429 27.8062 9.78606 28 10.2253V19.5224C27.815 19.9659 27.4666 20.1398 27.003 20.1333C26.3934 20.1268 25.7839 20.1333 25.1721 20.1333C24.7222 20.1333 24.4487 20.3507 24.3514 20.7856C23.7288 23.5665 21.5018 25.682 18.7044 26.169C18.0426 26.2843 17.3808 26.2582 16.7168 26.2669C16.5993 26.2669 16.4839 26.2582 16.4208 26.4017C16.055 27.2627 15.3911 27.7671 14.5007 27.9976H13.5167V27.9998ZM3.50054 14.8738C3.50054 13.7889 3.49619 12.7061 3.5049 11.6211C3.5049 11.4146 3.45265 11.3233 3.2306 11.3298C2.80392 11.3428 2.37506 11.3406 1.94838 11.3298C1.75027 11.3254 1.67626 11.3885 1.67626 11.595C1.68279 13.7823 1.68279 15.9675 1.67626 18.1547C1.67626 18.3635 1.75463 18.4222 1.95055 18.4178C2.35982 18.407 2.77126 18.4026 3.17835 18.4178C3.42435 18.4287 3.51143 18.3526 3.50708 18.096C3.49401 17.022 3.50054 15.9457 3.50054 14.8716V14.8738ZM24.5169 14.8738C24.5169 15.9588 24.5212 17.0415 24.5125 18.1265C24.5125 18.3309 24.5604 18.4265 24.7868 18.42C25.2244 18.407 25.6598 18.4113 26.0973 18.42C26.2693 18.4222 26.3433 18.3657 26.3412 18.1852C26.3368 15.9805 26.3368 13.7758 26.3412 11.5711C26.3412 11.3907 26.2693 11.332 26.0973 11.3363C25.6968 11.3428 25.2962 11.3363 24.8957 11.3363C24.6431 11.3363 24.5161 11.4595 24.5147 11.7059C24.5147 12.7626 24.5147 13.8193 24.5147 14.876L24.5169 14.8738ZM14.9187 25.4233C14.9187 24.9362 14.5051 24.521 14.0109 24.5166C13.5276 24.5101 13.1031 24.9319 13.1009 25.4211C13.0987 25.9016 13.5254 26.3343 14.0087 26.3343C14.4898 26.3343 14.9209 25.906 14.9209 25.4233H14.9187Z" fill="#80AECF"/>
</svg>
