<svg width="49" height="49" viewBox="0 0 49 49" fill="none" xmlns="http://www.w3.org/2000/svg">
<g clip-path="url(#clip0_1801_4993)">
<path d="M35.3993 48.8405C27.9873 48.8405 21.9575 42.8066 21.9575 35.3895C21.9575 33.1496 22.4996 31.0133 23.571 29.0414L23.6092 28.9712L19.8881 21.0148L14.7847 26.1217V31.3053C14.7847 31.6227 14.6715 31.8956 14.4498 32.1173L11.7825 34.8407C11.553 35.0704 11.2309 35.2076 10.9232 35.2076C10.8419 35.2076 10.7606 35.1981 10.684 35.1789C10.4369 35.1167 9.9953 34.9412 9.81514 34.461L7.23074 28.132L0.910834 25.6016C0.427754 25.4198 0.252378 24.9778 0.190199 24.7305C0.0754075 24.2168 0.311368 23.8483 0.52979 23.6297L3.24333 20.9143C3.53191 20.6846 3.81729 20.5729 4.11702 20.5729H9.29699L14.402 15.4644L0.917211 9.21991C0.558488 9.06675 0.292236 8.72374 0.246 8.36477C0.193388 7.94677 0.312962 7.56866 0.580809 7.29903L3.30073 4.57725C3.50799 4.36985 3.80135 4.25657 4.12978 4.25657C4.23819 4.25657 4.34979 4.26934 4.4598 4.29327L21.1364 8.72533L28.5469 1.30984C29.2882 0.567972 30.2735 0.159546 31.3178 0.159546C32.3621 0.159546 33.3474 0.567972 34.0887 1.30984C34.8301 2.05171 35.2383 3.03768 35.2383 4.08267C35.2383 5.12767 34.8301 6.11364 34.0887 6.85551L26.6783 14.271L29.1463 23.4781L29.3217 23.3904C31.2493 22.4268 33.2932 21.937 35.3977 21.937C42.8097 21.937 48.8394 27.9708 48.8394 35.3879C48.8394 42.805 42.8097 48.8389 35.3977 48.8389L35.3993 48.8405ZM35.3993 24.3397C29.3106 24.3397 24.3586 29.2966 24.3586 35.3879C24.3586 41.4792 29.3121 46.4362 35.3993 46.4362C41.4864 46.4362 46.44 41.4792 46.44 35.3879C46.44 29.2966 41.4864 24.3397 35.3993 24.3397ZM3.5048 24.0126L8.62577 26.0627C8.91116 26.2063 9.15509 26.452 9.30336 26.7487L11.4031 31.8589L12.4346 30.8266V25.6431C12.4346 25.2794 12.5414 25.0034 12.7694 24.7752L19.4544 18.1399C19.743 17.9101 20.0284 17.7985 20.3281 17.7985H20.5354C20.8909 17.8463 21.2289 18.1128 21.3788 18.4637L25.1876 26.7025L25.3487 26.5046C25.8684 25.8697 26.4535 25.3607 26.9589 24.9475L27.0386 24.8821L24.1832 14.2199C24.0493 13.8147 24.1593 13.3776 24.4686 13.0681L32.3095 5.2218L32.3143 5.21542C32.5901 4.87081 32.7304 4.50705 32.7304 4.13532C32.7304 3.68861 32.5901 3.32964 32.3031 3.04246C32.04 2.77922 31.6526 2.62765 31.2381 2.62765C30.8236 2.62765 30.4361 2.77922 30.1731 3.04246L22.2844 10.9366C22.0771 11.144 21.7837 11.2573 21.4553 11.2573C21.3469 11.2573 21.2353 11.2445 21.1253 11.2206L4.44705 6.79169L3.45857 7.78085L16.9418 14.0285C17.3005 14.1817 17.5668 14.5247 17.613 14.8836C17.6656 15.3016 17.546 15.6797 17.2782 15.9494L10.6474 22.5847C10.3588 22.8144 10.0734 22.9261 9.77369 22.9261H4.59213L3.50321 24.0158L3.5048 24.0126Z" fill="white"/>
<path d="M39.4793 40.6735C39.1158 40.6735 38.8399 40.5666 38.612 40.3385L34.5385 36.2622C34.3089 35.9734 34.1973 35.6878 34.1973 35.3879V28.5818C34.1973 27.9086 34.725 27.3805 35.3978 27.3805C36.0706 27.3805 36.5983 27.9086 36.5983 28.5818V34.9093L40.345 38.6585C40.5714 38.8627 40.6973 39.1419 40.7053 39.4466C40.7133 39.7753 40.5825 40.0991 40.345 40.3385C40.117 40.5666 39.8412 40.6735 39.4777 40.6735H39.4793Z" fill="#80AECF"/>
</g>
<defs>
<clipPath id="clip0_1801_4993">
<rect width="49" height="49" fill="white"/>
</clipPath>
</defs>
</svg>
