<svg width="41" height="40" viewBox="0 0 41 40" fill="none" xmlns="http://www.w3.org/2000/svg">
<path d="M19.3111 40C18.4931 39.7733 17.756 39.4099 17.2024 38.742C16.2631 37.6114 16.0392 36.3348 16.5586 34.9775C17.0873 33.5953 18.1386 32.8188 19.6097 32.6293C21.3047 32.4119 22.7696 33.4213 23.3512 34.6917C23.485 34.9837 23.656 35.0893 23.9764 35.0924C25.32 35.1048 26.6449 35.0645 27.9232 34.5364C30.6508 33.4089 32.5573 30.7097 32.5729 27.7528C32.6009 23.3266 32.632 18.9005 32.5573 14.4743C32.4983 10.98 31.0458 8.05405 28.4955 5.68722C26.4987 3.83289 24.1132 2.74577 21.4074 2.46622C17.8338 2.0997 14.6303 3.06259 11.8778 5.39525C9.50159 7.40798 8.08957 9.98602 7.5795 13.0579C7.45821 13.7785 7.4551 14.5085 7.4551 15.2384C7.4551 19.1707 7.4551 23.0999 7.4551 27.0321C7.4551 27.2154 7.45821 27.3987 7.43333 27.5788C7.33691 28.3087 6.88904 28.7436 6.15815 28.7529C4.53153 28.7715 2.90491 28.7715 1.28139 28.7529C0.485188 28.7436 0.00933053 28.2311 0.00933053 27.4297C0 23.3452 0 19.2577 0 15.1701C0 14.232 0.463417 13.7568 1.41513 13.7506C2.48192 13.7413 3.54871 13.7382 4.6155 13.7506C4.93274 13.7537 5.04782 13.6698 5.09758 13.3251C5.94355 7.38314 9.14392 3.25206 14.68 0.947352C15.8495 0.459699 17.0842 0.198789 18.3438 0.0528032C18.406 0.0465911 18.4682 0.0186364 18.5304 0C19.5195 0 20.5085 0 21.4976 0C21.933 0.0714397 22.3684 0.139773 22.8007 0.217425C29.1828 1.36667 34.2804 6.86442 34.9304 13.3188C34.9646 13.6636 35.0797 13.7568 35.4063 13.7506C36.4606 13.7351 37.5119 13.7506 38.5662 13.7413C39.2287 13.7351 39.7263 13.9804 40.0031 14.6079V27.8894C39.7387 28.5231 39.2411 28.7715 38.5787 28.7622C37.7078 28.7529 36.8369 28.7622 35.963 28.7622C35.3202 28.7622 34.9294 29.0728 34.7905 29.6941C33.9009 33.6667 30.7192 36.6889 26.7227 37.3847C25.7772 37.5493 24.8317 37.512 23.8831 37.5245C23.7151 37.5245 23.5503 37.512 23.4601 37.717C22.9376 38.947 21.989 39.6677 20.7169 39.9969H19.3111V40ZM5.00117 21.2486C5.00117 19.6987 4.99495 18.1519 5.00739 16.602C5.00739 16.3069 4.93274 16.1764 4.6155 16.1857C4.00591 16.2044 3.3932 16.2013 2.78361 16.1857C2.50058 16.1795 2.39484 16.2696 2.39484 16.5647C2.40417 19.6894 2.40417 22.811 2.39484 25.9357C2.39484 26.2339 2.5068 26.3178 2.78672 26.3115C3.37143 26.296 3.95926 26.2898 4.54086 26.3115C4.89231 26.3271 5.01672 26.2184 5.0105 25.8518C4.99184 24.3174 5.00117 22.7799 5.00117 21.2455V21.2486ZM35.0268 21.2486C35.0268 22.7986 35.033 24.3454 35.0206 25.8953C35.0206 26.1873 35.089 26.324 35.4125 26.3146C36.0376 26.296 36.6597 26.3022 37.2848 26.3146C37.5305 26.3178 37.6363 26.237 37.6332 25.9792C37.6269 22.8296 37.6269 19.6801 37.6332 16.5305C37.6332 16.2727 37.5305 16.1889 37.2848 16.1951C36.7125 16.2044 36.1403 16.1951 35.568 16.1951C35.2072 16.1951 35.0258 16.3711 35.0237 16.7231C35.0237 18.2326 35.0237 19.7422 35.0237 21.2517L35.0268 21.2486ZM21.3141 36.3193C21.3141 35.6235 20.7231 35.0303 20.0171 35.0241C19.3266 35.0148 18.7202 35.6173 18.7171 36.3162C18.7139 37.0026 19.3235 37.6208 20.014 37.6208C20.7013 37.6208 21.3172 37.0089 21.3172 36.3193H21.3141Z" fill="#095396"/>
</svg>
