<svg width="43" height="50" viewBox="0 0 43 50" fill="none" xmlns="http://www.w3.org/2000/svg">
<g clip-path="url(#clip0_2307_1309)">
<path d="M-0.000674733 0.0104627C0.295912 0.0104627 0.526023 0.0104627 0.756134 0.0104627C8.02252 0.0104627 15.2902 0.0170019 22.5566 0C23.0513 0 23.3965 0.160864 23.7314 0.504826C26.2255 3.06688 28.7274 5.62109 31.2356 8.16746C31.5884 8.5258 31.7495 8.89985 31.7456 9.4256C31.7214 12.6023 31.7341 15.7791 31.7341 18.9571V19.6961H29.7424V10.2064H21.755V2.10431H2.03197V42.8187H18.1972C17.9224 43.5079 17.7051 44.1095 17.4328 44.6836C17.3752 44.804 17.1196 44.885 16.9546 44.8863C11.4358 44.8968 5.917 44.8955 0.396905 44.8929C0.27418 44.8929 0.150176 44.855 -0.00195312 44.8301V0.0104627H-0.000674733ZM23.8158 8.09291H27.8836C26.5477 6.73537 25.1376 5.30067 23.8158 3.95752V8.09291Z" fill="white"/>
<path d="M30.8747 50C28.4278 49.9281 25.9772 49.9111 23.5342 49.7594C22.5306 49.6966 21.513 49.435 20.5593 49.0976C19.0611 48.5666 18.427 47.2536 18.7606 45.6593C19.1186 43.946 20.0416 42.5388 21.1589 41.2676C23.5444 38.5538 26.4233 36.7516 30.0578 36.4168C31.6775 36.2677 33.2461 36.5358 34.7521 37.1348C37.9186 38.3943 40.3795 40.5208 42.0824 43.5288C42.4083 44.1043 42.6576 44.7451 42.8353 45.386C43.3339 47.1777 42.6921 48.6373 40.9459 49.1473C39.4501 49.5828 37.8637 49.7777 36.3053 49.8823C34.5028 50.004 32.6862 49.9111 30.876 49.9111C30.876 49.9412 30.876 49.9726 30.8747 50.0026V50ZM30.899 38.4283C28.1939 38.4858 25.9452 39.5844 23.965 41.3134C22.6597 42.4538 21.5181 43.7459 20.8904 45.4174C20.4494 46.5918 20.7051 47.1542 21.8991 47.4367C22.8259 47.6564 23.7886 47.7989 24.7384 47.8172C27.8692 47.8787 31.0025 47.9088 34.1333 47.8722C35.8758 47.8512 37.6272 47.7662 39.353 47.5426C40.9778 47.332 41.4023 46.5081 40.5969 45.0472C39.9487 43.8702 39.1254 42.7454 38.1884 41.7946C36.18 39.7544 33.7511 38.5224 30.8977 38.4296L30.899 38.4283Z" fill="white"/>
<path d="M36.9732 27.7537C36.7047 30.2961 35.7306 33.0426 33.3042 35.0397C31.7407 36.3266 29.8257 36.3514 28.3248 34.9926C25.6249 32.5456 24.2429 29.4474 24.877 25.7449C25.4178 22.5877 28.4936 20.5488 31.664 20.9503C34.6925 21.3335 36.9975 24.0564 36.9719 27.7537H36.9732ZM34.9597 27.5091C34.984 24.8738 33.1623 22.9853 30.8599 22.9736C28.5588 22.9618 26.6693 24.8294 26.723 27.173C26.7742 29.4068 27.6038 31.3647 29.1059 32.9851C30.2539 34.2249 31.4403 34.221 32.5832 32.9798C34.0648 31.3712 34.8152 29.4199 34.9597 27.5091Z" fill="white"/>
<path d="M14.8783 19.8582C17.71 19.8582 20.5403 19.8543 23.372 19.8621C24.1211 19.8634 24.5033 20.1734 24.557 20.7672C24.6082 21.3191 24.3141 21.7546 23.781 21.8657C23.5343 21.9168 23.2735 21.9141 23.0191 21.9141C17.5911 21.9168 12.163 21.9154 6.73368 21.9141C6.56365 21.9141 6.39235 21.922 6.2236 21.9076C5.55756 21.8527 5.15998 21.4368 5.18683 20.8326C5.21239 20.2597 5.60869 19.8713 6.25556 19.8661C8.17187 19.8504 10.0869 19.8582 12.0032 19.8569C12.9607 19.8569 13.9195 19.8569 14.877 19.8569L14.8783 19.8582Z" fill="#80AECF"/>
<path d="M13.8005 34.4498C11.4163 34.4498 9.03214 34.4512 6.64922 34.4472C6.3961 34.4472 6.13147 34.4472 5.89113 34.3792C5.39384 34.2393 5.16756 33.8574 5.19569 33.346C5.22253 32.8595 5.491 32.5339 5.96145 32.4319C6.18772 32.3835 6.42678 32.3952 6.66073 32.3939C11.4496 32.3926 16.2384 32.3926 21.0273 32.3939C21.2395 32.3939 21.4556 32.3874 21.6639 32.4175C22.1702 32.492 22.468 32.802 22.5064 33.3238C22.5473 33.8705 22.3031 34.2537 21.7739 34.3884C21.531 34.4498 21.2676 34.4472 21.0145 34.4472C18.6099 34.4512 16.2039 34.4498 13.7993 34.4485L13.8005 34.4498Z" fill="#80AECF"/>
<path d="M13.3574 28.1826C11.1228 28.1826 8.88814 28.1839 6.65351 28.1813C6.42084 28.1813 6.18051 28.1813 5.95679 28.129C5.42242 28.0047 5.1693 27.6215 5.19742 27.0814C5.22427 26.5661 5.51574 26.2378 6.02198 26.1528C6.23036 26.1175 6.44641 26.1267 6.65862 26.1267C11.1074 26.1267 15.555 26.1267 20.0038 26.1267C20.1955 26.1267 20.3886 26.1214 20.5778 26.1424C21.1351 26.2012 21.4905 26.5766 21.4931 27.1193C21.4956 27.7065 21.1952 28.0544 20.6353 28.1538C20.4282 28.1904 20.2109 28.1826 19.9986 28.1826C17.7845 28.1839 15.5716 28.1826 13.3574 28.1839V28.1826Z" fill="#80AECF"/>
<path d="M12.8409 13.591C14.8838 13.591 16.9266 13.591 18.9708 13.591C19.183 13.591 19.3991 13.5819 19.6074 13.6133C20.1431 13.693 20.4473 14.0187 20.4665 14.5732C20.4857 15.1238 20.2134 15.4822 19.6829 15.5999C19.4783 15.6456 19.261 15.6456 19.0488 15.6456C14.8991 15.6482 10.7482 15.6469 6.59851 15.6456C6.42848 15.6456 6.2559 15.6496 6.08843 15.6247C5.51188 15.5384 5.14626 15.1133 5.19356 14.5549C5.24213 13.9768 5.56301 13.6407 6.13701 13.6041C6.51925 13.5792 6.90277 13.5897 7.28628 13.5897C9.1374 13.5897 10.9898 13.5897 12.8409 13.5897V13.591Z" fill="#80AECF"/>
</g>
<defs>
<clipPath id="clip0_2307_1309">
<rect width="43" height="50" fill="white"/>
</clipPath>
</defs>
</svg>
