<svg width="50" height="50" viewBox="0 0 50 50" fill="none" xmlns="http://www.w3.org/2000/svg">
<g clip-path="url(#clip0_1804_5287)">
<path d="M12.1875 49.7396L11.8812 49.6862C11.639 49.6433 11.3955 49.6016 11.152 49.5625C5.56442 48.6654 1.24283 44.267 0.397105 38.6185C-0.418511 33.1719 2.51273 27.6628 7.52556 25.2214C8.8439 24.5795 10.2447 24.168 11.8066 23.9636L12.0344 23.9336V17.9987C12.0344 13.517 12.0344 9.0352 12.0344 4.55343C12.0344 2.974 12.6615 1.76827 13.9026 0.970093C14.2508 0.746134 14.6593 0.605509 15.0926 0.457072C15.2746 0.394572 15.4631 0.33077 15.6464 0.259155H39.023C39.1238 0.338582 39.2272 0.418009 39.3307 0.496134C39.603 0.703166 39.8596 0.898478 40.0874 1.12504C41.5445 2.56905 42.999 4.01827 44.4521 5.46619C45.9852 6.99353 47.5693 8.57166 49.1337 10.1211C49.554 10.5378 49.7412 10.9883 49.7399 11.5821C49.7294 16.7865 49.7294 22.0769 49.7307 27.194V31.5886C49.7307 32.918 49.732 34.2461 49.7334 35.5756C49.736 38.8269 49.7373 42.1888 49.7255 45.4948C49.719 47.3243 48.8601 48.6433 47.1726 49.4128C46.9527 49.5131 46.7118 49.5795 46.4565 49.6485C46.3478 49.6784 46.2392 49.7084 46.1305 49.7409H12.1875V49.7396ZM26.1355 38.2474C25.6864 41.7149 24.1377 44.5365 21.4015 46.8724L20.8647 47.3308H45.2704C46.6633 47.3308 47.3127 46.6784 47.3127 45.28V12.4349H42.1441C41.0548 12.4349 39.9656 12.4349 38.8751 12.4323C38.0005 12.4323 37.5174 11.9545 37.5148 11.0899C37.5109 9.92061 37.5122 8.75004 37.5135 7.58077V2.66931H16.4227C15.1332 2.66931 14.4511 3.3516 14.4511 4.64067C14.4511 9.2253 14.4511 13.8099 14.4511 18.3959V23.9206L14.6723 23.9558C17.3522 24.3789 19.1825 25.1081 20.993 26.4753C21.3177 26.7201 21.6542 26.8295 22.0862 26.8295C26.1302 26.8243 30.1704 26.823 34.2105 26.823H41.2447C41.2918 26.823 41.4764 26.8217 41.5209 26.8217C41.5864 26.8217 41.6518 26.8217 41.7173 26.8269C42.3064 26.8659 42.7895 27.3112 42.8641 27.8868C42.9374 28.4545 42.5669 29.0039 42.0014 29.1641C41.8024 29.2201 41.5706 29.2292 41.3494 29.2292C37.5711 29.2318 33.7928 29.2318 30.0146 29.2318H23.758L24.0212 29.6342C25.1863 31.4141 25.8776 33.2943 26.1355 35.3829L26.1643 35.612H34.4186C36.7699 35.612 39.1212 35.612 41.4725 35.6081C42.1349 35.6081 42.546 35.8451 42.7712 36.3555C42.9361 36.7305 42.9112 37.1133 42.6992 37.4362C42.4596 37.8008 42.0171 38.0183 41.5157 38.0183C39.2534 38.0196 36.9912 38.0209 34.7289 38.0209H26.1682L26.1394 38.2474H26.1355ZM13.2336 26.3021C7.42214 26.306 2.6934 31.0209 2.69078 36.8112C2.69078 39.6159 3.78918 42.2552 5.78567 44.2448C7.78216 46.2344 10.4319 47.3295 13.2467 47.3295H13.2741C19.083 47.3151 23.8012 42.5886 23.7921 36.7943C23.7829 31.0092 19.0489 26.3021 13.2388 26.3021H13.2323H13.2336ZM39.9591 9.99093H45.4681L39.9591 4.50525V9.99093Z" fill="white"/>
<path d="M41.5115 20.4453C40.0976 20.4427 38.6824 20.4414 37.2685 20.4414L24.9191 20.444C23.3507 20.444 21.7823 20.444 20.2139 20.4401C19.736 20.4401 19.3105 20.2265 19.0736 19.8698C18.8615 19.5494 18.8301 19.1562 18.9885 18.789C19.2058 18.2812 19.5959 18.0351 20.1785 18.0338C20.7153 18.0338 22.7707 18.0338 22.7707 18.0338H32.8029C35.7093 18.0338 38.6156 18.0338 41.5233 18.0351C42.0195 18.0351 42.4581 18.2539 42.6963 18.6184C42.9058 18.9401 42.9307 19.3359 42.7657 19.7057C42.5392 20.2109 42.1426 20.4453 41.5155 20.4453H41.5115Z" fill="#80AECF"/>
<path d="M13.1615 44.8386C12.5527 44.8386 12.1665 44.5495 11.995 43.073L11.9754 42.9024L11.8091 42.8529C10.5379 42.4766 9.81917 41.6901 9.60971 40.448C9.53508 40.0039 9.63982 39.5743 9.89903 39.2696C10.1203 39.0092 10.4266 38.8659 10.7618 38.8659C10.8927 38.8659 11.0262 38.8881 11.1585 38.931C11.6389 39.0886 11.9165 39.4232 11.9832 39.9258C12.0343 40.3112 12.2411 40.4974 12.6143 40.4974C12.6287 40.4974 12.6431 40.4974 12.6588 40.4974C12.8499 40.4909 13.0502 40.4883 13.2544 40.4883C13.4587 40.4883 13.6642 40.4909 13.8685 40.4961H13.8986C14.091 40.4961 14.235 40.4454 14.3384 40.3399C14.4432 40.2331 14.4916 40.0847 14.4864 39.8868C14.4772 39.5573 14.4694 39.1237 14.4877 38.6849C14.4942 38.5417 14.4851 38.3347 14.3371 38.181C14.2285 38.0691 14.0766 38.0144 13.8698 38.0144C13.8541 38.0144 13.8396 38.0144 13.8226 38.0144C13.6053 38.0222 13.3814 38.0261 13.1379 38.0261C12.8944 38.0261 12.6535 38.0222 12.3694 38.0157C10.8469 37.9766 9.62542 36.7579 9.58745 35.2396C9.5796 34.9427 9.58221 34.6394 9.58352 34.3464C9.58352 34.2227 9.58352 34.1003 9.58352 33.9766C9.58352 32.2253 10.1897 31.3555 11.8209 30.7683L11.9701 30.7149L11.9911 30.5573C12.1875 29.0664 12.592 28.7748 13.2256 28.7748H13.2675C13.9117 28.7891 14.3646 29.0964 14.4798 30.5482L14.4929 30.7188L14.6566 30.7735C16.1084 31.2657 16.9254 32.2761 16.8992 33.5456C16.8887 34.0821 16.5483 34.5469 16.0548 34.7006C15.9343 34.7383 15.81 34.7579 15.6843 34.7579C15.2889 34.7579 14.9263 34.5651 14.7168 34.2435C14.667 34.168 14.6343 34.0651 14.599 33.9571C14.561 33.8412 14.5178 33.7097 14.4471 33.5886C14.3646 33.448 14.2403 33.3568 14.129 33.2761C14.0936 33.25 14.0583 33.2253 14.0256 33.198C13.9902 33.168 13.9287 33.1329 13.8423 33.1329C13.8266 33.1329 13.8095 33.1342 13.7925 33.1368C13.6551 33.1407 13.5241 33.1433 13.405 33.1433C13.2217 33.1433 13.0685 33.1394 12.9402 33.1355C12.8434 33.1329 12.7583 33.1302 12.6863 33.1302C12.4899 33.1302 12.287 33.142 12.1456 33.2852C11.9845 33.4493 11.9898 33.6745 11.9989 34.0834C12.0042 34.3099 12.0107 34.5912 11.9976 34.9701C11.9898 35.1823 12.0395 35.3399 12.1482 35.4519C12.2542 35.5599 12.4022 35.6133 12.6012 35.6133H12.6352C12.8591 35.6068 13.0869 35.6042 13.333 35.6042C13.5791 35.6042 13.8383 35.6081 14.091 35.6133C15.6568 35.6459 16.8638 36.849 16.8979 38.4115C16.9044 38.7357 16.9031 39.0664 16.9018 39.3855C16.9018 39.5144 16.9018 39.6433 16.9005 39.7722C16.9005 41.3985 16.221 42.323 14.633 42.862L14.4497 42.9245L14.4563 43.1172C14.4772 43.7513 14.4563 44.2618 13.9889 44.5717C13.7467 44.7318 13.4377 44.8334 13.1824 44.8373H13.1615V44.8386Z" fill="#80AECF"/>
</g>
<defs>
<clipPath id="clip0_1804_5287">
<rect width="50" height="50" fill="white"/>
</clipPath>
</defs>
</svg>
