<svg width="1440" height="1481" viewBox="0 0 1440 1481" fill="none" xmlns="http://www.w3.org/2000/svg">
<mask id="mask0_303_48644" style="mask-type:luminance" maskUnits="userSpaceOnUse" x="-372" y="0" width="2212" height="1481">
<path d="M-371.003 1481L1839 1481L1839 0.383789L-371.003 0.383789V1481Z" fill="white"/>
</mask>
<g mask="url(#mask0_303_48644)">
<g style="mix-blend-mode:screen">
<path d="M1458.87 1488.29L1411.89 1515.54L1364.92 1488.29V1433.79L1411.89 1406.54L1458.87 1433.79V1488.29Z" fill="#959595"/>
<path d="M1350.44 1488.29L1303.5 1515.54L1256.53 1488.29V1433.79L1303.5 1406.54L1350.44 1433.79V1488.29Z" fill="#959595"/>
<path d="M1242.05 1488.29L1195.08 1515.54L1148.1 1488.29V1433.79L1195.08 1406.54L1242.05 1433.79V1488.29Z" fill="#959595"/>
<path d="M1133.63 1488.29L1086.69 1515.54L1039.71 1488.29V1433.79L1086.69 1406.54L1133.63 1433.79V1488.29Z" fill="#959595"/>
<path d="M1025.24 1488.29L978.261 1515.54L931.285 1488.29V1433.79L978.261 1406.54L1025.24 1433.79V1488.29Z" fill="#959595"/>
<path d="M916.811 1488.29L869.872 1515.54L822.896 1488.29V1433.79L869.872 1406.54L916.811 1433.79V1488.29Z" fill="#959595"/>
<path d="M808.422 1488.29L761.445 1515.54L714.469 1488.29V1433.79L761.445 1406.54L808.422 1433.79V1488.29Z" fill="#959595"/>
<path d="M699.995 1488.29L653.056 1515.54L606.08 1488.29V1433.79L653.056 1406.54L699.995 1433.79V1488.29Z" fill="#959595"/>
<path d="M591.606 1488.29L544.629 1515.54L497.653 1488.29V1433.79L544.629 1406.54L591.606 1433.79V1488.29Z" fill="#959595"/>
<path d="M483.179 1488.29L436.24 1515.54L389.264 1488.29V1433.79L436.24 1406.54L483.179 1433.79V1488.29Z" fill="#959595"/>
<path d="M374.79 1488.29L327.814 1515.54L280.837 1488.29V1433.79L327.814 1406.54L374.79 1433.79V1488.29Z" fill="#959595"/>
<path d="M266.4 1488.29L219.424 1515.54L172.448 1488.29V1433.79L219.424 1406.54L266.4 1433.79V1488.29Z" fill="#959595"/>
<path d="M157.974 1488.29L110.998 1515.54L64.0215 1488.29V1433.79L110.998 1406.54L157.974 1433.79V1488.29Z" fill="#959595"/>
<path d="M49.5842 1488.29L2.60804 1515.54L-44.3682 1488.29V1433.79L2.60804 1406.54L49.5842 1433.79V1488.29Z" fill="#959595"/>
<path d="M1512.37 1393.69L1465.39 1420.94L1418.42 1393.69V1339.15L1465.39 1311.9L1512.37 1339.15V1393.69Z" fill="#959595"/>
<path d="M1403.94 1393.69L1356.97 1420.94L1309.99 1393.69V1339.15L1356.97 1311.9L1403.94 1339.15V1393.69Z" fill="#959595"/>
<path d="M1295.55 1393.69L1248.58 1420.94L1201.6 1393.69V1339.15L1248.58 1311.9L1295.55 1339.15V1393.69Z" fill="#959595"/>
<path d="M1187.13 1393.69L1140.15 1420.94L1093.21 1393.69V1339.15L1140.15 1311.9L1187.13 1339.15V1393.69Z" fill="#959595"/>
<path d="M1078.74 1393.69L1031.76 1420.94L984.784 1393.69V1339.15L1031.76 1311.9L1078.74 1339.15V1393.69Z" fill="#959595"/>
<path d="M970.31 1393.69L923.334 1420.94L876.394 1393.69V1339.15L923.334 1311.9L970.31 1339.15V1393.69Z" fill="#959595"/>
<path d="M861.92 1393.69L814.944 1420.94L767.968 1393.69V1339.15L814.944 1311.9L861.92 1339.15V1393.69Z" fill="#959595"/>
<path d="M753.494 1393.69L706.518 1420.94L659.578 1393.69V1339.15L706.518 1311.9L753.494 1339.15V1393.69Z" fill="#959595"/>
<path d="M645.104 1393.69L598.128 1420.94L551.152 1393.69V1339.15L598.128 1311.9L645.104 1339.15V1393.69Z" fill="#959595"/>
<path d="M536.678 1393.69L489.702 1420.94L442.762 1393.69V1339.15L489.702 1311.9L536.678 1339.15V1393.69Z" fill="#959595"/>
<path d="M428.288 1393.69L381.312 1420.94L334.336 1393.69V1339.15L381.312 1311.9L428.288 1339.15V1393.69Z" fill="#959595"/>
<path d="M319.862 1393.69L272.886 1420.94L225.946 1393.69V1339.15L272.886 1311.9L319.862 1339.15V1393.69Z" fill="#959595"/>
<path d="M211.472 1393.69L164.496 1420.94L117.52 1393.69V1339.15L164.496 1311.9L211.472 1339.15V1393.69Z" fill="#959595"/>
<path d="M103.046 1393.69L56.1066 1420.94L9.13049 1393.69V1339.15L56.1066 1311.9L103.046 1339.15V1393.69Z" fill="#959595"/>
<path d="M1458.87 1299.79L1411.89 1327.04L1364.92 1299.79V1245.29L1411.89 1218.04L1458.87 1245.29V1299.79Z" fill="#959595"/>
<path d="M1350.44 1299.79L1303.5 1327.04L1256.53 1299.79V1245.29L1303.5 1218.04L1350.44 1245.29V1299.79Z" fill="#959595"/>
<path d="M1242.05 1299.79L1195.08 1327.04L1148.1 1299.79V1245.29L1195.08 1218.04L1242.05 1245.29V1299.79Z" fill="#959595"/>
<path d="M1133.63 1299.79L1086.69 1327.04L1039.71 1299.79V1245.29L1086.69 1218.04L1133.63 1245.29V1299.79Z" fill="#959595"/>
<path d="M1025.24 1299.79L978.261 1327.04L931.285 1299.79V1245.29L978.261 1218.04L1025.24 1245.29V1299.79Z" fill="#959595"/>
<path d="M916.811 1299.79L869.872 1327.04L822.896 1299.79V1245.29L869.872 1218.04L916.811 1245.29V1299.79Z" fill="#959595"/>
<path d="M808.422 1299.79L761.445 1327.04L714.469 1299.79V1245.29L761.445 1218.04L808.422 1245.29V1299.79Z" fill="#959595"/>
<path d="M699.995 1299.79L653.056 1327.04L606.08 1299.79V1245.29L653.056 1218.04L699.995 1245.29V1299.79Z" fill="#959595"/>
<path d="M591.606 1299.79L544.629 1327.04L497.653 1299.79V1245.29L544.629 1218.04L591.606 1245.29V1299.79Z" fill="#959595"/>
<path d="M483.179 1299.79L436.24 1327.04L389.264 1299.79V1245.29L436.24 1218.04L483.179 1245.29V1299.79Z" fill="#959595"/>
<path d="M374.79 1299.79L327.814 1327.04L280.837 1299.79V1245.29L327.814 1218.04L374.79 1245.29V1299.79Z" fill="#959595"/>
<path d="M266.4 1299.79L219.424 1327.04L172.448 1299.79V1245.29L219.424 1218.04L266.4 1245.29V1299.79Z" fill="#959595"/>
<path d="M157.974 1299.79L110.998 1327.04L64.0215 1299.79V1245.29L110.998 1218.04L157.974 1245.29V1299.79Z" fill="#959595"/>
<path d="M49.5842 1299.79L2.60804 1327.04L-44.3682 1299.79V1245.29L2.60804 1218.04L49.5842 1245.29V1299.79Z" fill="#959595"/>
<path d="M1512.37 1205.19L1465.39 1232.44L1418.42 1205.19V1150.69L1465.39 1123.4L1512.37 1150.69V1205.19Z" fill="#959595"/>
<path d="M1403.94 1205.19L1356.97 1232.44L1309.99 1205.19V1150.69L1356.97 1123.4L1403.94 1150.69V1205.19Z" fill="#959595"/>
<path d="M1295.55 1205.19L1248.58 1232.44L1201.6 1205.19V1150.69L1248.58 1123.4L1295.55 1150.69V1205.19Z" fill="#959595"/>
<path d="M1187.13 1205.19L1140.15 1232.44L1093.21 1205.19V1150.69L1140.15 1123.4L1187.13 1150.69V1205.19Z" fill="#959595"/>
<path d="M1078.74 1205.19L1031.76 1232.44L984.784 1205.19V1150.69L1031.76 1123.4L1078.74 1150.69V1205.19Z" fill="#959595"/>
<path d="M970.31 1205.19L923.334 1232.44L876.394 1205.19V1150.69L923.334 1123.4L970.31 1150.69V1205.19Z" fill="#959595"/>
<path d="M861.92 1205.19L814.944 1232.44L767.968 1205.19V1150.69L814.944 1123.4L861.92 1150.69V1205.19Z" fill="#959595"/>
<path d="M753.494 1205.19L706.518 1232.44L659.578 1205.19V1150.69L706.518 1123.4L753.494 1150.69V1205.19Z" fill="#959595"/>
<path d="M645.104 1205.19L598.128 1232.44L551.152 1205.19V1150.69L598.128 1123.4L645.104 1150.69V1205.19Z" fill="#959595"/>
<path d="M536.678 1205.19L489.702 1232.44L442.762 1205.19V1150.69L489.702 1123.4L536.678 1150.69V1205.19Z" fill="#959595"/>
<path d="M428.288 1205.19L381.312 1232.44L334.336 1205.19V1150.69L381.312 1123.4L428.288 1150.69V1205.19Z" fill="#959595"/>
<path d="M319.862 1205.19L272.886 1232.44L225.946 1205.19V1150.69L272.886 1123.4L319.862 1150.69V1205.19Z" fill="#959595"/>
<path d="M211.472 1205.19L164.496 1232.44L117.52 1205.19V1150.69L164.496 1123.4L211.472 1150.69V1205.19Z" fill="#959595"/>
<path d="M103.046 1205.19L56.1066 1232.44L9.13049 1205.19V1150.69L56.1066 1123.4L103.046 1150.69V1205.19Z" fill="#959595"/>
<path d="M1458.87 1111.29L1411.89 1138.54L1364.92 1111.29V1056.79L1411.89 1029.54L1458.87 1056.79V1111.29Z" fill="#959595"/>
<path d="M1350.44 1111.29L1303.5 1138.54L1256.53 1111.29V1056.79L1303.5 1029.54L1350.44 1056.79V1111.29Z" fill="#959595"/>
<path d="M1242.05 1111.29L1195.08 1138.54L1148.1 1111.29V1056.79L1195.08 1029.54L1242.05 1056.79V1111.29Z" fill="#959595"/>
<path d="M1133.63 1111.29L1086.69 1138.54L1039.71 1111.29V1056.79L1086.69 1029.54L1133.63 1056.79V1111.29Z" fill="#959595"/>
<path d="M1025.24 1111.29L978.261 1138.54L931.285 1111.29V1056.79L978.261 1029.54L1025.24 1056.79V1111.29Z" fill="#959595"/>
<path d="M916.811 1111.29L869.872 1138.54L822.896 1111.29V1056.79L869.872 1029.54L916.811 1056.79V1111.29Z" fill="#959595"/>
<path d="M808.422 1111.29L761.445 1138.54L714.469 1111.29V1056.79L761.445 1029.54L808.422 1056.79V1111.29Z" fill="#959595"/>
<path d="M699.995 1111.29L653.056 1138.54L606.08 1111.29V1056.79L653.056 1029.54L699.995 1056.79V1111.29Z" fill="#959595"/>
<path d="M591.606 1111.29L544.629 1138.54L497.653 1111.29V1056.79L544.629 1029.54L591.606 1056.79V1111.29Z" fill="#959595"/>
<path d="M483.179 1111.29L436.24 1138.54L389.264 1111.29V1056.79L436.24 1029.54L483.179 1056.79V1111.29Z" fill="#959595"/>
<path d="M374.79 1111.29L327.814 1138.54L280.837 1111.29V1056.79L327.814 1029.54L374.79 1056.79V1111.29Z" fill="#959595"/>
<path d="M266.4 1111.29L219.424 1138.54L172.448 1111.29V1056.79L219.424 1029.54L266.4 1056.79V1111.29Z" fill="#959595"/>
<path d="M157.974 1111.29L110.998 1138.54L64.0215 1111.29V1056.79L110.998 1029.54L157.974 1056.79V1111.29Z" fill="#959595"/>
<path d="M49.5842 1111.29L2.60804 1138.54L-44.3682 1111.29V1056.79L2.60804 1029.54L49.5842 1056.79V1111.29Z" fill="#959595"/>
<path d="M1512.37 1016.69L1465.39 1043.94L1418.42 1016.69V962.188L1465.39 934.901L1512.37 962.188V1016.69Z" fill="#959595"/>
<path d="M1403.94 1016.69L1356.97 1043.94L1309.99 1016.69V962.188L1356.97 934.901L1403.94 962.188V1016.69Z" fill="#959595"/>
<path d="M1295.55 1016.69L1248.58 1043.94L1201.6 1016.69V962.188L1248.58 934.901L1295.55 962.188V1016.69Z" fill="#959595"/>
<path d="M1187.13 1016.69L1140.15 1043.94L1093.21 1016.69V962.188L1140.15 934.901L1187.13 962.188V1016.69Z" fill="#959595"/>
<path d="M1078.74 1016.69L1031.76 1043.94L984.784 1016.69V962.188L1031.76 934.901L1078.74 962.188V1016.69Z" fill="#959595"/>
<path d="M970.31 1016.69L923.334 1043.94L876.394 1016.69V962.188L923.334 934.901L970.31 962.188V1016.69Z" fill="#959595"/>
<path d="M861.92 1016.69L814.944 1043.94L767.968 1016.69V962.188L814.944 934.901L861.92 962.188V1016.69Z" fill="#959595"/>
<path d="M753.494 1016.69L706.518 1043.94L659.578 1016.69V962.188L706.518 934.901L753.494 962.188V1016.69Z" fill="#959595"/>
<path d="M645.104 1016.69L598.128 1043.94L551.152 1016.69V962.188L598.128 934.901L645.104 962.188V1016.69Z" fill="#959595"/>
<path d="M536.678 1016.69L489.702 1043.94L442.762 1016.69V962.188L489.702 934.901L536.678 962.188V1016.69Z" fill="#959595"/>
<path d="M428.288 1016.69L381.312 1043.94L334.336 1016.69V962.188L381.312 934.901L428.288 962.188V1016.69Z" fill="#959595"/>
<path d="M319.862 1016.69L272.886 1043.94L225.946 1016.69V962.188L272.886 934.901L319.862 962.188V1016.69Z" fill="#959595"/>
<path d="M211.472 1016.69L164.496 1043.94L117.52 1016.69V962.188L164.496 934.901L211.472 962.188V1016.69Z" fill="#959595"/>
<path d="M103.046 1016.69L56.1066 1043.94L9.13049 1016.69V962.188L56.1066 934.901L103.046 962.188V1016.69Z" fill="#959595"/>
<path d="M1458.87 922.786L1411.89 950.036L1364.92 922.786V868.287L1411.89 841.037L1458.87 868.287V922.786Z" fill="#959595"/>
<path d="M1350.44 922.786L1303.5 950.036L1256.53 922.786V868.287L1303.5 841.037L1350.44 868.287V922.786Z" fill="#959595"/>
<path d="M1242.05 922.786L1195.08 950.036L1148.1 922.786V868.287L1195.08 841.037L1242.05 868.287V922.786Z" fill="#959595"/>
<path d="M1133.63 922.786L1086.69 950.036L1039.71 922.786V868.287L1086.69 841.037L1133.63 868.287V922.786Z" fill="#959595"/>
<path d="M1025.24 922.786L978.261 950.036L931.285 922.786V868.287L978.261 841.037L1025.24 868.287V922.786Z" fill="#959595"/>
<path d="M916.811 922.786L869.872 950.036L822.896 922.786V868.287L869.872 841.037L916.811 868.287V922.786Z" fill="#959595"/>
<path d="M808.422 922.786L761.445 950.036L714.469 922.786V868.287L761.445 841.037L808.422 868.287V922.786Z" fill="#959595"/>
<path d="M699.995 922.786L653.056 950.036L606.08 922.786V868.287L653.056 841.037L699.995 868.287V922.786Z" fill="#959595"/>
<path d="M591.606 922.786L544.629 950.036L497.653 922.786V868.287L544.629 841.037L591.606 868.287V922.786Z" fill="#959595"/>
<path d="M483.179 922.786L436.24 950.036L389.264 922.786V868.287L436.24 841.037L483.179 868.287V922.786Z" fill="#959595"/>
<path d="M374.79 922.786L327.814 950.036L280.837 922.786V868.287L327.814 841.037L374.79 868.287V922.786Z" fill="#959595"/>
<path d="M266.4 922.786L219.424 950.036L172.448 922.786V868.287L219.424 841.037L266.4 868.287V922.786Z" fill="#959595"/>
<path d="M157.974 922.786L110.998 950.036L64.0215 922.786V868.287L110.998 841.037L157.974 868.287V922.786Z" fill="#959595"/>
<path d="M49.5842 922.786L2.60804 950.036L-44.3682 922.786V868.287L2.60804 841.037L49.5842 868.287V922.786Z" fill="#959595"/>
<path d="M1512.37 828.186L1465.39 855.435L1418.42 828.186V773.686L1465.39 746.436L1512.37 773.686V828.186Z" fill="#959595"/>
<path d="M1403.94 828.186L1356.97 855.435L1309.99 828.186V773.686L1356.97 746.436L1403.94 773.686V828.186Z" fill="#959595"/>
<path d="M1295.55 828.186L1248.58 855.435L1201.6 828.186V773.686L1248.58 746.436L1295.55 773.686V828.186Z" fill="#959595"/>
<path d="M1187.13 828.186L1140.15 855.435L1093.21 828.186V773.686L1140.15 746.436L1187.13 773.686V828.186Z" fill="#959595"/>
<path d="M1078.74 828.186L1031.76 855.435L984.784 828.186V773.686L1031.76 746.436L1078.74 773.686V828.186Z" fill="#959595"/>
<path d="M970.31 828.186L923.334 855.435L876.394 828.186V773.686L923.334 746.436L970.31 773.686V828.186Z" fill="#959595"/>
<path d="M861.92 828.186L814.944 855.435L767.968 828.186V773.686L814.944 746.436L861.92 773.686V828.186Z" fill="#959595"/>
<path d="M753.494 828.186L706.518 855.435L659.578 828.186V773.686L706.518 746.436L753.494 773.686V828.186Z" fill="#959595"/>
<path d="M645.104 828.186L598.128 855.435L551.152 828.186V773.686L598.128 746.436L645.104 773.686V828.186Z" fill="#959595"/>
<path d="M536.678 828.186L489.702 855.435L442.762 828.186V773.686L489.702 746.436L536.678 773.686V828.186Z" fill="#959595"/>
<path d="M428.288 828.186L381.312 855.435L334.336 828.186V773.686L381.312 746.436L428.288 773.686V828.186Z" fill="#959595"/>
<path d="M319.862 828.186L272.886 855.435L225.946 828.186V773.686L272.886 746.436L319.862 773.686V828.186Z" fill="#959595"/>
<path d="M211.472 828.186L164.496 855.435L117.52 828.186V773.686L164.496 746.436L211.472 773.686V828.186Z" fill="#959595"/>
<path d="M103.046 828.186L56.1066 855.435L9.13049 828.186V773.686L56.1066 746.436L103.046 773.686V828.186Z" fill="#959595"/>
<path d="M1458.87 734.285L1411.89 761.534L1364.92 734.285V679.785L1411.89 652.535L1458.87 679.785V734.285Z" fill="#959595"/>
<path d="M1350.44 734.285L1303.5 761.534L1256.53 734.285V679.785L1303.5 652.535L1350.44 679.785V734.285Z" fill="#959595"/>
<path d="M1242.05 734.285L1195.08 761.534L1148.1 734.285V679.785L1195.08 652.535L1242.05 679.785V734.285Z" fill="#959595"/>
<path d="M1133.63 734.285L1086.69 761.534L1039.71 734.285V679.785L1086.69 652.535L1133.63 679.785V734.285Z" fill="#959595"/>
<path d="M1025.24 734.285L978.261 761.534L931.285 734.285V679.785L978.261 652.535L1025.24 679.785V734.285Z" fill="#959595"/>
<path d="M916.811 734.285L869.872 761.534L822.896 734.285V679.785L869.872 652.535L916.811 679.785V734.285Z" fill="#959595"/>
<path d="M808.422 734.285L761.445 761.534L714.469 734.285V679.785L761.445 652.535L808.422 679.785V734.285Z" fill="#959595"/>
<path d="M699.995 734.285L653.056 761.534L606.08 734.285V679.785L653.056 652.535L699.995 679.785V734.285Z" fill="#959595"/>
<path d="M591.606 734.285L544.629 761.534L497.653 734.285V679.785L544.629 652.535L591.606 679.785V734.285Z" fill="#959595"/>
<path d="M483.179 734.285L436.24 761.534L389.264 734.285V679.785L436.24 652.535L483.179 679.785V734.285Z" fill="#959595"/>
<path d="M374.79 734.285L327.814 761.534L280.837 734.285V679.785L327.814 652.535L374.79 679.785V734.285Z" fill="#959595"/>
<path d="M266.4 734.285L219.424 761.534L172.448 734.285V679.785L219.424 652.535L266.4 679.785V734.285Z" fill="#959595"/>
<path d="M157.974 734.285L110.998 761.534L64.0215 734.285V679.785L110.998 652.535L157.974 679.785V734.285Z" fill="#959595"/>
<path d="M49.5842 734.285L2.60804 761.534L-44.3682 734.285V679.785L2.60804 652.535L49.5842 679.785V734.285Z" fill="#959595"/>
<path d="M1512.37 639.684L1465.39 666.934L1418.42 639.684V585.184L1465.39 557.935L1512.37 585.184V639.684Z" fill="#959595"/>
<path d="M1403.94 639.684L1356.97 666.934L1309.99 639.684V585.184L1356.97 557.935L1403.94 585.184V639.684Z" fill="#959595"/>
<path d="M1295.55 639.684L1248.58 666.934L1201.6 639.684V585.184L1248.58 557.935L1295.55 585.184V639.684Z" fill="#959595"/>
<path d="M1187.13 639.684L1140.15 666.934L1093.21 639.684V585.184L1140.15 557.935L1187.13 585.184V639.684Z" fill="#959595"/>
<path d="M1078.74 639.684L1031.76 666.934L984.784 639.684V585.184L1031.76 557.935L1078.74 585.184V639.684Z" fill="#959595"/>
<path d="M970.31 639.684L923.334 666.934L876.394 639.684V585.184L923.334 557.935L970.31 585.184V639.684Z" fill="#959595"/>
<path d="M861.92 639.684L814.944 666.934L767.968 639.684V585.184L814.944 557.935L861.92 585.184V639.684Z" fill="#959595"/>
<path d="M753.494 639.684L706.518 666.934L659.578 639.684V585.184L706.518 557.935L753.494 585.184V639.684Z" fill="#959595"/>
<path d="M645.104 639.684L598.128 666.934L551.152 639.684V585.184L598.128 557.935L645.104 585.184V639.684Z" fill="#959595"/>
<path d="M536.678 639.684L489.702 666.934L442.762 639.684V585.184L489.702 557.935L536.678 585.184V639.684Z" fill="#959595"/>
<path d="M428.288 639.684L381.312 666.934L334.336 639.684V585.184L381.312 557.935L428.288 585.184V639.684Z" fill="#959595"/>
<path d="M319.862 639.684L272.886 666.934L225.946 639.684V585.184L272.886 557.935L319.862 585.184V639.684Z" fill="#959595"/>
<path d="M211.472 639.684L164.496 666.934L117.52 639.684V585.184L164.496 557.935L211.472 585.184V639.684Z" fill="#959595"/>
<path d="M103.046 639.684L56.1066 666.934L9.13049 639.684V585.184L56.1066 557.935L103.046 585.184V639.684Z" fill="#959595"/>
<path d="M1458.87 545.783L1411.89 573.033L1364.92 545.783V491.284L1411.89 464.034L1458.87 491.284V545.783Z" fill="#959595"/>
<path d="M1350.44 545.783L1303.5 573.033L1256.53 545.783V491.284L1303.5 464.034L1350.44 491.284V545.783Z" fill="#959595"/>
<path d="M1242.05 545.783L1195.08 573.033L1148.1 545.783V491.284L1195.08 464.034L1242.05 491.284V545.783Z" fill="#959595"/>
<path d="M1133.63 545.783L1086.69 573.033L1039.71 545.783V491.284L1086.69 464.034L1133.63 491.284V545.783Z" fill="#959595"/>
<path d="M1025.24 545.783L978.261 573.033L931.285 545.783V491.284L978.261 464.034L1025.24 491.284V545.783Z" fill="#959595"/>
<path d="M916.811 545.783L869.872 573.033L822.896 545.783V491.284L869.872 464.034L916.811 491.284V545.783Z" fill="#959595"/>
<path d="M808.422 545.783L761.445 573.033L714.469 545.783V491.284L761.445 464.034L808.422 491.284V545.783Z" fill="#959595"/>
<path d="M699.995 545.783L653.056 573.033L606.08 545.783V491.284L653.056 464.034L699.995 491.284V545.783Z" fill="#959595"/>
<path d="M591.606 545.783L544.629 573.033L497.653 545.783V491.284L544.629 464.034L591.606 491.284V545.783Z" fill="#959595"/>
<path d="M483.179 545.783L436.24 573.033L389.264 545.783V491.284L436.24 464.034L483.179 491.284V545.783Z" fill="#959595"/>
<path d="M374.79 545.783L327.814 573.033L280.837 545.783V491.284L327.814 464.034L374.79 491.284V545.783Z" fill="#959595"/>
<path d="M266.4 545.783L219.424 573.033L172.448 545.783V491.284L219.424 464.034L266.4 491.284V545.783Z" fill="#959595"/>
<path d="M157.974 545.783L110.998 573.033L64.0215 545.783V491.284L110.998 464.034L157.974 491.284V545.783Z" fill="#959595"/>
<path d="M49.5842 545.783L2.60804 573.033L-44.3682 545.783V491.284L2.60804 464.034L49.5842 491.284V545.783Z" fill="#959595"/>
<path d="M1512.37 451.182L1465.39 478.432L1418.42 451.182V396.683L1465.39 369.433L1512.37 396.683V451.182Z" fill="#959595"/>
<path d="M1403.94 451.182L1356.97 478.432L1309.99 451.182V396.683L1356.97 369.433L1403.94 396.683V451.182Z" fill="#959595"/>
<path d="M1295.55 451.182L1248.58 478.432L1201.6 451.182V396.683L1248.58 369.433L1295.55 396.683V451.182Z" fill="#959595"/>
<path d="M1187.13 451.182L1140.15 478.432L1093.21 451.182V396.683L1140.15 369.433L1187.13 396.683V451.182Z" fill="#959595"/>
<path d="M1078.74 451.182L1031.76 478.432L984.784 451.182V396.683L1031.76 369.433L1078.74 396.683V451.182Z" fill="#959595"/>
<path d="M970.31 451.182L923.334 478.432L876.394 451.182V396.683L923.334 369.433L970.31 396.683V451.182Z" fill="#959595"/>
<path d="M861.92 451.182L814.944 478.432L767.968 451.182V396.683L814.944 369.433L861.92 396.683V451.182Z" fill="#959595"/>
<path d="M753.494 451.182L706.518 478.432L659.578 451.182V396.683L706.518 369.433L753.494 396.683V451.182Z" fill="#959595"/>
<path d="M645.104 451.182L598.128 478.432L551.152 451.182V396.683L598.128 369.433L645.104 396.683V451.182Z" fill="#959595"/>
<path d="M536.678 451.182L489.702 478.432L442.762 451.182V396.683L489.702 369.433L536.678 396.683V451.182Z" fill="#959595"/>
<path d="M428.288 451.182L381.312 478.432L334.336 451.182V396.683L381.312 369.433L428.288 396.683V451.182Z" fill="#959595"/>
<path d="M319.862 451.182L272.886 478.432L225.946 451.182V396.683L272.886 369.433L319.862 396.683V451.182Z" fill="#959595"/>
<path d="M211.472 451.182L164.496 478.432L117.52 451.182V396.683L164.496 369.433L211.472 396.683V451.182Z" fill="#959595"/>
<path d="M103.046 451.182L56.1066 478.432L9.13049 451.182V396.683L56.1066 369.433L103.046 396.683V451.182Z" fill="#959595"/>
<path d="M1458.87 357.281L1411.89 384.531L1364.92 357.281V302.782L1411.89 275.532L1458.87 302.782V357.281Z" fill="#959595"/>
<path d="M1350.44 357.281L1303.5 384.531L1256.53 357.281V302.782L1303.5 275.532L1350.44 302.782V357.281Z" fill="#959595"/>
<path d="M1242.05 357.281L1195.08 384.531L1148.1 357.281V302.782L1195.08 275.532L1242.05 302.782V357.281Z" fill="#959595"/>
<path d="M1133.63 357.281L1086.69 384.531L1039.71 357.281V302.782L1086.69 275.532L1133.63 302.782V357.281Z" fill="#959595"/>
<path d="M1025.24 357.281L978.261 384.531L931.285 357.281V302.782L978.261 275.532L1025.24 302.782V357.281Z" fill="#959595"/>
<path d="M916.811 357.281L869.872 384.531L822.896 357.281V302.782L869.872 275.532L916.811 302.782V357.281Z" fill="#959595"/>
<path d="M808.422 357.281L761.445 384.531L714.469 357.281V302.782L761.445 275.532L808.422 302.782V357.281Z" fill="#959595"/>
<path d="M699.995 357.281L653.056 384.531L606.08 357.281V302.782L653.056 275.532L699.995 302.782V357.281Z" fill="#959595"/>
<path d="M591.606 357.281L544.629 384.531L497.653 357.281V302.782L544.629 275.532L591.606 302.782V357.281Z" fill="#959595"/>
<path d="M483.179 357.281L436.24 384.531L389.264 357.281V302.782L436.24 275.532L483.179 302.782V357.281Z" fill="#959595"/>
<path d="M374.79 357.281L327.814 384.531L280.837 357.281V302.782L327.814 275.532L374.79 302.782V357.281Z" fill="#959595"/>
<path d="M266.4 357.281L219.424 384.531L172.448 357.281V302.782L219.424 275.532L266.4 302.782V357.281Z" fill="#959595"/>
<path d="M157.974 357.281L110.998 384.531L64.0215 357.281V302.782L110.998 275.532L157.974 302.782V357.281Z" fill="#959595"/>
<path d="M49.5842 357.281L2.60804 384.531L-44.3682 357.281V302.782L2.60804 275.532L49.5842 302.782V357.281Z" fill="#959595"/>
<path d="M1512.37 262.681L1465.39 289.93L1418.42 262.681V208.181L1465.39 180.932L1512.37 208.181V262.681Z" fill="#959595"/>
<path d="M1403.94 262.681L1356.97 289.93L1309.99 262.681V208.181L1356.97 180.932L1403.94 208.181V262.681Z" fill="#959595"/>
<path d="M1295.55 262.681L1248.58 289.93L1201.6 262.681V208.181L1248.58 180.932L1295.55 208.181V262.681Z" fill="#959595"/>
<path d="M1187.13 262.681L1140.15 289.93L1093.21 262.681V208.181L1140.15 180.932L1187.13 208.181V262.681Z" fill="#959595"/>
<path d="M1078.74 262.681L1031.76 289.93L984.784 262.681V208.181L1031.76 180.932L1078.74 208.181V262.681Z" fill="#959595"/>
<path d="M970.31 262.681L923.334 289.93L876.394 262.681V208.181L923.334 180.932L970.31 208.181V262.681Z" fill="#959595"/>
<path d="M861.92 262.681L814.944 289.93L767.968 262.681V208.181L814.944 180.932L861.92 208.181V262.681Z" fill="#959595"/>
<path d="M753.494 262.681L706.518 289.93L659.578 262.681V208.181L706.518 180.932L753.494 208.181V262.681Z" fill="#959595"/>
<path d="M645.104 262.681L598.128 289.93L551.152 262.681V208.181L598.128 180.932L645.104 208.181V262.681Z" fill="#959595"/>
<path d="M536.678 262.681L489.702 289.93L442.762 262.681V208.181L489.702 180.932L536.678 208.181V262.681Z" fill="#959595"/>
<path d="M428.288 262.681L381.312 289.93L334.336 262.681V208.181L381.312 180.932L428.288 208.181V262.681Z" fill="#959595"/>
<path d="M319.862 262.681L272.886 289.93L225.946 262.681V208.181L272.886 180.932L319.862 208.181V262.681Z" fill="#959595"/>
<path d="M211.472 262.681L164.496 289.93L117.52 262.681V208.181L164.496 180.932L211.472 208.181V262.681Z" fill="#959595"/>
<path d="M103.046 262.681L56.1066 289.93L9.13049 262.681V208.181L56.1066 180.932L103.046 208.181V262.681Z" fill="#959595"/>
<path d="M1458.87 168.78L1411.89 196.029L1364.92 168.78V114.28L1411.89 87.0306L1458.87 114.28V168.78Z" fill="#959595"/>
<path d="M1350.44 168.78L1303.5 196.029L1256.53 168.78V114.28L1303.5 87.0306L1350.44 114.28V168.78Z" fill="#959595"/>
<path d="M1242.05 168.78L1195.08 196.029L1148.1 168.78V114.28L1195.08 87.0306L1242.05 114.28V168.78Z" fill="#959595"/>
<path d="M1133.63 168.78L1086.69 196.029L1039.71 168.78V114.28L1086.69 87.0306L1133.63 114.28V168.78Z" fill="#959595"/>
<path d="M1025.24 168.78L978.261 196.029L931.285 168.78V114.28L978.261 87.0306L1025.24 114.28V168.78Z" fill="#959595"/>
<path d="M916.811 168.78L869.872 196.029L822.896 168.78V114.28L869.872 87.0306L916.811 114.28V168.78Z" fill="#959595"/>
<path d="M808.422 168.78L761.445 196.029L714.469 168.78V114.28L761.445 87.0306L808.422 114.28V168.78Z" fill="#959595"/>
<path d="M699.995 168.78L653.056 196.029L606.08 168.78V114.28L653.056 87.0306L699.995 114.28V168.78Z" fill="#959595"/>
<path d="M591.606 168.78L544.629 196.029L497.653 168.78V114.28L544.629 87.0306L591.606 114.28V168.78Z" fill="#959595"/>
<path d="M483.179 168.78L436.24 196.029L389.264 168.78V114.28L436.24 87.0306L483.179 114.28V168.78Z" fill="#959595"/>
<path d="M374.79 168.78L327.814 196.029L280.837 168.78V114.28L327.814 87.0306L374.79 114.28V168.78Z" fill="#959595"/>
<path d="M266.4 168.78L219.424 196.029L172.448 168.78V114.28L219.424 87.0306L266.4 114.28V168.78Z" fill="#959595"/>
<path d="M157.974 168.78L110.998 196.029L64.0215 168.78V114.28L110.998 87.0306L157.974 114.28V168.78Z" fill="#959595"/>
<path d="M49.5842 168.78L2.60804 196.029L-44.3682 168.78V114.28L2.60804 87.0306L49.5842 114.28V168.78Z" fill="#959595"/>
<path d="M1512.37 74.179L1465.39 101.429L1418.42 74.179V19.6796L1465.39 -7.57007L1512.37 19.6796V74.179Z" fill="#959595"/>
<path d="M1403.94 74.179L1356.97 101.429L1309.99 74.179V19.6796L1356.97 -7.57007L1403.94 19.6796V74.179Z" fill="#959595"/>
<path d="M1295.55 74.179L1248.58 101.429L1201.6 74.179V19.6796L1248.58 -7.57007L1295.55 19.6796V74.179Z" fill="#959595"/>
<path d="M1187.13 74.179L1140.15 101.429L1093.21 74.179V19.6796L1140.15 -7.57007L1187.13 19.6796V74.179Z" fill="#959595"/>
<path d="M1078.74 74.179L1031.76 101.429L984.784 74.179V19.6796L1031.76 -7.57007L1078.74 19.6796V74.179Z" fill="#959595"/>
<path d="M970.31 74.179L923.334 101.429L876.394 74.179V19.6796L923.334 -7.57007L970.31 19.6796V74.179Z" fill="#959595"/>
<path d="M861.92 74.179L814.944 101.429L767.968 74.179V19.6796L814.944 -7.57007L861.92 19.6796V74.179Z" fill="#959595"/>
<path d="M753.494 74.179L706.518 101.429L659.578 74.179V19.6796L706.518 -7.57007L753.494 19.6796V74.179Z" fill="#959595"/>
<path d="M645.104 74.179L598.128 101.429L551.152 74.179V19.6796L598.128 -7.57007L645.104 19.6796V74.179Z" fill="#959595"/>
<path d="M536.678 74.179L489.702 101.429L442.762 74.179V19.6796L489.702 -7.57007L536.678 19.6796V74.179Z" fill="#959595"/>
<path d="M428.288 74.179L381.312 101.429L334.336 74.179V19.6796L381.312 -7.57007L428.288 19.6796V74.179Z" fill="#959595"/>
<path d="M319.862 74.179L272.886 101.429L225.946 74.179V19.6796L272.886 -7.57007L319.862 19.6796V74.179Z" fill="#959595"/>
<path d="M211.472 74.179L164.496 101.429L117.52 74.179V19.6796L164.496 -7.57007L211.472 19.6796V74.179Z" fill="#959595"/>
<path d="M103.046 74.179L56.1066 101.429L9.13049 74.179V19.6796L56.1066 -7.57007L103.046 19.6796V74.179Z" fill="#959595"/>
<path d="M1458.87 -19.722L1411.89 7.52773L1364.92 -19.722V-74.2214L1411.89 -101.471L1458.87 -74.2214V-19.722Z" fill="#959595"/>
<path d="M1350.44 -19.722L1303.5 7.52773L1256.53 -19.722V-74.2214L1303.5 -101.471L1350.44 -74.2214V-19.722Z" fill="#959595"/>
<path d="M1242.05 -19.722L1195.08 7.52773L1148.1 -19.722V-74.2214L1195.08 -101.471L1242.05 -74.2214V-19.722Z" fill="#959595"/>
<path d="M1133.63 -19.722L1086.69 7.52773L1039.71 -19.722V-74.2214L1086.69 -101.471L1133.63 -74.2214V-19.722Z" fill="#959595"/>
<path d="M1025.24 -19.722L978.261 7.52773L931.285 -19.722V-74.2214L978.261 -101.471L1025.24 -74.2214V-19.722Z" fill="#959595"/>
<path d="M916.811 -19.722L869.872 7.52773L822.896 -19.722V-74.2214L869.872 -101.471L916.811 -74.2214V-19.722Z" fill="#959595"/>
<path d="M808.422 -19.722L761.445 7.52773L714.469 -19.722V-74.2214L761.445 -101.471L808.422 -74.2214V-19.722Z" fill="#959595"/>
<path d="M699.995 -19.722L653.056 7.52773L606.08 -19.722V-74.2214L653.056 -101.471L699.995 -74.2214V-19.722Z" fill="#959595"/>
<path d="M591.606 -19.722L544.629 7.52773L497.653 -19.722V-74.2214L544.629 -101.471L591.606 -74.2214V-19.722Z" fill="#959595"/>
<path d="M483.179 -19.722L436.24 7.52773L389.264 -19.722V-74.2214L436.24 -101.471L483.179 -74.2214V-19.722Z" fill="#959595"/>
<path d="M374.79 -19.722L327.814 7.52773L280.837 -19.722V-74.2214L327.814 -101.471L374.79 -74.2214V-19.722Z" fill="#959595"/>
<path d="M266.4 -19.722L219.424 7.52773L172.448 -19.722V-74.2214L219.424 -101.471L266.4 -74.2214V-19.722Z" fill="#959595"/>
<path d="M157.974 -19.722L110.998 7.52773L64.0215 -19.722V-74.2214L110.998 -101.471L157.974 -74.2214V-19.722Z" fill="#959595"/>
<path d="M49.5842 -19.722L2.60804 7.52773L-44.3682 -19.722V-74.2214L2.60804 -101.471L49.5842 -74.2214V-19.722Z" fill="#959595"/>
</g>
</g>
</svg>
