<svg width="36" height="31" viewBox="0 0 36 31" fill="none" xmlns="http://www.w3.org/2000/svg">
<g clip-path="url(#clip0_204_900)">
<path d="M36 2.79197V22.8138C35.2941 24.885 34.2879 25.6133 32.1101 25.6133C29.3317 25.6133 26.5607 25.6133 23.7822 25.6133C23.3617 25.6133 23.3392 25.6437 23.5044 26.0306C23.7372 26.5844 24.015 27.1231 24.2028 27.6921C24.3605 28.1777 24.6383 28.3142 25.1189 28.2839C25.6295 28.2535 26.1477 28.2232 26.6583 28.3218C27.2516 28.4356 27.6646 28.8908 27.7322 29.4826C27.8298 30.3627 27.2215 31 26.2904 31C21.9124 31 17.5344 31 13.1564 31C11.9775 31 10.791 31.0076 9.61202 31C8.78598 30.9924 8.19274 30.3172 8.27534 29.513C8.35044 28.7922 8.8761 28.3218 9.67209 28.2839C10.1527 28.2611 10.6333 28.2611 11.1139 28.2839C11.4293 28.2991 11.6095 28.1853 11.7297 27.8818C11.97 27.2673 12.2478 26.6679 12.5031 26.0534C12.6834 25.6209 12.6758 25.6057 12.2028 25.6057C9.26658 25.6057 6.3229 25.6057 3.38673 25.6057C1.50939 25.5981 0 24.0884 0 22.1992C0 15.9476 0 9.68845 0 3.42927C0 1.54772 1.50939 0 3.37171 0C13.1339 0 22.9036 0 32.6658 0C33.6421 0 34.4606 0.394518 35.1289 1.10768C35.5795 1.58566 35.8198 2.16985 36 2.78439V2.79197ZM18.015 2.72369C13.3066 2.72369 8.60576 2.72369 3.89737 2.72369C3.70964 2.72369 3.5219 2.72369 3.33417 2.73886C2.98123 2.76921 2.75594 2.98923 2.71089 3.34581C2.68836 3.51273 2.68836 3.67964 2.68836 3.83896C2.68836 9.80984 2.68836 15.7883 2.68836 21.7592C2.68836 21.8882 2.68836 22.0171 2.69587 22.1461C2.73342 22.6089 2.95119 22.8365 3.40175 22.8669C3.54443 22.8744 3.6796 22.8744 3.82228 22.8744C13.2841 22.8744 22.7384 22.8744 32.2003 22.8744C32.3204 22.8744 32.433 22.8744 32.5532 22.8744C33.0713 22.8441 33.2966 22.6241 33.3342 22.1082C33.3417 21.9792 33.3342 21.8502 33.3342 21.7212C33.3342 15.7731 33.3342 9.82501 33.3342 3.86931C33.3342 3.69481 33.3342 3.51273 33.3116 3.33823C33.2666 2.98164 33.0413 2.76163 32.6884 2.73128C32.5006 2.7161 32.3129 2.7161 32.1252 2.7161C27.4168 2.7161 22.7159 2.7161 18.0075 2.7161L18.015 2.72369ZM18 28.2687C19.0438 28.2687 20.0801 28.2687 21.1239 28.2687C21.4919 28.2687 21.5219 28.2156 21.3717 27.8742C21.0939 27.2217 20.8085 26.5768 20.5382 25.9168C20.4406 25.6892 20.3129 25.5981 20.0651 25.5981C18.6984 25.6057 17.3242 25.6057 15.9574 25.5981C15.7322 25.5981 15.5895 25.6664 15.4994 25.8864C15.229 26.5541 14.9362 27.2066 14.6508 27.8742C14.5081 28.2156 14.5382 28.2611 14.9061 28.2611C15.9349 28.2611 16.9637 28.2611 18 28.2611V28.2687Z" fill="white"/>
</g>
<defs>
<clipPath id="clip0_204_900">
<rect width="36" height="31" fill="white"/>
</clipPath>
</defs>
</svg>
