<svg width="50" height="51" viewBox="0 0 50 51" fill="none" xmlns="http://www.w3.org/2000/svg">
<path d="M47.5116 25.0457C47.5428 22.8309 47.2305 20.7039 46.594 18.6237C46.5062 18.3368 46.4144 18.0461 46.4593 17.7397C46.5374 17.2089 46.9708 16.7952 47.5057 16.7328C48.0797 16.6665 48.5287 16.9377 48.7669 17.5192C49.1768 18.5261 49.3896 19.5916 49.5887 20.6531C50.0748 23.2426 50.1315 25.8399 49.7449 28.4587C49.3916 30.8433 48.6243 33.0854 47.738 35.308C47.004 37.1501 45.8502 38.7113 44.7336 40.3211C43.8883 41.5388 42.7657 42.454 41.7623 43.4999C41.0146 44.2805 40.1322 44.8601 39.2517 45.4708C37.7856 46.4895 36.2824 47.4515 34.6191 48.0681C32.9031 48.7043 31.152 49.2585 29.3383 49.6019C25.1703 50.3922 21.1136 49.9727 17.1018 48.6828C14.8353 47.955 12.7542 46.8856 10.7883 45.5626C9.59161 44.7566 8.49836 43.8239 7.4754 42.815C6.40363 41.7574 5.41385 40.6197 4.5822 39.3591C3.22736 37.3063 1.90961 35.2066 1.25171 32.82C0.381021 29.6529 -0.251499 26.4429 0.0979487 23.1119C0.28341 21.342 0.65238 19.6228 1.07016 17.8997C1.57969 15.8059 2.52847 13.9228 3.64904 12.11C4.19176 11.2319 4.72276 10.3459 5.36505 9.53024C5.88629 8.86873 6.54419 8.336 7.05177 7.67253C7.54763 7.02467 8.14306 6.48609 8.77558 5.99629C10.2964 4.8196 11.8132 3.59218 13.5624 2.80187C15.4541 1.94717 17.381 1.151 19.4328 0.67096C21.5568 0.171406 23.6886 -0.0647118 25.8556 0.015295C28.087 0.0972531 30.2754 0.468016 32.3916 1.20564C33.0866 1.44761 33.4673 2.09937 33.2818 2.68284C33.1139 3.20776 32.5458 3.77561 31.6849 3.50632C30.7615 3.21557 29.8264 2.94432 28.8698 2.82529C27.1382 2.61064 25.3929 2.58917 23.6457 2.61844C21.3772 2.65747 19.1848 3.08677 17.0881 3.93758C14.8646 4.83912 12.7113 5.90067 10.8781 7.47739C9.67555 8.51162 8.46908 9.56537 7.49297 10.8299C6.28845 12.3949 5.15225 14.0243 4.40455 15.8566C3.05947 19.1545 2.26687 22.5713 2.51675 26.1756C2.6866 28.6245 3.24884 30.9662 4.07267 33.2845C4.76962 35.2495 5.84139 36.955 7.05567 38.5942C8.75801 40.8929 10.843 42.7916 13.3067 44.2493C16.1843 45.9528 19.2629 47.0476 22.6129 47.4027C25.7306 47.7344 28.7663 47.4437 31.7376 46.4778C33.9436 45.7616 36.0696 44.8366 37.932 43.4375C39.0643 42.5886 40.261 41.7827 41.1688 40.6763C42.2582 39.3474 43.4939 38.1356 44.3275 36.6018C45.7233 34.0338 46.8127 31.3565 47.2734 28.4587C47.455 27.3191 47.5584 26.1619 47.5116 25.0399V25.0457Z" fill="white"/>
<path d="M24.9661 42.3193C23.049 42.2237 21.6141 42.1359 20.23 41.6909C18.5335 41.1445 16.9249 40.4186 15.4665 39.3844C15.1269 39.1444 14.7403 38.9941 14.4065 38.7365C13.5944 38.1082 12.915 37.3452 12.22 36.6017C9.71725 33.9342 8.3136 30.7476 7.77869 27.1492C7.31797 24.0485 7.79236 21.0765 9.01054 18.2197C9.44784 17.1933 9.98275 16.1981 10.5762 15.2516C11.0448 14.5062 11.6382 13.833 12.2317 13.1754C13.3835 11.8992 14.7325 10.8591 16.2045 9.97313C19.1992 8.1681 22.4536 7.41682 25.9305 7.56513C26.112 7.57293 26.2955 7.61001 26.4673 7.66465C27.133 7.87345 27.5449 8.51155 27.4259 9.12428C27.3107 9.7175 26.7133 10.1429 26.0105 10.0629C24.4038 9.87947 22.8342 10.0902 21.2842 10.4844C20.4076 10.7069 19.5916 11.103 18.7502 11.4289C16.9854 12.1099 15.5876 13.2866 14.2991 14.6116C12.3703 16.5942 11.0096 18.9476 10.4767 21.6463C10.1116 23.4865 10.1233 25.3891 10.3517 27.2975C10.5782 29.1826 11.2536 30.8666 12.1731 32.455C12.915 33.7351 13.7798 34.9684 14.9394 35.9344C16.4192 37.1676 17.9478 38.3794 19.8063 38.959C21.8991 39.6108 24.0563 40.0108 26.278 39.7942C28.033 39.6225 29.7431 39.2712 31.3459 38.516C32.5329 37.9579 33.6007 37.2047 34.6393 36.4027C35.8985 35.4289 36.8414 34.1742 37.7863 32.9234C38.3056 32.2384 38.5242 31.3915 38.8659 30.6149C39.7951 28.4957 40.1778 26.277 39.9611 23.9626C39.8928 23.2308 40.3554 22.6513 41.0739 22.5244C41.6185 22.4288 42.2335 22.8698 42.3604 23.5431C42.579 24.7061 42.5185 25.8789 42.3487 27.0438C42.0851 28.8508 41.7025 30.6383 40.9099 32.2853C40.2442 33.6688 39.3793 34.9352 38.3954 36.1412C36.5174 38.4419 34.1493 40.001 31.4728 41.1641C29.2414 42.132 26.8792 42.3056 24.97 42.3212L24.9661 42.3193Z" fill="white"/>
<path d="M36.5573 17.5194C36.0536 17.5194 35.5461 17.5623 35.0463 17.5077C34.447 17.4433 34.0272 17.7126 33.6407 18.1028C32.9574 18.7917 32.278 19.4825 31.628 20.2025C30.9896 20.9109 30.1716 21.4456 29.5684 22.1871C28.4575 23.555 26.9914 24.5697 25.8748 25.9318C25.5155 26.3689 24.6351 26.2967 24.1841 25.8479C23.6883 25.3561 23.6336 24.4702 24.1666 24.0429C25.1798 23.2291 25.9314 22.1676 26.888 21.307C27.5224 20.7353 28.194 20.1947 28.7348 19.5391C29.664 18.4092 30.8314 17.5252 31.829 16.4676C32.2624 16.009 32.5592 15.5446 32.5084 14.844C32.4342 13.8254 32.5084 12.7951 32.4908 11.7706C32.4791 11.0681 32.7153 10.51 33.2424 10.0378C33.8144 9.52651 34.3845 9.00158 34.9116 8.44739C35.5812 7.74489 36.2586 7.04825 36.94 6.35941C38.0547 5.23151 39.1792 4.11141 40.3017 2.98742C40.78 2.50738 41.3617 2.52689 41.924 2.74544C42.3652 2.91522 42.4686 3.35233 42.4706 3.79139C42.4765 4.88416 42.4862 5.97499 42.4628 7.06776C42.455 7.44633 42.5643 7.55951 42.945 7.54975C44.0363 7.52243 45.1276 7.51853 46.2189 7.54195C47.0447 7.55951 47.5464 8.09614 47.4976 8.83572C47.4741 9.19867 47.277 9.46796 47.031 9.70018C46.2306 10.4612 45.436 11.232 44.659 12.0126C43.8469 12.8282 43.0387 13.6576 42.2363 14.4889C41.4379 15.3163 40.6043 16.1105 39.8058 16.9379C39.4017 17.3574 38.9273 17.5252 38.3651 17.5213C37.7618 17.5174 37.1567 17.5213 36.5534 17.5213L36.5573 17.5194ZM40.0342 6.73798C39.8 6.96044 39.6633 7.07752 39.5403 7.20631C39.0815 7.69025 38.6462 8.21518 38.1601 8.65229C37.223 9.49528 36.3816 10.4261 35.4641 11.2847C35.2376 11.4955 35.0756 11.7374 35.0795 12.0672C35.0873 12.9063 35.0951 13.7474 35.0834 14.5864C35.0795 14.8538 35.1693 14.9338 35.4309 14.9299C36.204 14.9162 36.977 14.9045 37.7482 14.9357C38.1679 14.9514 38.4744 14.8206 38.7653 14.524C39.9542 13.3141 41.1568 12.1199 42.3652 10.9296C42.6443 10.6544 42.9665 10.4222 43.2691 10.1685C43.2281 10.1041 43.1851 10.0397 43.1441 9.97728C42.5487 9.97728 41.9533 9.98508 41.3559 9.97532C40.5535 9.96166 40.042 9.44065 40.0381 8.64058C40.0342 8.05711 40.0381 7.4717 40.0381 6.73798H40.0342Z" fill="#80AECF"/>
<path d="M24.0755 34.877C23.0076 34.8282 21.2311 34.2428 19.5658 33.1774C17.0123 31.5441 15.7395 29.1478 15.2495 26.2656C14.8824 24.1112 15.3158 22.0818 16.3778 20.1772C18.2364 16.8443 21.1217 15.1836 24.8798 14.93C25.852 14.8636 26.258 15.4451 26.2854 16.1984C26.3108 16.9067 25.9203 17.5468 24.8837 17.537C23.0271 17.5214 21.3775 18.1166 20.0461 19.4103C15.8058 23.5317 17.4145 29.6005 22.0412 31.7489C24.1438 32.7246 26.2815 32.711 28.3255 31.6494C29.8228 30.8728 31.1503 29.8249 31.8297 28.1935C32.1928 27.3193 32.4407 26.3983 32.4817 25.4382C32.4934 25.1708 32.5247 24.9093 32.5676 24.644C32.6828 23.9337 33.2177 23.7346 33.86 23.7307C34.6018 23.7249 35.0879 24.1815 35.0801 24.8528C35.0606 26.7436 34.6077 28.5194 33.575 30.1332C33.1025 30.8708 32.5208 31.5167 31.9663 32.1841C31.5505 32.6856 30.961 32.9939 30.3987 33.3276C28.7218 34.3248 26.9394 34.916 24.0774 34.8751L24.0755 34.877Z" fill="#80AECF"/>
</svg>
