<svg width="50" height="44" viewBox="0 0 50 44" fill="none" xmlns="http://www.w3.org/2000/svg">
<path d="M50.0004 18.4859C49.7061 18.7801 49.4392 19.1135 49.1098 19.3622C48.2882 19.982 47.0929 19.0939 47.0642 18.1265C46.9952 15.8192 46.7374 13.5314 46.0134 11.3231C45.2921 9.11997 44.2895 7.04966 42.9015 5.19159C42.2035 4.25669 41.4119 3.38951 40.6345 2.51581C40.0043 1.80747 39.9874 1.02622 40.6423 0.369974C41.1319 -0.119609 42.0824 -0.123515 42.5877 0.359558C44.6267 2.30878 46.21 4.58482 47.4587 7.10956C48.4067 9.02753 49.0694 11.0419 49.5004 13.1304C49.6606 13.9051 49.6983 14.7046 49.8103 15.4911C49.8377 15.6799 49.934 15.8596 49.9991 16.0432V18.4846L50.0004 18.4859Z" fill="white"/>
<path d="M32.6267 36.7905C31.8468 40.3387 29.0343 42.5106 26.1879 42.9989C22.5421 43.6252 18.3415 41.2254 17.3858 36.7905C15.3494 36.7905 13.3064 36.7996 11.2634 36.7814C10.9106 36.7775 10.5108 36.7371 10.2152 36.5692C9.42227 36.1173 9.2517 35.3986 9.65795 34.5822C10.6059 32.6785 11.5551 30.7775 12.4952 28.87C12.5759 28.7059 12.6215 28.5067 12.6228 28.3244C12.6332 25.8673 12.641 23.4116 12.6345 20.9546C12.628 18.0744 13.6176 15.5666 15.408 13.3439C16.6462 11.8061 18.158 10.6304 19.9731 9.85433C20.3168 9.70719 20.4991 9.48063 20.5811 9.10172C20.9783 7.28792 22.7439 5.71631 24.822 5.66422C27.1241 5.60693 28.9991 7.13037 29.4613 9.11865C29.5733 9.59912 29.8533 9.7137 30.2218 9.92334C31.2204 10.491 32.2244 11.0809 33.1111 11.8048C34.3077 12.7814 35.2934 13.9793 36.003 15.3686C36.5915 16.521 37.0421 17.7241 37.2361 19.0171C37.6931 22.0653 37.3676 25.133 37.4796 28.189C37.4926 28.5275 37.5733 28.8895 37.7205 29.1942C38.5707 30.9507 39.4522 32.6916 40.3194 34.4403C40.7843 35.3765 40.5941 36.1408 39.7191 36.6291C39.4718 36.7671 39.1358 36.784 38.8402 36.7853C36.9405 36.7983 35.0408 36.7918 33.141 36.7918C32.9652 36.7918 32.7908 36.7918 32.628 36.7918L32.6267 36.7905ZM36.7426 33.8361C36.1384 32.62 35.572 31.4129 34.9418 30.2384C34.6397 29.6746 34.546 29.1069 34.5395 28.4845C34.5082 25.646 34.5173 22.8048 34.3832 19.9715C34.2882 17.9559 33.3376 16.2397 31.9939 14.7684C30.8402 13.5041 29.4379 12.6082 27.7777 12.1291C27.2543 11.978 26.8637 11.6134 26.7439 11.0535C26.6879 10.7892 26.7283 10.5054 26.7022 10.2319C26.6449 9.61865 26.4392 9.07177 25.8428 8.79443C25.2543 8.52099 24.6606 8.48584 24.0746 8.85433C23.4223 9.26318 23.3207 9.91162 23.2999 10.5835C23.2738 11.4246 22.9731 11.8543 22.1697 12.1395C21.641 12.327 21.0902 12.4871 20.6072 12.7619C19.5733 13.353 18.6215 14.0405 17.8494 14.9897C16.4509 16.7085 15.5837 18.6108 15.5655 20.8517C15.5486 22.9663 15.4835 25.0848 15.5746 27.1968C15.6397 28.6955 15.3376 30.0301 14.5772 31.3088C14.1059 32.1004 13.7465 32.9598 13.3142 33.8361H36.7426ZM29.5577 36.8244H20.5316C20.9809 38.6525 22.6944 40.0002 24.6371 40.1486C26.9496 40.3257 28.9822 38.7658 29.5577 36.8244Z" fill="white"/>
<path d="M0.099409 17.2293C0.11243 15.1186 0.497846 13.0665 1.06946 11.0431C1.94967 7.92202 3.44316 5.11472 5.42623 2.56915C6.02779 1.79702 6.72441 1.0965 7.39889 0.382954C7.88587 -0.132671 8.99654 -0.126161 9.47441 0.406391C9.98483 0.975402 9.99134 1.87514 9.47962 2.40248C7.5916 4.3491 6.03431 6.52618 4.92623 9.01446C4.1567 10.7436 3.56555 12.5262 3.32597 14.4077C3.18014 15.5483 3.13066 16.7007 3.02128 17.8465C2.92363 18.8725 2.74785 19.1473 1.82597 19.5197C1.2179 19.7645 0.156701 19.2241 0.102013 18.2059C0.0850861 17.8817 0.099409 17.5561 0.099409 17.2306V17.2293Z" fill="white"/>
<path d="M6.33504 17.4467C6.44702 15.0913 6.91838 12.8191 7.86108 10.6473C8.80379 8.478 10.0811 6.54701 11.7699 4.88946C12.3702 4.30092 13.3507 4.23451 13.8676 4.80873C14.3975 5.39857 14.5043 6.23451 13.8311 6.9181C12.6606 8.10691 11.6762 9.44414 10.9392 10.9324C10.197 12.4298 9.63062 14.004 9.45744 15.6889C9.37931 16.4533 9.29858 17.2189 9.26473 17.9858C9.22827 18.827 8.57853 19.5535 7.79858 19.5587C7.01864 19.5639 6.33765 18.8322 6.33374 17.9819C6.33374 17.8035 6.33374 17.6238 6.33374 17.4454L6.33504 17.4467Z" fill="white"/>
<path d="M43.7713 17.5444C43.6528 17.9819 43.6137 18.4962 43.3832 18.9012C42.8832 19.7814 41.5108 19.7358 41.0408 18.8426C40.8715 18.521 40.7569 18.129 40.7543 17.7671C40.7257 14.297 39.6124 11.2137 37.5174 8.4741C37.1189 7.95326 36.6749 7.46368 36.2257 6.98451C35.5798 6.29571 35.5994 5.35691 36.2856 4.73972C36.9145 4.17592 37.9314 4.4116 38.4392 5.07566C39.1957 6.06394 40.0473 6.98321 40.7517 8.00665C42.016 9.83998 42.8246 11.8908 43.266 14.0705C43.4926 15.1915 43.6007 16.3387 43.7713 17.5444Z" fill="white"/>
<path d="M29.559 36.8231C28.9835 38.7658 26.9509 40.3244 24.6384 40.1473C22.6957 39.9988 20.9822 38.6512 20.533 36.8231H29.559Z" fill="#AFE1FF"/>
</svg>
