<svg width="50" height="45" viewBox="0 0 50 45" fill="none" xmlns="http://www.w3.org/2000/svg">
<path d="M0 21.8319C0.25 21.134 0.510417 20.4256 0.760417 19.7277C1.16667 18.6027 1.83333 17.6131 2.5625 16.6756C3.6875 15.2485 5.04167 14.1027 6.64583 13.2485C7.94792 12.561 9.3125 12.009 10.7812 11.8735C12.0625 11.759 13.3646 11.7694 14.6562 11.7694C15.0938 11.7694 15.5417 11.8631 15.9688 11.9673C16.3646 12.0715 16.4375 11.8319 16.4688 11.561C16.6979 9.38396 17.5 7.43604 18.7292 5.65479C20.4583 3.13396 22.8333 1.46729 25.7292 0.529793C27.4271 -0.0118734 29.1771 -0.0743733 30.9062 0.0610434C33.4167 0.25896 35.7188 1.16521 37.7083 2.72771C40.1458 4.64438 41.7917 7.12354 42.4896 10.1652C42.6771 10.9777 42.7083 11.8319 42.7917 12.6756C42.9062 13.8215 42.7917 14.9569 42.5417 16.0819C42.5208 16.1756 42.6458 16.3735 42.7396 16.4152C44.3021 17.009 45.6667 17.9256 46.8021 19.1548C48.25 20.7277 49.2812 22.5298 49.6042 24.6652C49.7708 25.759 49.8646 26.884 49.7917 27.9777C49.6667 29.9881 48.9375 31.8319 47.7708 33.4673C46.6458 35.061 45.1667 36.2694 43.4167 37.1235C42.3333 37.6444 41.1979 38.0194 40 38.1235C39.1042 38.1965 38.1979 38.2277 37.2604 38.2694C37.2604 38.3735 37.2396 38.509 37.2396 38.6548C37.2396 40.0402 37.2396 41.4256 37.2396 42.8006C37.2396 44.0298 36.5104 44.7069 35.375 44.7069C28.3854 44.6756 21.4062 44.686 14.4167 44.7069C13.3542 44.7069 12.9271 44.2277 12.7396 43.6131C12.6979 43.4673 12.6771 43.3006 12.6771 43.1444C12.6771 41.5194 12.6771 39.8944 12.6771 38.2381C11.2708 38.2798 9.94792 37.9985 8.66667 37.5402C5.60417 36.4673 3.23958 34.5194 1.5625 31.7381C0.875 30.6027 0.395833 29.4048 0.09375 28.1235C0.09375 28.1027 0.0416667 28.0923 0.0208333 28.0715C0.0208333 25.9881 0.0208333 23.9048 0.0208333 21.8215L0 21.8319ZM15.8854 23.2173C15.8854 23.2173 15.8333 23.2694 15.8021 23.3006C15.8021 23.3944 15.7917 23.4985 15.7917 23.5923C15.7917 29.4985 15.7917 35.3944 15.7917 41.3006C15.7917 41.3735 15.7917 41.4569 15.8021 41.5298H34.1146C34.1146 36.4256 34.1146 31.3527 34.1146 26.2694C34.1146 25.2798 34.1146 24.2902 34.1042 23.2902L34.0208 23.2069C30.7292 23.2069 27.4479 23.1965 24.1562 23.1965C21.4062 23.1965 18.6458 23.1965 15.8958 23.2069L15.8854 23.2173ZM12.6667 34.9985C12.6667 34.8006 12.6667 34.634 12.6667 34.4777C12.6667 30.2277 12.6667 25.9881 12.6667 21.7381C12.6667 20.6965 13.2917 20.0819 14.3333 20.0819C21.3333 20.0819 28.3333 20.0819 35.3333 20.0819C36.6042 20.0819 37.2292 20.7069 37.2292 21.9881C37.2292 26.186 37.2292 30.384 37.2292 34.5819V35.0819C39.6875 35.3319 41.875 34.759 43.6979 33.1548C46.1771 30.9673 47.1146 28.186 46.3229 24.9673C45.5521 21.811 43.4896 19.8215 40.3438 18.9985C39.2604 18.7173 38.7812 17.6965 39.0833 16.8735C39.7812 14.9985 39.8646 13.0715 39.4792 11.1235C39 8.73813 37.7604 6.79021 35.875 5.30063C33.4687 3.40479 30.6771 2.83188 27.7083 3.31104C26.2917 3.54021 24.9479 4.11313 23.7604 4.99854C21.9688 6.33188 20.6875 7.99854 19.9792 10.134C19.5208 11.4881 19.4896 12.8527 19.5 14.2485C19.5 14.4673 19.4583 14.7069 19.3646 14.8944C18.9688 15.7069 18.0312 16.0194 17.1667 15.6235C15.9062 15.0506 14.5729 14.8319 13.2083 14.8215C12.4271 14.8215 11.6146 14.936 10.8542 15.1131C7.84375 15.811 5.63542 17.5819 4.21875 20.3006C3.1875 22.2694 2.83333 24.3735 3.22917 26.6027C3.59375 28.6652 4.47917 30.436 5.88542 31.9673C6.94792 33.1131 8.22917 33.9465 9.6875 34.4881C10.6354 34.8423 11.6146 35.186 12.6875 35.009L12.6667 34.9985Z" fill="white"/>
<path d="M19.6771 32.3944C19.6771 30.5714 19.7187 28.7485 19.6562 26.9256C19.6146 25.8319 20.7708 24.884 21.9479 25.5506C23.0833 26.1965 24.1771 26.9048 25.2917 27.5819C27.1354 28.6964 28.9687 29.811 30.8229 30.9152C31.7917 31.4985 31.9687 32.2485 31.6562 32.936C31.5 33.2902 31.1667 33.6131 30.8333 33.8215C28.1979 35.4465 25.5417 37.0298 22.8958 38.6339C22.5833 38.8214 22.2917 39.0298 21.9792 39.2069C21.4896 39.4777 20.9792 39.5194 20.4792 39.2589C19.9792 38.9985 19.6875 38.5923 19.6875 37.9985C19.6875 36.1235 19.6875 34.2589 19.6875 32.3839L19.6771 32.3944ZM22.8021 35.0506C24.2917 34.1548 25.75 33.2798 27.2396 32.3839C25.7396 31.4777 24.2917 30.6027 22.8021 29.686V35.0506Z" fill="#80AECF"/>
</svg>
