<svg width="60" height="60" viewBox="0 0 60 60" fill="none" xmlns="http://www.w3.org/2000/svg">
<circle cx="30" cy="30" r="30" fill="#363636"/>
<circle cx="30" cy="30" r="20" fill="#464646"/>
<path d="M30 39.0035C28.7369 37.9261 27.5662 36.745 26.5 35.4725C24.9 33.5615 23 30.7155 23 28.0035C22.9993 26.6185 23.4095 25.2644 24.1787 24.1125C24.9479 22.9607 26.0415 22.063 27.3211 21.5329C28.6007 21.0028 30.0087 20.8643 31.3671 21.1348C32.7255 21.4053 33.9731 22.0727 34.952 23.0525C35.6038 23.7014 36.1203 24.473 36.4719 25.3229C36.8234 26.1727 37.0029 27.0838 37 28.0035C37 30.7155 35.1 33.5615 33.5 35.4725C32.4338 36.745 31.2631 37.9261 30 39.0035ZM30 25.0035C29.2044 25.0035 28.4413 25.3196 27.8787 25.8822C27.3161 26.4448 27 27.2079 27 28.0035C27 28.7992 27.3161 29.5622 27.8787 30.1248C28.4413 30.6874 29.2044 31.0035 30 31.0035C30.7957 31.0035 31.5587 30.6874 32.1213 30.1248C32.6839 29.5622 33 28.7992 33 28.0035C33 27.2079 32.6839 26.4448 32.1213 25.8822C31.5587 25.3196 30.7957 25.0035 30 25.0035Z" fill="#80AECF"/>
</svg>
