<svg width="60" height="60" viewBox="0 0 60 60" fill="none" xmlns="http://www.w3.org/2000/svg">
<circle cx="30" cy="30" r="30" fill="#363636"/>
<circle cx="30" cy="30" r="20" fill="#464646"/>
<path d="M39 27.627V35.7036C38.9899 35.7305 38.9818 35.7553 38.9716 35.7822C38.7034 36.598 38.1628 36.9976 37.3216 36.9976C32.7617 36.9976 28.2018 36.9934 23.644 36.9996C22.6605 37.0017 21.9939 36.1942 22 35.3267C22.0204 32.8443 22.0082 30.3599 22.0082 27.8775C22.0082 27.8319 22.0082 27.7864 22.0082 27.7429C22.0082 27.6621 22.0447 27.6414 22.1118 27.687C22.1484 27.7118 22.185 27.7367 22.2236 27.7615C24.471 29.2895 26.7205 30.8154 28.9679 32.3433C30.0063 33.0493 31.0101 33.0514 32.0464 32.3474C33.735 31.2025 35.4216 30.0555 37.1082 28.9085C37.7381 28.48 38.3701 28.0555 39 27.629V27.627Z" fill="#80AECF"/>
<path d="M39.0006 25.9048C38.8868 26.3934 38.5962 26.7329 38.1898 27.0083C35.9648 28.5093 33.7458 30.0207 31.5268 31.53C30.8034 32.0207 30.2202 32.0207 29.4988 31.53C27.2372 29.9938 24.9735 28.4576 22.7139 26.9213C22.1612 26.5445 21.9214 26.0104 22.0291 25.352C22.1368 24.6791 22.5432 24.2464 23.1873 24.0559C23.3255 24.0145 23.4698 24 23.6141 24C28.2126 24 32.809 24 37.4075 24C38.1431 24 38.7243 24.4369 38.9519 25.1511C38.9681 25.1988 38.9844 25.2464 39.0006 25.294V25.9027V25.9048Z" fill="#80AECF"/>
</svg>
