<svg width="37" height="37" viewBox="0 0 37 37" fill="none" xmlns="http://www.w3.org/2000/svg">
<g clip-path="url(#clip0_204_1190)">
<path d="M16.7806 37.0003C16.4758 36.8583 16.1403 36.7923 15.8527 36.6078C15.093 36.1212 14.62 35.4393 14.45 34.553C14.346 34.0103 14.2438 33.4658 14.1606 32.9196C14.118 32.641 14.0095 32.471 13.7183 32.3859C13.1404 32.2168 12.5887 31.9744 12.0533 31.6977C11.8371 31.5864 11.6535 31.5973 11.4528 31.7465C11.0476 32.0477 10.628 32.3299 10.2146 32.6211C8.81825 33.6042 7.30156 33.483 6.08966 32.2874C5.62751 31.8306 5.16627 31.373 4.71135 30.9081C3.56005 29.7315 3.43163 28.2211 4.36587 26.8681C4.67337 26.4222 4.98358 25.9781 5.30012 25.5395C5.41769 25.3758 5.44573 25.2211 5.35348 25.0366C5.05231 24.4333 4.79004 23.8129 4.58655 23.1699C4.51239 22.9356 4.32518 22.9103 4.13796 22.875C3.58266 22.7728 3.02374 22.6869 2.47025 22.5757C0.969842 22.2727 0.0138893 21.1114 0.00394083 19.5865C-0.000581186 18.8766 -0.000581186 18.1666 0.00394083 17.4566C0.0129848 15.9073 0.966225 14.7533 2.49286 14.4485C3.03459 14.34 3.57995 14.245 4.12621 14.1582C4.38848 14.1166 4.55489 14.0117 4.63629 13.7367C4.80813 13.1597 5.04508 12.6053 5.32364 12.0708C5.44302 11.842 5.43126 11.6502 5.27299 11.4386C4.97001 11.0343 4.68875 10.6146 4.39843 10.2004C3.42982 8.81846 3.5501 7.30174 4.72854 6.10338C5.1925 5.63127 5.65917 5.16187 6.13307 4.69971C7.29795 3.56466 8.80468 3.43623 10.145 4.35603C10.5719 4.64906 10.9988 4.94119 11.413 5.25141C11.6309 5.41421 11.829 5.45129 12.0759 5.32105C12.6303 5.02802 13.21 4.79287 13.8087 4.60927C14.0475 4.53601 14.1162 4.3705 14.1524 4.15706C14.2483 3.60084 14.3396 3.04281 14.45 2.48839C14.7529 0.966248 15.9106 0.0129852 17.458 0.00394091C18.168 -0.000581214 18.8779 -0.000581214 19.5879 0.00394091C21.0937 0.0138896 22.2631 0.965344 22.5697 2.43775C22.6845 2.99035 22.7804 3.54838 22.8654 4.10641C22.9079 4.38497 23.0146 4.55591 23.3059 4.64183C23.872 4.80734 24.4156 5.03978 24.9383 5.31472C25.1789 5.44134 25.3797 5.43139 25.6021 5.26317C25.9956 4.96561 26.4071 4.69248 26.8104 4.40849C28.2077 3.42447 29.7226 3.54476 30.9354 4.73951C31.3985 5.19534 31.8597 5.65388 32.3137 6.11785C33.4288 7.25652 33.5862 8.68641 32.7334 10.034C32.4313 10.5115 32.0994 10.971 31.7638 11.4259C31.601 11.6466 31.5766 11.8438 31.7087 12.0889C31.989 12.6089 32.2169 13.1543 32.3843 13.7195C32.4702 14.0108 32.6411 14.1175 32.9188 14.16C33.4768 14.245 34.0366 14.3327 34.5874 14.4557C35.7477 14.7153 36.5373 15.4 36.9017 16.5477C36.9271 16.6273 36.966 16.7032 36.9985 16.7801V20.2468C36.8068 20.8365 36.5536 21.3854 36.0796 21.8132C35.6681 22.1859 35.2006 22.4418 34.6588 22.5558C34.109 22.6715 33.5844 22.3749 33.456 21.8874C33.3212 21.3755 33.5835 20.841 34.1216 20.6899C34.8424 20.4882 35.1047 20.0451 35.0966 19.2926C35.0902 18.7391 35.1011 18.1856 35.0938 17.6321C35.0839 16.8651 34.7945 16.4988 34.0493 16.3505C33.2832 16.1986 32.5136 16.0629 31.7421 15.9408C31.2474 15.8621 30.9264 15.598 30.7898 15.125C30.4986 14.1148 30.1079 13.1479 29.5915 12.2318C29.3464 11.7967 29.3997 11.3834 29.6864 10.9818C30.1341 10.3551 30.5773 9.7256 31.0132 9.09069C31.4446 8.46302 31.4003 7.98277 30.8694 7.44464C30.438 7.0078 30.0048 6.57368 29.567 6.14317C29.0443 5.62946 28.5586 5.58424 27.9491 6.00208C27.3241 6.43078 26.6992 6.86129 26.0887 7.30898C25.6392 7.63909 25.1934 7.67255 24.7113 7.39399C23.853 6.89746 22.9387 6.53208 21.9854 6.26256C21.4527 6.11242 21.1588 5.78502 21.0765 5.22609C20.9608 4.44195 20.8133 3.66143 20.6569 2.88363C20.5384 2.29666 20.2553 2.01086 19.6611 1.95659C18.8951 1.88695 18.1209 1.88424 17.3549 1.9584C16.7526 2.01719 16.4776 2.31746 16.361 2.92885C16.2126 3.70756 16.0652 4.48808 15.9413 5.27131C15.8599 5.78321 15.5859 6.10247 15.0984 6.24176C14.0991 6.52665 13.144 6.91646 12.2387 7.42746C11.8055 7.67165 11.3913 7.63005 10.9879 7.34244C10.3512 6.88842 9.71179 6.43802 9.06696 5.99575C8.46101 5.58062 7.97444 5.62946 7.44988 6.14679C7.00401 6.58634 6.56086 7.0277 6.12313 7.47449C5.63927 7.96921 5.58862 8.46573 5.97571 9.03552C6.40892 9.67224 6.84665 10.3062 7.30247 10.9267C7.63167 11.3753 7.67689 11.8202 7.39833 12.3032C6.90272 13.1624 6.53372 14.075 6.26512 15.0282C6.11046 15.5763 5.77312 15.8703 5.20064 15.9526C4.42828 16.0638 3.65953 16.2112 2.89441 16.365C2.30203 16.4844 2.01714 16.7611 1.96016 17.3526C1.886 18.1187 1.88872 18.8928 1.95745 19.6589C2.01262 20.264 2.31559 20.5452 2.91973 20.661C3.71109 20.812 4.50334 20.9558 5.29741 21.0879C5.77584 21.1675 6.09147 21.4234 6.22532 21.8829C6.52287 22.9031 6.91719 23.8816 7.43903 24.8087C7.68503 25.2455 7.61449 25.6588 7.32779 26.0577C6.88644 26.6736 6.45142 27.2949 6.02093 27.919C5.57596 28.5648 5.61847 29.0414 6.16473 29.5931C6.59613 30.029 7.02843 30.465 7.46707 30.8946C7.97353 31.3911 8.46734 31.4372 9.05701 31.0347C9.68285 30.6069 10.3087 30.1782 10.9174 29.7278C11.3786 29.3869 11.8317 29.3516 12.3255 29.6383C13.1729 30.1303 14.0764 30.4921 15.0179 30.7562C15.5651 30.9099 15.8663 31.2391 15.9486 31.8144C16.0598 32.5867 16.2163 33.3537 16.3592 34.1215C16.4604 34.6678 16.7743 35.0223 17.3413 35.0667C18.1209 35.1282 18.9032 35.1255 19.6837 35.0667C20.2011 35.0278 20.5049 34.713 20.6469 34.2256C20.7708 33.7978 21.0322 33.4993 21.4889 33.4387C22.1998 33.3446 22.7243 33.966 22.5425 34.6931C22.2712 35.7766 21.6146 36.5201 20.5456 36.8827C20.4434 36.9171 20.3449 36.9605 20.2445 37.0003H16.7779H16.7806Z" fill="#095396"/>
<path d="M25.3287 18.8962C25.4535 17.166 25.0556 15.5697 24.0173 14.1687C22.762 12.4756 21.0807 11.5052 18.9698 11.3053C18.779 11.2872 18.5873 11.2601 18.3956 11.2574C18.2952 11.2556 18.1523 11.2339 18.1116 11.3542C18.0781 11.4536 18.2002 11.5133 18.2644 11.5794C18.9264 12.2613 19.5876 12.9441 20.2559 13.6207C21.0102 14.3831 21.3792 15.2839 21.277 16.3629C21.2137 17.0294 20.9767 17.6309 20.5254 18.1238C19.7865 18.9314 19.006 19.7011 18.1912 20.4319C16.8382 21.6456 14.8105 21.5108 13.5009 20.1018C12.8706 19.4234 12.2085 18.7741 11.5583 18.1138C11.4941 18.0487 11.4353 17.9257 11.3322 17.9637C11.211 18.0098 11.2453 18.1491 11.2463 18.2522C11.2716 21.9748 13.9586 24.8455 17.3455 25.2941C17.9343 25.3718 18.5222 25.3537 19.1109 25.3483C20.709 25.3339 22.0882 25.8846 23.2151 27.0016C24.4967 28.2714 25.7384 29.5828 26.9973 30.8762C27.7109 31.6087 28.4227 32.3431 29.1362 33.0757C29.3967 33.3425 29.5984 33.6392 29.5477 34.0326C29.4998 34.4061 29.3054 34.6919 28.9427 34.8195C28.5484 34.9578 28.1794 34.8918 27.8791 34.5852C27.1809 33.8716 26.4872 33.1526 25.7909 32.4363C24.5238 31.1339 23.2531 29.8352 21.9896 28.5301C21.1739 27.6872 20.1953 27.2657 19.0151 27.3191C17.3266 27.395 15.6995 27.1264 14.1982 26.3233C11.4687 24.8636 9.86614 22.5916 9.3868 19.5284C9.28551 18.8808 9.30631 18.2323 9.33344 17.5838C9.366 16.7834 9.72776 16.1675 10.4956 15.87C11.2517 15.576 11.9463 15.737 12.5233 16.3041C13.1844 16.9535 13.8247 17.6236 14.4732 18.2848C14.6757 18.491 14.8675 18.7071 15.08 18.9025C15.667 19.4433 16.4167 19.4433 16.9919 18.8916C17.6431 18.2667 18.2852 17.6327 18.9183 16.9896C19.5053 16.3945 19.5089 15.6692 18.9282 15.0659C18.1107 14.2158 17.2741 13.3846 16.4592 12.5326C15.6679 11.706 15.6715 10.5664 16.4484 9.82478C16.7866 9.5019 17.1972 9.34725 17.6558 9.32644C20.9975 9.17269 23.689 10.4181 25.6688 13.1205C26.6338 14.4383 27.1574 15.936 27.2822 17.5739C27.3202 18.0677 27.3184 18.5552 27.284 19.049C27.2008 20.2673 27.5969 21.3137 28.4552 22.1919C30.3726 24.1545 32.279 26.1261 34.1937 28.0914C34.455 28.3601 34.6621 28.6495 34.6196 29.0429C34.5789 29.4164 34.3953 29.7058 34.0336 29.8442C33.6393 29.9944 33.2694 29.9328 32.9673 29.6317C32.4129 29.08 31.8666 28.5201 31.3222 27.9585C29.9393 26.534 28.5674 25.0987 27.1737 23.6851C26.045 22.541 25.3757 21.2024 25.3287 19.579C25.3224 19.3511 25.3278 19.1232 25.3278 18.8944L25.3287 18.8962Z" fill="#095396"/>
</g>
<defs>
<clipPath id="clip0_204_1190">
<rect width="37" height="37" fill="white"/>
</clipPath>
</defs>
</svg>
