<svg width="27" height="27" viewBox="0 0 27 27" fill="none" xmlns="http://www.w3.org/2000/svg">
<g clip-path="url(#clip0_1405_6557)">
<path d="M12.2449 27.0001C12.0225 26.8965 11.7776 26.8483 11.5678 26.7137C11.0134 26.3586 10.6682 25.861 10.5442 25.2142C10.4683 24.8182 10.3937 24.4209 10.333 24.0223C10.302 23.819 10.2228 23.6949 10.0102 23.6329C9.58853 23.5095 9.18595 23.3326 8.79525 23.1306C8.63751 23.0495 8.50354 23.0574 8.35703 23.1663C8.06136 23.3861 7.75513 23.592 7.45353 23.8045C6.43454 24.5219 5.32777 24.4335 4.44341 23.561C4.10616 23.2277 3.76958 22.8937 3.43761 22.5545C2.59747 21.6958 2.50376 20.5937 3.18551 19.6063C3.4099 19.281 3.63627 18.9569 3.86725 18.6368C3.95305 18.5173 3.97351 18.4045 3.90619 18.2699C3.68642 17.8296 3.49503 17.3769 3.34654 16.9076C3.29242 16.7367 3.15581 16.7182 3.01919 16.6925C2.61397 16.6179 2.20611 16.5552 1.80221 16.474C0.707322 16.2529 0.00973455 15.4055 0.00247488 14.2928C-0.000824961 13.7747 -0.000824961 13.2566 0.00247488 12.7385C0.00907458 11.608 0.704682 10.7658 1.81871 10.5434C2.21403 10.4642 2.61199 10.3949 3.01061 10.3315C3.20201 10.3012 3.32344 10.2246 3.38284 10.024C3.50823 9.60293 3.68114 9.19836 3.88441 8.8083C3.97153 8.64133 3.96295 8.50141 3.84746 8.34697C3.62637 8.05196 3.42112 7.74573 3.20927 7.44345C2.50244 6.435 2.59021 5.3282 3.45015 4.45372C3.78872 4.10921 4.12926 3.76668 4.47509 3.42942C5.32513 2.60114 6.42463 2.50742 7.40271 3.17863C7.71421 3.39246 8.02572 3.60564 8.32799 3.83202C8.48704 3.95081 8.63157 3.97787 8.81174 3.88283C9.21631 3.669 9.63935 3.4974 10.0762 3.36343C10.2505 3.30997 10.3006 3.18919 10.327 3.03343C10.397 2.62754 10.4636 2.22033 10.5442 1.81576C10.7653 0.705005 11.61 0.00937997 12.7392 0.00278012C13.2573 -0.000519806 13.7754 -0.000519806 14.2934 0.00278012C15.3923 0.01004 16.2456 0.704345 16.4694 1.7788C16.5532 2.18205 16.6231 2.58926 16.6852 2.99647C16.7162 3.19975 16.7941 3.32449 17.0066 3.38718C17.4197 3.50796 17.8164 3.67758 18.1978 3.87821C18.3734 3.97061 18.5199 3.96335 18.6822 3.84059C18.9693 3.62346 19.2696 3.42414 19.564 3.21691C20.5836 2.49884 21.6891 2.58662 22.5741 3.45846C22.912 3.7911 23.2486 4.12571 23.5799 4.46428C24.3936 5.2952 24.5085 6.33864 23.8861 7.32202C23.6657 7.67049 23.4235 8.00576 23.1786 8.33773C23.0598 8.49877 23.042 8.64265 23.1384 8.8215C23.3429 9.201 23.5093 9.59897 23.6314 10.0115C23.694 10.224 23.8188 10.3019 24.0214 10.3329C24.4286 10.3949 24.8371 10.4589 25.239 10.5487C26.0858 10.7381 26.6619 11.2377 26.9279 12.0752C26.9464 12.1333 26.9748 12.1887 26.9985 12.2448V14.7746C26.8586 15.2049 26.6738 15.6055 26.328 15.9177C26.0277 16.1896 25.6865 16.3764 25.2912 16.4595C24.8899 16.544 24.5071 16.3275 24.4134 15.9718C24.3151 15.5982 24.5065 15.2082 24.8992 15.098C25.4251 14.9508 25.6165 14.6274 25.6106 14.0783C25.606 13.6744 25.6139 13.2705 25.6086 12.8666C25.6014 12.3069 25.3902 12.0396 24.8464 11.9314C24.2874 11.8205 23.7257 11.7215 23.1628 11.6324C22.8018 11.575 22.5675 11.3822 22.4678 11.0371C22.2553 10.2999 21.9702 9.59435 21.5934 8.92578C21.4145 8.60833 21.4535 8.30672 21.6627 8.01368C21.9893 7.55631 22.3127 7.09696 22.6308 6.63365C22.9456 6.17562 22.9133 5.82517 22.5259 5.43248C22.2111 5.11371 21.895 4.79691 21.5756 4.48276C21.1941 4.10789 20.8397 4.07489 20.3949 4.3798C19.9388 4.69264 19.4828 5.00679 19.0373 5.33348C18.7093 5.57438 18.3839 5.5988 18.0322 5.39552C17.4059 5.03319 16.7386 4.76655 16.043 4.56988C15.6543 4.46032 15.4398 4.22141 15.3798 3.81354C15.2953 3.24133 15.1877 2.67176 15.0735 2.10417C14.9871 1.67584 14.7805 1.46729 14.3469 1.42769C13.7879 1.37687 13.223 1.37489 12.664 1.42901C12.2244 1.47191 12.0238 1.69102 11.9387 2.13717C11.8304 2.70542 11.7229 3.27499 11.6325 3.84653C11.5731 4.22009 11.3731 4.45306 11.0174 4.5547C10.2881 4.76259 9.59117 5.04705 8.93054 5.41994C8.61441 5.59814 8.31215 5.56778 8.0178 5.3579C7.55318 5.02659 7.08658 4.69792 6.61603 4.37518C6.17385 4.07225 5.81878 4.10789 5.436 4.4854C5.11064 4.80615 4.78725 5.12823 4.46783 5.45426C4.11474 5.81527 4.07778 6.1776 4.36025 6.59339C4.67638 7.05802 4.9958 7.52067 5.32843 7.97342C5.56866 8.30078 5.60165 8.62549 5.39838 8.97792C5.03672 9.60491 4.76745 10.2708 4.57144 10.9665C4.45859 11.3664 4.21242 11.5809 3.79466 11.641C3.23104 11.7221 2.67007 11.8297 2.11174 11.9419C1.67946 12.029 1.47157 12.231 1.42999 12.6626C1.37587 13.2216 1.37785 13.7866 1.42801 14.3456C1.46827 14.7871 1.68936 14.9924 2.13022 15.0768C2.70769 15.1871 3.28582 15.292 3.86527 15.3884C4.2144 15.4464 4.44473 15.6332 4.5424 15.9685C4.75953 16.7129 5.04728 17.4271 5.42808 18.1035C5.60759 18.4223 5.55612 18.7239 5.34691 19.015C5.02484 19.4644 4.7074 19.9178 4.39325 20.3732C4.06854 20.8445 4.09956 21.1923 4.49819 21.5949C4.81299 21.913 5.12846 22.2311 5.44854 22.5446C5.81812 22.9069 6.17847 22.9406 6.60877 22.6469C7.06547 22.3347 7.52216 22.0219 7.96632 21.6932C8.30291 21.4444 8.63355 21.4186 8.9939 21.6279C9.61229 21.9869 10.2716 22.2509 10.9586 22.4436C11.3579 22.5558 11.5777 22.796 11.6377 23.2158C11.7189 23.7794 11.8331 24.3391 11.9374 24.8994C12.0113 25.298 12.2403 25.5568 12.6541 25.5891C13.223 25.634 13.7939 25.632 14.3634 25.5891C14.7409 25.5607 14.9627 25.331 15.0663 24.9753C15.1567 24.6631 15.3474 24.4453 15.6807 24.4011C16.1994 24.3325 16.5822 24.7859 16.4496 25.3165C16.2516 26.1072 15.7724 26.6497 14.9924 26.9143C14.9178 26.9394 14.8458 26.9711 14.7726 27.0001H12.2429H12.2449Z" fill="#80AECF"/>
<path d="M18.4834 13.7888C18.5745 12.5263 18.2841 11.3614 17.5264 10.3391C16.6104 9.10357 15.3835 8.39541 13.8432 8.24955C13.7039 8.23635 13.564 8.21655 13.4241 8.21457C13.3508 8.21325 13.2465 8.19741 13.2168 8.28519C13.1924 8.35779 13.2815 8.40135 13.3284 8.44953C13.8115 8.94716 14.2939 9.44545 14.7816 9.93912C15.332 10.4955 15.6013 11.1528 15.5267 11.9402C15.4805 12.4266 15.3076 12.8655 14.9783 13.2252C14.4391 13.8145 13.8696 14.3762 13.2749 14.9095C12.2876 15.7952 10.808 15.6968 9.85232 14.6686C9.39232 14.1736 8.90923 13.6997 8.43471 13.2179C8.38785 13.1704 8.34495 13.0806 8.26972 13.1084C8.18128 13.142 8.20636 13.2437 8.20702 13.3189C8.2255 16.0354 10.1863 18.1302 12.6579 18.4575C13.0875 18.5143 13.5165 18.5011 13.9461 18.4971C15.1123 18.4866 16.1187 18.8885 16.9411 19.7036C17.8762 20.6302 18.7824 21.5872 19.701 22.531C20.2218 23.0656 20.7412 23.6015 21.2619 24.1361C21.4519 24.3308 21.5991 24.5472 21.5622 24.8343C21.5272 25.1069 21.3853 25.3155 21.1206 25.4085C20.8329 25.5095 20.5636 25.4613 20.3445 25.2376C19.835 24.7168 19.3288 24.1922 18.8206 23.6695C17.896 22.7191 16.9688 21.7713 16.0468 20.819C15.4515 20.2039 14.7374 19.8963 13.8762 19.9353C12.644 19.9907 11.4567 19.7947 10.3612 19.2086C8.36937 18.1434 7.19991 16.4855 6.85012 14.2501C6.77621 13.7776 6.79139 13.3044 6.81118 12.8312C6.83494 12.2471 7.09893 11.7976 7.65925 11.5805C8.21098 11.366 8.71784 11.4835 9.1389 11.8973C9.62133 12.3712 10.0886 12.8602 10.5618 13.3427C10.7096 13.4931 10.8495 13.6509 11.0046 13.7934C11.4329 14.1881 11.9801 14.1881 12.3998 13.7855C12.875 13.3295 13.3436 12.8668 13.8055 12.3976C14.2339 11.9633 14.2365 11.434 13.8128 10.9938C13.2162 10.3734 12.6057 9.76686 12.0111 9.14515C11.4336 8.54193 11.4362 7.71034 12.0032 7.16916C12.25 6.93354 12.5496 6.82068 12.8842 6.8055C15.3228 6.69331 17.2869 7.60211 18.7315 9.57414C19.4357 10.5357 19.8179 11.6287 19.9089 12.8239C19.9367 13.1843 19.9353 13.54 19.9103 13.9003C19.8495 14.7893 20.1386 15.553 20.7649 16.1938C22.164 17.626 23.5553 19.0647 24.9524 20.4989C25.1431 20.6949 25.2943 20.9061 25.2633 21.1932C25.2336 21.4658 25.0996 21.677 24.8356 21.7779C24.5479 21.8875 24.2779 21.8426 24.0575 21.6228C23.6529 21.2202 23.2543 20.8117 22.857 20.4019C21.8479 19.3624 20.8467 18.315 19.8297 17.2834C19.0061 16.4486 18.5177 15.4718 18.4834 14.2871C18.4788 14.1208 18.4827 13.9545 18.4827 13.7875L18.4834 13.7888Z" fill="#80AECF"/>
</g>
<defs>
<clipPath id="clip0_1405_6557">
<rect width="27" height="27" fill="white" transform="translate(0 -0.000244141)"/>
</clipPath>
</defs>
</svg>
