<svg width="40" height="36" viewBox="0 0 40 36" fill="none" xmlns="http://www.w3.org/2000/svg">
<g clip-path="url(#clip0_1804_24545)">
<path d="M6.1 35.7655C5.1 35.7655 4.28281 35.7639 3.52734 35.76C2.09844 35.7522 0.842188 34.8471 0.400781 33.5078C0.35625 33.3716 0.317969 33.2277 0.280469 33.0877L0.278125 33.0791C0.263281 33.0243 0.249219 32.9695 0.234375 32.9148V15.6235C0.235938 15.6196 0.2375 15.6149 0.239062 15.611C0.257812 15.5649 0.278906 15.5132 0.29375 15.453C0.7 13.7468 1.93516 12.7658 3.68203 12.7627C4.06953 12.7627 4.45781 12.7619 4.84531 12.7619H7.32266V6.81716H6.64766C6.16016 6.81716 5.67266 6.81481 5.18516 6.81325C4.69688 6.8109 4.20859 6.80933 3.72109 6.80933C2.88281 6.80933 2.19922 6.81559 1.56875 6.82889C1.54688 6.82889 1.52422 6.82889 1.50313 6.82889C0.857031 6.82889 0.475 6.62158 0.235156 6.13812V0.924072C0.477344 0.435133 0.866406 0.234863 1.56875 0.234863C7.67266 0.241904 13.8828 0.245816 20.0273 0.245816C26.1719 0.245816 32.3063 0.241904 38.4281 0.234863C39.1352 0.234863 39.5258 0.435133 39.7664 0.924072V6.13812C39.5281 6.62158 39.1469 6.82889 38.4977 6.82889C38.4766 6.82889 38.4547 6.82889 38.4328 6.82889C37.7953 6.81638 37.1055 6.81012 36.2625 6.81012C35.7711 6.81012 35.2789 6.81168 34.7875 6.81403C34.2938 6.81559 33.8039 6.81794 33.3148 6.81794H32.6781V12.7634H33.3813C33.7008 12.7634 34.0211 12.7611 34.3414 12.758C34.6602 12.7556 34.9789 12.7525 35.2977 12.7525C35.7797 12.7525 36.1758 12.7587 36.5453 12.772C37.9258 12.8213 38.9219 13.5004 39.5078 14.7888C39.5875 14.9641 39.6422 15.1643 39.6953 15.3576C39.7188 15.4436 39.7422 15.5297 39.768 15.6149V32.8874C39.7523 32.9156 39.7359 32.9508 39.725 32.993C39.2336 34.883 38.1023 35.7631 36.1633 35.7631H9.77266C9.16016 35.7631 8.54844 35.7631 7.93594 35.7647H7.74844C7.19922 35.7647 6.64922 35.7663 6.1 35.7663V35.7655ZM24.157 33.8621L24.3797 33.8731C24.4141 33.8747 24.443 33.8762 24.4695 33.8778C24.5352 33.8817 24.5813 33.884 24.6273 33.884C24.6273 33.884 29.7328 33.8848 31.1617 33.8848C32.9016 33.8848 34.6406 33.8848 36.3797 33.8833C37.325 33.8833 37.8899 33.2942 37.8899 32.3085C37.8906 26.9521 37.8906 21.5956 37.8899 16.2384C37.8899 15.1925 37.3352 14.6394 36.2859 14.6394C34.482 14.6394 24.8063 14.6394 24.8063 14.6394H24.1555V33.8614L24.157 33.8621ZM3.71563 14.6402C2.66563 14.6402 2.11094 15.1925 2.11016 16.2376C2.11016 21.5816 2.11016 26.9255 2.11016 32.2694C2.11016 33.3411 2.65781 33.884 3.7375 33.8848H10.8039C14.4102 33.8848 18.0148 33.8848 21.6211 33.8848C21.7117 33.8848 21.7992 33.8801 21.8914 33.8747C21.9367 33.8723 21.9805 33.87 22.025 33.8676L22.2484 33.8574V14.6402H13.3148C10.1141 14.6402 6.91406 14.6402 3.71406 14.6402H3.71563ZM9.25 12.7431H30.7633V6.84376H9.25V12.7431ZM2.14063 4.92086H37.8719V2.14838H2.14063V4.92007V4.92086Z" fill="white"/>
<path d="M8.87104 30.7368C8.32729 30.7368 7.95385 30.3245 7.94057 29.7104C7.93588 29.5132 7.93744 29.3177 7.93822 29.0924C7.93822 28.9836 7.939 28.8694 7.939 28.7474V28.5127H7.12963C7.02025 28.5134 6.91166 28.5127 6.80307 28.5127C6.14916 28.5072 5.73432 28.1567 5.72104 27.5974C5.71479 27.3541 5.79682 27.1366 5.95697 26.9684C6.15307 26.7627 6.45229 26.6445 6.80072 26.6367C6.83354 26.6367 6.86713 26.6344 6.90072 26.6328H6.90854C6.94369 26.6304 6.97885 26.6289 7.014 26.6289C7.05072 26.6289 7.07963 26.6312 7.10463 26.6351C7.26557 26.6641 7.42338 26.6789 7.57338 26.6789C8.29447 26.6789 8.89994 26.3574 9.47963 25.6674C9.87416 25.1981 10.3304 24.7592 10.7718 24.3344C10.9765 24.1372 11.1843 23.9378 11.3851 23.7359C11.4453 23.6757 11.5007 23.6131 11.5718 23.5349C11.6132 23.4887 11.6546 23.4426 11.7046 23.3878L12.0632 22.9951H11.5312C11.3476 22.9951 11.1734 22.9967 11.0046 22.9982H10.9898C10.8382 22.9998 10.6921 23.0013 10.5484 23.0013C10.3328 23.0013 10.1554 22.9982 9.99057 22.9912C9.49447 22.9708 9.1101 22.6384 9.05541 22.1823C8.99916 21.7137 9.26322 21.2951 9.69682 21.1653C9.82494 21.1269 9.98197 21.123 10.1312 21.1223C10.3187 21.1223 10.5054 21.1215 10.6929 21.1215H11.8476C12.357 21.1223 12.9593 21.1215 13.5695 21.109C13.8226 21.1043 14.1156 20.9822 14.2976 20.8054C14.9195 20.2023 15.5398 19.5796 16.1398 18.9772C16.4304 18.6854 16.721 18.3936 17.0132 18.1033C17.221 17.8968 17.4484 17.792 17.689 17.792C17.796 17.792 17.9085 17.8123 18.0234 17.853C18.3921 17.9829 18.5937 18.2426 18.639 18.6478C18.6734 18.9537 18.5617 19.2158 18.2773 19.499C17.9476 19.8268 17.6203 20.1553 17.2921 20.4847C16.7648 21.0143 16.2203 21.5603 15.6788 22.0907C15.4265 22.338 15.3163 22.6008 15.321 22.9427C15.3359 23.9338 15.332 24.9415 15.3281 25.917L15.3265 26.3394C15.3242 26.9903 14.9742 27.3987 14.4124 27.4065H14.3953C13.8304 27.4065 13.4609 26.9872 13.4538 26.3379C13.4507 26.0359 13.4515 25.7285 13.4523 25.4312C13.4523 25.2911 13.4531 24.871 13.4531 24.871L13.082 24.6864L12.3374 25.4343C11.5703 26.2049 10.7765 27.0013 10.0007 27.7969C9.88822 27.9126 9.82728 28.0965 9.81947 28.3437C9.81244 28.5815 9.81322 28.8209 9.81479 29.0525C9.81557 29.2715 9.81713 29.4945 9.81166 29.7127C9.79604 30.3167 9.40932 30.7383 8.8726 30.7391L8.87104 30.7368Z" fill="#80AECF"/>
<path d="M31.0747 20.5088C30.0731 20.5088 29.0716 20.508 28.07 20.5064C27.7536 20.5064 27.4747 20.4 27.2856 20.2084C27.1177 20.0378 27.0302 19.8133 27.0333 19.5583C27.0388 19.024 27.4692 18.6336 28.0567 18.6313C28.4684 18.6297 28.8802 18.6289 29.2919 18.6289L31.1364 18.6305H32.9255C33.3169 18.6297 33.7075 18.6305 34.0989 18.6305C34.7278 18.6328 35.152 19.0068 35.1552 19.5622C35.1567 19.8172 35.0692 20.041 34.902 20.2092C34.713 20.4 34.4325 20.5049 34.113 20.5056C33.1005 20.5072 32.0872 20.508 31.0747 20.508V20.5088Z" fill="#80AECF"/>
<path d="M29.2911 25.2028C28.8927 25.2028 28.4934 25.2028 28.095 25.2013C27.4661 25.1989 27.0395 24.8257 27.0333 24.2727C27.0302 24.0184 27.1161 23.7962 27.2802 23.6296C27.4731 23.434 27.7677 23.3253 28.1091 23.3253C29.1036 23.3245 30.0973 23.3237 31.0919 23.3237C32.0864 23.3237 33.0802 23.3237 34.0747 23.3253C34.4192 23.3253 34.7153 23.4333 34.9083 23.6288C35.0716 23.7939 35.1575 24.0153 35.1552 24.2688C35.1513 24.8344 34.7216 25.2005 34.0598 25.202C33.6622 25.2028 33.2638 25.2028 32.8661 25.2028H31.0505H29.2911Z" fill="#80AECF"/>
<path d="M29.3243 29.8965C28.9196 29.8965 28.5141 29.8965 28.1094 29.8949C27.7665 29.8941 27.4719 29.7862 27.2782 29.5898C27.1141 29.424 27.029 29.2018 27.0313 28.9475C27.036 28.3929 27.4618 28.0189 28.0907 28.0182C29.0915 28.0166 30.0922 28.0166 31.093 28.0166C32.0938 28.0166 33.0946 28.0166 34.0954 28.0182C34.7243 28.0189 35.1493 28.3929 35.1532 28.9483C35.1555 29.2026 35.0696 29.424 34.9063 29.5898C34.7133 29.7854 34.4172 29.8933 34.0735 29.8941C33.6735 29.8949 33.2743 29.8957 32.8743 29.8957H31.1102H29.3227L29.3243 29.8965Z" fill="#80AECF"/>
</g>
<defs>
<clipPath id="clip0_1804_24545">
<rect width="40" height="36" fill="white"/>
</clipPath>
</defs>
</svg>
