<svg width="80" height="81" viewBox="0 0 80 81" fill="none" xmlns="http://www.w3.org/2000/svg">
<path d="M76.018 40.0729C76.068 36.5292 75.5682 33.126 74.55 29.7977C74.4094 29.3388 74.2626 28.8736 74.3344 28.3834C74.4594 27.5341 75.1528 26.8722 76.0087 26.7723C76.927 26.6662 77.6454 27.1001 78.0265 28.0306C78.6824 29.6416 79.0229 31.3463 79.3415 33.0448C80.1192 37.188 80.2098 41.3436 79.5914 45.5336C79.026 49.3489 77.7984 52.9363 76.3804 56.4925C75.2059 59.4398 73.3599 61.9376 71.5732 64.5134C70.2207 66.4617 68.4247 67.926 66.8192 69.5995C65.6229 70.8483 64.2111 71.7756 62.8023 72.7529C60.4566 74.3827 58.0515 75.9219 55.3902 76.9085C52.6446 77.9264 49.8428 78.8131 46.941 79.3626C40.2723 80.6271 33.7816 79.9558 27.3627 77.892C23.7363 76.7274 20.4066 75.0165 17.2612 72.8996C15.3465 71.6102 13.5973 70.1177 11.9606 68.5036C10.2457 66.8113 8.6621 64.9911 7.33148 62.9742C5.16374 59.6896 3.05536 56.3301 2.00273 52.5117C0.60963 47.4444 -0.402396 42.3084 0.156717 36.9788C0.453453 34.1469 1.0438 31.3963 1.71224 28.6394C2.52748 25.2893 4.04552 22.2764 5.83843 19.3758C6.70677 17.9708 7.55637 16.5534 8.58402 15.2483C9.418 14.1899 10.4706 13.3375 11.2828 12.276C12.0761 11.2394 13.0288 10.3777 14.0408 9.594C16.4741 7.71132 18.9011 5.74745 21.6997 4.48297C24.7264 3.11544 27.8094 1.84159 31.0922 1.07353C34.4906 0.274247 37.9015 -0.103538 41.3686 0.0244718C44.9389 0.155604 48.4403 0.748821 51.8262 1.92901C52.9382 2.31616 53.5473 3.35898 53.2506 4.29251C52.982 5.13238 52.073 6.04094 50.6955 5.61008C49.2181 5.14487 47.7219 4.71089 46.1914 4.52043C43.4208 4.17699 40.6284 4.14265 37.8328 4.18948C34.2033 4.25192 30.6955 4.93881 27.3408 6.30008C23.7831 7.74254 20.3379 9.44101 17.4049 11.9637C15.4808 13.6185 13.5504 15.3045 11.9887 17.3277C10.0614 19.8317 8.24355 22.4387 7.04724 25.3704C4.89512 30.647 3.62697 36.1139 4.02678 41.8806C4.29853 45.799 5.1981 49.5456 6.51624 53.2548C7.63134 56.3988 9.34616 59.1276 11.289 61.7503C14.0127 65.4282 17.3487 68.4661 21.2906 70.7984C25.8947 73.5241 30.8205 75.2756 36.1805 75.8438C41.1687 76.3746 46.0258 75.9094 50.7799 74.3639C54.3095 73.2181 57.711 71.7382 60.6908 69.4995C62.5025 68.1414 64.4172 66.8519 65.8697 65.0816C67.6126 62.9554 69.5898 61.0165 70.9235 58.5625C73.1569 54.4537 74.8998 50.17 75.637 45.5336C75.9274 43.7102 76.093 41.8588 76.018 40.0635V40.0729Z" fill="white"/>
<path d="M39.9447 67.7107C36.8774 67.5577 34.5816 67.4172 32.367 66.7053C29.6527 65.8311 27.0789 64.6697 24.7456 63.0149C24.2021 62.6309 23.5836 62.3905 23.0495 61.9783C21.7501 60.973 20.6631 59.7522 19.5512 58.5627C15.5468 54.2946 13.301 49.1961 12.4451 43.4387C11.708 38.4776 12.467 33.7225 14.4161 29.1516C15.1157 27.5093 15.9716 25.917 16.9211 24.4027C17.6708 23.21 18.6204 22.1329 19.5699 21.0807C21.4128 19.0388 23.5712 17.3747 25.9263 15.9572C30.7178 13.0692 35.9247 11.8671 41.4878 12.1044C41.7782 12.1169 42.0719 12.1762 42.3467 12.2636C43.4119 12.5977 44.0709 13.6187 43.8804 14.599C43.6961 15.5482 42.7403 16.2288 41.6158 16.1008C39.0452 15.8073 36.5338 16.1445 34.0537 16.7752C32.6513 17.1311 31.3456 17.7649 29.9994 18.2863C27.1757 19.376 24.9393 21.2587 22.8777 23.3786C19.7917 26.5508 17.6146 30.3162 16.7618 34.6342C16.1777 37.5784 16.1965 40.6225 16.5619 43.676C16.9243 46.6921 18.005 49.3865 19.4762 51.928C20.6631 53.9762 22.0469 55.9494 23.9022 57.4949C26.2699 59.4681 28.7156 61.407 31.6892 62.3343C35.0377 63.3771 38.4892 64.0171 42.0437 63.6706C44.8518 63.3958 47.588 62.8338 50.1524 61.6255C52.0516 60.7326 53.7601 59.5274 55.4218 58.2442C57.4365 56.6862 58.9452 54.6786 60.457 52.6773C61.2878 51.5814 61.6377 50.2264 62.1843 48.9838C63.6711 45.5931 64.2833 42.0431 63.9366 38.3402C63.8273 37.1694 64.5676 36.2421 65.717 36.0391C66.5885 35.8862 67.5724 36.5918 67.7754 37.6689C68.1253 39.5298 68.0284 41.4062 67.7567 43.2701C67.335 46.1613 66.7228 49.0212 65.4546 51.6564C64.3895 53.87 63.0058 55.8963 61.4315 57.8258C58.4267 61.5069 54.6378 64.0015 50.3555 65.8623C46.7853 67.411 43.0058 67.6888 39.951 67.7138L39.9447 67.7107Z" fill="white"/>
<path d="M58.4925 28.0306C57.6867 28.0306 56.8746 28.0993 56.0749 28.0119C55.116 27.9088 54.4445 28.3397 53.826 28.9641C52.7328 30.0663 51.6458 31.1715 50.6056 32.3236C49.5842 33.457 48.2755 34.3125 47.3103 35.4989C45.533 37.6875 43.1872 39.3111 41.4006 41.4904C40.8258 42.1898 39.4171 42.0742 38.6956 41.3561C37.9022 40.5693 37.8147 39.1519 38.6675 38.4681C40.2886 37.1661 41.4911 35.4677 43.0217 34.0908C44.0368 33.176 45.1113 32.3111 45.9765 31.2621C47.4633 29.4543 49.3312 28.04 50.9273 26.3477C51.6208 25.614 52.0956 24.8709 52.0143 23.7501C51.8956 22.1203 52.0143 20.4718 51.9862 18.8326C51.9675 17.7086 52.3454 16.8157 53.1888 16.0601C54.104 15.2421 55.0161 14.4022 55.8594 13.5155C56.9308 12.3915 58.0147 11.2769 59.1048 10.1748C60.8883 8.37014 62.6875 6.578 64.4835 4.77962C65.2488 4.01156 66.1796 4.04278 67.0792 4.39247C67.7851 4.6641 67.9506 5.36347 67.9537 6.06596C67.9631 7.81439 67.9787 9.5597 67.9412 11.3081C67.9288 11.9138 68.1037 12.0949 68.7128 12.0793C70.4588 12.0356 72.2049 12.0294 73.9509 12.0668C75.2722 12.0949 76.0749 12.9535 75.9968 14.1368C75.9594 14.7176 75.6439 15.1484 75.2503 15.52C73.9697 16.7376 72.6984 17.9709 71.4552 19.2198C70.1558 20.5248 68.8627 21.8518 67.5789 23.1818C66.3014 24.5056 64.9676 25.7764 63.6901 27.1002C63.0435 27.7715 62.2845 28.04 61.3849 28.0337C60.4198 28.0275 59.4515 28.0337 58.4863 28.0337L58.4925 28.0306ZM64.0556 10.7805C63.6807 11.1364 63.4621 11.3237 63.2653 11.5298C62.5313 12.3041 61.8347 13.144 61.057 13.8433C59.5577 15.1921 58.2114 16.6814 56.7434 18.0552C56.381 18.3924 56.1218 18.7795 56.128 19.3072C56.1405 20.6497 56.153 21.9954 56.1343 23.3379C56.128 23.7657 56.2717 23.8937 56.6903 23.8874C57.9272 23.8656 59.1641 23.8469 60.3979 23.8968C61.0695 23.9218 61.5599 23.7126 62.0253 23.238C63.9275 21.3023 65.8516 19.3915 67.7851 17.4869C68.2317 17.0467 68.7471 16.6752 69.2313 16.2693C69.1657 16.1663 69.097 16.0632 69.0314 15.9633C68.0787 15.9633 67.126 15.9758 66.1702 15.9602C64.8864 15.9383 64.0681 15.1047 64.0618 13.8246C64.0556 12.8911 64.0618 11.9544 64.0618 10.7805H64.0556Z" fill="white"/>
<path d="M38.5173 55.8025C36.8088 55.7244 33.9663 54.7878 31.302 53.0831C27.2164 50.4698 25.1798 46.6357 24.3958 42.0242C23.8086 38.5773 24.502 35.3303 26.2012 32.283C29.1748 26.9503 33.7914 24.2933 39.8042 23.8874C41.3597 23.7813 42.0094 24.7117 42.0532 25.9168C42.0938 27.0502 41.4691 28.0743 39.8105 28.0587C36.84 28.0337 34.2006 28.986 32.0703 31.056C25.286 37.65 27.8598 47.3601 35.2626 50.7976C38.6266 52.3587 42.0469 52.3368 45.3173 50.6384C47.713 49.3957 49.837 47.7191 50.924 45.109C51.505 43.7102 51.9017 42.2365 51.9673 40.7004C51.986 40.2727 52.036 39.8543 52.1047 39.4297C52.289 38.2932 53.1448 37.9748 54.1725 37.9685C55.3594 37.9591 56.1372 38.6897 56.1247 39.7638C56.0935 42.7892 55.3688 45.6304 53.7165 48.2124C52.9606 49.3926 52.0297 50.4261 51.1427 51.4939C50.4773 52.2963 49.534 52.7896 48.6345 53.3235C45.9513 54.9189 43.0996 55.8649 38.5204 55.7994L38.5173 55.8025Z" fill="white"/>
</svg>
