<svg width="51" height="51" viewBox="0 0 51 51" fill="none" xmlns="http://www.w3.org/2000/svg">
<path d="M20.0715 51V46.1589L14.724 43.9741L11.4246 47.3053L3.58572 39.7845L7.16329 36.2599C7.04204 36.0002 6.92078 35.7457 6.80156 35.4942C6.45715 34.7683 6.13109 34.0821 5.83457 33.3735C5.52073 32.6242 5.28942 31.8545 5.0785 31.1306C5.01634 30.9179 4.98883 30.9056 4.80338 30.9056H4.78504C4.18385 30.9148 3.54904 30.9189 2.72572 30.9189C2.32833 30.9189 1.92991 30.9189 1.52946 30.9168C1.12493 30.9168 0.717348 30.9148 0.306707 30.9148H0V20.1168H4.81663L6.99618 14.8053L3.60203 11.472L11.2198 3.70285L14.7658 7.24892C16.4786 6.29902 18.1946 5.5833 20.0012 5.06712C20.0328 5.02537 20.0705 4.93782 20.0715 4.89811C20.0949 3.32921 20.0959 2.05657 20.0735 0.893897C20.0684 0.646498 20.0898 0.391971 20.2692 0.208712C20.4505 0.0244346 20.7104 0 20.9172 0H20.9345C22.249 0.0101811 23.6552 0.0142535 25.4934 0.0142535C26.2607 0.0142535 27.0279 0.0142535 27.7942 0.0132354C28.5472 0.0132354 29.3002 0.0122173 30.0542 0.0122173H30.9244V4.95207L36.1955 7.1186L39.6763 3.72118L39.8903 3.92378C40.089 4.11111 40.2866 4.29437 40.4823 4.4756C40.9673 4.92458 41.4269 5.34913 41.863 5.81542C42.2481 6.22572 42.2064 6.81724 41.7631 7.25299C41.5349 7.47697 41.2689 7.59507 40.9938 7.59507C40.7543 7.59507 40.522 7.50853 40.3019 7.33749C40.1216 7.19598 39.9585 7.03512 39.8139 6.89054C39.608 7.08908 39.4022 7.28761 39.1964 7.48512C38.5055 8.14892 37.7912 8.83513 37.1146 9.52744C36.9546 9.69135 36.7335 9.87869 36.4319 9.87869C36.2505 9.87869 36.0692 9.81353 35.844 9.6659C33.7704 8.31284 31.4574 7.40062 28.967 6.9557L28.7153 6.91091V2.26121C28.6501 2.25511 28.59 2.25103 28.534 2.25103H27.9674C27.5456 2.25103 25.8582 2.25205 25.4353 2.25205C24.6344 2.25205 23.5798 2.25103 22.517 2.23983H22.5017C22.3968 2.23983 22.3509 2.25103 22.3336 2.25714C22.3275 2.27547 22.3152 2.32637 22.3183 2.45058C22.3315 3.205 22.3305 3.97163 22.3285 4.71281C22.3285 5.19642 22.3264 5.68002 22.3295 6.16463C22.3305 6.37233 22.3336 6.85796 21.7436 6.97708C19.3317 7.46272 17.0411 8.41363 14.7403 9.8848L14.5324 10.0182L11.3594 6.82131L6.87289 11.3865L10.0082 14.4948L9.86354 14.7045C8.29536 16.98 7.30085 19.3909 6.82092 22.0756L6.77609 22.3271H2.23968V28.6801C2.51887 28.6801 2.79603 28.6831 3.07319 28.6841C3.44816 28.6862 3.82212 28.6892 4.19506 28.6892C4.8421 28.6892 5.3689 28.6811 5.85291 28.6648C5.88348 28.6638 5.91201 28.6628 5.94054 28.6628C6.55294 28.6628 6.86983 28.9325 6.99924 29.5628C7.44249 31.715 8.3188 33.8307 9.60167 35.8526C9.90328 36.3271 9.85641 36.6834 9.43965 37.0815C8.74574 37.7443 8.07934 38.4121 7.3732 39.1187C7.17654 39.3162 6.97886 39.5137 6.77914 39.7133L11.3257 44.0423L14.3918 40.9594L14.6017 41.103C16.9249 42.6872 19.3531 43.6859 22.0238 44.1553L22.2765 44.2001V48.7704H28.642V47.9813V47.1383C28.642 46.3992 28.644 45.6336 28.6389 44.8822C28.6379 44.6837 28.6348 44.2204 29.2014 44.1054C31.6459 43.6086 33.9609 42.6464 36.2781 41.1661L36.4859 41.0338L39.6376 44.196L44.1353 39.7082L40.9541 36.548L41.0977 36.3383C42.6649 34.0434 43.6523 31.6407 44.1149 28.9926L44.1587 28.7401H48.7512V22.3607H44.1872L44.1383 22.1143C43.6217 19.4927 42.6384 17.0879 41.1334 14.7615L40.9989 14.5528L44.2331 11.3519C44.1801 11.2908 44.1332 11.2358 44.0874 11.1808C43.6716 10.681 43.6788 10.0558 44.1057 9.62721C44.3177 9.41443 44.5958 9.29735 44.8873 9.29735C45.1787 9.29735 45.4528 9.41138 45.6749 9.62009C46.0224 9.94486 46.3535 10.2768 46.703 10.628C46.8538 10.7787 47.0057 10.9324 47.1626 11.0882L47.3806 11.304L44.2351 14.4408C44.0823 14.5935 43.8927 14.7829 43.8764 14.8511C43.8652 14.898 43.9417 15.071 44.0222 15.2533L44.0813 15.3887C44.552 16.4719 44.9973 17.5847 45.4283 18.6609C45.5812 19.0416 45.733 19.4234 45.8869 19.8042C45.9276 19.906 45.9592 20.0099 45.9877 20.1107H50.9959V30.9504H46.0988L45.8359 31.6081C45.3682 32.7769 44.9188 33.8999 44.4685 35.0229C44.4379 35.0982 44.4012 35.1684 44.3686 35.2295C44.3533 35.258 44.338 35.2876 44.3238 35.3161C44.2606 35.4444 44.1821 35.5706 44.1057 35.6928C43.9906 35.8771 43.8326 36.1285 43.853 36.2446C43.8764 36.379 44.1057 36.5704 44.2901 36.7241C44.3961 36.8117 44.5051 36.9033 44.6019 37C45.2001 37.5977 45.7992 38.1943 46.3851 38.7766L47.3012 39.6878L39.6529 47.3185L36.22 43.8427C36.0457 43.9303 35.8745 44.0178 35.7064 44.1044C35.1908 44.3681 34.7048 44.6175 34.1902 44.8262C33.1488 45.2487 32.0962 45.6081 31.1129 45.9339C30.8796 46.0113 30.8704 46.0388 30.8735 46.2302C30.8908 47.3063 30.8878 48.3601 30.8857 49.4749C30.8857 49.8791 30.8837 50.2863 30.8837 50.6966V51.002H20.0684L20.0715 51Z" fill="white"/>
<path d="M25.4894 40.1623C21.975 40.1623 18.5534 38.8713 15.8541 36.5266C13.1254 34.1564 11.3911 30.9209 10.9703 27.4135C10.9203 26.9941 10.8898 26.5685 10.8602 26.1572C10.847 25.9658 10.8327 25.7734 10.8174 25.582V25.5697L10.8164 25.5565C10.8225 22.0685 12.083 18.6823 14.3665 16.023C16.6551 13.3576 19.8138 11.6054 23.262 11.0892C24.0435 10.9721 24.8241 10.9131 25.5832 10.9131C28.3374 10.9131 30.9541 11.6879 33.3599 13.2171C33.5382 13.3301 33.957 13.6355 33.9998 14.0234C34.0406 14.3909 33.8938 14.847 33.6493 15.1077C33.471 15.2991 33.2417 15.3999 32.987 15.3999C32.7495 15.3999 32.4968 15.3133 32.2339 15.1443C31.002 14.3472 29.6213 13.7719 28.1296 13.4349C27.2614 13.2384 26.3719 13.1397 25.4843 13.1397C22.5416 13.1397 19.6651 14.2189 17.3836 16.1797C15.0685 18.1691 13.5829 20.8966 13.2008 23.8593C12.3306 30.6002 16.8976 36.7139 23.5982 37.7779C24.231 37.8786 24.874 37.9296 25.5119 37.9296C28.4933 37.9296 31.3902 36.83 33.6697 34.8335C35.9735 32.8156 37.4408 30.0504 37.8005 27.048C38.1388 24.2258 37.5692 21.5523 36.108 19.1017L36.0724 19.0427C36.0377 18.9856 36.0031 18.9286 35.9715 18.8696C35.6485 18.2658 35.7891 17.6387 36.322 17.3109C36.5115 17.1938 36.7235 17.1317 36.9344 17.1317C37.343 17.1317 37.6996 17.3628 37.8892 17.7507C38.0196 18.0184 38.1551 18.2862 38.2906 18.553C38.7665 19.4937 39.2587 20.467 39.5572 21.4922C40.729 25.53 40.0993 29.8743 37.8291 33.4102C35.5405 36.9756 31.8141 39.3793 27.6048 40.0055C26.9058 40.1093 26.1935 40.1623 25.4894 40.1623Z" fill="#80AECF"/>
<path d="M20.9821 28.3095C19.5658 27.0155 18.1005 25.6777 16.6729 24.3633C16.1777 23.9072 16.1258 23.2332 16.5507 22.7608C16.7687 22.5185 17.054 22.3851 17.3556 22.3851C17.6573 22.3851 17.9426 22.5094 18.2024 22.7435C19.2142 23.6588 20.2383 24.5944 21.2287 25.4985C21.6495 25.8823 22.0704 26.2672 22.4912 26.651C22.5554 26.709 22.6196 26.7671 22.6879 26.8282C22.7429 26.7783 22.7969 26.7294 22.8468 26.6795C29.9459 19.6261 37.043 12.5716 44.1411 5.51716C44.565 5.09566 44.9277 4.89917 45.2813 4.89917C45.5442 4.89917 45.7887 5.01014 46.0088 5.22904C46.232 5.45098 46.3441 5.69737 46.3441 5.96207C46.3441 6.31637 46.1484 6.67577 45.7296 7.09217C38.2596 14.5172 30.7886 21.9423 23.3176 29.3673C23.2442 29.4406 23.1678 29.5119 23.0802 29.5923C23.0384 29.632 22.9936 29.6738 22.9446 29.7196L22.7378 29.914L20.9821 28.3095Z" fill="#80AECF"/>
</svg>
