<svg width="51" height="51" viewBox="0 0 51 51" fill="none" xmlns="http://www.w3.org/2000/svg">
<g clip-path="url(#clip0_2307_1323)">
<path d="M0 33.3538V31.1602H6.70809V28.9611C6.70809 27.3607 6.70809 25.7617 6.70809 24.1613C6.70809 23.1443 7.10219 22.747 8.11058 22.747C9.11476 22.747 10.1203 22.747 11.1245 22.747C12.1287 22.747 13.217 22.747 14.2647 22.747C15.2857 22.747 15.684 23.1401 15.684 24.1459C15.684 25.7435 15.684 27.3411 15.684 28.9387V31.1183H21.0148V18.3571C21.0148 17.2309 21.3767 16.8686 22.5029 16.8686H25.7749C26.7188 16.8686 27.6612 16.8686 28.6051 16.8686C29.5911 16.8686 29.9922 17.2687 29.9922 18.2466C29.9922 21.3494 29.9922 24.4523 29.9922 27.5552V31.1421C29.9922 31.1421 34.0748 31.1421 35.3006 31.1421C35.3076 31.1421 35.316 31.1421 35.323 31.1421V12.5011C35.323 11.3428 35.6778 10.9902 36.8405 10.9902H40.1518C41.0648 10.9902 41.9764 10.9902 42.8894 10.9902C43.9048 10.9902 44.3003 11.3861 44.3003 12.3976C44.3003 16.863 44.3003 21.3285 44.3003 25.7925V31.1155H50.9986V33.3524H0V33.3538ZM42.0353 31.1155V13.2677H37.6105V31.1155H42.0353ZM13.419 31.1155V25.0245H8.99554V31.1155H13.419ZM27.7229 31.1029V19.1321H23.2967V31.1029H27.7229Z" fill="white"/>
<path d="M29.4041 50.9999C28.4742 50.9999 27.6748 50.4949 27.2134 49.6164C27.0577 49.3198 26.8978 49.2191 26.5823 49.2191C26.5598 49.2191 26.536 49.2191 26.5122 49.2205C26.198 49.2344 25.8754 49.2414 25.5262 49.2414C25.177 49.2414 24.8039 49.2344 24.3888 49.2205C24.3734 49.2205 24.3579 49.2205 24.3425 49.2205C24.076 49.2205 23.933 49.3072 23.7984 49.5506C23.2822 50.4823 22.4856 50.9957 21.5544 50.9957C21.1897 50.9957 20.8083 50.9174 20.4212 50.7635C19.5881 50.4319 18.7298 50.078 17.7957 49.6807C16.4115 49.0932 15.8294 47.8859 16.239 46.4519C16.3245 46.1526 16.2726 45.9777 16.037 45.7567C15.5531 45.3062 15.0398 44.7914 14.4704 44.1815C14.3049 44.0038 14.1759 43.98 14.0721 43.98C14.0076 43.98 13.9375 43.9912 13.8561 44.0136C13.5237 44.1059 13.204 44.1521 12.9066 44.1521C11.8253 44.1521 11.0007 43.5463 10.5196 42.4006L10.4775 42.3013C10.1381 41.4927 9.78892 40.6575 9.45934 39.8279C8.91377 38.4528 9.36537 37.2091 10.6697 36.504C10.9544 36.3501 11.0357 36.1977 10.9965 35.8997C10.9614 35.6423 10.9544 35.3905 10.9474 35.1247C10.9446 35.0114 10.9418 34.8952 10.9362 34.7777L10.9221 34.4854H13.0231L13.0778 34.6952C13.5406 36.4663 13.0329 37.826 11.6865 38.4248C11.507 38.5045 11.3429 38.6332 11.4845 38.9788C11.8366 39.8447 12.218 40.7526 12.6163 41.6787C12.7229 41.9249 12.8519 41.925 12.9066 41.925C12.9571 41.925 13.0146 41.9138 13.0778 41.8928C13.4214 41.7767 13.7566 41.7179 14.0735 41.7179C14.8771 41.7179 15.6036 42.0942 16.2347 42.8371C16.5882 43.2526 17.0061 43.6359 17.4114 44.0066L17.5545 44.1381C18.4465 44.9579 18.7185 45.9147 18.3651 46.9849C18.2473 47.3431 18.316 47.4942 18.661 47.6313C19.4773 47.9572 20.3034 48.2986 21.1883 48.6721C21.2935 48.7168 21.3847 48.7392 21.459 48.7392C21.5249 48.7392 21.6624 48.7392 21.8166 48.4342C22.3089 47.4676 23.1181 46.9779 24.2233 46.9779C24.2626 46.9779 24.3018 46.9779 24.3425 46.9793C24.703 46.9905 25.0732 46.9961 25.4449 46.9961C25.8165 46.9961 26.2008 46.9905 26.5851 46.9793C26.623 46.9793 26.6608 46.9779 26.6987 46.9779C27.8095 46.9779 28.6215 47.4676 29.111 48.4356C29.2751 48.7602 29.4167 48.7602 29.4854 48.7602C29.564 48.7602 29.6621 48.735 29.7757 48.6875C30.2694 48.4762 30.7743 48.2734 31.2624 48.0761C31.6102 47.9362 31.9566 47.7963 32.303 47.6522C32.7069 47.4844 32.7322 47.4312 32.6046 47.0143C32.275 45.9357 32.5302 44.99 33.3605 44.2052C33.8696 43.724 34.3871 43.2064 34.9439 42.6202C35.5063 42.0271 36.1571 41.7277 36.8793 41.7277C37.1598 41.7277 37.4572 41.7739 37.7601 41.8648C37.9074 41.9096 38.0168 41.9305 38.0925 41.9305C38.1738 41.9305 38.251 41.9305 38.4052 41.5682C38.5763 41.1667 38.7432 40.7638 38.9115 40.3609C39.0925 39.9245 39.2734 39.4894 39.4599 39.0557C39.5917 38.7493 39.5413 38.5997 39.2622 38.4598C38.15 37.9072 37.6395 36.9769 37.7475 35.6968C37.7643 35.4996 37.7755 35.3023 37.7867 35.0981C37.7924 35.0002 37.798 34.8994 37.805 34.7973L37.8218 34.5343H39.983V34.8141C39.983 34.9358 39.9774 35.0575 39.9732 35.1792C39.962 35.4366 39.9522 35.6801 39.9971 35.8997C40.0447 36.1305 40.1822 36.3781 40.3042 36.4509C41.6941 37.2776 42.112 38.4905 41.5117 39.9594C41.1443 40.859 40.8091 41.6675 40.4879 42.43C40.0195 43.5449 39.171 44.1605 38.0995 44.1605C37.8078 44.1605 37.4978 44.1143 37.1809 44.0234C37.0967 43.9996 37.0224 43.987 36.9551 43.987C36.8471 43.987 36.7124 44.0136 36.5203 44.208C36.0112 44.7242 35.4572 45.2461 34.8261 45.8028C34.6255 45.9805 34.5793 46.1372 34.6536 46.403C35.0799 47.9376 34.5077 49.1211 33.0421 49.7339C32.2161 50.0794 31.3367 50.4459 30.4644 50.7915C30.1095 50.9314 29.7519 51.0027 29.4027 51.0027L29.4041 50.9999Z" fill="white"/>
<path d="M3.64648 18.3975L42.32 2.91674L39.9582 2.21167L40.6062 -0.00146484L40.8783 0.082472C41.3706 0.234957 41.86 0.386043 42.3481 0.534332C43.5991 0.919042 44.78 1.28137 45.9847 1.66608C46.3704 1.78919 46.6495 2.02701 46.7729 2.33618C46.8949 2.64394 46.8557 3.00487 46.6621 3.35461C46.0563 4.44579 45.4518 5.51038 44.8123 6.63654C44.5612 7.0786 44.3074 7.52487 44.0521 7.97673L43.9147 8.22014L41.9624 7.12057L43.1559 4.97739L4.48798 20.4679L3.64648 18.3961V18.3975Z" fill="#80AECF"/>
<path d="M25.6075 44.3396C24.1587 44.3396 22.6679 43.9703 21.177 43.2414C17.9948 41.6858 15.8602 38.2108 15.9878 34.7932L15.9977 34.5232H18.1771L18.1883 34.7918C18.2851 37.1896 19.243 39.1173 21.0354 40.5219C22.3369 41.5417 23.8474 42.0579 25.5262 42.0579C25.6341 42.0579 25.7407 42.0565 25.8501 42.0523C27.5121 41.9894 29.1909 41.2857 30.4545 40.1246C31.4727 39.1887 32.7153 37.5043 32.8499 34.7932L32.8626 34.5274H35.056L35.0476 34.8156C34.9565 38.001 33.7012 40.5205 31.3142 42.3055C29.5078 43.6569 27.5864 44.341 25.6061 44.341L25.6075 44.3396Z" fill="#80AECF"/>
</g>
<defs>
<clipPath id="clip0_2307_1323">
<rect width="51" height="51" fill="white"/>
</clipPath>
</defs>
</svg>
