<svg width="23" height="19" viewBox="0 0 23 19" fill="none" xmlns="http://www.w3.org/2000/svg">
<g clip-path="url(#clip0_160_975)">
<path d="M1.82409 5.08147C2.20396 5.08147 2.58274 5.08659 2.96261 5.07943C3.23254 5.07431 3.43173 5.17567 3.57649 5.38556C4.06847 6.09818 4.58766 6.79339 5.06331 7.51624C5.121 7.6043 5.18522 7.63706 5.29189 7.63399C6.28891 7.60634 7.28701 7.58587 8.28512 7.57153C8.63669 7.56641 8.98935 7.55413 9.34092 7.55208C9.49765 7.55208 9.50418 7.54593 9.45085 7.41078C9.14935 6.64185 8.84241 5.87497 8.54199 5.10605C8.03913 3.81904 7.53953 2.52998 7.03776 1.24195C6.97572 1.08223 6.9017 0.926599 6.84402 0.765851C6.69816 0.35323 6.95068 0.00818546 7.41436 0.00920936C8.05002 0.00920938 8.68785 -0.035841 9.31915 0.0788328C10.339 0.264154 11.1434 0.760732 11.7018 1.5829C12.6237 2.93953 13.5282 4.3064 14.4414 5.66713C14.8147 6.22412 15.1957 6.77598 15.5712 7.33195C15.618 7.40157 15.6768 7.42819 15.7628 7.42512C16.5704 7.3944 17.3791 7.39338 18.1856 7.36881C18.6961 7.35345 19.2066 7.36266 19.716 7.34526C20.0502 7.33399 20.3843 7.32375 20.7174 7.32478C21.8461 7.32887 22.8061 8.11521 22.9716 9.16673C23.1762 10.4722 22.1998 11.5984 20.7957 11.6742C20.3081 11.7008 19.8216 11.6721 19.335 11.6537C19.2719 11.6517 19.2088 11.6496 19.1457 11.6506C18.3554 11.665 17.5652 11.624 16.775 11.6128C16.4594 11.6076 16.1426 11.6097 15.8281 11.5933C15.6789 11.5851 15.5951 11.6322 15.5146 11.7541C14.7886 12.8445 14.0539 13.9308 13.3214 15.0182C12.7728 15.8321 12.2297 16.6502 11.6735 17.4601C11.0411 18.3785 10.1181 18.8495 8.97737 18.9693C8.42771 19.0266 7.87586 18.9939 7.3262 18.9908C6.94306 18.9887 6.69816 18.6386 6.82116 18.2843C6.92783 17.9782 7.05735 17.6782 7.17599 17.3751C7.87151 15.5977 8.56703 13.8202 9.26255 12.0428C9.32023 11.8953 9.3801 11.7489 9.43452 11.6005C9.48241 11.4684 9.46717 11.45 9.3235 11.4489C9.20159 11.4479 9.07969 11.4469 8.95778 11.4489C8.19478 11.4633 7.43178 11.4285 6.66878 11.41C6.19095 11.3988 5.71094 11.4192 5.2342 11.3783C5.14495 11.3711 5.11665 11.4295 5.08073 11.4807C4.74331 11.9588 4.41024 12.439 4.07065 12.9151C3.8867 13.1731 3.69405 13.424 3.50683 13.6789C3.38601 13.8427 3.21621 13.9175 3.00941 13.9185C2.19199 13.9206 1.37456 13.9247 0.557136 13.9206C0.119581 13.9185 -0.13185 13.5151 0.0684237 13.1301C0.334005 12.6182 0.613737 12.1145 0.885848 11.6056C1.23524 10.9534 1.58028 10.2981 1.93402 9.64794C1.9928 9.53941 1.98736 9.4575 1.92858 9.35409C1.42463 8.46128 0.955509 7.55105 0.475504 6.64697C0.344888 6.40022 0.228426 6.1463 0.0912816 5.9016C-0.16124 5.45007 0.205568 5.06304 0.643125 5.08147C0.841223 5.09069 1.04041 5.08557 1.2396 5.08659C1.43334 5.08659 1.62817 5.08659 1.82191 5.08659L1.82191 5.08454L1.82409 5.08147ZM5.53352 8.6896C5.53352 8.6896 5.53352 8.69062 5.53352 8.69165C5.37134 8.69165 5.20699 8.67834 5.0459 8.69472C4.69542 8.72953 4.46684 8.58107 4.28398 8.31384C3.80942 7.6217 3.32071 6.93673 2.84179 6.24766C2.78846 6.17087 2.72968 6.13913 2.63281 6.14118C2.31716 6.1463 2.00042 6.14323 1.68477 6.14323C1.47361 6.14323 1.47252 6.14323 1.56613 6.32036C2.07226 7.27358 2.5773 8.22886 3.08996 9.17901C3.20642 9.39505 3.20751 9.59266 3.09649 9.80972C2.59145 10.7926 2.07988 11.7725 1.54218 12.74C1.48776 12.8394 1.50517 12.8598 1.61837 12.8578C1.91661 12.8527 2.21593 12.8414 2.51199 12.8619C2.71444 12.8752 2.82111 12.8015 2.91907 12.6458C3.35989 11.9476 3.88996 11.3046 4.34603 10.6165C4.4897 10.4005 4.69868 10.2991 4.97188 10.3053C5.35066 10.3135 5.73053 10.3186 6.10931 10.3278C7.20647 10.3534 8.30254 10.3831 9.39969 10.4036C10.388 10.422 11.3763 10.4363 12.3657 10.4578C13.1646 10.4752 13.9636 10.4947 14.7625 10.507C15.4351 10.5172 16.1078 10.5254 16.7805 10.5387C17.4031 10.551 18.0267 10.549 18.6493 10.5756C19.0466 10.593 19.4439 10.5889 19.8401 10.6073C20.208 10.6237 20.5824 10.6513 20.9481 10.5858C21.4662 10.4947 21.8178 10.124 21.8962 9.61211C21.9593 9.19847 21.7013 8.73875 21.2855 8.52885C21.0733 8.42135 20.8404 8.38653 20.6042 8.38961C20.036 8.39677 19.4667 8.41623 18.8986 8.42851C18.0235 8.44694 17.1473 8.46742 16.2722 8.4838C15.4057 8.50018 14.5393 8.50326 13.6729 8.5309C12.6574 8.56366 11.6419 8.578 10.6264 8.59028C9.945 8.5995 9.26363 8.61383 8.58227 8.63329C7.56674 8.66196 6.55122 8.67322 5.5357 8.69267L5.53352 8.6896ZM13.7491 7.45583C13.7491 7.45583 13.7491 7.45174 13.7491 7.44969C13.8841 7.44969 14.0202 7.45071 14.1551 7.44969C14.1987 7.44969 14.2563 7.47017 14.2825 7.43228C14.3108 7.39133 14.2574 7.35652 14.2346 7.32273C13.4727 6.17804 12.7097 5.03438 11.9467 3.89071C11.5701 3.32553 11.1924 2.7624 10.8179 2.19518C10.4762 1.6771 9.99072 1.34127 9.37683 1.15902C9.04268 1.0597 8.69655 1.09656 8.35587 1.07097C8.15342 1.05561 8.14906 1.07301 8.21872 1.24912C8.54744 2.08562 8.87615 2.9211 9.20377 3.75761C9.65656 4.91663 10.1072 6.0777 10.5622 7.23673C10.6743 7.52136 10.6808 7.51419 11.0008 7.50805C11.9173 7.4886 12.8327 7.47324 13.7491 7.45686L13.7491 7.45583ZM13.5336 11.5472C13.3029 11.5442 13.0329 11.5339 12.7619 11.5247C12.1219 11.5042 11.4808 11.5042 10.8397 11.4899C10.72 11.4868 10.6579 11.5237 10.6198 11.6291C10.4435 12.1196 10.2421 12.6018 10.0495 13.0871C9.75779 13.8223 9.48132 14.5636 9.19289 15.3007C8.87179 16.1219 8.54526 16.94 8.22308 17.7601C8.15668 17.93 8.15777 17.9331 8.34281 17.93C8.48648 17.927 8.63125 17.9126 8.77492 17.9085C9.62609 17.8881 10.2846 17.5359 10.7439 16.8703C11.3633 15.9734 11.9652 15.0653 12.5747 14.1622C12.8599 13.7393 13.144 13.3155 13.428 12.8916C13.7001 12.4861 13.9723 12.0796 14.2422 11.6721C14.3184 11.5564 14.3108 11.5483 14.1704 11.5483C13.9712 11.5483 13.7731 11.5483 13.5347 11.5483L13.5336 11.5472Z" fill="white"/>
</g>
<defs>
<clipPath id="clip0_160_975">
<rect width="19" height="23" fill="white" transform="translate(23) rotate(90)"/>
</clipPath>
</defs>
</svg>
