<svg width="60" height="60" viewBox="0 0 60 60" fill="none" xmlns="http://www.w3.org/2000/svg">
<circle cx="30" cy="30" r="30" fill="#363636"/>
<circle cx="30" cy="30" r="20" fill="#464646"/>
<path d="M22 23.0394C22.0449 22.8464 22.1312 22.6654 22.2529 22.5089C22.3745 22.3524 22.5287 22.2242 22.7047 22.1331C22.8665 22.0475 23.0464 22.0019 23.2293 22C24.2453 22 25.2593 22 26.2733 22C26.5874 22.0084 26.8872 22.1333 27.1144 22.3503C27.3416 22.5674 27.48 22.8611 27.5027 23.1745C27.5204 23.9022 27.6043 24.6268 27.7532 25.3394C27.8257 25.6271 27.9079 25.9109 27.9843 26.1967C28.0417 26.4084 28.046 26.631 27.9969 26.8447C27.9477 27.0585 27.8465 27.2568 27.7024 27.4221C27.2619 27.9819 26.8391 28.5554 26.4084 29.1231C26.3861 29.1479 26.3726 29.1794 26.3701 29.2127C26.3676 29.246 26.3763 29.2792 26.3947 29.3071C27.2935 31.0419 28.6785 32.4772 30.3803 33.4372C30.6916 33.6154 30.8853 33.6173 31.1633 33.3863C31.6468 32.9772 32.1636 32.6034 32.6746 32.2295C32.8297 32.1091 33.0113 32.0274 33.2043 31.991C33.3972 31.9545 33.5961 31.9645 33.7845 32.0201C34.7411 32.3281 35.7393 32.4878 36.7443 32.4938C37.0784 32.5024 37.3961 32.6406 37.6303 32.8791C37.8644 33.1176 37.9967 33.4377 37.9991 33.7719C37.9991 34.7507 37.9991 35.7079 37.9991 36.6768C38.01 36.9682 37.9216 37.2547 37.7484 37.4894C37.5752 37.7241 37.3275 37.8931 37.0458 37.9687L36.9577 38H35.834C35.7994 37.99 35.7641 37.9828 35.7283 37.9784C35.2558 37.953 34.7852 37.9001 34.3189 37.8199C32.9003 37.5906 31.5239 37.1505 30.2354 36.5143C26.9914 34.9163 24.4439 32.1872 23.0727 28.8412C22.5907 27.6722 22.2681 26.4437 22.1135 25.1887C22.0705 24.85 22.0392 24.5094 22.002 24.1688L22 23.0394Z" fill="#80AECF"/>
</svg>
