<svg width="115" height="15" viewBox="0 0 115 15" fill="none" xmlns="http://www.w3.org/2000/svg">
<path d="M97.508 4.0108C97.8218 4.0108 98.1347 4.01484 98.4485 4.00919C98.6715 4.00514 98.8361 4.08516 98.9556 4.25084C99.3621 4.81336 99.791 5.36214 100.184 5.93275C100.232 6.00225 100.285 6.02812 100.373 6.02569C101.196 6.00387 102.021 5.98771 102.845 5.97639C103.136 5.97235 103.427 5.96265 103.718 5.96103C103.847 5.96103 103.852 5.95618 103.808 5.8495C103.559 5.24253 103.306 4.63717 103.058 4.0302C102.642 3.01427 102.229 1.99672 101.815 0.97998C101.764 0.853898 101.703 0.731048 101.655 0.604158C101.534 0.278446 101.743 0.00607594 102.126 0.00688417C102.651 0.0068842 103.178 -0.0286774 103.7 0.0618431C104.542 0.208131 105.207 0.600117 105.668 1.24912C106.429 2.32001 107.177 3.39898 107.931 4.4731C108.239 4.91277 108.554 5.34841 108.864 5.78727C108.903 5.84223 108.952 5.86324 109.023 5.86082C109.69 5.83657 110.358 5.83576 111.024 5.81636C111.446 5.80424 111.867 5.81151 112.288 5.79777C112.564 5.78888 112.84 5.7808 113.115 5.78161C114.048 5.78484 114.841 6.40556 114.978 7.2356C115.147 8.26608 114.34 9.15512 113.18 9.21492C112.777 9.23594 112.375 9.21331 111.974 9.19876C111.921 9.19714 111.869 9.19553 111.817 9.19634C111.164 9.20765 110.512 9.17532 109.859 9.16643C109.598 9.16239 109.336 9.16401 109.076 9.15108C108.953 9.14461 108.884 9.18179 108.818 9.27797C108.218 10.1387 107.611 10.9962 107.006 11.8546C106.553 12.4971 106.104 13.1429 105.644 13.7822C105.122 14.5071 104.36 14.8789 103.417 14.9735C102.963 15.0187 102.507 14.9929 102.053 14.9905C101.737 14.9888 101.534 14.7124 101.636 14.4328C101.724 14.1911 101.831 13.9543 101.929 13.7151C102.504 12.312 103.078 10.909 103.653 9.50588C103.7 9.3895 103.75 9.27393 103.795 9.15673C103.834 9.05247 103.822 9.03792 103.703 9.03712C103.602 9.03631 103.502 9.0355 103.401 9.03712C102.771 9.04843 102.14 9.02095 101.51 9.0064C101.115 8.99751 100.719 9.01368 100.325 8.98135C100.251 8.97569 100.228 9.02176 100.198 9.06217C99.9195 9.43961 99.6444 9.81866 99.3639 10.1945C99.2119 10.3982 99.0527 10.5962 98.8981 10.7974C98.7983 10.9267 98.658 10.9857 98.4872 10.9865C97.8119 10.9882 97.1367 10.9914 96.4614 10.9882C96.0999 10.9865 95.8922 10.6681 96.0577 10.3642C96.2771 9.9601 96.5081 9.56246 96.7329 9.16077C97.0216 8.64594 97.3066 8.12868 97.5988 7.61546C97.6474 7.52979 97.6429 7.46513 97.5943 7.3835C97.178 6.67873 96.7905 5.96023 96.394 5.24657C96.2861 5.05179 96.1898 4.85135 96.0766 4.65819C95.868 4.30176 96.171 3.99625 96.5324 4.0108C96.6961 4.01808 96.8606 4.01403 97.0252 4.01484C97.1852 4.01484 97.3462 4.01484 97.5062 4.01484L97.5062 4.01323L97.508 4.0108Z" fill="#80AECF"/>
<path d="M90.0001 8.98901C90.5505 8.99506 91 8.5505 91 8C91 7.4495 90.5505 7.00494 90.0001 7.01099L4.37112e-08 8C4.37112e-08 8 4.37113e-08 8 4.37113e-08 8C4.37114e-08 8 4.37114e-08 8 4.37114e-08 8L90.0001 8.98901Z" fill="url(#paint0_linear_294_5007)"/>
<defs>
<linearGradient id="paint0_linear_294_5007" x1="91" y1="8" x2="4.37113e-08" y2="8" gradientUnits="userSpaceOnUse">
<stop stop-color="#80AECF"/>
<stop offset="1" stop-opacity="0"/>
</linearGradient>
</defs>
</svg>
