<svg width="86" height="86" viewBox="0 0 86 86" fill="none" xmlns="http://www.w3.org/2000/svg">
<circle cx="43" cy="43" r="43" fill="#80AECF"/>
<g clip-path="url(#clip0_2119_1592)">
<path d="M42.7859 62C42.5319 61.9365 42.2779 61.8782 42.025 61.8096C40.2163 61.3204 38.4193 59.7021 38.3162 57.0962C38.1802 57.0962 38.042 57.0962 37.9028 57.0962C36.0994 57.0962 34.297 57.1064 32.4936 57.0931C30.5043 57.0778 28.8847 55.6192 28.7487 53.7195C28.686 52.8516 28.9782 52.0563 29.4086 51.3101C30.1961 49.9457 30.8752 48.5394 31.3066 47.0297C31.7561 45.4575 31.9708 43.8577 31.9697 42.2262C31.9676 40.8239 31.8783 39.4135 32.2025 38.0297C33.1695 33.9038 35.6371 31.0123 39.7806 29.5046C39.8645 29.4739 39.9464 29.435 40.0271 29.4012C39.3098 27.2242 39.6913 25.7277 41.2205 24.6786C42.5585 23.7605 44.3502 23.7758 45.6796 24.7155C47.16 25.7615 47.533 27.2835 46.8231 29.3746C47.4246 29.6285 48.0537 29.8362 48.6233 30.1453C52.618 32.3142 54.7423 35.5926 54.8762 40.0327C54.9219 41.5374 54.8975 43.0481 55.0399 44.5445C55.246 46.7155 55.9857 48.7482 57.076 50.6581C57.5181 51.4319 57.9549 52.2098 58.0526 53.1054C58.2886 55.2569 56.6042 57.0757 54.3491 57.0952C52.5595 57.1105 50.77 57.0983 48.9804 57.0983C48.8369 57.0983 48.6934 57.0983 48.5277 57.0983C48.4798 58.1832 48.177 59.1576 47.5096 60.0082C46.6913 61.0522 45.6169 61.6981 44.2769 61.9294C44.2014 61.9427 44.1313 61.9765 44.0579 62.001H42.7848L42.7859 62ZM43.415 54.6448C46.517 54.6448 49.6191 54.6448 52.7211 54.6448C53.2514 54.6448 53.7816 54.6561 54.3119 54.6407C55.2259 54.6151 55.7838 53.8413 55.4809 53.0164C55.3938 52.7779 55.2599 52.5527 55.1281 52.3326C53.8029 50.1208 52.8613 47.7666 52.5734 45.2252C52.3853 43.5691 52.4118 41.8905 52.3279 40.2221C52.2971 39.6121 52.2737 38.9959 52.1653 38.3951C51.4767 34.5783 47.6998 31.4657 43.7094 31.3531C38.9304 31.218 35.1143 35.0051 34.6063 39.2119C34.4724 40.3224 34.5298 41.4544 34.5128 42.5773C34.466 45.6377 33.7455 48.5384 32.3066 51.2702C32.0314 51.7932 31.7147 52.2958 31.4511 52.825C31.1515 53.4268 31.2195 53.9898 31.6966 54.3142C31.9772 54.5056 32.3725 54.6295 32.7168 54.6315C36.2832 54.654 39.8486 54.6448 43.415 54.6448ZM45.9442 57.1249H40.8932C40.9007 58.4944 42.076 59.5773 43.4926 59.5466C44.8497 59.5179 45.9889 58.3971 45.9442 57.1249ZM43.415 28.9007C44.1047 28.9048 44.6849 28.3572 44.6945 27.694C44.7041 27.0133 44.1185 26.4463 43.4118 26.4514C42.7243 26.4565 42.1504 27.0143 42.1515 27.6776C42.1515 28.3419 42.7253 28.8966 43.415 28.9007Z" fill="white"/>
<path d="M28.2666 39.7124C27.4824 39.7185 26.9149 39.0972 27.0105 38.3183C27.392 35.2293 28.5801 32.4575 30.6046 30.0338C31.1752 29.35 31.8256 28.7257 32.4739 28.1064C33.0647 27.5425 33.8288 27.5486 34.3453 28.0665C34.8617 28.5844 34.8139 29.3531 34.2007 29.8956C31.7151 32.0972 30.1901 34.7994 29.6184 38.0031C29.5738 38.2538 29.5514 38.5097 29.4962 38.7584C29.3697 39.3203 28.8628 39.7062 28.2666 39.7113V39.7124Z" fill="white"/>
<path d="M59.8878 38.4698C59.8804 39.1197 59.3288 39.6806 58.671 39.7072C57.976 39.7349 57.4213 39.2425 57.3448 38.5465C56.9866 35.2866 55.5828 32.5148 53.1471 30.2272C52.9856 30.0757 52.8102 29.9386 52.6466 29.7901C52.0918 29.2835 52.0366 28.5619 52.5105 28.044C52.9898 27.5199 53.772 27.4882 54.3564 27.9795C56.5966 29.8618 58.1641 32.1832 59.078 34.8935C59.468 36.0511 59.6976 37.2579 60.0004 38.4432C59.9632 38.4524 59.925 38.4606 59.8878 38.4698Z" fill="white"/>
</g>
<defs>
<clipPath id="clip0_2119_1592">
<rect width="33" height="38" fill="white" transform="translate(27 24)"/>
</clipPath>
</defs>
</svg>
