<svg width="86" height="86" viewBox="0 0 86 86" fill="none" xmlns="http://www.w3.org/2000/svg">
<circle cx="43" cy="43" r="43" fill="#80AECF"/>
<g clip-path="url(#clip0_1804_5501)">
<path d="M25 65V24.9964H33.9133C34.0376 23.7752 34.5671 22.92 35.4881 22.4544C36.0189 22.1867 36.6714 22.0286 37.2755 22.0237C38.951 22.0075 40.7397 22 43.0777 22C44.0646 22 45.0515 22 46.0397 22.0025C46.9097 22.0025 47.7798 22.005 48.6511 22.005C50.6299 22.005 51.7859 23.0058 52.0892 24.979H61.0012V65.0012H25V65ZM58.7689 62.7543V27.2695H52.0979C51.6628 29.3945 50.6163 30.2248 48.3926 30.2248H42.0224C40.4625 30.2248 38.9038 30.2248 37.3451 30.2248C35.3738 30.2248 34.1892 29.2003 33.9183 27.2633H27.2411V62.7568H58.7701L58.7689 62.7543ZM46.2994 27.9716C47.1397 27.9716 47.9799 27.9716 48.8214 27.9679C49.51 27.9654 49.8245 27.6629 49.8419 26.9857C49.8568 26.3632 49.8568 25.7856 49.8419 25.2217C49.8233 24.5756 49.5001 24.2607 48.8513 24.2594C46.8973 24.2569 44.9421 24.2557 42.9882 24.2557C41.0343 24.2557 39.1014 24.2569 37.1574 24.2594C36.4912 24.2594 36.1743 24.5794 36.1606 25.2628C36.1519 25.6549 36.1544 26.0545 36.1569 26.4404V26.7965C36.1618 27.694 36.4315 27.9679 37.3165 27.9691C38.0611 27.9691 38.8069 27.9691 39.5526 27.9691H42.9546H46.3032L46.2994 27.9716Z" fill="white"/>
<path d="M38.059 50.5484L32.232 56.3818L30.7168 54.8195L38.054 47.4848L44.8941 54.3241L51.0865 48.1334H48.8827V45.8964H55.023V52.0559H52.8329V49.8189L45.0793 57.5744L38.059 50.5484Z" fill="white"/>
<path d="M56.0373 37.9492H29.9375V40.1115H56.0373V37.9492Z" fill="white"/>
<path d="M50.0647 32.9984H35.9297V35.1619H50.0647V32.9984Z" fill="white"/>
</g>
<defs>
<clipPath id="clip0_1804_5501">
<rect width="36" height="43" fill="white" transform="translate(25 22)"/>
</clipPath>
</defs>
</svg>
