<svg width="86" height="86" viewBox="0 0 86 86" fill="none" xmlns="http://www.w3.org/2000/svg">
<circle cx="43" cy="43" r="43" fill="#80AECF"/>
<g clip-path="url(#clip0_1804_5510)">
<path d="M63.8053 52.5344C64.2097 52.5344 64.5553 52.5265 64.901 52.5358C66.0848 52.5675 66.971 53.4531 66.999 54.6247C67.0777 57.905 64.3458 60.8252 61.0493 60.9841C60.8331 60.9947 60.6169 61 60.4007 61C48.46 61 36.5193 61.0026 24.5786 61C21.5557 61 19.0947 59.2672 18.2726 56.523C18.0897 55.9127 18.011 55.2561 18.0003 54.6194C17.9803 53.4492 18.9038 52.5662 20.0903 52.5371C20.436 52.5278 20.7816 52.5358 21.1807 52.5358C21.1807 52.2737 21.1807 52.0632 21.1807 51.8527C21.1807 44.7533 21.178 37.6552 21.1807 30.5558C21.1807 28.0261 22.4953 26.0656 24.7494 25.315C25.354 25.1151 26.02 25.0172 26.6579 25.0159C37.216 24.9973 47.774 24.996 58.3334 25.0066C61.5538 25.0106 63.7986 27.2808 63.8026 30.5108C63.8106 37.6261 63.8053 44.7414 63.8053 51.8567C63.8053 52.0672 63.8053 52.2776 63.8053 52.5344ZM61.6819 52.5133V51.9864C61.6819 44.838 61.6819 37.6897 61.6819 30.5426C61.6819 28.4246 60.3553 27.1127 58.2173 27.1127C47.7433 27.1127 37.268 27.1127 26.794 27.1127C24.6266 27.1127 23.3067 28.4206 23.3054 30.5678C23.3054 37.6989 23.3054 44.8314 23.3054 51.9626V52.5133H61.6819ZM64.873 54.7028H20.0983C20.1197 54.9265 20.1263 55.092 20.1544 55.2535C20.5281 57.4562 22.2364 58.8872 24.5239 58.8885C32.1511 58.8925 39.7784 58.8899 47.4057 58.8899C51.7525 58.8899 56.0993 58.8859 60.4447 58.8925C61.3696 58.8925 62.2318 58.6887 62.9925 58.1631C64.203 57.3252 64.8262 56.1682 64.873 54.7041V54.7028Z" fill="white"/>
<path d="M26.5033 48.2415C26.5033 46.9124 26.502 45.6058 26.5033 44.2979C26.5047 43.3806 26.885 43.0033 27.8099 43.0007C29.0591 42.998 30.3083 42.9993 31.5575 43.0007C32.5184 43.0007 32.8974 43.3726 32.8987 44.3138C32.9014 45.6178 32.8987 46.9217 32.8987 48.2574H35.0221C35.0221 48.0495 35.0221 47.8576 35.0221 47.6643C35.0221 45.165 35.0221 42.6657 35.0221 40.1678C35.0221 39.1286 35.3931 38.758 36.4301 38.7566C37.6459 38.754 38.8618 38.7527 40.0776 38.7566C41.0465 38.7593 41.4149 39.1207 41.4162 40.0725C41.4189 42.6048 41.4162 45.1372 41.4162 47.6683C41.4162 47.847 41.4162 48.027 41.4162 48.2468H43.5649C43.5649 48.0456 43.5649 47.8668 43.5649 47.6895C43.5649 45.8521 43.5622 44.016 43.5649 42.1786C43.5676 41.2414 43.9186 40.8945 44.8661 40.8906C46.1313 40.8866 47.3979 40.8853 48.6631 40.8906C49.5813 40.8945 49.955 41.2718 49.9577 42.1998C49.9617 44.02 49.959 45.8401 49.959 47.6617C49.959 47.8417 49.959 48.023 49.959 48.2454H52.0823V47.7398C52.0823 44.4965 52.0823 41.2519 52.0823 38.0087C52.0823 36.9973 52.4414 36.6452 53.4717 36.6452C54.7209 36.6452 55.97 36.6426 57.2192 36.6452C58.0761 36.6479 58.4764 37.041 58.4764 37.8909C58.4791 41.1513 58.4764 44.4118 58.4778 47.6722C58.4778 47.8536 58.4778 48.035 58.4778 48.2349C58.5779 48.2746 58.666 48.3116 58.7567 48.3434C59.2932 48.5314 59.5948 48.9695 59.5321 49.4713C59.4667 49.9875 59.089 50.3476 58.5272 50.4111C58.363 50.4297 58.1948 50.423 58.028 50.423C47.6675 50.423 37.3083 50.423 26.9477 50.423C26.8316 50.423 26.7142 50.427 26.5981 50.4217C25.9415 50.39 25.5144 50.0378 25.4423 49.4713C25.3756 48.9404 25.6945 48.5195 26.3138 48.3169C26.3605 48.3024 26.4046 48.2799 26.498 48.2401L26.5033 48.2415ZM56.3397 38.7884H54.2417V48.2481H56.3397V38.7884ZM39.2675 48.2666V40.9223H37.2149V48.2666H39.2675ZM47.7782 48.2613V43.0324H45.719V48.2613H47.7782ZM30.7447 45.1478H28.6587V48.2613H30.7447V45.1478Z" fill="white"/>
</g>
<defs>
<clipPath id="clip0_1804_5510">
<rect width="49" height="36" fill="white" transform="translate(18 25)"/>
</clipPath>
</defs>
</svg>
