<svg width="86" height="86" viewBox="0 0 86 86" fill="none" xmlns="http://www.w3.org/2000/svg">
<circle cx="43" cy="43" r="43" fill="#80AECF"/>
<g clip-path="url(#clip0_1801_5197)">
<path d="M42.6162 61C39.8299 61 37.0436 61 34.2573 60.9988C33.8801 60.9988 33.5531 60.8803 33.3383 60.6663C33.1526 60.4811 33.0557 60.236 33.058 59.9575C33.0627 59.3419 33.5403 58.9427 34.2748 58.9404C34.826 58.9381 35.376 58.9381 35.9272 58.9381H38.6061V53.6555H23.5629C21.4959 53.6555 20.731 53.1446 20.0082 51.2771L20 51.2575V26.3979L20.0093 26.3761C20.0187 26.3542 20.0292 26.3323 20.0397 26.3105C20.0596 26.2702 20.0771 26.2311 20.0876 26.1943C20.4566 24.8963 21.4924 24.0782 22.8575 24.0058C22.9253 24.0023 22.9942 24.0012 23.0631 24.0012H31.7805C41.8034 24.0012 51.8276 24.0012 61.8505 24C62.7007 24 63.3464 24.2002 63.8824 24.6294C64.6345 25.2312 65 26.0274 64.9988 27.0607C64.9942 31.7289 64.9942 36.4752 64.9953 41.0652V47.0922C64.9965 48.2544 64.9965 49.4177 64.9953 50.5798C64.993 52.4461 63.7645 53.652 61.8657 53.6532C59.6715 53.6555 57.4772 53.6555 55.283 53.6555H46.3893V58.9392H49.0448C49.6065 58.9392 50.167 58.9392 50.7275 58.9404C51.462 58.9427 51.9373 59.3442 51.9397 59.9633C51.9397 60.2417 51.8427 60.4845 51.6571 60.6686C51.4375 60.8849 51.1187 61 50.7334 61C48.0276 61 45.3207 61.0012 42.615 61.0012L42.6162 61ZM44.2067 58.9127V53.6716H40.798V58.9127H44.2067ZM23.153 26.0838C23.0619 26.0838 22.9556 26.085 22.8505 26.0942C22.4582 26.1275 22.2164 26.3358 22.1323 26.7109C22.0926 26.8858 22.0926 27.0791 22.0926 27.2655V27.2851C22.0903 34.9599 22.0915 42.6335 22.0915 50.3082V50.3738C22.0915 51.3714 22.2982 51.574 23.3211 51.574H61.6952C62.689 51.574 62.9039 51.3645 62.9039 50.3945C62.9039 42.6841 62.9039 34.9737 62.9039 27.2632C62.9039 26.2944 62.689 26.085 61.6952 26.085H23.3643H23.153V26.0838Z" fill="white"/>
<path d="M38.7607 46.2834C38.3309 46.2834 38.0063 46.0739 37.7973 45.662C37.3629 44.8048 35.749 41.6233 35.749 41.6233C35.6381 41.4046 35.5271 41.186 35.415 40.9686C35.1196 40.3898 34.8136 39.7903 34.5252 39.1954C34.4306 38.9998 34.3302 38.9377 34.1141 38.9377H34.1001C33.5279 38.9446 32.9218 38.948 32.2492 38.948C31.656 38.948 31.0639 38.9457 30.4707 38.9411C30.1075 38.9388 29.7945 38.8146 29.5902 38.5925C29.401 38.3865 29.3134 38.1023 29.3438 37.7928C29.3952 37.2681 29.8027 36.8987 30.3352 36.893C31.0324 36.8861 31.7809 36.8838 32.6894 36.8838C33.292 36.8838 33.8958 36.8849 34.4983 36.8861H35.0565C35.6299 36.8884 35.8996 37.2934 36.0538 37.5972C36.6844 38.8502 37.3313 40.1205 37.9561 41.3494L38.5715 42.5599C38.6089 42.6335 38.6474 42.7072 38.693 42.7923C38.7315 42.7118 38.7665 42.6393 38.7992 42.5645C39.9635 39.8858 43.2659 32.2893 43.2659 32.2893L43.2975 32.2179C43.3162 32.1777 43.3337 32.1362 43.3512 32.0948C43.5369 31.638 43.8533 31.3964 44.2936 31.3757C44.3158 31.3757 44.3368 31.3745 44.3578 31.3745C44.8039 31.3745 45.1332 31.5966 45.3644 32.0522C46.2636 33.8288 47.164 35.6031 48.0643 37.3786L48.7194 38.6696C48.8806 38.9872 49.0429 39.3047 49.2052 39.6223C49.6116 40.4185 50.0332 41.2413 50.4302 42.0594C50.5598 42.3252 50.6813 42.4069 50.9487 42.4069H50.9767C51.452 42.3965 51.9611 42.3919 52.5824 42.3919C52.9841 42.3919 53.387 42.3942 53.7887 42.3965L54.4321 42.3988C54.849 42.4 55.1819 42.5127 55.3921 42.7244C55.5719 42.9051 55.6606 43.1467 55.656 43.4436C55.6455 44.0684 55.1807 44.4561 54.4415 44.4584H54.0188C53.6673 44.4584 53.3158 44.4584 52.9643 44.4584C52.6128 44.4584 52.2624 44.4573 51.9109 44.4573C51.2231 44.4573 50.6661 44.4596 50.1593 44.4665H50.1348C49.5684 44.4665 49.183 44.2237 48.9203 43.7036C47.8296 41.5358 46.7109 39.3369 45.6295 37.2094L44.589 35.1636C44.5423 35.0727 44.4956 34.9829 44.436 34.869C44.4325 34.8759 44.4302 34.8817 44.4267 34.8874C44.3648 35.0174 44.3146 35.1245 44.2679 35.2326C43.2659 37.5373 39.8724 45.3525 39.8724 45.3525C39.8444 45.4169 39.8152 45.4802 39.786 45.5435L39.7463 45.6298C39.5548 46.0498 39.2383 46.2707 38.8074 46.2868C38.791 46.2868 38.7747 46.2868 38.7595 46.2868L38.7607 46.2834Z" fill="white"/>
</g>
<defs>
<clipPath id="clip0_1801_5197">
<rect width="45" height="37" fill="white" transform="translate(20 24)"/>
</clipPath>
</defs>
</svg>
