<svg width="25" height="32" viewBox="0 0 25 32" fill="none" xmlns="http://www.w3.org/2000/svg">
<g clip-path="url(#clip0_204_1113)">
<path d="M12.502 32C12.3439 32 12.1859 31.9366 12.0039 31.7996C11.1877 31.182 10.3476 30.5643 9.53548 29.9671C8.05924 28.8812 6.533 27.7584 5.07876 26.5886C2.33833 24.384 0.674061 21.3981 0.133974 17.7107C0.0479605 17.1258 0.00795408 16.4878 0.00795408 15.7617V15.6227C0.0099544 12.1889 0.013955 8.63859 0.00195312 5.14552C0.00195312 4.73445 0.155978 4.50949 0.536039 4.36838C3.96659 3.10654 7.63717 1.74244 12.0899 0.0797597C12.2319 0.0265866 12.3659 0 12.5 0C12.634 0 12.778 0.0265866 12.93 0.0838499C17.1907 1.67495 20.9713 3.07791 24.4839 4.37451C24.8539 4.51154 25.004 4.73036 25 5.13121C24.9899 6.57097 24.9899 8.03528 24.9919 9.4505V10.878C24.9919 11.3831 24.9919 11.8883 24.9959 12.3934C24.9979 13.4814 25.0019 14.6063 24.9919 15.7127C24.9499 20.3899 23.0616 24.1979 19.3851 27.0304C18.1208 28.0038 16.8166 28.9671 15.5564 29.8997C14.7203 30.5173 13.8562 31.1554 13.012 31.7914C12.882 31.8896 12.708 32 12.5 32H12.502ZM12.504 2.70774C12.4139 2.70774 12.3199 2.72615 12.2219 2.76296C9.38345 3.82438 6.03492 5.07394 2.70639 6.29897C2.52636 6.36441 2.49235 6.41759 2.49435 6.62415C2.50235 9.06193 2.50235 11.5427 2.50035 13.9395V15.3814C2.50035 16.0399 2.53636 16.6371 2.61237 17.2097C3.01844 20.2774 4.38265 22.7622 6.66702 24.5967C7.90322 25.5906 9.20543 26.5457 10.4656 27.4721C11.1137 27.9486 11.7598 28.4231 12.4019 28.9057C12.4299 28.9262 12.4699 28.9507 12.498 28.9507C12.536 28.9507 12.6 28.9057 12.646 28.873C14.3823 27.5764 15.8425 26.4884 17.3247 25.3963C18.2669 24.701 19.027 24.0833 19.6811 23.3205C21.5514 21.1343 22.5036 18.5002 22.5076 15.4897C22.5076 14.5101 22.5076 13.5305 22.5076 12.5489V10.0477C22.5036 8.929 22.5036 7.77146 22.5136 6.63437C22.5156 6.41759 22.4775 6.36032 22.2815 6.28875C18.995 5.08008 15.7805 3.87959 12.794 2.765C12.692 2.72615 12.596 2.70774 12.504 2.70774Z" fill="white"/>
<path d="M11.1978 19.6782C11.0437 19.6782 10.9297 19.5779 10.8557 19.5023C9.45948 18.0666 8.04525 16.6227 6.65503 15.2075C6.57702 15.1278 6.473 15.003 6.475 14.8394C6.475 14.7167 6.53501 14.6001 6.65303 14.4835C6.98709 14.1563 7.34314 13.8025 7.6812 13.4283C7.76721 13.3321 7.90323 13.2053 8.08326 13.2053C8.26329 13.2053 8.38931 13.3199 8.48533 13.4201C9.09342 14.0561 9.72152 14.6962 10.3296 15.3139L10.9877 15.9847C11.0677 16.0665 11.1518 16.1503 11.1958 16.183C11.2378 16.1524 11.3158 16.0726 11.3918 15.9949L16.4066 10.8678C16.5886 10.6817 16.6986 10.5692 16.8607 10.5692C17.0227 10.5692 17.1307 10.6796 17.3107 10.8637C17.6348 11.195 17.9588 11.5263 18.2829 11.8576L18.3049 11.8801C18.3749 11.9496 18.4809 12.056 18.4949 12.2462L18.5009 12.3259L18.4509 12.3893C18.4389 12.4057 18.4249 12.4241 18.4109 12.4425C18.3749 12.4916 18.3349 12.5448 18.2849 12.5979L16.1245 14.8087C14.5943 16.3732 13.0621 17.9398 11.5338 19.5064C11.4618 19.58 11.3498 19.6761 11.1978 19.6761V19.6782Z" fill="#80AECF"/>
</g>
<defs>
<clipPath id="clip0_204_1113">
<rect width="25" height="32" fill="white" transform="matrix(-1 0 0 1 25 0)"/>
</clipPath>
</defs>
</svg>
