<svg width="1440" height="546" viewBox="0 0 1440 546" fill="none" xmlns="http://www.w3.org/2000/svg">
<rect width="1440" height="399" fill="url(#paint0_linear_1963_611)"/>
<g opacity="0.7" filter="url(#filter0_f_1963_611)">
<path fill-rule="evenodd" clip-rule="evenodd" d="M1255.92 -29.9872C1343.64 -30.768 1434.52 4.02505 1461.68 82.2245C1488.89 160.553 1436.5 237.78 1366.03 286.981C1292.27 338.473 1194.34 371.029 1119.2 321.328C1041.6 270 1029.29 169.427 1061.85 85.7837C1090.9 11.1231 1171.15 -29.2326 1255.92 -29.9872Z" fill="url(#paint1_linear_1963_611)"/>
</g>
<g opacity="0.7" filter="url(#filter1_f_1963_611)">
<path fill-rule="evenodd" clip-rule="evenodd" d="M244.922 -29.9872C332.641 -30.768 423.517 4.02505 450.682 82.2245C477.891 160.553 425.503 237.78 355.028 286.981C281.272 338.473 183.338 371.029 108.197 321.328C30.5951 270 18.2935 169.427 50.8458 85.7837C79.9022 11.1231 160.153 -29.2326 244.922 -29.9872Z" fill="url(#paint2_linear_1963_611)"/>
</g>
<g opacity="0.7" filter="url(#filter2_f_1963_611)">
<path fill-rule="evenodd" clip-rule="evenodd" d="M718.922 -29.9872C806.641 -30.768 897.517 4.02505 924.682 82.2245C951.891 160.553 899.503 237.78 829.028 286.981C755.272 338.473 657.338 371.029 582.197 321.328C504.595 270 492.294 169.427 524.846 85.7837C553.902 11.1231 634.153 -29.2326 718.922 -29.9872Z" fill="url(#paint3_linear_1963_611)"/>
</g>
<g opacity="0.4" clip-path="url(#clip0_1963_611)">
<path d="M137.071 -191L137.071 -81.6576L121.118 -81.6576L121.118 134.817L153.008 134.817L153.008 241.476L151.848 241.476L151.848 135.954L119.974 135.954L119.974 -82.8099L135.911 -82.8099L135.911 -191L137.071 -191Z" fill="#80AECF"/>
<path d="M80.5383 -191L80.5383 -54.1913L74.6434 -54.1913L74.6434 117.123L94.8067 117.123L94.8066 317.639L93.6626 317.639L93.6626 118.259L73.4835 118.259L73.4835 -55.3278L79.3943 -55.3278L79.3943 -191L80.5383 -191Z" fill="#80AECF"/>
<path d="M105.975 -191L105.975 -54.1919L95.3766 -54.1919L95.3925 66.0264L120.545 66.0264L120.545 67.1787L94.2326 67.1787L94.2326 -55.3284L104.831 -55.3284L104.831 -191L105.975 -191Z" fill="#80AECF"/>
<path d="M37.1292 -191L37.1292 -23.648L58.5 -23.648L58.5 71.4721L22.7814 71.4721L22.7813 395.806L21.6373 395.806L21.6374 70.3198L57.356 70.3198L57.356 -22.5115L35.9852 -22.5115L35.9852 -191L37.1292 -191Z" fill="#80AECF"/>
<path d="M94.266 315.445C93.0463 315.445 92.0574 316.427 92.0574 317.639C92.0574 318.85 93.0463 319.833 94.266 319.833C95.4858 319.833 96.4746 318.85 96.4746 317.639C96.4746 316.427 95.4858 315.445 94.266 315.445Z" fill="#80AECF"/>
<path d="M54.3203 250.221C54.3203 251.437 53.3352 252.415 52.1117 252.415C50.8883 252.415 49.9031 251.437 49.9031 250.221C49.9031 249.006 50.8883 248.027 52.1117 248.027C53.3352 248.027 54.3203 249.006 54.3203 250.221Z" fill="#80AECF"/>
<path d="M22.2074 393.612C20.9877 393.612 19.9989 394.594 19.9989 395.806C19.9989 397.018 20.9877 398 22.2074 398C23.4272 398 24.416 397.018 24.416 395.806C24.416 394.594 23.4272 393.612 22.2074 393.612Z" fill="#80AECF"/>
<path d="M51.5393 250.221L52.6992 250.221L52.6992 70.888L51.5393 70.888L51.5393 250.221Z" fill="#80AECF"/>
<path d="M152.498 239.282C151.279 239.282 150.29 240.265 150.29 241.476C150.29 242.688 151.279 243.67 152.498 243.67C153.718 243.67 154.707 242.688 154.707 241.476C154.707 240.265 153.718 239.282 152.498 239.282Z" fill="#80AECF"/>
<g opacity="0.38">
<path d="M154.183 -191L154.183 -54.1917L145.396 -54.1917L145.396 58.876L175.363 58.876L175.363 286.132L174.219 286.132L174.219 60.0125L144.252 60.0125L144.252 -55.3282L153.039 -55.3282L153.039 -191L154.183 -191Z" fill="#80AECF"/>
</g>
<path d="M177 286.132C177 287.348 176.015 288.326 174.791 288.326C173.568 288.326 172.583 287.348 172.583 286.132C172.583 284.917 173.568 283.938 174.791 283.938C176.015 283.938 177 284.917 177 286.132Z" fill="#80AECF"/>
<g opacity="0.38">
<path d="M65.0138 313.14C63.981 313.14 63.123 312.304 63.123 311.262C63.123 310.394 63.7109 309.668 64.5212 309.462L64.5212 -74.5226L60.0246 -74.5226L60.0246 -191.016L61.0098 -191.016L61.0097 -75.5013L65.5064 -75.5013L65.5064 -40.7271L65.0138 -40.7271L65.0138 -39.7484L65.5064 -39.7484L65.5063 309.478C66.3008 309.699 66.8887 310.409 66.8887 311.278C66.8887 312.304 66.0624 313.156 65.0138 313.156L65.0138 313.14Z" fill="#80AECF"/>
</g>
<g opacity="0.26">
<path d="M104.356 194.5C103.323 194.5 102.465 193.663 102.465 192.622C102.465 191.769 103.053 191.043 103.863 190.822L103.863 -39.7646L65.4909 -39.7646L65.4909 -40.7433L104.832 -40.7433L104.832 190.822C105.643 191.043 106.23 191.753 106.23 192.622C106.23 193.648 105.388 194.5 104.34 194.5L104.356 194.5Z" fill="#80AECF"/>
</g>
</g>
<g opacity="0.4" clip-path="url(#clip1_1963_611)">
<path d="M1380.07 -191L1380.07 -81.6576L1364.12 -81.6576L1364.12 134.817L1396.01 134.817L1396.01 241.476L1394.85 241.476L1394.85 135.954L1362.97 135.954L1362.97 -82.8099L1378.91 -82.8099L1378.91 -191L1380.07 -191Z" fill="#80AECF"/>
<path d="M1323.54 -191L1323.54 -54.1913L1317.64 -54.1913L1317.64 117.123L1337.81 117.123L1337.81 317.639L1336.66 317.639L1336.66 118.259L1316.48 118.259L1316.48 -55.3278L1322.39 -55.3278L1322.39 -191L1323.54 -191Z" fill="#80AECF"/>
<path d="M1348.97 -191L1348.97 -54.1919L1338.38 -54.1919L1338.39 66.0264L1363.54 66.0264L1363.54 67.1787L1337.23 67.1787L1337.23 -55.3284L1347.83 -55.3284L1347.83 -191L1348.97 -191Z" fill="#80AECF"/>
<path d="M1280.13 -191L1280.13 -23.648L1301.5 -23.648L1301.5 71.4721L1265.78 71.4721L1265.78 395.806L1264.64 395.806L1264.64 70.3198L1300.36 70.3198L1300.36 -22.5115L1278.99 -22.5115L1278.99 -191L1280.13 -191Z" fill="#80AECF"/>
<path d="M1337.27 315.445C1336.05 315.445 1335.06 316.427 1335.06 317.639C1335.06 318.85 1336.05 319.833 1337.27 319.833C1338.49 319.833 1339.47 318.85 1339.47 317.639C1339.47 316.427 1338.49 315.445 1337.27 315.445Z" fill="#80AECF"/>
<path d="M1297.32 250.221C1297.32 251.437 1296.34 252.415 1295.11 252.415C1293.89 252.415 1292.9 251.437 1292.9 250.221C1292.9 249.006 1293.89 248.027 1295.11 248.027C1296.34 248.027 1297.32 249.006 1297.32 250.221Z" fill="#80AECF"/>
<path d="M1265.21 393.612C1263.99 393.612 1263 394.594 1263 395.806C1263 397.018 1263.99 398 1265.21 398C1266.43 398 1267.42 397.018 1267.42 395.806C1267.42 394.594 1266.43 393.612 1265.21 393.612Z" fill="#80AECF"/>
<path d="M1294.54 250.221L1295.7 250.221L1295.7 70.888L1294.54 70.888L1294.54 250.221Z" fill="#80AECF"/>
<path d="M1395.5 239.282C1394.28 239.282 1393.29 240.265 1393.29 241.476C1393.29 242.688 1394.28 243.67 1395.5 243.67C1396.72 243.67 1397.71 242.688 1397.71 241.476C1397.71 240.265 1396.72 239.282 1395.5 239.282Z" fill="#80AECF"/>
<g opacity="0.38">
<path d="M1397.18 -191L1397.18 -54.1917L1388.4 -54.1917L1388.4 58.876L1418.36 58.876L1418.36 286.132L1417.22 286.132L1417.22 60.0125L1387.25 60.0125L1387.25 -55.3282L1396.04 -55.3282L1396.04 -191L1397.18 -191Z" fill="#80AECF"/>
</g>
<path d="M1420 286.132C1420 287.348 1419.01 288.326 1417.79 288.326C1416.57 288.326 1415.58 287.348 1415.58 286.132C1415.58 284.917 1416.57 283.938 1417.79 283.938C1419.01 283.938 1420 284.917 1420 286.132Z" fill="#80AECF"/>
<g opacity="0.38">
<path d="M1308.01 313.14C1306.98 313.14 1306.12 312.304 1306.12 311.262C1306.12 310.394 1306.71 309.668 1307.52 309.462L1307.52 -74.5226L1303.02 -74.5226L1303.02 -191.016L1304.01 -191.016L1304.01 -75.5013L1308.51 -75.5013L1308.51 -40.7271L1308.01 -40.7271L1308.01 -39.7484L1308.51 -39.7484L1308.51 309.478C1309.3 309.699 1309.89 310.409 1309.89 311.278C1309.89 312.304 1309.06 313.156 1308.01 313.156L1308.01 313.14Z" fill="#80AECF"/>
</g>
<g opacity="0.26">
<path d="M1347.36 194.5C1346.32 194.5 1345.46 193.663 1345.46 192.622C1345.46 191.769 1346.05 191.043 1346.86 190.822L1346.86 -39.7646L1308.49 -39.7646L1308.49 -40.7433L1347.83 -40.7433L1347.83 190.822C1348.64 191.043 1349.23 191.753 1349.23 192.622C1349.23 193.648 1348.39 194.5 1347.34 194.5L1347.36 194.5Z" fill="#80AECF"/>
</g>
</g>
<defs>
<filter id="filter0_f_1963_611" x="845" y="-230" width="824" height="776" filterUnits="userSpaceOnUse" color-interpolation-filters="sRGB">
<feFlood flood-opacity="0" result="BackgroundImageFix"/>
<feBlend mode="normal" in="SourceGraphic" in2="BackgroundImageFix" result="shape"/>
<feGaussianBlur stdDeviation="100" result="effect1_foregroundBlur_1963_611"/>
</filter>
<filter id="filter1_f_1963_611" x="-166" y="-230" width="824" height="776" filterUnits="userSpaceOnUse" color-interpolation-filters="sRGB">
<feFlood flood-opacity="0" result="BackgroundImageFix"/>
<feBlend mode="normal" in="SourceGraphic" in2="BackgroundImageFix" result="shape"/>
<feGaussianBlur stdDeviation="100" result="effect1_foregroundBlur_1963_611"/>
</filter>
<filter id="filter2_f_1963_611" x="308" y="-230" width="824" height="776" filterUnits="userSpaceOnUse" color-interpolation-filters="sRGB">
<feFlood flood-opacity="0" result="BackgroundImageFix"/>
<feBlend mode="normal" in="SourceGraphic" in2="BackgroundImageFix" result="shape"/>
<feGaussianBlur stdDeviation="100" result="effect1_foregroundBlur_1963_611"/>
</filter>
<linearGradient id="paint0_linear_1963_611" x1="720" y1="67.5" x2="720" y2="399" gradientUnits="userSpaceOnUse">
<stop stop-color="#204E78"/>
<stop offset="1" stop-color="#060809" stop-opacity="0"/>
</linearGradient>
<linearGradient id="paint1_linear_1963_611" x1="1258.65" y1="-179.056" x2="919.368" y2="205.444" gradientUnits="userSpaceOnUse">
<stop stop-color="#80AECF"/>
<stop offset="1" stop-color="#095396"/>
</linearGradient>
<linearGradient id="paint2_linear_1963_611" x1="247.647" y1="-179.056" x2="-91.6319" y2="205.444" gradientUnits="userSpaceOnUse">
<stop stop-color="#80AECF"/>
<stop offset="1" stop-color="#095396"/>
</linearGradient>
<linearGradient id="paint3_linear_1963_611" x1="721.647" y1="-179.056" x2="382.368" y2="205.444" gradientUnits="userSpaceOnUse">
<stop stop-color="#095396"/>
<stop offset="1" stop-color="#095396"/>
</linearGradient>
<clipPath id="clip0_1963_611">
<rect width="157" height="589" fill="white" transform="translate(177 398) rotate(-180)"/>
</clipPath>
<clipPath id="clip1_1963_611">
<rect width="157" height="589" fill="white" transform="translate(1420 398) rotate(-180)"/>
</clipPath>
</defs>
</svg>
