<svg width="36" height="28" viewBox="0 0 36 28" fill="none" xmlns="http://www.w3.org/2000/svg">
<g clip-path="url(#clip0_204_902)">
<path d="M24.8712 28C23.7392 28 22.6072 28 21.4775 27.9956C20.3456 27.9956 19.2136 27.9911 18.0817 27.9911H6.58475C4.21627 27.9911 2.60016 26.9706 1.64095 24.8675C0.590815 22.5696 0.0384725 20.2495 0.00210428 17.9738C-0.0683592 13.5285 1.36591 9.57685 4.26401 6.22739C6.65976 3.46237 9.69196 1.57843 13.2742 0.635357C14.8699 0.214737 16.4769 0 18.0498 0C20.4911 0 22.9345 0.513599 25.3144 1.52751C26.2441 1.92378 26.6259 2.80044 26.2441 3.66161C25.9849 4.24162 25.4212 4.60247 24.7734 4.60247C24.5143 4.60247 24.2529 4.54712 23.996 4.43643C22.0958 3.61733 20.1228 3.20114 18.1339 3.20114H18.0294C14.2403 3.2277 10.9194 4.46743 8.16222 6.8871C5.51871 9.20493 3.9276 12.1072 3.43208 15.512C3.00476 18.4541 3.46618 21.2789 4.80726 23.9089C5.07093 24.4269 5.51416 24.7169 6.16425 24.7944C6.33699 24.8144 6.50974 24.8166 6.65976 24.8166C6.65976 24.8166 24.5507 24.8166 29.3263 24.8188C29.6581 24.8188 29.9309 24.79 30.1832 24.728C30.6241 24.6218 30.9469 24.376 31.1424 23.9975C32.0652 22.2309 32.588 20.327 32.6949 18.3435C32.8199 16.0234 32.3857 13.7476 31.4038 11.5781C31.1651 11.049 31.1674 10.5155 31.4129 10.0772C31.6538 9.64326 32.1016 9.35326 32.6721 9.26028C32.7426 9.24921 32.8153 9.24257 32.8881 9.24257C33.4813 9.24257 34.0632 9.62113 34.336 10.1856C35.1134 11.7862 35.6248 13.5108 35.8566 15.315C36.2862 18.6556 35.7521 21.932 34.2701 25.0512C33.354 26.9794 31.7948 27.9646 29.6308 27.9823C28.2307 27.9934 26.7191 28 24.8712 28Z" fill="white"/>
<path d="M18.0205 20.9026C16.3543 20.9026 14.9246 19.7691 14.6223 18.2062C14.2609 16.3378 15.4679 14.5933 17.3726 14.2347C17.5045 14.2103 17.6409 14.2015 17.8159 14.1926C17.8909 14.1882 17.9727 14.1837 18.0614 14.1771C18.2205 14.2413 18.3773 14.2745 18.5296 14.2745C19.0592 14.2745 19.4343 13.9004 19.8002 13.5373L19.9048 13.4333C22.2414 11.1442 24.6258 8.82416 26.9307 6.57938L29.4173 4.1575C29.7242 3.85863 30.0083 3.60184 30.3947 3.49557C30.547 3.45351 30.7039 3.43137 30.8584 3.43137C31.3835 3.43137 31.879 3.67932 32.1813 4.09551C32.5859 4.64896 32.5859 5.38836 32.1836 5.93517C32.0677 6.09456 31.9199 6.24067 31.7563 6.40228L31.063 7.0797C28.0331 10.0329 24.9009 13.0857 21.8141 16.081C21.4709 16.413 21.3618 16.7318 21.4323 17.179C21.6936 18.8238 20.3958 20.5373 18.6569 20.845C18.4478 20.8827 18.2341 20.9004 18.0227 20.9004L18.0205 20.9026Z" fill="#80AECF"/>
</g>
<defs>
<clipPath id="clip0_204_902">
<rect width="36" height="28" fill="white"/>
</clipPath>
</defs>
</svg>
