<svg width="27" height="27" viewBox="0 0 27 27" fill="none" xmlns="http://www.w3.org/2000/svg">
<g clip-path="url(#clip0_1584_12516)">
<path d="M13.5132 0.0015441C16.4939 0.0015441 19.4747 -0.00221279 22.4555 0.00304686C24.6601 0.00605237 26.4658 1.47875 26.9076 3.63596C26.9692 3.93651 26.994 4.24983 26.9947 4.55639C27 10.5178 27.0015 16.48 26.997 22.4414C26.9955 25.0059 25.0156 26.9948 22.457 26.997C16.4857 27.0023 10.5143 27.0023 4.54371 26.997C1.9852 26.9948 0.00375699 25.0044 0.0022542 22.4429C-0.000751399 16.4815 -0.000751399 10.5193 0.0022542 4.5579C0.00375699 1.98218 1.98895 0.00530099 4.57076 0.00229548C7.55156 -0.00146141 10.5324 0.0015441 13.5132 0.0015441ZM8.07453 14.7413C7.98661 14.8525 7.93026 14.9404 7.85813 15.0126C6.14945 16.7242 4.43851 18.4328 2.72983 20.1437C2.4195 20.4548 1.99797 20.7238 1.84318 21.101C1.68839 21.4789 1.80035 21.9681 1.80185 22.4084C1.80711 24.0238 2.97178 25.196 4.58503 25.1967C10.5278 25.1997 16.4699 25.1997 22.4127 25.1967C24.0275 25.196 25.1966 24.0268 25.1974 22.4099C25.2004 16.4672 25.2004 10.5246 25.1974 4.58269C25.1966 2.96798 24.0252 1.8026 22.4075 1.80184C16.4646 1.79959 10.5218 1.79884 4.57977 1.80184C2.98005 1.8026 1.80336 2.97249 1.80185 4.56616C1.7981 9.12177 1.80035 13.6766 1.80185 18.2322C1.80185 18.3096 1.81312 18.3862 1.82515 18.5448C1.94086 18.4095 2.00323 18.3269 2.07536 18.254C3.83739 16.4898 5.60017 14.727 7.36371 12.9643C7.85437 12.4737 8.34203 12.4699 8.82968 12.956C9.71258 13.8367 10.5932 14.7188 11.4746 15.6001C11.546 15.6715 11.6211 15.7376 11.6572 15.7715C13.3238 14.1049 14.9761 12.4526 16.6307 10.7988C16.1971 10.7988 15.741 10.8079 15.2857 10.7966C14.7823 10.7846 14.3968 10.3811 14.4006 9.89118C14.4043 9.41029 14.7815 9.00831 15.2729 9.0038C16.4917 8.99328 17.7097 8.99328 18.9285 9.0038C19.4049 9.00831 19.7896 9.39001 19.7941 9.86713C19.8054 11.0859 19.8054 12.3038 19.7941 13.5226C19.7896 14.0132 19.3868 14.3919 18.9082 14.3972C18.419 14.4024 18.0148 14.0155 18.0013 13.5128C17.9907 13.1191 17.9998 12.7254 17.9975 12.3316C17.9975 12.2663 17.9832 12.2002 17.9712 12.0927C16.8103 13.2558 15.6847 14.3829 14.5583 15.51C13.8295 16.2396 13.1036 16.9714 12.3695 17.6957C11.954 18.106 11.4423 18.0985 11.0238 17.6935C10.9426 17.6153 10.8645 17.5349 10.7848 17.4553C9.89817 16.5672 9.01077 15.6798 8.07227 14.7398L8.07453 14.7413Z" fill="#80AECF"/>
</g>
<defs>
<clipPath id="clip0_1584_12516">
<rect width="27" height="27" fill="white"/>
</clipPath>
</defs>
</svg>
