<svg width="29" height="29" viewBox="0 0 29 29" fill="none" xmlns="http://www.w3.org/2000/svg">
<path d="M15.351 29H13.6516C13.5785 28.9837 13.5069 28.9589 13.4331 28.9532C11.1648 28.7929 9.04266 28.1447 7.10632 26.9582C3.34995 24.6567 1.03697 21.3383 0.225552 16.9964C0.124125 16.4532 0.0737655 15.9007 0 15.3518C0 14.7851 0 14.2191 0 13.6525C0.0177321 13.5525 0.0375921 13.4525 0.052487 13.3518C0.143275 12.7276 0.195053 12.095 0.328399 11.4801C1.0852 7.99856 2.87402 5.14537 5.71045 2.99714C9.23913 0.324799 13.2133 -0.561017 17.5463 0.34182C21.0147 1.06452 23.8348 2.88225 25.9917 5.6858C28.321 8.71275 29.2899 12.1596 28.9253 15.9532C28.6302 19.0269 27.4365 21.7411 25.3881 24.0574C23.1418 26.5972 20.3444 28.1794 17.0008 28.7745C16.4554 28.8716 15.9014 28.9262 15.3517 29H15.351ZM14.507 2.25672C7.75531 2.24891 2.269 7.72551 2.25198 14.4894C2.23495 21.2305 7.71346 26.722 14.4807 26.7482C21.2289 26.7745 26.7514 21.2624 26.7499 14.5014C26.7485 7.74466 21.2693 2.26452 14.507 2.25672Z" fill="#80AECF"/>
<path d="M13.0055 11.3615C13.0055 10.2886 12.996 9.21558 13.0092 8.14329C13.0195 7.31633 13.8215 6.79121 14.6051 7.07996C15.0811 7.255 15.3445 7.65745 15.3452 8.22392C15.3467 10.0398 15.3563 11.8549 15.3364 13.6708C15.3327 13.9954 15.446 14.1794 15.716 14.3648C16.9712 15.2262 18.2095 16.1096 19.4551 16.9828C19.8885 17.286 20.0937 17.6788 19.9591 18.1798C19.7575 18.9296 18.8503 19.2397 18.1602 18.7938C17.7254 18.5126 17.3111 18.2046 16.8881 17.9076C15.8227 17.1599 14.7677 16.3998 13.6891 15.6693C13.2079 15.3433 12.9894 14.9429 13.0004 14.3882C13.021 13.38 13.0063 12.3711 13.0063 11.3622L13.0055 11.3615Z" fill="#80AECF"/>
</svg>
