<svg width="28" height="25" viewBox="0 0 28 25" fill="none" xmlns="http://www.w3.org/2000/svg">
<g clip-path="url(#clip0_1584_12439)">
<path d="M20.1928 24.7723V23.9687H20.2332L20.1094 23.8428C20.2198 23.733 20.3651 23.6741 20.5159 23.6741H20.7851V24.4777H20.7448L20.8686 24.6036C20.7582 24.7134 20.6128 24.7723 20.4621 24.7723H20.1928Z" fill="#80AECF"/>
<path d="M18.9816 24.1562H18.9277V24.692H18.9816V24.1562Z" fill="#80AECF"/>
<path d="M18.4696 24.558C18.3538 24.558 18.2892 24.5152 18.2246 24.4509L18.4669 24.2125V24.558H18.4696Z" fill="#80AECF"/>
<path d="M18.0114 24.6116C17.7853 24.6116 17.6291 24.483 17.5753 24.4268L16.668 23.5134H17.9576C18.111 23.5134 18.2564 23.575 18.3668 23.6848L18.243 23.808H18.2834V24.6116H18.0141H18.0114Z" fill="#80AECF"/>
<path d="M19.7148 24.7187V24.183L19.7337 24.7187H19.7148Z" fill="#80AECF"/>
<path d="M20.0031 24.1294H19.9492V24.6651H20.0031V24.1294Z" fill="#80AECF"/>
<path d="M19.4913 24.183H19.4375V24.7187H19.4913V24.183Z" fill="#80AECF"/>
<path d="M20.2246 24.5848V24.0491L20.2461 24.5848H20.2246Z" fill="#80AECF"/>
<path d="M19.1687 24.7188C19.1014 24.7188 18.991 24.7188 18.8672 24.6786L18.9533 24.1562C19.0126 24.1562 19.0637 24.1643 19.1149 24.175C19.131 24.1777 19.1499 24.183 19.1687 24.183V24.7188Z" fill="#80AECF"/>
<path d="M18.031 24.692C17.9126 24.6518 17.7699 24.5928 17.6326 24.4562L17.4414 24.266L18.1845 23.5267L18.3541 23.6633L18.6691 23.808L18.2679 24.7696L18.031 24.692Z" fill="#80AECF"/>
<path d="M18.9264 24.6919C18.7783 24.6919 18.6518 24.641 18.5898 24.6116L18.8295 24.1321C18.8295 24.1321 18.8483 24.1321 18.8645 24.1374C18.9102 24.1455 18.9614 24.1562 19.0098 24.1723L18.9237 24.6946L18.9264 24.6919Z" fill="#80AECF"/>
<path d="M18.2439 24.7991C18.1927 24.783 18.1496 24.7669 18.1092 24.7482C18.085 24.7375 18.0581 24.7294 18.0285 24.7187L17.7754 24.633L18.1146 23.6178L18.3704 23.7035C18.4215 23.7196 18.4673 23.7383 18.5104 23.7544C18.5373 23.7651 18.5589 23.7732 18.5885 23.7839L18.8442 23.8696L18.5023 24.8848L18.2465 24.7991H18.2439Z" fill="#80AECF"/>
<path d="M20.0039 24.1026C20.0201 24.1026 20.0335 24.0973 20.082 24.0812L20.1331 24.0624L20.3054 24.5714L20.2651 24.5848C20.1978 24.6089 20.117 24.6384 20.0066 24.6384V24.1026H20.0039Z" fill="#80AECF"/>
<path d="M18.5469 24.6143C18.5469 24.6143 18.5227 24.6089 18.5092 24.6062C18.4661 24.5982 18.4069 24.5848 18.3477 24.5553L18.4688 24.0491C18.6115 24.0491 18.7111 24.0973 18.7757 24.1294L18.5388 24.6089L18.5496 24.6143H18.5469Z" fill="#80AECF"/>
<path d="M19.3711 24.2392C19.4815 24.183 19.6026 24.183 19.7076 24.183V24.7187C19.6349 24.7187 19.6161 24.7187 19.5784 24.7321L19.3711 24.2392Z" fill="#80AECF"/>
<path d="M19.7344 24.1562C19.7748 24.1562 19.8259 24.1562 19.8636 24.1428L20.0359 24.6518C19.9121 24.6919 19.8017 24.6919 19.7344 24.6919V24.1562Z" fill="#80AECF"/>
<path d="M19.7832 23.95L20.0067 23.8374C20.0874 23.7973 20.1763 23.7678 20.292 23.7276L20.5478 23.6419L20.887 24.6598L20.6313 24.7455C20.6017 24.7562 20.5774 24.7643 20.5532 24.775C20.5101 24.7911 20.467 24.8098 20.4159 24.8259L20.179 24.9036L19.7832 23.9473V23.95Z" fill="#80AECF"/>
<path d="M20.0898 23.7866L20.3456 23.7009C20.3752 23.6901 20.386 23.6875 20.4318 23.6553L20.6552 23.5053L21.2529 24.3973L21.0295 24.5446C20.911 24.625 20.8141 24.6705 20.6875 24.7134L20.4318 24.7991L20.0898 23.7812V23.7866Z" fill="#80AECF"/>
<path d="M19.4376 24.183H19.1953V24.7187H19.4376V24.183Z" fill="#80AECF"/>
<path d="M24.7694 15.7184C24.5648 15.7184 24.3871 15.6943 24.2175 15.6675L24.1178 15.6541L24.099 15.6488C24.0398 15.6327 23.9967 15.622 23.9563 15.6113C23.8082 15.5738 23.6494 15.5336 23.4798 15.4479C23.1728 15.3113 22.9063 15.1505 22.6963 14.9737C22.4244 14.7407 22.2225 14.5184 22.0798 14.288C21.8913 13.9826 21.7567 13.688 21.6678 13.388H19.3848V11.6201H21.6652C21.7567 11.2933 21.9021 10.9825 22.0852 10.7066C22.2225 10.4897 22.4217 10.2673 22.6936 10.0343C22.9844 9.81731 23.2348 9.6673 23.4986 9.54944C23.7005 9.44765 23.9159 9.38069 24.1528 9.34854C24.3144 9.32176 24.5352 9.28961 24.7667 9.28961C26.549 9.28961 27.9975 10.7307 27.9975 12.504C27.9975 14.2773 26.549 15.7184 24.7667 15.7184H24.7694ZM24.7694 11.0843C24.0721 11.0843 23.4798 11.5745 23.3613 12.2495C23.3425 12.3272 23.3425 12.4263 23.3425 12.504C23.3425 12.5683 23.3425 12.6781 23.3532 12.7237C23.4798 13.4282 24.0721 13.9237 24.7694 13.9237C25.4667 13.9237 26.059 13.4335 26.1775 12.7585C26.1963 12.6808 26.1963 12.5817 26.1963 12.504C26.1963 12.4397 26.1963 12.3299 26.1855 12.2844C26.059 11.5799 25.4667 11.0843 24.7694 11.0843Z" fill="#80AECF"/>
<path d="M24.7694 15.7184C24.5648 15.7184 24.3871 15.6943 24.2175 15.6675L24.1178 15.6541L24.099 15.6488C24.0398 15.6327 23.9967 15.622 23.9563 15.6113C23.8082 15.5738 23.6494 15.5336 23.4798 15.4479C23.1728 15.3113 22.9063 15.1505 22.6963 14.9737C22.4244 14.7407 22.2225 14.5184 22.0798 14.288C21.8913 13.9826 21.7567 13.688 21.6678 13.388H19.3848V11.6201H21.6652C21.7567 11.2933 21.9021 10.9825 22.0852 10.7066C22.2225 10.4897 22.4217 10.2673 22.6936 10.0343C22.9844 9.81731 23.2348 9.6673 23.4986 9.54944C23.7005 9.44765 23.9159 9.38069 24.1528 9.34854C24.3144 9.32176 24.5352 9.28961 24.7667 9.28961C26.549 9.28961 27.9975 10.7307 27.9975 12.504C27.9975 14.2773 26.549 15.7184 24.7667 15.7184H24.7694ZM24.7694 11.0843C24.0721 11.0843 23.4798 11.5745 23.3613 12.2495C23.3425 12.3272 23.3425 12.4263 23.3425 12.504C23.3425 12.5683 23.3425 12.6781 23.3532 12.7237C23.4798 13.4282 24.0721 13.9237 24.7694 13.9237C25.4667 13.9237 26.059 13.4335 26.1775 12.7585C26.1963 12.6808 26.1963 12.5817 26.1963 12.504C26.1963 12.4397 26.1963 12.3299 26.1855 12.2844C26.059 11.5799 25.4667 11.0843 24.7694 11.0843Z" fill="#80AECF"/>
<path d="M17.0881 8.03064C16.9858 7.99581 16.8996 7.94224 16.8242 7.8967L16.8 7.88063C16.8 7.88063 16.7758 7.86456 16.765 7.8592C16.6384 7.81902 16.4581 7.70652 16.3665 7.64491L15.9492 7.36633L17.0531 5.44304C16.8215 5.21268 16.6277 4.93678 16.485 4.63944C16.3234 4.3689 16.2561 4.06621 16.2023 3.82245L16.1861 3.74745V3.73138C16.1538 3.41529 16.1538 3.14743 16.1808 2.84742C16.1808 2.62509 16.2319 2.3974 16.3315 2.16703C16.3638 2.08667 16.4554 1.86702 16.5604 1.65541C17.1608 0.626801 18.2511 -0.00268555 19.4142 -0.00268555C19.9661 -0.00268555 20.5127 0.139284 20.9946 0.409829C22.5508 1.31254 23.0865 3.2894 22.1927 4.81624C22.1119 4.93946 22.05 5.01714 21.9854 5.09482C21.9369 5.15643 21.8938 5.20732 21.8508 5.27161L21.8077 5.3359L21.7484 5.38679C21.6973 5.42965 21.6542 5.46983 21.6138 5.50733C21.5358 5.58233 21.4496 5.66537 21.3258 5.75109C21.0888 5.94663 20.7954 6.10735 20.4965 6.20646C20.2031 6.3029 19.8881 6.39397 19.5731 6.39397C19.2258 6.39397 18.9081 6.35915 18.6092 6.28415L17.5027 8.16457L17.0881 8.02796V8.03064ZM18.4584 4.30997C18.515 4.34747 18.5742 4.39033 18.6281 4.41712C18.6738 4.44122 18.7196 4.46533 18.7654 4.49212C18.7977 4.51087 18.83 4.52962 18.8542 4.54033L18.8838 4.54837C19.0481 4.60998 19.2069 4.63944 19.3711 4.63944C19.8827 4.63944 20.3565 4.3689 20.6123 3.9296C20.9623 3.32958 20.8384 2.58759 20.3188 2.159L20.2865 2.13757C20.2273 2.09739 20.1654 2.05453 20.1115 2.02507C20.0658 2.00096 20.02 1.97685 19.9742 1.95006C19.9419 1.93131 19.9096 1.91256 19.8854 1.90185L19.8558 1.89381C19.6915 1.8322 19.5327 1.80274 19.3684 1.80274C18.8569 1.80274 18.3831 2.07328 18.1273 2.51258C17.7934 3.08582 17.92 3.84388 18.4208 4.28318L18.4584 4.30997Z" fill="#80AECF"/>
<path d="M17.0881 8.03064C16.9858 7.99581 16.8996 7.94224 16.8242 7.8967L16.8 7.88063C16.8 7.88063 16.7758 7.86456 16.765 7.8592C16.6384 7.81902 16.4581 7.70652 16.3665 7.64491L15.9492 7.36633L17.0531 5.44304C16.8215 5.21268 16.6277 4.93678 16.485 4.63944C16.3234 4.3689 16.2561 4.06621 16.2023 3.82245L16.1861 3.74745V3.73138C16.1538 3.41529 16.1538 3.14743 16.1808 2.84742C16.1808 2.62509 16.2319 2.3974 16.3315 2.16703C16.3638 2.08667 16.4554 1.86702 16.5604 1.65541C17.1608 0.626801 18.2511 -0.00268555 19.4142 -0.00268555C19.9661 -0.00268555 20.5127 0.139284 20.9946 0.409829C22.5508 1.31254 23.0865 3.2894 22.1927 4.81624C22.1119 4.93946 22.05 5.01714 21.9854 5.09482C21.9369 5.15643 21.8938 5.20732 21.8508 5.27161L21.8077 5.3359L21.7484 5.38679C21.6973 5.42965 21.6542 5.46983 21.6138 5.50733C21.5358 5.58233 21.4496 5.66537 21.3258 5.75109C21.0888 5.94663 20.7954 6.10735 20.4965 6.20646C20.2031 6.3029 19.8881 6.39397 19.5731 6.39397C19.2258 6.39397 18.9081 6.35915 18.6092 6.28415L17.5027 8.16457L17.0881 8.02796V8.03064ZM18.4584 4.30997C18.515 4.34747 18.5742 4.39033 18.6281 4.41712C18.6738 4.44122 18.7196 4.46533 18.7654 4.49212C18.7977 4.51087 18.83 4.52962 18.8542 4.54033L18.8838 4.54837C19.0481 4.60998 19.2069 4.63944 19.3711 4.63944C19.8827 4.63944 20.3565 4.3689 20.6123 3.9296C20.9623 3.32958 20.8384 2.58759 20.3188 2.159L20.2865 2.13757C20.2273 2.09739 20.1654 2.05453 20.1115 2.02507C20.0658 2.00096 20.02 1.97685 19.9742 1.95006C19.9419 1.93131 19.9096 1.91256 19.8854 1.90185L19.8558 1.89381C19.6915 1.8322 19.5327 1.80274 19.3684 1.80274C18.8569 1.80274 18.3831 2.07328 18.1273 2.51258C17.7934 3.08582 17.92 3.84388 18.4208 4.28318L18.4584 4.30997Z" fill="#80AECF"/>
<path d="M9.39397 6.32971C9.14089 6.39668 8.87704 6.4315 8.60781 6.4315C8.53243 6.4315 8.45974 6.42882 8.38704 6.42346H8.38435C8.06397 6.42346 7.76781 6.32435 7.50397 6.23596C7.19704 6.10202 6.95743 5.98416 6.71512 5.80737C6.49435 5.68951 6.31935 5.5395 6.17935 5.34396C6.07704 5.23949 5.90743 5.04127 5.79166 4.81358C5.37435 4.07695 5.26666 3.20639 5.49281 2.376C5.72166 1.54293 6.25743 0.854515 7.00589 0.436643C7.49051 0.158062 8.04243 0.00805664 8.60243 0.00805664C9.76281 0.00805664 10.837 0.642901 11.4024 1.66347C11.4805 1.82151 11.5344 1.93938 11.5963 2.0867L11.669 2.25814L11.6797 2.32778C11.6851 2.37332 11.6986 2.4135 11.712 2.45368C11.747 2.56886 11.7847 2.69476 11.7928 2.85548C11.852 3.1796 11.8467 3.50907 11.782 3.80641C11.7309 4.03409 11.642 4.36357 11.4967 4.65287C11.327 4.96895 11.1359 5.23146 10.9178 5.45914L12.1051 7.52707L11.4994 7.72797L11.4482 7.76012C11.3728 7.80833 11.2867 7.86191 11.1844 7.89405C11.1709 7.89941 11.0955 7.93959 11.0174 7.99316L10.5382 8.31192L9.39935 6.32703L9.39397 6.32971ZM8.59166 1.79473C8.4382 1.79473 8.28743 1.81884 8.14204 1.86973C8.09358 1.88312 8.02897 1.91259 7.94281 1.96884L7.89974 1.99563C7.82166 2.03581 7.73281 2.1001 7.64666 2.16438C7.14589 2.58493 7.01666 3.35103 7.35589 3.9323C7.61166 4.36893 8.08551 4.64215 8.59704 4.64215C8.76128 4.64215 8.92012 4.61269 9.07089 4.55911L9.11397 4.54572C9.14089 4.535 9.1732 4.51625 9.20281 4.4975C9.25128 4.47072 9.29704 4.44393 9.34281 4.41982C9.39666 4.39303 9.47743 4.35285 9.49897 4.33143C10.0428 3.87069 10.1828 3.09656 9.84358 2.51529C9.58512 2.07063 9.1032 1.79473 8.59166 1.79473Z" fill="#80AECF"/>
<path d="M9.39397 6.32971C9.14089 6.39668 8.87704 6.4315 8.60781 6.4315C8.53243 6.4315 8.45974 6.42882 8.38704 6.42346H8.38435C8.06397 6.42346 7.76781 6.32435 7.50397 6.23596C7.19704 6.10202 6.95743 5.98416 6.71512 5.80737C6.49435 5.68951 6.31935 5.5395 6.17935 5.34396C6.07704 5.23949 5.90743 5.04127 5.79166 4.81358C5.37435 4.07695 5.26666 3.20639 5.49281 2.376C5.72166 1.54293 6.25743 0.854515 7.00589 0.436643C7.49051 0.158062 8.04243 0.00805664 8.60243 0.00805664C9.76281 0.00805664 10.837 0.642901 11.4024 1.66347C11.4805 1.82151 11.5344 1.93938 11.5963 2.0867L11.669 2.25814L11.6797 2.32778C11.6851 2.37332 11.6986 2.4135 11.712 2.45368C11.747 2.56886 11.7847 2.69476 11.7928 2.85548C11.852 3.1796 11.8467 3.50907 11.782 3.80641C11.7309 4.03409 11.642 4.36357 11.4967 4.65287C11.327 4.96895 11.1359 5.23146 10.9178 5.45914L12.1051 7.52707L11.4994 7.72797L11.4482 7.76012C11.3728 7.80833 11.2867 7.86191 11.1844 7.89405C11.1709 7.89941 11.0955 7.93959 11.0174 7.99316L10.5382 8.31192L9.39935 6.32703L9.39397 6.32971ZM8.59166 1.79473C8.4382 1.79473 8.28743 1.81884 8.14204 1.86973C8.09358 1.88312 8.02897 1.91259 7.94281 1.96884L7.89974 1.99563C7.82166 2.03581 7.73281 2.1001 7.64666 2.16438C7.14589 2.58493 7.01666 3.35103 7.35589 3.9323C7.61166 4.36893 8.08551 4.64215 8.59704 4.64215C8.76128 4.64215 8.92012 4.61269 9.07089 4.55911L9.11397 4.54572C9.14089 4.535 9.1732 4.51625 9.20281 4.4975C9.25128 4.47072 9.29704 4.44393 9.34281 4.41982C9.39666 4.39303 9.47743 4.35285 9.49897 4.33143C10.0428 3.87069 10.1828 3.09656 9.84358 2.51529C9.58512 2.07063 9.1032 1.79473 8.59166 1.79473Z" fill="#80AECF"/>
<path d="M3.23077 15.7184C1.44846 15.7184 0 14.2773 0 12.504C0 10.7307 1.44846 9.28961 3.23077 9.28961C3.43808 9.28961 3.61577 9.3164 3.78538 9.34051L3.88231 9.3539L3.90115 9.35926C3.96308 9.37801 4.00346 9.38872 4.04654 9.39944C4.19461 9.43694 4.35346 9.47712 4.52308 9.56284C4.83 9.69945 5.09654 9.86017 5.30654 10.037C5.57846 10.2673 5.78038 10.4923 5.92308 10.7227C6.11154 11.0281 6.24615 11.3227 6.335 11.6227H8.61808V13.3907H6.33769C6.24615 13.7174 6.10077 14.0282 5.91769 14.3041C5.78038 14.5237 5.58115 14.7434 5.30923 14.9764C5.02115 15.1934 4.76808 15.3434 4.50423 15.4613C4.305 15.5604 4.08692 15.63 3.85 15.6622C3.68846 15.6889 3.46769 15.7211 3.23615 15.7211L3.23077 15.7184ZM3.23077 11.0843C2.53346 11.0843 1.94115 11.5745 1.82269 12.2495C1.80385 12.3272 1.80385 12.4263 1.80385 12.504C1.80385 12.571 1.80385 12.6781 1.81462 12.7237C1.94115 13.4282 2.53346 13.9237 3.23077 13.9237C3.92808 13.9237 4.52038 13.4335 4.63885 12.7585C4.65769 12.6808 4.65769 12.5817 4.65769 12.504C4.65769 12.437 4.65769 12.3272 4.64692 12.2844C4.52038 11.5799 3.92808 11.0843 3.23077 11.0843Z" fill="#80AECF"/>
<path d="M3.23077 15.7184C1.44846 15.7184 0 14.2773 0 12.504C0 10.7307 1.44846 9.28961 3.23077 9.28961C3.43808 9.28961 3.61577 9.3164 3.78538 9.34051L3.88231 9.3539L3.90115 9.35926C3.96308 9.37801 4.00346 9.38872 4.04654 9.39944C4.19461 9.43694 4.35346 9.47712 4.52308 9.56284C4.83 9.69945 5.09654 9.86017 5.30654 10.037C5.57846 10.2673 5.78038 10.4923 5.92308 10.7227C6.11154 11.0281 6.24615 11.3227 6.335 11.6227H8.61808V13.3907H6.33769C6.24615 13.7174 6.10077 14.0282 5.91769 14.3041C5.78038 14.5237 5.58115 14.7434 5.30923 14.9764C5.02115 15.1934 4.76808 15.3434 4.50423 15.4613C4.305 15.5604 4.08692 15.63 3.85 15.6622C3.68846 15.6889 3.46769 15.7211 3.23615 15.7211L3.23077 15.7184ZM3.23077 11.0843C2.53346 11.0843 1.94115 11.5745 1.82269 12.2495C1.80385 12.3272 1.80385 12.4263 1.80385 12.504C1.80385 12.571 1.80385 12.6781 1.81462 12.7237C1.94115 13.4282 2.53346 13.9237 3.23077 13.9237C3.92808 13.9237 4.52038 13.4335 4.63885 12.7585C4.65769 12.6808 4.65769 12.5817 4.65769 12.504C4.65769 12.437 4.65769 12.3272 4.64692 12.2844C4.52038 11.5799 3.92808 11.0843 3.23077 11.0843Z" fill="#80AECF"/>
<path d="M8.60979 25C8.0471 25 7.48979 24.85 6.9971 24.566C6.24863 24.1321 5.71017 23.4356 5.48402 22.6106C5.25517 21.7775 5.37094 20.9097 5.8071 20.165C5.88787 20.0444 5.94979 19.9641 6.01171 19.8864C6.06017 19.8248 6.10325 19.7739 6.14633 19.7096L6.17594 19.6668L6.27556 19.565C6.38594 19.4525 6.52325 19.3105 6.73325 19.2033C6.9621 19.0212 7.2421 18.8685 7.52748 18.7748C7.82094 18.6756 8.13863 18.5873 8.45094 18.5873C8.79556 18.5873 9.11325 18.6221 9.4094 18.6971L10.5563 16.6988L11.0356 17.0176C11.0571 17.0309 11.084 17.0443 11.1109 17.0577C11.2025 17.1033 11.2752 17.1408 11.3317 17.1783L11.3533 17.1943L11.3936 17.2292C11.4233 17.2533 11.4583 17.272 11.4852 17.2854C11.5363 17.3149 11.5848 17.3417 11.6252 17.3658L12.0452 17.6444L10.9413 19.5676C11.1729 19.8007 11.3667 20.0739 11.5094 20.3712C11.6709 20.6445 11.7383 20.9445 11.7921 21.1882L11.8083 21.2632V21.2793C11.8406 21.5954 11.8433 21.8659 11.8136 22.1633C11.8136 22.3856 11.7625 22.6133 11.6629 22.8437C11.6386 22.9053 11.5444 23.1383 11.434 23.3553C10.8363 24.3785 9.75402 25.0053 8.6044 25.0053L8.60979 25ZM8.62594 20.3686C8.1144 20.3686 7.64056 20.6391 7.38479 21.0784C7.0321 21.6811 7.16133 22.4285 7.68902 22.8597L7.71864 22.8865C7.73748 22.9026 7.77248 22.9187 7.7994 22.932C7.84787 22.9588 7.88825 22.9803 7.92325 23.0017C7.94479 23.0124 7.98517 23.0338 8.02556 23.0579C8.05517 23.0767 8.09017 23.0954 8.1144 23.1062L8.14402 23.1142C8.30825 23.1758 8.4671 23.2026 8.63133 23.2026C9.14287 23.2026 9.61671 22.932 9.87248 22.4927C10.2117 21.9115 10.0771 21.1427 9.56017 20.7061C9.50902 20.6579 9.44171 20.623 9.37171 20.5882C9.32594 20.5641 9.27748 20.5373 9.23171 20.5105C9.2021 20.4945 9.16979 20.473 9.14556 20.4623L9.11594 20.4516C8.95171 20.39 8.79287 20.3632 8.62863 20.3632L8.62594 20.3686Z" fill="#80AECF"/>
<path d="M8.60979 25C8.0471 25 7.48979 24.85 6.9971 24.566C6.24863 24.1321 5.71017 23.4356 5.48402 22.6106C5.25517 21.7775 5.37094 20.9097 5.8071 20.165C5.88787 20.0444 5.94979 19.9641 6.01171 19.8864C6.06017 19.8248 6.10325 19.7739 6.14633 19.7096L6.17594 19.6668L6.27556 19.565C6.38594 19.4525 6.52325 19.3105 6.73325 19.2033C6.9621 19.0212 7.2421 18.8685 7.52748 18.7748C7.82094 18.6756 8.13863 18.5873 8.45094 18.5873C8.79556 18.5873 9.11325 18.6221 9.4094 18.6971L10.5563 16.6988L11.0356 17.0176C11.0571 17.0309 11.084 17.0443 11.1109 17.0577C11.2025 17.1033 11.2752 17.1408 11.3317 17.1783L11.3533 17.1943L11.3936 17.2292C11.4233 17.2533 11.4583 17.272 11.4852 17.2854C11.5363 17.3149 11.5848 17.3417 11.6252 17.3658L12.0452 17.6444L10.9413 19.5676C11.1729 19.8007 11.3667 20.0739 11.5094 20.3712C11.6709 20.6445 11.7383 20.9445 11.7921 21.1882L11.8083 21.2632V21.2793C11.8406 21.5954 11.8433 21.8659 11.8136 22.1633C11.8136 22.3856 11.7625 22.6133 11.6629 22.8437C11.6386 22.9053 11.5444 23.1383 11.434 23.3553C10.8363 24.3785 9.75402 25.0053 8.6044 25.0053L8.60979 25ZM8.62594 20.3686C8.1144 20.3686 7.64056 20.6391 7.38479 21.0784C7.0321 21.6811 7.16133 22.4285 7.68902 22.8597L7.71864 22.8865C7.73748 22.9026 7.77248 22.9187 7.7994 22.932C7.84787 22.9588 7.88825 22.9803 7.92325 23.0017C7.94479 23.0124 7.98517 23.0338 8.02556 23.0579C8.05517 23.0767 8.09017 23.0954 8.1144 23.1062L8.14402 23.1142C8.30825 23.1758 8.4671 23.2026 8.63133 23.2026C9.14287 23.2026 9.61671 22.932 9.87248 22.4927C10.2117 21.9115 10.0771 21.1427 9.56017 20.7061C9.50902 20.6579 9.44171 20.623 9.37171 20.5882C9.32594 20.5641 9.27748 20.5373 9.23171 20.5105C9.2021 20.4945 9.16979 20.473 9.14556 20.4623L9.11594 20.4516C8.95171 20.39 8.79287 20.3632 8.62863 20.3632L8.62594 20.3686Z" fill="#80AECF"/>
<path d="M19.3934 24.9893C18.2384 24.9893 17.1615 24.3732 16.58 23.3821C16.4938 23.2134 16.4427 23.0928 16.3807 22.9482L16.308 22.7741L16.2973 22.7044C16.2919 22.6589 16.2784 22.6187 16.265 22.5785C16.23 22.4633 16.1923 22.3374 16.1842 22.1767C16.125 21.8526 16.1277 21.5231 16.195 21.2258C16.2461 20.9981 16.3377 20.666 16.4803 20.3793C16.65 20.0633 16.8411 19.7981 17.0592 19.5731L15.9473 17.6391L16.3646 17.3605C16.4103 17.331 16.4669 17.2935 16.5261 17.2587C16.5746 17.2292 16.623 17.1971 16.6607 17.173C16.7173 17.1355 16.7927 17.0953 16.868 17.0578C16.9138 17.0364 16.938 17.023 16.9569 17.0122L17.4334 16.6962L18.5992 18.6784C18.855 18.6114 19.1188 18.5766 19.388 18.5766C19.4634 18.5766 19.5388 18.5793 19.6088 18.5846H19.6115C19.9292 18.5846 20.228 18.6837 20.4919 18.7721C20.7988 18.9061 21.0384 19.0239 21.2807 19.2007C21.5015 19.3186 21.6765 19.4686 21.8165 19.6615C21.9188 19.7659 22.0884 19.9615 22.2042 20.1918C22.6161 20.9204 22.7238 21.7856 22.503 22.616C22.2796 23.4544 21.7411 24.1482 20.9927 24.5688C20.5027 24.842 19.948 24.9866 19.388 24.9866L19.3934 24.9893ZM18.8227 20.5052C18.7823 20.524 18.7446 20.5401 18.7176 20.5561L18.7042 20.5668L18.6746 20.5829C18.6046 20.6177 18.5238 20.6579 18.5023 20.6793C17.9584 21.1374 17.8184 21.9142 18.1577 22.4955C18.4161 22.9401 18.8765 23.2053 19.388 23.2053C19.5442 23.2053 19.7003 23.1785 19.8511 23.1276L20.1446 22.9803C20.1984 22.9535 20.2792 22.9134 20.3007 22.8919C20.8446 22.4312 20.9846 21.6571 20.6453 21.0758C20.3896 20.6392 19.9157 20.3659 19.4042 20.3659C19.248 20.3659 19.0973 20.3927 18.9546 20.4409C18.9223 20.457 18.8253 20.5026 18.8253 20.5026L18.8227 20.5052Z" fill="#80AECF"/>
<path d="M19.3934 24.9893C18.2384 24.9893 17.1615 24.3732 16.58 23.3821C16.4938 23.2134 16.4427 23.0928 16.3807 22.9482L16.308 22.7741L16.2973 22.7044C16.2919 22.6589 16.2784 22.6187 16.265 22.5785C16.23 22.4633 16.1923 22.3374 16.1842 22.1767C16.125 21.8526 16.1277 21.5231 16.195 21.2258C16.2461 20.9981 16.3377 20.666 16.4803 20.3793C16.65 20.0633 16.8411 19.7981 17.0592 19.5731L15.9473 17.6391L16.3646 17.3605C16.4103 17.331 16.4669 17.2935 16.5261 17.2587C16.5746 17.2292 16.623 17.1971 16.6607 17.173C16.7173 17.1355 16.7927 17.0953 16.868 17.0578C16.9138 17.0364 16.938 17.023 16.9569 17.0122L17.4334 16.6962L18.5992 18.6784C18.855 18.6114 19.1188 18.5766 19.388 18.5766C19.4634 18.5766 19.5388 18.5793 19.6088 18.5846H19.6115C19.9292 18.5846 20.228 18.6837 20.4919 18.7721C20.7988 18.9061 21.0384 19.0239 21.2807 19.2007C21.5015 19.3186 21.6765 19.4686 21.8165 19.6615C21.9188 19.7659 22.0884 19.9615 22.2042 20.1918C22.6161 20.9204 22.7238 21.7856 22.503 22.616C22.2796 23.4544 21.7411 24.1482 20.9927 24.5688C20.5027 24.842 19.948 24.9866 19.388 24.9866L19.3934 24.9893ZM18.8227 20.5052C18.7823 20.524 18.7446 20.5401 18.7176 20.5561L18.7042 20.5668L18.6746 20.5829C18.6046 20.6177 18.5238 20.6579 18.5023 20.6793C17.9584 21.1374 17.8184 21.9142 18.1577 22.4955C18.4161 22.9401 18.8765 23.2053 19.388 23.2053C19.5442 23.2053 19.7003 23.1785 19.8511 23.1276L20.1446 22.9803C20.1984 22.9535 20.2792 22.9134 20.3007 22.8919C20.8446 22.4312 20.9846 21.6571 20.6453 21.0758C20.3896 20.6392 19.9157 20.3659 19.4042 20.3659C19.248 20.3659 19.0973 20.3927 18.9546 20.4409C18.9223 20.457 18.8253 20.5026 18.8253 20.5026L18.8227 20.5052Z" fill="#80AECF"/>
<path d="M13.9995 17.5131C11.2237 17.5131 8.96484 15.2657 8.96484 12.504C8.96484 9.74234 11.2237 7.49493 13.9995 7.49493C16.7752 7.49493 19.0341 9.74234 19.0341 12.504C19.0341 15.2657 16.7752 17.5131 13.9995 17.5131ZM13.9995 9.28964C12.2172 9.28964 10.7687 10.7308 10.7687 12.504C10.7687 14.2773 12.2172 15.7184 13.9995 15.7184C15.7818 15.7184 17.2302 14.2773 17.2302 12.504C17.2302 10.7308 15.7818 9.28964 13.9995 9.28964Z" fill="#80AECF"/>
</g>
<defs>
<clipPath id="clip0_1584_12439">
<rect width="28" height="25" fill="white"/>
</clipPath>
</defs>
</svg>
