<svg width="27" height="27" viewBox="0 0 27 27" fill="none" xmlns="http://www.w3.org/2000/svg">
<g clip-path="url(#clip0_1584_10294)">
<path d="M22.9887 26.9998H4.00704C3.95916 26.9836 3.91197 26.959 3.86268 26.952C2.07676 26.6949 0.614789 25.396 0.154225 23.6527C0.0964789 23.4343 0.0507042 23.2124 0 22.9927C0 16.6653 0 10.3386 0 4.01125C0.0161972 3.96265 0.0401408 3.91545 0.0471831 3.86544C0.36338 1.67203 2.2338 0.0118204 4.44648 0.00759413C10.4817 -0.00226708 16.5176 -0.00367583 22.5535 0.0082985C24.9866 0.0132291 26.9859 2.01153 26.9916 4.44584C27.0042 10.4816 27.0021 16.5174 26.9923 22.5531C26.9894 24.5698 25.5979 26.3321 23.6493 26.8449C23.431 26.9026 23.2092 26.9484 22.9894 26.9991L22.9887 26.9998ZM13.4972 2.25806C10.5451 2.25806 7.59225 2.25666 4.64014 2.25806C3.18873 2.25947 2.25493 3.19558 2.25493 4.65152C2.25352 10.5563 2.25352 16.461 2.25493 22.3658C2.25493 23.8034 3.19296 24.7444 4.62817 24.7444C10.5415 24.7466 16.4549 24.7466 22.369 24.7444C23.8035 24.7444 24.7408 23.8027 24.7415 22.3644C24.7437 16.4596 24.743 10.5549 24.7408 4.65011C24.7408 4.45782 24.738 4.26059 24.7 4.07323C24.4746 2.95891 23.581 2.25947 22.3817 2.25806C19.4204 2.25525 16.4592 2.25736 13.4979 2.25736L13.4972 2.25806Z" fill="#80AECF"/>
<path d="M14.6189 12.9337C14.6189 14.6122 14.6189 16.2907 14.6189 17.9685C14.6189 18.4313 14.4224 18.7842 14.0098 18.9969C13.6069 19.204 13.2098 19.1681 12.8414 18.9075C12.5605 18.7088 12.4062 18.4313 12.3837 18.0855C12.3837 18.077 12.3823 18.0679 12.3823 18.0594C12.3823 14.6502 12.3774 11.2404 12.3858 7.83121C12.3872 7.19376 12.94 6.7169 13.5724 6.75493C14.1745 6.79156 14.6154 7.27476 14.6175 7.9249C14.6231 9.33082 14.6196 10.7367 14.6196 12.1427C14.6196 12.4061 14.6196 12.6703 14.6196 12.9337H14.6189Z" fill="#80AECF"/>
<path d="M20.248 14.6242C20.248 15.7477 20.2515 16.8711 20.2466 17.9946C20.2445 18.5011 19.9311 18.923 19.4691 19.0716C19.0219 19.2153 18.5128 19.0829 18.2501 18.6877C18.1121 18.4799 18.0079 18.2052 18.0058 17.9594C17.9874 15.7392 17.991 13.5183 17.9973 11.2981C17.9994 10.6177 18.4888 10.1268 19.1276 10.1282C19.7656 10.1303 20.2452 10.629 20.2473 11.3066C20.2508 12.4125 20.248 13.5183 20.248 14.6242Z" fill="#80AECF"/>
<path d="M6.74899 15.7343C6.74899 15.0144 6.74687 14.2945 6.74899 13.5754C6.7511 12.8872 7.21025 12.3934 7.8511 12.3836C8.51025 12.3737 8.99617 12.8576 9.00039 13.5571C9.00814 15.0144 9.00673 16.471 9.0011 17.9284C8.99828 18.6222 8.50955 19.1315 7.86941 19.1286C7.22504 19.1258 6.7511 18.6166 6.74969 17.9199C6.74758 17.1916 6.74969 16.4626 6.74969 15.7343H6.74899Z" fill="#80AECF"/>
</g>
<defs>
<clipPath id="clip0_1584_10294">
<rect width="27" height="27" fill="white"/>
</clipPath>
</defs>
</svg>
