<svg width="87" height="76" viewBox="0 0 87 76" fill="none" xmlns="http://www.w3.org/2000/svg">
<path d="M43.606 59.7168C46.5161 59.6631 49.9107 59.2199 53.275 58.2228C56.2827 57.3297 59.1323 56.1312 61.8641 54.664C63.8827 53.583 65.8542 52.3978 67.6608 50.934C69.0839 49.7825 70.6753 48.8256 72.0479 47.6002C73.4542 46.3446 74.8874 45.1225 76.1961 43.746C76.7983 43.1115 77.4375 42.4601 78.1037 41.8592C79.3215 40.758 80.3779 39.4822 81.5083 38.2836C81.69 38.0922 81.7203 37.9311 81.5184 37.7229C79.843 36.004 78.2046 34.2448 76.4888 32.5661C75.0926 31.1963 73.619 29.9037 72.1589 28.5977C70.0831 26.7378 67.8358 25.1061 65.5447 23.5651C63.7179 22.3363 61.8069 21.178 59.7446 20.3253C59.0482 20.0365 58.3922 19.6504 57.6924 19.3651C51.8923 16.9982 45.887 15.7324 39.6126 16.3972C36.4636 16.7296 33.3886 17.4715 30.391 18.6063C27.7702 19.5967 25.2671 20.7919 22.8381 22.1517C20.9036 23.2361 19.1003 24.5286 17.3105 25.8514C13.4012 28.7354 9.89558 32.0323 6.59183 35.5675C5.9728 36.2289 5.41432 36.9541 4.73809 37.545C4.33437 37.8975 4.29737 38.1493 4.66071 38.4481C5.45806 39.0961 5.92569 40.0429 6.79705 40.6438C7.36562 41.0366 7.71551 41.7114 8.21343 42.2318C9.36739 43.4438 10.6357 44.5417 11.8065 45.7335C12.5063 46.4453 13.3205 47.1033 14.138 47.7311C15.1305 48.4933 16.0725 49.3359 17.0851 50.0846C19.6487 51.9782 22.2964 53.7105 25.1494 55.1676C27.0065 56.1144 28.877 57.0746 30.8384 57.6789C33.0353 58.3537 35.2053 59.183 37.5839 59.3206C39.4006 59.4247 41.2173 59.7168 43.6161 59.7168H43.606ZM26.2428 38.1393C26.1486 29.098 33.7418 21.4332 42.9701 21.403C52.296 21.3728 59.9095 29.192 59.711 38.4783C59.5259 47.2107 52.1614 54.8487 42.7111 54.7177C33.8192 54.5969 26.3 47.0899 26.2428 38.1393ZM61.8843 48.8021C65.5514 41.6074 65.5548 34.6174 62.0828 27.6342C62.4024 27.4932 62.5774 27.6207 62.8095 27.7685C64.7978 29.0711 66.6986 30.5114 68.4986 32.0423C70.4532 33.7042 72.3339 35.4702 74.1472 37.2999C74.8335 37.9949 74.6687 38.4851 74.0497 38.8812C73.2456 39.3983 72.677 40.157 72.0244 40.7983C70.4667 42.3258 68.8013 43.7158 67.1394 45.1091C65.5682 46.4218 63.8491 47.5364 61.8877 48.8021H61.8843ZM23.7061 27.4562C23.77 27.51 23.8306 27.5637 23.8945 27.6207C22.209 30.921 21.304 34.4059 21.2905 38.1158C21.2771 41.8155 22.3065 45.2534 23.8608 48.5973C23.1039 47.9762 22.1821 47.7177 21.4621 47.1033C20.5571 46.3311 19.5848 45.6261 18.6428 44.9009C17.3105 43.8803 16.0859 42.7354 14.7873 41.6812C13.7915 40.8755 12.9066 39.8985 11.968 39.0021C11.6585 38.7066 10.9183 38.287 11.5105 37.6625C12.4457 36.6788 13.455 35.7656 14.4239 34.8121C16.3416 32.9253 18.451 31.2567 20.5436 29.5747C21.5294 28.7824 22.6463 28.1579 23.7061 27.4562Z" fill="white"/>
<path d="M77.9682 75.9831C80.4376 75.9831 82.907 75.9696 85.3764 75.9931C85.9349 75.9999 86.1367 75.879 86.1334 75.268C86.1064 70.3025 86.1031 65.3336 86.1266 60.3681C86.1266 59.7504 85.9012 59.6329 85.3528 59.6497C84.2157 59.6866 83.0685 59.7269 81.9347 59.6497C81.0903 59.5892 80.9624 59.9216 80.9725 60.667C81.0129 63.7658 80.9691 66.8679 81.0061 69.9667C81.0162 70.6651 80.8548 70.8833 80.1247 70.8732C76.9589 70.8329 73.7931 70.8766 70.6272 70.8464C69.9544 70.8397 69.7458 71.0478 69.7693 71.7058C69.8131 72.9078 69.8063 74.1097 69.7693 75.3116C69.7525 75.8555 69.9308 75.9999 70.4624 75.9931C72.9621 75.9663 75.4651 75.9831 77.9648 75.9831H77.9682Z" fill="white"/>
<path d="M86.1129 8.18177C86.1129 5.71413 86.0893 3.2465 86.1297 0.77886C86.1398 0.140968 85.948 -0.00339508 85.3357 -3.8147e-05C80.4272 0.0234642 75.522 0.0268211 70.6135 -3.8147e-05C69.9305 -0.00339508 69.7455 0.218189 69.7691 0.866154C69.8128 2.0345 69.8195 3.20957 69.7691 4.37792C69.7388 5.02924 69.9877 5.15681 70.5798 5.15346C73.7154 5.12996 76.8509 5.17696 79.9831 5.11989C80.8578 5.1031 81.026 5.37504 81.0126 6.18416C80.9655 9.25276 81.026 12.3214 80.9756 15.39C80.9621 16.2058 81.2212 16.4106 81.9916 16.3602C83.0312 16.2931 84.0876 16.2729 85.1238 16.3602C86.0153 16.4374 86.1566 16.095 86.1364 15.2993C86.086 12.929 86.1196 10.5554 86.1162 8.18177H86.1129Z" fill="white"/>
<path d="M0.0170422 67.798C0.0170422 70.2656 0.0372281 72.7333 0.000220657 75.1976C-0.00650797 75.8019 0.138157 76.0033 0.777377 76C5.65227 75.9731 10.5238 75.9697 15.3987 75.9932C16.0446 75.9932 16.196 75.7817 16.1725 75.1774C16.1254 74.0091 16.1086 72.8374 16.1657 71.669C16.2028 70.9573 15.9168 70.8431 15.2944 70.8465C12.1622 70.8733 9.02667 70.8364 5.8945 70.8733C5.16108 70.88 4.92558 70.6887 4.93567 69.9266C4.9794 66.7975 4.92894 63.6651 4.96931 60.5361C4.9794 59.8109 4.76745 59.6095 4.06431 59.6464C2.96082 59.7035 1.84723 59.6934 0.743734 59.6464C0.14825 59.6229 -0.00314366 59.8176 0.00358497 60.3951C0.0338638 62.8627 0.0170422 65.327 0.0204065 67.7946L0.0170422 67.798Z" fill="white"/>
<path d="M0.0179199 8.23207C0.0179199 10.6359 0.0414701 13.0398 0.00446261 15.4436C-0.00563033 16.1151 0.115485 16.4105 0.872455 16.3568C1.91203 16.2863 2.96506 16.2829 4.00463 16.3568C4.83898 16.4172 4.98365 16.0849 4.97355 15.3328C4.93318 12.2642 4.98365 9.19563 4.93991 6.12703C4.92982 5.3582 5.09803 5.1064 5.9122 5.11983C9.04437 5.17019 12.1799 5.12319 15.3155 5.1534C15.958 5.16012 16.2104 5.00904 16.1801 4.32079C16.1229 3.12222 16.1397 1.91694 16.1734 0.715015C16.1868 0.191273 16.0556 0.00326347 15.4938 0.00326347C10.5549 0.023407 5.61614 0.023407 0.677325 0.00326347C0.105392 0.00326347 0.00782692 0.234922 0.0111912 0.735164C0.0313771 3.23302 0.0212842 5.73422 0.0212842 8.23207H0.0179199Z" fill="white"/>
<path d="M51.1385 38.0487C51.2731 33.9259 47.7574 29.8938 43.0877 29.9273C38.5526 29.9609 34.9024 33.3451 34.8452 38.1394C34.7947 42.6147 39.0539 46.1432 42.9633 46.2372C47.1316 46.338 51.4211 42.1547 51.1419 38.0521L51.1385 38.0487ZM46.1392 38.0353C45.9541 39.8113 44.8977 41.0569 42.9666 41.077C41.1028 41.0972 39.9118 39.6434 39.8277 38.0722C39.7402 36.4741 41.4325 34.8022 43.0003 34.819C44.5546 34.8357 46.1459 36.4674 46.1392 38.0319V38.0353Z" fill="white"/>
</svg>
