<svg width="132" height="132" viewBox="0 0 132 132" fill="none" xmlns="http://www.w3.org/2000/svg">
<g filter="url(#filter0_d_1838_705)">
<circle cx="66" cy="66" r="56" fill="url(#paint0_linear_1838_705)" shape-rendering="crispEdges"/>
<circle cx="66" cy="66" r="55" stroke="#50ACFF" stroke-width="2" shape-rendering="crispEdges"/>
</g>
<path d="M49.4682 41.12H51.7882L53.1322 50.112H53.3722L55.3242 41.12H57.8842L59.8362 50.112H60.0762L61.4202 41.12H63.7402L61.6602 52H58.3162L56.6042 43.728L54.8922 52H51.5482L49.4682 41.12ZM65.0312 52V44H67.1752V52H65.0312ZM65.0312 42.976V40.8H67.1752V42.976H65.0312ZM73.5882 45.824H71.6202V49.104C71.6202 49.424 71.6255 49.6533 71.6362 49.792C71.6575 49.92 71.7162 50.032 71.8122 50.128C71.9189 50.224 72.0789 50.272 72.2922 50.272L73.5082 50.24L73.6042 51.952C72.8895 52.112 72.3455 52.192 71.9722 52.192C71.0122 52.192 70.3562 51.9787 70.0042 51.552C69.6522 51.1147 69.4762 50.3147 69.4762 49.152V45.824H68.5322V44H69.4762V41.776H71.6202V44H73.5882V45.824ZM77.1283 52H74.9843V40.8H77.1283V44.384C77.8643 44 78.5256 43.808 79.1123 43.808C80.179 43.808 80.915 44.1227 81.3203 44.752C81.7256 45.3813 81.9283 46.352 81.9283 47.664V52H79.7843V47.712C79.7843 47.04 79.7043 46.544 79.5443 46.224C79.3843 45.8933 79.0643 45.728 78.5843 45.728C78.1683 45.728 77.7523 45.792 77.3363 45.92L77.1283 45.984V52ZM40.825 62.848C39.6623 62.848 39.081 63.232 39.081 64C39.081 64.3413 39.225 64.6027 39.513 64.784C39.801 64.9653 40.473 65.2267 41.529 65.568C42.5957 65.9093 43.3423 66.2987 43.769 66.736C44.1957 67.1627 44.409 67.824 44.409 68.72C44.409 69.8613 44.0623 70.7253 43.369 71.312C42.6757 71.8987 41.769 72.192 40.649 72.192C39.817 72.192 38.7983 72.064 37.593 71.808L37.017 71.696L37.241 69.984C38.6703 70.176 39.7637 70.272 40.521 70.272C41.6517 70.272 42.217 69.8027 42.217 68.864C42.217 68.5227 42.0837 68.256 41.817 68.064C41.561 67.872 41.0437 67.664 40.265 67.44C39.0277 67.088 38.153 66.672 37.641 66.192C37.1397 65.7013 36.889 65.024 36.889 64.16C36.889 63.072 37.2197 62.2613 37.881 61.728C38.5423 61.1947 39.449 60.928 40.601 60.928C41.3903 60.928 42.393 61.0347 43.609 61.248L44.185 61.36L44.009 63.104C42.505 62.9333 41.4437 62.848 40.825 62.848ZM45.1467 64H47.2587L48.7147 70.176H49.0827L50.5387 64H52.6507L49.8347 75.36H47.7387L48.6187 72H47.1147L45.1467 64ZM56.0267 72H53.8827V64H56.0107V64.448C56.7361 64.0213 57.4027 63.808 58.0107 63.808C59.0774 63.808 59.8134 64.1227 60.2187 64.752C60.6241 65.3813 60.8267 66.352 60.8267 67.664V72H58.6827V67.728C58.6827 67.0453 58.6027 66.544 58.4427 66.224C58.2827 65.8933 57.9627 65.728 57.4827 65.728C57.0454 65.728 56.6241 65.8027 56.2187 65.952L56.0267 66.016V72ZM68.8545 66.496V69.824C68.8758 70.08 68.9185 70.2613 68.9825 70.368C69.0465 70.464 69.1798 70.5333 69.3825 70.576L69.3185 72.192C68.7745 72.192 68.3372 72.1547 68.0065 72.08C67.6865 72.0053 67.3612 71.856 67.0305 71.632C66.2625 72.0053 65.4785 72.192 64.6785 72.192C63.0252 72.192 62.1985 71.3173 62.1985 69.568C62.1985 68.7147 62.4278 68.112 62.8865 67.76C63.3452 67.3973 64.0492 67.184 64.9985 67.12L66.7105 66.992V66.496C66.7105 66.1653 66.6358 65.9413 66.4865 65.824C66.3372 65.696 66.0972 65.632 65.7665 65.632L62.7585 65.76L62.6945 64.272C63.8358 63.9627 64.9185 63.808 65.9425 63.808C66.9772 63.808 67.7185 64.0213 68.1665 64.448C68.6252 64.8747 68.8545 65.5573 68.8545 66.496ZM65.2545 68.608C64.6572 68.6613 64.3585 68.9813 64.3585 69.568C64.3585 70.1547 64.6198 70.448 65.1425 70.448C65.5478 70.448 65.9905 70.384 66.4705 70.256L66.7105 70.192V68.48L65.2545 68.608ZM70.8984 75.36V64H73.0264V64.432C73.7197 64.016 74.3277 63.808 74.8504 63.808C75.9277 63.808 76.7224 64.1333 77.2344 64.784C77.7464 65.424 78.0024 66.5173 78.0024 68.064C78.0024 69.6107 77.7197 70.688 77.1544 71.296C76.589 71.8933 75.661 72.192 74.3704 72.192C74.0184 72.192 73.6397 72.16 73.2344 72.096L73.0424 72.064V75.36H70.8984ZM74.4344 65.728C74.0397 65.728 73.6397 65.808 73.2344 65.968L73.0424 66.048V70.24C73.5224 70.304 73.9117 70.336 74.2104 70.336C74.829 70.336 75.2504 70.1547 75.4744 69.792C75.709 69.4293 75.8264 68.8107 75.8264 67.936C75.8264 66.464 75.3624 65.728 74.4344 65.728ZM84.0335 65.824H82.0655V69.104C82.0655 69.424 82.0708 69.6533 82.0815 69.792C82.1028 69.92 82.1615 70.032 82.2575 70.128C82.3642 70.224 82.5242 70.272 82.7375 70.272L83.9535 70.24L84.0495 71.952C83.3348 72.112 82.7908 72.192 82.4175 72.192C81.4575 72.192 80.8015 71.9787 80.4495 71.552C80.0975 71.1147 79.9215 70.3147 79.9215 69.152V65.824H78.9775V64H79.9215V61.776H82.0655V64H84.0335V65.824ZM85.4296 72V64H87.5736V72H85.4296ZM85.4296 62.976V60.8H87.5736V62.976H85.4296ZM92.5466 63.808C93.1013 63.808 93.8106 63.8933 94.6746 64.064L95.1066 64.16L95.0426 65.856C94.2 65.7707 93.576 65.728 93.1706 65.728C92.4346 65.728 91.944 65.888 91.6986 66.208C91.464 66.5173 91.3466 67.1093 91.3466 67.984C91.3466 68.8587 91.464 69.4613 91.6986 69.792C91.944 70.112 92.44 70.272 93.1866 70.272L95.0426 70.144L95.1066 71.856C93.9653 72.08 93.096 72.192 92.4986 72.192C91.3146 72.192 90.4613 71.8613 89.9386 71.2C89.4266 70.528 89.1706 69.456 89.1706 67.984C89.1706 66.512 89.4373 65.4507 89.9706 64.8C90.504 64.1387 91.3626 63.808 92.5466 63.808ZM37.7799 92L40.2279 81.12H44.4199L46.8679 92H44.6599L44.2279 90.032H40.4199L39.9879 92H37.7799ZM41.9399 82.944L40.8359 88.112H43.8119L42.7079 82.944H41.9399ZM47.1542 84H49.3942L50.6742 90.176H51.1222L52.4662 84H54.6422L52.7222 92H49.0742L47.1542 84ZM55.8749 92L55.8749 84H58.0189L58.0189 92H55.8749ZM55.8749 82.976V80.8H58.0189V82.976H55.8749ZM66.1279 86.496V89.824C66.1493 90.08 66.1919 90.2613 66.2559 90.368C66.3199 90.464 66.4533 90.5333 66.6559 90.576L66.5919 92.192C66.0479 92.192 65.6106 92.1547 65.2799 92.08C64.9599 92.0053 64.6346 91.856 64.3039 91.632C63.5359 92.0053 62.7519 92.192 61.9519 92.192C60.2986 92.192 59.4719 91.3173 59.4719 89.568C59.4719 88.7147 59.7013 88.112 60.1599 87.76C60.6186 87.3973 61.3226 87.184 62.2719 87.12L63.9839 86.992V86.496C63.9839 86.1653 63.9093 85.9413 63.7599 85.824C63.6106 85.696 63.3706 85.632 63.0399 85.632L60.0319 85.76L59.9679 84.272C61.1093 83.9627 62.1919 83.808 63.2159 83.808C64.2506 83.808 64.9919 84.0213 65.4399 84.448C65.8986 84.8747 66.1279 85.5573 66.1279 86.496ZM62.5279 88.608C61.9306 88.6613 61.6319 88.9813 61.6319 89.568C61.6319 90.1547 61.8933 90.448 62.4159 90.448C62.8213 90.448 63.2639 90.384 63.7439 90.256L63.9839 90.192V88.48L62.5279 88.608ZM72.6038 85.824H70.6358V89.104C70.6358 89.424 70.6411 89.6533 70.6518 89.792C70.6731 89.92 70.7318 90.032 70.8278 90.128C70.9345 90.224 71.0945 90.272 71.3078 90.272L72.5238 90.24L72.6198 91.952C71.9051 92.112 71.3611 92.192 70.9878 92.192C70.0278 92.192 69.3718 91.9787 69.0198 91.552C68.6678 91.1147 68.4918 90.3147 68.4918 89.152V85.824H67.5478V84H68.4918V81.776H70.6358V84H72.6038V85.824ZM73.9999 92V84H76.1439V92H73.9999ZM73.9999 82.976V80.8H76.1439V82.976H73.9999ZM78.5569 84.912C79.1223 84.176 80.0663 83.808 81.3889 83.808C82.7116 83.808 83.6556 84.176 84.2209 84.912C84.7863 85.6373 85.0689 86.6613 85.0689 87.984C85.0689 90.7893 83.8423 92.192 81.3889 92.192C78.9356 92.192 77.7089 90.7893 77.7089 87.984C77.7089 86.6613 77.9916 85.6373 78.5569 84.912ZM80.2049 89.792C80.4289 90.176 80.8236 90.368 81.3889 90.368C81.9543 90.368 82.3436 90.176 82.5569 89.792C82.7809 89.408 82.8929 88.8053 82.8929 87.984C82.8929 87.1627 82.7809 86.5653 82.5569 86.192C82.3436 85.8187 81.9543 85.632 81.3889 85.632C80.8236 85.632 80.4289 85.8187 80.2049 86.192C79.9916 86.5653 79.8849 87.1627 79.8849 87.984C79.8849 88.8053 79.9916 89.408 80.2049 89.792ZM88.7846 92H86.6406V84H88.7686V84.448C89.4939 84.0213 90.1606 83.808 90.7686 83.808C91.8352 83.808 92.5712 84.1227 92.9766 84.752C93.3819 85.3813 93.5846 86.352 93.5846 87.664V92H91.4406V87.728C91.4406 87.0453 91.3606 86.544 91.2006 86.224C91.0406 85.8933 90.7206 85.728 90.2406 85.728C89.8032 85.728 89.3819 85.8027 88.9766 85.952L88.7846 86.016V92Z" fill="white"/>
<defs>
<filter id="filter0_d_1838_705" x="0" y="0" width="132" height="132" filterUnits="userSpaceOnUse" color-interpolation-filters="sRGB">
<feFlood flood-opacity="0" result="BackgroundImageFix"/>
<feColorMatrix in="SourceAlpha" type="matrix" values="0 0 0 0 0 0 0 0 0 0 0 0 0 0 0 0 0 0 127 0" result="hardAlpha"/>
<feOffset/>
<feGaussianBlur stdDeviation="5"/>
<feComposite in2="hardAlpha" operator="out"/>
<feColorMatrix type="matrix" values="0 0 0 0 0.0352941 0 0 0 0 0.32549 0 0 0 0 0.588235 0 0 0 1 0"/>
<feBlend mode="normal" in2="BackgroundImageFix" result="effect1_dropShadow_1838_705"/>
<feBlend mode="normal" in="SourceGraphic" in2="effect1_dropShadow_1838_705" result="shape"/>
</filter>
<linearGradient id="paint0_linear_1838_705" x1="66" y1="10" x2="66" y2="122" gradientUnits="userSpaceOnUse">
<stop stop-color="#0F69BA"/>
<stop offset="1" stop-opacity="0"/>
</linearGradient>
</defs>
</svg>
