<svg width="132" height="132" viewBox="0 0 132 132" fill="none" xmlns="http://www.w3.org/2000/svg">
<g filter="url(#filter0_d_1838_632)">
<circle cx="66" cy="66" r="56" fill="url(#paint0_linear_1838_632)" shape-rendering="crispEdges"/>
<circle cx="66" cy="66" r="55" stroke="#50ACFF" stroke-width="2" shape-rendering="crispEdges"/>
</g>
<path d="M37.8743 41.12H40.1943L41.5383 50.112H41.7783L43.7303 41.12H46.2903L48.2423 50.112H48.4823L49.8263 41.12H52.1463L50.0663 52H46.7223L45.0103 43.728L43.2983 52H39.9543L37.8743 41.12ZM53.4373 52V44H55.5813V52H53.4373ZM53.4373 42.976V40.8H55.5813V42.976H53.4373ZM61.9943 45.824H60.0263V49.104C60.0263 49.424 60.0316 49.6533 60.0423 49.792C60.0636 49.92 60.1223 50.032 60.2183 50.128C60.325 50.224 60.485 50.272 60.6983 50.272L61.9143 50.24L62.0103 51.952C61.2956 52.112 60.7516 52.192 60.3783 52.192C59.4183 52.192 58.7623 51.9787 58.4103 51.552C58.0583 51.1147 57.8823 50.3147 57.8823 49.152V45.824H56.9383V44H57.8823V41.776H60.0263V44H61.9943V45.824ZM65.5344 52H63.3904V40.8L65.5344 40.8V44.384C66.2704 44 66.9318 43.808 67.5184 43.808C68.5851 43.808 69.3211 44.1227 69.7264 44.752C70.1318 45.3813 70.3344 46.352 70.3344 47.664V52H68.1904V47.712C68.1904 47.04 68.1104 46.544 67.9504 46.224C67.7904 45.8933 67.4704 45.728 66.9904 45.728C66.5744 45.728 66.1584 45.792 65.7424 45.92L65.5344 45.984V52ZM72.6662 44.912C73.2315 44.176 74.1755 43.808 75.4982 43.808C76.8209 43.808 77.7649 44.176 78.3302 44.912C78.8955 45.6373 79.1782 46.6613 79.1782 47.984C79.1782 50.7893 77.9515 52.192 75.4982 52.192C73.0449 52.192 71.8182 50.7893 71.8182 47.984C71.8182 46.6613 72.1009 45.6373 72.6662 44.912ZM74.3142 49.792C74.5382 50.176 74.9329 50.368 75.4982 50.368C76.0635 50.368 76.4529 50.176 76.6662 49.792C76.8902 49.408 77.0022 48.8053 77.0022 47.984C77.0022 47.1627 76.8902 46.5653 76.6662 46.192C76.4529 45.8187 76.0635 45.632 75.4982 45.632C74.9329 45.632 74.5382 45.8187 74.3142 46.192C74.1009 46.5653 73.9942 47.1627 73.9942 47.984C73.9942 48.8053 74.1009 49.408 74.3142 49.792ZM85.4698 44H87.6138V52H85.4858V51.552C84.7178 51.9787 84.0511 52.192 83.4858 52.192C82.3765 52.192 81.6298 51.888 81.2458 51.28C80.8618 50.6613 80.6698 49.632 80.6698 48.192V44H82.8138V48.224C82.8138 49.0133 82.8778 49.552 83.0058 49.84C83.1338 50.128 83.4431 50.272 83.9338 50.272C84.4031 50.272 84.8458 50.1973 85.2618 50.048L85.4698 49.984V44ZM94.0256 45.824H92.0576V49.104C92.0576 49.424 92.0629 49.6533 92.0736 49.792C92.0949 49.92 92.1536 50.032 92.2496 50.128C92.3562 50.224 92.5162 50.272 92.7296 50.272L93.9456 50.24L94.0416 51.952C93.3269 52.112 92.7829 52.192 92.4096 52.192C91.4496 52.192 90.7936 51.9787 90.4416 51.552C90.0896 51.1147 89.9136 50.3147 89.9136 49.152V45.824H88.9696V44H89.9136V41.776H92.0576V44H94.0256V45.824ZM40.8249 62.848C39.6622 62.848 39.0809 63.232 39.0809 64C39.0809 64.3413 39.2249 64.6027 39.5129 64.784C39.8009 64.9653 40.4729 65.2267 41.5289 65.568C42.5955 65.9093 43.3422 66.2987 43.7689 66.736C44.1955 67.1627 44.4089 67.824 44.4089 68.72C44.4089 69.8613 44.0622 70.7253 43.3689 71.312C42.6755 71.8987 41.7689 72.192 40.6489 72.192C39.8169 72.192 38.7982 72.064 37.5929 71.808L37.0169 71.696L37.2409 69.984C38.6702 70.176 39.7635 70.272 40.5209 70.272C41.6515 70.272 42.2169 69.8027 42.2169 68.864C42.2169 68.5227 42.0835 68.256 41.8169 68.064C41.5609 67.872 41.0435 67.664 40.2649 67.44C39.0275 67.088 38.1529 66.672 37.6409 66.192C37.1395 65.7013 36.8889 65.024 36.8889 64.16C36.8889 63.072 37.2195 62.2613 37.8809 61.728C38.5422 61.1947 39.4489 60.928 40.6009 60.928C41.3902 60.928 42.3929 61.0347 43.6089 61.248L44.1849 61.36L44.0089 63.104C42.5049 62.9333 41.4435 62.848 40.8249 62.848ZM45.1466 64H47.2586L48.7146 70.176H49.0826L50.5386 64H52.6506L49.8346 75.36H47.7386L48.6186 72H47.1146L45.1466 64ZM56.0266 72H53.8826V64H56.0106V64.448C56.736 64.0213 57.4026 63.808 58.0106 63.808C59.0773 63.808 59.8133 64.1227 60.2186 64.752C60.624 65.3813 60.8266 66.352 60.8266 67.664V72H58.6826V67.728C58.6826 67.0453 58.6026 66.544 58.4426 66.224C58.2826 65.8933 57.9626 65.728 57.4826 65.728C57.0453 65.728 56.624 65.8027 56.2186 65.952L56.0266 66.016V72ZM68.8544 66.496V69.824C68.8757 70.08 68.9184 70.2613 68.9824 70.368C69.0464 70.464 69.1797 70.5333 69.3824 70.576L69.3184 72.192C68.7744 72.192 68.337 72.1547 68.0064 72.08C67.6864 72.0053 67.361 71.856 67.0304 71.632C66.2624 72.0053 65.4784 72.192 64.6784 72.192C63.025 72.192 62.1984 71.3173 62.1984 69.568C62.1984 68.7147 62.4277 68.112 62.8864 67.76C63.345 67.3973 64.049 67.184 64.9984 67.12L66.7104 66.992V66.496C66.7104 66.1653 66.6357 65.9413 66.4864 65.824C66.337 65.696 66.097 65.632 65.7664 65.632L62.7584 65.76L62.6944 64.272C63.8357 63.9627 64.9184 63.808 65.9424 63.808C66.977 63.808 67.7184 64.0213 68.1664 64.448C68.625 64.8747 68.8544 65.5573 68.8544 66.496ZM65.2544 68.608C64.657 68.6613 64.3584 68.9813 64.3584 69.568C64.3584 70.1547 64.6197 70.448 65.1424 70.448C65.5477 70.448 65.9904 70.384 66.4704 70.256L66.7104 70.192V68.48L65.2544 68.608ZM70.8983 75.36V64H73.0263V64.432C73.7196 64.016 74.3276 63.808 74.8503 63.808C75.9276 63.808 76.7223 64.1333 77.2343 64.784C77.7463 65.424 78.0023 66.5173 78.0023 68.064C78.0023 69.6107 77.7196 70.688 77.1543 71.296C76.5889 71.8933 75.6609 72.192 74.3703 72.192C74.0183 72.192 73.6396 72.16 73.2343 72.096L73.0423 72.064V75.36H70.8983ZM74.4343 65.728C74.0396 65.728 73.6396 65.808 73.2343 65.968L73.0423 66.048V70.24C73.5223 70.304 73.9116 70.336 74.2103 70.336C74.8289 70.336 75.2503 70.1547 75.4743 69.792C75.7089 69.4293 75.8263 68.8107 75.8263 67.936C75.8263 66.464 75.3623 65.728 74.4343 65.728ZM84.0334 65.824H82.0654V69.104C82.0654 69.424 82.0707 69.6533 82.0814 69.792C82.1027 69.92 82.1614 70.032 82.2574 70.128C82.364 70.224 82.524 70.272 82.7374 70.272L83.9534 70.24L84.0494 71.952C83.3347 72.112 82.7907 72.192 82.4174 72.192C81.4574 72.192 80.8014 71.9787 80.4494 71.552C80.0974 71.1147 79.9214 70.3147 79.9214 69.152V65.824H78.9774V64H79.9214V61.776H82.0654V64H84.0334V65.824ZM85.4295 72V64H87.5735V72H85.4295ZM85.4295 62.976V60.8H87.5735V62.976H85.4295ZM92.5465 63.808C93.1012 63.808 93.8105 63.8933 94.6745 64.064L95.1065 64.16L95.0425 65.856C94.1998 65.7707 93.5758 65.728 93.1705 65.728C92.4345 65.728 91.9438 65.888 91.6985 66.208C91.4638 66.5173 91.3465 67.1093 91.3465 67.984C91.3465 68.8587 91.4638 69.4613 91.6985 69.792C91.9438 70.112 92.4398 70.272 93.1865 70.272L95.0425 70.144L95.1065 71.856C93.9652 72.08 93.0958 72.192 92.4985 72.192C91.3145 72.192 90.4612 71.8613 89.9385 71.2C89.4265 70.528 89.1705 69.456 89.1705 67.984C89.1705 66.512 89.4372 65.4507 89.9705 64.8C90.5038 64.1387 91.3625 63.808 92.5465 63.808ZM37.7798 92L40.2278 81.12H44.4198L46.8678 92H44.6598L44.2278 90.032H40.4198L39.9878 92H37.7798ZM41.9398 82.944L40.8358 88.112H43.8118L42.7078 82.944H41.9398ZM47.1541 84H49.3941L50.6741 90.176H51.1221L52.4661 84H54.6421L52.7221 92H49.0741L47.1541 84ZM55.8748 92L55.8748 84H58.0188L58.0188 92H55.8748ZM55.8748 82.976V80.8H58.0188V82.976H55.8748ZM66.1278 86.496V89.824C66.1491 90.08 66.1918 90.2613 66.2558 90.368C66.3198 90.464 66.4531 90.5333 66.6558 90.576L66.5918 92.192C66.0478 92.192 65.6105 92.1547 65.2798 92.08C64.9598 92.0053 64.6345 91.856 64.3038 91.632C63.5358 92.0053 62.7518 92.192 61.9518 92.192C60.2985 92.192 59.4718 91.3173 59.4718 89.568C59.4718 88.7147 59.7011 88.112 60.1598 87.76C60.6185 87.3973 61.3225 87.184 62.2718 87.12L63.9838 86.992V86.496C63.9838 86.1653 63.9091 85.9413 63.7598 85.824C63.6105 85.696 63.3705 85.632 63.0398 85.632L60.0318 85.76L59.9678 84.272C61.1091 83.9627 62.1918 83.808 63.2158 83.808C64.2505 83.808 64.9918 84.0213 65.4398 84.448C65.8985 84.8747 66.1278 85.5573 66.1278 86.496ZM62.5278 88.608C61.9305 88.6613 61.6318 88.9813 61.6318 89.568C61.6318 90.1547 61.8931 90.448 62.4158 90.448C62.8211 90.448 63.2638 90.384 63.7438 90.256L63.9838 90.192V88.48L62.5278 88.608ZM72.6037 85.824H70.6357V89.104C70.6357 89.424 70.641 89.6533 70.6517 89.792C70.673 89.92 70.7317 90.032 70.8277 90.128C70.9344 90.224 71.0944 90.272 71.3077 90.272L72.5237 90.24L72.6197 91.952C71.905 92.112 71.361 92.192 70.9877 92.192C70.0277 92.192 69.3717 91.9787 69.0197 91.552C68.6677 91.1147 68.4917 90.3147 68.4917 89.152V85.824H67.5477V84H68.4917V81.776H70.6357V84H72.6037V85.824ZM73.9998 92V84H76.1438V92H73.9998ZM73.9998 82.976V80.8H76.1438V82.976H73.9998ZM78.5568 84.912C79.1221 84.176 80.0661 83.808 81.3888 83.808C82.7115 83.808 83.6555 84.176 84.2208 84.912C84.7861 85.6373 85.0688 86.6613 85.0688 87.984C85.0688 90.7893 83.8421 92.192 81.3888 92.192C78.9355 92.192 77.7088 90.7893 77.7088 87.984C77.7088 86.6613 77.9915 85.6373 78.5568 84.912ZM80.2048 89.792C80.4288 90.176 80.8235 90.368 81.3888 90.368C81.9541 90.368 82.3435 90.176 82.5568 89.792C82.7808 89.408 82.8928 88.8053 82.8928 87.984C82.8928 87.1627 82.7808 86.5653 82.5568 86.192C82.3435 85.8187 81.9541 85.632 81.3888 85.632C80.8235 85.632 80.4288 85.8187 80.2048 86.192C79.9915 86.5653 79.8848 87.1627 79.8848 87.984C79.8848 88.8053 79.9915 89.408 80.2048 89.792ZM88.7844 92H86.6404V84H88.7684V84.448C89.4938 84.0213 90.1604 83.808 90.7684 83.808C91.8351 83.808 92.5711 84.1227 92.9764 84.752C93.3818 85.3813 93.5844 86.352 93.5844 87.664V92H91.4404V87.728C91.4404 87.0453 91.3604 86.544 91.2004 86.224C91.0404 85.8933 90.7204 85.728 90.2404 85.728C89.8031 85.728 89.3818 85.8027 88.9764 85.952L88.7844 86.016V92Z" fill="white"/>
<defs>
<filter id="filter0_d_1838_632" x="0" y="0" width="132" height="132" filterUnits="userSpaceOnUse" color-interpolation-filters="sRGB">
<feFlood flood-opacity="0" result="BackgroundImageFix"/>
<feColorMatrix in="SourceAlpha" type="matrix" values="0 0 0 0 0 0 0 0 0 0 0 0 0 0 0 0 0 0 127 0" result="hardAlpha"/>
<feOffset/>
<feGaussianBlur stdDeviation="5"/>
<feComposite in2="hardAlpha" operator="out"/>
<feColorMatrix type="matrix" values="0 0 0 0 0.0352941 0 0 0 0 0.32549 0 0 0 0 0.588235 0 0 0 1 0"/>
<feBlend mode="normal" in2="BackgroundImageFix" result="effect1_dropShadow_1838_632"/>
<feBlend mode="normal" in="SourceGraphic" in2="effect1_dropShadow_1838_632" result="shape"/>
</filter>
<linearGradient id="paint0_linear_1838_632" x1="66" y1="10" x2="66" y2="122" gradientUnits="userSpaceOnUse">
<stop/>
<stop offset="1" stop-opacity="0"/>
</linearGradient>
</defs>
</svg>
