<svg xmlns="http://www.w3.org/2000/svg" width="68.487" height="28.341" viewBox="0 0 68.487 28.341">
  <g id="plus" transform="translate(-271.79 -498)">
    <g id="Rectangle" transform="translate(135 498)" fill="#fff">
      <path d="M 138.5634002685547 27.83979606628418 L 151.9428253173828 0.4999964535236359 L 204.7765960693359 0.4999964535236359 L 204.7765960693359 24.35125732421875 C 204.7765960693359 26.22392654418945 203.2252502441406 27.74745559692383 201.3184051513672 27.74745559692383 L 138.5634002685547 27.83979606628418 Z" stroke="none"/>
      <path d="M 152.2547912597656 0.9999961853027344 L 139.3653106689453 27.33861351013184 L 201.3184051513672 27.24745559692383 C 202.9495544433594 27.24745559692383 204.2765960693359 25.94822692871094 204.2765960693359 24.35125732421875 L 204.2765960693359 0.9999961853027344 L 152.2547912597656 0.9999961853027344 M 151.6308441162109 -3.814697265625e-06 L 205.2765960693359 -3.814697265625e-06 L 205.2765960693359 24.35125732421875 C 205.2765960693359 26.50306701660156 203.5044403076172 28.24745559692383 201.3184051513672 28.24745559692383 L 137.7614593505859 28.34097671508789 C 137.0328216552734 28.34097671508789 136.7898712158203 28.34097671508789 136.7898712158203 28.34097671508789 L 137.7614593505859 28.34097671508789 L 151.6308441162109 -3.814697265625e-06 Z" stroke="none" fill="#ba2130"/>
    </g>
    <path id="Path_37" data-name="Path 37" d="M5.489-7.452V-2.9H1.044v1.615H5.489V3.242H7.272V-1.287h4.466V-2.9H7.272v-4.55Z" transform="translate(319.956 513.452)" fill="#ba2130"/>
  </g>
</svg>
