<svg width="50" height="50" viewBox="0 0 50 50" fill="none" xmlns="http://www.w3.org/2000/svg">
<g clip-path="url(#clip0_293_1693)">
<path d="M48.8146 36.9041C47.7016 35.7877 46.5886 34.6747 45.4756 33.5617L44.027 32.113L43.4448 31.5274C43.0749 31.1541 42.6914 30.7706 42.3044 30.3904C42.4893 30.2603 42.664 30.1233 42.8386 29.9932L42.9174 29.9315C44.7598 28.5308 45.4277 26.4623 44.753 24.2603C44.4585 23.3014 44.1605 22.3699 43.8626 21.4932C43.729 21.0993 43.7324 20.7226 43.8763 20.298L43.9551 20.0685C44.2427 19.2192 44.5372 18.3425 44.7907 17.4589C45.3934 15.3493 44.7085 13.298 42.9551 11.9692C42.0783 11.3048 41.277 10.7192 40.4996 10.1747C40.2085 9.97261 40.027 9.71918 39.9174 9.3596L39.8968 9.29453C39.6023 8.3459 39.2975 7.36645 38.9516 6.40754C38.2016 4.32535 36.4311 3.07192 34.2222 3.04795C33.6845 3.04453 33.1434 3.03768 32.6057 3.03768C32.1537 3.03768 31.7016 3.03768 31.253 3.05138H31.2119C30.8557 3.05138 30.5475 2.94521 30.2393 2.71918L29.8557 2.43494C29.1297 1.89727 28.3831 1.34247 27.6092 0.828774C26.7941 0.284253 25.8455 -0.00341797 24.8729 -0.00341797C23.8386 -0.00341797 22.8352 0.3185 21.9722 0.92124C21.8763 0.986308 21.7804 1.0548 21.6777 1.12329C21.3489 1.34932 21.0133 1.57877 20.6914 1.8596C19.6742 2.74316 18.8078 3.14042 17.8831 3.14042C17.6503 3.14042 17.4071 3.11302 17.1605 3.06165L17.0749 3.04453H15.8592C13.1434 3.04795 11.4277 4.30823 10.6194 6.89042C10.4962 7.2774 10.3694 7.66439 10.2393 8.0548C10.092 8.50001 9.94136 8.94864 9.80437 9.39727C9.69821 9.73631 9.53382 9.96234 9.253 10.161C8.73588 10.524 8.22561 10.9007 7.71533 11.2774C7.41396 11.5 7.11259 11.7192 6.81122 11.9418C5.76328 12.7021 5.08862 13.7706 4.80095 15.1233C4.54752 16.3082 4.88999 17.3596 5.19478 18.2843L5.31465 18.6541C5.47561 19.1644 5.61259 19.5651 5.72903 19.8938C5.98017 20.6199 5.92195 21.4875 5.55437 22.4966L5.3078 23.1747C4.13656 26.4212 4.77698 28.5925 7.44478 30.3938C5.62287 32.1952 3.79067 34.0308 2.16739 35.6575L0.948208 36.8801C-0.000421642 37.8185 -0.0689148 38.6267 0.0372496 39.1404C0.143414 39.6507 0.523551 40.3596 1.73588 40.8425C3.22561 41.4349 4.9893 42.1301 6.77013 42.8048C7.003 42.8938 7.09204 42.9795 7.17766 43.2089C7.65369 44.4795 8.16054 45.7603 8.65026 47.0034L9.11602 48.1849C9.70506 49.6815 10.5681 49.9966 11.1879 49.9966C11.8078 49.9966 12.4653 49.6712 13.1366 49L14.9825 47.1575C17.1297 45.0137 19.3489 42.7945 21.5201 40.6027C22.7188 41.476 23.7872 41.8801 24.8763 41.8801C25.9653 41.8801 27.027 41.4726 28.2153 40.5993C30.5715 42.9829 32.9859 45.3938 35.3181 47.7226L36.7085 49.1096C37.4379 49.8356 38.0989 49.9897 38.527 49.9897C39.0407 49.9897 39.9893 49.774 40.5612 48.3288L40.8146 47.6884C41.3831 46.2534 41.9722 44.7671 42.5201 43.2877C42.6263 43 42.7496 42.8801 43.0475 42.7671C44.3112 42.298 45.6092 41.7843 46.7564 41.3288L47.9653 40.8527C49.1948 40.3699 49.5818 39.6541 49.6914 39.137C49.7975 38.6233 49.7324 37.8185 48.8146 36.8973V36.9041ZM22.0304 35.6952C20.9996 34.9247 19.8626 34.5308 18.6503 34.5308C18.5955 34.5308 18.5407 34.5308 18.4859 34.5308C18.0989 34.5411 17.7085 34.5445 17.3181 34.5445C16.89 34.5445 16.4619 34.5411 16.0338 34.5343H15.6914C15.1126 34.524 14.9345 34.3938 14.7427 33.8253C14.5133 33.1473 14.2907 32.4692 14.0681 31.7877L13.7804 30.9144C13.4311 29.8596 12.8112 29.0034 11.9311 28.363C11.503 28.0514 9.54752 26.6301 9.54752 26.6301C8.97218 26.2123 8.90369 26 9.12287 25.3117L9.22903 24.9726C9.48246 24.1747 9.73588 23.3767 9.99958 22.5822C10.3694 21.4726 10.3694 20.3459 9.99958 19.2363C9.64341 18.1712 9.35917 17.3048 9.10917 16.5103C8.89684 15.8356 8.95163 15.6678 9.5304 15.2397C10.2256 14.726 10.9242 14.2158 11.6263 13.7055L11.9003 13.5034C12.8318 12.8253 13.479 11.9315 13.8215 10.8425C14.1023 9.94864 14.39 9.05823 14.6811 8.17124C14.9345 7.41097 15.0099 7.35617 15.8523 7.33905C16.027 7.33562 16.2051 7.33562 16.3797 7.33562C16.3797 7.33562 17.4619 7.34247 17.5612 7.34247C18.027 7.34247 18.5852 7.33562 19.1605 7.28768C20.1503 7.20549 21.0201 6.88014 21.8283 6.29453L22.5852 5.74316C23.1331 5.34247 23.6948 4.93151 24.2564 4.5411C24.5201 4.35617 24.7222 4.26371 24.8523 4.26371C24.9825 4.26371 25.1811 4.35617 25.4448 4.5411L25.6126 4.65754C26.253 5.10275 26.914 5.56165 27.5304 6.0548C28.6092 6.92124 29.8626 7.34247 31.3592 7.34247H32.7564C33.2016 7.33905 33.6503 7.34247 34.0989 7.35275C34.6571 7.36645 34.777 7.45549 34.9619 8.00001C35.2667 8.89384 35.5612 9.80823 35.8386 10.7192C36.2051 11.9075 36.9003 12.8699 37.9105 13.5856C38.6537 14.113 39.414 14.6781 40.0886 15.1747L40.1263 15.2021C40.7804 15.6849 40.8249 15.8322 40.5715 16.6267C40.2907 17.4966 40.0064 18.3699 39.7153 19.2363C39.342 20.3493 39.3386 21.476 39.7119 22.5856C39.9277 23.2295 40.1331 23.8767 40.3386 24.5274L40.5715 25.2603C40.8146 26.0171 40.7496 26.2158 40.116 26.6747C39.8352 26.8767 39.1297 27.3938 39.1297 27.3938C38.6982 27.7089 38.2701 28.0206 37.8386 28.3322C36.914 28.9966 36.2633 29.8904 35.9105 30.9863C35.6879 31.6712 35.4653 32.3527 35.2393 33.0377L35.0544 33.6027C34.7701 34.4692 34.6742 34.5411 33.7804 34.5445H32.4037L31.616 34.5514C31.4688 34.5514 31.3249 34.5514 31.1777 34.5445C31.116 34.5445 31.0578 34.5445 30.9962 34.5445C29.842 34.5445 28.7496 34.9212 27.7462 35.6678C27.0646 36.1712 26.2633 36.7637 25.4825 37.3151C25.0955 37.5891 24.914 37.5891 24.8557 37.5891C24.7975 37.5891 24.6194 37.5891 24.2325 37.3185C23.527 36.8219 22.8044 36.298 22.0236 35.7089L22.0304 35.6952ZM10.1914 33.6986C10.3557 34.2158 10.527 34.726 10.6914 35.2089C11.4722 37.524 13.2496 38.8185 15.6982 38.8459C16.116 38.8493 16.5338 38.8527 16.9516 38.8527H17.2564L15.616 40.4897L12.0749 44.0308L11.8763 43.524C11.5441 42.6781 11.1982 41.8048 10.8831 40.9418C10.5509 40.0308 9.94478 39.4281 9.03382 39.0993C8.33519 38.8459 7.62972 38.5685 6.94478 38.298L6.88656 38.274C6.5852 38.1541 6.2804 38.0343 5.97561 37.9178C7.39341 36.5137 8.81122 35.0959 10.1914 33.7021V33.6986ZM33.6503 38.8527C36.5441 38.8527 38.2359 37.6301 39.1331 34.9041C39.1331 34.9041 39.479 33.8664 39.5441 33.6712C40.9516 35.0993 42.3626 36.524 43.753 37.9144C43.5407 37.9966 43.0578 38.1884 43.0578 38.1884C42.2838 38.4966 41.4825 38.8151 40.6811 39.1027C39.777 39.4315 39.1742 40.0343 38.8386 40.9486C38.527 41.798 38.1811 42.6712 37.8763 43.4452L37.6468 44.0308C36.2222 42.5993 34.7975 41.1712 33.3694 39.7397L32.4825 38.8527H33.6468H33.6503Z" fill="#4357EE"/>
<path d="M26.9662 28.6302C27.6785 29.0138 28.4148 29.411 29.1614 29.7706C29.4628 29.9179 29.7778 29.9932 30.0963 29.9932C31.1717 29.9932 31.997 29.1542 32.0107 28.0446V27.9864L31.9902 27.8014C31.9765 27.661 31.9628 27.5172 31.9354 27.3699C31.8874 27.0788 31.7607 26.3254 31.7607 26.3254C31.6032 25.3699 31.4217 24.2843 31.2128 23.2466C31.1614 22.9829 31.1888 22.8939 31.3909 22.7055C32.5107 21.661 33.6169 20.572 34.5655 19.6302C35.3977 18.8014 35.4559 17.6233 34.6991 16.8254C34.2265 16.3254 33.6237 16.2364 33.1854 16.1713C31.8224 15.9692 30.3943 15.7672 28.9422 15.572C28.7744 15.548 28.7368 15.524 28.6683 15.3802C28.2881 14.5754 27.884 13.7535 27.5244 13.0275C27.2607 12.4932 26.997 11.959 26.7402 11.4247C26.3224 10.5549 25.6888 10.1096 24.8635 10.0959C23.6272 10.0959 23.1374 11.1096 22.9799 11.4418C22.7402 11.9418 22.4936 12.435 22.2436 12.9418C21.8635 13.7124 21.4696 14.5069 21.1032 15.3014C21.0176 15.4898 20.9525 15.548 20.6614 15.5857C19.7094 15.709 18.7504 15.8528 17.9046 15.9795L17.7744 16.0001C17.3052 16.0686 16.8361 16.1405 16.3635 16.2055C15.4388 16.3357 14.8429 16.7912 14.5963 17.5617C14.2196 18.7329 15.0073 19.4864 15.2676 19.7364C15.6957 20.1439 16.1169 20.5583 16.5552 20.9829C17.1683 21.5788 17.7984 22.1953 18.4354 22.7946C18.545 22.8973 18.5758 22.9384 18.5347 23.1644C18.384 23.9898 18.2436 24.8151 18.1032 25.6405C17.997 26.2775 17.8874 26.9144 17.7744 27.5514C17.6135 28.4624 17.8737 29.1679 18.5518 29.6439C18.8874 29.8802 19.2539 30.0001 19.6443 30.0001C20.0073 30.0001 20.3737 29.8973 20.771 29.6884C21.134 29.4932 21.5005 29.3049 21.8669 29.1131L21.9114 29.0891C22.4833 28.7912 23.0518 28.4932 23.6443 28.1713C24.2778 27.8288 24.6614 27.6199 24.8669 27.6199C25.0724 27.6199 25.4628 27.8254 26.0998 28.161C26.3874 28.3117 26.6717 28.4658 26.9696 28.6268L26.9662 28.6302ZM22.521 22.8425C22.6888 22.048 22.4833 21.3768 21.8977 20.7843C21.4833 20.3665 21.0724 19.9418 20.6511 19.5035C21.1683 19.4247 21.6785 19.3459 22.1991 19.2843C23.1066 19.1713 23.7539 18.7055 24.1306 17.8939C24.3669 17.3836 24.6237 16.8665 24.8669 16.387C25.0998 16.8494 25.3532 17.3596 25.5826 17.8596C25.9731 18.709 26.6169 19.1781 27.5587 19.2877C28.0758 19.3494 28.5826 19.4247 29.1237 19.5069C28.8258 19.822 28.5313 20.1233 28.2196 20.3905C27.2847 21.1987 26.9765 22.1644 27.2847 23.3425C27.384 23.7261 27.4559 24.1233 27.521 24.5343C27.0621 24.298 26.5381 24.024 26.0518 23.7535C25.6648 23.5377 25.2676 23.4247 24.8737 23.4247C24.4799 23.4247 24.0724 23.5343 23.6683 23.7638C23.2025 24.0275 22.7162 24.2775 22.2231 24.5343C22.3121 23.9761 22.408 23.4007 22.5244 22.8425H22.521Z" fill="#4357EE"/>
</g>
<defs>
<clipPath id="clip0_293_1693">
<rect width="49.7295" height="50" fill="white"/>
</clipPath>
</defs>
</svg>
