<svg width="40" height="40" viewBox="0 0 40 40" fill="none" xmlns="http://www.w3.org/2000/svg">
<circle cx="20" cy="20" r="20" fill="#FBEDC0"/>
<path fill-rule="evenodd" clip-rule="evenodd" d="M19.5533 9.09481C19.8376 8.9684 20.1624 8.9684 20.4467 9.09481L30.3467 13.4948C30.744 13.6714 31 14.0653 31 14.5V25.5C31 25.9347 30.744 26.3287 30.3467 26.5052L20.4467 30.9052C20.1624 31.0316 19.8376 31.0316 19.5533 30.9052L9.65325 26.5052C9.256 26.3287 9 25.9347 9 25.5V14.5C9 14.0653 9.256 13.6714 9.65325 13.4948L19.5533 9.09481ZM21.1 28.2073L28.8 24.7851V16.1926L26.0499 17.4149V20.55C26.0499 21.1575 25.5574 21.65 24.9499 21.65C24.3424 21.65 23.8499 21.1575 23.8499 20.55V18.3927L21.1 19.6149V28.2073ZM20 17.6963L22.3058 16.6715L15.3197 13.3839L12.8084 14.5L20 17.6963ZM17.9769 12.2029L24.963 15.4905L27.1916 14.5L20 11.3038L17.9769 12.2029Z" fill="#4357EE"/>
</svg>
