<svg width="16" height="16" viewBox="0 0 16 16" fill="none" xmlns="http://www.w3.org/2000/svg">
<path d="M0 1.0394C0.0449246 0.846364 0.131189 0.665367 0.252855 0.508901C0.374521 0.352436 0.528689 0.224225 0.704716 0.133115C0.86647 0.0475388 1.04635 0.00188975 1.22934 0C2.24531 0 3.25932 0 4.27334 0C4.58744 0.00840471 4.8872 0.13327 5.11439 0.350315C5.34158 0.567359 5.47998 0.861085 5.50269 1.17445C5.52043 1.90219 5.60429 2.62682 5.75325 3.33938C5.82568 3.62712 5.90791 3.91094 5.98425 4.19673C6.04171 4.4084 6.04603 4.63097 5.99686 4.84472C5.94769 5.05847 5.84654 5.25678 5.70236 5.42208C5.26191 5.9819 4.83907 6.55541 4.40841 7.12307C4.38606 7.14788 4.3726 7.17944 4.37012 7.21274C4.36764 7.24604 4.37628 7.27922 4.3947 7.30708C5.29346 9.04194 6.6785 10.4772 8.3803 11.4372C8.69155 11.6154 8.88535 11.6173 9.16332 11.3863C9.64684 10.9772 10.1636 10.6034 10.6746 10.2295C10.8297 10.1091 11.0113 10.0274 11.2043 9.99096C11.3972 9.95454 11.5961 9.96453 11.7845 10.0201C12.7411 10.3281 13.7393 10.4878 14.7443 10.4938C15.0784 10.5024 15.3961 10.6406 15.6303 10.8791C15.8644 11.1176 15.9967 11.4377 15.9991 11.7719C15.9991 12.7507 15.9991 13.7079 15.9991 14.6768C16.01 14.9682 15.9216 15.2547 15.7484 15.4894C15.5752 15.7241 15.3275 15.8931 15.0458 15.9687L14.9577 16H13.834C13.7994 15.99 13.7641 15.9828 13.7283 15.9784C13.2558 15.953 12.7852 15.9001 12.3189 15.8199C10.9003 15.5906 9.52394 15.1505 8.23544 14.5143C4.99144 12.9163 2.44387 10.1872 1.07274 6.84121C0.590717 5.67219 0.268088 4.44366 0.11353 3.18865C0.0704634 2.85002 0.039153 2.50943 0.00195947 2.16884L0 1.0394Z" fill="#646464"/>
</svg>
