<svg width="86" height="86" viewBox="0 0 86 86" fill="none" xmlns="http://www.w3.org/2000/svg">
<circle cx="43" cy="43" r="43" fill="#FBEDC0"/>
<path d="M33.0239 48.7224C31.2668 48.6735 29.5382 48.8809 27.8608 48.2742C24.8096 47.1718 22.8549 44.446 23.0084 41.2685C23.1418 38.5248 24.5013 36.4975 26.9322 35.2103C27.2251 35.0553 27.3215 34.9123 27.3084 34.5762C27.1656 31.0698 30.2822 28.2891 33.7787 28.7957C34.0727 28.8386 34.2227 28.773 34.3739 28.5037C36.5703 24.598 40.9501 22.4443 45.2799 23.1236C49.8108 23.8352 53.3382 27.2153 54.2192 31.6931C54.268 31.941 54.3156 32.1913 54.3275 32.4428C54.3489 32.879 54.5632 33.028 54.9894 33.0196C56.8406 32.9851 58.5251 33.5131 59.9632 34.6787C62.3715 36.631 63.4061 39.1899 62.8561 42.2351C62.2858 45.3911 60.2632 47.3625 57.2573 48.3493C56.712 48.5281 56.1287 48.6401 55.5549 48.6783C54.712 48.7331 53.862 48.6926 52.9918 48.6926C54.7751 42.8 53.2739 38.0278 47.818 34.9743C44.012 32.8444 40.0763 33.2497 36.6168 35.8825C32.2882 39.1768 31.4442 43.6176 33.0251 48.7248L33.0239 48.7224Z" fill="#4357EE"/>
<path d="M34.4192 44.8004C34.412 39.4859 38.6501 35.5277 43.5763 35.8841C48.1751 36.2166 52.4263 40.6861 51.4215 46.0435C50.9251 48.6954 49.6775 50.9826 48.1251 53.1327C46.7537 55.0325 45.1692 56.744 43.4406 58.3232C43.1775 58.564 42.9323 58.676 42.6275 58.3971C39.9025 55.8978 37.4954 53.1446 35.8275 49.811C34.9811 48.1185 34.4358 46.3415 34.418 44.8004H34.4192ZM42.9811 40.1522C40.6215 40.1557 38.7013 42.083 38.7061 44.444C38.7096 46.7992 40.6418 48.7216 43.0001 48.7181C45.3596 48.7133 47.2799 46.786 47.2751 44.425C47.2715 42.0675 45.343 40.1486 42.9811 40.1522Z" fill="#4357EE"/>
<path d="M42.9959 62.9988C41.865 62.9988 40.734 63.0012 39.6031 62.9988C38.9602 62.9964 38.7126 62.7485 38.7078 62.1097C38.7042 61.708 38.6983 61.3063 38.7102 60.9047C38.7245 60.4279 38.9888 60.1491 39.4626 60.1479C41.8138 60.1395 44.165 60.1395 46.5161 60.1479C46.9911 60.1491 47.2602 60.4256 47.2757 60.8987C47.2888 61.3147 47.284 61.7318 47.278 62.1478C47.2697 62.7318 47.015 62.994 46.4328 62.9976C45.2864 63.0036 44.1411 62.9988 42.9947 63L42.9959 62.9988Z" fill="#4357EE"/>
</svg>
