<svg width="86" height="86" viewBox="0 0 86 86" fill="none" xmlns="http://www.w3.org/2000/svg">
<circle cx="43" cy="43" r="43" fill="#FBEDC0"/>
<g clip-path="url(#clip0_2612_944)">
<path d="M54.3346 44.3334V43.0001C54.3346 42.2667 53.7346 41.6667 53.0013 41.6667H33.0013C32.268 41.6667 31.668 42.2667 31.668 43.0001V44.3334H54.3346Z" fill="#4357EE"/>
<path d="M31.668 45.6667V61.6667C31.668 62.4001 32.268 63.0001 33.0013 63.0001H53.0013C53.7346 63.0001 54.3346 62.4001 54.3346 61.6667V45.6667H31.668ZM51.268 53.6667L49.6013 52.5334L44.9346 59.2667L40.1346 50.7334L37.0013 53.4001V53.6667C37.0013 54.4001 36.4013 55.0001 35.668 55.0001C34.9346 55.0001 34.3346 54.4001 34.3346 53.6667C34.3346 52.9334 34.9346 52.3334 35.668 52.3334C35.8013 52.3334 36.0013 52.3334 36.1346 52.4001L40.5346 48.6001L45.068 56.6667L48.5346 51.6667L46.868 50.5334L51.668 48.3334L51.268 53.6667Z" fill="#4357EE"/>
<path d="M56.3333 33C55.4667 31.3333 53.8 30.3333 52 30.3333C51.6667 30.3333 51.3333 30.4 51 30.4667C50.6667 26.2667 47.2 23 43 23C39.0667 23 35.7333 25.8667 35.1333 29.6667C34.4 29.2 33.5333 29 32.6667 29C30.2667 29 28.2667 30.8 27.8 33.2667C25 34.0667 23 36.5333 23 39.3333C23 42.8 26 45.6667 29.6667 45.6667H30.3333V43C30.3333 41.5333 31.5333 40.3333 33 40.3333H53C54.4667 40.3333 55.6667 41.5333 55.6667 43V45.6667H56.3333C60 45.6667 63 42.8 63 39.3333C63 35.8667 60 33 56.3333 33Z" fill="#4357EE"/>
</g>
<defs>
<clipPath id="clip0_2612_944">
<rect width="40" height="40" fill="white" transform="translate(23 23)"/>
</clipPath>
</defs>
</svg>
