<svg width="86" height="86" viewBox="0 0 86 86" fill="none" xmlns="http://www.w3.org/2000/svg">
<circle cx="43" cy="43" r="43" fill="#FBEDC0"/>
<path d="M49.0811 62.9859H35.8904V62.5176C35.8904 58.9458 35.8904 55.3739 35.8904 51.802C35.8904 51.0732 35.692 50.8784 34.9454 50.8784C31.8183 50.8784 28.6912 50.8784 25.5641 50.8784H25.0703C25.1837 50.015 25.2872 49.1947 25.3984 48.3755C25.7701 45.6228 26.1581 42.8723 26.5123 40.1175C26.7925 37.9419 28.6694 36.4197 30.8798 36.635C30.9986 36.6469 31.149 36.7933 31.2046 36.9128C32.9355 40.658 35.0936 44.1631 37.3586 47.6079C37.9362 48.4864 39.0393 48.6984 39.8797 48.0913C40.0933 47.9363 40.2851 47.7285 40.4312 47.5089C42.6809 44.1329 44.7703 40.6655 46.4707 36.9827C46.5982 36.7071 46.7399 36.607 47.044 36.6167C47.7187 36.6404 48.3955 36.6243 49.08 36.6243V62.987L49.0811 62.9859Z" fill="#4357EE"/>
<path d="M38.8653 23C43.538 23 47.3038 26.9164 46.9888 31.4829C46.8918 32.8921 46.3457 34.1936 45.7855 35.4757C44.1745 39.1574 42.0971 42.5872 39.9313 45.9674C39.7351 46.2731 39.5444 46.5842 39.3351 46.8814C39.0561 47.2786 38.7193 47.2829 38.4064 46.9072C38.3803 46.876 38.3585 46.8426 38.3356 46.8082C35.9824 43.1642 33.7109 39.4739 31.9582 35.4994C31.41 34.2571 30.8737 32.9954 30.7527 31.6326C30.5216 29.0209 31.4765 26.8399 33.4057 25.0787C34.9273 23.69 36.8238 23 38.8653 23ZM38.8392 35.6146C41.4812 35.634 43.5783 33.5897 43.6078 30.964C43.6372 28.3718 41.5107 26.2597 38.8544 26.2414C36.2625 26.2242 34.1316 28.333 34.1098 30.9361C34.0891 33.4529 36.2549 35.5952 38.8392 35.6146Z" fill="#4357EE"/>
<path d="M24.8982 52.1348H34.5858V62.9742C34.4942 62.9817 34.4157 62.9936 34.3373 62.9936C32.19 62.9936 30.0439 63.0119 27.8967 62.986C25.9064 62.9623 24.3052 61.6275 24.036 59.6833C23.9336 58.9437 24.0731 58.1622 24.1635 57.4064C24.3608 55.7691 24.5963 54.136 24.8186 52.5019C24.835 52.3834 24.8677 52.2672 24.896 52.1348H24.8982Z" fill="#4357EE"/>
<path d="M53.7031 52.137H62.0839C62.1634 52.6957 62.2473 53.2598 62.3247 53.826C62.5362 55.3816 62.7313 56.9382 62.9591 58.4916C63.2992 60.8126 61.552 62.929 59.1835 62.9796C57.3665 63.0184 55.5473 62.9871 53.7031 62.9871V52.137Z" fill="#4357EE"/>
<path d="M52.4643 62.9721H50.4609V36.646H52.4643C52.4643 36.8182 52.4643 36.9743 52.4643 37.1315C52.4643 40.5828 52.4643 44.033 52.4643 47.4843C52.4643 48.2745 52.6191 48.4295 53.4071 48.4295C55.9631 48.4295 58.519 48.4295 61.075 48.4295C61.2363 48.4295 61.3976 48.4295 61.5807 48.4295C61.7072 49.2423 61.8282 50.0217 61.9611 50.8775H61.4521C58.7599 50.8775 56.0677 50.8775 53.3766 50.8775C52.6267 50.8775 52.4643 51.0347 52.4643 51.7667C52.4643 55.3515 52.4643 58.9374 52.4643 62.5221C52.4643 62.6653 52.4643 62.8096 52.4643 62.971V62.9721Z" fill="#4357EE"/>
<path d="M53.707 36.6395C54.8068 36.6395 55.8837 36.5749 56.9497 36.6535C58.7448 36.787 60.1542 38.1477 60.4223 39.967C60.7558 42.2363 61.0414 44.5131 61.3455 46.7867C61.3608 46.904 61.3586 47.0235 61.3651 47.1635H53.7081V36.6384L53.707 36.6395Z" fill="#4357EE"/>
</svg>
