<svg width="86" height="86" viewBox="0 0 86 86" fill="none" xmlns="http://www.w3.org/2000/svg">
<circle cx="43" cy="43" r="43" fill="#FBEDC0"/>
<g clip-path="url(#clip0_2612_962)">
<path d="M59.1565 23H26.8435C24.7217 23 23 24.7217 23 26.8435V29.4783H63V26.8435C63 24.7217 61.2783 23 59.1565 23ZM49.6522 27.113H49.6435C49.1652 27.113 48.7739 26.7217 48.7739 26.2435C48.7739 25.7652 49.1652 25.3739 49.6435 25.3739C50.1217 25.3739 50.5217 25.7652 50.5217 26.2435C50.5217 26.7217 50.1391 27.113 49.6609 27.113H49.6522ZM53.5043 27.113H53.4957C53.0174 27.113 52.6261 26.7217 52.6261 26.2435C52.6261 25.7652 53.0174 25.3739 53.4957 25.3739C53.9739 25.3739 54.3739 25.7652 54.3739 26.2435C54.3739 26.7217 53.9913 27.113 53.513 27.113H53.5043ZM57.3565 27.113H57.3478C56.8696 27.113 56.4783 26.7217 56.4783 26.2435C56.4783 25.7652 56.8696 25.3739 57.3478 25.3739C57.8261 25.3739 58.2174 25.7652 58.2174 26.2435C58.2174 26.7217 57.8348 27.113 57.3565 27.113Z" fill="#4357EE"/>
<path d="M23 31.2261V59.1652C23 61.2782 24.7217 63 26.8348 63H59.1565C61.2696 63 62.9913 61.2782 62.9913 59.1652V31.2261H23ZM34.1826 58.8522C34.1826 59.0869 33.9913 59.2783 33.7565 59.2783H30C29.7652 59.2783 29.5739 59.0869 29.5739 58.8522V52.7043C29.5739 52.4696 29.7652 52.2782 30 52.2782H33.7565C33.9913 52.2782 34.1826 52.4696 34.1826 52.7043V58.8522ZM33.6957 45.6174L34.1217 48.113L31.8783 46.9391L29.6348 48.113L30.0609 45.6174L28.2522 43.8522L30.7565 43.4869L31.8696 41.2261L32.9826 43.4869L35.487 43.8522L33.6783 45.6174H33.6957ZM45.3043 58.8522C45.3043 59.0869 45.113 59.2783 44.8783 59.2783H41.1217C40.887 59.2783 40.6957 59.0869 40.6957 58.8522V48.6956C40.6957 48.4609 40.887 48.2696 41.1217 48.2696H44.8783C45.113 48.2696 45.3043 48.4609 45.3043 48.6956V58.8522ZM44.8174 41.6L45.2435 44.0956L43 42.9217L40.7565 44.0956L41.1826 41.6L39.3739 39.8348L41.8783 39.4696L42.9913 37.2087L44.1043 39.4696L46.6087 39.8348L44.8 41.6H44.8174ZM56.4261 58.8522C56.4261 59.0869 56.2348 59.2783 56 59.2783H52.2435C52.0087 59.2783 51.8174 59.0869 51.8174 58.8522V44.6782C51.8174 44.4435 52.0087 44.2522 52.2435 44.2522H56C56.2348 44.2522 56.4261 44.4435 56.4261 44.6782V58.8522ZM55.9391 37.5913L56.3652 40.0869L54.1217 38.913L51.8783 40.0869L52.3043 37.5913L50.4957 35.8261L53 35.4609L54.113 33.2L55.2261 35.4609L57.7304 35.8261L55.9217 37.5913H55.9391Z" fill="#4357EE"/>
</g>
<defs>
<clipPath id="clip0_2612_962">
<rect width="40" height="40" fill="white" transform="translate(23 23)"/>
</clipPath>
</defs>
</svg>
