<svg width="86" height="86" viewBox="0 0 86 86" fill="none" xmlns="http://www.w3.org/2000/svg">
<circle cx="43" cy="43" r="43" fill="#FBEDC0"/>
<path d="M63.2163 43.1167C63.0841 43.6769 62.997 44.253 62.8113 44.7953C62.1544 46.7146 60.8952 48.1126 59.1008 49.0401C58.9455 49.1203 58.785 49.3197 58.7503 49.4895C57.6286 54.936 53.192 59.1765 47.7018 60.0322C40.8696 61.0968 34.393 56.831 32.6511 50.1216C32.6217 50.0097 32.5808 49.901 32.5367 49.7618C31.8106 49.7618 31.0928 49.7628 30.374 49.7618C26.1252 49.7512 22.8618 46.3474 23.0045 42.0763C23.1105 38.93 25.3215 36.1772 28.4401 35.3067C28.502 35.2898 28.5639 35.274 28.6132 35.2613C28.0372 29.8665 30.0288 26.0048 35.3112 24.3673C38.9188 23.2489 43.07 24.7091 45.43 28.4147C47.8403 27.3691 50.2181 27.4271 52.4669 28.8441C54.7062 30.2559 55.7964 32.3693 55.9203 35.0102C56.4722 35.0936 57.0326 35.1379 57.5719 35.2666C60.5594 35.9799 62.698 38.3613 63.146 41.4401C63.1544 41.5013 63.1912 41.5572 63.2153 41.6163V43.1167H63.2163ZM56.5184 46.7325C56.5257 40.7004 51.6452 35.7826 45.6409 35.772C39.6219 35.7615 34.7183 40.6846 34.7246 46.7336C34.7309 52.7709 39.6114 57.6688 45.622 57.6688C51.6337 57.6688 56.5121 52.7731 56.5184 46.7336V46.7325Z" fill="#4357EE"/>
<path d="M48.6914 45.1857C48.8687 46.7462 48.7806 48.2709 48.4259 49.8135H42.8444C42.4814 48.7014 42.3428 46.3886 42.5716 45.1857H48.6914Z" fill="#4357EE"/>
<path d="M40.7426 45.1878C40.8223 46.741 40.9 48.2698 40.9808 49.8451C40.6597 49.8451 40.2578 49.8451 39.8559 49.8451C38.9797 49.8451 38.1035 49.8525 37.2273 49.8356C37.1087 49.8335 36.9188 49.7322 36.8852 49.6341C36.3899 48.1918 36.3007 46.7135 36.5337 45.1878H40.7426Z" fill="#4357EE"/>
<path d="M54.7114 45.1889C54.936 46.6829 54.8468 48.1126 54.4113 49.518C54.3568 49.6921 54.3242 49.8536 54.064 49.8504C52.8216 49.8356 51.5792 49.843 50.3367 49.8409C50.2874 49.8409 50.237 49.8209 50.2643 49.8272C50.3441 48.2741 50.4217 46.7463 50.5015 45.19H54.7125L54.7114 45.1889Z" fill="#4357EE"/>
<path d="M47.0817 37.5995C50.5319 38.0679 53.3924 40.788 54.2466 43.5704H50.1499C49.619 41.3641 48.8288 39.2739 47.0817 37.5995Z" fill="#4357EE"/>
<path d="M44.1582 37.6016C42.5286 39.1684 41.7038 41.1046 41.1991 43.2063C41.1298 43.4944 41.0333 43.6083 40.7164 43.6031C39.4876 43.5809 38.2578 43.5946 37.0237 43.5946C37.6428 41.0972 40.5485 38.0806 44.1582 37.6026V37.6016Z" fill="#4357EE"/>
<path d="M42.8392 43.5682C43.069 42.4994 43.4216 41.4855 43.983 40.5675C44.3282 40.002 44.749 39.4755 45.1939 38.9827C45.5454 38.5923 45.706 38.5934 46.0628 38.988C46.4993 39.4702 46.9085 39.9893 47.2496 40.5432C47.8162 41.4633 48.1572 42.4846 48.4133 43.5682H42.8392Z" fill="#4357EE"/>
<path d="M47.0911 55.8297C48.364 54.6332 49.1038 53.1877 49.6578 51.6283C49.6914 51.5322 49.8551 51.4236 49.96 51.4225C51.1342 51.4077 52.3095 51.413 53.49 51.413C52.9769 53.2025 49.3745 55.7116 47.0911 55.8297Z" fill="#4357EE"/>
<path d="M44.0344 55.8561C41.3145 55.3275 39.2053 53.8757 37.6827 51.4426H41.4593C41.8192 52.2139 42.1319 53.0221 42.5622 53.7617C42.9861 54.4897 43.5286 55.1471 44.0344 55.8561Z" fill="#4357EE"/>
<path d="M43.304 51.4278H47.9621C47.7407 51.9047 47.5812 52.3647 47.3283 52.7657C46.9746 53.3281 46.5864 53.8767 46.1499 54.3758C45.7165 54.8717 45.5633 54.8453 45.0953 54.3937C44.4153 53.7374 43.9525 52.9334 43.5685 52.0788C43.4793 51.8794 43.4037 51.6736 43.304 51.4288V51.4278Z" fill="#4357EE"/>
</svg>
