<svg width="86" height="86" viewBox="0 0 86 86" fill="none" xmlns="http://www.w3.org/2000/svg">
<circle cx="43" cy="43" r="43" fill="#FBEDC0"/>
<path d="M28.3333 27.426L31.1667 37.7809L34.8333 51.3926L36.1667 56.403C36.25 56.7371 36.5833 56.9876 37 56.9876H38.6667C38.25 57.5721 38 58.3237 38 59.1588C38 61.2465 39.75 63.0001 41.8333 63.0001C43.9167 63.0001 45.6667 61.33 45.6667 59.1588C45.6667 58.3237 45.4167 57.6557 45 56.9876H54.0833C53.6667 57.5721 53.4167 58.3237 53.4167 59.1588C53.4167 61.2465 55.1667 63.0001 57.25 63.0001C59.3333 63.0001 61.0833 61.33 61.0833 59.1588C61.0833 58.3237 60.8333 57.6557 60.4167 56.9876H62.1667C62.5833 56.9876 63 56.6536 63 56.1525C63 55.735 62.5833 55.3174 62.1667 55.3174H37.6667L36.75 51.8936H56.8333C57.1667 51.8936 57.5 51.6431 57.5833 51.3926L62.9167 37.7809C63 37.5304 63 37.1964 62.8333 37.0293C62.6667 36.7788 62.4167 36.6953 62.1667 36.6953H55.3333C56.5 38.1984 57.1667 39.9521 57.1667 41.9563V45.1296C57.1667 46.5492 56.0833 47.6348 54.6667 47.6348H39.4167C38.0833 47.6348 36.9167 46.5492 36.9167 45.1296V41.8728C37 39.9521 37.6667 38.1149 38.75 36.6953H32.5833L29.75 26.3404C29.6667 26.0064 29.3333 25.7559 28.9167 25.7559H23.8333C23.3333 25.7559 23 26.1734 23 26.5909C23 27.092 23.3333 27.426 23.8333 27.426H28.3333Z" fill="#4357EE"/>
<path d="M47.168 34.19C49.918 34.19 52.168 30.7662 52.168 28.0104C52.168 25.2547 49.918 23 47.168 23C44.418 23 42.168 25.2547 42.168 28.0104C42.168 30.7662 44.418 34.19 47.168 34.19Z" fill="#4357EE"/>
<path d="M38.582 45.213C38.582 45.7141 38.9154 46.0481 39.4154 46.0481H54.6654C55.1654 46.0481 55.4987 45.7141 55.4987 45.213V42.0398C55.4154 38.1149 52.2487 34.9417 48.332 34.9417H45.7487C43.832 34.9417 41.9987 35.6932 40.6654 37.0293C39.332 38.3654 38.6654 40.0356 38.582 41.8728V45.213Z" fill="#4357EE"/>
</svg>
