<svg width="86" height="86" viewBox="0 0 86 86" fill="none" xmlns="http://www.w3.org/2000/svg">
<circle cx="43" cy="43" r="43" fill="#FBEDC0"/>
<g clip-path="url(#clip0_2612_985)">
<path d="M45.091 65.0245H39.7372V62.2282C38.2736 61.8332 36.857 61.4517 35.4168 61.0624C34.9677 61.8411 34.5007 62.649 34.0214 63.4784C32.4595 62.5691 30.9334 61.6824 29.3916 60.7856C29.8798 59.9304 30.3435 59.1202 30.6809 58.5294C29.5804 57.4075 28.5492 56.3554 27.4755 55.2605C26.8398 55.6285 26.0354 56.0921 25.2053 56.5726C24.3026 54.9972 23.4244 53.4635 22.534 51.9106C23.3875 51.411 24.1897 50.9417 24.9316 50.5074C24.5405 49.0355 24.1629 47.6199 23.7741 46.1548H21V40.7637H23.773C24.1663 39.2873 24.5461 37.8616 24.9338 36.4089C24.1607 35.9577 23.3574 35.4884 22.5329 35.0068C23.4367 33.4314 24.3182 31.8966 25.2086 30.3448C26.0667 30.8411 26.8711 31.3058 27.461 31.6467C28.5626 30.5361 29.5927 29.4986 30.6865 28.3958C30.339 27.7871 29.872 26.9679 29.3938 26.1307C30.9579 25.2226 32.474 24.3404 34.0248 23.4402C34.5119 24.2852 34.9834 25.1033 35.4168 25.855C36.8871 25.4589 38.2937 25.0797 39.7596 24.6847V21.9199H45.0944V24.6881C46.5579 25.0831 47.9746 25.4656 49.4147 25.855C49.8627 25.0774 50.3286 24.2684 50.8079 23.4368C52.3732 24.3483 53.8971 25.2361 55.4378 26.1329C54.9484 26.9904 54.4859 27.8017 54.1474 28.3936C55.2523 29.5132 56.2869 30.562 57.365 31.6546C57.9929 31.2912 58.7962 30.8264 59.6241 30.3471C60.5257 31.9202 61.4016 33.4472 62.2987 35.0124C61.4608 35.5008 60.6474 35.9745 59.8978 36.4123C60.2899 37.8886 60.6664 39.3053 61.0597 40.7817H63.807V46.1537H61.0564C60.6642 47.6267 60.2843 49.0535 59.8967 50.5063C60.6676 50.9564 61.472 51.4256 62.2998 51.9083C61.3971 53.4826 60.5156 55.0186 59.6241 56.5715C58.7716 56.0786 57.9661 55.6139 57.3795 55.274C56.2656 56.3847 55.2221 57.4244 54.1362 58.5058C54.5015 59.1461 54.9629 59.9551 55.4378 60.7901C53.8747 61.6982 52.3508 62.5838 50.8068 63.4806C50.3108 62.6209 49.8449 61.8118 49.4147 61.0635C47.9545 61.4574 46.5479 61.8366 45.0921 62.2293V65.0233L45.091 65.0245ZM27.7761 43.4441C27.766 51.5584 34.3253 58.1817 42.3895 58.1997C50.4471 58.2177 57.0276 51.618 57.0522 43.4936C57.0779 35.3646 50.4962 28.7199 42.4175 28.7177C34.3566 28.7154 27.785 35.3241 27.7761 43.4441Z" fill="#4357EE"/>
<path d="M30.2852 43.4508C30.2896 36.7205 35.7395 31.2405 42.4228 31.2461C49.1073 31.2506 54.5482 36.7374 54.5438 43.4676C54.5393 50.1979 49.0894 55.6791 42.4072 55.6734C35.7261 55.6689 30.2818 50.1787 30.2863 43.4508H30.2852ZM39.7727 41.5311C37.6891 43.6286 35.6311 45.6991 33.5989 47.7437C34.1542 48.3018 34.7318 48.8813 35.3541 49.5058C36.7875 48.0509 38.2578 46.561 39.7638 45.0329C40.6531 45.932 41.5246 46.8131 42.4608 47.7594C44.4272 45.7722 46.3767 43.803 48.3911 41.7674V44.019H50.8625V37.4272H44.3244V39.9422H46.4326C45.0796 41.306 43.7099 42.6867 42.3089 44.0989C41.4866 43.2662 40.623 42.3919 39.7727 41.5299V41.5311Z" fill="#4357EE"/>
</g>
<defs>
<clipPath id="clip0_2612_985">
<rect width="42.8059" height="43.1046" fill="white" transform="translate(21 21.9199)"/>
</clipPath>
</defs>
</svg>
