<svg width="247" height="261" viewBox="0 0 247 261" fill="none" xmlns="http://www.w3.org/2000/svg">
<path fill-rule="evenodd" clip-rule="evenodd" d="M21.01 38.71C72.63 -12.91 156.32 -12.9 207.94 38.72L207.95 38.74C259.57 90.36 259.56 174.05 207.94 225.67L114.46 319.15L93.69 298.37L187.16 204.9C227.32 164.74 227.32 99.64 187.16 59.49C147.01 19.34 81.91 19.34 41.76 59.49L-17 118.24C-13.85 88.16 -0.439999 60.08 20.99 38.72C21 38.72 21.01 38.71 21.01 38.71ZM187.9 132.19C187.95 91.65 155.12 58.75 114.58 58.7C95.05 58.68 76.32 66.44 62.53 80.26L-15.2 158C-13.08 168.71 -9.64001 179.12 -4.94001 188.99L83.09 100.97C100.34 83.72 128.3 83.72 145.55 100.97C162.8 118.22 162.8 146.18 145.55 163.43L52.16 256.83L72.93 277.66L166.41 184.18C180.24 170.42 187.99 151.7 187.92 132.19H187.9ZM124.78 121.73C119 115.96 109.64 115.96 103.85 121.73L11.04 214.55C14.15 218.44 17.47 222.15 20.99 225.67L31.37 236.06L124.78 142.65C130.55 136.87 130.55 127.51 124.78 121.72V121.73Z" fill="#2C3BA9"/>
</svg>
