<svg width="44" height="44" viewBox="0 0 44 44" fill="none" xmlns="http://www.w3.org/2000/svg">
<path fill-rule="evenodd" clip-rule="evenodd" d="M21.1066 0.189618C21.6753 -0.0632061 22.3247 -0.0632061 22.8934 0.189618L42.6934 8.98963C43.4881 9.34273 44 10.1306 44 11V33C44 33.8695 43.4881 34.6573 42.6934 35.0104L22.8934 43.8104C22.3247 44.0632 21.6753 44.0632 21.1066 43.8104L1.30649 35.0104C0.512006 34.6573 0 33.8695 0 33V11C0 10.1306 0.512006 9.34273 1.30649 8.98963L21.1066 0.189618ZM24.2 38.4147L39.6 31.5703V14.3853L34.0998 16.8298V23.1C34.0998 24.3151 33.1148 25.3 31.8998 25.3C30.6847 25.3 29.6998 24.3151 29.6998 23.1V18.7854L24.2 21.2298V38.4147ZM22 17.3925L26.6116 15.3429L12.6395 8.76776L7.61686 11L22 17.3925ZM17.9538 6.40579L31.926 12.9809L36.3832 11L22 4.60751L17.9538 6.40579Z" fill="#4357EE"/>
</svg>
