<svg width="254" height="209" viewBox="0 0 254 209" fill="none" xmlns="http://www.w3.org/2000/svg">
<path fill-rule="evenodd" clip-rule="evenodd" d="M28.01 -13.29C79.63 -64.91 163.32 -64.9 214.94 -13.28L214.95 -13.26C266.57 38.36 266.56 122.05 214.94 173.67L121.46 267.15L100.69 246.37L194.16 152.9C234.32 112.74 234.32 47.64 194.16 7.49C154.01 -32.66 88.91 -32.66 48.76 7.49L-10 66.24C-6.85 36.16 6.56 8.08 27.99 -13.28C28 -13.28 28.01 -13.29 28.01 -13.29ZM194.9 80.19C194.95 39.65 162.12 6.75 121.58 6.7C102.05 6.68 83.32 14.44 69.53 28.26L-8.20001 106C-6.08001 116.71 -2.64001 127.12 2.05999 136.99L90.09 48.97C107.34 31.72 135.3 31.72 152.55 48.97C169.8 66.22 169.8 94.18 152.55 111.43L59.16 204.83L79.93 225.66L173.41 132.18C187.24 118.42 194.99 99.7 194.92 80.19H194.9ZM131.78 69.73C126 63.96 116.64 63.96 110.85 69.73L18.04 162.55C21.15 166.44 24.47 170.15 27.99 173.67L38.37 184.06L131.78 90.65C137.55 84.87 137.55 75.51 131.78 69.72V69.73Z" fill="#2C3BA9"/>
</svg>
