<svg width="100" height="100" viewBox="0 0 100 100" fill="none" xmlns="http://www.w3.org/2000/svg">
<g clip-path="url(#clip0_486_9018)">
<path d="M52.3304 39.7091C50.6862 38.0639 48.0237 38.0639 46.3767 39.7091L19.9762 66.1751C20.8609 67.2843 21.8053 68.3421 22.8065 69.3458L25.7592 72.3083L52.3304 45.6741C53.9717 44.026 53.9717 41.3572 52.3304 39.7063V39.7091Z" fill="#4152F3"/>
<path d="M70.2853 42.6917C70.2995 31.1324 60.9608 21.7516 49.4289 21.7373C43.8734 21.7316 38.5456 23.9442 34.6229 27.8848L12.512 50.051C13.1151 53.1047 14.0936 56.073 15.4306 58.8872L40.4713 33.7899C45.3782 28.8713 53.3316 28.8713 58.2385 33.7899C63.1454 38.7084 63.1454 46.6807 58.2385 51.5992L31.6731 78.2306L37.5812 84.1699L64.1723 57.5157C68.1064 53.5923 70.3109 48.2546 70.291 42.6917H70.2853Z" fill="#4152F3"/>
<path d="M75.9858 16.0403C61.3021 1.32179 37.4959 1.31894 22.8122 16.0375C22.8122 16.0375 22.8094 16.0403 22.8065 16.0403C16.7106 22.1308 12.896 30.1373 12 38.7141L28.7147 21.9625C40.1357 10.5145 58.6538 10.5145 70.0748 21.9625C81.4986 33.4106 81.4986 51.9727 70.0748 63.4236L43.4866 90.0749L49.3948 96L75.9858 69.3458C90.6695 54.6273 90.6723 30.7646 75.9887 16.046C75.9887 16.046 75.9887 16.046 75.9858 16.0403Z" fill="#4152F3"/>
</g>
<defs>
<clipPath id="clip0_486_9018">
<rect width="75" height="91" fill="white" transform="translate(12 5)"/>
</clipPath>
</defs>
</svg>
