<svg width="579" height="311" viewBox="0 0 579 311" fill="none" xmlns="http://www.w3.org/2000/svg">
<g clip-path="url(#clip0_874_2382)">
<path d="M141.71 28.4501C141.49 26.7201 141.05 25.0201 140.39 23.4001C140.31 23.0901 140.16 22.8101 139.96 22.5601C139.76 22.3101 139.51 22.1101 139.23 21.9701C138.85 21.8701 138.46 21.8701 138.08 21.9601L132.17 22.8701C131.67 22.8901 131.2 23.0801 130.82 23.3901C130.05 24.2001 130.81 25.5101 130.79 26.6201C130.76 27.8801 129.65 28.9001 128.43 29.2301C127.19 29.4801 125.92 29.4601 124.69 29.1801L116.42 27.8901C118.86 27.1101 121.02 25.6701 122.68 23.7101C123.77 22.4201 124.35 20.0101 122.78 19.4001C122.31 19.2701 121.82 19.2301 121.34 19.2801C117.59 19.3101 114.64 16.1801 111.13 14.8601C108.88 14.0701 106.45 14.0101 104.17 14.6901C101.89 15.3701 99.88 16.7501 98.43 18.6401L102.84 18.8501C103.25 18.8301 103.67 18.9401 104.01 19.1601C104.98 19.9501 103.77 21.4801 103.91 22.7201C104.09 24.3301 106.23 24.6801 107.85 24.8401C109.47 25.0001 111.52 26.3201 110.74 27.7401C102.62 30.5401 94.36 22.2701 85.83 23.2901C83.67 23.5501 81.63 24.4001 79.53 24.9301C66.66 28.1901 53.35 19.5001 40.2 21.3401C37.28 21.8401 34.4 22.6001 31.61 23.6001C29.82 24.1901 27.95 24.8201 26.65 26.1901C25.35 27.5501 24.85 29.8801 26.09 31.3101C22.69 31.5901 19.28 31.2601 15.99 30.3501C16.88 30.8401 17.62 31.5701 18.13 32.4401C18.64 33.3201 18.91 34.3201 18.9 35.3301C13.6 36.1901 8.44002 37.7701 3.55002 40.0101C4.46002 41.5301 5.53002 42.9401 6.73002 44.2401L0.0200195 48.5501C2.29002 49.1201 3.46002 52.2101 2.14002 54.1401C4.49002 53.0901 5.95002 50.3901 8.46002 49.8401C10.11 49.4801 11.78 50.1501 13.35 50.7901C14.91 51.4201 16.63 52.0401 18.25 51.5601C19.87 51.0801 21.06 48.9901 20.03 47.6501C26.94 45.6301 34.09 44.5201 41.29 44.3301C41.85 44.2601 42.41 44.3701 42.9 44.6401C43.84 45.2901 43.59 46.6901 43.54 47.8301C43.49 48.9701 44.38 50.4701 45.4 49.9501C44.2 50.9901 45.23 52.9501 46.38 54.0401C47.53 55.1301 48.92 56.6401 48.21 58.0601C48.03 58.4301 47.71 58.7301 47.54 59.1001C47.02 60.2101 47.85 61.4901 48.82 62.2301C49.79 62.9701 50.99 63.4801 51.67 64.4901C52.35 65.5101 52.04 67.2801 50.83 67.4301L47.38 63.0501C46.2 64.2701 45.39 65.8001 45.05 67.4701C48.71 70.4601 49.26 76.5501 46.2 80.1501C44.63 81.9901 42.41 83.1101 40.47 84.5401C38.53 85.9701 36.73 88.0201 36.73 90.4301C36.73 94.6001 36.4 98.4801 37.96 102.34C40.84 109.47 44.17 116.41 47.92 123.13C48.91 124.89 50.18 126.82 52.18 127.13C49.66 120.99 47.38 114.75 45.36 108.41C46.68 108.41 48.2 108.52 48.97 109.58C49.61 110.46 49.47 111.66 49.67 112.73C49.92 113.77 50.34 114.76 50.92 115.66L62.97 137.13C63.97 138.91 65.12 140.82 67.02 141.54C68.24 142 69.65 141.91 70.78 142.58C71.66 143.1 72.25 144.02 73.15 144.51C75.69 145.89 79.22 143.24 81.59 144.89C82.27 145.36 82.7 146.11 83.32 146.65C85.51 148.55 89.11 147.28 91.64 148.69C93.27 149.6 94.11 151.43 94.98 153.08C97.16 157.22 100.68 161.28 105.35 161.61C106.82 161.71 108.31 161.43 109.75 161.76C111.18 162.09 112.59 163.34 112.36 164.79C111.97 167.28 113.19 170 112.87 172.5C112.27 177.05 105.81 179.05 105.26 183.61C105.14 184.61 105.33 185.64 105.09 186.61C104.8 187.81 103.9 188.78 103.58 189.97C102.97 192.23 104.59 194.47 106.36 195.98C108.14 197.5 110.25 198.8 111.22 200.93C112.25 203.17 111.74 205.79 112.08 208.24C112.81 213.58 117.42 217.53 122.16 220.09C123.6 220.87 125.16 221.62 126.09 222.97C127.31 224.73 127.19 227.05 127.6 229.15C128.6 234.3 132.93 238.54 133.06 243.79C133.15 247.52 131.07 250.9 129.84 254.42C128.68 257.79 128.26 261.37 128.61 264.92C128.96 268.47 130.07 271.9 131.87 274.97C132.8 276.53 133.9 278.01 134.56 279.7C135.73 282.72 135.35 286.16 136.43 289.22C137.86 293.26 141.77 296.6 141.39 300.87C143.17 304.56 147.09 306.37 151.04 307.47L158.11 309.44C159.46 309.82 160.88 310.2 162.26 309.92C163.64 309.65 164.95 308.5 164.92 307.1C161.45 306.32 157.87 305.49 155.01 303.37C152.15 301.26 150.19 297.49 151.28 294.1C151.78 292.53 152.85 290.72 151.84 289.42C151.26 288.68 150.19 288.48 149.54 287.81C148.51 286.75 148.87 284.98 149.6 283.7C150.34 282.42 151.4 281.29 151.7 279.84C151.85 279.03 151.75 278.2 151.41 277.45C151.07 276.7 150.52 276.07 149.81 275.65C151.12 275.15 152.31 274.39 153.31 273.4C154.23 272.35 154.66 270.73 153.93 269.53C156.08 269.8 158.62 269.94 160.03 268.29C161.16 266.98 161.08 265.01 160.63 263.34C160.18 261.67 159.43 260.04 159.41 258.31C164.37 258.54 169.34 258.38 174.28 257.81C173.57 255.41 171.95 253.38 169.76 252.15C172 251.77 174.03 249.1 174.74 246.94C175.45 244.79 175.27 242.44 174.83 240.22C174.66 239.65 174.64 239.04 174.76 238.46C175.01 237.66 175.8 237.17 176.53 236.75L187.62 230.38C188.28 230.05 188.88 229.6 189.39 229.07C190.55 227.7 190.38 225.64 189.79 223.95C189.19 222.26 188.24 220.67 188.01 218.89C187.32 213.57 193.02 209.76 194.94 204.75C195.69 202.79 195.85 200.65 195.99 198.55C196.15 196.3 196.16 193.68 194.43 192.22C192.77 190.83 190.18 191.14 188.44 189.84C186.85 188.65 186.3 186.35 184.56 185.39C182.98 184.52 181 185.07 179.24 184.66C176.15 183.94 174.2 180.37 171.04 180.04C169.26 179.85 167.24 180.72 165.78 179.69C164.49 178.78 164.44 176.94 164.2 175.38C163.77 172.95 162.61 170.72 160.87 168.98C159.13 167.24 156.9 166.07 154.48 165.63C152.64 165.34 150.64 165.45 149.08 164.44C147.5 163.42 146.77 161.5 145.53 160.09C143.53 157.81 140.37 157 137.41 156.3L125.38 153.47C123.25 152.97 120.49 152.7 119.35 154.57C119.01 155.28 118.77 156.04 118.64 156.81C118.21 158.22 117.35 159.45 116.17 160.33C115 161.21 113.57 161.7 112.1 161.73C111.09 160.01 109.46 158.75 107.54 158.2C106.32 157.86 105.01 157.82 103.85 157.32C103.22 157.01 102.65 156.58 102.19 156.04C101.73 155.51 101.39 154.88 101.17 154.21C100.96 153.54 100.89 152.83 100.96 152.13C101.03 151.43 101.25 150.75 101.59 150.13C102.28 148.9 102.55 147.47 102.35 146.07C102.15 144.67 101.5 143.37 100.49 142.38C98.44 140.54 95.49 140.1 92.74 140.28C92.02 138.71 93.22 136.95 94.52 135.81C95.81 134.67 97.39 133.55 97.67 131.85C98.11 129.17 94.7 127.14 92.11 127.94C89.52 128.74 87.86 131.26 86.77 133.74C86.14 135.16 85.61 136.66 84.62 137.86C83.63 139.06 82.04 139.92 80.53 139.54C78.4 138.99 77.57 136.46 77.1 134.31C76.47 131.42 75.83 128.5 75.96 125.55C76.09 122.6 77.09 119.57 79.26 117.57C82.81 114.31 88.25 114.63 93.04 115.15C91.91 113.88 92.19 111.73 93.4 110.53C94.04 109.96 94.81 109.56 95.64 109.35C96.47 109.15 97.34 109.15 98.17 109.35C99.61 109.65 100.91 110.43 101.86 111.56C103.22 113.22 103.61 115.46 104.63 117.34C105.66 119.22 107.97 120.83 109.86 119.82C111.5 118.95 111.76 116.68 111.35 114.87C110.94 113.06 110.08 111.3 110.23 109.46C110.51 105.94 114.17 103.82 117.39 102.36C120.61 100.91 124.31 98.9601 124.82 95.4601C124.84 94.7701 124.97 94.1001 125.2 93.4501C125.56 92.8801 126.05 92.4101 126.64 92.0901C136.05 85.8701 145.61 79.5801 156.37 76.1801C156.93 76.0001 156.99 76.2001 157.57 76.0601C158.37 75.6001 157.84 74.3201 157.07 73.8101C156.31 73.3001 155.28 72.9001 155.09 72.0001C154.95 71.3401 155.34 70.6901 155.44 70.0201C155.69 68.3701 153.72 66.8501 152.19 67.5101C151.33 66.3701 153.04 65.0401 154.42 64.6601C158.57 63.5201 162.83 62.8201 167.13 62.5801C167.62 62.5001 168.13 62.5801 168.58 62.8301C169.3 63.3301 169.21 64.4801 168.7 65.1901C168.19 65.9001 167.39 66.3501 166.76 66.9601C166.06 67.6401 165.57 68.5001 165.32 69.4401C165.08 70.3801 165.1 71.3701 165.38 72.3001C167.62 73.4401 170.06 74.6201 172.55 74.2101C175.04 73.8001 177.24 71.0201 176.07 68.7901C174.98 66.7101 171.71 66.2501 171.15 63.9701C170.49 61.3101 174.26 58.9401 173.41 56.3301C173.04 55.1901 171.9 54.5101 171.02 53.6901C169.99 52.6801 169.29 51.3801 169.01 49.9601C168.73 48.5401 168.89 47.0701 169.46 45.7401C168.04 45.9901 166.57 45.9001 165.19 45.4601C163.81 45.0301 162.55 44.2701 161.53 43.2501C159.63 41.3401 158.12 38.3201 155.43 38.4001C152.96 38.4801 150.83 41.3601 148.52 40.4801C147.95 40.2601 147.35 39.8201 146.8 40.0801C146.62 40.2001 146.47 40.3501 146.36 40.5401C146.25 40.7201 146.18 40.9301 146.16 41.1501C145.57 43.9601 146.58 47.1601 145.05 49.5801C143.38 52.2201 139.53 52.5901 137.51 54.9701C136.41 56.2601 135.99 58.0001 134.98 59.3701C133.97 60.7301 131.83 61.6001 130.63 60.4101C131.22 59.1901 131.39 57.8001 131.09 56.4801C130.79 55.1501 130.06 53.9701 129 53.1201C127.88 52.3901 126.67 51.8001 125.4 51.3701C123.98 50.7701 122.63 50.0201 121.38 49.1301C120.75 48.7501 120.24 48.2001 119.9 47.5501C119.63 46.7301 119.67 45.8501 120 45.0501C120.61 43.2901 121.69 41.7401 123.13 40.5501C124.56 39.3601 126.29 38.5901 128.13 38.3101C129.74 38.0901 131.61 38.1701 132.68 36.9401C133.24 36.2901 133.54 35.3101 134.36 35.0501C134.88 34.9401 135.43 35.0101 135.91 35.2401L141.92 37.3501C142.59 37.6501 143.33 37.7701 144.06 37.7001C144.42 37.6501 144.75 37.4701 144.99 37.1801C145.22 36.9001 145.34 36.5401 145.32 36.1701C145.13 35.1701 143.59 34.6901 143.73 33.6901C143.81 33.3601 143.98 33.0701 144.23 32.8401C146.4 30.5301 149.05 28.7301 151.99 27.5701C154.94 26.4101 158.1 25.9101 161.26 26.1101C162.02 27.3601 160.82 28.8301 159.82 29.8901C158.82 30.9501 158.02 32.8501 159.23 33.6701C159.72 33.9201 160.27 34.0501 160.83 34.0301C162.31 34.2301 163.75 34.6701 165.09 35.3201C167.17 36.2201 169.2 37.2101 171.2 38.2901C171.02 36.9701 170.86 35.5901 171.35 34.3601C171.84 33.1301 173.27 32.1601 174.51 32.6401C175.7 33.1001 176.32 34.6801 177.59 34.8301C179.29 35.0201 179.96 32.5201 179.25 30.9601C178.54 29.4101 177.14 28.1101 177.02 26.4001C176.94 25.2501 177.38 23.8301 176.46 23.1301C176.13 22.9201 175.76 22.7901 175.38 22.7501L152.46 18.5301C151.1 18.2801 149.13 18.4701 149.07 19.8501C149.04 20.6201 149.73 21.3901 149.42 22.0901C149.09 22.8501 148.02 22.7801 147.24 23.0501C146.03 23.4701 145.42 24.9001 145.54 26.1801C145.75 27.4501 146.24 28.6501 146.98 29.7001C145.49 29.0801 143.23 28.9601 141.74 28.3401L141.71 28.4501Z" fill="#C2D5FF"/>
<path d="M123.42 8.98991C121.98 8.50991 120.42 8.48991 118.96 8.92991C117.5 9.36991 116.21 10.2399 115.27 11.4399C114.89 11.9399 114.58 12.6199 114.89 13.1599C115.34 13.9299 116.5 13.6299 117.35 13.3499C118.6 12.8999 119.96 12.8699 121.23 13.2599C122.03 13.5299 122.74 14.0199 123.55 14.2799C123.94 14.4399 124.37 14.4999 124.79 14.4399C125.21 14.3799 125.6 14.1999 125.93 13.9399C126.48 13.3799 126.52 12.4999 126.52 11.7199C126.56 11.4599 126.54 11.1899 126.46 10.9299C126.38 10.6799 126.25 10.4399 126.07 10.2499C125.75 10.0599 125.39 9.95991 125.02 9.93991C124.19 9.78991 123.44 9.34991 122.9 8.69991" fill="#C2D5FF"/>
<path d="M131.68 6.68988C131.36 6.66988 131.03 6.73988 130.74 6.87988C130.45 7.01988 130.2 7.23988 130.02 7.50988C129.84 7.77988 129.73 8.08988 129.7 8.40988C129.67 8.72988 129.73 9.05989 129.86 9.34988C130.85 9.61988 131.89 9.68988 132.91 9.54988C133.42 9.46988 133.89 9.23988 134.27 8.89988C134.65 8.54988 134.92 8.09988 135.04 7.59988C133.84 7.81988 132.6 7.57988 131.56 6.93988" fill="#C2D5FF"/>
<path d="M159.41 2.85002C156.71 3.42002 154.08 4.32002 151.58 5.51002C152.76 5.96002 153.76 6.78002 154.43 7.84002C155.11 8.90002 155.42 10.16 155.33 11.41C155.23 11.89 155.24 12.39 155.37 12.87C155.66 13.57 156.49 13.83 157.22 14.01C158.54 14.41 159.91 14.59 161.28 14.53C161.97 14.49 162.63 14.29 163.22 13.93C163.81 13.57 164.29 13.07 164.64 12.48C164.84 11.92 165.07 11.36 165.34 10.83C167.1 8.16002 172.31 11.39 174.19 8.81002C174.85 7.90002 174.79 6.53002 175.66 5.81002C176.11 5.50002 176.63 5.30002 177.17 5.23002C180.96 4.48002 184.79 3.93002 188.63 3.60002C190.45 3.44002 192.83 2.79002 192.85 0.96002C185.98 -0.38998 178.86 0.57002 172.59 3.69002C170.33 4.82002 167.34 7.20002 165.17 5.70002C164.36 5.14002 164.4 3.63002 163.28 3.00002C162.13 2.35002 160.62 2.62002 159.4 2.88002L159.41 2.85002Z" fill="#C2D5FF"/>
<path d="M181.87 7.04998L185.09 7.66998C184.5 7.63998 183.91 7.73998 183.35 7.96998C182.8 8.18998 182.3 8.52998 181.89 8.94998C181.48 9.37998 181.16 9.88998 180.96 10.45C180.76 11.01 180.69 11.61 180.74 12.2C183.76 13.21 187.05 12.23 190.23 12.36C193.41 12.49 197.11 14.77 196.57 17.9C196.4 18.85 195.86 19.8 196.14 20.72C196.34 21.36 196.91 21.82 197.23 22.42C197.9 23.66 197.36 25.22 196.52 26.34C195.68 27.46 194.54 28.36 193.8 29.56C191.96 32.53 193 36.37 194.1 39.69C194.42 40.94 195 42.11 195.82 43.12C197.45 44.85 200.1 45 202.47 45.03C204.2 45.06 206.18 44.97 207.27 43.63C208.7 41.88 207.7 39.16 208.64 37.11C209.49 35.25 211.67 34.45 213.63 33.88C217.24 32.84 220.91 31.96 224.32 30.39C228.55 28.44 232.51 25.41 237.16 25.16C238.47 25.09 239.8 25.24 241.06 24.89C242.32 24.53 243.51 23.45 243.42 22.14C243.34 21.03 242.4 20.21 241.66 19.37C240.92 18.53 240.35 17.24 241.02 16.35L253.22 14.07C252.36 11.71 251.68 8.60998 253.67 7.07998C254.39 6.52998 255.35 6.30998 255.96 5.63998C257 4.49998 256.48 2.53998 255.28 1.56998C254.08 0.59998 252.46 0.37998 250.92 0.24998C245.57 -0.19002 240.19 0.0999798 234.84 0.38998C224.37 0.95998 213.89 1.53998 203.42 2.10998C201.31 2.22998 198.88 2.04998 196.94 2.76998C195.3 3.37998 194.14 4.49998 192.27 4.88998C188.81 5.61998 185.01 5.11998 181.88 7.06998L181.87 7.04998Z" fill="#C2D5FF"/>
<path d="M239.63 32.5299C239.3 32.4799 238.97 32.5499 238.69 32.7399C238.51 32.9399 238.4 33.1899 238.39 33.4599C238.18 34.6499 238.43 35.8699 239.08 36.8799C239.41 37.3799 239.87 37.7699 240.41 38.0299C240.95 38.2899 241.55 38.3999 242.14 38.3499C243.59 38.1599 244.66 36.9299 246 36.3199C248.06 35.3899 256.79 33.9399 250.75 30.6699C248.67 29.5499 247.32 30.5399 245.68 31.2799C243.81 32.2399 241.72 32.6599 239.63 32.5199V32.5299Z" fill="#C2D5FF"/>
<path d="M292.56 5.20008C291.86 5.49008 291.26 6.00008 290.88 6.66008C290.7 6.99008 290.66 7.38008 290.77 7.75008C290.87 8.11008 291.11 8.42008 291.44 8.62008C291.7 8.72008 291.98 8.76008 292.26 8.75008L295.13 8.84008C296.35 8.88008 297.87 9.14008 298.2 10.3101C298.44 11.1801 297.9 12.3001 298.56 12.9301C298.84 13.1501 299.18 13.2801 299.54 13.3101C300.49 13.5501 301.47 13.5801 302.43 13.4001C304.52 12.8401 303.42 11.5701 304.08 10.4301C305.09 8.69008 304.91 9.74008 306.68 8.75008C307.99 8.02008 309.68 6.68008 308.59 4.81008C306.69 1.55008 295.38 3.81008 292.57 5.20008H292.56Z" fill="#C2D5FF"/>
<path d="M349.19 3.56999L347.52 3.78999C343.76 4.28999 339.98 4.79999 336.37 5.92999C337.94 6.54999 339.58 6.94999 341.25 7.12999C342.17 7.17999 343.09 7.30999 343.99 7.51999C345.59 7.99999 347.2 9.21999 348.74 8.58999C349.7 8.19999 350.01 7.19999 350.8 6.66999C351.35 6.30999 353.42 5.70999 353.66 5.34999C355.54 2.36999 350.63 3.37999 349.19 3.56999Z" fill="#C2D5FF"/>
<path d="M356.5 11.1401C354.27 12.3801 352.21 13.9001 350.35 15.6401C349.57 16.3801 348.77 17.2901 348.84 18.3601C348.93 19.7801 350.45 20.6101 351.77 21.1701L357.1 23.4201C357.75 22.5101 357.15 21.2501 356.49 20.3601C355.82 19.4701 355.03 18.4301 355.32 17.3501C355.66 16.1201 357.16 15.7001 358.41 15.4901C360.46 15.1501 365.98 15.1701 365.32 11.8701C364.54 7.98009 358.56 9.98009 356.51 11.1301L356.5 11.1401Z" fill="#C2D5FF"/>
<path d="M355.43 231.13C354.92 232.6 354.88 234.33 355.75 235.61C356.73 237.05 358.7 237.58 360.41 237.22C362.11 236.77 363.62 235.8 364.73 234.44C365.75 233.3 366.59 232.02 367.22 230.63C368.1 228.46 368.72 226.2 369.06 223.88L370.71 215.2C371.08 213.26 371.07 207.31 367.5 209.25C366.53 209.78 364.27 213.96 363.25 215.15C361.41 217.29 361.17 219.36 360.2 221.95C358.99 225.19 356.55 227.89 355.43 231.14V231.13Z" fill="#C2D5FF"/>
<path d="M543.78 275.56C542.61 275.1 541.48 274.57 540.39 273.95C539.3 276.95 538.72 280.12 538.67 283.31L546.66 278.79C547.86 278.11 549.22 277.17 549.2 275.79C549.21 275.62 549.18 275.45 549.1 275.3C549.02 275.15 548.9 275.02 548.76 274.93C548.58 274.86 548.39 274.84 548.2 274.86C547.02 274.96 545.94 275.54 544.82 275.95C543.7 276.36 542.4 276.57 541.37 275.97" fill="#C2D5FF"/>
<path d="M571.44 192.38C570.36 192.64 569.24 192.71 568.14 192.57C566.31 192.23 564.88 190.85 563.4 189.72C559.88 187.04 555.6 185.54 551.18 185.45C547.15 185.37 543.09 186.46 539.14 185.7C539.4 187.14 540.63 188.21 541.94 188.85C543.25 189.49 544.7 189.81 546.02 190.44C548.13 191.45 549.8 193.2 550.73 195.34C551.15 196.33 551.42 197.41 552.07 198.27C553.38 200.04 555.87 200.43 558.07 200.28C560.94 200.09 563.93 199.27 566.6 200.33C568.64 201.15 570.1 202.93 571.8 204.32C573.5 205.71 575.9 206.74 577.86 205.74C575.83 205.08 574.06 203.79 572.82 202.06C571.57 200.33 570.91 198.24 570.94 196.11C572.86 196.29 578.38 196.22 578.08 192.96C577.83 190.2 573.11 192.07 571.47 192.37L571.44 192.38Z" fill="#C2D5FF"/>
<path d="M546.35 214.86C546.69 212.99 548.55 211.34 547.97 209.54C547.57 208.29 546.12 207.67 544.81 207.64C543.5 207.61 542.21 208 540.9 208.04C540.05 208 539.19 208.01 538.34 208.08C535.74 208.51 534.13 211.24 531.67 212.21C530.18 212.8 528.5 212.69 526.95 213.1C523.42 214.03 521.19 217.36 518.73 220.04C514.75 224.36 509.56 227.38 503.84 228.72C501.84 229.18 499.68 229.48 498.09 230.78C495.98 232.5 495.46 235.46 494.99 238.14C493.69 245.55 491.71 252.82 489.07 259.87L497.44 260.94C499.03 261.14 500.68 261.34 502.21 260.87C503.32 260.45 504.38 259.89 505.35 259.2C509.08 256.89 513.25 255.38 517.59 254.78C519.78 254.48 522.08 254.42 524.14 255.24C526.2 256.06 527.96 257.9 528.13 260.11C529.02 259.83 529.97 259.8 530.87 260.02C531.77 260.24 532.6 260.7 533.27 261.36C534.58 262.69 535.44 264.41 535.72 266.26C535.94 267.4 536.16 268.78 537.22 269.26C538.09 269.65 539.08 269.23 540.03 269.15C543.25 268.89 545.92 272.64 549.08 272C552.47 271.31 553.3 266.23 556.61 265.21C558.51 264.63 561.18 265.34 562.09 263.57C562.89 262.01 561.29 260.21 561.46 258.47C561.66 256.32 564.2 255.41 566.15 254.49C572.88 251.33 576.08 242.26 572.82 235.58C570.89 231.62 567.08 228.5 566.38 224.15C565.84 220.8 567.16 216.9 565.03 214.26C563.94 212.92 562.11 212.18 561.46 210.58C561.05 209.57 561.22 208.43 561 207.37C560.78 206.31 559.85 205.19 558.8 205.47C555.75 206.27 554.78 215.69 553.15 217.98C550.67 221.46 545.57 219.17 546.36 214.88L546.35 214.86Z" fill="#C2D5FF"/>
<path d="M490 195.94C488.96 195.65 487.82 195.36 486.82 195.78C485.82 196.2 485.24 197.66 486.04 198.39C492.31 198.15 498.62 197.9 504.83 198.75C511.99 199.73 519.08 202.16 526.27 201.45C522.16 200.24 517.99 199.27 513.76 198.55L506.72 197.2C504.83 196.8 502.92 196.51 501 196.32C496.98 195.99 493.94 197.05 489.99 195.94H490Z" fill="#C2D5FF"/>
<path d="M496.27 174.11C495.75 174.07 495.1 174.03 494.84 174.48C494.58 174.91 494.88 175.47 494.74 175.95C494.55 176.6 493.69 176.77 493.02 176.68C492.34 176.59 491.61 176.38 491.01 176.7C490.71 176.91 490.48 177.21 490.36 177.56C490.24 177.91 490.24 178.29 490.36 178.63C490.61 179.32 491 179.96 491.52 180.48C492.4 181.6 493.41 182.61 494.53 183.5C496.68 185.09 499.6 185.86 500.96 188.16C501.15 188.61 501.45 189 501.82 189.32C502.47 189.73 503.32 189.42 504.02 189.1L506.48 187.98C506.92 187.82 507.32 187.55 507.63 187.2C508.19 186.44 507.85 185.35 507.37 184.53C506.89 183.71 506.29 182.86 506.4 181.92C506.58 180.24 508.74 179.6 509.63 178.16C510.52 176.71 509.94 174.85 510.04 173.15C510.16 171.16 511.41 168.58 509.4 167.1C507.69 165.84 506.06 167 504.84 168.4C502.26 171.34 501.03 174.52 496.29 174.12L496.27 174.11Z" fill="#C2D5FF"/>
<path d="M511.19 144.44C512.03 146.05 513.78 147.01 514.69 148.57C515.68 150.27 515.57 152.46 516.65 154.1C517.75 155.79 519.98 156.68 520.6 158.6C521.28 160.69 519.74 163.24 520.96 165.07C521.19 165.37 521.48 165.62 521.81 165.8C522.14 165.98 522.5 166.09 522.88 166.13C523.26 166.16 523.63 166.12 523.99 166C524.35 165.88 524.67 165.69 524.95 165.44C525.47 164.88 525.74 164.14 525.72 163.38C525.7 162.62 525.38 161.89 524.83 161.37C524.11 160.71 523.07 160.42 522.46 159.65C522.15 159.2 521.94 158.69 521.85 158.16C521.52 156.61 521.57 155 522 153.48C522.16 153.09 522.2 152.66 522.12 152.25C521.85 151.46 520.78 151.4 520.02 151.04C518.31 150.21 518.35 147.8 518.65 145.92C518.45 147.17 514 145.04 513.54 144.34C512.62 142.94 513.12 140.22 512.94 138.67C510.94 139.63 510.17 142.49 511.2 144.45L511.19 144.44Z" fill="#C2D5FF"/>
<path d="M466.37 169.16C465.55 168.24 464.31 167.28 463.21 167.83C462.37 168.25 462.14 169.42 462.47 170.3C462.87 171.16 463.49 171.89 464.26 172.44C466.56 174.33 469.03 176.04 471.03 178.24C474.61 182.18 476.51 187.49 480.41 191.12C481.19 191.96 482.23 192.52 483.36 192.72C484.5 192.83 485.77 192.1 485.9 190.97C486.01 190.04 485.36 189.2 484.72 188.51C483.21 186.86 481.55 185.35 480.12 183.63C479.46 182.97 479.05 182.1 478.95 181.17C478.95 180.24 479.79 179.27 480.68 179.5C479.59 179.22 478.78 177.4 477.18 177.06C475.84 176.77 475.52 177.6 473.92 176.92C470.88 175.62 468.5 171.55 466.37 169.16Z" fill="#C2D5FF"/>
<path d="M537.76 79.6399C536.89 79.3799 536.03 79.0699 535.19 78.7199C532.93 78.0399 529.95 79.6999 530.25 82.0399C530.45 83.5899 531.89 84.6399 532.69 85.9799C533.87 87.9799 533.56 90.5099 532.94 92.7399C532.79 93.4299 532.5 94.0899 532.09 94.6599C531.52 95.2699 530.83 95.7599 530.07 96.1099C527.02 97.8199 524.34 100.1 522.16 102.83C521.92 103.08 521.76 103.39 521.68 103.73C521.57 104.52 522.37 105.09 522.81 105.75C523.81 107.21 523.09 109.18 523.18 110.94C523.17 111.19 523.21 111.44 523.32 111.66C523.43 111.89 523.59 112.08 523.8 112.22C524.4 112.53 525.11 112.01 525.44 111.42C526.52 109.46 525.71 106.33 527.73 105.38C528.11 105.2 528.58 105.13 528.83 104.79C529.24 104.26 528.84 103.47 529.05 102.83C529.36 101.87 530.67 101.83 531.67 101.87C533.4 101.94 535.13 101.71 536.79 101.19C537.44 101.04 538.03 100.69 538.48 100.21C539.09 99.4499 539.03 98.3799 538.91 97.4199C538.3 92.6299 536.79 87.9999 534.44 83.7899C536.22 84.0199 538.15 84.2099 539.69 83.2899C540.55 82.7699 541.58 81.2199 541.15 80.1599C540.48 78.4899 539.26 79.8999 537.75 79.6199L537.76 79.6399Z" fill="#C2D5FF"/>
<path d="M309.72 105.98C309.93 107.12 310.14 108.32 309.77 109.42C309.39 110.52 308.22 111.44 307.11 111.1C306.25 110.84 305.75 109.97 305.14 109.31C301.73 105.63 294.05 107.76 291.94 103.21C291.08 101.35 291.67 99.1299 291.08 97.1699C290.71 96.0399 289.98 95.0599 288.99 94.3899C288 93.7199 286.82 93.3999 285.63 93.4699C284.55 93.6299 283.49 93.9399 282.5 94.4099C275.85 97.0699 268.86 98.8199 261.74 99.5999C260.39 99.6799 259.05 99.9299 257.75 100.33C254.82 101.39 252.83 104.1 251.4 106.87C249.98 109.64 248.93 112.63 247.02 115.09C245.02 117.67 242.21 119.48 239.59 121.44C238.58 122.09 237.74 122.97 237.14 124.01C236.57 125.18 236.6 126.53 236.65 127.83L237.19 143.57C237.26 145.6 237.34 147.69 238.25 149.5C239.38 151.76 241.62 153.24 243.17 155.24C244.75 157.29 245.58 159.83 245.5 162.42C245.47 163.46 245.36 164.69 246.18 165.35C246.67 165.67 247.25 165.84 247.84 165.83L269.13 167.57C272.88 167.88 277.03 168.38 279.47 171.23C280.62 172.58 281.55 174.51 283.32 174.66C284.08 174.72 284.82 174.41 285.57 174.35C287.48 174.2 289.17 175.65 290.23 177.25C291.84 179.69 292.57 182.6 292.3 185.51C292.13 187.33 291.56 189.11 291.44 190.94C290.98 197.9 296.88 203.95 296.99 210.92C297.06 215.02 295.11 218.85 293.21 222.49C296.27 227.13 293.76 233.31 294.98 238.74C296.14 243.89 300.43 247.92 301.5 253.09C301.99 255.45 302.02 258.37 304.1 259.58C305.02 260.03 306.03 260.23 307.05 260.17C313.18 260.24 319.24 258.86 324.74 256.14C327.32 254.86 329.99 252.95 330.44 250.11C330.8 247.82 329.64 245.25 330.82 243.25C332.21 240.9 335.79 241.08 337.84 239.27C341.17 236.33 338.57 230.73 339.92 226.5C341.13 222.7 345.31 220.68 347.38 217.26C348.19 215.79 348.78 214.21 349.11 212.56C350.06 208.63 350.65 204.62 350.87 200.58C350.92 198.13 351.11 195.68 351.41 193.24C353.64 179.38 367.35 170.1 371.79 156.78C372.22 155.51 372.41 153.81 371.28 153.09C370.61 152.77 369.85 152.69 369.13 152.86L359.31 154.1C358.09 154.25 356.8 154.4 355.68 153.89C354.56 153.38 353.76 151.97 354.35 150.89C356.02 147.87 352.59 144.05 351.06 140.96C346.96 132.63 342.07 124.7 336.47 117.29C336.11 116.91 335.89 116.42 335.83 115.9L338.62 115.99C337.68 112.61 336.13 108.92 332.85 107.69C331 106.99 328.96 107.23 326.99 107.34C321.34 107.65 315.29 106.8 309.7 105.93L309.72 105.98Z" fill="#C2D5FF"/>
<path d="M327.01 29.9301C328.49 31.5001 330.14 33.1601 332.28 33.4401C336.06 33.9201 338.77 30.0201 340.5 26.6301C340.56 27.4901 340.96 28.3001 341.61 28.8801C342.26 29.4601 343.11 29.7501 343.97 29.7101C344.9 29.5501 345.79 29.2101 346.58 28.6901C354.06 24.6001 362.44 22.4401 370.96 22.3901C370.88 21.7401 371.04 21.0901 371.41 20.5601C371.78 20.0301 372.34 19.6501 372.97 19.5001C374.7 19.1601 376.26 20.6501 377.1 22.2101C377.94 23.7701 378.46 25.5701 379.78 26.7401C381.11 27.9101 383.68 27.8501 384.21 26.1701C384.71 24.5501 383.03 23.1701 381.62 22.2101C380.22 21.2601 378.74 19.4901 379.69 18.0801C386.85 16.4901 394.06 14.9001 401.39 14.5901C402.64 14.6301 403.88 14.4201 405.04 13.9601C406.16 13.4101 407.05 12.1701 406.74 10.9601C405.14 11.3401 403.47 11.2301 401.93 10.6501C400.39 10.0701 399.06 9.05008 398.11 7.71008C408.28 6.87008 419.1 6.16008 428.11 10.9401C429.19 13.2601 423.68 15.1901 425.15 17.2901C425.62 17.9601 426.56 18.0401 427.38 18.0501C433.64 18.1701 439.94 18.2801 446.14 17.3301C448.4 16.9801 450.69 16.5001 452.96 16.7801C456.75 17.2501 459.98 19.7701 463.7 20.5901C465.22 20.9301 466.91 20.9401 468.19 20.0601C469.47 19.1801 470.02 17.1701 468.97 16.0301C472.47 12.5901 478.29 13.4501 482.92 15.0901C487.54 16.7301 491.93 19.3901 496.82 19.7501C500.33 20.0101 503.89 19.0701 507.36 19.6701C509.54 20.0501 511.57 21.0201 513.7 21.6101C517.73 22.7401 521.99 22.5001 526.17 22.5501C536.84 22.6901 547.4 24.7901 557.31 28.7401C558.6 29.1601 559.78 29.8601 560.77 30.7901C561.69 31.7801 562.16 33.3101 561.54 34.5101L551.29 33.0101C552.26 34.9101 554.75 35.2301 556.78 35.8901C558.81 36.5501 560.91 38.7901 559.69 40.5301C557.49 39.8301 555.5 42.0301 554.39 44.0501C553.28 46.0701 551.93 48.4901 549.62 48.6201C547.56 48.7301 545.06 46.9701 543.72 48.5401C545.58 50.8801 547.17 53.4301 548.46 56.1201C549.79 58.8901 550.73 62.3701 548.94 64.8601C548.66 65.3001 548.23 65.6401 547.73 65.8001C546.26 66.1701 545.31 64.3801 544.26 63.2901C542.93 61.9201 540.93 61.5301 539.14 60.8901C537.35 60.2501 535.46 58.9801 535.32 57.0801C535.23 55.9001 535.86 54.8001 536.32 53.7101C537.09 51.8701 537.43 49.8701 537.31 47.8801C537.21 46.2801 536.76 44.6101 535.61 43.4901C534.46 42.3701 532.47 42.0101 531.23 43.0401C530.65 43.5201 530.19 44.2901 529.44 44.3101C528.12 44.3601 527.1 42.0501 526.03 42.8401C526.15 43.6801 525.98 44.5401 525.54 45.2601C522.36 48.0201 517.48 46.8601 513.38 47.8301C511.43 48.3901 509.57 49.2001 507.83 50.2501C507.18 50.5301 506.63 50.9901 506.24 51.5801C505.73 52.5701 506.29 53.8501 507.19 54.5101C508.15 55.1001 509.22 55.4601 510.34 55.5801C515.34 56.5301 520.4 57.9901 524.35 61.2001C528.29 64.4101 530.88 69.7101 529.63 74.6401L519.78 65.2301C520.15 69.1801 520.37 73.1501 520.42 77.1201C520.48 77.9001 520.38 78.6801 520.11 79.4101C519.41 80.9601 517.5 81.4801 515.84 81.8301C515.38 81.9201 514.94 82.1001 514.55 82.3701C514.16 82.6401 513.84 82.9901 513.59 83.3901C513.35 83.8001 513.19 84.2501 513.14 84.7201C513.08 85.1901 513.13 85.6601 513.27 86.1201C513.86 88.0501 515.34 89.5601 516.69 91.0601C518.04 92.5601 519.37 94.2701 519.55 96.2801C519.73 98.2901 518.21 100.56 516.19 100.42C514.66 100.31 513.53 98.9501 512.88 97.5601C512.23 96.1701 511.84 94.6301 510.86 93.4501C507.9 89.8801 501.24 91.4101 498.58 87.6101C497.9 88.3801 497.43 89.3101 497.22 90.3101C497 91.3101 497.04 92.3501 497.34 93.3301C498.58 92.5601 500.27 93.2801 501.2 94.4001C502.13 95.5201 502.57 96.9601 503.3 98.2301C504.28 99.9301 505.85 101.44 505.99 103.41C505.95 104.15 505.97 104.9 506.03 105.64C506.27 106.83 507.28 107.68 507.97 108.68C509.59 110.99 509.51 114.17 508.47 116.79C507.43 119.41 505.55 121.61 503.69 123.73C500.44 127.44 497.13 131.13 493.28 134.22C492.18 135.1 491.01 135.96 490.33 137.2C489.65 138.43 489.61 140.16 490.66 141.09C489.91 141.13 488.56 141.5 487.81 141.53C487.55 138.51 487.49 135.48 487.64 132.45C484.67 131.02 481.47 134.84 481.86 138.11C482.25 141.38 484.61 144.01 486.29 146.84C487.52 148.91 488.44 151.32 488.03 153.7C487.62 156.08 485.5 158.26 483.1 158.05C479.28 157.72 477.69 152.24 473.91 151.61C473.58 151.53 473.23 151.57 472.92 151.71C472.36 152.02 472.26 152.77 472.23 153.41C472.08 156.55 471.94 159.81 473.17 162.7C474.96 166.93 479.59 170.49 478.62 174.98C473.39 172.55 470.67 166.68 469.44 161.05C468.21 155.42 468 149.5 465.79 144.18C464.11 146.33 460.58 144.55 459.04 142.29C457.58 140.15 456.69 137.67 455.28 135.5C453.87 133.33 451.7 131.38 449.12 131.26C446.41 131.14 444.05 133 441.99 134.75C440.29 136.2 438.54 137.7 437.55 139.7C436.1 142.61 436.48 146.04 436.41 149.29C436.34 152.8 435.59 156.51 433.2 159.08C430.81 161.65 426.39 162.55 423.75 160.23C422.37 159.02 421.7 157.21 421.11 155.48C418.24 147.12 415.86 138.6 413.96 129.96C413.52 131.93 411.79 134.47 410.13 133.31C409.76 133 409.46 132.61 409.25 132.17C406.17 126.94 400.45 123.81 394.68 121.93C388.91 120.05 382.84 119.17 377.13 117.11C373.93 115.95 370.88 114.43 368.03 112.58C367.3 113.65 366.88 114.89 366.8 116.18C366.72 117.47 367 118.76 367.59 119.9C368.85 122.14 371.72 123.44 374.17 122.65C375.44 122.24 376.51 121.37 377.76 120.93C379.02 120.5 380.71 120.71 381.25 121.92C381.78 123.08 380.98 124.48 381.37 125.69C381.97 127.53 384.75 127.68 385.72 129.35C386.44 130.6 385.85 132.26 384.82 133.26C383.79 134.27 382.41 134.82 381.15 135.52C377.06 137.8 374.15 141.68 370.57 144.7C366.99 147.72 361.95 149.93 357.69 147.99C358.71 142.85 352.58 139.07 351.45 133.95C351.08 132.27 351.27 130.47 350.74 128.83C349.97 126.45 347.86 124.82 346.13 123.02C344.03 120.81 342.4 118.2 341.32 115.35C340.25 112.5 339.75 109.46 339.87 106.42C339.96 104.3 340.35 102.15 339.87 100.09C339.39 98.0301 337.68 96.0301 335.56 96.1201C330.73 96.3301 324.64 96.6901 322.1 92.5701C321.2 91.1001 320.8 88.9501 322.1 87.8201C323.02 87.0301 324.39 87.1001 325.6 87.2201L336.49 88.2901C339.04 88.5401 341.79 88.7501 343.98 87.4201C346.17 86.0901 347.11 82.5501 345.09 80.9901C343.61 79.8501 340.96 79.9101 340.53 78.0901C340.17 76.5701 341.85 74.8501 340.94 73.5901C340.29 72.6801 338.83 72.9301 337.95 73.6101C337.06 74.2901 336.42 75.2901 335.43 75.8001C333.69 76.7001 331.62 75.8401 329.75 75.2601C327.88 74.6801 325.37 74.6301 324.47 76.3601C323.46 78.3001 325.37 80.8501 324.36 82.7901C323.03 85.3601 318.52 83.9001 316.66 86.1101C314.52 88.6501 318.12 92.4401 317.4 95.6801C316.48 96.1401 315.45 96.3501 314.42 96.2901C313.39 96.2301 312.4 95.9101 311.53 95.3501C310.68 94.7701 310 93.9701 309.57 93.0401C309.14 92.1101 308.96 91.0701 309.07 90.0501C309.25 88.5901 310.01 87.1001 309.5 85.7201C309.09 84.6101 307.97 83.9401 306.93 83.3701L296.35 77.5201C295.37 79.3401 296.61 81.6001 298.16 82.9701C299.71 84.3401 301.66 85.3701 302.68 87.1701C303.33 88.4201 303.47 89.8701 303.08 91.2201C302.69 92.5701 301.81 93.7201 300.6 94.4401C300.45 94.5401 300.28 94.6101 300.09 94.6501C299.91 94.6801 299.72 94.6701 299.55 94.6301C299.38 94.5301 299.23 94.4001 299.12 94.2401C299.01 94.0801 298.92 93.9001 298.87 93.7101C297 88.9301 294.2 84.2201 289.72 81.7301C285.24 79.2301 278.8 79.7501 275.86 83.9501C275.16 84.9501 274.69 86.0901 274.09 87.1401C270.86 92.7501 263.93 95.4101 257.46 95.2301C256.83 95.2701 256.2 95.1201 255.65 94.8001C254.6 94.0801 254.65 92.5501 254.81 91.2801L255.49 85.9301C255.63 84.8601 255.82 83.6701 256.67 83.0001C257.87 82.0501 259.6 82.6501 261.12 82.6301C262.28 82.5801 263.39 82.1701 264.31 81.4601C265.23 80.7501 265.9 79.7801 266.25 78.6801C266.56 77.5601 266.56 76.3801 266.25 75.2701C265.94 74.1601 265.33 73.1501 264.48 72.3501C263.78 71.6901 262.84 70.8701 263.21 69.9801C263.36 69.7301 263.56 69.5301 263.79 69.3701C264.03 69.2101 264.3 69.1001 264.58 69.0601C267.32 68.2601 270.22 68.0501 272.92 67.1201C275.62 66.1801 278.23 64.2601 278.87 61.4701C279.07 60.6201 279.16 59.5801 279.92 59.1601C280.3 59.0001 280.72 58.9101 281.13 58.9101C282.59 58.7001 283.92 57.9501 284.86 56.8101C285.8 55.6701 286.28 54.2201 286.2 52.7401C287.49 51.8401 289.3 52.5001 290.55 53.4601C291.8 54.4201 292.9 55.6901 294.43 56.1001C297.26 56.8701 300.01 54.3601 302.94 54.3501C304.18 54.3501 305.46 54.7801 306.62 54.3601C307.8 53.9401 308.5 52.7601 309.41 51.9001C310.31 51.0301 311.9 50.5001 312.74 51.4401L312.03 46.1701C313.46 46.5301 314.95 46.5801 316.41 46.3201C317.86 46.0601 319.24 45.4901 320.46 44.6501L311.27 41.5401C310.95 41.4601 310.65 41.3001 310.41 41.0801C309.74 40.3601 310.41 39.2401 310.95 38.4201C312.25 36.4601 312.47 33.2401 310.33 32.2701C308.87 31.6101 307.2 32.4001 305.79 33.1801L299.08 36.9201C298.87 38.2001 300.43 38.9201 301.39 39.7801C301.97 40.3001 302.39 40.9801 302.58 41.7401C302.77 42.5001 302.72 43.3001 302.45 44.0301C302.18 44.7601 301.69 45.4001 301.05 45.8501C300.41 46.3001 299.65 46.5501 298.87 46.5601C299.31 47.1301 299.62 47.8001 299.77 48.5101C299.92 49.2201 299.91 49.9501 299.73 50.6601L295.22 50.9801C294.71 51.0801 294.19 50.9801 293.76 50.6901C293.28 50.2601 293.34 49.5101 293.23 48.8701C292.96 47.3401 291.46 46.2601 289.92 45.9801C288.38 45.7001 286.82 46.0601 285.3 46.4101C284.65 46.6401 283.95 46.6301 283.31 46.3601C282.95 46.1201 282.67 45.7801 282.52 45.3701C281.85 43.7601 282.48 41.8601 283.55 40.4801C284.62 39.1001 286.08 38.0901 287.4 36.9401C290.54 34.1801 292.85 30.6001 294.07 26.6001C296.56 25.5601 299.13 24.1401 301.61 23.1001C305.44 21.1601 309.74 20.3301 314.01 20.7001L322.42 20.8601C324.91 20.9101 327.47 20.9701 329.77 21.9201C332.07 22.8701 334.1 24.9201 334.26 27.4101C334.31 27.6901 334.28 27.9801 334.19 28.2501C334.09 28.5201 333.93 28.7601 333.72 28.9501C333.39 29.1301 333.03 29.2101 332.66 29.1901C330.34 29.2701 329.35 29.8501 327.02 29.9301H327.01Z" fill="#C2D5FF"/>
<path d="M259.94 56.2999C260.27 55.9899 260.51 55.5899 260.62 55.1599C260.74 54.7199 260.73 54.2599 260.61 53.8299C259.81 53.5199 258.94 53.4399 258.1 53.5999C257.26 53.7599 256.48 54.1499 255.84 54.7299C255.34 55.2299 254.91 55.7999 254.56 56.4199C253.45 58.2199 252.48 60.3799 253.12 62.3999C253.17 62.6199 253.27 62.8299 253.4 63.0099C253.53 63.1899 253.7 63.3499 253.89 63.4599C254.18 63.5799 254.49 63.6199 254.8 63.5999C256.02 63.5999 257.23 63.5199 258.44 63.3799C259.18 63.2899 260.04 63.0799 260.33 62.3899C260.71 61.4799 259.79 60.4499 260.06 59.5099C260.23 59.0899 260.5 58.7099 260.84 58.3999C261.01 58.2399 261.14 58.0499 261.22 57.8399C261.3 57.6299 261.33 57.3999 261.3 57.1699C261.19 56.7299 260.51 56.4699 260.27 56.8599" fill="#C2D5FF"/>
<path d="M266.26 48.11C265.18 47.86 264.06 47.79 262.96 47.9C262.71 47.9 262.47 47.95 262.26 48.06C262.05 48.22 261.9 48.44 261.83 48.69C261.6 49.44 261.65 50.25 261.99 50.96C262.33 51.67 262.92 52.22 263.65 52.52C264.05 52.61 264.43 52.76 264.78 52.97C265.71 53.69 265.12 55.18 265.29 56.34C265.49 57.65 266.76 58.75 266.53 60.06C266.35 61.09 265.25 61.9 265.42 62.94C265.61 64.02 266.97 64.34 268.07 64.43C268.7 64.54 269.35 64.47 269.95 64.22C270.54 63.81 270.96 63.2 271.13 62.51C271.58 61.18 271.77 59.78 271.68 58.37C271.68 57.73 271.51 57.11 271.21 56.54C270.88 56.1 270.52 55.68 270.12 55.29C268.03 52.86 270.23 49.23 266.27 48.11H266.26Z" fill="#C2D5FF"/>
<path opacity="0.8" d="M541.34 238.73C541.34 238.73 381.12 146.76 312.14 164.19C312.14 164.19 165.96 179.92 149.02 214.53C149.02 214.53 102.55 69.32 85.61 64.48" stroke="#3444BA" stroke-width="1.17" stroke-miterlimit="10"/>
<path opacity="0.8" d="M149.02 214.53C175.88 142.89 417.91 63.51 417.91 63.51C383.54 72.22 312.15 164.19 312.15 164.19C312.15 164.19 161.13 54.31 85.62 64.48C85.62 64.48 418.16 75.37 541.35 238.74" stroke="#3444BA" stroke-width="1.17" stroke-miterlimit="10"/>
<path d="M85.61 71.4899C89.49 71.4899 92.63 68.35 92.63 64.47C92.63 60.59 89.49 57.45 85.61 57.45C81.73 57.45 78.59 60.59 78.59 64.47C78.59 68.35 81.73 71.4899 85.61 71.4899Z" fill="#3444BA"/>
<path d="M149.02 221.54C152.9 221.54 156.04 218.4 156.04 214.52C156.04 210.64 152.9 207.5 149.02 207.5C145.14 207.5 142 210.64 142 214.52C142 218.4 145.14 221.54 149.02 221.54Z" fill="#3444BA"/>
<path d="M417.91 70.52C421.79 70.52 424.93 67.38 424.93 63.5C424.93 59.62 421.79 56.48 417.91 56.48C414.03 56.48 410.89 59.62 410.89 63.5C410.89 67.38 414.03 70.52 417.91 70.52Z" fill="#3444BA"/>
<path d="M541.34 245.75C545.22 245.75 548.36 242.61 548.36 238.73C548.36 234.85 545.22 231.71 541.34 231.71C537.46 231.71 534.32 234.85 534.32 238.73C534.32 242.61 537.46 245.75 541.34 245.75Z" fill="#3444BA"/>
<path d="M312.14 171.2C316.02 171.2 319.16 168.06 319.16 164.18C319.16 160.3 316.02 157.16 312.14 157.16C308.26 157.16 305.12 160.3 305.12 164.18C305.12 168.06 308.26 171.2 312.14 171.2Z" fill="#3444BA"/>
</g>
<defs>
<clipPath id="clip0_874_2382">
<rect width="578.07" height="310.08" fill="white"/>
</clipPath>
</defs>
</svg>
