<svg width="49" height="44" viewBox="0 0 49 44" fill="none" xmlns="http://www.w3.org/2000/svg">
<path d="M48.8889 23.2391C48.7282 23.9202 48.6223 24.6205 48.3965 25.2798C47.598 27.6129 46.0672 29.3124 43.8859 30.4399C43.6971 30.5374 43.5019 30.7798 43.4598 30.9863C42.0962 37.6073 36.7028 42.7623 30.0287 43.8025C21.7231 45.0967 13.8499 39.9109 11.7323 31.7546C11.6966 31.6186 11.6469 31.4865 11.5933 31.3172C10.7106 31.3172 9.83803 31.3185 8.96423 31.3172C3.7992 31.3044 -0.168007 27.1666 0.00547885 21.9744C0.134317 18.1496 2.82207 14.8031 6.61324 13.745C6.6885 13.7244 6.76377 13.7052 6.82372 13.6898C6.1234 7.13164 8.54455 2.43715 14.9661 0.446484C19.3517 -0.913121 24.3981 0.862062 27.267 5.36672C30.1971 4.09561 33.0877 4.16616 35.8213 5.88875C38.5435 7.60493 39.8689 10.1741 40.0194 13.3845C40.6904 13.4859 41.3716 13.5397 42.0273 13.6962C45.659 14.5633 48.2587 17.4582 48.8034 21.201C48.8136 21.2754 48.8583 21.3434 48.8876 21.4152V23.2391H48.8889ZM40.7465 27.6347C40.7555 20.3018 34.8225 14.3234 27.5234 14.3106C20.2064 14.2978 14.2453 20.2826 14.253 27.636C14.2606 34.9753 20.1936 40.9294 27.5004 40.9294C34.8085 40.9294 40.7389 34.9779 40.7465 27.636V27.6347Z" fill="#4357EE"/>
<path d="M31.2316 25.7544C31.4472 27.6514 31.3401 29.5048 30.9089 31.3801H24.1238C23.6825 30.0282 23.5141 27.2166 23.7922 25.7544H31.2316Z" fill="#4357EE"/>
<path d="M21.5687 25.757C21.6657 27.645 21.7601 29.5036 21.8583 31.4186C21.468 31.4186 20.9794 31.4186 20.4908 31.4186C19.4257 31.4186 18.3605 31.4275 17.2954 31.407C17.1512 31.4044 16.9203 31.2813 16.8795 31.162C16.2774 29.4086 16.169 27.6117 16.4522 25.757H21.5687Z" fill="#4357EE"/>
<path d="M38.5499 25.7582C38.8229 27.5745 38.7145 29.3125 38.1851 31.0209C38.1188 31.2326 38.0792 31.4288 37.7629 31.425C36.2525 31.407 34.7422 31.416 33.2318 31.4134C33.1719 31.4134 33.1106 31.3891 33.1438 31.3967C33.2408 29.5087 33.3352 27.6514 33.4321 25.7595H38.5512L38.5499 25.7582Z" fill="#4357EE"/>
<path d="M29.2748 16.5322C33.4691 17.1017 36.9465 20.4083 37.9848 23.7907H33.0048C32.3593 21.1086 31.3987 18.5677 29.2748 16.5322Z" fill="#4357EE"/>
<path d="M25.7209 16.5347C23.7399 18.4395 22.7372 20.7931 22.1236 23.3481C22.0394 23.6983 21.9221 23.8368 21.5369 23.8304C20.0431 23.8035 18.5481 23.8202 17.0479 23.8202C17.8005 20.7841 21.3328 17.117 25.7209 16.536V16.5347Z" fill="#4357EE"/>
<path d="M24.1175 23.7881C24.3968 22.4888 24.8254 21.2561 25.5079 20.1402C25.9276 19.4527 26.4391 18.8127 26.98 18.2137C27.4073 17.7391 27.6025 17.7404 28.0362 18.2201C28.5668 18.8063 29.0643 19.4374 29.4789 20.1107C30.1678 21.2292 30.5823 22.4708 30.8936 23.7881H24.1175Z" fill="#4357EE"/>
<path d="M29.2863 38.6937C30.8336 37.2392 31.733 35.482 32.4065 33.5862C32.4473 33.4695 32.6463 33.3374 32.7739 33.3361C34.2013 33.3182 35.63 33.3246 37.0651 33.3246C36.4413 35.4999 32.0621 38.5501 29.2863 38.6937Z" fill="#4357EE"/>
<path d="M25.5704 38.7258C22.264 38.0832 19.6999 36.3183 17.849 33.3605H22.44C22.8775 34.2981 23.2577 35.2806 23.7807 36.1797C24.296 37.0648 24.9555 37.8639 25.5704 38.7258Z" fill="#4357EE"/>
<path d="M24.6826 33.3425H30.3451C30.0759 33.9223 29.882 34.4815 29.5746 34.9689C29.1447 35.6526 28.6727 36.3195 28.1421 36.9262C27.6152 37.5291 27.429 37.497 26.8601 36.948C26.0334 36.1502 25.4709 35.1729 25.004 34.1339C24.8956 33.8915 24.8037 33.6414 24.6826 33.3438V33.3425Z" fill="#4357EE"/>
</svg>
