<svg width="41" height="38" viewBox="0 0 41 38" fill="none" xmlns="http://www.w3.org/2000/svg">
<path d="M19.1046 17.3601C18.1849 17.3511 17.571 18.1676 17.7946 19.1176C17.976 19.8867 18.1757 20.6523 18.3652 21.4191C19.0784 24.2962 19.7893 27.1745 20.5047 30.0517C20.7113 30.8818 21.4347 31.3636 22.181 31.177C22.9558 30.9824 23.3609 30.2665 23.1612 29.4296C22.9901 28.716 22.8121 28.0035 22.6352 27.291C21.9174 24.3856 21.1997 21.4802 20.4785 18.5748C20.2857 17.7955 19.795 17.3658 19.1035 17.359L19.1046 17.3601Z" fill="#4357EE"/>
<path d="M29.5492 24.4014C28.4389 25.4973 27.4062 26.5095 26.3826 27.5308C25.9878 27.9243 25.8657 28.4005 26.046 28.9332C26.2148 29.433 26.5777 29.7305 27.0924 29.8243C27.5545 29.9092 27.9699 29.7791 28.3054 29.4477C29.6667 28.1019 31.0292 26.7561 32.3791 25.3989C32.9508 24.8244 32.9565 24.0361 32.3882 23.4661C31.0383 22.109 29.6792 20.7598 28.3133 19.4185C27.7394 18.8552 26.9052 18.862 26.3643 19.4037C25.8246 19.9443 25.828 20.762 26.3986 21.3399C27.3046 22.2583 28.2255 23.1619 29.1441 24.0689C29.2536 24.1775 29.3837 24.2646 29.5503 24.3992L29.5492 24.4014Z" fill="#4357EE"/>
<path d="M11.4455 24.3551C11.6383 24.2069 11.8335 24.087 11.9932 23.9298C12.8742 23.0658 13.7539 22.2006 14.6189 21.3207C15.1803 20.7496 15.1666 19.9183 14.6155 19.3857C14.078 18.8665 13.2564 18.8609 12.6973 19.4094C11.3302 20.7496 9.97118 22.0988 8.62124 23.4559C8.0621 24.018 8.037 24.8063 8.58245 25.3582C9.94835 26.7402 11.3268 28.1087 12.7178 29.4658C13.2667 30.0008 14.1237 29.9702 14.6406 29.4466C15.1655 28.9151 15.1723 28.0974 14.6235 27.541C13.698 26.6023 12.7543 25.6794 11.8198 24.7498C11.7205 24.6514 11.6281 24.5485 11.4455 24.3551Z" fill="#4357EE"/>
<path d="M4.39458 0C15.1256 0 25.8577 0 36.5898 0C39.2737 0 40.999 1.70661 40.999 4.36435C40.999 14.1165 40.999 23.8687 40.999 33.621C40.999 36.2877 39.2805 37.9989 36.6035 38C31.238 38 25.8714 38 20.5059 38C15.1404 38 9.74524 38.0034 4.36606 37.9943C3.92901 37.9943 3.47827 37.9615 3.05835 37.853C1.18579 37.3678 0.00131764 35.7709 0.00131764 33.7623C-0.000964578 23.9671 0.00017653 14.1731 0.00131764 4.37792C0.00017653 1.70887 1.71526 0 4.39458 0ZM6.80917 5.4297C6.05147 5.44214 5.4387 6.08679 5.46837 6.84113C5.49803 7.57625 6.13591 8.16435 6.87763 8.1406C7.61707 8.11685 8.21501 7.4869 8.19675 6.75065C8.1785 6.01214 7.55545 5.41839 6.80802 5.4297H6.80917ZM12.2819 5.4297C11.5402 5.43875 10.9308 6.05512 10.9343 6.7925C10.9377 7.52988 11.5539 8.13946 12.2968 8.1406C13.0544 8.14286 13.6798 7.50952 13.6649 6.75518C13.6501 6.01554 13.0293 5.41952 12.2819 5.42857V5.4297ZM17.7649 5.4297C17.0232 5.4297 16.4059 6.03929 16.4013 6.77667C16.3968 7.51405 17.005 8.13155 17.7467 8.14173C18.4873 8.1519 19.116 7.55024 19.1308 6.81512C19.1468 6.05625 18.5283 5.4297 17.7649 5.4297ZM2.73199 14.051C2.73199 20.5958 2.73199 27.1406 2.73199 33.6843C2.73199 34.779 3.24663 35.2846 4.35693 35.2846C15.1176 35.2846 25.8794 35.2846 36.64 35.2846C37.748 35.2846 38.2649 34.7757 38.2649 33.6832C38.2649 27.1383 38.2649 20.5935 38.2649 14.0498V13.5861H2.73085V14.051H2.73199Z" fill="#4357EE"/>
</svg>
