<svg width="42" height="36" viewBox="0 0 42 36" fill="none" xmlns="http://www.w3.org/2000/svg">
<path d="M0.00117679 15.5548H41.6855V16.0277C41.6855 21.2525 41.6867 26.4773 41.6855 31.7021C41.6855 34.2646 39.9601 36 37.4169 36C26.3725 36 15.3282 36 4.28378 36C1.73589 36 0.00350682 34.2682 0.0023418 31.715C1.1768e-05 26.4749 0.0023418 21.2361 0.0023418 15.996V15.5548H0.00117679ZM14.9926 24.5401C15.0066 25.6654 15.525 27.0698 16.6528 28.1868C18.0135 29.5338 19.1634 31.0192 19.9649 32.7675C20.1327 33.1336 20.4298 33.3377 20.8212 33.3448C21.2325 33.3518 21.5447 33.1488 21.7194 32.7663C22.5175 31.0145 23.6802 29.542 25.0316 28.1868C26.9003 26.313 27.2218 23.3868 25.8925 21.1046C24.5504 18.8002 21.8359 17.6867 19.2927 18.3989C16.7437 19.1123 14.9926 21.4214 14.9903 24.5413L14.9926 24.5401Z" fill="#4357EE"/>
<path d="M3.28056 14.4707H0.00103557C0.00103557 14.3076 0.00103557 14.155 0.00103557 14.0013C0.00103557 10.621 -0.00129446 7.23945 0.00103557 3.8591C0.00453063 1.55939 1.54934 0.00707719 3.83511 0.00590386C7.03192 0.00355721 10.2299 0.0141171 13.4267 3.72376e-05C14.53 -0.00465606 15.3513 0.434168 15.9187 1.38925C16.4173 2.23053 16.9521 3.04951 17.4472 3.89313C18.0355 4.8975 18.9 5.34453 20.0475 5.34336C26.631 5.33515 33.2134 5.33867 39.7969 5.33984C40.7837 5.33984 41.4384 5.81504 41.64 6.67508C41.6702 6.8018 41.6842 6.93556 41.6842 7.0658C41.6866 9.45117 41.6865 11.8377 41.6854 14.2231C41.6854 14.2935 41.6737 14.3639 41.6656 14.4577H38.4315C38.4233 14.3076 38.4082 14.1527 38.4082 13.999C38.4059 13.004 38.414 12.0078 38.4047 11.0129C38.393 9.68818 37.5868 8.88093 36.275 8.88093C25.9856 8.87976 15.6973 8.87976 5.40789 8.88093C4.09724 8.88093 3.29221 9.68935 3.28173 11.0152C3.27357 11.9961 3.2794 12.977 3.2794 13.9567C3.2794 14.1151 3.2794 14.2735 3.2794 14.4718L3.28056 14.4707Z" fill="#4357EE"/>
<path d="M20.8212 27.1426C19.1448 27.1355 17.791 25.7569 17.7945 24.0591C17.798 22.3765 19.1774 20.9967 20.8515 20.9967C22.5443 20.9967 23.9074 22.3918 23.8957 24.113C23.8852 25.8003 22.5152 27.1508 20.8201 27.1437L20.8212 27.1426Z" fill="#4357EE"/>
</svg>
