<svg width="46" height="49" viewBox="0 0 46 49" fill="none" xmlns="http://www.w3.org/2000/svg">
<path d="M45.85 34.1834C45.5674 33.308 44.9253 32.6013 44.0417 32.1955C44.0138 32.1817 43.9847 32.1693 43.9555 32.1568V29.1637C43.9555 25.1618 43.9568 21.0224 43.9462 16.9518C43.9462 16.8944 43.9502 16.8606 43.9528 16.8432C43.9674 16.8344 43.9926 16.8194 44.0364 16.8007C44.9173 16.4074 45.5608 15.7119 45.846 14.8416C46.1299 13.9762 46.0105 13.0285 45.5196 12.2406C45.0327 11.4602 44.2155 10.902 43.2749 10.7085C42.3369 10.5162 41.391 10.6935 40.6109 11.2092C40.5684 11.2367 40.5406 11.2504 40.5273 11.2566C40.5074 11.2504 40.4663 11.2329 40.388 11.1905C35.6676 8.61447 30.9843 6.06845 26.4723 3.62357C26.4537 3.61358 26.4404 3.60609 26.4285 3.59859C26.4285 3.58611 26.4285 3.56988 26.4311 3.55115C26.5505 2.28125 25.9867 1.2074 24.8431 0.528131C23.6756 -0.166126 22.3847 -0.176115 21.2092 0.499412C20.0325 1.17494 19.4514 2.25878 19.5734 3.55364C19.5748 3.57362 19.5761 3.58985 19.5761 3.60359C19.5655 3.60983 19.5509 3.61857 19.5336 3.62856C14.1207 6.56042 9.67096 8.97908 5.52901 11.2404C5.50911 11.2504 5.49451 11.2591 5.48257 11.2641C5.47063 11.2566 5.45471 11.2479 5.43481 11.2342C4.63349 10.7047 3.67031 10.5199 2.72039 10.7147C1.78507 10.9058 0.96915 11.4627 0.482252 12.2418C-0.0126057 13.0335 -0.129355 13.985 0.158538 14.8528C0.447758 15.7219 1.12305 16.4423 2.01326 16.8282C2.02918 16.8344 2.04112 16.8407 2.05041 16.8457C2.05041 16.8606 2.05174 16.8819 2.05174 16.9081C2.0451 21.0424 2.0451 25.2454 2.0451 29.3111V32.1605C1.99867 32.1818 1.95356 32.2017 1.90845 32.223C0.220893 33.0221 -0.470316 34.9076 0.336316 36.5134C0.755552 37.35 1.53432 37.9868 2.4723 38.2627C3.31077 38.51 4.1718 38.4288 4.89485 38.0355C5.44675 37.7346 5.71475 37.8007 6.19368 38.1379C6.30247 38.214 6.40861 38.2677 6.50148 38.3152C6.53332 38.3314 6.56383 38.3464 6.59435 38.3626L9.01424 39.6762C12.5326 41.5867 16.051 43.4984 19.5708 45.4063C19.5734 45.4076 19.5761 45.4088 19.5787 45.4113C19.4381 46.5189 19.8534 47.5029 20.7502 48.1821C21.0832 48.4344 21.4534 48.5942 21.8116 48.749C21.9588 48.8127 22.0968 48.8726 22.2281 48.9363L22.3582 49H23.6039L24.2102 48.7877C25.6935 48.2645 26.6275 46.8548 26.4311 45.4351C26.4311 45.4276 26.4298 45.4201 26.4285 45.4138C26.4404 45.4063 26.4563 45.3976 26.4762 45.3864C31.2285 42.8116 35.9104 40.2668 40.3933 37.8207C40.4702 37.7783 40.5114 37.762 40.5299 37.7558C40.5445 37.762 40.5737 37.7758 40.6188 37.8057C41.3989 38.3189 42.3449 38.4937 43.2828 38.3002C44.2248 38.1054 45.0434 37.5448 45.5263 36.7631C46.0158 35.9727 46.1299 35.0587 45.85 34.1884V34.1834ZM41.1336 32.0469C41.1336 32.1381 41.1336 32.1393 40.9386 32.2941C40.6308 32.5376 40.5114 32.5014 39.9077 32.1655L39.8852 32.153C38.2865 31.264 36.652 30.3774 35.0706 29.5208C34.528 29.2274 33.9867 28.9327 33.444 28.638C33.3366 28.5794 33.2251 28.5244 33.1004 28.4632C33.0421 28.4345 32.981 28.4045 32.9147 28.3721L32.1001 27.9638L32.0391 28.8303C32.0285 28.9789 32.0165 29.1238 32.0046 29.2649C31.9714 29.6545 31.9396 30.0241 31.9489 30.4061C31.9581 30.8482 32.4119 31.1429 32.6056 31.249C35.1701 32.6562 37.1455 33.7288 39.0109 34.729C39.0639 34.7577 39.0785 34.774 39.0785 34.774C39.0878 34.789 39.1051 34.8402 39.1303 34.9975C39.19 35.3683 39.1117 35.4707 38.5293 35.7829C33.9867 38.2203 29.4202 40.7089 25.1628 43.0351C25.0434 43.1001 25.0407 43.1013 24.7847 43.0002C24.457 42.8703 24.3867 42.7866 24.396 42.186C24.4199 40.4267 24.4159 38.6286 24.4119 36.8892C24.4106 36.2249 24.4092 35.5569 24.4092 34.8851V34.3232H21.5913V37.1864C21.5887 38.9645 21.5874 40.8025 21.5993 42.6106C21.5993 42.7492 21.5993 42.7604 21.391 42.9053C21.0859 43.1175 20.9612 43.1063 20.4424 42.8204C15.7751 40.2556 10.8836 37.6122 6.95388 35.4882C6.93531 35.4782 6.9247 35.4707 6.91806 35.467C6.90347 35.4308 6.88755 35.3346 6.87428 35.256L6.87163 35.2422C6.81325 34.8926 6.86101 34.779 7.46466 34.4656C8.70114 33.8225 9.94161 33.1445 11.1409 32.4902C11.8839 32.0844 12.6507 31.666 13.4083 31.259C13.5993 31.1566 14.1777 30.8457 14.0464 30.0615C14.0066 29.8243 13.9986 29.572 13.9907 29.2786C13.9867 29.1363 13.9814 28.9877 13.9734 28.8316L13.9257 27.945L13.0938 28.3646C13.0302 28.397 12.9718 28.4258 12.9174 28.4532C12.798 28.5132 12.6918 28.5656 12.587 28.6218L11.2656 29.3398C9.37511 30.3662 7.41955 31.4263 5.50248 32.4802C5.49717 32.4839 5.49053 32.4864 5.48523 32.4889C5.40563 32.4252 5.31276 32.3803 5.21193 32.3566C4.91873 32.2891 4.86301 32.2529 4.86699 31.5324V31.5125C4.88954 26.5765 4.88291 21.6093 4.87097 16.9755C4.87097 16.8644 4.87097 16.8606 5.07926 16.7046C5.37511 16.4848 5.48523 16.4973 6.05836 16.8182C7.6504 17.7097 9.28224 18.59 10.861 19.4429C11.4368 19.7538 12.0139 20.0647 12.5897 20.3769C12.6865 20.4293 12.786 20.4793 12.9015 20.538L13.8978 21.0474L13.9602 20.1721C13.9708 20.0235 13.9827 19.8787 13.9947 19.7376C14.0278 19.3367 14.0597 18.9572 14.0544 18.5651C14.0517 18.2604 13.8328 17.9869 13.4069 17.7534C11.4859 16.7021 9.25172 15.4809 7.0441 14.2984C6.89551 14.2185 6.89153 14.2172 6.8703 14C6.83448 13.6316 6.91143 13.528 7.42221 13.2533C11.9025 10.8483 16.3814 8.4047 20.9585 5.90363C20.9651 5.89988 20.9704 5.89738 20.9757 5.89364C21.0673 5.96856 21.1668 6.01975 21.2756 6.04597C21.5542 6.1134 21.6126 6.15211 21.6019 6.84887C21.5794 8.48087 21.5834 10.1391 21.5874 11.7411C21.5887 12.3555 21.59 12.9698 21.59 13.5842V14.6717H24.4092V11.886C24.4092 10.0579 24.4119 8.1687 24.4039 6.30944C24.4039 6.27448 24.4066 6.2595 24.4066 6.2595C24.4265 6.22703 24.5339 6.13962 24.5857 6.09842C24.8975 5.84369 25.0169 5.87741 25.6099 6.2058L25.7134 6.26324C30.5611 8.9179 35.3545 11.5126 38.9883 13.4755C39.0865 13.528 39.0878 13.5292 39.1303 13.7839C39.19 14.1348 39.1197 14.2247 38.5492 14.5244C37.3485 15.1575 36.1386 15.8155 34.9671 16.4523C34.1671 16.8881 33.3671 17.3227 32.5644 17.7534C32.0722 18.0169 31.8706 18.3953 31.9489 18.9097C31.9873 19.1632 31.9979 19.4267 32.0086 19.7313C32.0139 19.8737 32.0192 20.021 32.0285 20.1746L32.0802 21.0749L33.1177 20.5292C33.2477 20.4618 33.3631 20.4019 33.4759 20.3394L34.9936 19.5153C36.7926 18.5401 38.6527 17.5312 40.4755 16.5273C40.4848 16.5223 40.4915 16.5185 40.4968 16.516C40.5339 16.5248 40.6056 16.5497 40.6613 16.5685L40.7104 16.5859C41.0898 16.7171 41.1415 16.8344 41.1376 17.5499C41.1124 22.3061 41.1203 27.1184 41.1309 32.0394L41.1336 32.0469Z" fill="#4357EE"/>
<path d="M22.953 23.3158C20.7977 23.2723 18.6883 23.0151 16.7588 22.058C16.2471 21.8047 15.7564 21.472 15.3465 21.0945C14.3915 20.2129 14.4083 19.0934 15.3451 18.1977C16.4368 17.1536 17.8518 16.6661 19.3436 16.3718C22.5236 15.7423 25.6702 15.8088 28.6969 17.0052C29.3982 17.2828 30.066 17.714 30.6223 18.1964C31.6261 19.0678 31.5912 20.2066 30.6348 21.124C29.6882 22.0324 28.4739 22.5314 27.1801 22.8001C25.7971 23.0855 24.3806 23.2288 22.9781 23.4348C22.9698 23.3951 22.9628 23.3567 22.9544 23.3171L22.953 23.3158Z" fill="#4357EE"/>
<path d="M14.6522 22.3696C20.2536 24.9559 25.7784 24.9593 31.345 22.3776C31.345 23.1041 31.3966 23.8958 31.3282 24.6817C31.278 25.2631 30.7925 25.6881 30.254 26.0457C29.0876 26.8213 27.7092 27.2074 26.2625 27.4256C23.2127 27.886 20.2048 27.8083 17.3099 26.7962C16.7881 26.6134 16.2942 26.3587 15.8352 26.0834C15.0149 25.5921 14.5727 24.9376 14.6438 24.0671C14.6898 23.4879 14.6522 22.9053 14.6522 22.3696Z" fill="#4357EE"/>
<path d="M14.6408 27.6957C20.2462 30.2316 25.7774 30.2387 31.3155 27.7368C31.3155 28.459 31.4442 29.3118 31.2806 30.1223C31.0987 31.0268 30.1643 31.5079 29.255 31.9066C27.3217 32.7523 25.2304 33.0182 23.0789 33.0217C20.8561 33.0252 18.6892 32.7723 16.7098 31.8619C16.1838 31.6196 15.7082 31.2785 15.2703 30.9292C14.8269 30.5751 14.6282 30.1034 14.6366 29.5753C14.6478 28.9307 14.6394 28.2861 14.6394 27.6957H14.6408Z" fill="#4357EE"/>
</svg>
