<svg width="44" height="44" viewBox="0 0 44 44" fill="none" xmlns="http://www.w3.org/2000/svg">
<path d="M43.0973 29.4802C42.8862 29.1509 42.8667 28.8974 42.9688 28.5395C44.8856 21.8342 44.1503 15.4857 40.273 9.61905C39.5068 8.45926 38.4858 7.46695 37.5957 6.38631C37.4844 6.25094 37.3835 6.04101 37.3995 5.87811C37.6232 3.7042 36.8374 1.97885 35.002 0.827078C33.1758 -0.320101 31.2796 -0.254712 29.4614 0.903939C29.1242 1.11846 28.8707 1.11387 28.5208 1.01407C22.2725 -0.785855 16.2604 -0.218002 10.651 3.11226C4.73531 6.62492 1.32836 11.9077 0.247778 18.6932C0.144537 19.3391 0.0814454 19.9918 0 20.64V23.3026C0.106682 24.1045 0.170921 24.9155 0.329223 25.7071C0.532263 26.7258 0.81216 27.7296 1.04961 28.7414C1.08288 28.8836 1.12762 29.0867 1.05879 29.1773C0.482937 29.9356 0.192716 30.804 0 31.7183V33.0066C0.22713 33.8784 0.485231 34.7377 1.07026 35.4512C2.30686 36.9586 3.883 37.6389 5.83883 37.4267C6.00517 37.4083 6.23803 37.4852 6.35274 37.6033C9.37311 40.6892 12.9991 42.6612 17.224 43.5193C18.1738 43.7121 19.1477 43.7901 20.1101 43.9231C20.2501 43.9426 20.3877 43.9736 20.5265 44H23.4471C24.2811 43.891 25.1185 43.8038 25.9478 43.6673C30.3573 42.9423 34.1623 41.0185 37.3364 37.8683C37.6553 37.5517 37.9306 37.4026 38.4331 37.4358C40.5461 37.5758 42.2105 36.7108 43.2705 34.8776C44.3143 33.0731 44.2191 31.2353 43.0961 29.4813L43.0973 29.4802ZM32.3006 3.46674C33.2435 3.47018 34.0132 4.24682 34.0098 5.19095C34.0063 6.13278 33.2274 6.90368 32.2857 6.90024C31.3427 6.8968 30.573 6.12016 30.5776 5.17603C30.581 4.2319 31.3565 3.46329 32.3017 3.46788L32.3006 3.46674ZM5.13565 34.0368C4.19387 34.0276 3.42874 33.2475 3.43677 32.3022C3.4448 31.3592 4.22599 30.5952 5.17006 30.6032C6.113 30.6124 6.87812 31.3925 6.86895 32.3366C6.86092 33.2785 6.07858 34.0448 5.1345 34.0356L5.13565 34.0368ZM6.9676 27.5127C6.0912 27.1502 5.17006 27.078 4.15028 27.2718C2.53169 20.6813 3.63063 14.7183 8.13307 9.58235C13.201 3.80171 21.0393 2.362 27.2292 4.23305C27.0422 5.27928 27.1592 6.27159 27.5607 7.23407C27.5939 7.31323 27.5469 7.44056 27.5056 7.53004C27.4712 7.60346 27.3898 7.65394 27.329 7.71474C20.7835 14.2594 14.2357 20.804 7.69717 27.3556C7.46086 27.5919 7.2842 27.6435 6.96645 27.5127H6.9676ZM9.22628 35.5591C9.46602 35.1105 9.69315 34.6666 9.94093 34.2341C9.99255 34.1446 10.1153 34.0803 10.2197 34.0436C10.3092 34.0127 10.4181 34.0368 10.5179 34.0368C18.1715 34.0368 25.8262 34.039 33.4798 34.031C33.8136 34.031 34.0144 34.0884 34.1463 34.4429C34.2885 34.8249 34.5443 35.1656 34.7531 35.5281C28.678 42.0613 15.8773 42.4375 9.22742 35.5579L9.22628 35.5591ZM38.8391 34.0368C37.8951 34.0459 37.1139 33.2808 37.1047 32.3378C37.0955 31.3925 37.8595 30.6124 38.8024 30.6032C39.7465 30.5941 40.5277 31.3592 40.5369 32.3011C40.5461 33.2441 39.7798 34.0264 38.838 34.0356L38.8391 34.0368ZM39.7683 27.2248C39.4356 27.2833 39.3152 27.1388 39.2475 26.8508C37.91 21.2079 36.5667 15.566 35.212 9.92765C35.1282 9.58005 35.1557 9.34947 35.5205 9.2336C40.2214 13.7799 41.5808 21.3627 39.7683 27.226V27.2248Z" fill="#4357EE"/>
</svg>
