<svg width="44" height="44" viewBox="0 0 44 44" fill="none" xmlns="http://www.w3.org/2000/svg">
<path d="M20.6217 44C19.8306 43.8898 19.0348 43.8083 18.2506 43.6648C12.0753 42.5377 7.22617 39.3457 3.70447 34.175C1.14157 30.4114 -0.0870683 26.2094 0.00479214 21.6585C0.125359 15.6671 2.34838 10.5423 6.60267 6.32994C10.0704 2.89579 14.2546 0.832091 19.0945 0.198518C25.1321 -0.592299 30.5484 0.996223 35.3768 4.66681C35.7626 4.96064 36.1392 5.26825 36.4745 5.53338C34.0414 7.96552 31.6174 10.3896 29.1544 12.8516C26.3274 10.7454 23.0951 9.90297 19.5194 10.672C16.8026 11.2562 14.5853 12.6829 12.8607 14.8614C9.45608 19.1621 9.6065 25.313 13.1638 29.5242C16.6717 33.6769 23.6106 35.3997 29.2003 31.1506C31.63 33.5793 34.0552 36.0034 36.4895 38.4367C33.8324 40.707 30.8332 42.4436 27.3792 43.2975C26.1758 43.5948 24.93 43.721 23.7036 43.9254C23.5635 43.9483 23.4246 43.9747 23.2845 44H20.6206H20.6217ZM7.35018 34.7121C8.5903 33.4725 9.81204 32.2502 11.0016 31.0611C6.70371 25.0192 6.70371 18.9727 10.9913 12.9538C9.79252 11.7555 8.57193 10.5342 7.35248 9.3153C1.29658 15.938 0.670781 27.146 7.35018 34.7133V34.7121ZM12.972 11.0645C15.2031 9.25562 17.7683 8.16294 20.6734 7.88747C23.5957 7.61086 26.3285 8.22606 28.8605 9.59536C30.1212 8.3374 31.3568 7.10584 32.5888 5.87657C25.17 0.655334 15.1066 1.98905 9.29877 7.38245C10.5182 8.60483 11.7377 9.82721 12.972 11.0657V11.0645ZM9.26547 36.6002C15.5786 42.3575 25.7005 43.0714 32.5728 38.1153C31.3464 36.8826 30.1155 35.6476 28.9018 34.4264C23.2673 37.1994 17.9428 36.707 12.9319 32.9503C11.7193 34.1566 10.5033 35.3675 9.26547 36.6002Z" fill="#4357EE"/>
<path d="M43.9211 20.2123C43.8189 19.4616 43.7534 18.7029 43.6122 17.9603C42.9164 14.2989 41.3099 11.0633 38.979 8.17209C38.7861 7.93335 38.5943 7.69347 38.4324 7.49376C35.9797 9.94426 33.5604 12.3603 31.1376 14.781C34.456 19.5959 34.4629 24.4384 31.1467 29.2074C33.5925 31.6533 36.0085 34.0694 38.4324 36.4935C38.4221 36.4992 38.4531 36.49 38.4692 36.4694C38.7459 36.1227 39.0249 35.7773 39.2948 35.4249C41.5293 32.5176 43.0553 29.29 43.6719 25.6596C43.8051 24.8734 43.8912 24.0803 43.9992 23.2895V20.7115C43.9728 20.5451 43.9417 20.3787 43.9199 20.2123H43.9211Z" fill="#4357EE"/>
<path d="M28.4403 28.4292H15.5844C15.4191 26.5652 15.6774 24.8229 16.8372 23.3021C17.9774 21.8065 19.5 20.9606 21.4658 20.7219C19.0269 19.9471 17.8281 18.2645 18.1841 16.2444C18.5343 14.2542 20.2004 12.8998 22.1949 12.9836C24.0919 13.0639 25.6776 14.5916 25.8521 16.5084C26.0324 18.4837 24.7154 20.195 22.6232 20.6702C26.819 21.5655 28.6504 24.2077 28.4392 28.4292H28.4403ZM25.5811 25.8513C25.2895 24.4544 23.6084 23.2757 21.9515 23.2906C20.3394 23.3044 18.6629 24.5153 18.4183 25.8513H25.5811ZM23.2858 16.824C23.2743 16.1285 22.6841 15.5511 21.9883 15.5569C21.2924 15.5626 20.7102 16.148 20.7102 16.8435C20.7102 17.5552 21.3177 18.1509 22.0284 18.1325C22.7243 18.1153 23.2973 17.5196 23.2858 16.824Z" fill="#4357EE"/>
</svg>
