<svg width="48" height="48" viewBox="0 0 48 48" fill="none" xmlns="http://www.w3.org/2000/svg">
<path d="M28.5917 24.1363C28.1322 23.7626 27.5414 23.4495 26.8294 23.1971C26.1173 22.9496 25.2791 22.7375 24.3196 22.5608C23.0875 22.3285 22.2139 22.0659 21.6938 21.768C21.1737 21.47 20.9161 21.0156 20.9161 20.3944V20.1369C20.9161 19.5814 21.1686 19.1219 21.6837 18.7684C22.1937 18.4099 23.037 18.2332 24.2085 18.2332C25.0165 18.2332 25.779 18.3493 26.5011 18.5765C27.2232 18.8088 27.8444 19.1169 28.3645 19.5006L29.6067 17.3949C28.819 16.8344 27.9555 16.4355 27.0263 16.1981C26.385 16.0315 25.7134 15.9305 25.0014 15.88V13.8348H22.6128V15.9254C22.1634 15.986 21.7443 16.0769 21.3706 16.1981C20.6283 16.4405 20.0173 16.7586 19.5375 17.1525C19.0578 17.5464 18.6993 18.0009 18.472 18.521C18.2398 19.0411 18.1287 19.5713 18.1287 20.1066V20.455C18.1287 21.1469 18.2499 21.7427 18.4872 22.2427C18.7296 22.7426 19.078 23.1718 19.5426 23.5253C20.0072 23.8838 20.5727 24.1868 21.2444 24.4342C21.916 24.6867 22.6886 24.8938 23.5521 25.0705C24.3045 25.222 24.9105 25.3735 25.37 25.5199C25.8346 25.6613 26.1981 25.8229 26.4658 25.9946C26.7334 26.1663 26.9152 26.3683 27.0162 26.6006C27.1121 26.8329 27.1576 27.1106 27.1576 27.4388V27.6711C27.1576 28.3074 26.8698 28.8073 26.2941 29.1709C25.7184 29.5345 24.9105 29.7213 23.8702 29.7213C22.9057 29.7213 22.022 29.5648 21.2141 29.2466C20.4061 28.9285 19.6436 28.5296 18.9316 28.0498L17.6338 30.2465C18.3862 30.8222 19.2952 31.2867 20.3758 31.6301C21.0676 31.8523 21.82 31.9937 22.6128 32.0745V34.1499H25.0014V32.0896C25.5265 32.0341 26.0214 31.9432 26.4759 31.8018C27.2182 31.5695 27.8444 31.2564 28.3645 30.8626C28.8846 30.4687 29.2835 30.0041 29.5613 29.4638C29.839 28.9235 29.9804 28.3478 29.9804 27.7317V27.358C29.9804 26.6258 29.8643 25.9997 29.632 25.4795C29.3997 24.9594 29.0512 24.51 28.5917 24.1363Z" fill="#4357EE"/>
<path d="M42.4178 19.0917H46.3364C47.0333 19.0917 47.5988 18.5261 47.5988 17.8292C47.5988 17.1324 47.0333 16.5668 46.3364 16.5668H42.4178C42.4178 16.5668 42.3774 16.5719 42.3572 16.5719V12.9209C42.3572 12.9209 42.3976 12.9259 42.4178 12.9259H46.3364C47.0333 12.9259 47.5988 12.3604 47.5988 11.6635C47.5988 10.9666 47.0333 10.4011 46.3364 10.4011H42.4178C42.4178 10.4011 42.3774 10.4061 42.3572 10.4061V7.45203C42.3572 6.33604 41.4533 5.43213 40.3373 5.43213H37.3832C37.3832 5.43213 37.3883 5.39174 37.3883 5.37154V1.45799C37.3883 0.761127 36.8227 0.195557 36.1258 0.195557C35.429 0.195557 34.8634 0.761127 34.8634 1.45799V5.37659C34.8634 5.37659 34.8684 5.41699 34.8684 5.43718H31.2175C31.2175 5.43718 31.2225 5.39679 31.2225 5.37659V1.45799C31.2225 0.761127 30.657 0.195557 29.9601 0.195557C29.2632 0.195557 28.6977 0.761127 28.6977 1.45799V5.37659C28.6977 5.37659 28.7027 5.41699 28.7027 5.43718H25.0517C25.0517 5.43718 25.0568 5.39679 25.0568 5.37659V1.45799C25.0568 0.761127 24.4912 0.195557 23.7944 0.195557C23.0975 0.195557 22.5319 0.761127 22.5319 1.45799V5.37659C22.5319 5.37659 22.537 5.41699 22.537 5.43718H18.886C18.886 5.43718 18.8911 5.39679 18.8911 5.37659V1.45799C18.8911 0.761127 18.3255 0.195557 17.6286 0.195557C16.9318 0.195557 16.3662 0.761127 16.3662 1.45799V5.37659C16.3662 5.37659 16.3712 5.41699 16.3712 5.43718H12.7203C12.7203 5.43718 12.7253 5.39679 12.7253 5.37659V1.45799C12.7253 0.761127 12.1598 0.195557 11.4629 0.195557C10.766 0.195557 10.2005 0.761127 10.2005 1.45799V5.37659C10.2005 5.37659 10.2005 5.41699 10.2055 5.43718H7.25142C6.13543 5.43718 5.23153 6.34109 5.23153 7.45708V10.4112C5.23153 10.4112 5.19113 10.4061 5.17093 10.4061H1.26243C0.565571 10.4061 0 10.9717 0 11.6686C0 12.3654 0.565571 12.931 1.26243 12.931H5.18103C5.18103 12.931 5.22143 12.9259 5.24163 12.9259V16.5769C5.24163 16.5769 5.20123 16.5719 5.18103 16.5719H1.26243C0.565571 16.5719 0 17.1374 0 17.8343C0 18.5312 0.565571 19.0967 1.26243 19.0967H5.18103C5.18103 19.0967 5.22143 19.0917 5.24163 19.0917V22.7426C5.24163 22.7426 5.20123 22.7376 5.18103 22.7376H1.26243C0.565571 22.7376 0 23.3032 0 24C0 24.6969 0.565571 25.2625 1.26243 25.2625H5.18103C5.18103 25.2625 5.22143 25.2574 5.24163 25.2574V28.9084C5.24163 28.9084 5.20123 28.9033 5.18103 28.9033H1.26243C0.565571 28.9033 0 29.4689 0 30.1657C0 30.8626 0.565571 31.4282 1.26243 31.4282H5.18103C5.18103 31.4282 5.22143 31.4231 5.24163 31.4231V35.0741C5.24163 35.0741 5.20123 35.069 5.18103 35.069H1.26243C0.565571 35.069 0 35.6346 0 36.3315C0 37.0283 0.565571 37.5939 1.26243 37.5939H5.18103C5.18103 37.5939 5.22143 37.5889 5.24163 37.5889V40.543C5.24163 41.6589 6.14553 42.5629 7.26152 42.5629H10.2156C10.2156 42.5629 10.2106 42.6032 10.2106 42.6234V46.542C10.2106 47.2389 10.7761 47.8045 11.473 47.8045C12.1699 47.8045 12.7354 47.2389 12.7354 46.542V42.6234C12.7354 42.6234 12.7304 42.583 12.7304 42.5629H16.3813C16.3813 42.5629 16.3763 42.6032 16.3763 42.6234V46.542C16.3763 47.2389 16.9419 47.8045 17.6387 47.8045C18.3356 47.8045 18.9012 47.2389 18.9012 46.542V42.6234C18.9012 42.6234 18.8961 42.583 18.8961 42.5629H22.5471C22.5471 42.5629 22.542 42.6032 22.542 42.6234V46.542C22.542 47.2389 23.1076 47.8045 23.8045 47.8045C24.5013 47.8045 25.0669 47.2389 25.0669 46.542V42.6234C25.0669 42.6234 25.0618 42.583 25.0618 42.5629H28.7128C28.7128 42.5629 28.7078 42.6032 28.7078 42.6234V46.542C28.7078 47.2389 29.2733 47.8045 29.9702 47.8045C30.6671 47.8045 31.2326 47.2389 31.2326 46.542V42.6234C31.2326 42.6234 31.2276 42.583 31.2276 42.5629H34.8785C34.8785 42.5629 34.8735 42.6032 34.8735 42.6234V46.542C34.8735 47.2389 35.4391 47.8045 36.1359 47.8045C36.8328 47.8045 37.3984 47.2389 37.3984 46.542V42.6234C37.3984 42.6234 37.3984 42.583 37.3933 42.5629H40.3474C41.4634 42.5629 42.3673 41.6589 42.3673 40.543V37.5889C42.3673 37.5889 42.4077 37.5939 42.4279 37.5939H46.3465C47.0434 37.5939 47.6089 37.0283 47.6089 36.3315C47.6089 35.6346 47.0434 35.069 46.3465 35.069H42.4279C42.4279 35.069 42.3875 35.0741 42.3673 35.0741V31.4231C42.3673 31.4231 42.4077 31.4282 42.4279 31.4282H46.3465C47.0434 31.4282 47.6089 30.8626 47.6089 30.1657C47.6089 29.4689 47.0434 28.9033 46.3465 28.9033H42.4279C42.4279 28.9033 42.3875 28.9084 42.3673 28.9084V25.2574C42.3673 25.2574 42.4077 25.2625 42.4279 25.2625H46.3465C47.0434 25.2625 47.6089 24.6969 47.6089 24C47.6089 23.3032 47.0434 22.7376 46.3465 22.7376H42.4279C42.4279 22.7376 42.3875 22.7426 42.3673 22.7426V19.0917C42.3673 19.0917 42.4077 19.0917 42.4279 19.0917H42.4178ZM23.7994 37.6242C16.2804 37.6242 10.1651 31.509 10.1651 23.9899C10.1651 16.4709 16.2804 10.3556 23.7994 10.3556C31.3185 10.3556 37.4337 16.4709 37.4337 23.9899C37.4337 31.509 31.3185 37.6242 23.7994 37.6242Z" fill="#4357EE"/>
</svg>
