<svg width="41" height="50" viewBox="0 0 41 50" fill="none" xmlns="http://www.w3.org/2000/svg">
<g clip-path="url(#clip0_293_1691)">
<path d="M38.0672 8.17853H26.2727C26.1557 8.17853 26.0281 8.17853 25.9253 8.17853C25.9075 8.07572 25.8898 7.94456 25.8721 7.82048C25.865 7.77439 25.8579 7.7283 25.8473 7.68222L25.8366 7.63613C25.1702 4.0485 22.2703 1.63783 18.6224 1.63429C16.6619 1.63429 14.705 1.63429 12.7446 1.63429C10.022 1.63429 7.29935 1.63429 4.56963 1.64492C4.53417 1.64492 4.50936 1.64492 4.48454 1.64492C4.27184 0.698383 3.39974 0.0248157 2.36812 0H2.30077C0.911089 0 0.0106353 1.02453 0.0106353 2.60919V11.5925C0.0106353 24.1563 0.0106353 36.7236 0 49.2874V49.9965H4.63344V49.2874C4.62635 43.3955 4.62635 37.5035 4.62635 31.6116C4.62635 31.6116 4.62635 27.5596 4.62635 27.5312C4.64407 27.5312 13.1098 27.5312 13.1098 27.5312V29.91C13.1098 31.5301 13.1098 33.1537 13.1133 34.7738C13.1204 36.4471 14.0776 37.4078 15.7402 37.4114C19.459 37.4114 23.1778 37.4114 26.8966 37.4114C30.6154 37.4114 34.3342 37.4114 38.053 37.4114C39.7866 37.4114 40.7012 36.4967 40.7012 34.7632C40.7012 26.7796 40.7012 18.7961 40.7012 10.8161C40.7012 9.08962 39.7866 8.17853 38.0601 8.17499L38.0672 8.17853ZM21.3521 21.3663V23.4543C20.1822 23.0112 18.9946 22.9687 17.8602 22.9687H17.573C15.6906 22.9793 13.8081 22.9828 11.9292 22.9828C10.6849 22.9828 4.62989 22.9793 4.62989 22.9793C4.62989 17.3851 4.62989 11.791 4.62989 6.19328C4.62989 6.19328 16.3145 6.19328 18.2998 6.19328C19.4945 6.19328 20.2779 6.53715 20.8452 7.31353C21.1784 7.7673 21.345 8.24943 21.3486 8.74929C21.3592 12.9538 21.3556 17.1618 21.3556 21.3663H21.3521ZM17.7326 30.9664V30.1546V29.3392C17.7326 28.7401 17.7361 28.1374 17.7326 27.5383C17.8389 27.5383 17.9417 27.5383 18.0481 27.5383H18.2431C18.5727 27.5383 18.8953 27.5418 19.1931 27.5986C20.4587 27.829 21.4088 28.9953 21.3556 30.2503C21.2989 31.5797 20.2425 32.6929 18.9521 32.7815C18.8032 32.7921 18.6543 32.7957 18.5054 32.7957H17.9134C17.8531 32.7921 17.7928 32.7921 17.7326 32.7957C17.7432 32.1824 17.7396 31.5655 17.7361 30.9699L17.7326 30.9664ZM25.9678 12.7978C25.9926 12.7978 36.0926 12.7978 36.0926 12.7978V32.7921H25.4467C25.9005 31.6329 25.9643 30.4559 25.9643 29.5306C25.9678 25.5672 25.9643 21.6038 25.9643 17.6404C25.9643 17.6404 25.9643 12.8261 25.9643 12.7942L25.9678 12.7978Z" fill="#4357EE"/>
</g>
<defs>
<clipPath id="clip0_293_1691">
<rect width="40.7119" height="50" fill="white"/>
</clipPath>
</defs>
</svg>
