<svg width="157" height="113" viewBox="0 0 157 113" fill="none" xmlns="http://www.w3.org/2000/svg">
<g filter="url(#filter0_d_293_1673)">
<path d="M130.379 16.3826H26.9954C23.4728 16.3826 20.6171 19.2321 20.6171 22.7472V82.3625C20.6171 85.8776 23.4728 88.7271 26.9954 88.7271H130.379C133.901 88.7271 136.757 85.8776 136.757 82.3625V22.7472C136.757 19.2321 133.901 16.3826 130.379 16.3826Z" fill="white"/>
</g>
<path d="M28.9804 73.1342L27.7725 72.5277L35.4202 57.265L44.8761 67.1458L56.1246 42.8851L71.2201 57.0346L87.8236 40.4667L104.058 50.3629L124.885 28.6972L125.862 29.6339L104.281 52.0827L88.0313 42.1711L71.2508 58.9156L56.5709 45.15L45.2685 69.5105L35.7742 59.5836L28.9804 73.1342Z" fill="#72E0EA"/>
<path d="M98.757 70.0171H85.9004V76.7732H98.757V70.0171Z" fill="#4AC0C6"/>
<path d="M129.541 72.7196H107.213V74.0708H129.541V72.7196Z" fill="#4AC0C6"/>
<defs>
<filter id="filter0_d_293_1673" x="0.617126" y="0.382629" width="156.14" height="112.345" filterUnits="userSpaceOnUse" color-interpolation-filters="sRGB">
<feFlood flood-opacity="0" result="BackgroundImageFix"/>
<feColorMatrix in="SourceAlpha" type="matrix" values="0 0 0 0 0 0 0 0 0 0 0 0 0 0 0 0 0 0 127 0" result="hardAlpha"/>
<feOffset dy="4"/>
<feGaussianBlur stdDeviation="10"/>
<feComposite in2="hardAlpha" operator="out"/>
<feColorMatrix type="matrix" values="0 0 0 0 0 0 0 0 0 0 0 0 0 0 0 0 0 0 0.1 0"/>
<feBlend mode="normal" in2="BackgroundImageFix" result="effect1_dropShadow_293_1673"/>
<feBlend mode="normal" in="SourceGraphic" in2="effect1_dropShadow_293_1673" result="shape"/>
</filter>
</defs>
</svg>
