<svg width="160" height="108" viewBox="0 0 160 108" fill="none" xmlns="http://www.w3.org/2000/svg">
<g filter="url(#filter0_d_293_1647)">
<path d="M27.4691 83.3657C27.4691 83.3636 27.4708 83.3619 27.4729 83.3619H132.714C136.407 83.3619 139.408 80.3753 139.408 76.6825V22.6794C139.408 18.9942 136.415 16 132.714 16H27.4691C23.776 16 20.7754 18.9865 20.7754 22.6794V76.6902C20.7754 80.3741 23.7663 83.3674 27.4653 83.3695C27.4674 83.3695 27.4691 83.3678 27.4691 83.3657Z" fill="white"/>
</g>
<path d="M131.791 29.9883C127.767 29.1822 123.789 31.7925 121.243 35.017C120.035 36.5449 119.042 38.2185 118.065 39.8999C116.98 41.7732 115.911 43.6542 114.595 45.3739C112.102 48.6368 108.232 51.3623 104.178 50.7404C97.5992 49.7424 94.0062 40.7367 87.3586 40.8519C84.2503 40.9056 81.5959 43.0477 79.4723 45.3278C77.3565 47.608 75.4253 50.1877 72.6709 51.631C68.8239 53.6425 64.0691 52.9899 60.076 51.2779C56.0828 49.5658 52.5821 46.9017 48.789 44.7904C42.4338 41.2511 35.2092 39.3778 27.9384 39.1859V73.3735H132.222V30.0958C132.076 30.0574 131.937 30.0114 131.783 29.9806L131.791 29.9883Z" fill="#D3DFFF"/>
<path d="M60.0839 51.2855C64.077 52.9976 68.8242 53.6502 72.6788 51.6387C75.4332 50.203 77.3644 47.6157 79.4803 45.3355C81.5961 43.0553 84.2582 40.9133 87.3665 40.8596C94.0141 40.7444 97.6148 49.7501 104.185 50.7481C108.24 51.3623 112.11 48.6368 114.603 45.3816C115.919 43.6695 116.98 41.7809 118.073 39.9076C114.034 40.0918 109.994 40.2914 106.494 38.4258C103.016 36.5756 100.731 32.9595 97.2609 31.0862C91.0288 27.7235 83.4118 30.9326 77.2028 34.3338C73.4944 36.3683 69.3551 38.5563 65.2465 37.5506C60.5994 36.4143 57.8757 31.6927 54.0057 28.8751C46.5964 23.4779 35.4633 26.0959 29.1235 32.7292C29.1235 32.7292 29.1158 32.7368 29.1081 32.7445C28.3464 33.543 27.9617 34.5564 27.9617 35.6005V39.1936C35.2325 39.3855 42.4571 41.2511 48.8123 44.7981C52.6054 46.9094 56.1061 49.5735 60.0993 51.2855H60.0839Z" fill="#72DFE9"/>
<defs>
<filter id="filter0_d_293_1647" x="0.775391" y="0" width="158.633" height="107.37" filterUnits="userSpaceOnUse" color-interpolation-filters="sRGB">
<feFlood flood-opacity="0" result="BackgroundImageFix"/>
<feColorMatrix in="SourceAlpha" type="matrix" values="0 0 0 0 0 0 0 0 0 0 0 0 0 0 0 0 0 0 127 0" result="hardAlpha"/>
<feOffset dy="4"/>
<feGaussianBlur stdDeviation="10"/>
<feComposite in2="hardAlpha" operator="out"/>
<feColorMatrix type="matrix" values="0 0 0 0 0 0 0 0 0 0 0 0 0 0 0 0 0 0 0.1 0"/>
<feBlend mode="normal" in2="BackgroundImageFix" result="effect1_dropShadow_293_1647"/>
<feBlend mode="normal" in="SourceGraphic" in2="effect1_dropShadow_293_1647" result="shape"/>
</filter>
</defs>
</svg>
