<svg width="101" height="101" viewBox="0 0 101 101" fill="none" xmlns="http://www.w3.org/2000/svg">
<g filter="url(#filter0_d_293_1641)">
<path d="M50.6506 76.0376C67.2651 76.0376 80.7339 62.5977 80.7339 46.0188C80.7339 29.4399 67.2651 16 50.6506 16C34.0361 16 20.5674 29.4399 20.5674 46.0188C20.5674 62.5977 34.0361 76.0376 50.6506 76.0376Z" fill="white"/>
</g>
<path d="M73.2044 39.9798C71.1304 32.119 65.2726 25.8332 57.7401 23.2605L50.1445 46.2941L73.2114 39.9798H73.2044Z" fill="#72DFE9"/>
<path d="M49.8929 45.7133L39.5713 66.8893C42.6835 68.4479 46.1856 69.3276 49.8929 69.3276C62.7726 69.3276 73.2105 58.7569 73.2105 45.7133C73.2105 43.5936 72.9301 41.5363 72.4102 39.5759L49.8929 45.7133Z" fill="#AEC7FF"/>
<path d="M57.833 23.5356C55.4988 22.7403 53.0071 22.3008 50.4127 22.3008C37.523 22.3008 27.0771 32.9463 27.0771 46.0823C27.0771 55.4372 32.3754 63.5225 40.0832 67.4082L50.4127 46.0823L57.833 23.5356Z" fill="#86A7FF"/>
<defs>
<filter id="filter0_d_293_1641" x="0.567383" y="0" width="100.166" height="100.038" filterUnits="userSpaceOnUse" color-interpolation-filters="sRGB">
<feFlood flood-opacity="0" result="BackgroundImageFix"/>
<feColorMatrix in="SourceAlpha" type="matrix" values="0 0 0 0 0 0 0 0 0 0 0 0 0 0 0 0 0 0 127 0" result="hardAlpha"/>
<feOffset dy="4"/>
<feGaussianBlur stdDeviation="10"/>
<feComposite in2="hardAlpha" operator="out"/>
<feColorMatrix type="matrix" values="0 0 0 0 0 0 0 0 0 0 0 0 0 0 0 0 0 0 0.1 0"/>
<feBlend mode="normal" in2="BackgroundImageFix" result="effect1_dropShadow_293_1641"/>
<feBlend mode="normal" in="SourceGraphic" in2="effect1_dropShadow_293_1641" result="shape"/>
</filter>
</defs>
</svg>
