<svg width="20" height="20" viewBox="0 0 20 20" fill="none" xmlns="http://www.w3.org/2000/svg">
<path d="M4.5373 6.56445H0.38623V19.8865H4.5373V6.56445Z" fill="#D6D6D6"/>
<path d="M2.41342 4.82683C3.76493 4.82683 4.82683 3.76493 4.82683 2.41342C4.82683 1.0619 3.76493 0 2.41342 0C1.0619 0 0 1.0619 0 2.41342C0 3.66839 1.0619 4.82683 2.41342 4.82683Z" fill="#D6D6D6"/>
<path d="M11.1008 12.8401C11.1008 11.0059 11.9696 9.84744 13.6107 9.84744C15.1553 9.84744 15.831 10.9094 15.831 12.8401C15.831 14.7708 15.831 19.7907 15.831 19.7907H19.8856C19.8856 19.7907 19.8856 14.9639 19.8856 11.392C19.8856 7.82018 17.8583 6.08252 15.0587 6.08252C12.2592 6.08252 11.0042 8.30287 11.0042 8.30287V6.5652H7.0462V19.8873H11.0042C11.1007 19.7907 11.1008 14.8674 11.1008 12.8401Z" fill="#D6D6D6"/>
</svg>
