<svg width="35" height="50" viewBox="0 0 35 50" fill="none" xmlns="http://www.w3.org/2000/svg">
<path d="M26.6851 47.7512C26.6851 48.3698 26.4629 48.9405 26.046 49.3575C25.6427 49.7642 25.0924 49.9932 24.4978 49.9932C23.4451 49.9966 22.3925 50 21.3433 50H17.0063H12.7479C11.7158 50 10.6837 50 9.65156 50C8.60576 50 7.73426 49.3301 7.48136 48.339C7.23529 47.3684 7.64882 46.3705 8.51007 45.851C8.84158 45.6528 9.21068 45.5502 9.60713 45.5502H17.061C19.5422 45.5502 22.0234 45.5502 24.5046 45.5537C25.7213 45.5537 26.6782 46.5208 26.6851 47.7512ZM22.9838 16.9754C22.9838 18.5885 22.372 20.0923 21.2578 21.2098C20.1471 22.3206 18.6536 22.9357 17.0507 22.9357C13.7288 22.9357 11.128 20.3349 11.128 17.013C11.128 13.6876 13.722 11.0834 17.0371 11.08C20.3693 11.08 22.9803 13.6705 22.9838 16.9754ZM17.0439 15.5366C16.2681 15.5502 15.5743 16.2543 15.588 17.0164C15.6017 17.7922 16.2818 18.4757 17.0473 18.4757C17.8436 18.4621 18.5408 17.758 18.5272 16.9959C18.5135 16.2201 17.8334 15.5366 17.0678 15.5366V15.1948L17.0473 15.5366H17.0439ZM30.7008 27.2317C28.1786 30.6254 25.4718 34.2344 21.9277 38.9337C20.7076 40.5502 18.9339 41.4798 17.061 41.4798C15.171 41.4798 13.3836 40.54 12.1498 38.8995C9.25169 35.0376 6.35696 31.1757 3.46222 27.3137C0.912663 23.9064 -0.23908 20.0068 0.041166 15.7109C0.492294 8.72864 5.54014 2.52563 12.3139 0.62201C13.117 0.396446 13.9373 0.252905 14.7302 0.112782C14.9284 0.0786056 15.359 0 15.359 0H18.7493L19.1868 0.0717703C20.2052 0.235817 21.2578 0.403281 22.2626 0.76555C28.9646 3.17498 32.8915 7.88448 33.9407 14.7642C34.6208 19.231 33.5306 23.4245 30.7042 27.2317H30.7008ZM18.346 36.2269C21.3091 32.283 24.2141 28.4176 27.1464 24.4908C28.7903 22.2898 29.5798 19.8325 29.6311 16.7567C29.6208 16.637 29.6071 16.4935 29.5969 16.3363C29.5661 15.9125 29.5251 15.3828 29.4328 14.8667C28.3221 8.73547 23.2401 4.45318 17.0781 4.45318C16.2613 4.45318 15.4308 4.53178 14.614 4.689C8.74246 5.80998 4.48067 11.0355 4.48409 17.1121C4.48409 19.8189 5.32825 22.3172 6.98922 24.5352L8.97486 27.1839C11.2373 30.2016 13.4998 33.2194 15.7623 36.2338C16.1314 36.7259 16.5894 36.9959 17.0507 36.9959C17.5121 36.9959 17.9735 36.7259 18.3426 36.2303L18.346 36.2269Z" fill="#4357EE"/>
</svg>
