<svg width="57" height="34" viewBox="0 0 57 34" fill="none" xmlns="http://www.w3.org/2000/svg">
<path d="M55.4851 11.1154L51.0349 6.25824C49.9934 5.13736 48.4784 4.57692 46.9635 4.67033L40.1462 5.13736V0.747252C40.1462 0.280219 39.7674 0 39.3887 0H10.9834C10.51 0 10.2259 0.373626 10.2259 0.747252V4.2033H16.6645C18.3688 4.2033 19.789 5.6044 19.789 7.28571C19.789 8.21978 19.3156 9.06044 18.6528 9.62088C20.1678 9.80769 21.3987 11.1154 21.3987 12.6099C21.3987 13.544 21.0199 14.3846 20.3571 14.9451H20.6412C22.3455 14.9451 23.7658 16.3462 23.7658 18.0275C23.7658 19.7088 22.3455 21.1099 20.6412 21.1099H10.2259V27.3681C10.2259 28.489 11.1728 29.4231 12.309 29.4231H14.8654C14.8654 29.4231 14.8654 29.4231 14.9601 29.4231C15.3389 32.0385 17.6113 34 20.3571 34C23.103 34 25.3754 32.0385 25.7542 29.4231C25.7542 29.4231 25.7542 29.4231 25.8488 29.4231H39.4834C39.4834 29.4231 39.4834 29.4231 39.5781 29.4231C39.9568 32.0385 42.2292 34 44.9751 34C47.7209 34 49.9934 32.0385 50.3721 29.4231C50.3721 29.4231 50.3721 29.4231 50.4668 29.4231H53.9701C55.5797 29.4231 57 28.1154 57 26.4341V14.3846C56.8106 13.1703 56.3372 12.0495 55.4851 11.1154ZM20.2625 30.9176C18.9369 30.9176 17.8954 29.8901 17.8954 28.5824C17.8954 27.2747 18.9369 26.2473 20.2625 26.2473C21.588 26.2473 22.6296 27.2747 22.6296 28.5824C22.6296 29.8901 21.588 30.9176 20.2625 30.9176ZM44.8804 30.9176C43.5548 30.9176 42.5133 29.8901 42.5133 28.5824C42.5133 27.2747 43.5548 26.2473 44.8804 26.2473C46.206 26.2473 47.2475 27.2747 47.2475 28.5824C47.2475 29.8901 46.206 30.9176 44.8804 30.9176ZM52.9286 17.5604H42.5133V8.78022L47.2475 8.40659H47.3422C47.6262 8.40659 47.9103 8.5 48.0997 8.78022L52.5498 13.6374C52.7392 13.8242 52.8339 14.1044 52.8339 14.3846V17.5604H52.9286ZM1.51495 8.78022C0.662791 8.78022 0 8.12637 0 7.28571C0 6.44505 0.662791 5.79121 1.51495 5.79121H16.6645C17.5166 5.79121 18.1794 6.44505 18.1794 7.28571C18.1794 8.12637 17.5166 8.78022 16.6645 8.78022H1.51495ZM3.21927 14.1978C2.36711 14.1978 1.70432 13.544 1.70432 12.7033C1.70432 11.8626 2.36711 11.2088 3.21927 11.2088H18.3688C19.2209 11.2088 19.8837 11.8626 19.8837 12.7033C19.8837 13.544 19.2209 14.1978 18.3688 14.1978H3.21927ZM20.6412 19.522H5.49169C4.63953 19.522 3.97675 18.8681 3.97675 18.0275C3.97675 17.1868 4.63953 16.533 5.49169 16.533H20.6412C21.4934 16.533 22.1561 17.1868 22.1561 18.0275C22.1561 18.8681 21.4934 19.522 20.6412 19.522Z" fill="#4357EE"/>
</svg>
