<svg width="60" height="60" viewBox="0 0 60 60" fill="none" xmlns="http://www.w3.org/2000/svg">
<g style="mix-blend-mode:luminosity" clip-path="url(#clip0_293_1703)">
<path d="M31.4524 59.5H28.6815C28.5707 59.4818 28.4605 59.4507 28.3497 59.4473C27.4704 59.4202 26.5986 59.3169 25.7302 59.1851C19.0361 58.1727 13.3449 55.2206 8.65397 50.3425C5.92497 47.5047 3.86706 44.2384 2.44985 40.5666C2.27863 40.1237 2.42732 39.902 2.89589 39.9016C8.53908 39.8989 14.1823 39.9056 19.8248 39.8888C21.5556 39.8833 23.235 39.5819 24.7773 38.7405C26.4797 37.8112 27.5671 36.4623 27.6867 34.451C27.7982 32.5709 27.1988 30.9982 25.7187 29.7973C24.6374 28.92 23.4013 28.3239 22.0922 27.8813C21.0048 27.5129 19.8978 27.2027 18.807 26.8425C18.0048 26.5769 17.2161 26.2681 16.5051 25.7984C15.9665 25.4429 15.5785 24.9745 15.4913 24.3115C15.3778 23.4485 15.6752 22.7355 16.3287 22.1773C17.1269 21.496 18.0892 21.3048 19.1037 21.3041C22.201 21.3014 25.299 21.3027 28.3963 21.3014C28.7755 21.3014 28.7829 21.2852 28.6085 20.9567C28.1699 20.1308 27.7239 19.3097 27.2968 18.4784C27.1731 18.2372 27.017 18.1344 26.7432 18.1351C23.9946 18.1439 21.246 18.1135 18.4988 18.1574C16.9146 18.1831 15.3961 18.5683 14.0079 19.3651C12.0358 20.4978 10.8707 22.1063 11.0491 24.4845C11.1336 25.6118 11.5276 26.6046 12.3183 27.4312C13.0725 28.2199 14.0025 28.7409 14.9703 29.2066C16.4591 29.9223 18.0399 30.3758 19.618 30.8407C20.5161 31.1057 21.3974 31.4247 22.1719 31.9707C22.9775 32.5384 23.3384 33.3318 23.2566 34.3044C23.1728 35.3012 22.5977 35.9527 21.7036 36.3433C20.9879 36.6563 20.2309 36.7367 19.4578 36.736C16.1347 36.7326 12.8124 36.7347 9.4893 36.7347C6.89884 36.7347 4.3077 36.7299 1.71725 36.7401C1.40028 36.7414 1.25025 36.6407 1.18807 36.3244C1.03533 35.5513 0.848803 34.7842 0.752835 34.0009C0.656867 33.2197 0.582526 32.4364 0.498047 31.6538V28.3422C0.601449 27.9698 0.578471 27.5832 0.61429 27.2041C0.898138 24.2352 1.601 21.371 2.75532 18.6217C4.57804 14.2795 7.27663 10.5712 10.8653 7.51985C15.2318 3.81022 20.2573 1.55362 25.9323 0.752761C26.6216 0.655441 27.3143 0.583803 28.0057 0.5C29.3351 0.5 30.6637 0.5 31.9931 0.5C32.0803 0.518247 32.1675 0.546632 32.2553 0.553391C35.9704 0.829129 39.5063 1.78273 42.8564 3.40404C46.9796 5.39977 50.4548 8.21393 53.2723 11.8222C56.5386 16.0056 58.5336 20.7357 59.2493 25.9984C59.346 26.7107 59.417 27.4271 59.4994 28.1415V31.791C59.4812 31.8896 59.4521 31.9883 59.4453 32.0883C59.3548 33.4961 59.129 34.8836 58.8506 36.2643C58.781 36.6103 58.6222 36.7414 58.2795 36.7184C57.8308 36.6887 57.38 36.6725 56.9299 36.6725C51.4334 36.665 45.9368 36.6623 40.441 36.6569C39.7314 36.6569 39.0217 36.6542 38.3121 36.6448C37.9451 36.64 37.9134 36.5765 38.0931 36.2501C39.4137 33.8529 40.7343 31.4564 42.0562 29.0606C44.0148 25.5111 45.9754 21.9623 47.9332 18.4122C48.1387 18.0398 48.1231 18.0189 47.6798 18.0189C46.3619 18.0175 45.0441 18.0189 43.7262 18.0189C38.8156 18.0189 33.905 18.0189 28.9938 18.0189C28.4835 18.0189 28.4808 18.0209 28.7025 18.4615C29.1073 19.2665 29.5263 20.0646 29.9169 20.8763C30.0487 21.1507 30.2217 21.2453 30.5205 21.2426C31.9397 21.2311 33.359 21.2406 34.7782 21.2426C36.9746 21.2453 39.1711 21.246 41.3669 21.2507C41.8035 21.2514 41.8318 21.3075 41.623 21.6866C40.9269 22.9491 40.2328 24.2122 39.536 25.474C36.9773 30.1075 34.418 34.7403 31.86 39.3738C31.6268 39.7962 31.6505 39.834 32.1411 39.834C34.0334 39.8354 35.9258 39.834 37.8174 39.834C44.3162 39.834 50.815 39.834 57.3138 39.834C57.8017 39.834 57.8267 39.8671 57.6645 40.2997C56.2277 44.1397 54.0799 47.5351 51.2367 50.4851C48.5956 53.2249 45.5361 55.3795 42.0603 56.9339C39.2637 58.1842 36.3448 58.9925 33.2941 59.3128C32.6797 59.377 32.0647 59.4385 31.4504 59.5014L31.4524 59.5Z" fill="#1E90FB"/>
</g>
<defs>
<clipPath id="clip0_293_1703">
<rect width="59" height="59" fill="white" transform="translate(0.5 0.5)"/>
</clipPath>
</defs>
</svg>
