<svg width="49" height="48" viewBox="0 0 49 48" fill="none" xmlns="http://www.w3.org/2000/svg">
<path d="M48.5023 32.026C47.3229 31.2802 46.1401 30.5377 44.9607 29.7953L43.7745 29.0326L43.1064 28.6122L47.8308 25.6425C48.233 25.3882 48.4546 25.2492 48.4546 24.9645C48.4546 24.6797 48.2262 24.5339 47.8172 24.2763L45.7345 22.9643C42.8269 21.1337 39.9192 19.3031 37.0082 17.4826C36.9128 17.4216 36.8923 17.3911 36.8923 17.3911C36.8923 17.3911 36.8889 17.347 36.9298 17.2249C37.5775 15.3502 37.8093 13.6044 37.6422 11.889C37.1821 7.12932 34.7823 3.57313 30.5146 1.31874C29.3148 0.684794 27.9615 0.277986 26.1311 0.00339007H26.1072L23.3087 0H23.2848C21.3623 0.274596 19.7636 0.789886 18.4035 1.57977C14.4495 3.86807 12.2168 7.31916 11.7736 11.8347C11.5998 13.6077 11.8418 15.3943 12.5133 17.3029C12.5304 17.3504 12.5372 17.3775 12.5406 17.3944C12.5304 17.4012 12.5167 17.4114 12.4963 17.425C9.69774 19.1776 6.90261 20.9337 4.10748 22.6931L1.26463 24.4797C1.23736 24.4966 1.20327 24.5102 1.17259 24.5238L1.09419 24.5577L0.899896 24.6492V25.2323L2.49176 26.2222C3.61663 26.9205 4.7415 27.6189 5.86637 28.324C6.01976 28.4223 6.19019 28.5274 6.29586 28.6054C6.19019 28.68 6.02657 28.7851 5.86637 28.8834L5.53913 29.0902L5.5289 29.0834L3.6439 30.2665C2.83263 30.7784 0 32.582 0 32.582L2.72696 34.3685C9.82727 38.8333 16.931 43.3014 24.0245 47.7763C24.2699 47.9322 24.4744 48 24.6858 48C24.8971 48 25.0914 47.9322 25.3164 47.7932C31.752 43.7353 38.1944 39.6808 44.6335 35.6296L48.4887 33.2023C48.775 33.0227 49 32.8803 49 32.6023C49 32.3277 48.7648 32.1785 48.4955 32.009L48.5023 32.026ZM23.4621 3.5494C23.8813 3.49516 24.3074 3.46804 24.7267 3.46804C29.4648 3.46804 33.4836 7.01744 34.0733 11.7263C34.4415 14.6621 33.6029 17.2148 31.5782 19.3132C30.1567 20.7913 28.6705 22.2558 27.2355 23.6762C26.4208 24.4831 25.6061 25.2865 24.7983 26.0968C24.7574 26.1374 24.7301 26.1578 24.713 26.1713C24.6926 26.1578 24.6619 26.1307 24.6108 26.0832C23.687 25.1577 22.7633 24.239 21.8361 23.3169C20.5476 22.0355 19.2148 20.7133 17.9161 19.4014C16.2799 17.7504 15.3153 15.6147 15.2641 13.5535C15.2641 8.2955 18.6319 4.18335 23.4621 3.5494ZM9.04668 23.7542C10.7408 22.6897 12.4383 21.6219 14.129 20.5472C14.1768 20.5167 14.2074 20.5031 14.2279 20.493C14.2415 20.5065 14.262 20.5337 14.2927 20.5743C14.7256 21.1981 15.2539 21.7473 15.7107 22.2016C17.6264 24.1034 19.5386 26.0052 21.4509 27.9071L24.0415 30.4835C24.3074 30.7479 24.4642 30.9039 24.713 30.9039C24.9619 30.9039 25.1255 30.7412 25.3743 30.4937L33.8006 22.1134C34.3426 21.5744 34.7857 21.0625 35.1505 20.5506C35.1709 20.5201 35.188 20.4998 35.2016 20.4862C35.2118 20.493 35.2255 20.4998 35.2425 20.5099C36.9639 21.6015 38.6887 22.6863 40.4135 23.7712L42.3087 24.9611C42.3087 24.9611 42.2985 24.9679 42.2917 24.9713C40.2874 26.2358 38.2865 27.4969 36.2822 28.758L32.7439 30.9818C30.2385 32.5582 27.6445 34.1855 25.105 35.8025C24.9414 35.9076 24.8221 35.9517 24.7199 35.9517C24.6551 35.9517 24.546 35.9381 24.3381 35.8059C19.9136 33.0057 15.4073 30.1716 11.0476 27.4324L7.12076 24.9645L9.04668 23.7508V23.7542Z" fill="#4357EE"/>
<path d="M24.7164 19.4022C27.8456 19.4022 30.3919 16.8732 30.3919 13.7679C30.3919 10.666 27.8422 8.14377 24.713 8.14038C23.1859 8.14038 21.7543 8.73025 20.6771 9.80151C19.6102 10.866 19.0205 12.2797 19.0239 13.7848C19.0307 16.8834 21.5838 19.4056 24.713 19.4056L24.7164 19.4022Z" fill="#4357EE"/>
</svg>
