<svg width="51" height="50" viewBox="0 0 51 50" fill="none" xmlns="http://www.w3.org/2000/svg">
<g clip-path="url(#clip0_874_2504)">
<path d="M50.28 15.37C49.19 8.44 45.2 3.6 38.42 0.98C37.04 0.45 35.63 0.21 34.19 0H34.16H30.62H30.57C30.57 0 30.51 0.03 30.48 0.04C30.45 0.05 30.41 0.06 30.39 0.06C25.5 0.65 21.51 2.8 18.52 6.46C14.28 11.66 13.2 17.59 15.32 24.09C15.93 25.96 16.93 27.73 18.36 29.5C18.39 29.53 18.41 29.56 18.42 29.58C18.42 29.58 18.42 29.58 18.41 29.59C17.96 29.97 17.54 30.38 17.07 30.83C16.85 30.6 16.62 30.37 16.4 30.15L16.23 29.98C15.73 29.48 15.23 29.24 14.72 29.24C14.21 29.24 13.71 29.48 13.23 29.97C12.21 30.97 11.2 31.98 10.19 32.99C7.72001 35.45 5.16001 37.99 2.62001 40.47C1.78001 41.29 0.87001 42.33 0.52001 43.8V43.84L0.51001 45.78L0.53001 45.85C0.53001 45.85 0.55001 45.9 0.56001 45.93C0.58001 45.97 0.59001 46.01 0.60001 46.04C1.21001 48.4 3.25001 49.99 5.66001 49.99C7.13001 49.99 8.51001 49.38 9.55001 48.27C10.15 47.63 10.79 47 11.4 46.39C11.72 46.08 12.03 45.76 12.35 45.45C15.06 42.72 17.76 39.99 20.47 37.26C21.47 36.25 21.48 35.22 20.49 34.22C20.42 34.15 20.36 34.08 20.29 34.02C20.11 33.84 19.93 33.65 19.73 33.48L19.89 33.35C20.24 33.04 20.61 32.73 20.93 32.36C21.04 32.24 21.09 32.22 21.09 32.22C21.1 32.22 21.16 32.22 21.35 32.37C24.68 34.9 28.35 36.18 32.24 36.18C33.47 36.18 34.74 36.05 36.01 35.8C45.52 33.91 51.79 24.93 50.28 15.37ZM32.4 32.41C28.52 32.41 24.9 30.92 22.21 28.22C19.52 25.52 18.04 21.9 18.05 18.03C18.06 14.15 19.55 10.53 22.26 7.85C24.95 5.18 28.55 3.71 32.4 3.71H32.42C40.37 3.72 46.68 10.03 46.78 18.06C46.67 26.1 40.36 32.41 32.4 32.41ZM38.61 12.15C36.66 10.59 34.61 9.79 32.49 9.79C31.4 9.79 30.28 10 29.16 10.42C26.01 11.61 23.74 13.99 22.42 17.51C22.23 18 22.37 18.47 22.48 18.77C23.03 20.24 23.83 21.55 24.85 22.68C26.97 25.02 29.5 26.23 32.37 26.28C32.43 26.28 32.5 26.28 32.56 26.28C33.69 26.28 34.8 26.05 35.86 25.6C38.89 24.31 41.08 21.96 42.36 18.62C42.51 18.22 42.5 17.81 42.31 17.32C41.5 15.2 40.25 13.46 38.61 12.14V12.15ZM32.38 20.76H32.37C30.87 20.76 29.7 19.55 29.7 18.03C29.7 16.53 30.9 15.36 32.42 15.36C33.93 15.36 35.1 16.56 35.1 18.08C35.1 19.59 33.9 20.77 32.38 20.77V20.76Z" fill="#4357EE"/>
</g>
<defs>
<clipPath id="clip0_874_2504">
<rect width="50" height="50" fill="white" transform="translate(0.5)"/>
</clipPath>
</defs>
</svg>
