<svg width="78" height="78" viewBox="0 0 78 78" fill="none" xmlns="http://www.w3.org/2000/svg">
<circle cx="39" cy="39" r="39" fill="#FBEDC0"/>
<path d="M56.3115 45.1109C56.1378 44.8401 56.1218 44.6315 56.2058 44.3371C57.7826 38.8213 57.1777 33.599 53.9883 28.7731C53.3579 27.819 52.5181 27.0027 51.7858 26.1138C51.6943 26.0024 51.6113 25.8297 51.6245 25.6957C51.8085 23.9075 51.1621 22.4882 49.6523 21.5407C48.15 20.597 46.5902 20.6508 45.0946 21.6039C44.8171 21.7804 44.6086 21.7766 44.3208 21.6945C39.1809 20.2139 34.2353 20.681 29.621 23.4205C24.7547 26.3101 21.9521 30.6557 21.0632 36.2375C20.9783 36.7688 20.9264 37.3058 20.8594 37.839V40.0292C20.9471 40.6889 21 41.356 21.1302 42.0072C21.2972 42.8452 21.5275 43.6709 21.7228 44.5032C21.7502 44.6202 21.787 44.7873 21.7303 44.8618C21.2566 45.4856 21.0179 46.1999 20.8594 46.952V48.0118C21.0462 48.729 21.2585 49.4358 21.7398 50.0228C22.757 51.2628 24.0536 51.8224 25.6624 51.6478C25.7993 51.6327 25.9908 51.6959 26.0852 51.7931C28.5698 54.3316 31.5526 55.9538 35.0279 56.6597C35.8093 56.8182 36.6104 56.8824 37.4021 56.9918C37.5172 57.0079 37.6305 57.0333 37.7446 57.0551H40.1471C40.8331 56.9654 41.522 56.8937 42.2042 56.7814C45.8315 56.185 48.9616 54.6024 51.5726 52.0111C51.8349 51.7506 52.0614 51.628 52.4747 51.6553C54.2128 51.7705 55.582 51.0589 56.454 49.5509C57.3127 48.0665 57.2343 46.5548 56.3105 45.1119L56.3115 45.1109ZM47.43 23.7121C48.2057 23.7149 48.8389 24.3538 48.8361 25.1305C48.8332 25.9052 48.1925 26.5394 47.4178 26.5365C46.6421 26.5337 46.0089 25.8948 46.0127 25.1182C46.0155 24.3415 46.6534 23.7093 47.431 23.7131L47.43 23.7121ZM25.084 48.8592C24.3093 48.8517 23.6799 48.21 23.6865 47.4324C23.6931 46.6567 24.3357 46.0282 25.1123 46.0348C25.888 46.0423 26.5174 46.684 26.5098 47.4607C26.5032 48.2354 25.8597 48.8658 25.0831 48.8583L25.084 48.8592ZM26.591 43.4925C25.87 43.1943 25.1123 43.1349 24.2734 43.2944C22.942 37.8729 23.846 32.9677 27.5497 28.7429C31.7186 23.9877 38.1665 22.8034 43.2583 24.3425C43.1045 25.2031 43.2007 26.0194 43.531 26.8111C43.5583 26.8763 43.5197 26.981 43.4857 27.0546C43.4574 27.115 43.3904 27.1565 43.3404 27.2065C37.956 32.5902 32.5698 37.9739 27.1911 43.3632C26.9967 43.5576 26.8514 43.6001 26.59 43.4925H26.591ZM28.449 50.1115C28.6462 49.7425 28.833 49.3773 29.0369 49.0215C29.0793 48.9479 29.1803 48.8951 29.2662 48.8649C29.3398 48.8394 29.4294 48.8592 29.5115 48.8592C35.8074 48.8592 42.1042 48.8611 48.4001 48.8545C48.6747 48.8545 48.8398 48.9017 48.9483 49.1933C49.0654 49.5075 49.2758 49.7878 49.4475 50.086C44.4501 55.4602 33.9201 55.7698 28.4499 50.1105L28.449 50.1115ZM52.8087 48.8592C52.0321 48.8668 51.3895 48.2373 51.382 47.4616C51.3744 46.684 52.0029 46.0423 52.7785 46.0348C53.5551 46.0272 54.1977 46.6567 54.2053 47.4314C54.2128 48.2071 53.5825 48.8507 52.8078 48.8583L52.8087 48.8592ZM53.5731 43.2557C53.2994 43.3038 53.2003 43.1849 53.1447 42.948C52.0444 38.3061 50.9394 33.6651 49.825 29.0269C49.7561 28.741 49.7787 28.5513 50.0788 28.456C53.9458 32.1958 55.064 38.4335 53.5731 43.2566V43.2557Z" fill="#4357EE"/>
</svg>
