<svg width="78" height="78" viewBox="0 0 78 78" fill="none" xmlns="http://www.w3.org/2000/svg">
<circle cx="39" cy="39" r="39" fill="#FBEDC0"/>
<path d="M38.1868 37.5126C37.3526 37.5044 36.7958 38.2449 36.9987 39.1066C37.1632 39.8041 37.3443 40.4985 37.5162 41.194C38.163 43.8035 38.8078 46.414 39.4567 49.0235C39.644 49.7764 40.3002 50.2134 40.9771 50.0441C41.6798 49.8677 42.0472 49.2184 41.8661 48.4593C41.7108 47.8121 41.5494 47.1659 41.389 46.5196C40.738 43.8845 40.087 41.2494 39.4329 38.6142C39.258 37.9075 38.813 37.5177 38.1858 37.5115L38.1868 37.5126Z" fill="#4357EE"/>
<path d="M47.6598 43.8989C46.6528 44.8928 45.7161 45.8109 44.7878 46.7371C44.4297 47.0941 44.3189 47.5259 44.4825 48.009C44.6356 48.4624 44.9647 48.7322 45.4315 48.8173C45.8507 48.8942 46.2274 48.7763 46.5317 48.4757C47.7664 47.2551 49.0021 46.0345 50.2265 44.8036C50.745 44.2825 50.7502 43.5675 50.2348 43.0506C49.0104 41.8197 47.7778 40.596 46.5389 39.3794C46.0183 38.8686 45.2618 38.8748 44.7712 39.3661C44.2817 39.8564 44.2848 40.598 44.8023 41.1222C45.624 41.9551 46.4592 42.7746 47.2924 43.5973C47.3917 43.6958 47.5097 43.7747 47.6608 43.8968L47.6598 43.8989Z" fill="#4357EE"/>
<path d="M31.2402 43.8568C31.4151 43.7224 31.592 43.6137 31.7369 43.4711C32.5359 42.6875 33.3339 41.9028 34.1184 41.1047C34.6276 40.5867 34.6152 39.8328 34.1153 39.3497C33.6278 38.8789 32.8826 38.8737 32.3755 39.3712C31.1356 40.5867 29.903 41.8104 28.6786 43.0413C28.1715 43.5511 28.1487 44.2661 28.6435 44.7666C29.8823 46.0201 31.1325 47.2613 32.3941 48.4922C32.892 48.9773 33.6692 48.9496 34.138 48.4747C34.6141 47.9926 34.6203 47.251 34.1225 46.7463C33.2832 45.895 32.4273 45.058 31.5796 44.2148C31.4896 44.1255 31.4058 44.0322 31.2402 43.8568Z" fill="#4357EE"/>
<path d="M24.8452 21.7673C34.5779 21.7673 44.3117 21.7673 54.0455 21.7673C56.4797 21.7673 58.0445 23.3152 58.0445 25.7257C58.0445 34.5707 58.0445 43.4157 58.0445 52.2608C58.0445 54.6795 56.4859 56.2314 54.0579 56.2324C49.1915 56.2324 44.3241 56.2324 39.4577 56.2324C34.5914 56.2324 29.6981 56.2355 24.8193 56.2273C24.4229 56.2273 24.0141 56.1976 23.6332 56.0991C21.9349 55.6591 20.8606 54.2107 20.8606 52.389C20.8585 43.505 20.8595 34.622 20.8606 25.738C20.8595 23.3172 22.4151 21.7673 24.8452 21.7673ZM27.0351 26.6919C26.3479 26.7032 25.7921 27.2879 25.8191 27.9721C25.846 28.6388 26.4245 29.1722 27.0972 29.1507C27.7679 29.1291 28.3102 28.5578 28.2936 27.89C28.2771 27.2202 27.712 26.6817 27.0341 26.6919H27.0351ZM31.9988 26.6919C31.3261 26.7002 30.7734 27.2592 30.7765 27.928C30.7796 28.5968 31.3385 29.1496 32.0122 29.1507C32.6995 29.1527 33.2666 28.5783 33.2532 27.8941C33.2397 27.2233 32.6767 26.6827 31.9988 26.6909V26.6919ZM36.9718 26.6919C36.299 26.6919 35.7391 27.2448 35.735 27.9136C35.7308 28.5824 36.2825 29.1425 36.9552 29.1517C37.6269 29.1609 38.1972 28.6152 38.2106 27.9485C38.2251 27.2602 37.6642 26.6919 36.9718 26.6919ZM23.3372 34.5112C23.3372 40.4472 23.3372 46.3832 23.3372 52.3182C23.3372 53.3111 23.804 53.7696 24.811 53.7696C34.5707 53.7696 44.3314 53.7696 54.091 53.7696C55.096 53.7696 55.5648 53.308 55.5648 52.3172C55.5648 46.3812 55.5648 40.4452 55.5648 34.5102V34.0896H23.3362V34.5112H23.3372Z" fill="#4357EE"/>
</svg>
