<svg width="78" height="78" viewBox="0 0 78 78" fill="none" xmlns="http://www.w3.org/2000/svg">
<circle cx="39" cy="39" r="39" fill="#FBEDC0"/>
<path d="M59.7255 47.3292C59.4692 46.5353 58.8868 45.8943 58.0854 45.5262C58.0602 45.5138 58.0337 45.5025 58.0072 45.4911V42.7765C58.0072 39.1468 58.0084 35.3926 57.9988 31.7006C57.9988 31.6485 58.0024 31.6179 58.0048 31.602C58.0181 31.5941 58.0409 31.5805 58.0806 31.5635C58.8796 31.2068 59.4632 30.576 59.7219 29.7866C59.9794 29.0018 59.8711 28.1422 59.4259 27.4276C58.9843 26.7198 58.2431 26.2136 57.3899 26.038C56.5392 25.8636 55.6813 26.0244 54.9737 26.4922C54.9352 26.5171 54.91 26.5295 54.8979 26.5352C54.8799 26.5295 54.8426 26.5137 54.7716 26.4752C50.4903 24.1388 46.2427 21.8296 42.1503 19.6122C42.1335 19.6031 42.1215 19.5963 42.1106 19.5895C42.1106 19.5782 42.1106 19.5635 42.113 19.5465C42.2213 18.3947 41.7099 17.4208 40.6727 16.8047C39.6138 16.175 38.443 16.166 37.3769 16.7786C36.3096 17.3913 35.7826 18.3743 35.8933 19.5488C35.8945 19.5669 35.8957 19.5816 35.8957 19.5941C35.886 19.5997 35.8728 19.6076 35.8572 19.6167C30.9478 22.2758 26.912 24.4695 23.1553 26.5205C23.1373 26.5295 23.124 26.5375 23.1132 26.542C23.1024 26.5352 23.0879 26.5273 23.0699 26.5148C22.3431 26.0346 21.4695 25.867 20.608 26.0437C19.7596 26.217 19.0196 26.7221 18.578 27.4288C18.1292 28.1468 18.0233 29.0097 18.2844 29.7968C18.5467 30.5851 19.1592 31.2385 19.9666 31.5885C19.981 31.5941 19.9919 31.5998 20.0003 31.6043C20.0003 31.6179 20.0015 31.6372 20.0015 31.6609C19.9955 35.4107 19.9955 39.2227 19.9955 42.9101V45.4945C19.9534 45.5138 19.9125 45.5319 19.8715 45.5512C18.341 46.276 17.7141 47.986 18.4457 49.4425C18.8259 50.2012 19.5322 50.7788 20.3829 51.0291C21.1434 51.2533 21.9243 51.1797 22.5801 50.823C23.0807 50.55 23.3238 50.6101 23.7582 50.9159C23.8568 50.9849 23.9531 51.0336 24.0373 51.0767C24.0662 51.0914 24.0939 51.105 24.1215 51.1197L26.3163 52.3111C29.5074 54.0438 32.6986 55.7777 35.8909 57.5082C35.8933 57.5093 35.8957 57.5104 35.8981 57.5127C35.7705 58.5172 36.1472 59.4097 36.9606 60.0258C37.2626 60.2545 37.5983 60.3995 37.9232 60.5399C38.0568 60.5977 38.1819 60.652 38.301 60.7098L38.419 60.7675H39.5488L40.0987 60.575C41.444 60.1005 42.2911 58.8219 42.113 57.5342C42.113 57.5274 42.1118 57.5206 42.1106 57.515C42.1215 57.5082 42.1359 57.5003 42.154 57.4901C46.4641 55.1548 50.7105 52.8468 54.7764 50.6282C54.8462 50.5897 54.8835 50.575 54.9003 50.5693C54.9136 50.575 54.9401 50.5874 54.981 50.6146C55.6885 51.0801 56.5464 51.2386 57.3972 51.0631C58.2515 50.8864 58.9939 50.3779 59.4319 49.669C59.8759 48.9521 59.9794 48.1231 59.7255 47.3337V47.3292ZM55.4478 45.3915C55.4478 45.4741 55.4478 45.4753 55.271 45.6157C54.9918 45.8365 54.8835 45.8037 54.336 45.4991L54.3155 45.4877C52.8656 44.6814 51.3831 43.8773 49.9488 43.1004C49.4567 42.8343 48.9657 42.567 48.4736 42.2997C48.3761 42.2465 48.2751 42.1967 48.162 42.1412C48.109 42.1151 48.0537 42.0879 47.9935 42.0585L47.2547 41.6882L47.1993 42.4741C47.1897 42.6089 47.1789 42.7403 47.168 42.8682C47.138 43.2216 47.1091 43.5568 47.1175 43.9034C47.1259 44.3043 47.5374 44.5715 47.7131 44.6678C50.0391 45.9441 51.8308 46.917 53.5226 47.8241C53.5707 47.8501 53.584 47.8649 53.584 47.8649C53.5924 47.8785 53.608 47.9249 53.6309 48.0676C53.685 48.4039 53.614 48.4968 53.0858 48.7799C48.9657 50.9906 44.824 53.2477 40.9627 55.3575C40.8544 55.4164 40.852 55.4176 40.6198 55.3258C40.3226 55.2081 40.2588 55.1322 40.2672 54.5874C40.2889 52.9917 40.2853 51.3609 40.2816 49.7833C40.2804 49.1808 40.2792 48.575 40.2792 47.9657V47.456H37.7235V50.0529C37.7211 51.6656 37.7199 53.3326 37.7307 54.9725C37.7307 55.0982 37.7307 55.1084 37.5418 55.2398C37.265 55.4323 37.1519 55.4221 36.6814 55.1628C32.4483 52.8366 28.0118 50.4391 24.4476 48.5127C24.4308 48.5036 24.4212 48.4968 24.4151 48.4934C24.4019 48.4606 24.3875 48.3734 24.3754 48.302L24.373 48.2896C24.3201 47.9725 24.3634 47.8694 24.9109 47.5851C26.0324 47.0019 27.1574 46.3869 28.2452 45.7935C28.919 45.4254 29.6145 45.0461 30.3016 44.6769C30.4749 44.584 30.9995 44.302 30.8804 43.5908C30.8443 43.3756 30.8371 43.1468 30.8299 42.8807C30.8262 42.7516 30.8214 42.6168 30.8142 42.4753L30.7709 41.6712L30.0164 42.0517C29.9587 42.0811 29.9057 42.1072 29.8564 42.1321C29.7481 42.1865 29.6518 42.234 29.5568 42.285L28.3583 42.9362C26.6436 43.8671 24.87 44.8286 23.1312 45.7845C23.1264 45.7879 23.1204 45.7901 23.1156 45.7924C23.0434 45.7346 22.9592 45.6939 22.8677 45.6723C22.6018 45.6112 22.5513 45.5783 22.5549 44.9249V44.9068C22.5753 40.43 22.5693 35.9248 22.5585 31.7221C22.5585 31.6213 22.5585 31.6179 22.7474 31.4763C23.0157 31.277 23.1156 31.2883 23.6354 31.5794C25.0794 32.388 26.5594 33.1864 27.9913 33.9599C28.5135 34.2419 29.037 34.5239 29.5592 34.807C29.647 34.8546 29.7373 34.8999 29.842 34.9531L30.7456 35.4152L30.8022 34.6213C30.8118 34.4865 30.8226 34.3552 30.8335 34.2272C30.8635 33.8637 30.8924 33.5194 30.8876 33.1638C30.8852 32.8874 30.6867 32.6394 30.3004 32.4276C28.5581 31.4741 26.5317 30.3665 24.5295 29.294C24.3947 29.2215 24.3911 29.2204 24.3718 29.0233C24.3393 28.6892 24.4091 28.5952 24.8724 28.3461C28.9359 26.1649 32.9982 23.9486 37.1495 21.6801C37.1555 21.6767 37.1603 21.6745 37.1651 21.6711C37.2482 21.739 37.3384 21.7855 37.4371 21.8092C37.6898 21.8704 37.7427 21.9055 37.7331 22.5374C37.7126 24.0176 37.7162 25.5216 37.7199 26.9746C37.7211 27.5318 37.7223 28.089 37.7223 28.6462V29.6326H40.2792V27.106C40.2792 25.448 40.2816 23.7345 40.2744 22.0482C40.2744 22.0165 40.2768 22.0029 40.2768 22.0029C40.2949 21.9735 40.3923 21.8942 40.4393 21.8568C40.722 21.6258 40.8303 21.6564 41.3682 21.9542L41.4621 22.0063C45.8589 24.414 50.2063 26.7674 53.5021 28.5477C53.5912 28.5952 53.5924 28.5964 53.6309 28.8274C53.685 29.1456 53.6213 29.2272 53.1038 29.499C52.0149 30.0732 50.9175 30.67 49.855 31.2476C49.1294 31.6428 48.4038 32.0369 47.6758 32.4276C47.2294 32.6666 47.0465 33.0098 47.1175 33.4763C47.1524 33.7062 47.162 33.9452 47.1716 34.2215C47.1765 34.3506 47.1813 34.4843 47.1897 34.6236L47.2366 35.4401L48.1776 34.9452C48.2955 34.8841 48.4002 34.8297 48.5025 34.7731L49.879 34.0256C51.5107 33.1411 53.1977 32.2261 54.851 31.3155C54.8594 31.311 54.8654 31.3076 54.8703 31.3053C54.904 31.3133 54.9689 31.3359 55.0195 31.3529L55.064 31.3687C55.4081 31.4877 55.4551 31.5941 55.4514 32.243C55.4286 36.5568 55.4358 40.9215 55.4454 45.3847L55.4478 45.3915Z" fill="#4357EE"/>
<path d="M38.9585 37.4726C37.0036 37.4331 35.0905 37.1998 33.3405 36.3318C32.8764 36.102 32.4313 35.8003 32.0596 35.4579C31.1934 34.6584 31.2086 33.6429 32.0583 32.8306C33.0484 31.8836 34.3318 31.4415 35.6848 31.1746C38.569 30.6036 41.4229 30.6639 44.1681 31.749C44.8041 32.0008 45.4098 32.3919 45.9143 32.8294C46.8247 33.6197 46.7931 34.6526 45.9257 35.4846C45.0671 36.3086 43.9658 36.7612 42.7923 37.0049C41.538 37.2637 40.2533 37.3936 38.9813 37.5805C38.9737 37.5445 38.9673 37.5097 38.9598 37.4737L38.9585 37.4726Z" fill="#4357EE"/>
<path d="M31.4298 36.6144C36.5102 38.9601 41.521 38.9632 46.5698 36.6216C46.5698 37.2806 46.6166 37.9986 46.5546 38.7114C46.509 39.2388 46.0687 39.6242 45.5803 39.9485C44.5224 40.652 43.2723 41.0022 41.9601 41.2001C39.194 41.6176 36.4659 41.5472 33.8403 40.6292C33.3671 40.4634 32.9191 40.2324 32.5028 39.9827C31.7588 39.5372 31.3577 38.9435 31.4222 38.154C31.464 37.6287 31.4298 37.1003 31.4298 36.6144Z" fill="#4357EE"/>
<path d="M31.4195 41.445C36.5034 43.7451 41.5201 43.7515 46.5431 41.4823C46.5431 42.1374 46.6598 42.9108 46.5114 43.6459C46.3464 44.4663 45.4989 44.9026 44.6742 45.2642C42.9208 46.0313 41.024 46.2724 39.0727 46.2756C37.0566 46.2788 35.0913 46.0494 33.296 45.2237C32.8189 45.0039 32.3876 44.6946 31.9904 44.3777C31.5883 44.0566 31.4081 43.6288 31.4157 43.1498C31.4258 42.5652 31.4182 41.9805 31.4182 41.445H31.4195Z" fill="#4357EE"/>
</svg>
