<svg width="78" height="78" viewBox="0 0 78 78" fill="none" xmlns="http://www.w3.org/2000/svg">
<circle cx="39" cy="39" r="39" fill="#FBEDC0"/>
<path d="M59.2632 39.977C59.131 40.5373 59.0439 41.1134 58.8582 41.6557C58.2013 43.5749 56.9421 44.973 55.1477 45.9004C54.9924 45.9806 54.8318 46.18 54.7972 46.3499C53.6755 51.7964 49.2388 56.0369 43.7487 56.8926C36.9164 57.9572 30.4399 53.6914 28.698 46.9819C28.6686 46.8701 28.6277 46.7614 28.5836 46.6221C27.8575 46.6221 27.1397 46.6232 26.4209 46.6221C22.1721 46.6116 18.9087 43.2078 19.0514 38.9367C19.1574 35.7903 21.3683 33.0375 24.487 32.1671C24.5489 32.1502 24.6108 32.1343 24.6601 32.1217C24.084 26.7269 26.0757 22.8652 31.3581 21.2276C34.9657 20.1092 39.1169 21.5695 41.4769 25.275C43.8872 24.2294 46.265 24.2875 48.5138 25.7045C50.753 27.1162 51.8433 29.2296 51.9671 31.8706C52.5191 31.9539 53.0794 31.9982 53.6188 32.127C56.6063 32.8402 58.7448 35.2216 59.1929 38.3004C59.2013 38.3616 59.238 38.4175 59.2622 38.4766V39.977H59.2632ZM52.5653 43.5929C52.5726 37.5608 47.6921 32.6429 41.6878 32.6324C35.6688 32.6218 30.7652 37.545 30.7715 43.5939C30.7778 49.6313 35.6583 54.5291 41.6689 54.5291C47.6806 54.5291 52.559 49.6334 52.5653 43.5939V43.5929Z" fill="#4357EE"/>
<path d="M44.7382 42.0461C44.9156 43.6066 44.8274 45.1312 44.4727 46.6738H38.8913C38.5282 45.5617 38.3897 43.2489 38.6185 42.0461H44.7382Z" fill="#4357EE"/>
<path d="M36.7895 42.0482C36.8692 43.6013 36.9469 45.1302 37.0277 46.7055C36.7066 46.7055 36.3047 46.7055 35.9028 46.7055C35.0266 46.7055 34.1504 46.7129 33.2742 46.696C33.1556 46.6939 32.9657 46.5926 32.9321 46.4944C32.4368 45.0521 32.3476 43.5739 32.5806 42.0482H36.7895Z" fill="#4357EE"/>
<path d="M50.7583 42.0493C50.9829 43.5433 50.8937 44.973 50.4582 46.3784C50.4036 46.5525 50.3711 46.7139 50.1109 46.7107C48.8684 46.696 47.626 46.7034 46.3836 46.7013C46.3343 46.7013 46.2839 46.6812 46.3112 46.6875C46.391 45.1344 46.4686 43.6066 46.5484 42.0503H50.7594L50.7583 42.0493Z" fill="#4357EE"/>
<path d="M43.1285 34.4598C46.5788 34.9283 49.4393 37.6484 50.2935 40.4307H46.1968C45.6659 38.2245 44.8757 36.1343 43.1285 34.4598Z" fill="#4357EE"/>
<path d="M40.2051 34.4619C38.5755 36.0288 37.7507 37.9649 37.2459 40.0667C37.1767 40.3547 37.0801 40.4687 36.7632 40.4634C35.5345 40.4413 34.3046 40.455 33.0706 40.455C33.6897 37.9575 36.5953 34.941 40.2051 34.463V34.4619Z" fill="#4357EE"/>
<path d="M38.8861 40.4286C39.1159 39.3598 39.4684 38.3458 40.0298 37.4279C40.3751 36.8623 40.7959 36.3358 41.2408 35.8431C41.5923 35.4527 41.7529 35.4537 42.1096 35.8483C42.5462 36.3305 42.9554 36.8497 43.2964 37.4036C43.8631 38.3236 44.2041 39.345 44.4602 40.4286H38.8861Z" fill="#4357EE"/>
<path d="M43.138 52.6901C44.4108 51.4936 45.1506 50.0481 45.7047 48.4886C45.7383 48.3926 45.902 48.2839 46.0069 48.2829C47.1811 48.2681 48.3564 48.2734 49.5369 48.2734C49.0237 50.0628 45.4214 52.5719 43.138 52.6901Z" fill="#4357EE"/>
<path d="M40.0813 52.7165C37.3614 52.1878 35.2522 50.736 33.7296 48.3029H37.5062C37.8661 49.0742 38.1788 49.8824 38.609 50.6221C39.033 51.3501 39.5755 52.0074 40.0813 52.7165Z" fill="#4357EE"/>
<path d="M39.3509 48.2881H44.0089C43.7875 48.7651 43.628 49.2251 43.3751 49.626C43.0215 50.1884 42.6333 50.7371 42.1967 51.2361C41.7633 51.732 41.6101 51.7057 41.1421 51.2541C40.4622 50.5978 39.9994 49.7938 39.6153 48.9391C39.5262 48.7397 39.4506 48.534 39.3509 48.2892V48.2881Z" fill="#4357EE"/>
</svg>
