<svg width="78" height="78" viewBox="0 0 78 78" fill="none" xmlns="http://www.w3.org/2000/svg">
<circle cx="39" cy="39" r="39" fill="#FBEDC0"/>
<path d="M19.9542 36.7822H57.7609V37.211C57.7609 41.9498 57.762 46.6886 57.7609 51.4274C57.7609 53.7516 56.196 55.3255 53.8894 55.3255C43.8724 55.3255 33.8554 55.3255 23.8384 55.3255C21.5275 55.3255 19.9563 53.7547 19.9552 51.4391C19.9531 46.6865 19.9552 41.9349 19.9552 37.1823V36.7822H19.9542ZM33.5511 44.9316C33.5638 45.9522 34.034 47.226 35.0568 48.2391C36.291 49.4608 37.3339 50.808 38.0609 52.3937C38.213 52.7257 38.4825 52.9109 38.8375 52.9172C39.2105 52.9236 39.4937 52.7395 39.6522 52.3926C40.376 50.8038 41.4305 49.4682 42.6562 48.2391C44.3511 46.5396 44.6427 43.8856 43.4371 41.8157C42.2198 39.7257 39.7578 38.7158 37.4512 39.3617C35.1392 40.0088 33.5511 42.1031 33.549 44.9327L33.5511 44.9316Z" fill="#4357EE"/>
<path d="M22.9285 35.7989H19.9541C19.9541 35.6509 19.9541 35.5126 19.9541 35.3732C19.9541 32.3073 19.952 29.2403 19.9541 26.1744C19.9572 24.0886 21.3583 22.6807 23.4315 22.6797C26.3309 22.6775 29.2314 22.6871 32.1308 22.6744C33.1315 22.6701 33.8764 23.0681 34.391 23.9343C34.8432 24.6974 35.3282 25.4401 35.7773 26.2053C36.3109 27.1162 37.095 27.5217 38.1357 27.5206C44.1068 27.5132 50.0769 27.5164 56.048 27.5174C56.943 27.5174 57.5368 27.9484 57.7196 28.7285C57.7471 28.8434 57.7597 28.9647 57.7597 29.0828C57.7619 31.2463 57.7619 33.4108 57.7608 35.5743C57.7608 35.6382 57.7502 35.702 57.7428 35.7872H54.8096C54.8022 35.6509 54.7885 35.5105 54.7885 35.3711C54.7864 34.4686 54.7937 33.5652 54.7853 32.6627C54.7747 31.4613 54.0435 30.7291 52.8537 30.7291C43.5215 30.7281 34.1902 30.7281 24.858 30.7291C23.6692 30.7291 22.9391 31.4623 22.9296 32.6649C22.9222 33.5545 22.9275 34.4442 22.9275 35.3328C22.9275 35.4764 22.9275 35.6201 22.9275 35.7999L22.9285 35.7989Z" fill="#4357EE"/>
<path d="M38.8375 47.292C37.317 47.2856 36.0892 46.0352 36.0923 44.4953C36.0955 42.9693 37.3466 41.7178 38.865 41.7178C40.4003 41.7178 41.6365 42.9831 41.626 44.5443C41.6165 46.0746 40.3738 47.2994 38.8364 47.2931L38.8375 47.292Z" fill="#4357EE"/>
</svg>
