<svg width="50" height="40" viewBox="0 0 50 40" fill="none" xmlns="http://www.w3.org/2000/svg">
<path fill-rule="evenodd" clip-rule="evenodd" d="M6.48522 0.0825195V11.8853C6.48522 12.108 6.2616 12.3306 6.03797 12.3306H5.36708C5.14345 12.3306 4.91983 12.108 4.91983 11.8853V0.0825195H3.24261V11.8853C3.24261 12.108 3.01898 12.3306 2.79536 12.3306H2.12447C1.90084 12.3306 1.67721 12.108 1.67721 11.8853V0.0825195C0.670885 0.305213 0 1.08464 0 2.08676V12.9987L2.12447 14.7491V38.3857C2.12447 39.1652 2.68354 39.7219 3.35443 39.7219H4.80801C5.4789 39.7219 6.14978 39.1652 6.14978 38.3857V21.4054H6.15985V14.7079L8.16244 12.9987V2.08676C8.16244 1.08464 7.49155 0.305213 6.48522 0.0825195Z" fill="#4357EE"/>
<path fill-rule="evenodd" clip-rule="evenodd" d="M25.4365 11.939C20.2331 11.939 15.9258 16.2463 15.9258 21.4497C15.9258 26.6532 20.2331 31.0508 25.4365 31.0508C30.64 31.0508 35.0376 26.7435 35.0376 21.4497C35.0376 16.1559 30.7303 11.939 25.4365 11.939Z" fill="#4357EE"/>
<path fill-rule="evenodd" clip-rule="evenodd" d="M25.1754 3.75708C15.4476 3.75708 7.50879 11.6627 7.50879 21.3498C7.50879 31.037 15.4476 38.9426 25.1754 38.9426C34.9033 38.9426 42.8421 31.1483 42.8421 21.3498C42.8421 11.5513 35.0151 3.75708 25.1754 3.75708ZM25.1754 34.1547C18.1311 34.1547 12.3168 28.476 12.3168 21.3498C12.3168 14.2237 18.1311 8.54498 25.1754 8.54498C32.2197 8.54498 38.0341 14.335 38.0341 21.3498C38.0341 28.3647 32.3315 34.1547 25.1754 34.1547Z" fill="#4357EE"/>
<path fill-rule="evenodd" clip-rule="evenodd" d="M46.5765 1.53001C38.1904 13.5554 46.1292 23.3539 46.1292 24.2447V38.8311C46.1292 39.2765 46.4647 39.7219 47.0237 39.7219H48.4773C48.9246 39.7219 49.3718 39.2765 49.3718 38.8311V1.41866C49.3718 -0.362885 47.471 0.305194 46.5765 1.53001Z" fill="#4357EE"/>
</svg>
