<svg width="35" height="24" viewBox="0 0 35 24" fill="none" xmlns="http://www.w3.org/2000/svg">
<path fill-rule="evenodd" clip-rule="evenodd" d="M26.9562 7.25319C26.7799 7.23364 26.5986 7.21354 26.4104 7.19002V7.18002C26.5191 7.10591 26.6058 7.04157 26.6827 6.98458C26.7613 6.92621 26.8296 6.87556 26.9004 6.83002C28.6004 5.69002 30.4704 5.11002 32.5204 5.08002C33.7804 5.06002 34.6204 4.19002 34.6004 2.92002C34.5804 1.73002 33.7304 0.960023 32.4704 1.00002C31.9104 1.02002 31.3404 1.05002 30.7904 1.14002C25.7904 1.96002 22.1804 4.67002 20.0004 9.23002C18.8604 11.63 18.3804 14.18 18.8304 16.82C19.5304 20.94 23.4104 23.78 27.5404 23.23C31.9204 22.65 34.9704 18.64 34.4004 14.22C33.9804 10.97 31.5604 8.26002 28.3704 7.47002C27.9124 7.35922 27.4545 7.30844 26.9562 7.25319ZM0.0369089 13.7093C0.024661 13.7961 0.012409 13.883 0 13.9698V16.2698C0.04 16.4598 0.08 16.6598 0.12 16.8598C0.9 21.1898 5.12 24.0298 9.41 23.1198C13.55 22.2398 16.29 18.3098 15.68 14.1198C15.19 10.7598 12.6 8.04982 9.25 7.37982C9.02121 7.33215 8.78788 7.30948 8.55542 7.28689C8.30017 7.26209 8.04598 7.23738 7.8 7.17981C7.80924 7.09666 7.85263 7.06472 7.89072 7.03668C7.89386 7.03438 7.89696 7.0321 7.9 7.02982C8.48 6.60982 9.1 6.23981 9.76 5.94981C11.08 5.35982 12.45 5.08982 13.89 5.06982C15.02 5.05982 15.9 4.12981 15.89 2.98981C15.88 1.78981 15.05 0.969815 13.85 0.999815C13.18 1.01982 12.52 1.05982 11.87 1.17982C6.15 2.23981 2.43 5.58981 0.58 11.0698C0.288364 11.9265 0.162844 12.8164 0.0369089 13.7093Z" fill="#CBD8F1"/>
</svg>
