<svg width="40" height="43" viewBox="0 0 40 43" fill="none" xmlns="http://www.w3.org/2000/svg">
<g clip-path="url(#clip0_293_1865)">
<path d="M33.9524 0.840332H5.24596C4.87567 0.840332 4.54946 1.06074 4.39958 1.39577L1.02287 9.33059C0.767195 9.93893 1.20802 10.609 1.86925 10.609H37.3379C37.9991 10.609 38.44 9.93893 38.1843 9.33059L34.8076 1.39577C34.6665 1.06074 34.3315 0.840332 33.9612 0.840332L33.9524 0.840332Z" fill="#4357EE"/>
<path d="M27.8067 18.9493C29.5524 18.9493 30.9895 17.5299 30.9895 15.7754V12.478H24.6416V15.7754C24.6416 17.521 26.0611 18.9493 27.8067 18.9493Z" fill="#4357EE"/>
<path d="M37.7261 20.501C37.1971 20.695 36.624 20.8184 36.0245 20.8184C34.3229 20.8184 32.8241 19.972 31.916 18.676C30.9991 19.9632 29.5003 20.8184 27.7987 20.8184C26.0972 20.8184 24.6072 19.972 23.6903 18.676C22.7734 19.9632 21.2746 20.8184 19.5818 20.8184C17.889 20.8184 16.3902 19.972 15.4733 18.676C14.5564 19.9632 13.0576 20.8184 11.3648 20.8184C9.67208 20.8184 8.16446 19.972 7.24755 18.676C6.33946 19.9632 4.84066 20.8184 3.13908 20.8184C2.53956 20.8184 1.96649 20.695 1.4375 20.501V41.8281C1.4375 42.3306 1.85187 42.745 2.35441 42.745H36.7827C37.2853 42.745 37.6996 42.3306 37.6996 41.8281V20.501H37.7261ZM14.6093 25.9055H24.5895C25.1097 25.9055 25.5241 26.3552 25.5241 26.9371V39.1919H13.6748V26.9371C13.6748 26.364 14.0979 25.9055 14.6093 25.9055Z" fill="#4357EE"/>
<path d="M19.5987 18.9493C21.3444 18.9493 22.7726 17.5299 22.7726 15.7754V12.478H16.4336V15.7754C16.4336 17.521 17.853 18.9493 19.5987 18.9493Z" fill="#4357EE"/>
<path d="M6.33904 15.7843V12.4869H0V15.7843C0 17.53 1.41945 18.9582 3.17393 18.9582C4.9284 18.9582 6.33904 17.5388 6.33904 15.7843Z" fill="#4357EE"/>
<path d="M11.3908 18.9493C13.1364 18.9493 14.5559 17.5299 14.5559 15.7754V12.478H8.20801V15.7754C8.20801 17.521 9.63628 18.9493 11.3908 18.9493Z" fill="#4357EE"/>
<path d="M32.8586 12.478V15.7754C32.8586 17.521 34.278 18.9493 36.0237 18.9493C37.7693 18.9493 39.1976 17.5299 39.1976 15.7754V12.478H32.8586Z" fill="#4357EE"/>
</g>
<defs>
<clipPath id="clip0_293_1865">
<rect width="39.198" height="41.9047" fill="white" transform="translate(0 0.840332)"/>
</clipPath>
</defs>
</svg>
