<svg width="20" height="16" viewBox="0 0 20 16" fill="none" xmlns="http://www.w3.org/2000/svg">
<path d="M-5.79648e-07 8.86839L2.73252 8.86839L16.0662 8.86838C16.1186 8.86566 16.1712 8.86566 16.2236 8.86838C16.3344 8.88108 16.4972 8.81217 16.5436 8.91192C16.5901 9.01167 16.4364 9.09327 16.3648 9.17126C14.7889 10.7732 13.2106 12.3728 11.63 13.9699C11.3564 14.2474 11.3582 14.2474 11.63 14.5267C11.9465 14.8495 12.2594 15.1742 12.5723 15.4988L12.626 15.4988C13.0885 15.0236 13.5528 14.5491 14.0189 14.0751L19.8033 8.21914C20.0554 7.96342 20.0554 7.9616 19.8033 7.70226C17.4848 5.3543 15.1662 3.00392 12.8477 0.651119C12.6689 0.469762 12.5526 0.433491 12.3703 0.651119C12.1414 0.919527 11.8768 1.15892 11.6282 1.411C11.3797 1.66309 11.3618 1.68304 11.6282 1.95507C13.2136 3.56189 14.7991 5.16871 16.3845 6.77553C16.456 6.84808 16.5633 6.9043 16.5776 7.01856C16.515 7.09473 16.4292 7.06751 16.3559 7.06751L-7.37085e-07 7.06752L-5.79648e-07 8.86839Z" fill="#4357EE"/>
</svg>
