<svg width="14" height="16" viewBox="0 0 14 16" fill="none" xmlns="http://www.w3.org/2000/svg">
<path d="M6.24284 0.90918C9.12509 0.90918 11.658 2.85186 12.3567 5.67758C12.8371 7.62026 12.4877 9.43049 11.3086 11.0641C11.2213 11.1966 11.2213 11.2407 11.3086 11.3732C12.1383 12.1679 12.9244 13.0068 13.7542 13.8457C14.1035 14.1989 14.0598 14.6846 13.7105 14.9495C13.4048 15.1702 13.0554 15.1261 12.7934 14.8612C12.2257 14.2872 11.658 13.7132 11.0903 13.1392C10.8282 12.8743 10.5662 12.6094 10.3479 12.3445C10.2605 12.2562 10.2168 12.2562 10.0858 12.3445C9.2561 13.0068 8.29535 13.4042 7.24726 13.5366C5.8498 13.7574 4.49602 13.5366 3.27325 12.8302C1.48276 11.8147 0.434669 10.2694 0.0853052 8.23839C-0.220388 6.33986 0.303657 4.61794 1.52643 3.11677C2.53085 1.92467 3.79729 1.21824 5.28209 0.953332C5.63145 0.953332 5.93714 0.90918 6.24284 0.90918ZM1.43909 7.26705C1.43909 10.0045 3.57894 12.1679 6.24284 12.2121C8.9504 12.2121 11.0903 10.0486 11.1339 7.3112C11.1339 4.70624 9.12509 2.41034 6.28651 2.36619C3.4916 2.32204 1.39542 4.66209 1.43909 7.26705Z" fill="#959595"/>
</svg>
