<svg width="20" height="16" viewBox="0 0 20 16" fill="none" xmlns="http://www.w3.org/2000/svg">
<path d="M0 14.2022C1.82648 15.3708 4.01826 16 6.30137 16C13.9726 16 18.2648 9.61798 17.9909 3.95506C18.8128 3.41574 19.4521 2.69663 20 1.88765C19.2694 2.2472 18.4475 2.42697 17.6256 2.51686C18.4475 1.97753 19.0868 1.25843 19.4521 0.269666C18.6301 0.719104 17.8082 1.07866 16.8037 1.25844C16.0731 0.449446 14.9772 0 13.79 0C11.1416 0 9.22374 2.42697 9.77169 4.94382C6.39269 4.76404 3.28767 3.14607 1.27853 0.719104C0.182643 2.51686 0.730597 4.94382 2.55708 6.11236C1.91781 6.11236 1.27854 5.93258 0.730597 5.57303C0.730597 7.46067 2.00913 9.16854 4.01826 9.61797C3.47031 9.79775 2.83105 9.79775 2.19178 9.70787C2.73972 11.3258 4.20092 12.4944 6.0274 12.4944C4.38357 13.9326 2.19178 14.4719 0 14.2022Z" fill="#D6D6D6"/>
</svg>
